<svg width="121" height="137" viewBox="0 0 121 137" fill="none" xmlns="http://www.w3.org/2000/svg">
<path d="M118.559 102.077C119.907 113.129 95.0059 125.258 62.9406 129.169C30.8753 133.08 3.7885 127.29 2.4406 116.238C1.09269 105.186 25.9941 93.0568 58.0594 89.1461C90.1247 85.2354 117.212 91.0246 118.559 102.077Z" fill="#E8E8E8"/>
<path fill-rule="evenodd" clip-rule="evenodd" d="M13.2259 125.026L5.74322 122.347L5.33234 122.168L4.969 121.951L4.64028 121.688L4.37212 121.38L4.15585 121.042L3.99582 120.659L3.90065 120.238L3.87903 119.791V39.4372L3.90065 38.9576L3.99582 38.47L4.15585 37.9823L4.37212 37.4786L4.64028 36.9856L4.969 36.4899L5.33234 36.0103L5.74322 35.5361L6.20169 35.0779L6.68612 34.6358L7.21815 34.2232L7.7761 33.8266L8.35569 33.4676L8.97421 33.13L9.60137 32.8353L10.2588 32.5807L23.9396 27.6829L32.0884 24.7731L72.9535 10.1545L80.0729 7.61185L94.7961 2.34691L95.4363 2.13791L96.0807 1.97984L96.6949 1.87534L97.2788 1.81372H97.8368L98.3688 1.85124L98.8532 1.94232L99.3117 2.07629L106.794 4.7476L106.336 4.619L105.839 4.53059L105.319 4.49307H104.762L104.165 4.55201L103.563 4.65651L102.932 4.81458L102.279 5.02358L87.5556 10.2885L80.4363 12.8339L39.5711 27.4498L31.4223 30.3622L17.7415 35.2601L17.0884 35.5146L16.4569 35.8067L15.8514 36.1443L15.2588 36.5033L14.7009 36.8945L14.1689 37.3152L13.6844 37.7573L13.2259 38.2154L12.8107 38.687L12.4474 39.1666L12.136 39.6623L11.8548 40.1579L11.6386 40.6509L11.4829 41.1466L11.3834 41.6343L11.3488 42.1139V122.468L11.3834 122.918L11.4829 123.338L11.6386 123.714L11.8548 124.057L12.136 124.365L12.4474 124.619L12.8107 124.844L13.2259 125.026Z" fill="white"/>
<path fill-rule="evenodd" clip-rule="evenodd" d="M97.6485 2.68493L95.966 2.95555L95.447 3.12703L9.30064 34.1271L7.3629 35.582L5.71498 37.7657L5.29111 39.4751L5.39924 120.542L6.32053 121.53L9.95373 122.835L9.92778 122.506V42.1143L10.2435 40.4799L11.5281 38.3123L13.574 36.3537L15.5117 35.1453L16.978 34.5157L102.099 4.08622L97.6485 2.68493ZM13.2237 125.903C12.9814 125.903 12.7392 125.866 12.51 125.782L3.97624 122.581L3.12848 121.809L2.62243 120.887L2.45374 119.829V39.4403L2.76947 37.8059L4.05409 35.6383L6.09993 33.6797L8.03764 32.4713L9.50392 31.8416L95.5551 1.16572L97.069 0.948713L97.8215 0.935303L99.2489 1.10142L99.9279 1.28095L107.506 3.98977C108.172 4.22823 108.414 4.74 108.064 5.16869C107.713 5.58935 106.887 5.75278 106.2 5.55987L105.144 5.37233L103.475 5.64294L102.943 5.81443L16.792 36.8145L14.8543 38.2694L13.2107 40.4531L12.7868 42.1625L12.8949 123.221L14.0454 124.309C14.6769 124.579 14.8456 125.105 14.4347 125.501C14.1536 125.761 13.6951 125.903 13.2237 125.903Z" fill="#414141"/>
<path fill-rule="evenodd" clip-rule="evenodd" d="M102.281 94.5151L17.7432 124.749C14.2181 126.011 11.3505 124.982 11.3505 122.469V42.1149C11.3505 39.5964 14.2181 36.5204 17.7432 35.2585L31.424 30.3606L39.5728 27.4508L80.438 12.8323L87.5574 10.2896L102.281 5.02464C105.793 3.76534 108.66 4.79154 108.66 7.30477V87.6586C108.66 90.1718 105.793 93.2531 102.281 94.5151Z" fill="white"/>
<path fill-rule="evenodd" clip-rule="evenodd" d="M102.279 94.5144H102.313H102.279ZM105.125 5.36162C104.493 5.36162 103.766 5.51168 102.979 5.7823L18.4418 36.0242C15.3795 37.12 12.7757 39.9092 12.7757 42.1143V122.468C12.7757 123.339 13.1996 123.99 13.9392 124.261C14.6918 124.523 15.8034 124.427 17.0275 123.985L101.565 93.7508C104.64 92.6549 107.244 89.8657 107.244 87.6606V7.30684C107.244 6.43605 106.82 5.77694 106.08 5.51436C105.804 5.41523 105.488 5.36162 105.125 5.36162ZM14.8951 126.174C14.0344 126.174 13.2385 126.045 12.5076 125.782C10.838 125.19 9.92969 124.003 9.92969 122.468V42.1143C9.92969 39.2635 13.0439 35.9196 17.0275 34.4942L101.565 4.26041C103.719 3.48876 105.838 3.38961 107.499 3.98175C109.169 4.58192 110.09 5.75817 110.09 7.30415V87.658C110.09 90.5088 106.967 93.8526 102.984 95.278L18.4461 125.512C17.2178 125.949 16.0197 126.174 14.8951 126.174Z" fill="#414141"/>
<path fill-rule="evenodd" clip-rule="evenodd" d="M23.0396 40.9212V117.427L99.9731 89.9159V13.4177C74.3286 22.5837 48.6841 31.7551 23.0396 40.9212Z" fill="white"/>
<path fill-rule="evenodd" clip-rule="evenodd" d="M24.4783 41.4391V115.904L98.5528 89.4103V14.9376L87.6017 18.8556L37.9948 36.6034L24.4783 41.4391ZM23.0509 118.313C22.8087 118.313 22.5535 118.275 22.3502 118.192C21.9047 118.034 21.6366 117.742 21.6366 117.428V40.922C21.6366 40.6139 21.9047 40.3218 22.3502 40.1638L37.2544 34.8331L87.1462 16.9887L99.2708 12.6521C99.7163 12.494 100.253 12.494 100.698 12.6521C101.135 12.8102 101.399 13.1023 101.399 13.4185V89.9167C101.399 90.2302 101.131 90.5249 100.698 90.6803L23.7646 118.192C23.5484 118.275 23.3061 118.313 23.0509 118.313Z" fill="#414141"/>
<path fill-rule="evenodd" clip-rule="evenodd" d="M13.226 125.029L5.74322 122.35L5.33234 122.17L4.96901 121.953L4.64028 121.691L4.37212 121.383L4.15585 121.045L3.99582 120.662L3.90065 120.241L3.87903 119.794V39.4399L3.90065 38.9602L3.99582 38.4726L4.15585 37.9769L4.37212 37.4812L4.64028 36.9882L4.96901 36.4926L5.33234 36.0129L5.74322 35.5387L5.76487 35.5173L13.2476 38.1939L13.226 38.2181L12.8107 38.6896L12.4474 39.1692L12.136 39.6649L11.8462 40.1606L11.6386 40.6536L11.4829 41.1493L11.3834 41.6369L11.3488 42.1165V122.47L11.3834 122.92L11.4829 123.341L11.6386 123.716L11.8462 124.059L12.136 124.367L12.4474 124.622L12.8107 124.847L13.226 125.029Z" fill="#2B7CFF"/>
<path fill-rule="evenodd" clip-rule="evenodd" d="M6.34648 36.7444L5.52467 38.2074L5.29544 39.4747L5.40358 120.541L6.32486 121.53L9.95808 122.835L9.93213 122.505V42.1139L10.2479 40.4795L11.3595 38.5289L6.34648 36.7444ZM13.2237 125.903C12.9815 125.903 12.7392 125.865 12.523 125.782L3.97624 122.58L3.12848 121.809L2.62243 120.879L2.45374 119.829V39.4399L2.76947 37.8055L4.05409 35.6379L4.50391 35.1208C4.68557 34.9118 5.00133 34.7457 5.37763 34.6867C5.74095 34.6197 6.16483 34.6412 6.48922 34.7537L13.9719 37.4304C14.3007 37.5509 14.5385 37.7465 14.638 37.9716C14.7332 38.1966 14.6726 38.4351 14.4823 38.6388L13.2107 40.4473L12.7868 42.1567L12.895 123.215L14.0455 124.303C14.677 124.566 14.8586 125.099 14.4434 125.495C14.1666 125.753 13.6951 125.903 13.2237 125.903Z" fill="#414141"/>
<path d="M91.243 33.0478L32.4705 53.3321C32.2286 53.4155 32.0663 53.6433 32.0663 53.8992V69.6392C32.0663 70.0569 32.4826 70.3468 32.8744 70.2019L91.6469 48.4665C91.8824 48.3794 92.0388 48.1548 92.0388 47.9037V33.6149C92.0388 33.2027 91.6327 32.9133 91.243 33.0478Z" stroke="#414141" stroke-width="1.9" stroke-linecap="square"/>
<path d="M32.0663 68.2802V84.4577C32.0663 84.8727 32.4775 85.1624 32.8683 85.0227L91.6407 64.0121C91.8794 63.9268 92.0388 63.7007 92.0388 63.4472V49.0618" stroke="#414141" stroke-width="1.9" stroke-linecap="square"/>
<path d="M32.0663 83.5044V99.9867C32.0663 100.406 32.4859 100.696 32.8784 100.548L77.5833 83.6521C77.8167 83.5638 77.9711 83.3403 77.9711 83.0908V68.313" stroke="#414141" stroke-width="1.9" stroke-linecap="square"/>
<path d="M48.3583 48.2864V93.4508M63.1663 43.1035L63.9067 88.268M77.9743 37.9554V69.0523" stroke="#414141" stroke-width="1.9" stroke-linecap="square"/>
<path d="M38.7024 21.8985L32.4984 23.7597C32.2446 23.8358 32.0708 24.0694 32.0708 24.3344V40.3172C32.0708 40.6485 32.3394 40.9172 32.6708 40.9172H38.8748C39.2062 40.9172 39.4748 40.6485 39.4748 40.3172V22.4732C39.4748 22.0712 39.0874 21.783 38.7024 21.8985Z" fill="white" stroke="#414141" stroke-width="1.9" stroke-linecap="square"/>
<path d="M86.0861 5.60984L79.8821 7.47104C79.6283 7.54718 79.4545 7.78077 79.4545 8.04573V24.0285C79.4545 24.3599 79.7231 24.6285 80.0545 24.6285H86.2585C86.5898 24.6285 86.8585 24.3599 86.8585 24.0285V6.18453C86.8585 5.78261 86.471 5.49435 86.0861 5.60984Z" fill="white" stroke="#414141" stroke-width="1.9" stroke-linecap="square"/>
</svg>
