<svg width="91" height="106" viewBox="0 0 91 106" fill="none" xmlns="http://www.w3.org/2000/svg">
<path d="M89.1475 83.8482C89.8134 92.1468 71.8135 100.362 48.9437 102.197C26.0738 104.032 6.9942 98.7929 6.32825 90.4944C5.95585 85.8539 11.4203 81.2394 20.3091 77.7521C27.3161 75.0031 36.4509 72.9544 46.532 72.1454C69.4019 70.3101 88.4815 75.5497 89.1475 83.8482Z" fill="#E8E8E8"/>
<path fill-rule="evenodd" clip-rule="evenodd" d="M14.7201 95.9839L25.1808 102.024C24.6835 101.679 24.6907 101.089 24.7696 100.546L29.7238 72.2077C29.9031 71.0121 29.8935 69.7306 28.7912 68.9989L18.3305 62.9616L18.1608 62.8707C19.4232 63.6215 19.4687 64.8242 19.2631 66.1679L14.3089 94.5063C14.2252 95.0467 14.2252 95.6396 14.7201 95.9839Z" fill="#2B7CFF"/>
<path fill-rule="evenodd" clip-rule="evenodd" d="M15.0796 95.4397C19.3651 97.9136 24.8388 95.2284 25.7009 90.3558C26.7857 84.2249 28.053 77.978 29.0791 72.1082C29.1762 71.5986 29.1842 71.0759 29.1029 70.5636C29.0663 70.3566 28.9881 70.1592 28.873 69.9833C28.758 69.8074 28.6084 69.6567 28.4334 69.5402L21.3769 65.4676C20.7876 65.1275 20.0268 65.5947 19.9071 66.2645L14.9433 94.6172C14.9086 94.8074 14.9046 95.002 14.9314 95.1935C14.9453 95.288 14.9949 95.3736 15.07 95.4326L15.0796 95.4397ZM24.8539 102.584C24.8553 102.584 24.8557 102.582 24.8546 102.582L14.3527 96.5181C14.171 96.3945 14.0161 96.2356 13.8974 96.0507C13.7786 95.8658 13.6984 95.6588 13.6617 95.4421C13.6043 95.1066 13.6043 94.7638 13.6617 94.4283L18.6183 66.0685C18.7223 65.5355 18.7223 64.9875 18.6183 64.4545C18.5619 64.2376 18.4614 64.0346 18.3232 63.8582C18.185 63.6817 18.012 63.5356 17.8149 63.4288C17.6674 63.3431 17.5595 63.203 17.5143 63.0385C17.4691 62.874 17.4904 62.6984 17.5735 62.5495C17.6566 62.4005 17.7949 62.2901 17.9585 62.2422C18.1222 62.1942 18.2982 62.2125 18.4485 62.293C21.9896 64.1604 25.6479 66.4367 29.1364 68.4571C29.4548 68.665 29.7277 68.9353 29.9386 69.2518C30.1494 69.5683 30.2938 69.9243 30.363 70.2982C30.4814 70.9608 30.4814 71.6392 30.363 72.3018L25.4064 100.655C25.3739 100.84 25.3682 101.029 25.3897 101.216V101.233C25.3966 101.283 25.4135 101.332 25.4394 101.375C25.4653 101.419 25.4996 101.457 25.5403 101.487C25.6859 101.578 25.789 101.724 25.8271 101.892C25.8652 102.059 25.8352 102.235 25.7435 102.381C25.6519 102.526 25.5062 102.63 25.3385 102.668C25.1723 102.705 24.998 102.676 24.8532 102.587C24.8521 102.586 24.8526 102.584 24.8539 102.584Z" fill="#414141"/>
<path fill-rule="evenodd" clip-rule="evenodd" d="M49.2853 20.857L59.746 26.9015C60.492 27.2339 61.097 27.088 61.8238 26.7748L84.3352 16.2352C84.7059 16.0798 85.0095 15.9961 85.373 16.2161L74.9147 10.1644C74.5512 9.95878 74.2451 10.0257 73.8769 10.1859L51.3631 20.7231C50.6386 21.0435 50.0337 21.1894 49.2853 20.857Z" fill="#B9D4FF"/>
<path fill-rule="evenodd" clip-rule="evenodd" d="M51.5035 21.3907C51.5025 21.3898 51.5036 21.3881 51.5048 21.3888L60.0329 26.3118C60.2495 26.4117 60.4888 26.4522 60.7262 26.429C60.7374 26.429 60.7485 26.4282 60.7596 26.4265C61.0389 26.3841 61.311 26.3028 61.5679 26.1851L74.1758 20.282C78.1182 18.4361 78.3547 12.9179 74.5846 10.7415C74.5419 10.7165 74.493 10.7041 74.4435 10.7056L-nan -nanL74.4435 10.7056C74.3408 10.7239 74.2411 10.7561 74.1471 10.8013C66.6801 13.7565 59.0003 18.2299 51.5047 21.3908C51.5043 21.391 51.5039 21.3909 51.5035 21.3907ZM59.416 27.4595L48.984 21.4365C48.8391 21.3562 48.7302 21.2236 48.6797 21.0658C48.6292 20.908 48.6409 20.7369 48.7123 20.5874C48.7837 20.4379 48.9094 20.3213 49.0639 20.2613C49.2184 20.2014 49.3899 20.2027 49.5434 20.2649C49.7671 20.3699 50.0146 20.4136 50.2607 20.3917C50.5468 20.3531 50.8255 20.2726 51.088 20.1525L73.6138 9.60815C73.8404 9.50314 74.0828 9.43609 74.3311 9.4097H74.3503C74.6486 9.38959 74.9464 9.45778 75.2063 9.60576L85.6932 15.6598C85.8376 15.7481 85.9419 15.8891 85.9839 16.053C86.026 16.2169 86.0025 16.3907 85.9185 16.5376C85.8345 16.6845 85.6966 16.7928 85.534 16.8396C85.3736 16.8858 85.2017 16.8686 85.0539 16.7916C85.0498 16.7895 85.0453 16.7884 85.0407 16.7884C85.0359 16.7884 85.0311 16.7871 85.0269 16.7848C84.9956 16.7683 84.9615 16.7578 84.9265 16.7541C84.9054 16.7518 84.8841 16.754 84.8633 16.7579C84.7674 16.7758 84.6743 16.8061 84.5862 16.8482L62.0795 27.3806C61.7007 27.5565 61.2978 27.6749 60.884 27.7321H60.8506C60.3783 27.7781 59.9025 27.6954 59.4733 27.493L59.416 27.4595Z" fill="#414141"/>
<path fill-rule="evenodd" clip-rule="evenodd" d="M24.6266 36.1532L2.11522 51.5872C1.63855 51.9236 1.25579 52.3763 1.00336 52.9022C0.678178 53.5933 0.331483 54.7768 1.06553 55.3315L11.5238 61.3689C10.7491 60.7831 11.17 59.4991 11.5382 58.7985C11.7871 58.3318 12.1416 57.9298 12.5735 57.6245L35.0897 42.1905C36.553 41.1313 37.4233 39.7995 37.9876 38.0875L46.9779 8.93141C47.2887 8.06108 48.4627 6.18891 49.6343 6.81775L39.176 0.780424C38.0092 0.165932 36.816 2.00224 36.5243 2.8893L27.5365 32.0597C26.965 33.7478 26.0899 35.0987 24.6266 36.1532Z" fill="#B9D4FF"/>
<path fill-rule="evenodd" clip-rule="evenodd" d="M24.9945 36.6957C24.995 36.6941 24.9932 36.6928 24.9919 36.6937L2.50859 52.1129C2.31475 52.2498 2.13885 52.4104 1.98497 52.5911L1.95864 52.6197C1.8207 52.7955 1.70056 52.9845 1.59999 53.184C1.41277 53.5559 1.30758 53.9635 1.29154 54.3795C1.28619 54.4578 1.29776 54.5363 1.32539 54.6098C1.38023 54.7554 1.52003 54.8446 1.65484 54.9224L9.29169 59.3317C9.85996 59.6598 10.5905 59.3052 10.8693 58.7112C10.9007 58.6442 10.9337 58.5779 10.9684 58.5123C10.9713 58.5069 10.9728 58.5008 10.9728 58.4947C10.9728 58.4883 10.9744 58.482 10.9775 58.4764C11.1255 58.2104 11.3002 57.9601 11.4988 57.7294C11.7066 57.496 11.939 57.2859 12.1922 57.1029L34.7084 41.6689C35.3438 41.2172 35.8964 40.6591 36.3415 40.0191C36.785 39.363 37.1313 38.6463 37.3697 37.8911C40.741 28.5852 43.1941 18.213 46.3575 8.72064C46.4395 8.49157 46.5394 8.26932 46.6563 8.05594C46.9379 7.5162 47.3127 7.03052 47.7634 6.62133C47.8061 6.58673 47.8008 6.52012 47.7532 6.49266L38.8617 1.3587C38.8187 1.33801 38.7744 1.31834 38.7269 1.31387C38.5454 1.29677 38.3352 1.41051 38.1324 1.58584C37.805 1.88741 37.5345 2.24538 37.3338 2.64267L37.3171 2.67137C37.2456 2.80918 37.1849 2.95227 37.1353 3.09936C33.764 12.4028 31.3084 22.7679 28.1451 32.2698C27.8677 33.1434 27.465 33.9722 26.9496 34.7301C26.4211 35.4923 25.7651 36.1575 25.0103 36.6964C25.0089 36.6974 25.0072 36.6979 25.0054 36.6979H24.9961C24.995 36.6979 24.9941 36.6968 24.9945 36.6957ZM1.74692 51.0455C1.75097 51.0398 1.75599 51.0349 1.76173 51.0309L24.2669 35.6172C24.8961 35.1659 25.4435 34.6103 25.8856 33.9746C26.3287 33.3183 26.6749 32.6016 26.9137 31.8466L35.9015 2.67615C35.9742 2.46483 36.0629 2.25939 36.167 2.06165L36.1861 2.0234C36.4658 1.48247 36.8408 0.996476 37.2931 0.588791C37.8455 0.110587 38.503 -0.145254 39.2059 0.0866751C39.298 0.118068 39.3876 0.156431 39.4738 0.201439L49.956 6.25311C50.0984 6.341 50.2015 6.4804 50.2437 6.64233C50.286 6.80425 50.2642 6.97624 50.1829 7.12252C50.1016 7.26879 49.967 7.3781 49.8072 7.4277C49.6474 7.47731 49.4746 7.4634 49.3248 7.38885L49.2578 7.36015C49.0665 7.2932 48.8346 7.41036 48.6122 7.59925C48.2821 7.9034 48.0085 8.26364 47.804 8.66326C47.7197 8.81703 47.647 8.97687 47.5865 9.14146L38.613 38.2928C38.3355 39.1649 37.9328 39.992 37.4175 40.7483C36.8896 41.5105 36.2344 42.1762 35.4807 42.7162C28.3077 47.4193 19.7717 53.0454 12.9645 58.1526C12.7886 58.2747 12.628 58.4176 12.4863 58.5782C12.344 58.7452 12.219 58.9262 12.1133 59.1185C11.9018 59.5029 11.7769 59.9289 11.7475 60.3667C11.7391 60.4547 11.7509 60.5436 11.782 60.6264C11.8131 60.7093 11.8626 60.784 11.9268 60.8449C12.0612 60.9438 12.1525 61.0906 12.1816 61.255C12.2108 61.4193 12.1757 61.5886 12.0835 61.7277C11.9914 61.8669 11.8492 61.9653 11.6865 62.0026C11.5238 62.0398 11.353 62.0131 11.2095 61.928L0.688996 55.8452C0.469319 55.674 0.292694 55.4539 0.173141 55.2023C0.0535885 54.9507 -0.00555875 54.6747 0.000410911 54.3963C0.011877 53.7826 0.158227 53.179 0.429009 52.6282C0.431758 52.6227 0.433199 52.6165 0.433199 52.6103C0.433199 52.6039 0.43469 52.5977 0.437567 52.592C0.581494 52.3087 0.753857 52.0408 0.952032 51.7924L0.983145 51.7518C1.20273 51.4902 1.45466 51.2575 1.73289 51.0595C1.73831 51.0556 1.74305 51.0509 1.74692 51.0455Z" fill="#414141"/>
<path fill-rule="evenodd" clip-rule="evenodd" d="M32.653 39.4606C34.6347 40.6051 37.3131 40.2729 37.9909 38.0871L46.9811 8.92863C47.268 8.04874 48.4731 6.1957 49.6304 6.81737L39.1721 0.780045C38.0674 0.187072 36.8934 1.88709 36.573 2.72634L27.5325 32.0498C26.9531 33.9382 27.2281 36.3277 28.9386 37.3156L32.653 39.4606Z" fill="#B9D4FF"/>
<path fill-rule="evenodd" clip-rule="evenodd" d="M35.908 40.5885C35.9007 40.5849 35.8988 40.5753 35.9041 40.5691C36.1794 40.246 36.4263 39.8997 36.6421 39.5341L36.6612 39.503C36.9558 38.9897 37.1962 38.4472 37.3785 37.8843C40.7044 28.7003 43.3847 18.1679 46.3663 8.72817C46.4473 8.48599 46.5497 8.25154 46.6724 8.0276C46.9529 7.49479 47.3262 7.01626 47.7747 6.61451C47.8161 6.58111 47.8111 6.51652 47.765 6.4899L38.8729 1.35427L38.8179 1.33036C38.629 1.25623 38.3875 1.37578 38.1556 1.56946C37.8247 1.86854 37.5494 2.22393 37.3426 2.61912C37.286 2.72477 37.2349 2.83331 37.1896 2.94429L28.154 32.251C27.9431 32.9171 27.6609 33.5584 27.3123 34.1638C26.9714 34.7392 27.1085 35.5119 27.6878 35.846L35.908 40.5885ZM37.7672 40.1705C37.7631 40.1877 37.7565 40.2041 37.7474 40.2191C37.4022 40.7941 36.9946 41.3293 36.5321 41.8151C36.4344 41.9362 36.2966 42.0185 36.1435 42.047C35.9905 42.0754 35.8324 42.0483 35.6976 41.9705L25.2393 35.9332C25.1956 35.9064 25.1547 35.8751 25.1174 35.8399C24.9927 35.7212 24.9201 35.5579 24.9156 35.3858C24.9111 35.2137 24.9751 35.0468 25.0934 34.9218C25.511 34.4916 25.8769 34.0141 26.1838 33.4991C26.4803 32.9752 26.7208 32.4214 26.9011 31.8469L35.9534 2.49957C36.0182 2.33132 36.0941 2.16758 36.1806 2.00941C36.4651 1.46699 36.8459 0.98086 37.3044 0.5748C37.8734 0.0965963 38.5501 -0.161634 39.265 0.110942C42.5311 1.58859 46.6413 4.41477 49.9266 6.2439C50.0053 6.28226 50.0754 6.33611 50.1328 6.40222C50.1901 6.46832 50.2335 6.54533 50.2604 6.62863C50.2873 6.71192 50.2971 6.79979 50.2893 6.88696C50.2814 6.97414 50.256 7.05884 50.2147 7.13597C50.1733 7.2131 50.1168 7.28108 50.0485 7.33584C49.9802 7.3906 49.9015 7.43102 49.8172 7.45466C49.733 7.47831 49.6448 7.4847 49.558 7.47345C49.4712 7.4622 49.3875 7.43355 49.3121 7.3892L49.2403 7.35812C49.0538 7.29834 48.8243 7.4155 48.5972 7.59722C48.2733 7.8926 48.0045 8.24315 47.8033 8.63253C47.7182 8.78588 47.6454 8.94579 47.5858 9.11073L38.6003 38.2812C38.3923 38.9218 38.1193 39.5394 37.7855 40.1244C37.7772 40.1388 37.7711 40.1544 37.7672 40.1705Z" fill="#414141"/>
<path fill-rule="evenodd" clip-rule="evenodd" d="M35.0908 42.204L12.5769 57.6356C11.1423 58.6183 10.578 61.0357 11.654 61.4445L28.6183 68.9236C29.601 69.3588 30.0099 70.5734 29.7229 72.2185L24.7688 100.545C24.4603 102.333 25.9451 102.733 27.1836 101.176L46.6514 76.6347C47.7751 75.2192 49.1069 74.4493 50.2379 74.5688L69.6912 76.6514C70.925 76.7805 72.4218 74.6645 72.1085 73.2299L67.1758 50.5917C66.8937 49.2838 67.3026 47.5862 68.2829 46.0224L85.2591 18.9705C86.3375 17.2561 85.7565 15.5537 84.3386 16.2232L61.8272 26.7604C60.5073 27.3797 59.472 27.0736 58.9292 26.0025L49.9629 7.19949C49.4034 6.00398 47.5408 7.07994 46.9837 8.91863L37.9934 38.0891C37.5176 39.6169 36.3102 41.4867 35.0908 42.204Z" fill="white"/>
<path fill-rule="evenodd" clip-rule="evenodd" d="M35.4539 42.7293C35.455 42.7298 35.4551 42.7313 35.4541 42.732L12.9448 58.1621C12.4771 58.5073 12.1219 58.9832 11.9239 59.5298C11.8201 59.7907 11.7602 60.067 11.7469 60.3475C11.7331 60.4968 11.7622 60.6469 11.8306 60.7803L-nan -nanL11.8306 60.7803C11.8448 60.7971 11.8628 60.8102 11.8832 60.8185L28.8786 68.3096C29.2087 68.4592 29.503 68.678 29.7414 68.951C29.9798 69.2241 30.1568 69.5451 30.2606 69.8924C30.4923 70.6785 30.5267 71.5096 30.361 72.3121L25.4044 100.667C25.3446 100.905 25.3614 101.156 25.4522 101.385C25.4884 101.459 25.5784 101.489 25.6609 101.486C25.6913 101.484 25.7216 101.479 25.7511 101.471C26.1249 101.339 26.4472 101.092 26.6717 100.765L46.1393 76.2334C46.6833 75.5264 47.3538 74.9264 48.1167 74.4641C48.7681 74.0579 49.5318 73.8695 50.2974 73.9261L69.7578 76.0087C69.8077 76.0104 69.8575 76.0056 69.9061 75.9943C70.3053 75.856 70.6474 75.5895 70.8792 75.2364C71.1988 74.8244 71.4064 74.3368 71.4817 73.8209C71.4974 73.6709 71.4909 73.5194 71.4626 73.3714L66.53 50.7308C66.3727 49.9083 66.4022 49.061 66.6161 48.2513C66.8446 47.3399 67.2184 46.4712 67.7231 45.6786L84.6993 18.6266C84.9971 18.1942 85.1556 17.6811 85.1536 17.1561L-nan -nanL85.1536 17.1561C85.1517 17.0343 85.1188 16.915 85.058 16.8094C85.0217 16.7461 84.9374 16.7355 84.8647 16.7418C84.7754 16.7496 84.6886 16.7774 84.6109 16.8238L62.0946 27.361C61.4301 27.7122 60.6631 27.818 59.9283 27.6599C59.5811 27.5642 59.2591 27.3937 58.9849 27.1603C58.7106 26.9269 58.4907 26.6363 58.3407 26.3089C55.328 20.286 52.0714 13.6078 49.3552 7.46532C49.3257 7.39718 49.2509 7.35913 49.1766 7.35841C49.1375 7.35803 49.0983 7.36497 49.0612 7.37925C48.8484 7.44505 48.6531 7.55782 48.4897 7.70921C48.0664 8.0853 47.7566 8.57227 47.5955 9.11512L38.6076 38.2855C38.3016 39.2242 37.855 40.111 37.283 40.9157C36.8018 41.6367 36.1795 42.2527 35.4538 42.7266C35.4528 42.7272 35.4528 42.7287 35.4539 42.7293ZM12.2108 57.0826C12.2108 57.0788 12.2127 57.0753 12.2158 57.0731L34.7676 41.6162C35.3478 41.2349 35.8434 40.7385 36.2238 40.1577C36.7187 39.4619 37.1056 38.6953 37.3715 37.8839L46.3593 8.71343C46.5944 7.93482 47.0415 7.23694 47.6505 6.6978C47.9621 6.42191 48.3301 6.21712 48.7288 6.09766C48.9323 6.03585 49.1463 6.01627 49.3576 6.04012C49.569 6.06397 49.7732 6.13074 49.9578 6.23634C50.2045 6.38698 50.4029 6.60522 50.5293 6.86518L59.5147 25.7088C59.5834 25.8673 59.6858 26.009 59.8146 26.1242C59.9433 26.2393 60.0955 26.3252 60.2607 26.3759C60.7025 26.4531 61.1575 26.3763 61.5494 26.1583L84.0609 15.6211C84.4325 15.4265 84.8596 15.3657 85.2707 15.4489C85.6327 15.5317 85.9478 15.7532 86.1483 16.0658C86.3324 16.3577 86.4386 16.6919 86.4567 17.0366V17.0533C86.4766 17.8519 86.2485 18.6371 85.804 19.3009L68.8278 46.3552C68.393 47.0273 68.0701 47.7653 67.8713 48.5406C67.7046 49.1599 67.6792 49.8087 67.7972 50.4391L72.7299 73.0797C72.7876 73.362 72.7997 73.6518 72.7658 73.938C72.6661 74.6892 72.3718 75.4014 71.9121 76.0039C71.4339 76.6303 70.8123 77.1133 70.1739 77.252C69.9941 77.2906 69.8095 77.3019 69.6263 77.2854L50.1515 75.2029C49.6587 75.1772 49.1703 75.3069 48.7551 75.5735C48.1353 75.9541 47.5914 76.4462 47.1507 77.0248L27.6831 101.557C27.2816 102.113 26.7074 102.521 26.05 102.716C25.7237 102.802 25.3789 102.786 25.0625 102.669C24.7407 102.542 24.474 102.306 24.3093 102.001C24.0686 101.517 23.9995 100.964 24.1133 100.435L29.0818 72.0922C29.2102 71.5031 29.1929 70.8917 29.0316 70.3109C28.9832 70.1365 28.898 69.9746 28.7817 69.836C28.6654 69.6974 28.5207 69.5854 28.3574 69.5075L11.405 62.0308C11.1548 61.9356 10.9379 61.7694 10.781 61.5526L10.757 61.5215C10.5316 61.1651 10.4237 60.7469 10.4486 60.326C10.4627 59.8951 10.55 59.4698 10.7068 59.0683C10.9991 58.2752 11.5211 57.5871 12.206 57.092C12.209 57.0898 12.2108 57.0863 12.2108 57.0826Z" fill="#414141"/>
</svg>
