<svg width="250" height="250" viewBox="0 0 250 250" fill="none" xmlns="http://www.w3.org/2000/svg">
<path d="M210.634 172.244C211.235 190.232 171.536 206.157 121.963 207.814C72.3895 209.471 31.7153 196.231 31.1142 178.243C30.7781 168.184 43.0441 158.77 62.5915 152.136C78.0004 146.906 97.9339 143.404 119.786 142.673C169.359 141.017 210.033 154.256 210.634 172.244Z" fill="#EEEEEE"/>
<path fill-rule="evenodd" clip-rule="evenodd" d="M80.7872 42.9719C74.7521 40.4118 69.6719 41.1846 63.6749 43.422C54.4652 47.3789 47.8231 53.5009 41.5969 61.2321C35.0355 69.8804 30.7234 78.2229 27.744 88.667C25.7493 96.6572 24.9471 103.709 26.7806 111.801C28.2406 116.887 30.0232 120.297 34.297 123.515L38.817 126.134L46.7408 130.702L93.125 50.113L80.7872 42.9719Z" fill="#2B7CFF"/>
<path fill-rule="evenodd" clip-rule="evenodd" d="M73.2459 42.7602C70.241 42.7602 67.304 43.5371 64.1591 44.7089C56.2607 48.1181 49.6145 53.4845 42.6838 62.086C36.1351 70.7215 31.9333 79.0513 29.0813 89.0496C26.8361 98.0163 26.556 104.525 28.1348 111.492C29.4378 116.026 31.0124 119.295 35.1419 122.42L46.2403 128.814L91.2538 50.6187L80.1807 44.2037C77.7404 43.1848 75.4783 42.7602 73.2459 42.7602ZM46.7453 132.078C46.5034 132.078 46.2616 132.019 46.0536 131.904L33.614 124.712C28.7459 121.057 26.904 117.227 25.461 112.188C23.3644 102.92 24.6801 95.2567 26.4117 88.3364C29.3783 77.9475 33.7158 69.3375 40.5022 60.3963C47.7555 51.383 54.7286 45.7661 63.1363 42.1489C68.4966 40.1492 74.362 38.7397 81.3309 41.6903C81.3818 41.7158 81.437 41.737 81.488 41.771L93.8257 48.9163C94.4878 49.3026 94.7085 50.139 94.3308 50.8056L47.9295 131.399C47.7512 131.705 47.4499 131.938 47.0934 132.032C46.9788 132.07 46.8642 132.078 46.7453 132.078Z" fill="#414141"/>
<path fill-rule="evenodd" clip-rule="evenodd" d="M71.1414 129.107C89.3148 118.616 104.046 93.0916 104.046 72.0973C104.046 51.0902 89.3148 42.5694 71.1414 53.0729C52.9638 63.5637 38.2197 89.1093 38.2197 110.104C38.2197 131.119 52.9638 139.602 71.1414 129.107Z" fill="white"/>
<path fill-rule="evenodd" clip-rule="evenodd" d="M71.1423 129.107H71.1805H71.1423ZM85.8271 49.9521C81.566 49.9521 76.804 51.4084 71.8299 54.2741C54.0639 64.5314 39.6042 89.5845 39.6042 110.108C39.6042 119.741 42.7787 126.886 48.5465 130.21C54.3143 133.547 62.0981 132.736 70.4506 127.905C88.2123 117.648 102.664 92.6074 102.664 72.0928C102.664 62.4341 99.4848 55.2888 93.7127 51.9646C91.3784 50.6187 88.7173 49.9521 85.8271 49.9521ZM56.4279 134.995C53.0538 134.995 49.9301 134.21 47.1629 132.609C40.5123 128.767 36.8455 120.764 36.8455 110.108C36.8455 88.7014 51.9164 62.57 70.4548 51.8754C79.6858 46.5387 88.4457 45.7278 95.0921 49.5743C101.76 53.4165 105.431 61.4194 105.431 72.097C105.431 93.4947 90.3598 119.601 71.8299 130.291C71.8299 130.291 71.8299 130.291 71.8299 130.304C66.4186 133.42 61.1856 134.995 56.4279 134.995Z" fill="#414141"/>
<path fill-rule="evenodd" clip-rule="evenodd" d="M85.8548 61.0751L84.9932 60.7142C81.6488 59.6104 79.2211 59.759 75.8343 60.6081C69.1626 62.6884 64.2776 66.7047 59.6345 71.8037C53.2853 79.2292 49.0156 87.3849 46.953 96.9714C45.9556 102.529 45.7435 107.454 47.6448 112.833C48.8289 115.618 49.9324 117.261 52.3685 119.108L55.6238 120.976L56.8333 121.681C61.1708 124.699 64.3752 126.321 74.4041 120.53C84.433 114.739 98.1075 91.0743 98.1075 79.4669C98.1075 67.8595 95.0687 65.8599 90.2474 63.6309L85.8548 61.0751Z" fill="white"/>
<path fill-rule="evenodd" clip-rule="evenodd" d="M80.5044 61.3132C79.1166 61.3132 77.7542 61.5594 76.1669 61.9458C70.6114 63.6865 65.9513 66.9174 60.6546 72.7338C54.3011 80.1593 50.2481 88.1961 48.3 97.2647C47.4851 101.812 46.9886 106.843 48.9451 112.375C50.0825 115.054 51.1265 116.429 53.2019 118.004L57.5225 120.484C61.3083 123.116 63.965 124.971 73.7181 119.333C83.3947 113.742 96.7297 90.6416 96.7297 79.4673C96.7297 68.1401 93.7716 66.7773 89.6676 64.888L84.4515 61.984C83.0085 61.5127 81.7522 61.3132 80.5044 61.3132ZM63.6807 125.808C60.7141 125.808 58.5326 124.551 56.0455 122.81L51.6783 120.297C48.7371 118.098 47.5657 116.17 46.3731 113.377C44.1704 107.148 44.6967 101.697 45.5922 96.7255C47.6463 87.1602 51.8948 78.7243 58.5878 70.8997C64.2664 64.6587 69.2914 61.207 75.4285 59.2923C78.9469 58.4092 81.6716 58.163 85.4234 59.3984L86.3911 59.8103C86.4463 59.8315 86.4929 59.857 86.5438 59.8824L90.9365 62.4425C96.055 64.7903 99.4884 67.2825 99.4884 79.4673C99.4884 91.5799 85.5762 115.678 75.0932 121.732C69.9917 124.678 66.4819 125.808 63.6807 125.808Z" fill="#414141"/>
<path fill-rule="evenodd" clip-rule="evenodd" d="M106.758 186.01L86.3737 169.83L60.268 120.386C57.3395 118.179 56.1299 115.852 55.1283 112.371C53.558 105.416 54.81 98.9291 57.1358 92.3018C59.4531 86.3113 62.1736 81.5987 66.2055 76.5932C82.3502 57.7131 118.324 64.1154 138.776 70.556C142.239 71.6471 144.811 73.893 146.335 77.1918L151.126 87.534C152.323 90.1195 152.603 92.6669 151.988 95.452L147.986 113.568L169.873 163.458L146.938 176.241C147.4 177.782 141.887 184.278 135.674 182.516C134.808 183.819 135.376 186.778 128.429 186.558C128.726 187.861 127.02 189.084 123.913 189.084L109.411 187.131C108.401 186.999 107.56 186.647 106.758 186.01Z" fill="white"/>
<path fill-rule="evenodd" clip-rule="evenodd" d="M87.4641 168.926L107.624 184.928C108.222 185.412 108.833 185.667 109.597 185.773L124.104 187.709C126.056 187.709 127.002 187.051 127.096 186.817C126.994 186.393 127.1 185.994 127.372 185.667C127.643 185.327 128.161 185.161 128.479 185.187C133.122 185.314 133.547 184.117 133.984 182.941C134.133 182.555 134.281 182.143 134.54 181.752C134.871 181.26 135.503 181.022 136.059 181.188C138.619 181.905 140.876 180.929 142.328 179.978C144.437 178.602 145.532 176.853 145.6 176.416C145.414 175.792 145.711 175.358 146.279 175.04L168.115 162.855L146.738 114.129C146.623 113.861 146.589 113.564 146.649 113.271L150.655 95.1554C151.198 92.6633 150.961 90.4216 149.883 88.1078L145.095 77.7783C143.729 74.8277 141.471 72.845 138.373 71.8685C126.115 68.0008 84.7648 57.0175 67.2577 77.4981C63.3404 82.3635 60.692 86.9572 58.4299 92.8076C55.7773 100.327 55.1705 106.275 56.4819 112.066C57.3604 115.122 58.3663 117.211 61.1037 119.279C61.265 119.393 61.3965 119.559 61.4942 119.737L87.4641 168.926ZM123.972 190.464C123.955 190.464 123.934 190.464 123.917 190.464L109.236 188.503C107.963 188.337 106.902 187.891 105.901 187.093L85.5245 170.913C85.3717 170.794 85.2443 170.642 85.1595 170.48L59.1939 121.295C56.0574 118.841 54.7927 116.196 53.8038 112.753C52.3566 106.359 52.9932 99.9317 55.8453 91.8481C58.2262 85.6793 61.0019 80.8606 65.1314 75.7405C83.7801 53.9352 126.536 65.2496 139.2 69.2447C143.02 70.442 145.923 72.9936 147.595 76.6235L152.387 86.953C153.711 89.8103 154.025 92.676 153.346 95.7668L149.445 113.437L171.15 162.915C171.43 163.573 171.184 164.324 170.564 164.677L148.278 177.095C147.951 178.436 146.755 179.799 146.143 180.423C145.053 181.527 141.348 184.83 136.501 184.121C135.779 185.968 134.498 187.845 129.617 187.951C129.519 188.189 129.388 188.397 129.222 188.609C128.271 189.798 126.357 190.464 123.972 190.464Z" fill="#414141"/>
<path fill-rule="evenodd" clip-rule="evenodd" d="M166.156 165.109L153.135 154.885L143.191 139.47L134.482 130.741C130.268 126.512 128.074 121.456 127.857 115.491L127.462 104.529L108.614 102.661L101.157 111.581C99.137 114.001 96.1152 115.342 93.1061 114.4L86.0864 112.239C85.4158 112.026 84.932 111.568 84.6901 110.91C84.4481 110.252 84.5203 109.581 84.898 108.995L99.553 85.8821C100.593 84.2475 102.125 82.9569 104.043 82.664L135.352 77.7985C136.061 77.6797 136.668 78.0448 137.207 78.516L156.11 95.1671C172.556 109.653 164.743 109.394 181.117 113.321C186.074 114.51 188.752 115.767 196.128 118.645C207.617 141.406 190.386 158.078 173.554 163.304C173.554 163.3 167.616 165.733 166.156 165.109Z" fill="white"/>
<path fill-rule="evenodd" clip-rule="evenodd" d="M166.772 163.827C167.613 163.92 170.452 163.076 173.028 162.018C181.589 159.352 192.174 152.89 196.52 142.629C199.537 135.496 199.079 127.803 195.132 119.728L191.668 118.353C187.144 116.565 184.657 115.58 180.804 114.663C170.316 112.15 169.31 111.254 165.745 106.966C163.916 104.767 161.149 101.443 155.203 96.1909L136.299 79.5525C136.074 79.353 135.773 79.1407 135.565 79.1535L104.256 84.0189C102.44 84.2991 101.26 85.7681 100.717 86.6172L86.0616 109.73C85.913 109.955 85.8917 110.176 85.9893 110.422C86.0785 110.681 86.2313 110.821 86.4945 110.906L93.5184 113.08C95.7678 113.776 98.2804 112.855 100.097 110.694L107.554 101.765C107.847 101.426 108.305 101.239 108.751 101.286L127.599 103.154C128.282 103.213 128.817 103.778 128.843 104.47L129.241 115.445C129.441 121.083 131.47 125.761 135.459 129.769L144.168 138.49L154.172 153.939L166.772 163.827ZM166.806 166.565C166.34 166.565 165.936 166.506 165.614 166.366C165.499 166.319 165.402 166.26 165.304 166.188L152.283 155.964C152.16 155.871 152.058 155.752 151.977 155.625L142.029 140.209L133.503 131.714C129.067 127.26 126.699 121.821 126.479 115.546L126.126 105.769L109.205 104.1L102.211 112.456C99.681 115.5 96.031 116.756 92.6994 115.708L85.6795 113.547C84.593 113.216 83.7824 112.443 83.392 111.373C83.0015 110.303 83.1204 109.199 83.7315 108.248L98.3908 85.1355C99.7489 82.9872 101.684 81.6244 103.832 81.2932L135.141 76.4278C136.669 76.1816 137.751 77.158 138.12 77.4722L157.024 94.1233C163.139 99.5025 165.983 102.937 167.872 105.192C170.961 108.915 171.526 109.586 181.449 111.972C185.489 112.935 188.048 113.946 192.691 115.793L196.626 117.342C196.953 117.47 197.211 117.707 197.364 118.013C201.838 126.882 202.427 135.768 199.066 143.699C194.342 154.839 182.998 161.806 173.953 164.625C172.086 165.402 168.865 166.565 166.806 166.565Z" fill="#414141"/>
<path fill-rule="evenodd" clip-rule="evenodd" d="M135.686 183.908C135.673 183.908 135.656 183.908 135.639 183.908C128.034 183.649 121.926 181.535 116.965 177.455C112.203 173.519 103.711 164.094 101.86 161.912C101.368 161.339 101.436 160.469 102.017 159.972C102.594 159.479 103.473 159.547 103.965 160.125C105.786 162.273 114.1 171.511 118.726 175.32C123.2 179.009 128.76 180.911 135.737 181.145C136.501 181.178 137.091 181.815 137.07 182.575C137.044 183.322 136.429 183.908 135.686 183.908Z" fill="#414141"/>
<path fill-rule="evenodd" clip-rule="evenodd" d="M146.935 177.765C146.927 177.765 146.927 177.765 146.918 177.765L146.316 177.753C140.48 177.672 134.44 177.587 128.927 172.781C124.276 168.714 111.594 157.106 108.997 154.262C108.479 153.697 108.513 152.827 109.077 152.313C109.633 151.808 110.516 151.829 111.025 152.394C113.572 155.179 126.126 166.659 130.74 170.701C135.489 174.836 140.768 174.917 146.354 174.989L146.952 175.002C147.716 175.014 148.323 175.634 148.314 176.386C148.302 177.154 147.686 177.765 146.935 177.765Z" fill="#414141"/>
<path fill-rule="evenodd" clip-rule="evenodd" d="M160.994 170.725C160.939 170.725 160.892 170.725 160.841 170.725C152.663 169.834 144.162 168.518 137.919 163.113C132.923 158.791 121.914 148.967 119.758 146.182C119.291 145.583 119.406 144.713 120.008 144.254C120.607 143.783 121.481 143.889 121.944 144.488C123.692 146.755 133.39 155.543 139.722 161.02C145.363 165.907 153.074 167.095 161.138 167.974C161.894 168.055 162.441 168.738 162.365 169.503C162.288 170.207 161.69 170.725 160.994 170.725Z" fill="#414141"/>
<path fill-rule="evenodd" clip-rule="evenodd" d="M128.429 187.984C128.383 187.984 128.336 187.984 128.285 187.984C122 187.339 114.157 186.057 109.28 181.756C105.257 178.207 98.6612 171.991 96.5136 169.605C96.0043 169.04 96.051 168.162 96.6197 167.656C97.1884 167.151 98.0543 167.185 98.5678 167.763C100.601 170.021 107.162 176.198 111.101 179.688C115.392 183.458 122.687 184.634 128.57 185.233C129.321 185.301 129.877 185.984 129.8 186.736C129.733 187.458 129.126 187.984 128.429 187.984Z" fill="#414141"/>
<path fill-rule="evenodd" clip-rule="evenodd" d="M213.451 114.608L200.965 107.395C196.56 105.54 193.283 105.493 188.632 106.359C181.421 108.159 176.239 111.496 170.615 116.243C169.661 117.088 168.43 118.243 167.53 119.143C159.407 127.26 152.82 138.095 149.174 148.964C147.302 154.534 146.335 159.565 145.97 165.356C145.783 174.025 147.158 182.419 154.475 187.951L166.915 195.143L213.451 114.608Z" fill="#2B7CFF"/>
<path fill-rule="evenodd" clip-rule="evenodd" d="M193.708 107.183C192.18 107.183 190.631 107.382 188.883 107.713C181.812 109.488 176.808 112.825 171.511 117.3C170.595 118.111 169.389 119.24 168.507 120.119C160.68 127.943 154.11 138.625 150.482 149.409C148.678 154.78 147.71 159.713 147.345 165.436C147.197 172.462 147.965 181.297 155.316 186.846L166.418 193.249L211.563 115.113L200.287 108.592C197.88 107.582 195.822 107.183 193.708 107.183ZM166.919 196.514C166.686 196.514 166.448 196.454 166.236 196.327L153.792 189.148C145.304 182.745 144.421 173.061 144.587 165.317C144.973 159.288 145.979 154.13 147.863 148.53C151.623 137.356 158.431 126.288 166.55 118.17C167.475 117.24 168.727 116.064 169.708 115.211C174.563 111.11 180.165 107.055 188.293 105.013C192.965 104.143 196.599 104.049 201.509 106.13L214.148 113.415C214.466 113.602 214.687 113.895 214.793 114.247C214.878 114.612 214.827 114.986 214.653 115.304L168.116 195.826C167.861 196.267 167.399 196.514 166.919 196.514Z" fill="#414141"/>
<path fill-rule="evenodd" clip-rule="evenodd" d="M191.309 193.533C209.49 183.042 224.222 157.531 224.222 136.524C224.222 115.525 209.495 107.009 191.309 117.504C173.139 128.007 158.399 153.548 158.399 174.534C158.399 195.541 173.139 204.037 191.309 193.533Z" fill="white"/>
<path fill-rule="evenodd" clip-rule="evenodd" d="M206.009 114.375C201.743 114.375 196.977 115.831 192.007 118.697C174.237 128.967 159.781 154.003 159.781 174.53C159.781 184.176 162.96 191.321 168.724 194.646C174.496 197.983 182.284 197.159 190.624 192.345C208.394 182.075 222.841 157.038 222.841 136.524C222.841 126.878 219.67 119.733 213.89 116.396C211.564 115.054 208.899 114.375 206.009 114.375ZM176.609 199.43C173.24 199.43 170.112 198.632 167.353 197.044C160.69 193.202 157.023 185.199 157.023 174.53C157.023 153.12 172.102 127.001 190.628 116.311C199.859 110.974 208.623 110.155 215.282 114.005C221.941 117.848 225.616 125.851 225.616 136.52C225.616 157.917 210.537 184.023 192.011 194.726C186.604 197.855 181.367 199.43 176.609 199.43Z" fill="#414141"/>
<path fill-rule="evenodd" clip-rule="evenodd" d="M94.5148 176.003L84.8891 175.719C83.4122 175.672 82.1559 175.18 81.0567 174.178L79.5627 172.828C78.2683 171.652 77.6061 170.149 77.6061 168.4V164.629L76.7828 164.404C75.5393 164.065 74.5547 163.419 73.7398 162.418L71.0702 159.127C70.2214 158.083 69.7969 156.941 69.746 155.591L69.6484 152.958L68.6723 152.619C67.2039 152.092 66.1003 151.196 65.2897 149.855L63.6005 147.049C62.4801 145.193 62.0132 143.287 62.1448 141.113L62.2127 139.916C58.5458 138.154 55.8593 134.63 55.9823 130.045L56.0503 127.12L56.3983 120.977C56.7717 117.559 57.9771 116.841 60.7357 116.608C62.0005 116.502 63.4265 116.655 64.5767 117.185L66.1216 117.903C67.4373 118.501 68.1417 119.159 69.1221 120.463C69.9455 121.567 70.3826 122.717 70.493 124.093L70.5694 125.01L70.5864 127.994L72.4113 128.818L74.3892 130.546C76.0274 131.981 76.8592 133.883 76.7913 136.057L76.6386 141.614C77.5129 142.052 78.2259 142.425 79.0789 143.096L81.0567 144.658C82.7543 145.987 83.7729 148.653 83.705 150.755L83.4715 157.641C85.7888 157.747 86.8329 158.546 88.9338 160.248C90.3556 161.399 91.1959 162.868 91.459 164.689L92.3078 170.42L94.5148 176.003Z" fill="white"/>
<path fill-rule="evenodd" clip-rule="evenodd" d="M61.49 117.957C61.282 117.957 61.0741 117.97 60.8661 117.983C58.7653 118.17 58.0904 118.361 57.7891 121.133L57.3732 130.074C57.2798 133.776 59.3128 136.982 62.8269 138.676C63.3277 138.922 63.6375 139.453 63.6035 140.005L63.5314 141.202C63.4211 143.095 63.8158 144.717 64.7919 146.339L66.4853 149.15C67.1304 150.22 67.975 150.912 69.1464 151.323L70.1183 151.676C70.6446 151.863 71.0096 152.359 71.0308 152.92L71.1284 155.539C71.1708 156.596 71.4934 157.454 72.1513 158.265L74.8251 161.555C75.4617 162.332 76.179 162.799 77.1551 163.084L77.9827 163.309C78.5854 163.474 78.997 164.026 78.997 164.637L78.9928 168.408C78.9928 169.758 79.5021 170.912 80.5037 171.817L81.9976 173.167C82.8422 173.944 83.7844 174.317 84.9346 174.356L92.4721 174.568L91.0419 170.946L90.1125 164.884C89.896 163.428 89.2297 162.264 88.0795 161.322C86.0126 159.645 85.2699 159.114 83.4322 159.029C82.6768 158.995 82.0868 158.358 82.1165 157.594L82.3457 150.708C82.4051 148.899 81.4757 146.713 80.2279 145.736L78.2543 144.174C77.5031 143.601 76.8622 143.257 76.0389 142.849C75.5635 142.603 75.2622 142.111 75.2834 141.567L75.4405 136.01C75.4914 134.248 74.8378 132.753 73.5094 131.59L71.6759 129.994L70.0335 129.255C69.5411 129.021 69.227 128.537 69.2185 127.998L69.1379 124.215C69.0403 123.099 68.6966 122.195 68.026 121.29C67.122 120.093 66.5915 119.634 65.5601 119.163L64.0153 118.446C63.3278 118.123 62.411 117.957 61.49 117.957ZM94.5178 177.374C94.5051 177.374 94.4966 177.374 94.4838 177.374L84.8539 177.103C83.0502 177.043 81.4672 176.41 80.1388 175.2L78.6448 173.85C77.066 172.415 76.2298 170.535 76.2298 168.399L76.2341 165.686C74.7996 165.253 73.6325 164.463 72.6775 163.292L69.9995 160.001C68.9639 158.719 68.425 157.301 68.3613 155.641L68.2042 153.926C66.4302 153.281 65.0933 152.185 64.1172 150.563L62.4238 147.766C61.1675 145.677 60.6242 143.478 60.7727 141.032L60.794 140.726C56.7918 138.459 54.4999 134.511 54.6103 129.998L54.6824 127.085L55.0389 120.904C55.5058 116.497 57.4496 115.499 60.6284 115.228C62.2454 115.087 63.8837 115.346 65.157 115.92L66.7103 116.637C68.357 117.389 69.2143 118.259 70.2372 119.622C71.2261 120.951 71.7523 122.335 71.8881 123.969L71.9603 124.873L71.9731 127.094L73.0001 127.552C73.1189 127.612 73.2336 127.68 73.3397 127.777L75.3174 129.505C77.2739 131.208 78.2628 133.488 78.1949 136.086L78.0633 140.773C78.683 141.113 79.2771 141.478 79.9519 141.996L81.9298 143.558C84.1113 145.273 85.1765 148.492 85.1044 150.797L84.9177 156.414C86.8912 156.792 88.1134 157.777 89.8153 159.173C91.5087 160.536 92.5274 162.324 92.8372 164.472L93.686 170.216L95.7996 175.489C95.9651 175.922 95.9141 176.406 95.6425 176.78C95.3921 177.162 94.972 177.374 94.5178 177.374Z" fill="#414141"/>
<path fill-rule="evenodd" clip-rule="evenodd" d="M57.6288 120.412L61.8007 123.655L61.3424 130.856C61.3297 131.034 61.1005 131.089 60.9265 131.089C60.7568 131.11 60.396 130.75 60.2729 130.631L58.5497 128.903C58.0192 128.385 57.442 127.773 57.4632 127.022L57.6288 120.412Z" fill="white"/>
<path fill-rule="evenodd" clip-rule="evenodd" d="M58.9385 123.189L58.8367 127.065C58.8324 127.184 59.0616 127.489 59.52 127.935L60.1057 128.521L60.3773 124.292L58.9385 123.189ZM60.9249 132.482C60.2628 132.482 59.7492 132.07 59.2908 131.624L57.5634 129.897C56.9905 129.323 56.0313 128.368 56.0695 126.997L56.2435 120.382C56.2563 119.864 56.566 119.397 57.0329 119.172C57.4998 118.947 58.0515 119.007 58.4675 119.325L62.6394 122.569C63.0002 122.849 63.2039 123.286 63.1742 123.745L62.7159 130.958C62.6692 131.663 62.1302 132.414 61.014 132.486C60.9843 132.482 60.9546 132.482 60.9249 132.482Z" fill="#414141"/>
<path fill-rule="evenodd" clip-rule="evenodd" d="M63.4316 131.54L68.2446 134.745L68.2149 140.961C68.2149 141.114 68.1597 141.245 68.0536 141.347C67.9475 141.453 67.8159 141.5 67.6674 141.5H67.0647C66.097 141.487 65.2694 141.114 64.637 140.383L64.1913 139.878C63.6523 139.254 63.3891 138.541 63.3934 137.717L63.4316 131.54Z" fill="white"/>
<path fill-rule="evenodd" clip-rule="evenodd" d="M64.7916 134.112L64.7746 137.729C64.7703 138.222 64.9189 138.599 65.233 138.965L65.6786 139.483C65.9927 139.848 66.3789 140.06 66.833 140.107L66.8628 135.479L64.7916 134.112ZM67.6606 140.128H67.6649C67.6606 140.128 67.6606 140.128 67.6606 140.128ZM67.6649 142.892C67.6606 142.892 67.6521 142.892 67.6394 142.892H67.0537C65.6829 142.879 64.486 142.314 63.5905 141.295L63.1449 140.79C62.3852 139.907 62.0031 138.875 62.0074 137.725L62.0456 131.543C62.0498 131.025 62.3342 130.567 62.7798 130.321C63.2255 130.087 63.7688 130.108 64.1932 130.393L69.006 133.598C69.3922 133.857 69.6257 134.282 69.6257 134.749L69.596 140.977C69.596 141.482 69.388 141.975 69.0145 142.34C68.6622 142.692 68.1784 142.892 67.6649 142.892Z" fill="#414141"/>
<path fill-rule="evenodd" clip-rule="evenodd" d="M71.4952 145.006L76.3166 148.67L76.2869 154.427C76.2869 154.567 76.2274 154.707 76.1213 154.813C76.0109 154.919 75.8836 154.966 75.7309 154.966H75.1325C74.1733 154.953 73.3414 154.567 72.7091 153.837L72.2634 153.331C71.7201 152.707 71.4612 152.003 71.4612 151.17L71.4952 145.006Z" fill="white"/>
<path fill-rule="evenodd" clip-rule="evenodd" d="M72.8646 147.779L72.8476 151.188C72.8434 151.68 72.9835 152.058 73.306 152.432L73.7474 152.937C74.07 153.315 74.4477 153.514 74.9103 153.574L74.9316 149.354L72.8646 147.779ZM75.7337 153.582H75.7422C75.7379 153.582 75.7379 153.582 75.7337 153.582ZM74.9018 154.415V154.427V154.415ZM75.7422 156.355C75.7337 156.355 75.7294 156.355 75.7167 156.355L75.1311 156.342C73.7559 156.329 72.559 155.777 71.672 154.746L71.2307 154.24C70.4667 153.37 70.0847 152.338 70.0889 151.171L70.1186 144.994C70.1229 144.476 70.42 143.996 70.8911 143.758C71.3537 143.525 71.9139 143.584 72.3383 143.898L77.1513 147.575C77.4993 147.834 77.6988 148.246 77.6988 148.679L77.6648 154.436C77.6648 154.928 77.4611 155.425 77.1003 155.786C76.7396 156.142 76.2557 156.355 75.7422 156.355Z" fill="#414141"/>
<path fill-rule="evenodd" clip-rule="evenodd" d="M79.4426 160.583L84.2556 164.06L83.8439 169.04C83.8142 169.32 83.5765 169.545 83.2921 169.532H82.647C81.6793 169.52 80.856 169.146 80.2193 168.416L80.1981 168.382C79.6633 167.783 79.4724 166.081 79.4724 165.27L79.4426 160.583Z" fill="white"/>
<path fill-rule="evenodd" clip-rule="evenodd" d="M80.8422 163.3L80.8549 165.262C80.8592 166.166 81.0756 167.249 81.2539 167.495C81.6061 167.907 82.0221 168.115 82.5229 168.153L82.8072 164.735L80.8422 163.3ZM83.2996 170.925C83.2954 170.925 83.2911 170.925 83.2869 170.925L82.646 170.913C81.2836 170.913 80.0867 170.361 79.1911 169.325C78.1343 168.128 78.1047 165.567 78.1004 165.274L78.0665 160.6C78.0622 160.069 78.3508 159.59 78.8134 159.356C79.2718 159.123 79.8363 159.157 80.2522 159.462L85.0694 162.952C85.4599 163.237 85.6764 163.704 85.6339 164.188L85.2223 169.168C85.1204 170.174 84.297 170.925 83.2996 170.925Z" fill="#414141"/>
<path fill-rule="evenodd" clip-rule="evenodd" d="M70.605 127.99C69.6246 128.083 68.8267 128.19 68.1774 128.33C66.5519 128.682 64.5189 129.281 63.5003 130.622C62.5114 131.926 62.384 138.014 62.227 139.916C62.036 131.858 60.4402 127.498 70.605 127.99Z" fill="white"/>
<path fill-rule="evenodd" clip-rule="evenodd" d="M62.2256 141.305C62.2086 141.305 62.196 141.305 62.1832 141.305C61.449 141.271 60.8632 140.68 60.8463 139.954C60.825 138.991 60.7826 138.086 60.7359 137.229C60.5619 133.454 60.4176 130.483 62.3699 128.534C63.9021 127.005 66.474 126.42 70.6672 126.606C71.3929 126.64 71.9616 127.23 71.9828 127.944C72.0083 128.674 71.4651 129.281 70.7478 129.353C69.8268 129.459 69.0799 129.553 68.4688 129.684C67.7261 129.85 65.4639 130.33 64.6066 131.472C64.0506 132.295 63.8002 136.808 63.7025 138.498C63.6644 139.131 63.6389 139.661 63.6049 140.035C63.5413 140.753 62.9429 141.305 62.2256 141.305Z" fill="#414141"/>
<path fill-rule="evenodd" clip-rule="evenodd" d="M90.4184 99.6378L94.2296 100.075C94.5734 100.109 94.8492 100.287 95.0317 100.58C96.1691 102.402 89.0517 109.534 87.7912 111.003L83.1523 110.065C84.7227 106.482 86.4925 103.132 89.3955 100.122C89.6883 99.8162 90.0067 99.6039 90.4184 99.6378Z" fill="white"/>
<path fill-rule="evenodd" clip-rule="evenodd" d="M85.1283 109.051L87.2927 109.484C87.4243 109.343 87.5728 109.191 87.7384 109.012C92.0419 104.359 93.4086 102.304 93.7057 101.4L90.4376 101.035C87.9633 103.612 86.3845 106.372 85.1283 109.051ZM87.7935 112.388C87.6959 112.388 87.611 112.375 87.5134 112.354L82.8788 111.415C82.4756 111.335 82.1234 111.063 81.9281 110.698C81.7372 110.32 81.7201 109.887 81.8899 109.509C83.3881 106.079 85.2131 102.47 88.4005 99.1583C89.0626 98.4875 89.7925 98.1818 90.5649 98.2752L94.3762 98.6998C95.1444 98.7805 95.7938 99.1923 96.1969 99.8376C97.4829 101.905 95.0383 105.183 89.7628 110.885C89.3427 111.33 89.0244 111.683 88.8334 111.908C88.5745 112.213 88.1882 112.388 87.7935 112.388Z" fill="#414141"/>
<path fill-rule="evenodd" clip-rule="evenodd" d="M76.6584 141.609C74.4345 141.843 71.6673 142.539 70.6572 144.501C69.9866 145.83 69.8338 151.175 69.6513 152.962C69.4221 147.12 67.8178 141.185 76.6584 141.609Z" fill="white"/>
<path fill-rule="evenodd" clip-rule="evenodd" d="M69.6555 154.347C69.6385 154.347 69.6216 154.347 69.6046 154.347C68.8789 154.326 68.3016 153.748 68.2677 153.018C68.238 152.326 68.1999 151.63 68.1532 150.95C67.9325 147.686 67.7075 144.31 69.8083 142.162C71.2343 140.706 73.5177 140.06 76.722 140.226C77.4477 140.26 78.0163 140.846 78.0376 141.563C78.0545 142.294 77.5198 142.901 76.8026 142.986C74.201 143.257 72.4566 144.022 71.8879 145.134C71.5102 145.851 71.281 149.375 71.1707 151.082C71.1155 151.906 71.0689 152.632 71.0137 153.116C70.9458 153.816 70.3515 154.347 69.6555 154.347Z" fill="#414141"/>
<path fill-rule="evenodd" clip-rule="evenodd" d="M83.3408 157.657C77.9762 158.01 77.9423 160.277 77.5943 164.824C77.4797 159.258 76.9873 157.424 83.3408 157.657Z" fill="white"/>
<path fill-rule="evenodd" clip-rule="evenodd" d="M77.6034 166.039C77.5949 166.039 77.5865 166.039 77.5695 166.039C76.8352 166.027 76.2283 165.594 76.2156 164.851L76.1901 163.828C76.1137 161.008 76.0628 158.975 77.4294 157.625C78.5159 156.546 80.2263 156.156 83.401 156.275C84.131 156.309 84.7166 156.911 84.7294 157.637C84.7378 158.376 84.1691 158.988 83.4349 159.034C79.4029 159.293 79.3223 160.316 79.004 164.604C78.9997 164.651 78.9912 164.711 78.987 164.77L78.9785 164.791C78.8299 165.449 78.2612 166.039 77.6034 166.039Z" fill="#414141"/>
<path fill-rule="evenodd" clip-rule="evenodd" d="M106.987 98.1228C107.398 99.2861 108.964 102.271 106.753 104.937C108.451 103.175 109.958 102.963 111.804 102.975C108.969 102.262 108.116 99.8168 106.987 98.1228Z" fill="white"/>
<path fill-rule="evenodd" clip-rule="evenodd" d="M106.756 106.325C106.429 106.325 106.098 106.206 105.839 105.973C105.283 105.48 105.219 104.635 105.695 104.058C107.04 102.436 106.522 100.695 105.873 99.0522L105.69 98.5937C105.457 97.9229 105.745 97.2096 106.365 96.8912C106.993 96.5728 107.749 96.7724 108.143 97.3625C108.373 97.7021 108.593 98.08 108.818 98.4663C109.642 99.8759 110.418 101.192 112.15 101.625C112.825 101.803 113.27 102.449 113.177 103.141C113.088 103.833 112.506 104.351 111.81 104.351C110.083 104.47 109.035 104.576 107.753 105.892C107.481 106.185 107.116 106.325 106.756 106.325Z" fill="#414141"/>
<path fill-rule="evenodd" clip-rule="evenodd" d="M132.031 102.156C130.1 103.179 129.416 103.858 124.489 104.223C128.47 104.622 127.154 105.96 127.604 108.384C127.727 104.563 129.998 103.905 132.031 102.156Z" fill="white"/>
<path fill-rule="evenodd" clip-rule="evenodd" d="M127.602 109.755C126.94 109.755 126.363 109.284 126.244 108.626C126.117 107.934 126.108 107.31 126.108 106.771C126.104 106.478 126.104 106.079 126.057 105.972C126.04 105.972 125.726 105.739 124.355 105.595C123.638 105.535 123.099 104.924 123.108 104.206C123.116 103.489 123.676 102.903 124.389 102.843C128.438 102.551 129.304 102.071 130.73 101.281L131.388 100.929C132.007 100.598 132.78 100.789 133.175 101.366C133.574 101.952 133.472 102.742 132.941 103.196C132.483 103.582 132.012 103.935 131.545 104.278C130 105.408 129.066 106.087 128.99 108.426C128.969 109.123 128.417 109.696 127.708 109.755C127.666 109.755 127.636 109.755 127.602 109.755Z" fill="#414141"/>
</svg>
