<svg width="250" height="250" viewBox="0 0 250 250" fill="none" xmlns="http://www.w3.org/2000/svg">
<g clip-path="url(#clip0_402_12138)">
<path opacity="0.2" fill-rule="evenodd" clip-rule="evenodd" d="M213.81 185.263L104.844 122.281C100.392 119.708 93.1184 119.713 88.676 122.281L21.7607 161.02C17.3135 163.598 17.3135 167.803 21.7607 170.375L130.77 233.357C135.217 235.925 142.496 235.925 146.943 233.357L213.81 194.613C218.277 192.045 218.277 187.831 213.81 185.263Z" fill="black"/>
<path fill-rule="evenodd" clip-rule="evenodd" d="M223.941 175.212L228.707 171.968L228.885 171.669L229.045 171.351L229.189 171.008L229.315 170.651L229.426 170.274L229.517 169.873L229.585 169.458L229.638 169.024L229.672 168.57V168.087L229.638 90.9762C229.622 89.9767 229.5 88.9816 229.276 88.0074C228.371 84.3324 226.391 81.0112 223.589 78.4687C222.962 77.9306 222.291 77.4461 221.583 77.0206L113.061 14.3575L112.651 14.1307L112.241 13.9328L111.84 13.759L111.445 13.6141L111.054 13.4935L110.673 13.3969L110.302 13.3293L109.935 13.2859H109.578H109.231L108.893 13.3197L108.565 13.3728L108.252 13.45L107.948 13.5514L107.654 13.6769L107.374 13.8217L102.608 17.0705L102.874 16.9064L103.163 16.7857L103.467 16.6795L103.785 16.6071L104.113 16.5491L104.446 16.5202H104.803H105.16L105.526 16.5636L105.903 16.6312L106.284 16.7277L106.67 16.8436L107.065 16.9932L107.47 17.167L107.875 17.365L108.29 17.5918L216.817 80.2597C218.287 81.1418 219.592 82.272 220.676 83.6001C221.357 84.4469 221.977 85.3405 222.533 86.2745C223.932 88.7846 224.839 91.2803 224.901 94.2202L224.93 171.331V171.814L224.901 172.268L224.848 172.702L224.776 173.117L224.689 173.513L224.578 173.895L224.453 174.252L224.308 174.59L224.144 174.908L223.941 175.212Z" fill="#2B7CFF"/>
<path fill-rule="evenodd" clip-rule="evenodd" d="M224.424 175.908L229.19 172.664C229.292 172.593 229.378 172.501 229.44 172.394L229.619 172.094C229.638 172.064 229.654 172.031 229.667 171.998L229.802 171.732L229.831 171.674L229.971 171.336V171.293L230.101 170.936C230.103 170.91 230.103 170.884 230.101 170.858L230.203 170.501C230.205 170.469 230.205 170.437 230.203 170.405L230.285 170.062V170.014L230.357 169.599L230.415 169.116L230.449 168.633V168.541C230.989 143.135 230.724 116.44 230.449 90.9813C230.439 90.452 230.402 89.9234 230.338 89.398C230.275 88.9152 230.183 88.3939 230.068 87.8484V87.7905C229.588 85.8876 228.834 84.0647 227.829 82.3791C226.829 80.6989 225.584 79.1777 224.135 77.8656C223.783 77.5615 223.45 77.3008 223.112 77.0546C222.775 76.8084 222.437 76.5719 222.022 76.3353C186.473 55.2739 149.188 33.2711 113.013 13.4213H112.979L112.574 13.2233L112.135 13.0302H112.063L111.696 12.8951L111.609 12.8661L111.262 12.7599H111.218L110.837 12.6634H110.736L110.408 12.6055H110.365L109.998 12.562H109.882H109.583H109.101L108.763 12.591H108.643L108.373 12.6392H108.286L107.992 12.7117H107.929L107.625 12.813L107.514 12.8565L107.268 12.9627L107.201 12.9916L106.926 13.1413L106.844 13.1896L102.078 16.4383C101.886 16.5548 101.748 16.7428 101.695 16.961C101.642 17.1792 101.677 17.4097 101.793 17.6017C101.91 17.7937 102.098 17.9316 102.316 17.9851C102.534 18.0385 102.764 18.003 102.956 17.8865L103.207 17.7562L103.429 17.6596L103.65 17.5872L103.901 17.5245L104.2 17.4762H104.451H104.803H105.102L105.445 17.5196L105.763 17.5776L106.082 17.6548L106.41 17.7562L106.776 17.8913L107.143 18.0506L107.562 18.2534C143.95 38.1997 180.396 60.2991 216.451 81.1047C217.134 81.5173 217.78 81.9889 218.38 82.5142C218.98 83.0548 219.541 83.6371 220.059 84.2569C220.406 84.6817 220.71 85.092 220.995 85.5023C221.279 85.9127 221.559 86.352 221.839 86.8202C222.498 87.9736 223.038 89.1916 223.45 90.4551C223.849 91.718 224.067 93.0313 224.096 94.3556L224.125 171.433V171.867L224.096 172.292L224.048 172.693C224.004 172.939 223.966 173.176 223.913 173.398L223.807 173.76L223.701 174.064L223.575 174.349L223.44 174.619L223.281 174.889C223.184 175.053 223.145 175.246 223.172 175.435C223.198 175.624 223.288 175.798 223.427 175.929C223.566 176.06 223.745 176.14 223.935 176.155C224.125 176.171 224.314 176.121 224.472 176.014L224.424 175.908ZM228.085 171.375L225.63 173.05L225.664 172.852V172.804L225.712 172.365L225.746 171.882C226.831 146.988 225.746 119.424 225.746 94.2253C225.713 92.7503 225.471 91.2875 225.027 89.8807C224.583 88.5022 223.996 87.174 223.276 85.9175V85.8885C222.972 85.4058 222.678 84.9231 222.365 84.4693C222.051 84.0156 221.713 83.5666 221.347 83.1129C220.775 82.4251 220.155 81.7798 219.49 81.1819C218.818 80.5875 218.093 80.0558 217.324 79.5937C181.761 58.0978 144.674 37.9294 108.725 16.9017L108.373 16.7038L108.281 16.6555L107.871 16.4528L107.432 16.2645L106.993 16.1004H106.955L106.564 15.9797L106.168 15.8784H106.091H105.975L107.832 14.6136L108.04 14.5026L108.252 14.4157L108.527 14.324L108.759 14.2661L109.005 14.2274L109.328 14.1985H109.574H109.858L110.22 14.2419L110.5 14.295L110.862 14.3819L111.18 14.4833L111.542 14.6184L111.913 14.7729L112.304 14.966L112.685 15.1736L221.212 77.8318C221.544 78.0277 221.866 78.2404 222.176 78.469C222.49 78.6959 222.789 78.9517 223.103 79.1979C224.426 80.393 225.564 81.7792 226.479 83.3108C227.4 84.8556 228.089 86.5277 228.524 88.2732C228.635 88.756 228.712 89.2387 228.77 89.6731C228.828 90.1393 228.862 90.6082 228.871 91.0779L228.9 168.16C228.9 168.459 228.9 168.715 228.862 169.014L228.813 169.415L228.751 169.811C228.698 170.043 228.645 170.236 228.577 170.463L228.456 170.805L228.341 171.076C228.239 171.134 228.177 171.245 228.1 171.38L228.085 171.375Z" fill="#131313"/>
<path fill-rule="evenodd" clip-rule="evenodd" d="M216.85 80.2741L108.323 17.6063C103.891 15.043 100.268 17.1236 100.273 22.2646L100.302 99.3757C100.302 104.502 103.929 110.783 108.362 113.346L216.889 176.009C221.317 178.567 224.944 176.492 224.939 171.346L224.905 94.2346C224.905 89.1129 221.278 82.8278 216.85 80.2741Z" fill="white"/>
<path fill-rule="evenodd" clip-rule="evenodd" d="M217.268 79.5453L108.741 16.8775C107.538 16.1304 106.158 15.7157 104.743 15.6755C103.859 15.6607 102.987 15.8875 102.222 16.3315C101.457 16.7756 100.828 17.4199 100.402 18.1953C99.7293 19.4437 99.3967 20.8471 99.437 22.2647L99.466 99.3758C99.466 102.094 100.431 105.096 101.945 107.746C103.46 110.396 105.597 112.718 107.946 114.075L216.472 176.738C217.675 177.483 219.053 177.898 220.466 177.94C221.351 177.955 222.223 177.727 222.988 177.282C223.753 176.837 224.382 176.192 224.807 175.415C225.48 174.167 225.813 172.763 225.772 171.346L225.738 94.2347C225.738 91.5218 224.774 88.5192 223.259 85.869C221.744 83.2188 219.608 80.8969 217.259 79.5453H217.268ZM107.878 18.3546L216.405 81.0176C218.489 82.2196 220.394 84.3195 221.788 86.7331C223.182 89.1468 224.045 91.8452 224.045 94.254L224.074 171.365C224.117 172.489 223.864 173.604 223.341 174.599C223.055 175.118 222.635 175.55 222.125 175.85C221.61 176.138 221.028 176.286 220.437 176.279C219.32 176.237 218.233 175.904 217.283 175.314L108.751 112.617C106.667 111.415 104.762 109.315 103.373 106.902C101.984 104.488 101.116 101.789 101.116 99.3758L101.087 22.2647C101.045 21.1416 101.296 20.0271 101.815 19.0305C102.103 18.5154 102.523 18.0857 103.031 17.785C103.545 17.4932 104.128 17.3449 104.719 17.3554C105.841 17.4061 106.93 17.7506 107.878 18.3546Z" fill="#131313"/>
<path fill-rule="evenodd" clip-rule="evenodd" d="M216.367 86.0574L187.764 69.5529L108.771 23.9496C106.736 22.7765 105.086 23.7323 105.086 26.0832L105.115 101.167C105.184 102.447 105.555 103.692 106.196 104.802C106.837 105.912 107.731 106.855 108.805 107.553L197.942 159.012L216.391 169.666C218.427 170.839 220.076 169.888 220.076 167.537L220.047 92.4488C219.978 91.1692 219.609 89.9239 218.969 88.8136C218.33 87.7033 217.439 86.7592 216.367 86.0574Z" fill="white"/>
<path fill-rule="evenodd" clip-rule="evenodd" d="M216.786 85.3286L109.224 23.2208C108.601 22.8396 107.889 22.6282 107.16 22.6077C106.675 22.5982 106.197 22.7213 105.777 22.9638C105.357 23.2062 105.011 23.5588 104.777 23.9835C104.436 24.6294 104.27 25.3533 104.294 26.0833L104.323 101.167C104.392 102.595 104.801 103.986 105.516 105.223C106.231 106.461 107.231 107.51 108.433 108.282L215.981 170.414C216.605 170.796 217.319 171.007 218.05 171.027C218.533 171.034 219.01 170.91 219.429 170.67C219.845 170.424 220.19 170.073 220.428 169.652C220.769 169.007 220.935 168.285 220.91 167.557L220.881 92.4682C220.814 91.0393 220.405 89.6473 219.69 88.4086C218.975 87.1699 217.975 86.1205 216.772 85.3479L216.786 85.3286ZM187.363 70.282L215.961 86.7864C216.905 87.4142 217.691 88.2521 218.258 89.2344C218.824 90.2167 219.156 91.3169 219.227 92.4488L219.246 167.518C219.266 167.953 219.171 168.386 218.971 168.773C218.882 168.939 218.748 169.078 218.585 169.174C218.422 169.265 218.237 169.312 218.05 169.309C217.613 169.287 217.189 169.153 216.82 168.918L109.229 106.825C108.285 106.198 107.498 105.361 106.932 104.38C106.365 103.398 106.034 102.298 105.963 101.167L105.934 26.0785C105.917 25.6419 106.011 25.2081 106.209 24.8186C106.299 24.6522 106.432 24.5136 106.595 24.4179C106.761 24.327 106.947 24.2805 107.135 24.2828C107.571 24.3046 107.993 24.4393 108.361 24.6738L187.363 70.282Z" fill="#131313"/>
<path fill-rule="evenodd" clip-rule="evenodd" d="M25.7266 159.615V165.51L25.8182 165.828L25.9388 166.137L26.0787 166.446L26.2475 166.75L26.4453 167.054L26.6671 167.349L26.9131 167.638L27.188 167.923L27.4871 168.203L27.8151 168.474L28.1672 168.734L28.5434 168.99L28.9486 169.236L137.934 232.218L138.358 232.45L138.797 232.667L139.251 232.874L139.718 233.063L140.201 233.232L140.693 233.391L141.199 233.536L141.711 233.661L142.231 233.777L142.757 233.874L143.293 233.956L143.828 234.023L144.373 234.076L144.918 234.115L145.468 234.139L146.018 234.144L146.568 234.134L147.118 234.115L147.663 234.076L148.203 234.023L148.743 233.956L149.278 233.869L149.804 233.772L150.325 233.661L150.836 233.531L151.343 233.386L151.835 233.232L152.312 233.058L152.785 232.87L153.238 232.662L153.677 232.445L154.102 232.213L221.022 193.469L221.422 193.223L221.803 192.972L222.155 192.707L222.479 192.436L222.778 192.156L223.053 191.871L223.299 191.582L223.521 191.287L223.713 190.983L223.882 190.679L224.027 190.37L224.143 190.061L224.234 189.747V183.848L224.143 184.162L224.027 184.471L223.882 184.78L223.713 185.089L223.521 185.388L223.299 185.683L223.053 185.977L222.778 186.262L222.479 186.537L222.155 186.808L221.803 187.073L221.422 187.329L221.022 187.575L154.102 226.314L153.677 226.546L153.238 226.763L152.785 226.971L152.312 227.159L151.835 227.333L151.343 227.492L150.836 227.632L150.325 227.762L149.804 227.873L149.278 227.975L148.743 228.057L148.203 228.124L147.663 228.177L147.118 228.216L146.568 228.235L146.018 228.245L145.468 228.24L144.918 228.216L144.373 228.177L143.828 228.124L143.293 228.057L142.757 227.975L142.231 227.878L141.711 227.767L141.199 227.637L140.693 227.492L140.201 227.338L139.718 227.164L139.251 226.976L138.797 226.773L138.358 226.551L137.934 226.319L28.9486 163.337L28.5434 163.096L28.1672 162.84L27.8151 162.575L27.4871 162.304L27.188 162.024L26.9131 161.739L26.6671 161.45L26.4453 161.155L26.2475 160.856L26.0787 160.547L25.9388 160.238L25.8182 159.929L25.7266 159.615Z" fill="#2B7CFF"/>
<path fill-rule="evenodd" clip-rule="evenodd" d="M24.8818 159.616V165.515C24.8838 165.618 24.9033 165.721 24.9397 165.819L25.012 166.06V166.123L25.1278 166.432L25.1519 166.494L25.2966 166.803C25.2966 166.837 25.3304 166.866 25.3449 166.895L25.4944 167.156C25.5092 167.188 25.5269 167.219 25.5474 167.248L25.7211 167.513L25.7742 167.585L25.9767 167.856L26.0105 167.894L26.2613 168.184L26.2999 168.227L26.5652 168.507L26.5989 168.541L26.898 168.821L26.9366 168.85L27.2597 169.121L27.6456 169.415L27.7324 169.468C59.7696 191.003 103.176 213.116 137.494 232.947C137.803 233.111 138.092 233.265 138.411 233.43C138.729 233.594 139.052 233.71 139.375 233.845L139.443 233.874C139.776 233.989 140.094 234.105 140.432 234.207L140.914 234.352H140.981C141.329 234.438 141.652 234.516 141.999 234.588L142.554 234.689L143.138 234.781L143.673 234.849H143.76L144.242 234.897L144.792 234.936H145.361C145.95 234.936 146.509 234.936 147.098 234.936L147.647 234.897H147.715L148.197 234.849C148.771 234.776 149.331 234.699 149.895 234.583L150.416 234.467C150.783 234.38 151.125 234.289 151.487 234.183L151.564 234.158C152.046 233.994 152.529 233.83 153.011 233.637C153.493 233.444 153.947 233.198 154.429 232.937C176.699 219.86 199.769 207.353 221.779 193.928L222.189 193.658L222.246 193.609L222.574 193.363L222.931 193.069L222.989 193.016L223.264 192.76L223.322 192.707L223.573 192.441L223.607 192.403L223.853 192.113L223.891 192.065L224.113 191.765C224.137 191.735 224.158 191.703 224.176 191.669L224.335 191.418L224.374 191.36L224.538 191.065L224.566 191.007L224.706 190.698C224.726 190.665 224.74 190.63 224.75 190.592L224.846 190.327V190.269L224.943 189.955C224.962 189.879 224.971 189.801 224.972 189.723V183.824C224.969 183.617 224.89 183.418 224.75 183.264C224.61 183.111 224.419 183.015 224.213 182.994C224.006 182.973 223.799 183.029 223.632 183.151C223.464 183.273 223.347 183.453 223.303 183.655L223.24 183.873L223.153 184.104L223.018 184.389L222.888 184.631L222.738 184.857L222.502 185.176L222.338 185.369C222.16 185.553 222.015 185.702 221.827 185.852L221.528 186.098L221.219 186.33L220.877 186.561L220.491 186.798L153.59 225.527L153.194 225.745L152.736 225.976L152.365 226.14L151.882 226.324L151.429 226.488L150.985 226.633L150.503 226.773L150.021 226.889L149.471 227.009C149.148 227.072 148.839 227.12 148.506 227.173L147.922 227.251L147.469 227.294C146.929 227.333 146.422 227.352 145.882 227.362H145.366H144.84L144.271 227.323L143.789 227.275L143.249 227.207H143.205L142.761 227.14L142.279 227.043L141.758 226.932L141.276 226.816L140.75 226.667C140.451 226.57 140.176 226.478 139.882 226.372L139.399 226.184L138.999 226.005L138.589 225.802C101.835 205.581 65.9242 182.791 29.1698 162.565L28.8418 162.367L28.4994 162.135L28.128 161.855L27.8916 161.658L27.6022 161.392L27.3707 161.146L27.1681 160.914L26.9655 160.639L26.7967 160.383L26.6713 160.151L26.5362 159.862L26.4446 159.62L26.3674 159.35C26.3142 159.152 26.1902 158.98 26.019 158.867C25.8477 158.754 25.6409 158.707 25.4378 158.737C25.2347 158.766 25.0494 158.868 24.9167 159.025C24.784 159.181 24.7132 159.381 24.7178 159.587L24.8818 159.616ZM26.57 165.408V162.604L26.6134 162.647L26.9125 162.927L26.9462 162.961L27.2164 163.188L27.3031 163.26L27.6553 163.526L28.0653 163.806L28.4559 164.042C28.475 164.058 28.4961 164.071 28.5186 164.081L137.528 227.072L137.957 227.309L138.44 227.54L138.956 227.772L139.438 227.96L139.973 228.158L140.412 228.298L140.494 228.327L140.977 228.467L141.541 228.607L142.062 228.723C142.409 228.795 142.747 228.848 143.099 228.902H143.195L143.731 228.969L144.247 229.022H144.314L144.864 229.061C145.453 229.09 146.012 229.09 146.601 229.061H147.17L147.72 229.022L148.202 228.974H148.289L148.824 228.906L149.408 228.815L149.89 228.728H149.972C150.344 228.646 150.691 228.564 151.058 228.472L151.564 228.332L152.114 228.158L152.596 227.975L153.079 227.786L153.513 227.593L153.6 227.555L154.038 227.338C176.337 214.956 200.097 201.347 221.846 188.077L222.256 187.807L222.642 187.517L222.999 187.218L223.293 186.948C223.321 186.926 223.347 186.902 223.37 186.875V189.675L223.327 189.834L223.24 190.066L223.11 190.351L222.975 190.587L222.825 190.819L222.603 191.114L222.391 191.365L222.174 191.591L221.914 191.838L221.615 192.084L221.306 192.316L220.963 192.547L220.578 192.784C198.293 205.682 175.758 219.382 153.257 231.745L152.847 231.948L152.447 232.126L151.964 232.31L151.516 232.474L151.091 232.609L150.566 232.759L150.083 232.874L149.562 232.985L149.08 233.077L148.598 233.154L148.115 233.217C147.754 233.251 147.411 233.28 147.049 233.304H146.524H146.007C145.467 233.304 144.961 233.27 144.421 233.236L143.967 233.193L143.384 233.116C143.056 233.068 142.747 233.014 142.419 232.952L141.874 232.836C141.546 232.754 141.242 232.667 140.909 232.575L140.461 232.43L139.549 232.083L139.153 231.904L138.714 231.687C102.192 211.726 65.5143 189.395 29.3579 168.498L28.9721 168.266L28.6682 168.063L28.3161 167.798L28.017 167.547L27.7566 167.31L27.5251 167.064L27.2983 166.799L27.1247 166.567L26.9655 166.321L26.8256 166.07L26.6906 165.78L26.5989 165.539L26.5555 165.394L26.57 165.408ZM222.705 193.344L222.941 193.001C222.891 193.131 222.81 193.247 222.705 193.339V193.344Z" fill="#131313"/>
<path fill-rule="evenodd" clip-rule="evenodd" d="M221.013 178.22L112.038 115.243C107.586 112.67 100.312 112.675 95.8698 115.243L28.9448 154.001C24.5025 156.574 24.4977 160.76 28.9448 163.352L137.954 226.333C142.396 228.906 149.675 228.901 154.122 226.333L221.042 187.594C225.465 185.002 225.461 180.793 221.013 178.22Z" fill="white"/>
<path fill-rule="evenodd" clip-rule="evenodd" d="M221.438 177.491L112.453 114.509C110.099 113.153 107.017 112.472 103.949 112.472C100.881 112.472 97.7944 113.158 95.4406 114.514L28.5253 153.258C27.272 153.938 26.2204 154.937 25.4769 156.154C25.0201 156.919 24.7769 157.793 24.7726 158.684C24.7797 159.576 25.0228 160.45 25.4769 161.218C26.2271 162.424 27.2797 163.413 28.5301 164.086L137.51 227.048C139.864 228.409 142.946 229.085 146.019 229.085C149.091 229.085 152.174 228.404 154.527 227.043L221.443 188.299C222.692 187.628 223.741 186.639 224.486 185.432C224.947 184.667 225.19 183.791 225.19 182.897C225.19 182.004 224.947 181.128 224.486 180.363C223.738 179.156 222.687 178.165 221.438 177.491ZM111.609 115.967L220.594 178.949C221.589 179.476 222.429 180.255 223.03 181.208C223.344 181.715 223.51 182.301 223.51 182.897C223.51 183.494 223.344 184.079 223.03 184.587C222.433 185.535 221.602 186.313 220.618 186.846L153.703 225.585C151.609 226.797 148.826 227.405 146.038 227.405C143.25 227.405 140.467 226.802 138.374 225.59L29.3935 162.608C28.4086 162.078 27.5778 161.301 26.9818 160.354C26.6673 159.847 26.5007 159.262 26.5007 158.664C26.5007 158.067 26.6673 157.482 26.9818 156.975C27.5764 156.027 28.4076 155.25 29.3935 154.721L96.2847 115.972C98.378 114.76 101.156 114.157 103.949 114.152C106.742 114.147 109.515 114.76 111.609 115.967Z" fill="#131313"/>
<path fill-rule="evenodd" clip-rule="evenodd" d="M103.851 200.242L74.0469 183.004L96.8665 169.801L126.675 187.039L103.851 200.242Z" fill="white"/>
<path fill-rule="evenodd" clip-rule="evenodd" d="M103.838 199.272L75.7124 183.004L96.8535 170.771L124.979 187.039L103.838 199.272ZM73.6094 183.733L103.408 200.966C103.538 201.042 103.685 201.082 103.835 201.082C103.985 201.082 104.133 201.042 104.262 200.966L127.087 187.792C127.22 187.722 127.331 187.615 127.405 187.483C127.517 187.289 127.547 187.059 127.489 186.843C127.431 186.626 127.29 186.442 127.096 186.33L97.302 169.096C97.1726 169.02 97.0252 168.98 96.8751 168.98C96.7251 168.98 96.5777 169.02 96.4483 169.096L73.6335 182.289C73.5098 182.365 73.4076 182.472 73.3367 182.598C73.2658 182.725 73.2286 182.868 73.2286 183.013C73.2286 183.159 73.2658 183.301 73.3367 183.428C73.4076 183.555 73.5098 183.661 73.6335 183.737L73.6094 183.733Z" fill="#131313"/>
<path fill-rule="evenodd" clip-rule="evenodd" d="M207.366 180.406L198.775 175.444L185.752 167.923L172.203 160.093L165.45 156.178C165.329 156.096 165.199 156.014 165.064 155.937L156.474 150.97L143.45 143.454L129.882 135.619L112.228 125.419L108.278 123.136C105.905 121.765 102.008 121.765 99.6489 123.136L65.885 142.686C63.5119 144.062 63.5167 146.307 65.885 147.678L107.815 171.91C107.936 171.993 108.061 172.075 108.196 172.152L164.953 204.948C167.326 206.324 171.224 206.324 173.582 204.948L207.346 185.398C209.743 184.027 209.739 181.782 207.366 180.406Z" fill="white"/>
<path fill-rule="evenodd" clip-rule="evenodd" d="M207.786 179.678L165.895 155.45L165.706 155.324L165.475 155.189H165.432L156.894 150.246L108.727 122.412C107.262 121.661 105.639 121.27 103.993 121.27C102.347 121.27 100.724 121.661 99.259 122.412L65.4951 141.957C64.768 142.35 64.1573 142.928 63.7249 143.632C63.4468 144.101 63.3 144.637 63.3 145.182C63.3 145.727 63.4468 146.263 63.7249 146.731C64.1606 147.435 64.7725 148.013 65.4999 148.407L107.406 172.625L107.584 172.746L107.811 172.876L164.568 205.673C166.034 206.425 167.658 206.817 169.305 206.817C170.952 206.817 172.575 206.425 174.041 205.673L207.805 186.122C208.531 185.728 209.142 185.151 209.575 184.447C209.856 183.98 210.004 183.445 210.004 182.9C210.004 182.355 209.856 181.82 209.575 181.353C209.141 180.648 208.529 180.07 207.8 179.678H207.786ZM198.351 176.173L206.942 181.136C207.413 181.386 207.812 181.753 208.099 182.202C208.228 182.414 208.297 182.655 208.302 182.902C208.298 183.153 208.228 183.397 208.099 183.612C207.813 184.06 207.414 184.425 206.942 184.669L173.178 204.22C171.969 204.823 170.636 205.137 169.285 205.137C167.934 205.137 166.602 204.823 165.393 204.22L108.66 171.423L108.496 171.322L108.361 171.23L108.284 171.182L66.3536 146.949C65.8816 146.7 65.4813 146.335 65.1912 145.887C65.059 145.675 64.9888 145.431 64.9888 145.182C64.9888 144.933 65.059 144.688 65.1912 144.477C65.4781 144.028 65.8772 143.662 66.3488 143.415L100.113 123.865C101.322 123.261 102.654 122.948 104.005 122.948C105.356 122.948 106.689 123.261 107.898 123.865L156.064 151.699L164.607 156.637L164.65 156.666L164.819 156.767C164.872 156.798 164.924 156.832 164.973 156.869L165.036 156.907L198.351 176.173Z" fill="#131313"/>
<path fill-rule="evenodd" clip-rule="evenodd" d="M163.878 174.923L159.006 172.109C158.455 171.829 157.845 171.683 157.227 171.683C156.608 171.683 155.998 171.829 155.447 172.109L150.58 174.928C149.615 175.492 149.615 176.419 150.58 176.984L155.452 179.803C156.004 180.082 156.613 180.227 157.231 180.227C157.85 180.227 158.459 180.082 159.011 179.803L163.883 176.979C164.857 176.414 164.857 175.488 163.878 174.923Z" fill="white"/>
<path fill-rule="evenodd" clip-rule="evenodd" d="M164.255 174.17L159.432 171.38C158.752 171.028 157.998 170.844 157.232 170.844C156.467 170.844 155.712 171.028 155.033 171.38L150.161 174.199C149.787 174.403 149.474 174.703 149.254 175.068C149.093 175.336 149.008 175.643 149.008 175.956C149.008 176.269 149.093 176.576 149.254 176.844C149.476 177.209 149.79 177.509 150.166 177.713L155.037 180.532L155.091 180.561C155.756 180.896 156.493 181.062 157.237 181.044C158.005 181.057 158.762 180.871 159.436 180.503L164.308 177.684C164.684 177.48 164.998 177.181 165.22 176.815C165.375 176.545 165.459 176.239 165.461 175.927C165.46 175.616 165.375 175.311 165.215 175.044C164.995 174.677 164.682 174.376 164.308 174.17H164.26H164.255ZM158.588 172.838L163.411 175.628H163.454C163.573 175.688 163.675 175.777 163.749 175.888C163.752 175.901 163.752 175.914 163.749 175.927C163.753 175.941 163.753 175.956 163.749 175.97C163.671 176.079 163.568 176.166 163.45 176.226L158.583 179.045C158.164 179.265 157.695 179.373 157.222 179.359C156.765 179.37 156.312 179.271 155.901 179.07H155.867L150.991 176.25C150.872 176.19 150.769 176.103 150.692 175.995V175.951V175.908C150.769 175.799 150.872 175.712 150.991 175.652L155.862 172.833C156.284 172.626 156.748 172.519 157.218 172.519C157.687 172.519 158.151 172.626 158.573 172.833L158.588 172.838Z" fill="#131313"/>
<path fill-rule="evenodd" clip-rule="evenodd" d="M182.999 185.972L187.871 188.787C188.836 189.356 188.836 190.278 187.871 190.848L182.999 193.667C182.448 193.946 181.839 194.091 181.222 194.091C180.605 194.091 179.996 193.946 179.444 193.667L174.573 190.853C173.608 190.283 173.608 189.361 174.573 188.792L179.444 185.972C179.996 185.694 180.605 185.549 181.222 185.549C181.839 185.549 182.448 185.694 182.999 185.972Z" fill="white"/>
<path fill-rule="evenodd" clip-rule="evenodd" d="M182.578 186.702L187.45 189.521C187.569 189.581 187.672 189.668 187.749 189.777C187.751 189.791 187.751 189.806 187.749 189.82C187.752 189.834 187.752 189.849 187.749 189.863C187.672 189.959 187.577 190.038 187.469 190.095L182.598 192.914C182.175 193.121 181.711 193.228 181.24 193.228C180.769 193.228 180.305 193.121 179.882 192.914L175.011 190.1H174.972C174.867 190.044 174.777 189.963 174.712 189.863C174.707 189.849 174.707 189.834 174.712 189.82C174.709 189.807 174.709 189.794 174.712 189.781C174.787 189.672 174.888 189.582 175.006 189.521L179.877 186.702C180.298 186.487 180.766 186.38 181.238 186.393C181.708 186.379 182.175 186.485 182.593 186.702H182.578ZM188.294 188.063L183.423 185.244C182.743 184.888 181.988 184.703 181.221 184.703C180.454 184.703 179.698 184.888 179.019 185.244L174.152 188.063C173.777 188.269 173.463 188.571 173.24 188.937C173.084 189.203 173.001 189.506 172.999 189.815C173 190.127 173.084 190.434 173.24 190.703C173.451 191.051 173.747 191.34 174.099 191.543L174.152 191.577L179.024 194.391C179.703 194.744 180.458 194.927 181.223 194.927C181.989 194.927 182.743 194.744 183.423 194.391L188.289 191.572C188.642 191.378 188.942 191.099 189.162 190.761L189.211 190.689C189.368 190.42 189.452 190.115 189.452 189.803C189.452 189.492 189.368 189.186 189.211 188.917C188.985 188.558 188.669 188.263 188.294 188.063Z" fill="#131313"/>
<path fill-rule="evenodd" clip-rule="evenodd" d="M171.014 192.914L175.885 195.728C176.85 196.293 176.85 197.22 175.885 197.79L171.014 200.604C170.462 200.884 169.852 201.031 169.234 201.031C168.615 201.031 168.005 200.884 167.454 200.604L162.582 197.79C161.618 197.225 161.618 196.298 162.582 195.733L167.449 192.914C168.001 192.633 168.612 192.486 169.231 192.486C169.851 192.486 170.462 192.633 171.014 192.914Z" fill="white"/>
<path fill-rule="evenodd" clip-rule="evenodd" d="M170.637 193.667L175.46 196.457C175.58 196.517 175.683 196.607 175.759 196.718C175.762 196.731 175.762 196.744 175.759 196.757C175.763 196.771 175.763 196.786 175.759 196.8C175.682 196.908 175.579 196.996 175.46 197.056L170.593 199.875C170.174 200.095 169.706 200.203 169.233 200.189C168.763 200.202 168.296 200.096 167.878 199.88L163.006 197.061C162.886 197.003 162.783 196.914 162.707 196.805C162.704 196.791 162.704 196.776 162.707 196.762C162.704 196.747 162.704 196.733 162.707 196.718C162.783 196.61 162.884 196.522 163.001 196.462L167.873 193.643C168.297 193.44 168.761 193.334 169.231 193.334C169.701 193.334 170.165 193.44 170.589 193.643L170.632 193.667H170.637ZM176.304 195L171.481 192.214L171.433 192.185C170.754 191.83 169.999 191.645 169.233 191.645C168.467 191.645 167.712 191.83 167.034 192.185L162.162 195.004C161.788 195.209 161.476 195.509 161.255 195.873C161.097 196.141 161.014 196.446 161.014 196.757C161.016 197.069 161.101 197.376 161.26 197.645C161.484 198.008 161.798 198.308 162.172 198.514L167.043 201.328C167.723 201.684 168.478 201.869 169.245 201.869C170.012 201.869 170.767 201.684 171.447 201.328L176.314 198.509C176.688 198.304 177.003 198.005 177.226 197.64C177.386 197.373 177.471 197.066 177.471 196.754C177.471 196.442 177.386 196.136 177.226 195.869C177.003 195.503 176.689 195.201 176.314 194.995L176.304 195Z" fill="#131313"/>
<path fill-rule="evenodd" clip-rule="evenodd" d="M179.438 179.794L174.561 176.979C173.596 176.414 173.596 175.488 174.561 174.923L179.433 172.104C179.984 171.824 180.593 171.678 181.21 171.678C181.828 171.678 182.437 171.824 182.988 172.104L187.859 174.923C188.824 175.488 188.824 176.414 187.859 176.979L182.988 179.798C182.437 180.078 181.829 180.223 181.212 180.222C180.595 180.221 179.987 180.074 179.438 179.794Z" fill="white"/>
<path fill-rule="evenodd" clip-rule="evenodd" d="M179.86 179.065L174.988 176.25C174.868 176.19 174.765 176.101 174.689 175.99C174.686 175.977 174.686 175.964 174.689 175.951C174.685 175.937 174.685 175.922 174.689 175.908C174.763 175.798 174.865 175.71 174.983 175.652L179.855 172.828C180.278 172.624 180.741 172.519 181.21 172.519C181.679 172.519 182.143 172.624 182.566 172.828L182.614 172.857L187.437 175.647C187.556 175.707 187.659 175.795 187.736 175.903V175.946C187.739 175.96 187.739 175.975 187.736 175.99C187.66 176.099 187.557 176.187 187.437 176.245L182.57 179.065C182.147 179.268 181.683 179.374 181.213 179.374C180.743 179.374 180.279 179.268 179.855 179.065H179.86ZM174.144 177.708L179.016 180.522C179.695 180.878 180.451 181.063 181.217 181.063C181.984 181.063 182.74 180.878 183.419 180.522L188.286 177.703C188.66 177.497 188.974 177.198 189.198 176.834C189.357 176.565 189.442 176.259 189.444 175.946C189.443 175.636 189.359 175.331 189.203 175.063C188.98 174.697 188.666 174.396 188.291 174.189L183.468 171.399L183.424 171.37C182.744 171.018 181.99 170.834 181.225 170.834C180.459 170.834 179.705 171.018 179.025 171.37L174.154 174.194C173.78 174.398 173.467 174.698 173.247 175.063C173.088 175.332 173.005 175.639 173.006 175.951C173.007 176.262 173.092 176.567 173.252 176.834C173.469 177.198 173.776 177.499 174.144 177.708Z" fill="#131313"/>
<path fill-rule="evenodd" clip-rule="evenodd" d="M167.439 172.862L162.568 170.047C161.603 169.478 161.603 168.556 162.568 167.986L167.434 165.167C167.987 164.888 168.596 164.743 169.214 164.743C169.833 164.743 170.442 164.888 170.994 165.167L175.866 167.986C176.831 168.551 176.831 169.478 175.866 170.042L170.999 172.862C170.447 173.14 169.837 173.285 169.219 173.285C168.601 173.285 167.991 173.14 167.439 172.862Z" fill="white"/>
<path fill-rule="evenodd" clip-rule="evenodd" d="M167.863 172.133L162.987 169.318L162.948 169.294C162.844 169.236 162.755 169.155 162.687 169.058C162.686 169.045 162.686 169.032 162.687 169.019C162.685 169.005 162.685 168.99 162.687 168.976C162.764 168.877 162.861 168.797 162.972 168.739L167.844 165.925C168.26 165.703 168.727 165.594 169.199 165.606C169.67 165.595 170.136 165.703 170.554 165.92L170.603 165.944L175.426 168.734C175.545 168.794 175.648 168.882 175.725 168.99C175.735 169.003 175.74 169.018 175.74 169.034C175.74 169.049 175.735 169.065 175.725 169.077C175.649 169.188 175.546 169.278 175.426 169.338L170.554 172.157C170.132 172.363 169.669 172.471 169.199 172.471C168.729 172.471 168.266 172.363 167.844 172.157L167.863 172.133ZM162.147 170.776L167.019 173.591C167.698 173.943 168.451 174.126 169.216 174.126C169.981 174.126 170.734 173.943 171.413 173.591L176.285 170.771C176.66 170.565 176.974 170.264 177.196 169.898C177.352 169.629 177.436 169.325 177.438 169.014C177.437 168.701 177.352 168.395 177.192 168.126C176.971 167.761 176.658 167.462 176.285 167.257L171.461 164.467L171.418 164.438C170.738 164.086 169.984 163.902 169.218 163.902C168.453 163.902 167.699 164.086 167.019 164.438L162.147 167.257C161.795 167.455 161.495 167.735 161.274 168.073L161.24 168.131C161.08 168.398 160.995 168.705 160.995 169.017C160.995 169.329 161.08 169.635 161.24 169.903C161.451 170.25 161.747 170.539 162.099 170.742L162.152 170.776H162.147ZM161.269 168.073L161.236 168.131L161.269 168.073Z" fill="#131313"/>
<path fill-rule="evenodd" clip-rule="evenodd" d="M186.563 183.931L191.435 186.745C191.986 187.026 192.595 187.172 193.213 187.172C193.83 187.172 194.44 187.026 194.99 186.745L199.862 183.926C200.826 183.361 200.826 182.434 199.862 181.869L194.985 179.055C194.435 178.774 193.826 178.627 193.208 178.627C192.59 178.627 191.981 178.774 191.43 179.055L186.559 181.874C185.58 182.42 185.58 183.346 186.563 183.931Z" fill="white"/>
<path fill-rule="evenodd" clip-rule="evenodd" d="M186.14 184.64L191.011 187.455C191.691 187.81 192.447 187.996 193.213 187.996C193.98 187.996 194.736 187.81 195.415 187.455L200.282 184.636C200.657 184.432 200.972 184.132 201.194 183.767C201.353 183.498 201.438 183.191 201.44 182.878C201.438 182.568 201.355 182.263 201.199 181.995C200.976 181.629 200.662 181.328 200.287 181.121L195.415 178.307C194.736 177.952 193.982 177.766 193.216 177.766C192.45 177.766 191.695 177.952 191.016 178.307L186.15 181.126C185.776 181.332 185.462 181.632 185.238 181.995C185.079 182.264 184.994 182.571 184.992 182.883C184.991 183.194 185.075 183.499 185.233 183.767C185.455 184.133 185.77 184.434 186.145 184.64H186.14ZM191.856 186.002L186.984 183.183C186.864 183.124 186.761 183.036 186.685 182.927V182.883C186.682 182.869 186.682 182.854 186.685 182.84C186.761 182.73 186.864 182.642 186.984 182.584L191.851 179.765C192.272 179.552 192.739 179.447 193.211 179.461C193.682 179.447 194.148 179.553 194.566 179.77L199.438 182.584C199.558 182.644 199.661 182.734 199.737 182.845C199.74 182.857 199.74 182.871 199.737 182.883C199.741 182.898 199.741 182.912 199.737 182.927C199.66 183.034 199.557 183.121 199.438 183.178L194.571 185.997C194.154 186.216 193.687 186.324 193.216 186.311C192.744 186.324 192.276 186.218 191.856 186.002Z" fill="#131313"/>
<path fill-rule="evenodd" clip-rule="evenodd" d="M175.874 181.855L171.003 179.041C170.45 178.762 169.841 178.617 169.223 178.617C168.604 178.617 167.995 178.762 167.443 179.041L162.576 181.86C161.611 182.429 161.611 183.351 162.576 183.916L167.453 186.735C168.004 187.014 168.613 187.159 169.23 187.159C169.847 187.159 170.456 187.014 171.007 186.735L175.879 183.916C176.858 183.347 176.858 182.425 175.874 181.855Z" fill="white"/>
<path fill-rule="evenodd" clip-rule="evenodd" d="M176.3 181.126L171.424 178.312L171.37 178.283C170.705 177.948 169.968 177.782 169.224 177.8C168.457 177.787 167.7 177.972 167.025 178.336L162.153 181.155C161.78 181.354 161.465 181.644 161.236 182C161.078 182.267 160.995 182.572 160.995 182.883C160.997 183.196 161.082 183.502 161.241 183.771C161.463 184.137 161.778 184.436 162.153 184.64L167.025 187.459C167.705 187.812 168.46 187.995 169.226 187.995C169.993 187.995 170.748 187.812 171.428 187.459L176.295 184.64C176.67 184.434 176.984 184.132 177.207 183.766C177.365 183.498 177.448 183.192 177.448 182.881C177.448 182.569 177.365 182.263 177.207 181.995C176.984 181.629 176.67 181.328 176.295 181.121L176.3 181.126ZM170.579 179.769L175.456 182.584C175.574 182.646 175.677 182.736 175.755 182.844C175.757 182.859 175.757 182.873 175.755 182.888V182.926C175.679 183.038 175.576 183.127 175.456 183.187L170.589 186.006C170.166 186.213 169.702 186.32 169.231 186.32C168.761 186.32 168.296 186.213 167.874 186.006L163.002 183.187C162.884 183.127 162.783 183.04 162.708 182.931C162.705 182.917 162.705 182.902 162.708 182.888C162.705 182.875 162.705 182.862 162.708 182.849C162.785 182.742 162.885 182.655 163.002 182.593L167.874 179.774C168.292 179.557 168.758 179.449 169.229 179.46C169.686 179.45 170.14 179.549 170.55 179.75L170.579 179.769Z" fill="#131313"/>
<path fill-rule="evenodd" clip-rule="evenodd" d="M139.883 161.059L135.011 158.24C134.461 157.96 133.852 157.815 133.234 157.815C132.616 157.815 132.007 157.96 131.457 158.24L126.585 161.059C125.62 161.624 125.62 162.546 126.585 163.115L131.457 165.93C132.008 166.208 132.617 166.353 133.234 166.353C133.851 166.353 134.46 166.208 135.011 165.93L139.883 163.111C140.867 162.551 140.867 161.624 139.883 161.059Z" fill="white"/>
<path fill-rule="evenodd" clip-rule="evenodd" d="M140.259 160.301L135.436 157.516C134.755 157.162 134 156.977 133.234 156.977C132.467 156.977 131.712 157.162 131.032 157.516L126.165 160.335C125.79 160.539 125.475 160.838 125.253 161.204C125.093 161.471 125.008 161.777 125.008 162.09C125.008 162.402 125.093 162.708 125.253 162.975C125.476 163.341 125.79 163.643 126.165 163.849L131.037 166.663C131.717 167.016 132.472 167.199 133.238 167.199C134.005 167.199 134.76 167.016 135.44 166.663L140.307 163.844C140.681 163.638 140.995 163.339 141.219 162.975C141.377 162.706 141.461 162.4 141.46 162.087C141.459 161.775 141.376 161.469 141.219 161.199C140.996 160.834 140.682 160.535 140.307 160.33L140.259 160.301ZM134.591 158.969L139.415 161.759L139.458 161.788C139.578 161.846 139.681 161.934 139.757 162.044C139.761 162.058 139.761 162.073 139.757 162.087C139.76 162.102 139.76 162.116 139.757 162.131C139.682 162.239 139.581 162.327 139.463 162.386L134.591 165.206C134.169 165.412 133.704 165.519 133.234 165.519C132.763 165.519 132.299 165.412 131.876 165.206L127.004 162.391C126.885 162.33 126.782 162.241 126.705 162.131C126.702 162.118 126.702 162.105 126.705 162.092C126.701 162.078 126.701 162.063 126.705 162.049C126.782 161.941 126.885 161.855 127.004 161.798L131.871 158.978C132.29 158.759 132.758 158.651 133.231 158.665C133.702 158.652 134.168 158.758 134.587 158.974L134.591 158.969Z" fill="#131313"/>
<path fill-rule="evenodd" clip-rule="evenodd" d="M127.896 168L123.024 165.186C122.473 164.908 121.864 164.763 121.247 164.763C120.629 164.763 120.02 164.908 119.469 165.186L114.598 168.005C113.633 168.575 113.633 169.497 114.598 170.062L119.474 172.881C120.025 173.159 120.634 173.304 121.251 173.304C121.869 173.304 122.478 173.159 123.029 172.881L127.901 170.062C128.88 169.487 128.88 168.565 127.896 168Z" fill="white"/>
<path fill-rule="evenodd" clip-rule="evenodd" d="M128.271 167.243L123.448 164.452C122.768 164.1 122.014 163.917 121.249 163.917C120.483 163.917 119.729 164.1 119.049 164.452L114.182 167.272C113.805 167.475 113.49 167.777 113.271 168.145C113.256 168.165 113.245 168.186 113.237 168.208C113.095 168.472 113.024 168.768 113.03 169.067C113.036 169.366 113.119 169.659 113.271 169.917C113.493 170.281 113.808 170.581 114.182 170.786L119.054 173.605L119.112 173.634C119.787 173.971 120.531 174.144 121.286 174.139C122.04 174.134 122.783 173.951 123.453 173.605L128.32 170.786C128.695 170.579 129.009 170.278 129.231 169.912C129.39 169.645 129.475 169.34 129.477 169.029C129.476 168.717 129.393 168.41 129.236 168.14C129.014 167.775 128.699 167.473 128.325 167.267L128.276 167.243H128.271ZM122.604 165.91L127.427 168.7H127.471C127.59 168.762 127.693 168.851 127.77 168.961C127.772 168.975 127.772 168.99 127.77 169.005C127.773 169.017 127.773 169.03 127.77 169.043C127.693 169.153 127.59 169.242 127.471 169.304L122.604 172.123C122.185 172.338 121.719 172.445 121.249 172.432C120.79 172.443 120.335 172.344 119.922 172.142H119.888L115.017 169.323C114.897 169.265 114.794 169.177 114.718 169.067C114.718 169.043 114.718 169.033 114.718 169.024C114.791 168.913 114.893 168.823 115.012 168.763L119.884 165.944C120.306 165.738 120.771 165.63 121.241 165.63C121.712 165.63 122.176 165.738 122.599 165.944L122.604 165.91Z" fill="#131313"/>
<path fill-rule="evenodd" clip-rule="evenodd" d="M155.448 165.93L150.576 163.11C149.611 162.546 149.611 161.624 150.576 161.054L155.448 158.235C155.999 157.957 156.608 157.812 157.225 157.812C157.843 157.812 158.451 157.957 159.003 158.235L163.879 161.049C164.844 161.619 164.844 162.541 163.879 163.11L159.012 165.93C158.46 166.209 157.849 166.354 157.23 166.354C156.611 166.354 156 166.209 155.448 165.93Z" fill="white"/>
<path fill-rule="evenodd" clip-rule="evenodd" d="M155.861 165.201L150.989 162.381C150.871 162.322 150.768 162.234 150.69 162.126C150.687 162.111 150.687 162.096 150.69 162.082C150.687 162.07 150.687 162.056 150.69 162.044V162.015C150.769 161.919 150.866 161.841 150.975 161.783L155.847 158.964C156.265 158.747 156.731 158.641 157.202 158.655C157.673 158.644 158.139 158.751 158.557 158.969L163.429 161.783C163.549 161.843 163.652 161.933 163.728 162.044C163.732 162.058 163.732 162.073 163.728 162.087C163.731 162.1 163.731 162.113 163.728 162.126C163.654 162.237 163.553 162.326 163.434 162.386L158.562 165.205C158.144 165.424 157.678 165.532 157.207 165.519C156.734 165.531 156.266 165.423 155.847 165.205L155.861 165.201ZM150.145 163.839L155.022 166.658C155.702 167.011 156.456 167.194 157.221 167.194C157.987 167.194 158.741 167.011 159.421 166.658L164.293 163.839C164.667 163.634 164.98 163.332 165.199 162.966C165.359 162.699 165.444 162.393 165.445 162.082C165.446 161.77 165.363 161.463 165.204 161.194C164.982 160.828 164.667 160.527 164.293 160.32L159.421 157.506C158.746 157.142 157.988 156.958 157.221 156.97C156.454 156.96 155.697 157.146 155.022 157.511L150.141 160.325C149.787 160.521 149.487 160.802 149.268 161.141L149.229 161.199C149.068 161.466 148.983 161.772 148.983 162.085C148.983 162.397 149.068 162.703 149.229 162.97C149.452 163.335 149.766 163.634 150.141 163.839H150.145Z" fill="#131313"/>
<path fill-rule="evenodd" clip-rule="evenodd" d="M143.448 158.997L138.576 156.178C137.612 155.614 137.612 154.687 138.576 154.122L143.448 151.303C143.999 151.024 144.608 150.879 145.225 150.879C145.843 150.879 146.452 151.024 147.003 151.303L151.879 154.117C152.844 154.682 152.844 155.609 151.879 156.174L147.008 158.993C146.456 159.274 145.847 159.421 145.228 159.421C144.61 159.422 144 159.277 143.448 158.997Z" fill="white"/>
<path fill-rule="evenodd" clip-rule="evenodd" d="M143.872 158.269L139.001 155.45H138.962C138.858 155.393 138.769 155.311 138.702 155.213V155.17C138.699 155.157 138.699 155.144 138.702 155.131C138.778 155.02 138.881 154.93 139.001 154.87L143.872 152.032C144.296 151.827 144.76 151.721 145.23 151.721C145.701 151.721 146.165 151.827 146.588 152.032L151.46 154.846C151.58 154.906 151.683 154.996 151.759 155.107C151.762 155.119 151.762 155.133 151.759 155.145C151.763 155.16 151.763 155.175 151.759 155.189C151.684 155.287 151.588 155.368 151.479 155.425L146.607 158.245C146.184 158.448 145.72 158.554 145.25 158.554C144.78 158.554 144.316 158.448 143.892 158.245L143.872 158.269ZM138.152 156.898L143.024 159.717C143.704 160.069 144.459 160.253 145.225 160.253C145.992 160.253 146.747 160.069 147.427 159.717L152.294 156.898C152.648 156.705 152.949 156.426 153.167 156.087L153.206 156.029C153.364 155.76 153.447 155.454 153.447 155.143C153.447 154.832 153.364 154.526 153.206 154.257C152.983 153.891 152.669 153.59 152.294 153.383L147.423 150.569C146.743 150.217 145.988 150.033 145.223 150.033C144.458 150.033 143.703 150.217 143.024 150.569L138.157 153.388C137.782 153.595 137.468 153.896 137.245 154.262C137.087 154.53 137.004 154.836 137.004 155.148C137.004 155.459 137.087 155.765 137.245 156.034C137.447 156.388 137.736 156.685 138.084 156.898H138.152Z" fill="#131313"/>
<path fill-rule="evenodd" clip-rule="evenodd" d="M151.884 168.001L147.007 165.186C146.457 164.905 145.848 164.759 145.23 164.759C144.612 164.759 144.003 164.905 143.452 165.186L138.566 168.001C137.602 168.565 137.602 169.492 138.566 170.057L143.438 172.871C143.989 173.152 144.599 173.298 145.218 173.298C145.836 173.298 146.446 173.152 146.998 172.871L151.864 170.052C152.863 169.483 152.863 168.556 151.884 168.001Z" fill="white"/>
<path fill-rule="evenodd" clip-rule="evenodd" d="M152.303 167.262L147.432 164.443L147.374 164.414C146.699 164.075 145.954 163.901 145.199 163.907C144.444 163.913 143.702 164.098 143.033 164.448L138.161 167.267C137.787 167.473 137.473 167.772 137.249 168.136C137.09 168.405 137.005 168.711 137.003 169.024C137.005 169.335 137.088 169.639 137.245 169.907C137.467 170.273 137.781 170.575 138.156 170.781L143.028 173.595L143.086 173.624C143.75 173.962 144.488 174.127 145.232 174.107C146 174.119 146.757 173.933 147.432 173.566L152.303 170.747C152.677 170.543 152.99 170.243 153.21 169.878C153.369 169.609 153.454 169.303 153.456 168.99C153.455 168.679 153.37 168.374 153.21 168.107C152.989 167.74 152.674 167.438 152.298 167.233L152.303 167.262ZM146.588 165.906L151.459 168.72C151.579 168.778 151.682 168.866 151.758 168.976C151.768 168.988 151.773 169.003 151.773 169.019C151.773 169.035 151.768 169.05 151.758 169.063C151.684 169.172 151.583 169.26 151.464 169.318L146.592 172.138C146.174 172.354 145.708 172.46 145.237 172.447C144.78 172.457 144.326 172.358 143.915 172.157H143.877L139.005 169.343C138.886 169.283 138.784 169.195 138.706 169.087V169.043C138.703 169.029 138.703 169.014 138.706 169C138.782 168.89 138.885 168.802 139.005 168.744L143.872 165.906C144.292 165.688 144.76 165.58 145.232 165.592C145.689 165.581 146.143 165.68 146.554 165.881L146.588 165.906Z" fill="#131313"/>
<path fill-rule="evenodd" clip-rule="evenodd" d="M163.889 188.796L135.02 172.113C134.469 171.835 133.86 171.69 133.243 171.69C132.626 171.69 132.017 171.835 131.466 172.113L126.594 174.932C125.629 175.502 125.629 176.424 126.594 176.994L155.448 193.672C155.999 193.953 156.609 194.099 157.227 194.099C157.846 194.099 158.456 193.953 159.007 193.672L163.879 190.853C164.873 190.288 164.868 189.361 163.889 188.796Z" fill="white"/>
<path fill-rule="evenodd" clip-rule="evenodd" d="M164.307 188.068L135.444 171.38L135.386 171.351C134.711 171.013 133.966 170.84 133.212 170.845C132.458 170.85 131.715 171.033 131.045 171.38L126.178 174.199C125.802 174.405 125.487 174.709 125.267 175.077C125.11 175.344 125.027 175.647 125.025 175.956C125.027 176.268 125.11 176.574 125.267 176.844C125.491 177.207 125.805 177.507 126.178 177.713L155.046 194.391L155.104 194.425C155.78 194.759 156.525 194.93 157.279 194.925C158.033 194.919 158.775 194.736 159.445 194.391L164.312 191.572C164.688 191.367 165.003 191.066 165.224 190.698C165.382 190.431 165.465 190.126 165.465 189.815C165.465 189.504 165.382 189.199 165.224 188.932C164.999 188.566 164.683 188.265 164.307 188.058V188.068ZM134.6 172.828L163.468 189.511C163.587 189.571 163.689 189.659 163.767 189.767V189.81C163.77 189.826 163.77 189.843 163.767 189.859C163.689 189.965 163.586 190.051 163.468 190.11L158.601 192.929C158.182 193.148 157.714 193.256 157.241 193.242C156.784 193.253 156.33 193.154 155.919 192.953H155.886L127.017 176.275C126.9 176.212 126.8 176.123 126.723 176.014C126.721 175.999 126.721 175.985 126.723 175.97V175.927C126.801 175.819 126.904 175.731 127.022 175.671L131.884 172.828C132.303 172.628 132.761 172.524 133.225 172.524C133.689 172.524 134.147 172.628 134.566 172.828H134.6Z" fill="#131313"/>
<path fill-rule="evenodd" clip-rule="evenodd" d="M100.013 137.994L95.1556 135.175C94.6052 134.894 93.9961 134.747 93.3782 134.747C92.7603 134.747 92.1512 134.894 91.6008 135.175L86.7291 137.994C85.7644 138.559 85.7644 139.486 86.7291 140.05L91.6008 142.865C92.1522 143.145 92.762 143.292 93.3806 143.292C93.9992 143.292 94.6091 143.145 95.1605 142.865L100.027 140.046C100.992 139.486 100.992 138.554 100.013 137.994Z" fill="white"/>
<path fill-rule="evenodd" clip-rule="evenodd" d="M100.433 137.265L95.561 134.451L95.5031 134.422C94.8431 134.075 94.1069 133.899 93.3615 133.91C92.5945 133.902 91.8378 134.088 91.162 134.451L86.2903 137.27C85.9143 137.475 85.5997 137.777 85.3787 138.144C85.2179 138.41 85.1329 138.716 85.1329 139.027C85.1329 139.338 85.2179 139.644 85.3787 139.911C85.6045 140.275 85.9201 140.576 86.2952 140.784L91.1668 143.599L91.2247 143.632C91.8995 143.97 92.6447 144.144 93.3993 144.138C94.1539 144.132 94.8963 143.947 95.5658 143.599L100.437 140.779C100.811 140.575 101.124 140.275 101.344 139.911C101.503 139.642 101.587 139.335 101.585 139.022C101.584 138.711 101.499 138.406 101.339 138.139C101.117 137.773 100.803 137.472 100.428 137.265H100.433ZM94.7169 135.909L99.5885 138.723C99.7084 138.781 99.8113 138.869 99.8876 138.979C99.8904 138.993 99.8904 139.008 99.8876 139.022C99.8917 139.036 99.8917 139.052 99.8876 139.066C99.8121 139.174 99.711 139.262 99.5934 139.322L94.7217 142.141C94.3035 142.358 93.8373 142.466 93.3663 142.455C92.9089 142.465 92.4557 142.366 92.0447 142.165H92.0061L87.1344 139.346C87.0141 139.286 86.9112 139.196 86.8354 139.085C86.8321 139.072 86.8321 139.059 86.8354 139.046C86.8325 139.032 86.8325 139.017 86.8354 139.003C86.9116 138.894 87.0146 138.806 87.1344 138.747L92.0013 135.928C92.4211 135.71 92.8889 135.603 93.3615 135.614C93.8189 135.603 94.2721 135.703 94.6831 135.904L94.7169 135.909Z" fill="#131313"/>
<path fill-rule="evenodd" clip-rule="evenodd" d="M88.0252 144.931L83.1487 142.117C82.5975 141.838 81.9887 141.693 81.3712 141.693C80.7538 141.693 80.145 141.838 79.5938 142.117L74.7222 144.936C73.7575 145.505 73.7575 146.428 74.7222 146.997L79.5986 149.811C80.1499 150.09 80.7587 150.235 81.3761 150.235C81.9935 150.235 82.6023 150.09 83.1535 149.811L88.0252 146.992C89.0043 146.423 89.0043 145.501 88.0252 144.931Z" fill="white"/>
<path fill-rule="evenodd" clip-rule="evenodd" d="M88.4456 144.207L83.5739 141.388C82.8933 141.036 82.1383 140.852 81.3721 140.852C80.6059 140.852 79.8508 141.036 79.1702 141.388L74.3034 144.207C73.9285 144.413 73.6142 144.715 73.3917 145.081C73.231 145.348 73.146 145.654 73.146 145.966C73.146 146.279 73.231 146.585 73.3917 146.852C73.6142 147.218 73.9285 147.519 74.3034 147.726L79.175 150.54L79.2329 150.569C79.9077 150.907 80.6526 151.08 81.4069 151.075C82.1612 151.07 82.9037 150.887 83.5739 150.54L88.4456 147.726C88.8205 147.519 89.1348 147.218 89.3572 146.852C89.5155 146.585 89.5988 146.28 89.5984 145.969C89.5971 145.657 89.514 145.35 89.3572 145.081C89.1345 144.716 88.8202 144.417 88.4456 144.212V144.207ZM82.7299 142.846L87.6015 145.66C87.7208 145.721 87.8234 145.811 87.9006 145.921C87.9047 145.935 87.9047 145.95 87.9006 145.964C87.9032 145.978 87.9032 145.993 87.9006 146.007C87.825 146.116 87.724 146.204 87.6063 146.263L82.7347 149.082C82.3168 149.283 81.8594 149.386 81.3962 149.386C80.9329 149.386 80.4756 149.283 80.0577 149.082H80.0191L75.1475 146.268C75.0282 146.207 74.9256 146.117 74.8484 146.007C74.8443 145.993 74.8443 145.978 74.8484 145.964C74.8451 145.951 74.8451 145.938 74.8484 145.925C74.9242 145.814 75.0272 145.725 75.1475 145.665L80.0143 142.846C80.4372 142.639 80.9015 142.532 81.3721 142.532C81.8426 142.532 82.307 142.639 82.7299 142.846Z" fill="#131313"/>
<path fill-rule="evenodd" clip-rule="evenodd" d="M103.571 135.933L98.6998 133.119C97.7351 132.549 97.7351 131.627 98.6998 131.057L103.567 128.238C104.119 127.96 104.728 127.815 105.346 127.815C105.965 127.815 106.574 127.96 107.126 128.238L111.998 131.052C112.963 131.622 112.963 132.544 111.998 133.114L107.131 135.933C106.579 136.211 105.969 136.356 105.351 136.356C104.733 136.356 104.124 136.211 103.571 135.933Z" fill="white"/>
<path fill-rule="evenodd" clip-rule="evenodd" d="M103.997 135.204L99.121 132.39C99.0026 132.327 98.9003 132.238 98.8219 132.129C98.8184 132.115 98.8184 132.1 98.8219 132.086V132.047C98.9003 131.938 99.0026 131.849 99.121 131.786L103.993 128.967C104.415 128.761 104.878 128.654 105.348 128.654C105.818 128.654 106.281 128.761 106.703 128.967L111.556 131.796H111.599C111.702 131.853 111.79 131.934 111.855 132.033C111.861 132.038 111.866 132.045 111.869 132.052C111.873 132.06 111.874 132.068 111.874 132.076C111.874 132.084 111.873 132.092 111.869 132.1C111.866 132.107 111.861 132.114 111.855 132.119C111.779 132.228 111.678 132.315 111.561 132.375L106.689 135.194C106.266 135.398 105.803 135.503 105.334 135.503C104.864 135.503 104.401 135.398 103.978 135.194L103.997 135.204ZM98.2769 133.843L103.153 136.662C103.832 137.017 104.587 137.203 105.353 137.203C106.119 137.203 106.874 137.017 107.552 136.662L112.424 133.843C112.798 133.634 113.111 133.331 113.331 132.964C113.491 132.7 113.575 132.395 113.572 132.086C113.573 131.773 113.49 131.466 113.331 131.197C113.121 130.846 112.826 130.554 112.472 130.348L112.419 130.314L107.547 127.5C106.869 127.148 106.115 126.964 105.35 126.964C104.586 126.964 103.832 127.148 103.153 127.5L98.2817 130.319C97.9068 130.525 97.5925 130.827 97.3701 131.193C97.2139 131.461 97.1308 131.766 97.1289 132.076C97.1307 132.389 97.2156 132.695 97.3749 132.964C97.5936 133.331 97.9046 133.634 98.2769 133.843Z" fill="#131313"/>
<path fill-rule="evenodd" clip-rule="evenodd" d="M112.003 144.931L107.132 142.112C106.58 141.832 105.97 141.687 105.352 141.687C104.733 141.687 104.124 141.832 103.572 142.112L98.7003 144.926C97.7356 145.496 97.7356 146.418 98.7003 146.987L103.572 149.802C104.124 150.08 104.734 150.225 105.352 150.225C105.97 150.225 106.58 150.08 107.132 149.802L111.998 146.983C113.002 146.423 113.002 145.496 112.003 144.931Z" fill="white"/>
<path fill-rule="evenodd" clip-rule="evenodd" d="M112.422 144.202L107.551 141.383L107.493 141.354C106.818 141.015 106.073 140.841 105.318 140.847C104.563 140.853 103.821 141.038 103.152 141.388L98.28 144.207C97.9054 144.412 97.5911 144.711 97.3684 145.076C97.2116 145.345 97.1285 145.652 97.1272 145.964C97.1299 146.275 97.2147 146.58 97.3732 146.847C97.5956 147.213 97.9099 147.514 98.2848 147.721H98.3331L103.156 150.511C103.836 150.863 104.591 151.047 105.356 151.047C106.121 151.047 106.876 150.863 107.555 150.511L112.427 147.726C112.799 147.519 113.112 147.22 113.334 146.857C113.492 146.588 113.575 146.281 113.575 145.969C113.575 145.656 113.492 145.35 113.334 145.081C113.111 144.716 112.797 144.416 112.422 144.212V144.202ZM106.707 142.841L111.554 145.66C111.674 145.718 111.777 145.806 111.853 145.916C111.856 145.93 111.856 145.945 111.853 145.959C111.856 145.973 111.856 145.988 111.853 146.003C111.778 146.111 111.677 146.199 111.559 146.258L106.731 149.077C106.308 149.284 105.843 149.391 105.373 149.391C104.902 149.391 104.438 149.284 104.015 149.077L99.1916 146.292L99.1482 146.263C99.0289 146.202 98.9262 146.112 98.8492 146.003C98.8459 145.99 98.8459 145.977 98.8492 145.964C98.847 145.949 98.847 145.935 98.8492 145.92C98.9268 145.812 99.0294 145.724 99.1482 145.665L104.02 142.845C104.437 142.625 104.904 142.517 105.375 142.532C105.833 142.521 106.286 142.62 106.697 142.821L106.707 142.841Z" fill="#131313"/>
<path fill-rule="evenodd" clip-rule="evenodd" d="M100.016 151.868L95.1539 149.053C94.6027 148.775 93.9939 148.63 93.3765 148.63C92.7591 148.63 92.1503 148.775 91.599 149.053L86.7274 151.873C85.7627 152.442 85.7627 153.364 86.7274 153.929L91.599 156.748C92.1511 157.027 92.7607 157.172 93.3789 157.172C93.9971 157.172 94.6067 157.027 95.1587 156.748L100.026 153.929C100.995 153.359 100.995 152.437 100.016 151.868Z" fill="white"/>
<path fill-rule="evenodd" clip-rule="evenodd" d="M100.437 151.139L95.5658 148.325C94.8852 147.972 94.1301 147.789 93.3639 147.789C92.5977 147.789 91.8427 147.972 91.162 148.325L86.2952 151.144C85.9186 151.35 85.6039 151.653 85.3836 152.022C85.2244 152.288 85.1395 152.591 85.1376 152.901C85.1389 153.213 85.222 153.519 85.3788 153.789C85.6015 154.153 85.9158 154.453 86.2904 154.658L91.162 157.477C91.8427 157.829 92.5977 158.013 93.3639 158.013C94.1301 158.013 94.8852 157.829 95.5658 157.477L100.433 154.658C100.808 154.45 101.122 154.147 101.344 153.779C101.503 153.512 101.586 153.207 101.585 152.896C101.584 152.585 101.5 152.281 101.344 152.013C101.122 151.647 100.808 151.345 100.433 151.139H100.437ZM94.7217 149.782L99.5934 152.597C99.7137 152.657 99.8166 152.746 99.8924 152.857C99.8953 152.87 99.8953 152.883 99.8924 152.896C99.8967 152.912 99.8967 152.928 99.8924 152.944C99.8155 153.051 99.7148 153.139 99.5982 153.2L94.7265 156.019C94.3036 156.226 93.8393 156.333 93.3688 156.333C92.8982 156.333 92.4339 156.226 92.011 156.019L87.1393 153.2C87.0206 153.142 86.9192 153.054 86.8451 152.944C86.841 152.93 86.841 152.915 86.8451 152.901C86.8416 152.886 86.8416 152.872 86.8451 152.857C86.9229 152.749 87.0254 152.662 87.1442 152.601L92.011 149.782C92.4339 149.576 92.8982 149.469 93.3688 149.469C93.8393 149.469 94.3036 149.576 94.7265 149.782H94.7217Z" fill="#131313"/>
<path fill-rule="evenodd" clip-rule="evenodd" d="M127.558 149.802L122.686 146.983C121.722 146.418 121.722 145.496 122.686 144.926L127.553 142.107C128.105 141.829 128.715 141.684 129.333 141.684C129.951 141.684 130.561 141.829 131.113 142.107L135.984 144.921C136.949 145.491 136.949 146.413 135.984 146.983L131.113 149.802C130.561 150.079 129.953 150.224 129.335 150.224C128.718 150.224 128.109 150.079 127.558 149.802Z" fill="white"/>
<path fill-rule="evenodd" clip-rule="evenodd" d="M127.955 149.048L123.131 146.258C123.013 146.198 122.91 146.111 122.832 146.002C122.83 145.988 122.83 145.973 122.832 145.959C122.829 145.946 122.829 145.933 122.832 145.92C122.909 145.81 123.012 145.721 123.131 145.66L127.955 142.836C128.378 142.632 128.841 142.527 129.31 142.527C129.779 142.527 130.243 142.632 130.666 142.836H130.714L135.537 145.626C135.656 145.689 135.758 145.778 135.836 145.887C135.839 145.901 135.839 145.916 135.836 145.93C135.84 145.943 135.84 145.956 135.836 145.969C135.759 146.079 135.657 146.168 135.537 146.229L130.67 149.048C130.247 149.252 129.783 149.357 129.313 149.357C128.843 149.357 128.379 149.252 127.955 149.048H127.907H127.955ZM122.268 147.726L127.091 150.516L127.135 150.545C127.814 150.9 128.568 151.086 129.334 151.086C130.1 151.086 130.855 150.9 131.534 150.545L136.41 147.726C136.785 147.519 137.099 147.218 137.322 146.852C137.481 146.585 137.566 146.28 137.568 145.969C137.567 145.657 137.483 145.35 137.327 145.08C137.104 144.715 136.787 144.415 136.41 144.212L131.587 141.421L131.543 141.392C130.865 141.037 130.11 140.852 129.344 140.852C128.578 140.852 127.823 141.037 127.145 141.392L122.273 144.212C121.898 144.418 121.584 144.719 121.361 145.085C121.206 145.354 121.123 145.658 121.12 145.969C121.121 146.281 121.204 146.587 121.361 146.857C121.584 147.221 121.898 147.521 122.273 147.726H122.268Z" fill="#131313"/>
<path fill-rule="evenodd" clip-rule="evenodd" d="M115.562 142.87L110.69 140.05C109.726 139.486 109.726 138.559 110.69 137.994L115.557 135.175C116.108 134.895 116.717 134.75 117.335 134.75C117.952 134.75 118.561 134.895 119.112 135.175L123.989 137.989C124.953 138.559 124.953 139.481 123.989 140.05L119.122 142.87C118.57 143.148 117.96 143.293 117.342 143.293C116.724 143.293 116.114 143.148 115.562 142.87Z" fill="white"/>
<path fill-rule="evenodd" clip-rule="evenodd" d="M115.987 142.141L111.111 139.321H111.072C110.969 139.263 110.88 139.182 110.812 139.085C110.812 139.085 110.812 139.051 110.812 139.041C110.81 139.027 110.81 139.012 110.812 138.998C110.89 138.89 110.992 138.802 111.111 138.742L115.983 135.923C116.405 135.717 116.868 135.609 117.338 135.609C117.808 135.609 118.271 135.717 118.693 135.923L123.565 138.737C123.685 138.797 123.788 138.887 123.864 138.998C123.867 139.011 123.867 139.024 123.864 139.037C123.867 139.051 123.867 139.066 123.864 139.08C123.787 139.188 123.684 139.276 123.565 139.336L118.693 142.155C118.276 142.374 117.809 142.482 117.338 142.469C116.867 142.482 116.401 142.376 115.983 142.16L115.987 142.141ZM110.267 140.779L115.143 143.598C115.819 143.962 116.576 144.147 117.343 144.134C118.11 144.147 118.868 143.961 119.542 143.594L124.414 140.774C124.789 140.572 125.103 140.272 125.321 139.906C125.482 139.639 125.567 139.334 125.567 139.022C125.567 138.711 125.482 138.405 125.321 138.139C125.1 137.772 124.785 137.47 124.409 137.265L119.538 134.451C118.858 134.099 118.103 133.915 117.338 133.915C116.573 133.915 115.818 134.099 115.139 134.451L110.267 137.27C109.89 137.476 109.576 137.78 109.355 138.148C109.199 138.415 109.116 138.718 109.114 139.027C109.115 139.339 109.199 139.645 109.355 139.915C109.569 140.263 109.865 140.552 110.219 140.755L110.267 140.779Z" fill="#131313"/>
<path fill-rule="evenodd" clip-rule="evenodd" d="M123.995 151.868L119.123 149.049C118.571 148.77 117.961 148.625 117.343 148.625C116.725 148.625 116.115 148.77 115.563 149.049L110.696 151.868C109.732 152.437 109.732 153.359 110.696 153.929L115.568 156.743C116.12 157.022 116.73 157.167 117.348 157.167C117.966 157.167 118.576 157.022 119.128 156.743L123.995 153.924C124.974 153.355 124.974 152.433 123.995 151.868Z" fill="white"/>
<path fill-rule="evenodd" clip-rule="evenodd" d="M124.414 151.139L119.542 148.32C118.862 147.967 118.108 147.784 117.343 147.784C116.577 147.784 115.823 147.967 115.143 148.32L110.272 151.139C109.897 151.345 109.584 151.646 109.365 152.012C109.205 152.28 109.12 152.585 109.119 152.896C109.121 153.209 109.205 153.515 109.365 153.784C109.585 154.152 109.9 154.454 110.276 154.658H110.32L115.143 157.448C115.822 157.803 116.577 157.989 117.343 157.989C118.109 157.989 118.863 157.803 119.542 157.448L124.414 154.629C124.788 154.423 125.101 154.122 125.321 153.755C125.335 153.736 125.346 153.715 125.354 153.692C125.499 153.43 125.572 153.133 125.566 152.833C125.56 152.533 125.476 152.24 125.321 151.984C125.099 151.618 124.784 151.318 124.409 151.115L124.414 151.139ZM118.698 149.777L123.57 152.592C123.688 152.653 123.789 152.743 123.864 152.852C123.868 152.867 123.868 152.882 123.864 152.896C123.786 153.004 123.684 153.092 123.565 153.152L118.693 155.971C118.27 156.174 117.807 156.28 117.338 156.28C116.869 156.28 116.405 156.174 115.982 155.971L111.159 153.181H111.111C110.991 153.119 110.889 153.03 110.812 152.92C110.808 152.906 110.808 152.891 110.812 152.877C110.81 152.864 110.81 152.851 110.812 152.838C110.889 152.728 110.991 152.639 111.111 152.577L115.982 149.758C116.405 149.552 116.868 149.444 117.338 149.444C117.808 149.444 118.271 149.552 118.693 149.758L118.698 149.777Z" fill="#131313"/>
<path fill-rule="evenodd" clip-rule="evenodd" d="M112.009 158.829L107.138 156.014C106.586 155.735 105.976 155.589 105.358 155.589C104.739 155.589 104.13 155.735 103.578 156.014L98.7062 158.833C97.7415 159.398 97.7415 160.325 98.7062 160.89L103.578 163.709C104.13 163.987 104.74 164.132 105.358 164.132C105.976 164.132 106.586 163.987 107.138 163.709L112.004 160.89C113.003 160.277 113.003 159.374 112.009 158.829Z" fill="white"/>
<path fill-rule="evenodd" clip-rule="evenodd" d="M112.426 158.076L107.554 155.261L107.496 155.232C106.822 154.894 106.077 154.721 105.322 154.726C104.568 154.731 103.825 154.914 103.155 155.261L98.2836 158.08C97.9087 158.287 97.5944 158.588 97.3719 158.954C97.2122 159.221 97.1272 159.526 97.126 159.837C97.1278 160.15 97.2127 160.457 97.3719 160.726C97.5961 161.089 97.9101 161.388 98.2836 161.595L103.16 164.414C103.835 164.778 104.593 164.962 105.36 164.95C106.127 164.963 106.885 164.776 107.559 164.409L112.431 161.59C112.806 161.388 113.119 161.087 113.337 160.721C113.496 160.453 113.579 160.148 113.579 159.837C113.577 159.525 113.492 159.218 113.333 158.949C113.11 158.583 112.796 158.282 112.421 158.076H112.426ZM106.729 156.719L111.601 159.533C111.721 159.593 111.824 159.683 111.9 159.794C111.904 159.808 111.904 159.823 111.9 159.837C111.903 159.85 111.903 159.863 111.9 159.876C111.825 159.986 111.724 160.076 111.606 160.137L106.734 162.956C106.31 163.159 105.846 163.265 105.376 163.265C104.906 163.265 104.442 163.159 104.019 162.956L99.147 160.137C99.0281 160.077 98.9255 159.989 98.8479 159.881C98.8385 159.868 98.8335 159.853 98.8335 159.837C98.8335 159.822 98.8385 159.807 98.8479 159.794C98.9255 159.686 99.0281 159.598 99.147 159.538L104.019 156.719C104.436 156.501 104.903 156.393 105.374 156.405C105.831 156.394 106.285 156.494 106.696 156.695L106.729 156.719Z" fill="#131313"/>
<path fill-rule="evenodd" clip-rule="evenodd" d="M145.381 234.134V228.235L145.468 228.24L146.018 228.245L146.568 228.24L147.118 228.216L147.663 228.177L148.203 228.124L148.743 228.057L149.278 227.975L149.804 227.873L150.325 227.762L150.836 227.632L151.343 227.492L151.835 227.333L152.312 227.159L152.785 226.971L153.238 226.768L153.677 226.546L154.102 226.314L221.022 187.575L221.422 187.329L221.803 187.073L222.155 186.808L222.479 186.537L222.778 186.257L223.053 185.977L223.299 185.683L223.521 185.388L223.713 185.089L223.882 184.78L224.027 184.471L224.143 184.162L224.234 183.848V189.747L224.143 190.061L224.027 190.37L223.882 190.679L223.713 190.983L223.521 191.287L223.299 191.582L223.053 191.871L222.778 192.156L222.479 192.436L222.155 192.707L221.803 192.972L221.422 193.223L221.022 193.469L154.102 232.213L153.677 232.445L153.238 232.662L152.785 232.87L152.312 233.058L151.835 233.232L151.343 233.386L150.836 233.531L150.325 233.661L149.804 233.772L149.278 233.869L148.743 233.956L148.203 234.023L147.663 234.076L147.118 234.115L146.568 234.134L146.018 234.144L145.468 234.134H145.381Z" fill="white"/>
<path fill-rule="evenodd" clip-rule="evenodd" d="M146.225 233.299V229.085C146.543 229.085 146.857 229.085 147.19 229.056L147.74 229.017H147.812L148.328 228.969L148.864 228.906H148.96C149.312 228.853 149.655 228.795 150.002 228.728L150.523 228.617L151.063 228.482L151.589 228.332L151.656 228.308L152.11 228.163H152.177L152.66 227.989L153.142 227.801C153.475 227.651 153.774 227.511 154.107 227.352C154.139 227.337 154.169 227.319 154.198 227.299L154.579 227.086C176.859 214.183 200.001 201.458 221.914 188.092L222.358 187.792L222.71 187.532L222.778 187.474L223.072 187.227L223.125 187.179L223.405 186.919L223.443 186.88V189.675L223.395 189.849L223.308 190.071L223.178 190.356L223.053 190.582L222.869 190.867L222.686 191.113L222.498 191.336L222.247 191.596L221.982 191.842L221.697 192.079L221.34 192.349L221.036 192.552L220.651 192.789L153.75 231.518L153.33 231.75C153.055 231.885 152.799 232.005 152.52 232.131L152.086 232.305L151.57 232.488L151.169 232.619L150.687 232.759L150.204 232.879L149.655 233L148.69 233.164L148.15 233.232H148.106L147.653 233.275L147.079 233.314H146.273L146.225 233.299ZM144.542 228.235V234.134C144.541 234.351 144.624 234.56 144.773 234.717C144.922 234.874 145.126 234.968 145.342 234.979H145.424C145.815 234.979 146.206 234.979 146.601 234.979H147.084H147.161L147.706 234.941L148.188 234.892H148.275L148.81 234.825L149.394 234.733L149.876 234.646H149.958C150.504 234.525 151.005 234.4 151.545 234.245L152.028 234.096H152.11L152.592 233.922L153.074 233.724L153.591 233.492L154.073 233.256C176.328 220.965 200.161 207.241 221.852 194.015L222.213 193.773L222.295 193.72L222.647 193.455L223.009 193.155L223.342 192.846L223.646 192.528L223.68 192.489L223.902 192.233L223.959 192.161L224.152 191.905L224.22 191.813L224.413 191.509L224.442 191.466L224.586 191.2C224.607 191.17 224.625 191.138 224.64 191.104L224.779 190.795V190.737L224.881 190.467C224.895 190.436 224.906 190.403 224.914 190.37L224.992 190.114C225.026 190.02 225.044 189.92 225.045 189.82V183.921C225.044 183.738 224.984 183.561 224.875 183.415C224.765 183.269 224.612 183.162 224.437 183.11C224.331 183.079 224.22 183.069 224.11 183.081C224 183.093 223.894 183.127 223.797 183.18C223.7 183.234 223.615 183.306 223.546 183.392C223.477 183.479 223.426 183.578 223.395 183.684L223.308 183.984L223.221 184.201L223.101 184.471L222.951 184.741L222.792 184.988L222.623 185.215L222.387 185.485L222.16 185.726L221.895 185.972L221.61 186.214L221.263 186.47L220.95 186.682L220.564 186.919L153.648 225.658L153.291 225.856L152.809 226.082L152.409 226.261L151.926 226.449C151.318 226.669 150.698 226.856 150.069 227.009L149.548 227.125L149.066 227.217L148.622 227.289H148.579L148.039 227.357C147.687 227.391 147.349 227.42 146.997 227.444H146.471H145.955C145.777 227.444 145.598 227.444 145.424 227.444H145.323C145.119 227.459 144.928 227.547 144.784 227.693C144.64 227.838 144.554 228.031 144.542 228.235Z" fill="#131313"/>
<path fill-rule="evenodd" clip-rule="evenodd" d="M193.991 90.8315L146.365 63.3111V53.3669L193.991 80.8825V90.8315Z" fill="white"/>
<path fill-rule="evenodd" clip-rule="evenodd" d="M193.147 89.3735L147.208 62.8235V54.8246L193.147 81.3747V89.3784V89.3735ZM145.945 64.0399L193.504 91.5168C193.643 91.6206 193.812 91.6765 193.986 91.6762C194.21 91.6762 194.425 91.5871 194.583 91.4287C194.741 91.2703 194.83 91.0554 194.83 90.8314V80.8823C194.828 80.7346 194.788 80.5898 194.713 80.4621C194.639 80.3345 194.533 80.2281 194.406 80.1534L146.832 52.6669C146.705 52.581 146.557 52.5313 146.404 52.5232C146.251 52.515 146.099 52.5487 145.964 52.6207C145.828 52.6926 145.715 52.8001 145.636 52.9315C145.557 53.063 145.515 53.2135 145.515 53.3668V63.311C145.516 63.4597 145.556 63.6055 145.632 63.7335C145.707 63.8616 145.815 63.9673 145.945 64.0399Z" fill="#131313"/>
<path fill-rule="evenodd" clip-rule="evenodd" d="M146.366 63.3111L131.63 54.7957V44.8516L146.366 53.3669V63.3111Z" fill="white"/>
<path fill-rule="evenodd" clip-rule="evenodd" d="M145.52 61.8532L132.497 54.313V46.3093L145.52 53.8496V61.8532ZM131.204 55.5246L145.892 64.011C146.019 64.0969 146.167 64.1466 146.32 64.1547C146.473 64.1628 146.625 64.1291 146.76 64.0572C146.896 63.9852 147.009 63.8778 147.088 63.7463C147.167 63.6149 147.209 63.4644 147.208 63.311V53.3669C147.208 53.2151 147.167 53.0663 147.088 52.9362C147.01 52.8062 146.898 52.6998 146.765 52.6283L132.097 44.1564C131.957 44.0526 131.788 43.9967 131.614 43.9971C131.391 43.9971 131.176 44.0861 131.018 44.2445C130.859 44.4029 130.77 44.6178 130.77 44.8418V54.786C130.77 54.9368 130.81 55.085 130.886 55.2149C130.963 55.3449 131.072 55.4518 131.204 55.5246Z" fill="#131313"/>
<path fill-rule="evenodd" clip-rule="evenodd" d="M189.072 83.6678C189.261 83.7488 189.473 83.7578 189.668 83.6931C189.864 83.6285 190.029 83.4946 190.133 83.3167C190.236 83.1389 190.271 82.9292 190.232 82.7272C190.192 82.5251 190.079 82.3446 189.916 82.2197L175.865 74.1002C175.671 73.9895 175.441 73.9599 175.225 74.0177C175.009 74.0755 174.825 74.2162 174.712 74.4091C174.657 74.5048 174.621 74.6105 174.607 74.72C174.592 74.8296 174.6 74.9409 174.628 75.0477C174.657 75.1544 174.706 75.2544 174.774 75.342C174.841 75.4296 174.925 75.503 175.021 75.558L189.072 83.6678Z" fill="#131313"/>
<path fill-rule="evenodd" clip-rule="evenodd" d="M151.304 109.412C151.493 109.493 151.706 109.502 151.901 109.437C152.097 109.372 152.262 109.238 152.365 109.061C152.469 108.883 152.504 108.673 152.464 108.471C152.424 108.269 152.312 108.088 152.148 107.963L132.025 96.3345C131.93 96.2618 131.82 96.2102 131.704 96.1831C131.587 96.156 131.466 96.1539 131.349 96.1772C131.232 96.2004 131.121 96.2484 131.023 96.3179C130.926 96.3874 130.844 96.4768 130.784 96.5802C130.723 96.6837 130.686 96.7988 130.673 96.9179C130.661 97.037 130.674 97.1574 130.711 97.2711C130.749 97.3848 130.81 97.4892 130.891 97.5774C130.972 97.6656 131.071 97.7356 131.181 97.7827L151.304 109.412Z" fill="#131313"/>
<path fill-rule="evenodd" clip-rule="evenodd" d="M151.304 103.315C151.493 103.396 151.706 103.405 151.901 103.34C152.097 103.275 152.262 103.142 152.365 102.964C152.469 102.786 152.504 102.576 152.464 102.374C152.424 102.172 152.312 101.992 152.148 101.867L132.208 90.3439C132.019 90.2629 131.807 90.2539 131.612 90.3186C131.416 90.3832 131.251 90.5171 131.147 90.695C131.044 90.8729 131.009 91.0826 131.049 91.2846C131.088 91.4866 131.201 91.6671 131.364 91.7921L151.304 103.315Z" fill="#131313"/>
<path fill-rule="evenodd" clip-rule="evenodd" d="M193.553 147.084C193.648 147.15 193.756 147.196 193.87 147.219C193.984 147.241 194.101 147.24 194.214 147.215C194.328 147.19 194.435 147.141 194.528 147.073C194.622 147.004 194.7 146.917 194.759 146.816C194.817 146.716 194.854 146.604 194.867 146.489C194.88 146.373 194.868 146.256 194.834 146.146C194.8 146.035 194.743 145.932 194.667 145.844C194.59 145.757 194.497 145.686 194.392 145.636L132.05 109.59C131.86 109.51 131.648 109.501 131.453 109.565C131.257 109.63 131.092 109.764 130.989 109.942C130.885 110.119 130.85 110.329 130.89 110.531C130.93 110.733 131.042 110.914 131.205 111.039L193.553 147.084Z" fill="#131313"/>
<path fill-rule="evenodd" clip-rule="evenodd" d="M178.565 90.595C175.897 89.0551 173.356 88.3261 171.084 88.3261C169.484 88.2926 167.906 88.6982 166.521 89.499C165.136 90.2999 163.996 91.4652 163.226 92.8686C162.093 94.8381 161.451 97.4111 161.451 100.496C161.451 105.704 163.27 111.458 166.212 116.551C169.154 121.644 173.23 126.104 177.735 128.711C180.422 130.261 182.973 130.995 185.245 130.995C186.836 131.03 188.407 130.628 189.786 129.834C191.165 129.039 192.301 127.881 193.069 126.486C194.212 124.507 194.854 121.929 194.854 118.835C194.854 113.626 193.03 107.862 190.088 102.765C187.146 97.6669 183.08 93.221 178.565 90.6143V90.595ZM171.084 90.006C173.066 90.006 175.324 90.6625 177.73 92.0528C181.98 94.5051 185.834 98.7386 188.631 103.59C191.429 108.441 193.17 113.911 193.17 118.815C193.17 121.61 192.611 123.908 191.622 125.627C191.002 126.769 190.078 127.717 188.952 128.367C187.827 129.016 186.544 129.341 185.245 129.305C183.253 129.305 180.991 128.644 178.574 127.253C174.33 124.801 170.471 120.568 167.669 115.711C164.866 110.855 163.14 105.41 163.14 100.496C163.14 97.7152 163.699 95.4271 164.688 93.7086C165.312 92.5626 166.24 91.6109 167.369 90.9578C168.498 90.3047 169.785 89.9754 171.089 90.006H171.084Z" fill="#131313"/>
<path fill-rule="evenodd" clip-rule="evenodd" d="M178.147 91.3239C169.407 86.2746 162.293 90.3923 162.297 100.496C162.301 101.733 162.4 102.967 162.592 104.189L162.804 105.27L178.186 109.615L182.527 94.5921V94.539C181.186 93.3142 179.717 92.2364 178.147 91.3239Z" fill="#2B7CFF" fill-opacity="0.63"/>
<path fill-rule="evenodd" clip-rule="evenodd" d="M178.567 90.595C175.9 89.0551 173.358 88.3261 171.086 88.3261C169.486 88.2926 167.908 88.6982 166.523 89.499C165.138 90.2999 163.999 91.4652 163.229 92.8686C162.095 94.8382 161.453 97.4111 161.453 100.496C161.453 101.109 161.453 101.732 161.531 102.374C161.608 103.016 161.656 103.667 161.757 104.304C161.854 104.845 161.97 105.391 162.076 105.931L178.765 110.628C180.302 105.276 181.839 99.9261 183.376 94.5775L183.236 94.0561L183.048 93.892C182.324 93.2355 181.601 92.6272 180.844 92.0769C180.112 91.5386 179.352 91.0407 178.567 90.5853V90.595ZM171.086 90.006C173.068 90.006 175.326 90.6625 177.733 92.0528C178.461 92.4777 179.167 92.9418 179.845 93.4431C180.434 93.8775 181.004 94.3361 181.558 94.8189L177.612 108.562L163.528 104.599L163.421 104.053C163.33 103.44 163.257 102.837 163.209 102.238C163.161 101.64 163.142 101.075 163.142 100.496C163.142 97.7152 163.696 95.4271 164.69 93.7086C165.314 92.5626 166.242 91.6109 167.371 90.9578C168.5 90.3047 169.787 89.9754 171.091 90.006H171.086Z" fill="#131313"/>
<path fill-rule="evenodd" clip-rule="evenodd" d="M182.502 94.5774C188.811 100.288 193.369 109.276 193.948 117.217C194.686 127.62 188.382 132.752 179.777 128.837C179.295 122.518 178.624 115.933 178.185 109.6C179.536 104.526 181.118 99.6702 182.502 94.5774Z" fill="#2B7CFF"/>
<path fill-rule="evenodd" clip-rule="evenodd" d="M182.941 96.1512C185.65 98.8767 187.908 102.017 189.631 105.453C191.545 109.131 192.726 113.146 193.108 117.275C193.321 120.297 192.92 122.836 192.033 124.796C191.484 126.062 190.616 127.163 189.515 127.992C188.435 128.762 187.159 129.211 185.835 129.286C184.025 129.363 182.223 129.014 180.572 128.267C180.36 125.516 180.124 122.798 179.883 120.061C179.574 116.546 179.265 113.018 179.034 109.668C179.728 107.061 180.481 104.502 181.248 101.944C181.822 100.013 182.4 98.0821 182.936 96.1512H182.941ZM191.14 104.695C189.123 100.657 186.39 97.018 183.076 93.9548L182.058 93.0376L181.696 94.3554C181.021 96.8367 180.336 99.1586 179.646 101.476C178.87 104.097 178.093 106.708 177.384 109.383L177.345 109.518V109.653C177.591 113.201 177.9 116.715 178.209 120.215C178.465 123.165 178.725 126.109 178.937 128.904L178.971 129.387L179.453 129.595C181.483 130.586 183.728 131.054 185.984 130.956C187.617 130.858 189.188 130.301 190.518 129.348C191.862 128.352 192.921 127.02 193.591 125.487C194.594 123.28 195.038 120.461 194.811 117.15C194.407 112.799 193.16 108.569 191.14 104.695Z" fill="#131313"/>
<path fill-rule="evenodd" clip-rule="evenodd" d="M162.626 117.753C162.816 117.844 163.034 117.859 163.235 117.796C163.436 117.734 163.606 117.598 163.712 117.416C163.817 117.233 163.851 117.018 163.805 116.812C163.759 116.607 163.638 116.425 163.465 116.305L160.542 114.615C160.348 114.505 160.119 114.477 159.904 114.535C159.689 114.594 159.506 114.736 159.394 114.929C159.339 115.025 159.304 115.13 159.29 115.24C159.276 115.349 159.284 115.46 159.313 115.567C159.342 115.673 159.392 115.773 159.46 115.86C159.528 115.947 159.612 116.019 159.708 116.073L162.626 117.753Z" fill="#131313"/>
<path fill-rule="evenodd" clip-rule="evenodd" d="M161.977 88.4083C162.168 88.4986 162.385 88.5141 162.586 88.4515C162.787 88.389 162.957 88.2531 163.063 88.0708C163.169 87.8885 163.202 87.6731 163.156 87.4674C163.111 87.2617 162.989 87.0806 162.817 86.9602L159.382 84.9761C159.193 84.8903 158.978 84.8782 158.779 84.9421C158.581 85.006 158.414 85.1414 158.31 85.3219C158.206 85.5025 158.172 85.7154 158.217 85.9191C158.261 86.1229 158.379 86.3029 158.548 86.4243L161.977 88.4083Z" fill="#131313"/>
<path fill-rule="evenodd" clip-rule="evenodd" d="M200.542 125.569C200.732 125.659 200.949 125.674 201.15 125.612C201.351 125.549 201.522 125.414 201.627 125.231C201.733 125.049 201.766 124.834 201.721 124.628C201.675 124.422 201.554 124.241 201.381 124.121L198.082 122.19C197.891 122.099 197.674 122.084 197.473 122.146C197.272 122.209 197.102 122.345 196.996 122.527C196.89 122.709 196.857 122.925 196.903 123.131C196.948 123.336 197.07 123.517 197.242 123.638L200.542 125.569Z" fill="#131313"/>
<path fill-rule="evenodd" clip-rule="evenodd" d="M174.963 104.01C175.322 103.811 175.734 103.732 176.14 103.783C176.717 103.857 177.271 104.053 177.766 104.358C178.431 104.753 179.036 105.241 179.565 105.806C180.157 106.436 180.671 107.136 181.094 107.891C181.537 108.635 181.887 109.431 182.136 110.261C182.365 111.003 182.487 111.773 182.498 112.55C182.513 113.14 182.404 113.727 182.179 114.273C182.03 114.637 181.765 114.942 181.427 115.142L181.378 115.166C181.037 115.361 180.64 115.439 180.25 115.388C179.664 115.311 179.1 115.112 178.595 114.804C177.936 114.409 177.337 113.921 176.816 113.356C176.218 112.714 175.695 112.006 175.258 111.246C174.816 110.502 174.467 109.706 174.221 108.876C173.989 108.137 173.865 107.367 173.854 106.593C173.838 106.002 173.948 105.414 174.177 104.869C174.325 104.503 174.589 104.196 174.93 103.996H174.954L174.963 104.01ZM176.299 102.108C175.544 102.022 174.781 102.177 174.119 102.552C173.472 102.928 172.965 103.504 172.672 104.193C172.342 104.955 172.178 105.777 172.19 106.607C172.198 107.545 172.343 108.477 172.619 109.373C172.907 110.335 173.312 111.257 173.825 112.12C174.326 112.99 174.925 113.8 175.61 114.534C176.244 115.214 176.971 115.801 177.771 116.276C178.484 116.704 179.279 116.977 180.105 117.078C180.852 117.159 181.606 117 182.257 116.623C182.908 116.246 183.421 115.672 183.723 114.982C184.054 114.222 184.219 113.399 184.205 112.569C184.196 111.629 184.051 110.696 183.776 109.798C183.488 108.844 183.086 107.928 182.58 107.071C182.088 106.197 181.492 105.386 180.805 104.657C180.167 103.967 179.43 103.374 178.619 102.9C177.912 102.471 177.121 102.201 176.299 102.108Z" fill="#131313"/>
<path fill-rule="evenodd" clip-rule="evenodd" d="M174.963 104.01C175.322 103.811 175.734 103.732 176.14 103.783C176.717 103.857 177.271 104.053 177.766 104.358C178.431 104.753 179.036 105.241 179.565 105.806C180.157 106.436 180.671 107.136 181.094 107.891C181.537 108.635 181.887 109.431 182.136 110.261C182.365 111.003 182.487 111.773 182.498 112.55C182.513 113.14 182.404 113.727 182.179 114.273C182.03 114.637 181.765 114.942 181.427 115.142L181.378 115.166C181.037 115.361 180.64 115.439 180.25 115.388C179.664 115.311 179.1 115.112 178.595 114.804C177.936 114.409 177.337 113.921 176.816 113.356C176.218 112.714 175.695 112.006 175.258 111.246C174.816 110.502 174.467 109.706 174.221 108.876C173.989 108.137 173.865 107.367 173.854 106.593C173.838 106.002 173.948 105.414 174.177 104.869C174.325 104.503 174.589 104.196 174.93 103.996H174.954L174.963 104.01ZM176.299 102.108C175.544 102.022 174.781 102.177 174.119 102.552C173.472 102.928 172.965 103.504 172.672 104.193C172.342 104.955 172.178 105.777 172.19 106.607C172.198 107.545 172.343 108.477 172.619 109.373C172.907 110.335 173.312 111.257 173.825 112.12C174.326 112.99 174.925 113.8 175.61 114.534C176.244 115.214 176.971 115.801 177.771 116.276C178.484 116.704 179.279 116.977 180.105 117.078C180.852 117.159 181.606 117 182.257 116.623C182.908 116.246 183.421 115.672 183.723 114.982C184.054 114.222 184.219 113.399 184.205 112.569C184.196 111.629 184.051 110.696 183.776 109.798C183.488 108.844 183.086 107.928 182.58 107.071C182.088 106.197 181.492 105.386 180.805 104.657C180.167 103.967 179.43 103.374 178.619 102.9C177.912 102.471 177.121 102.201 176.299 102.108Z" fill="#131313"/>
<path fill-rule="evenodd" clip-rule="evenodd" d="M152.669 78.9371L131.629 66.782V74.9884L152.669 87.1435V78.9371Z" fill="white"/>
<path fill-rule="evenodd" clip-rule="evenodd" d="M153.035 78.1791L132.049 66.053C131.953 65.9977 131.848 65.9618 131.738 65.9474C131.629 65.9329 131.517 65.9403 131.411 65.969C131.304 65.9977 131.204 66.0472 131.117 66.1146C131.029 66.182 130.956 66.2661 130.901 66.3619C130.825 66.4889 130.785 66.634 130.785 66.7819V74.9883C130.784 75.1489 130.829 75.3064 130.915 75.4423C131 75.5783 131.122 75.687 131.267 75.7558L152.249 87.8675C152.443 87.9779 152.672 88.0075 152.887 87.9496C153.102 87.8917 153.285 87.7512 153.397 87.5586C153.468 87.43 153.507 87.2856 153.508 87.1386V78.9322C153.507 78.7725 153.462 78.6163 153.376 78.4814C153.291 78.3465 153.17 78.2384 153.026 78.1695L153.035 78.1791ZM132.473 68.2446L151.825 79.4246V85.7001L132.473 74.52V68.2446Z" fill="#131313"/>
</g>
<defs>
<clipPath id="clip0_402_12138">
<rect width="213.763" height="222.752" fill="white" transform="matrix(-1 0 0 1 232 13.124)"/>
</clipPath>
</defs>
</svg>
