<svg width="140" height="132" viewBox="0 0 140 132" fill="none" xmlns="http://www.w3.org/2000/svg">
<g clip-path="url(#clip0_1227_10773)">
<path d="M130.71 111.314C131.422 120.767 112.164 130.124 87.6954 132.215C63.2267 134.305 42.8133 128.337 42.1008 118.885C41.7024 113.599 47.5488 110.87 57.0591 106.898C64.5559 103.767 74.3293 101.433 85.1152 100.512C109.584 98.421 129.997 101.861 130.71 111.314Z" fill="#E8E8E8"/>
<g clip-path="url(#clip1_1227_10773)">
<path fill-rule="evenodd" clip-rule="evenodd" d="M72.4489 120.212L59.8536 119.188C74.5165 120.221 83.7159 102.45 87.0073 90.5631C91.6632 73.9243 91.1749 49.5342 79.8515 35.7415C76.5298 31.6676 72.2779 28.7116 66.9614 28.2161L80.1855 29.3027C93.6962 30.9997 100.029 48.5579 101.714 60.3784C104.181 77.9038 100.073 102.481 86.6662 114.664C82.6772 118.269 77.9342 120.607 72.4489 120.212Z" fill="#2B7CFF"/>
<path fill-rule="evenodd" clip-rule="evenodd" d="M72.5093 119.4C77.2227 119.753 81.8283 117.938 86.0713 114.063C99.0931 102.24 103.378 78.1611 100.853 60.5128C99.0469 47.464 92.4872 31.6775 80.0412 30.1412L74.1002 29.6341C76.4124 30.9367 78.534 32.8051 80.5181 35.204C92.2298 49.4853 92.4889 74.0445 87.8043 90.7839C84.5865 102.321 77.5202 115.193 67.2134 118.955L72.5093 119.4ZM81.3353 119.304C78.5563 120.661 75.4682 121.261 72.3787 121.045L59.7823 120.012C59.5736 119.978 59.3843 119.868 59.2499 119.704C59.1155 119.54 59.0453 119.332 59.0525 119.12C59.0722 118.905 59.1732 118.706 59.3347 118.564C59.4962 118.422 59.706 118.348 59.9211 118.356C74.195 119.383 83.2025 101.207 86.2663 90.2989C90.9693 73.437 90.059 49.4547 79.2367 36.2409C75.6372 31.8972 71.5446 29.4381 66.8873 29.0414C66.6773 29.0058 66.487 28.8949 66.352 28.7292C66.217 28.5635 66.1465 28.3544 66.1537 28.141C66.1708 27.9248 66.2724 27.7247 66.4363 27.5842C66.6003 27.4436 66.8132 27.3741 67.0287 27.3908L80.2529 28.4773C93.6115 30.1696 100.589 46.6547 102.509 60.2722C105.026 78.3865 100.644 103.067 87.1869 115.277C85.4465 116.903 83.4746 118.26 81.3353 119.304Z" fill="#414141"/>
<path fill-rule="evenodd" clip-rule="evenodd" d="M56.2231 41.1343C44.7451 57.835 42.534 86.2752 51.2602 104.655C59.9863 123.036 76.3461 124.398 87.819 107.686C99.2919 90.9743 101.506 62.5396 92.782 44.1649C84.0585 25.7902 67.6987 24.4213 56.2231 41.1343Z" fill="white"/>
<path fill-rule="evenodd" clip-rule="evenodd" d="M67.5247 31.842C63.6904 33.6624 60.0907 36.9514 56.895 41.5752C45.6162 58.0508 43.4148 86.1817 52.0151 104.297C56.1045 112.911 62.0406 117.949 68.6188 118.509C75.1969 119.068 81.7698 115.06 87.1446 107.24C98.4299 90.7776 100.634 62.6454 92.0363 44.5356C87.9482 35.9247 82.081 30.87 75.4299 30.3252C72.704 30.1117 69.9744 30.6365 67.526 31.8447L67.5247 31.842ZM77.2882 118.433C74.5564 119.783 71.5105 120.37 68.4683 120.133C61.2554 119.541 54.8553 114.177 50.5052 105.014C41.6857 86.4369 43.9885 57.5381 55.537 40.6633C61.282 32.3185 68.3597 28.0845 75.574 28.68C82.7882 29.2756 89.1843 34.6382 93.5369 43.8064C102.356 62.3833 100.12 91.2539 88.5026 108.151C85.127 113.048 81.3099 116.524 77.2882 118.433Z" fill="#414141"/>
<path fill-rule="evenodd" clip-rule="evenodd" d="M43.8834 32.4973C49.1706 24.9825 57.1164 17.5445 66.9786 18.0612L79.4992 19.1236C61.6061 18.7305 50.8365 40.344 46.9001 55.0778C41.5994 74.8582 42.2697 102.751 54.7789 119.693C58.8474 125.207 64.01 129.24 70.8911 130.248C67.918 129.986 59.2716 129.457 56.7984 128.951C41.4523 125.715 34.2232 105.757 32.1489 92.1429C29.1764 72.4171 32.7006 49.1751 43.8834 32.4973Z" fill="#2B7CFF"/>
<path fill-rule="evenodd" clip-rule="evenodd" d="M44.567 32.9629C34.1856 48.4131 29.7546 71.0346 32.9413 92.0245C35.2012 106.843 42.8972 125.163 56.9448 128.145C58.1463 128.405 61.0361 128.653 63.9168 128.882C60.2826 127.066 57.0608 124.17 54.0954 120.195C41.2305 102.819 40.9258 74.1402 46.107 54.8652C50.0212 40.2389 58.9954 23.6122 72.3635 19.3244L66.9128 18.8758C56.9683 18.368 49.2391 26.2623 44.567 32.9629ZM71.2399 130.983C71.1074 131.045 70.9608 131.072 70.8145 131.061C70.1642 130.988 69.138 130.936 68.0169 130.846C64.0294 130.556 58.5956 130.143 56.6347 129.742C41.7431 126.608 33.819 108.319 31.3662 92.2534C28.0742 70.9017 32.597 47.8216 43.1998 32.0318C48.173 24.9841 56.3176 16.6751 67.0556 17.228L79.5852 18.3095C79.7987 18.3162 80.0011 18.4077 80.1482 18.5638C80.2953 18.7199 80.375 18.9279 80.3698 19.1421C80.3626 19.3487 80.2752 19.5439 80.1262 19.6859C79.9773 19.8279 79.7786 19.9056 79.5726 19.9022C63.0916 19.5886 52.0884 38.7755 47.6985 55.2946C42.5843 74.2132 42.8816 102.259 55.4149 119.21C59.8721 125.192 64.9976 128.523 71.0368 129.406C71.2086 129.439 71.3658 129.527 71.4859 129.655C71.606 129.783 71.6831 129.946 71.7062 130.12C71.7293 130.294 71.6972 130.471 71.6145 130.626C71.5317 130.78 71.4026 130.904 71.2454 130.98L71.2399 130.983Z" fill="#414141"/>
<path fill-rule="evenodd" clip-rule="evenodd" d="M79.5365 29.2392L66.9548 28.2092L66.6322 28.1816L66.3162 28.1609L78.9018 29.1991L79.2152 29.2144L79.5365 29.2392Z" fill="#2B7CFF"/>
<path fill-rule="evenodd" clip-rule="evenodd" d="M79.8905 29.985C79.7581 30.048 79.6114 30.0749 79.4651 30.0631L78.833 30.0285L66.2409 28.9766C66.0316 28.9425 65.8415 28.8328 65.7064 28.6683C65.5712 28.5037 65.5004 28.2956 65.5072 28.083C65.5245 27.8664 65.6248 27.6653 65.787 27.5221C65.9493 27.3789 66.1608 27.3047 66.3772 27.3151L67.017 27.3661L79.6091 28.418C79.8178 28.4524 80.0071 28.562 80.1415 28.7263C80.2759 28.8906 80.3461 29.0983 80.3388 29.3102C80.3321 29.4531 80.2868 29.5914 80.2079 29.7102C80.1289 29.8291 80.0193 29.924 79.8905 29.985Z" fill="#414141"/>
<path fill-rule="evenodd" clip-rule="evenodd" d="M79.5365 29.2392C76.0829 28.974 72.6457 29.8158 69.2286 31.8633C65.9963 33.8163 62.8328 36.8748 59.9511 41.0382C57.0247 45.4369 54.7386 50.234 53.1615 55.2854C51.3786 60.8867 50.2577 66.6816 49.8217 72.5514C49.3308 78.4137 49.5481 84.3174 50.4689 90.1339C51.2288 95.3972 52.7543 100.524 54.9968 105.349C57.1666 109.919 59.7697 113.46 62.7099 115.918C65.711 118.51 69.0154 119.954 72.4489 120.212C75.8824 120.47 79.3435 119.644 82.7568 117.588C85.993 115.643 89.1552 112.575 91.9691 108.444C94.9426 104.049 97.2545 99.2357 98.8307 94.1592C100.613 88.5613 101.732 82.7692 102.165 76.9026C102.657 71.0422 102.441 65.1402 101.52 59.3255C100.761 54.0621 99.2352 48.9358 96.9925 44.1109C94.8226 39.5404 92.2196 35.9991 89.2781 33.5392C86.277 30.9468 82.9725 29.5027 79.5365 29.2392ZM44.0285 72.0612C45.1327 57.8384 49.3621 43.8761 56.4012 33.561C63.5082 23.2205 72.1136 18.4755 80.2929 19.1552C88.4721 19.8349 96.2915 25.9245 101.688 37.2919C107.085 48.6593 109.05 63.1791 107.946 77.4019C106.842 91.6247 102.612 105.587 95.5054 115.928C88.4623 126.234 79.8608 130.988 71.6776 130.3C63.4359 129.65 55.6816 123.536 50.2848 112.169C44.8881 100.801 42.8605 86.311 44.0285 72.0612Z" fill="white"/>
<path fill-rule="evenodd" clip-rule="evenodd" d="M71.4219 31.6187C70.7946 31.9165 70.2453 32.2174 69.6425 32.5739C66.4128 34.5324 63.3755 37.5411 60.6359 41.5065C57.8964 45.4718 55.6775 50.2043 53.9823 55.5284C50.4245 66.6492 49.4883 78.4587 51.2476 90.0287C52.016 95.2076 53.5281 100.251 55.7367 105.001C57.8119 109.372 60.3072 112.84 63.1809 115.326C66.1003 117.746 69.2202 119.124 72.5106 119.403C75.801 119.682 79.0956 118.834 82.3318 116.889C85.5681 114.944 88.6015 111.927 91.3371 107.954C94.0728 103.98 96.2956 99.2561 98.0679 93.9054C99.8056 88.3626 100.911 82.637 101.362 76.8383C101.835 71.0372 101.623 65.1972 100.729 59.4398C99.9622 54.2617 98.4505 49.2194 96.2415 44.4707C94.1664 40.0997 91.6711 36.6311 88.7336 34.1726C85.878 31.7254 82.7555 30.3422 79.4636 30.0672C76.6895 29.8627 73.9143 30.3994 71.4205 31.6227L71.4219 31.6187ZM81.2527 119.326C78.4985 120.683 75.4299 121.276 72.364 121.042C68.7511 120.729 65.2698 119.235 62.1517 116.564C59.0596 113.941 56.3981 110.284 54.2283 105.713C52.0584 101.143 50.5332 95.9819 49.6006 90.2884C48.7195 84.396 48.5208 78.4242 49.0083 72.4923C49.441 66.5645 50.5643 60.7112 52.3553 55.0522C54.141 49.5612 56.4577 44.7053 59.3392 40.5554C62.1466 36.4105 65.3441 33.2488 68.8095 31.1416C72.3424 29.0157 75.9233 28.1191 79.6026 28.4044C83.2155 28.7178 86.6343 30.2415 89.8188 32.8907C92.9108 35.5136 95.5684 39.1629 97.7422 43.7415C99.9159 48.3202 101.439 53.4758 102.306 59.1934C103.244 65.0701 103.464 71.0364 102.961 76.9599C102.533 82.9033 101.387 88.7691 99.5474 94.4282C97.8148 99.8906 95.5128 104.75 92.6313 108.9C89.8213 113.039 86.6224 116.198 83.1493 118.289C82.5328 118.662 81.8971 119.003 81.2449 119.31L81.2527 119.326ZM44.8335 72.1377C45.9448 57.4462 50.3025 43.9083 57.0861 34.0293C63.7731 24.2831 72.0427 19.2724 80.2241 19.9846C88.4775 20.6592 95.8371 26.9369 100.928 37.6596C106.088 48.5298 108.305 62.6122 107.122 77.3412C106.01 92.0327 101.589 105.598 94.8704 115.452C88.1835 125.198 79.9138 130.209 71.7298 129.498C63.4763 128.824 56.1167 122.546 51.0261 111.823C45.8628 100.948 43.6487 86.8707 44.832 72.1417L44.8335 72.1377ZM82.4037 129.047C78.8734 130.723 75.2256 131.451 71.6075 131.126C62.7195 130.412 54.8774 123.79 49.5312 112.53C44.2421 101.389 42.0365 86.9934 43.1583 72.0157C44.3559 57.0154 48.8049 43.1932 55.7854 33.07C62.7855 22.8338 71.5386 17.5869 80.3642 18.3313C89.2562 19.0542 97.0293 25.6913 102.382 36.9659C107.666 48.0956 109.947 62.4685 108.747 77.4634C107.616 92.4422 103.163 106.263 96.1863 116.388C92.1178 122.39 87.3705 126.689 82.4037 129.047Z" fill="#414141"/>
<path fill-rule="evenodd" clip-rule="evenodd" d="M76.6931 43.5278L77.2445 73.2375L76.6907 43.5156L76.6931 43.5278ZM65.4004 98.7487C65.268 98.8117 65.1213 98.8386 64.9749 98.8268C64.8708 98.8292 64.7672 98.8097 64.6709 98.7695C64.5745 98.7294 64.4875 98.6694 64.4155 98.5936C64.3434 98.5177 64.2879 98.4277 64.2525 98.3292C64.2171 98.2307 64.2026 98.1259 64.21 98.0217L73.3132 73.1673L76.5828 34.7022C76.6164 34.5061 76.7215 34.33 76.8778 34.2082C77.0341 34.0863 77.2302 34.0275 77.428 34.0432C77.5318 34.041 77.6349 34.0606 77.7309 34.1007C77.8269 34.1408 77.9136 34.2005 77.9855 34.276C78.0573 34.3515 78.1128 34.4412 78.1483 34.5393C78.1838 34.6373 78.1986 34.7417 78.1916 34.8456L78.8558 73.3931L65.8161 98.1664C65.7976 98.2897 65.7503 98.4067 65.678 98.5079C65.6058 98.6091 65.5106 98.6916 65.4004 98.7487Z" fill="#414141"/>
<path fill-rule="evenodd" clip-rule="evenodd" d="M77.4191 34.8374L73.8724 72.9018L78.0195 73.4119L77.4191 34.8374Z" fill="white"/>
<path fill-rule="evenodd" clip-rule="evenodd" d="M75.0783 72.4347L77.2064 72.5124L76.6996 43.5414L75.0783 72.4347ZM78.3735 74.1577C78.2398 74.2197 78.0926 74.247 77.9454 74.2371L74.0551 74.0085C73.9426 74.0066 73.8326 73.9744 73.7365 73.9151C73.6404 73.8559 73.5619 73.7718 73.5093 73.6717C73.3723 73.4949 73.2963 73.2782 73.2929 73.0547L76.5828 34.7022C76.613 34.5045 76.7173 34.3263 76.8744 34.2038C77.0315 34.0814 77.2295 34.0239 77.428 34.0432C77.5317 34.041 77.6349 34.0606 77.7309 34.1007C77.8269 34.1408 77.9136 34.2005 77.9855 34.276C78.0573 34.3515 78.1128 34.4412 78.1483 34.5393C78.1838 34.6373 78.1985 34.7417 78.1916 34.8456L78.8558 73.3931C78.8471 73.6195 78.7583 73.835 78.6052 74.0008C78.5396 74.0685 78.4607 74.1219 78.3735 74.1577Z" fill="#414141"/>
<path fill-rule="evenodd" clip-rule="evenodd" d="M63.3898 49.9005C63.3502 49.9243 63.3084 49.9441 63.2649 49.9598C63.1644 49.9948 63.0577 50.0091 62.9514 50.0017C62.845 49.9943 62.7411 49.9655 62.646 49.9169C62.5508 49.8683 62.4663 49.8009 62.3975 49.7189C62.3288 49.6368 62.2772 49.5417 62.2458 49.4393L60.9214 45.8367C60.8828 45.7344 60.865 45.6254 60.8692 45.5163C60.8734 45.4072 60.8994 45.3002 60.9458 45.2016C60.9922 45.103 61.058 45.0149 61.1392 44.9426C61.2203 44.8702 61.3153 44.8151 61.4183 44.7806C61.6259 44.705 61.8551 44.7142 62.0567 44.8062C62.2584 44.8982 62.4165 45.0657 62.4972 45.2727L63.7618 48.9037C63.803 48.9939 63.8259 49.0914 63.8295 49.1904C63.833 49.2894 63.8171 49.388 63.7825 49.4806C63.7479 49.5732 63.6955 49.658 63.6281 49.7301C63.5607 49.8021 63.4797 49.86 63.3898 49.9005Z" fill="#414141"/>
<path fill-rule="evenodd" clip-rule="evenodd" d="M89.7274 52.1697C89.5997 52.2318 89.4575 52.2578 89.3159 52.2448C89.1743 52.2318 89.0387 52.1804 88.9237 52.096C88.7545 51.9658 88.6378 51.7786 88.5952 51.5691C88.5527 51.3597 88.5873 51.1422 88.6925 50.9571L90.7803 47.897C90.9137 47.7138 91.1112 47.5879 91.3334 47.5444C91.5556 47.5009 91.7864 47.543 91.98 47.6623C92.0673 47.728 92.141 47.8103 92.1967 47.9046C92.2525 47.9988 92.2892 48.1031 92.3047 48.2114C92.3203 48.3197 92.3144 48.4299 92.2874 48.5358C92.2604 48.6416 92.2128 48.7409 92.1474 48.8281L90.0569 51.8894C89.9738 52.0106 89.8601 52.1073 89.7274 52.1697Z" fill="#414141"/>
<path fill-rule="evenodd" clip-rule="evenodd" d="M57.7235 98.8049C57.5947 98.865 57.4518 98.8887 57.3102 98.8733C57.1687 98.8579 57.0338 98.8041 56.9201 98.7176C56.7509 98.5892 56.6343 98.4031 56.5924 98.1947C56.5505 97.9863 56.5862 97.77 56.6928 97.5869L58.8392 94.489C58.8994 94.3974 58.9777 94.3191 59.0691 94.2588C59.1606 94.1986 59.2634 94.1576 59.3713 94.1385C59.4792 94.1194 59.5899 94.1226 59.6967 94.1477C59.8036 94.1729 59.9043 94.2195 59.9929 94.2848C60.0814 94.3501 60.1559 94.4328 60.2118 94.5277C60.2677 94.6226 60.3039 94.7279 60.3181 94.8371C60.3324 94.9462 60.3244 95.0571 60.2946 95.1629C60.2649 95.2687 60.214 95.3672 60.1451 95.4525L58.0491 98.5164C57.9658 98.6379 57.854 98.7369 57.7235 98.8049Z" fill="#414141"/>
<path fill-rule="evenodd" clip-rule="evenodd" d="M87.7849 101.285C87.6876 101.335 87.581 101.365 87.4717 101.373C87.3623 101.38 87.2525 101.365 87.1487 101.329C87.045 101.293 86.9497 101.236 86.8684 101.162C86.7871 101.088 86.7216 100.998 86.6759 100.897L85.0741 97.5234C85.0267 97.4246 84.9995 97.3174 84.9942 97.2081C84.989 97.0988 85.0056 96.9896 85.0433 96.8871C85.0809 96.7845 85.1388 96.6908 85.2134 96.6113C85.288 96.5319 85.3778 96.4684 85.4775 96.4246C85.6699 96.3421 85.8872 96.3389 86.0826 96.416C86.2779 96.493 86.4356 96.644 86.5215 96.8362L88.1233 100.21C88.1715 100.303 88.201 100.405 88.2101 100.509C88.2192 100.614 88.2077 100.719 88.1763 100.819C88.1448 100.919 88.0941 101.011 88.0269 101.091C87.9598 101.171 87.8775 101.237 87.7849 101.285Z" fill="#414141"/>
</g>
</g>
<defs>
<clipPath id="clip0_1227_10773">
<rect width="140" height="132" fill="white"/>
</clipPath>
<clipPath id="clip1_1227_10773">
<rect width="91" height="110" fill="white" transform="translate(5 44.0279) rotate(-25.3964)"/>
</clipPath>
</defs>
</svg>
