<svg width="140" height="132" viewBox="0 0 140 132" fill="none" xmlns="http://www.w3.org/2000/svg">
<g clip-path="url(#clip0_1224_10718)">
<path d="M125.345 109.792C126.07 118.825 106.476 127.768 81.5816 129.765C56.6868 131.763 35.9179 126.06 35.193 117.026C34.7877 111.975 40.7359 109.368 50.4118 105.571C58.0391 102.579 67.9828 100.349 78.9565 99.4684C103.851 97.4706 124.62 100.758 125.345 109.792Z" fill="#E8E8E8"/>
<path fill-rule="evenodd" clip-rule="evenodd" d="M56.4091 40.9608C45.0846 50.2035 37.7881 69.3973 40.123 83.8001C42.4578 98.203 53.5404 102.431 64.8759 93.189C76.2114 83.9472 83.5024 64.7867 81.162 50.3496C78.8216 35.9125 67.7341 31.7207 56.4091 40.9608Z" fill="white"/>
<path fill-rule="evenodd" clip-rule="evenodd" d="M56.9141 41.5675C45.8016 50.6354 38.6266 69.5286 40.9193 83.671C42.0031 90.3568 45.0221 94.9493 49.4244 96.6281C53.8268 98.3069 59.1235 96.8542 64.3741 92.5844C75.4866 83.5165 82.662 64.6259 80.369 50.4809C79.2864 43.803 76.2671 39.2078 71.8638 37.5238C67.4606 35.8398 62.1595 37.2986 56.9141 41.5675ZM55.3978 98.7165C53.2013 99.102 50.9417 98.892 48.854 98.1085C43.9006 96.2463 40.5294 91.214 39.3479 83.9258C36.9725 69.2729 44.3986 49.7287 55.9053 40.3431C61.6153 35.6748 67.4884 34.1449 72.4368 36.043C77.3853 37.9411 80.7623 42.9427 81.9425 50.2231C84.3188 64.8812 76.8901 84.4258 65.3838 93.8141C62.0422 96.5457 58.6327 98.1921 55.3978 98.7165Z" fill="#414141"/>
<path fill-rule="evenodd" clip-rule="evenodd" d="M59.7798 61.7439C52.9317 68.6732 48.1346 77.8568 46.452 86.1738C45.57 85.4259 44.8843 84.4738 44.4546 83.4003C40.2485 73.551 45.9614 56.353 57.09 45.0682L59.7798 61.7439Z" fill="white"/>
<path fill-rule="evenodd" clip-rule="evenodd" d="M56.5462 46.7981C46.3225 57.866 41.2401 73.8709 45.1663 83.077C45.3864 83.5918 45.6614 84.0814 45.9865 84.5372C47.9845 76.3501 52.7326 67.8305 58.9258 61.4773L56.5462 46.7981ZM46.5809 86.971C46.354 87.0021 46.1239 86.9424 45.9408 86.8048C44.9615 85.9624 44.1995 84.8967 43.7191 83.6978C39.4137 73.6189 45.1524 56.0305 56.5205 44.5233C56.6241 44.4178 56.7548 44.3431 56.8983 44.3075C57.0418 44.2718 57.1923 44.2766 57.3332 44.3213C57.472 44.3651 57.5961 44.4458 57.6923 44.5549C57.7885 44.664 57.8532 44.7972 57.8793 44.9402L60.5822 61.6138C60.6008 61.736 60.5901 61.8608 60.5508 61.978C60.5116 62.0951 60.445 62.2013 60.3565 62.2877C53.8623 68.8841 48.9641 77.8601 47.2378 86.3407C47.2094 86.4735 47.1477 86.5969 47.0584 86.6992C46.9691 86.8015 46.8553 86.8795 46.7275 86.9257C46.6792 86.9548 46.6242 86.9711 46.5678 86.9732L46.5809 86.971Z" fill="#414141"/>
<path fill-rule="evenodd" clip-rule="evenodd" d="M62.6899 18.046L74.7641 22.626C72.7563 22.2444 70.6987 22.2019 68.6767 22.5003C58.9399 23.941 50.2363 32.3052 44.7224 39.966C34.7643 53.7721 28.2745 74.2258 31.0299 91.223C32.106 97.8613 34.8501 105.007 40.5721 108.978L41.121 109.348L29.0547 104.766C28.7944 104.644 27.7119 103.815 27.4384 103.611C20.1542 97.6359 18.1896 86.3999 18.3457 77.5149C18.5572 64.7893 23.0016 50.2973 30.4161 38.6641C36.9407 28.4227 49.2549 15.6199 62.6899 18.046Z" fill="#2B7CFF"/>
<path fill-rule="evenodd" clip-rule="evenodd" d="M56.3692 18.8005C46.3672 20.422 37.05 29.7497 31.0966 39.0992C23.8194 50.513 19.3558 64.8866 19.1434 77.5233C19.0515 82.9387 19.7298 96.2708 27.9492 102.983C28.2623 103.248 29.2213 103.964 29.4246 104.069L37.047 106.965C32.8534 102.425 31.035 96.2068 30.2498 91.3629C27.662 75.3997 33.2163 54.5577 44.0755 39.5119C47.4862 34.7897 56.6344 23.6694 68.2603 21.7847L68.5604 21.736C68.971 21.6695 69.3534 21.6291 69.7552 21.591L62.4746 18.8207C60.4545 18.4816 58.3922 18.4792 56.3713 18.8137L56.3692 18.8005ZM41.2524 110.145C41.1134 110.161 40.9726 110.146 40.8401 110.101L28.7724 105.512C28.1341 105.12 27.5224 104.687 26.9415 104.215C18.185 97.0397 17.4642 83.1448 17.5548 77.5054C17.773 64.5707 22.3322 49.8873 29.7601 38.2196C37.188 26.5518 49.7923 14.9225 62.8415 17.2517L62.9856 17.2905L75.0532 21.8797C75.2376 21.948 75.3896 22.0831 75.479 22.2581C75.5684 22.4332 75.5888 22.6355 75.536 22.8249C75.484 23.0178 75.3617 23.1842 75.1931 23.2915C75.0246 23.3988 74.8219 23.4391 74.6251 23.4046C72.7057 23.0273 70.7348 22.9912 68.8028 23.298L68.5212 23.3437C57.4664 25.1358 48.6702 35.8615 45.3777 40.4295C34.7461 55.163 29.3066 75.5301 31.8295 91.0933C32.7333 96.6687 35.0633 104.176 41.0343 108.333L41.575 108.685C41.735 108.795 41.8495 108.959 41.8974 109.147C41.9453 109.335 41.9232 109.534 41.8352 109.707C41.7835 109.824 41.7028 109.925 41.6008 110.002C41.4988 110.078 41.3788 110.128 41.2524 110.145Z" fill="#414141"/>
<path fill-rule="evenodd" clip-rule="evenodd" d="M80.6465 90.9969L68.5797 86.413L68.4686 86.3608L68.3579 86.3112L68.2472 86.2616L68.138 86.1875L68.0318 86.1156L67.9316 86.0644L67.8254 85.9925L67.7232 85.9118L67.6222 85.8391L67.5213 85.7663L67.4244 85.6848L67.3284 85.5924L67.2327 85.5188L79.2991 90.1001L79.3952 90.1763L79.4912 90.2688L79.5882 90.3503L79.6891 90.423L79.79 90.4958L79.8923 90.5764L79.9985 90.6483L80.0986 90.6996L80.2048 90.7715L80.3185 90.8233L80.4248 90.8951L80.5354 90.9447L80.6465 90.9969Z" fill="white"/>
<path fill-rule="evenodd" clip-rule="evenodd" d="M80.7343 91.782C80.6137 91.8067 80.4885 91.7971 80.3732 91.7541L68.3064 87.1701C68.2731 87.1485 68.137 87.1085 68.1064 87.0865C68.0232 87.0449 67.9427 86.9985 67.8651 86.9473C67.7774 86.9063 67.6935 86.8576 67.6145 86.8016C67.6145 86.8016 67.3837 86.6608 67.3784 86.6617C67.3071 86.5989 67.231 86.5417 67.1508 86.4907C67.1478 86.4723 66.9315 86.321 66.9202 86.3012L66.7141 86.1294C66.5709 86.0075 66.4753 85.839 66.4441 85.6536C66.4128 85.4682 66.4479 85.2778 66.5432 85.1157C66.6385 84.9535 66.7879 84.8302 66.9651 84.7672C67.1423 84.7043 67.3361 84.7057 67.5123 84.7714L79.584 89.3519C79.6795 89.3863 79.7649 89.4439 79.8326 89.5195L79.703 89.7862L79.8273 89.8363L79.9916 89.6503L79.9034 89.8725L80.0701 89.9346L80.1695 89.7808L80.1152 89.9462L80.2688 90.0104L80.3363 89.9104L80.303 90.0049L80.4823 90.0946L80.5187 90.0185L80.5008 90.0916L80.6763 90.1577L80.6931 90.128L80.7007 90.1753L80.8885 90.234C81.079 90.3284 81.2288 90.4885 81.3102 90.6848C81.3917 90.8811 81.3993 91.1002 81.3317 91.3017C81.2816 91.4262 81.2004 91.5357 81.0957 91.6198C80.9911 91.7039 80.8667 91.7597 80.7343 91.782Z" fill="#414141"/>
<path fill-rule="evenodd" clip-rule="evenodd" d="M49.134 97.3826L37.0672 92.7987C50.6102 97.624 63.222 78.3921 67.1006 66.2088C70.3789 55.905 71.9015 36.9533 60.0858 32.1855C63.7516 33.603 72.4276 36.2497 75.2843 38.6084C86.3364 47.6638 81.0136 70.8175 73.7565 82.7222C69.074 90.4129 59.2208 100.967 49.134 97.3826Z" fill="#2B7CFF"/>
<path fill-rule="evenodd" clip-rule="evenodd" d="M49.4092 96.6306C58.474 99.8596 67.8231 90.9452 73.0688 82.3126C80.4615 70.178 85.3115 47.8569 74.7758 39.2201C73.0803 37.8261 68.9564 36.2156 65.3667 34.9343C72.0732 42.345 70.8793 56.9419 67.8596 66.4584C64.7578 76.1855 57.0592 88.2995 48.3321 92.6359C46.6987 93.4621 44.9385 94.0094 43.1245 94.2551L49.3986 96.6323L49.4092 96.6306ZM55.5119 98.7169C53.2813 99.0864 50.9936 98.886 48.8615 98.1343C48.8615 98.1343 48.8615 98.1343 48.8572 98.108L36.7947 93.5504C36.6035 93.4738 36.4493 93.3265 36.3641 93.1391C36.2789 92.9517 36.2692 92.7387 36.3372 92.5444C36.4082 92.3491 36.5525 92.1892 36.7395 92.0984C36.9264 92.0076 37.1414 91.9931 37.3388 92.058C40.6489 93.2307 44.1141 92.9444 47.6393 91.2118C55.9596 87.0817 63.3476 75.4015 66.3424 65.9807C69.6554 55.5579 70.805 37.3876 59.7939 32.9511C59.5977 32.8711 59.4412 32.7165 59.3589 32.5213C59.2766 32.326 59.2752 32.1061 59.355 31.9098C59.436 31.7221 59.5859 31.5726 59.7738 31.4919C59.9616 31.4112 60.1733 31.4055 60.3652 31.476C61.1625 31.7788 62.1977 32.1321 63.3557 32.5438C67.6173 34.0375 73.4454 36.0793 75.7908 37.9997C87.0079 47.2066 82.1108 70.5371 74.4323 83.1582C70.1103 90.2234 63.1081 97.4854 55.5119 98.7169Z" fill="#414141"/>
<path fill-rule="evenodd" clip-rule="evenodd" d="M72.1533 36.7747L60.083 32.186L59.6645 32.054L59.2369 31.9154L58.7999 31.8026L70.8667 36.3866L71.3037 36.4993L71.7314 36.6379L72.1533 36.7747Z" fill="white"/>
<path fill-rule="evenodd" clip-rule="evenodd" d="M72.282 37.5721C72.1461 37.5887 72.0082 37.5701 71.8815 37.5182L70.661 37.1544L58.5129 32.535C58.3216 32.4677 58.1647 32.3278 58.076 32.1455C57.9873 31.9633 57.974 31.7534 58.039 31.5614C58.1038 31.3679 58.2383 31.2054 58.4164 31.1057C58.5945 31.0059 58.8034 30.976 59.0023 31.0218L60.348 31.441L72.4392 36.0425C72.5357 36.078 72.6243 36.1321 72.6998 36.2019C72.7754 36.2716 72.8364 36.3556 72.8794 36.449C72.9224 36.5424 72.9465 36.6433 72.9504 36.7461C72.9543 36.8488 72.9378 36.9513 72.902 37.0476C72.8525 37.181 72.7695 37.2993 72.6608 37.3912C72.5522 37.4831 72.4217 37.5454 72.282 37.5721Z" fill="#414141"/>
<path fill-rule="evenodd" clip-rule="evenodd" d="M72.152 36.7751C67.68 35.0833 62.0857 36.3331 56.4069 40.9612C50.7282 45.5892 46.0895 52.6842 43.1404 60.4368C40.1914 68.1895 38.9617 76.5842 40.1313 83.7988C41.3009 91.0134 44.6492 95.6714 49.1299 97.3834C53.6105 99.0954 59.2146 97.8223 64.8737 93.1894C70.5327 88.5564 75.1989 81.465 78.1414 73.7216C81.0839 65.9781 82.3192 57.5689 81.1493 50.3517C79.9793 43.1345 76.6261 38.48 72.152 36.7751ZM54.528 29.371C62.702 22.6885 70.79 20.8751 77.2562 23.3373C83.7224 25.7994 88.562 32.5081 90.2502 42.9222C91.2257 48.9396 91.0391 55.537 89.8896 62.1932C90.5659 62.176 91.239 62.2917 91.8708 62.5336L118.152 72.5199C122.704 74.2392 123.967 82.0786 120.978 89.9486C117.99 97.8154 111.831 102.845 107.287 101.125L80.9878 91.1468C80.3584 90.9123 79.7806 90.5574 79.2868 90.1021C75.7269 95.853 71.4748 100.917 66.7424 104.784C58.5672 111.458 50.4792 113.272 44.0143 110.818C37.5494 108.363 32.7151 101.638 31.0269 91.2235C29.3387 80.8094 31.1273 68.6976 35.3789 57.4988C39.6305 46.3001 46.348 36.0328 54.5262 29.3767L54.528 29.371Z" fill="white"/>
<path fill-rule="evenodd" clip-rule="evenodd" d="M66.1399 37.0152C63.1788 37.4952 60.0354 39.0336 56.913 41.5677C51.5426 45.9487 46.9141 52.7558 43.8921 60.7255C40.8702 68.6952 39.8104 76.8382 40.9181 83.6713C42.002 90.357 45.0243 94.9706 49.418 96.6292C53.8117 98.2878 59.1224 96.8544 64.373 92.5847C69.7512 88.2024 74.3719 81.3966 77.3947 73.4322C80.4175 65.4678 81.4768 57.3221 80.3678 50.4811C79.2853 43.8033 76.2616 39.1818 71.8706 37.5228C70.0381 36.8543 68.0617 36.6801 66.1403 37.0178L66.1399 37.0152ZM55.3967 98.7167C53.1977 99.1024 50.9356 98.8929 48.845 98.11C43.8994 96.2466 40.5283 91.2143 39.3468 83.926C38.1951 76.8219 39.279 68.3779 42.3959 60.1444C45.5129 51.9109 50.32 44.8885 55.9041 40.3433C61.6142 35.6751 67.4872 34.1451 72.4357 36.0432C77.3887 37.9027 80.7611 42.9429 81.9414 50.2233C83.093 57.3274 82.0104 65.7793 78.8904 74.0106C75.7704 82.2419 70.9655 89.2612 65.3827 93.8143C62.0437 96.5456 58.6315 98.1923 55.3967 98.7167ZM68.5151 23.3231C71.3541 22.8225 74.2753 23.0891 76.9764 24.0955C83.4463 26.53 87.8797 33.283 89.4639 43.0551C90.4023 48.8436 90.288 55.2537 89.1023 62.0535C89.0836 62.1696 89.0901 62.2884 89.1215 62.4016C89.153 62.5149 89.2085 62.6201 89.2844 62.7099C89.3623 62.7969 89.4571 62.8672 89.5631 62.9164C89.6691 62.9656 89.784 62.9927 89.9007 62.9961C90.4812 62.9814 91.0588 63.0804 91.6011 63.2875L117.883 73.244C119.805 73.9855 121.134 76.0492 121.623 79.0671C122.135 82.2245 121.645 85.987 120.25 89.6777C117.455 97.0112 111.661 101.914 107.575 100.373L81.2887 90.3879C80.758 90.1864 80.2692 89.8884 79.847 89.5091C79.7594 89.4313 79.6571 89.3718 79.5461 89.3341C79.4352 89.2964 79.3178 89.2814 79.2009 89.2898C79.0846 89.3142 78.9744 89.3617 78.8768 89.4295C78.7793 89.4973 78.6963 89.5839 78.6328 89.6843C74.9925 95.5562 70.8263 100.449 66.2586 104.149C58.5787 110.43 50.7941 112.516 44.3205 110.058C37.8468 107.6 33.4031 100.867 31.819 91.0951C30.2109 81.1757 31.7393 69.3248 36.1249 57.7695C40.5105 46.2141 47.2381 36.3422 55.034 29.9937C59.5868 26.2854 64.1748 24.0267 68.5125 23.3236L68.5151 23.3231ZM53.0263 112.405C49.914 112.953 46.7121 112.663 43.7491 111.565C36.7197 108.895 31.9295 101.724 30.2464 91.3419C28.5948 81.1541 30.1372 69.0066 34.637 57.206C39.1368 45.4053 46.0057 35.3052 54.0248 28.7505C62.159 22.1231 70.5087 19.9243 77.5373 22.5896C84.5659 25.2549 89.3626 32.4324 91.0453 42.8122C91.9743 48.5429 91.9119 54.8231 90.8299 61.4792C91.2815 61.5379 91.7251 61.6471 92.1523 61.8049L118.441 71.7872C120.915 72.7362 122.606 75.2353 123.186 78.8084C123.744 82.2552 123.229 86.3244 121.73 90.2613C118.581 98.5621 111.98 103.78 107.009 101.894L80.7234 91.9161C80.2983 91.7594 79.8931 91.5532 79.5163 91.3017C75.8891 96.9879 71.758 101.765 67.2671 105.439C62.4848 109.298 57.6325 111.659 53.0263 112.405Z" fill="#414141"/>
</g>
<defs>
<clipPath id="clip0_1224_10718">
<rect width="140" height="132" fill="white"/>
</clipPath>
</defs>
</svg>
