<svg width="140" height="132" viewBox="0 0 140 132" fill="none" xmlns="http://www.w3.org/2000/svg">
<g clip-path="url(#clip0_1224_10737)">
<path d="M114.478 115.284C114.204 124.701 92.9431 131.722 66.9908 130.967C41.0385 130.212 20.2221 121.966 20.4961 112.549C20.6494 107.283 27.0915 105.262 37.5205 102.435C45.7414 100.207 56.2696 99.0286 67.7095 99.3614C93.6618 100.117 114.752 105.866 114.478 115.284Z" fill="#E8E8E8"/>
<path fill-rule="evenodd" clip-rule="evenodd" d="M28.1481 35.9334C23.9847 35.5649 21.0534 37.0152 17.8525 39.5241C13.0387 43.6903 10.207 48.6602 7.94263 54.5171C5.65438 60.9904 4.67117 66.8435 4.90811 73.7017C5.26207 78.8933 6.156 83.2894 8.85286 87.7995C10.7346 90.5746 12.4837 92.2788 15.7072 93.3847L18.9627 94.0829L24.6653 95.2925L37.0327 37.8337L28.1481 35.9334Z" fill="#2B7CFF"/>
<path fill-rule="evenodd" clip-rule="evenodd" d="M23.5301 37.269C21.7068 37.852 20.0767 38.889 18.3978 40.2038C14.2726 43.7862 11.2904 48.3026 8.7689 54.8195C6.48588 61.2827 5.56715 67.1067 5.79406 73.6722C6.18726 79.4995 7.29156 83.4675 9.61363 87.3505C11.292 89.8242 12.8875 91.4845 16.0051 92.5622L23.9914 94.2536L35.9958 38.5006L28.0208 36.7915C26.3405 36.6523 24.8848 36.8359 23.5301 37.269ZM24.937 96.1188C24.7902 96.1658 24.6318 96.1769 24.4832 96.1484L15.5268 94.2372C11.8572 92.9837 9.98976 91.0383 8.12748 88.288C5.0407 83.1217 4.33869 78.2584 4.03452 73.7612C3.80067 66.9387 4.74692 60.9198 7.11432 54.2267C9.75087 47.3996 12.8824 42.6692 17.276 38.8629C20.1371 36.6204 23.4202 34.6349 28.2266 35.0571C28.2625 35.0625 28.3002 35.0646 28.3377 35.0751L37.2232 36.9779C37.7006 37.0818 37.9982 37.5419 37.8995 38.016L25.5226 95.4806C25.4743 95.699 25.3371 95.8979 25.1391 96.0232C25.077 96.0684 25.0091 96.0958 24.937 96.1188Z" fill="#414141"/>
<path fill-rule="evenodd" clip-rule="evenodd" d="M39.159 89.5983C48.1326 79.7641 52.0742 61.5578 47.9638 48.9337C43.8509 36.3019 33.2437 34.0363 24.2726 43.8782C15.2964 53.7132 11.3512 71.9347 15.4616 84.5589C19.5762 97.1958 30.1836 99.4359 39.159 89.5983Z" fill="white"/>
<path fill-rule="evenodd" clip-rule="evenodd" d="M32.5727 39.1525C29.9871 39.9793 27.3827 41.7788 24.9255 44.4671C16.1534 54.0819 12.2843 71.9521 16.3024 84.2928C18.1885 90.0854 21.5138 93.766 25.6645 94.6459C29.8177 95.5335 34.3821 93.5357 38.5044 89.0099C47.2739 79.396 51.1403 61.5351 47.1239 49.1994C45.2328 43.3915 41.905 39.7117 37.7517 38.8327C36.0718 38.4763 34.3265 38.5918 32.5727 39.1525ZM31.3837 95.9939C29.3363 96.6486 27.287 96.7823 25.2946 96.3568C20.5068 95.3367 16.7149 91.2359 14.6285 84.8281C10.4374 71.9563 14.4662 53.3191 23.6214 43.2915C28.1779 38.2915 33.3346 36.1043 38.1207 37.1278C42.9188 38.1445 46.7133 42.2445 48.8038 48.6651C52.9932 61.5318 48.9594 80.1537 39.8086 90.1771C39.8086 90.1771 39.8086 90.177 39.8111 90.1847C37.1376 93.1084 34.2706 95.0709 31.3837 95.9939Z" fill="#414141"/>
<path fill-rule="evenodd" clip-rule="evenodd" d="M34.7673 45.8358L34.1739 45.786C31.9284 45.7711 30.4844 46.3315 28.5955 47.4992C24.9544 50.0445 22.7766 53.4073 20.9575 57.3742C18.5586 63.0711 17.5646 68.8037 18.1899 74.9684C18.6728 78.5036 19.5082 81.5062 21.7152 84.3718C22.979 85.8168 23.9702 86.5907 25.81 87.2286L28.1511 87.7203L29.023 87.9094C32.246 88.8829 34.5079 89.2365 39.4596 83.8085C44.4113 78.3805 48.0757 61.4975 45.8031 54.5178C43.5305 47.5381 41.2951 46.9253 37.9331 46.5204L34.7673 45.8358Z" fill="white"/>
<path fill-rule="evenodd" clip-rule="evenodd" d="M31.5668 47.017C30.7247 47.2863 29.9462 47.6986 29.0587 48.2389C26.0284 50.3635 23.8332 53.2104 21.758 57.7356C19.3566 63.4333 18.4707 69.0523 19.0641 74.8833C19.4599 77.7756 20.1436 80.8971 22.4139 83.844C23.6286 85.2342 24.5314 85.8588 26.0991 86.4033L29.2062 87.0559C32.0188 87.9042 33.9942 88.5044 38.8084 83.2218C43.5854 77.9822 47.1544 61.5046 44.9666 54.7853C42.7489 47.9741 40.6871 47.7285 37.8268 47.3888L34.0932 46.6546C33.1253 46.6512 32.3239 46.7749 31.5668 47.017ZM33.9854 89.0625C32.1853 89.638 30.6155 89.3056 28.7656 88.7415L25.6234 88.0774C23.4082 87.3257 22.32 86.3939 21.0494 84.9455C18.4934 81.6277 17.7454 78.2477 17.3154 75.0845C16.6891 68.9342 17.6154 63.0373 20.1448 57.0337C22.3686 52.1792 24.742 49.1287 28.0911 46.7866C30.0531 45.573 31.6583 44.8963 34.1767 44.9113L34.8446 44.9712C34.8822 44.9732 34.9155 44.9795 34.9514 44.9849L38.1181 45.6721C41.6836 46.0908 44.2549 46.9232 46.6405 54.25C49.012 61.5335 45.2882 78.7231 40.1124 84.3974C37.5938 87.1589 35.6851 88.519 33.9854 89.0625Z" fill="#414141"/>
<path fill-rule="evenodd" clip-rule="evenodd" d="M71.912 116.905L56.3749 111.131L30.8536 86.4644C28.6444 85.7051 27.4549 84.5408 26.1655 82.6417C23.8511 78.7647 23.3407 74.6209 23.4544 70.1846C23.6877 66.1328 24.4158 62.7713 25.8824 58.9791C31.9824 44.4939 55.0644 41.3643 68.7359 41.2689C71.051 41.2531 73.0513 42.1046 74.6217 43.7926L79.5541 49.0818C80.7866 50.4043 81.4553 51.8818 81.6272 53.6759L82.7455 65.3456L105.794 91.0985L94.3799 103.235C94.9624 104.072 92.8888 109.048 88.7736 109.194C88.5034 110.146 89.4278 111.815 85.1688 113.03C85.6042 113.756 84.8084 114.822 82.9232 115.425L73.741 117.064C73.1023 117.181 72.5234 117.132 71.912 116.905Z" fill="white"/>
<path fill-rule="evenodd" clip-rule="evenodd" d="M56.8593 110.376L72.225 116.086C72.6829 116.261 73.1036 116.296 73.5879 116.211L82.7694 114.561C83.954 114.182 84.3995 113.603 84.4104 113.444C84.2655 113.209 84.2517 112.948 84.3526 112.699C84.4509 112.442 84.7327 112.242 84.9308 112.195C87.7732 111.371 87.7963 110.569 87.8313 109.777C87.8458 109.516 87.8553 109.239 87.9359 108.954C88.0404 108.594 88.3776 108.328 88.7474 108.32C90.4408 108.255 91.6196 107.23 92.3142 106.376C93.3248 105.14 93.6468 103.876 93.6024 103.599C93.3669 103.26 93.4623 102.942 93.7451 102.641L104.61 91.0771L82.0976 65.9249C81.9757 65.7863 81.897 65.6142 81.8757 65.4265L80.7599 53.7559C80.6016 52.152 80.0185 50.8501 78.9114 49.668L73.984 44.3856C72.577 42.8764 70.8188 42.1223 68.7477 42.1362C60.5529 42.1886 33.311 43.6069 26.6977 59.3189C25.2732 63.0046 24.5656 66.2806 24.3384 70.2374C24.2009 75.2733 24.9972 78.9677 26.9268 82.1954C28.0583 83.8631 29.0776 84.924 31.1435 85.6361C31.2638 85.6737 31.3761 85.7478 31.4702 85.8361L56.8593 110.376ZM83.229 116.243C83.2187 116.247 83.2058 116.251 83.1955 116.254L73.9034 117.923C73.0984 118.07 72.3673 118.008 71.6033 117.722L56.0713 111.947C55.9554 111.905 55.8481 111.838 55.7651 111.757L30.3795 87.2193C27.9959 86.3522 26.7106 85.0071 25.4364 83.1286C23.3064 79.5647 22.4342 75.5761 22.5822 70.162C22.8192 65.9906 23.56 62.5545 25.0633 58.6745C32.1101 41.9446 60.2692 40.4528 68.7361 40.3979C71.2883 40.3768 73.5494 41.3478 75.2748 43.2061L80.2047 48.4877C81.5677 49.9489 82.3193 51.6112 82.5124 53.6015L83.6052 64.9835L106.463 90.5241C106.761 90.8654 106.759 91.3651 106.452 91.6972L95.3604 103.488C95.4247 104.358 94.9653 105.41 94.7167 105.904C94.2709 106.779 92.6694 109.484 89.5895 109.998C89.5133 111.249 89.103 112.626 86.1621 113.637C86.1494 113.799 86.1103 113.949 86.0515 114.109C85.7073 115.008 84.6763 115.781 83.229 116.243Z" fill="#414141"/>
<path fill-rule="evenodd" clip-rule="evenodd" d="M103.862 92.8126L93.9596 89.1914L84.9074 81.8511L77.9138 78.292C74.5286 76.567 72.2072 73.9522 70.908 70.4073L68.5223 63.8923L56.7195 66.4259L53.941 73.2364C53.1889 75.0835 51.618 76.4765 49.6075 76.4935L44.9249 76.5561C44.4764 76.5585 44.0931 76.3767 43.8174 76.0279C43.5418 75.6791 43.4543 75.2618 43.5687 74.8362L47.9362 58.0948C48.2471 56.9102 48.9241 55.8368 50.0308 55.2885L68.0763 46.2884C68.4832 46.0794 68.9229 46.1812 69.3423 46.36L84.0729 52.7049C96.8884 58.2246 92.0965 59.5849 102.801 58.7695C106.042 58.5225 107.913 58.7586 112.952 59.0584C124.38 70.5155 117.188 83.8839 107.998 90.2923C107.997 90.2898 104.87 92.9046 103.862 92.8126Z" fill="white"/>
<path fill-rule="evenodd" clip-rule="evenodd" d="M103.985 91.9223C104.513 91.8154 106.07 90.7565 107.427 89.621C112.099 86.3569 117.257 80.4177 117.885 73.4041C118.32 68.5298 116.535 63.9928 112.559 59.9029L110.188 59.7477C107.093 59.5508 105.391 59.441 102.873 59.6372C96.0175 60.1606 95.2318 59.8171 92.2289 57.9304C90.6884 56.9629 88.3584 55.5008 83.7221 53.4965L68.994 47.1592C68.8185 47.0829 68.5941 47.0137 68.4704 47.0617L50.4248 56.0618C49.3774 56.5828 48.9491 57.695 48.7857 58.311L44.4182 75.0524C44.3722 75.2165 44.4025 75.3534 44.5099 75.4825C44.6147 75.6209 44.7349 75.6755 44.9112 75.6755L49.5989 75.6198C51.1001 75.6021 52.4444 74.5606 53.1235 72.9088L55.9003 66.0932C56.0115 65.8322 56.2531 65.6309 56.5326 65.5725L68.3354 63.0389C68.7617 62.9421 69.1968 63.1779 69.3477 63.589L71.7385 70.1109C72.9634 73.4625 75.1104 75.8822 78.3159 77.5181L85.3078 81.0721L94.4027 88.4213L103.985 91.9223ZM104.542 93.5623C104.258 93.6529 104.002 93.6954 103.779 93.6737C103.7 93.6679 103.629 93.6511 103.556 93.6266L93.6532 90.0055C93.5602 89.9732 93.4751 89.9215 93.4013 89.8606L84.3465 82.5211L77.5094 79.067C73.9462 77.2494 71.4444 74.4386 70.0819 70.7082L67.9538 64.8972L57.3593 67.177L54.751 73.5581C53.8121 75.8794 51.8433 77.3432 49.6164 77.359L44.9337 77.4216C44.2096 77.4332 43.5664 77.1259 43.12 76.5583C42.6736 75.9907 42.5296 75.3039 42.7143 74.6134L47.0843 57.8712C47.4878 56.316 48.3953 55.121 49.6336 54.5052L67.6792 45.5051C68.5581 45.0606 69.406 45.4377 69.6916 45.555L84.4222 51.9C89.1864 53.9479 91.5843 55.4615 93.1717 56.4507C95.7756 58.0902 96.2494 58.384 102.738 57.8935C105.378 57.6891 107.129 57.8002 110.308 58.0099L112.999 58.1784C113.222 58.1915 113.425 58.2843 113.578 58.4384C118.029 62.9036 120.127 68.1324 119.64 73.5534C118.954 81.1687 113.435 87.5591 108.498 91.009C107.517 91.8385 105.791 93.163 104.542 93.5623Z" fill="#414141"/>
<path fill-rule="evenodd" clip-rule="evenodd" d="M89.0535 110.029C89.0457 110.031 89.0355 110.035 89.0252 110.038C84.3595 111.358 80.2396 111.271 76.4302 109.781C72.7702 108.338 65.7716 104.318 64.2215 103.365C63.8105 103.116 63.6813 102.579 63.9369 102.168C64.1907 101.76 64.7371 101.63 65.1489 101.882C66.6743 102.82 73.5281 106.762 77.0809 108.155C80.5176 109.505 84.2637 109.57 88.5433 108.357C89.0135 108.229 89.4961 108.498 89.632 108.959C89.7629 109.413 89.5041 109.885 89.0535 110.029Z" fill="#414141"/>
<path fill-rule="evenodd" clip-rule="evenodd" d="M94.6765 104.152C94.6713 104.154 94.6713 104.154 94.6662 104.156L94.298 104.265C90.7411 105.349 87.0598 106.469 82.7735 104.649C79.1546 103.106 69.187 98.5866 67.054 97.3801C66.6292 97.141 66.4794 96.6111 66.7213 96.1926C66.9598 95.781 67.4996 95.6225 67.9192 95.8632C70.0097 97.0439 79.8752 101.511 83.4659 103.046C87.1573 104.612 90.3767 103.636 93.78 102.596L94.1457 102.487C94.6117 102.347 95.1013 102.601 95.2433 103.055C95.386 103.52 95.1323 104.007 94.6765 104.152Z" fill="#414141"/>
<path fill-rule="evenodd" clip-rule="evenodd" d="M101.829 97.1918C101.796 97.2025 101.767 97.2115 101.736 97.2214C96.5993 98.2721 91.1832 99.13 86.3368 97.0914C82.4594 95.4617 73.8556 91.6903 72.002 90.4339C71.6015 90.1645 71.5007 89.6189 71.7766 89.2263C72.0475 88.8268 72.5988 88.721 72.9967 88.9912C74.5016 90.0152 82.1068 93.4182 87.0215 95.4829C91.4008 97.3269 96.3129 96.5456 101.378 95.5095C101.852 95.4114 102.318 95.7162 102.422 96.1906C102.513 96.6292 102.252 97.0567 101.829 97.1918Z" fill="#414141"/>
<path fill-rule="evenodd" clip-rule="evenodd" d="M85.448 113.887C85.4197 113.897 85.3914 113.906 85.3605 113.915C81.4201 114.747 76.4099 115.498 72.6088 113.858C69.4725 112.504 64.2535 110.046 62.4832 109.028C62.0636 108.787 61.9199 108.25 62.1661 107.836C62.4122 107.422 62.9443 107.274 63.3689 107.522C65.0447 108.485 70.2356 110.927 73.3088 112.261C76.6506 113.696 81.3078 112.987 84.9944 112.206C85.4635 112.101 85.9348 112.404 86.0355 112.871C86.1356 113.318 85.8704 113.752 85.448 113.887Z" fill="#414141"/>
<path fill-rule="evenodd" clip-rule="evenodd" d="M122.673 53.2698L113.684 51.355C110.648 51.0941 108.65 51.7017 105.997 53.125C101.974 55.6064 99.4832 58.6184 97.0002 62.5636C96.5861 63.2569 96.0654 64.1901 95.6956 64.9059C92.3558 71.3631 90.4802 79.1561 90.3959 86.3989C90.3507 90.1115 90.7486 93.3245 91.6609 96.8774C93.2449 102.127 95.7227 106.907 101.246 108.814L110.202 110.725L122.673 53.2698Z" fill="#2B7CFF"/>
<path fill-rule="evenodd" clip-rule="evenodd" d="M109.239 52.6352C108.312 52.9317 107.411 53.3522 106.415 53.8906C102.472 56.3296 100.089 59.307 97.7511 63.0254C97.3536 63.6909 96.8434 64.6038 96.4798 65.3035C93.2628 71.527 91.3676 79.2248 91.277 86.4132C91.234 89.9926 91.6126 93.1469 92.5117 96.659C93.7972 100.913 95.9931 106.076 101.54 107.987L109.531 109.683L121.626 53.9399L113.507 52.2065C111.849 52.0658 110.522 52.2252 109.239 52.6352ZM110.474 111.549C110.332 111.594 110.176 111.604 110.022 111.569L101.066 109.666C94.6618 107.463 92.2301 101.811 90.8144 97.1228C89.8684 93.4227 89.4688 90.1257 89.5159 86.3928C89.6098 78.944 91.5737 70.9678 94.911 64.5114C95.2904 63.7728 95.8198 62.8227 96.2476 62.1193C98.3909 58.7112 100.996 55.1862 105.528 52.3814C108.193 50.9514 110.38 50.1904 113.767 50.4886L122.862 52.4172C123.092 52.4678 123.283 52.6011 123.417 52.7924C123.54 52.9955 123.582 53.2301 123.539 53.4553L111.065 110.903C110.997 111.218 110.765 111.456 110.474 111.549Z" fill="#414141"/>
<path fill-rule="evenodd" clip-rule="evenodd" d="M124.689 105.025C133.668 95.1888 137.612 76.9902 133.499 64.3583C129.388 51.7316 118.784 49.4678 109.804 59.307C100.835 69.1481 96.8918 87.3662 101.001 99.9853C105.113 112.617 115.721 114.866 124.689 105.025Z" fill="white"/>
<path fill-rule="evenodd" clip-rule="evenodd" d="M118.111 54.5733C115.523 55.4008 112.916 57.2012 110.461 59.8887C101.689 69.5119 97.8192 87.3711 101.838 99.7144C103.727 105.515 107.055 109.194 111.203 110.075C115.359 110.962 119.923 108.956 124.041 104.443C132.813 94.8193 136.678 76.9618 132.661 64.6261C130.773 58.8259 127.45 55.1444 123.289 54.2593C121.615 53.9039 119.865 54.0125 118.111 54.5733ZM116.924 111.422C114.88 112.076 112.825 112.203 110.841 111.784C106.045 110.766 102.253 106.665 100.164 100.25C95.9723 87.3753 100.009 68.7441 109.157 58.7216C113.713 53.7216 118.871 51.5285 123.666 52.552C128.459 53.5704 132.256 57.6695 134.345 64.085C138.534 76.9517 134.495 95.5752 125.349 105.605C122.681 108.536 119.811 110.499 116.924 111.422Z" fill="#414141"/>
<path fill-rule="evenodd" clip-rule="evenodd" d="M62.5231 113.263L56.6266 114.96C55.7213 115.218 54.8625 115.166 53.9994 114.777L52.8285 114.255C51.8128 113.799 51.1168 113.023 50.7743 111.972L50.0362 109.705L49.4925 109.729C48.6715 109.766 47.9477 109.569 47.257 109.125L44.9929 107.664C44.2734 107.201 43.7922 106.596 43.497 105.794L42.9224 104.231L42.2636 104.216C41.2695 104.184 40.4245 103.859 39.6699 103.21L38.0955 101.85C37.0524 100.952 36.3959 99.8963 36.0501 98.5637L35.8569 97.8306C33.2869 97.4826 30.9668 95.8849 30.1438 93.1039L29.6123 91.3318L28.6206 87.5702C28.1781 85.4426 28.769 84.7773 30.3973 84.1017C31.1439 83.7925 32.0392 83.6077 32.841 83.7037L33.9189 83.8354C34.8345 83.9401 35.3908 84.1991 36.2409 84.7926C36.9566 85.2966 37.4471 85.9037 37.7834 86.7094L38.0093 87.246L38.604 89.0374L39.8726 89.1786L41.411 89.8339C42.6861 90.3789 43.5632 91.3613 43.9476 92.6815L44.943 96.0529C45.5591 96.1462 46.0649 96.2326 46.7139 96.4704L48.2199 97.0262C49.5102 97.4959 50.6502 98.9015 51.0205 100.178L52.2271 104.364C53.654 103.979 54.4438 104.256 56.0519 104.872C57.1399 105.288 57.9374 106.008 58.4537 107.053L60.0909 110.334L62.5231 113.263Z" fill="white"/>
<path fill-rule="evenodd" clip-rule="evenodd" d="M31.1191 84.7671C30.9929 84.8074 30.8692 84.8554 30.7455 84.9034C29.5073 85.4234 29.1353 85.6692 29.4952 87.3947L30.9934 92.8518C31.6616 95.0961 33.5227 96.6291 35.9868 96.9659C36.3389 97.0168 36.6307 97.2758 36.7182 97.6143L36.9088 98.3482C37.2126 99.5082 37.7696 100.407 38.6795 101.193L40.2573 102.554C40.8582 103.072 41.5062 103.325 42.2976 103.345L42.9564 103.368C43.3123 103.379 43.631 103.606 43.7536 103.939L44.3257 105.495C44.5584 106.123 44.9221 106.576 45.48 106.936L47.7467 108.396C48.2851 108.739 48.8118 108.881 49.4598 108.863L50.006 108.837C50.4041 108.82 50.762 109.072 50.8817 109.44L51.6172 111.708C51.8815 112.519 52.4167 113.115 53.2015 113.464L54.3724 113.986C55.037 114.29 55.6818 114.332 56.3872 114.131L61.0025 112.797L59.4257 110.896L57.6747 107.431C57.2582 106.598 56.6261 106.027 55.7437 105.684C54.1612 105.076 53.6066 104.901 52.4749 105.207C52.0098 105.333 51.5271 105.064 51.3955 104.599L50.1864 100.414C49.8683 99.3148 48.8763 98.1804 47.9279 97.8353L46.4245 97.2788C45.8564 97.0799 45.4002 96.9974 44.8208 96.9121C44.4842 96.8562 44.2049 96.6186 44.1114 96.2877L43.1186 92.9154C42.8046 91.8461 42.1154 91.0743 41.0815 90.6325L39.6564 90.0284L38.5152 89.9028C38.1707 89.8579 37.8853 89.6278 37.7746 89.3053L36.9851 87.0462C36.7072 86.3938 36.3216 85.9167 35.7377 85.503C34.9547 84.9585 34.543 84.7857 33.8249 84.7024L32.7471 84.5707C32.2667 84.5101 31.678 84.5884 31.1191 84.7671ZM62.7933 114.087C62.7856 114.09 62.7804 114.091 62.7727 114.094L56.8761 115.799C55.77 116.113 54.6855 116.04 53.6426 115.57L52.4717 115.048C51.2327 114.491 50.3571 113.523 49.939 112.238L49.4104 110.606C48.4552 110.624 47.5924 110.376 46.7835 109.857L44.5143 108.398C43.6349 107.828 43.0302 107.079 42.6666 106.094L42.2354 105.093C41.0326 105.049 40.007 104.65 39.0971 103.864L37.5218 102.51C36.3505 101.498 35.5903 100.281 35.2016 98.7813L35.1547 98.5934C32.2823 98.0066 30.1185 96.0771 29.3019 93.3419L28.7754 91.5767L27.7815 87.7904C27.202 85.0499 28.1861 84.0728 30.0618 83.2927C31.0156 82.8947 32.0604 82.7326 32.9452 82.8302L34.0283 82.9603C35.1746 83.0927 35.8652 83.4497 36.7527 84.0707C37.6129 84.6779 38.2032 85.4081 38.6057 86.3646L38.8265 86.8944L39.269 88.227L39.982 88.3035C40.0657 88.3162 40.1486 88.3348 40.2321 88.3729L41.7705 89.0282C43.291 89.6724 44.3374 90.8514 44.805 92.427L45.6428 95.2709C46.0853 95.3549 46.5173 95.4592 47.0282 95.6398L48.5342 96.1955C50.1937 96.8036 51.4702 98.532 51.8778 99.9323L52.8642 103.346C54.1357 103.19 55.0702 103.545 56.3764 104.055C57.6707 104.546 58.6388 105.423 59.2474 106.655L60.8871 109.944L63.202 112.705C63.3872 112.933 63.4511 113.234 63.3594 113.512C63.2822 113.79 63.0689 113.999 62.7933 114.087Z" fill="#414141"/>
<path fill-rule="evenodd" clip-rule="evenodd" d="M29.2565 86.9919L32.4231 88.1329L33.5548 92.5516C33.582 92.6613 33.4537 92.7389 33.3481 92.7727C33.2493 92.8184 32.9597 92.6714 32.8617 92.6238L31.4778 91.9191C31.0545 91.7106 30.5845 91.4549 30.4503 90.9989L29.2565 86.9919Z" fill="white"/>
<path fill-rule="evenodd" clip-rule="evenodd" d="M30.5954 88.4074L31.2925 90.758C31.3132 90.8303 31.5122 90.9696 31.8776 91.1488L32.3477 91.3874L31.6846 88.792L30.5954 88.4074ZM33.6203 93.6104C33.2185 93.7388 32.8263 93.5908 32.4608 93.4117L31.0744 92.7078C30.6145 92.4743 29.8454 92.086 29.6001 91.254L28.4107 87.2428C28.317 86.9289 28.4135 86.588 28.6528 86.3621C28.892 86.1362 29.2385 86.0649 29.5532 86.1756L32.7198 87.3167C32.9935 87.4152 33.2027 87.6386 33.2745 87.92L34.4087 92.3464C34.5183 92.7792 34.3384 93.3357 33.6752 93.5956C33.6563 93.5988 33.6383 93.6046 33.6203 93.6104Z" fill="#414141"/>
<path fill-rule="evenodd" clip-rule="evenodd" d="M34.9566 92.5573L38.5047 93.5509L39.7036 97.2941C39.7335 97.386 39.7258 97.4759 39.6814 97.5577C39.6377 97.6421 39.5671 97.6957 39.4769 97.7246L39.1112 97.8415C38.5216 98.0216 37.9462 97.9575 37.4195 97.6411L37.0502 97.4238C36.6009 97.1531 36.3015 96.7752 36.1428 96.2792L34.9566 92.5573Z" fill="white"/>
<path fill-rule="evenodd" clip-rule="evenodd" d="M36.2853 93.8405L36.9832 96.0189C37.0771 96.3158 37.2412 96.5142 37.5033 96.6728L37.8751 96.8978C38.1372 97.0564 38.4131 97.1091 38.6978 97.0491L37.8098 94.2607L36.2853 93.8405ZM39.2041 96.9013L39.2067 96.9005C39.2041 96.9013 39.2041 96.9013 39.2041 96.9013ZM39.7478 98.5624C39.7453 98.5633 39.7401 98.5649 39.7324 98.5674L39.377 98.681C38.5427 98.9393 37.7059 98.832 36.963 98.393L36.5937 98.1757C35.9598 97.7921 35.526 97.2459 35.3033 96.5532L34.1162 92.8287C34.0174 92.5165 34.1001 92.1856 34.3223 91.951C34.547 91.7242 34.8809 91.6315 35.1941 91.7202L38.7421 92.7139C39.0271 92.7947 39.2519 93.0047 39.3434 93.2855L40.5447 97.0364C40.6437 97.3402 40.6139 97.6767 40.4587 97.9687C40.314 98.249 40.0595 98.4628 39.7478 98.5624Z" fill="#414141"/>
<path fill-rule="evenodd" clip-rule="evenodd" d="M42.4861 99.0904L46.1291 100.358L47.2382 103.826C47.2656 103.91 47.257 104.006 47.2134 104.09C47.1672 104.175 47.0991 104.228 47.0064 104.258L46.6433 104.374C46.0588 104.552 45.4784 104.481 44.9517 104.165L44.5823 103.948C44.1305 103.678 43.8354 103.304 43.6724 102.804L42.4861 99.0904Z" fill="white"/>
<path fill-rule="evenodd" clip-rule="evenodd" d="M43.8601 100.492L44.5173 102.545C44.6111 102.842 44.7701 103.042 45.039 103.204L45.4057 103.422C45.6754 103.587 45.9437 103.634 46.2361 103.58L45.4227 101.038L43.8601 100.492ZM46.7373 103.425L46.7425 103.423C46.7399 103.424 46.7399 103.424 46.7373 103.425ZM47.2853 105.09C47.2801 105.092 47.2775 105.093 47.2698 105.095L46.9119 105.201C46.075 105.461 45.2407 105.361 44.5005 104.913L44.1338 104.694C43.4998 104.319 43.066 103.773 42.84 103.07L41.6486 99.3499C41.5497 99.0376 41.6361 98.6915 41.8754 98.4571C42.1104 98.2269 42.462 98.154 42.781 98.2606L46.4213 99.5376C46.6832 99.6258 46.8849 99.8347 46.9697 100.095L48.0762 103.564C48.1726 103.86 48.1462 104.198 47.998 104.485C47.8489 104.769 47.5969 104.991 47.2853 105.09Z" fill="#414141"/>
<path fill-rule="evenodd" clip-rule="evenodd" d="M50.3588 106.915L53.96 108.072L54.6852 111.146C54.7221 111.321 54.6219 111.502 54.4468 111.55L54.0554 111.675C53.4657 111.855 52.8929 111.79 52.3637 111.474L52.3441 111.458C51.9024 111.202 51.4532 110.215 51.2945 109.728L50.3588 106.915Z" fill="white"/>
<path fill-rule="evenodd" clip-rule="evenodd" d="M51.7397 108.278L52.1315 109.455C52.3111 109.998 52.6544 110.607 52.8108 110.72C53.1051 110.899 53.3983 110.944 53.7096 110.87L53.213 108.759L51.7397 108.278ZM54.7237 112.386C54.7212 112.387 54.7186 112.388 54.716 112.388L54.3246 112.505C53.4979 112.769 52.6636 112.67 51.9174 112.221C51.0417 111.706 50.5225 110.172 50.4625 109.997L49.5267 107.193C49.4203 106.874 49.5015 106.53 49.7365 106.3C49.9689 106.07 50.318 105.981 50.6303 106.084L54.2366 107.248C54.5292 107.343 54.752 107.582 54.821 107.882L55.5463 110.956C55.6815 111.581 55.3289 112.192 54.7237 112.386Z" fill="#414141"/>
<path fill-rule="evenodd" clip-rule="evenodd" d="M38.6142 89.0314C38.0376 89.2778 37.5742 89.4964 37.2076 89.7067C36.2903 90.2339 35.1739 90.9883 34.8185 91.9927C34.4736 92.9683 35.5883 96.6539 35.8654 97.828C34.1718 93.0197 32.3498 90.7074 38.6142 89.0314Z" fill="white"/>
<path fill-rule="evenodd" clip-rule="evenodd" d="M36.1366 98.6629C36.1263 98.6662 36.1186 98.6686 36.1109 98.6711C35.6587 98.7931 35.1878 98.5519 35.0353 98.1187C34.8338 97.5433 34.631 97.0077 34.4347 96.5011C33.5902 94.2653 32.9208 92.5063 33.7239 90.9557C34.3543 89.7394 35.8003 88.8881 38.3813 88.1869C38.8283 88.0665 39.2889 88.311 39.4414 88.7358C39.5998 89.1699 39.3891 89.6404 38.968 89.8229C38.4299 90.0655 37.995 90.2665 37.6499 90.4643C37.2316 90.7079 35.9529 91.4353 35.6563 92.2884C35.4802 92.8915 36.2118 95.6538 36.4834 96.6888C36.5841 97.0766 36.6725 97.4007 36.7251 97.632C36.8269 98.0757 36.5719 98.5237 36.1366 98.6629Z" fill="#414141"/>
<path fill-rule="evenodd" clip-rule="evenodd" d="M45.086 68.1387L47.4843 67.6622C47.6995 67.616 47.9018 67.6697 48.0699 67.8104C49.1167 68.6849 46.1943 74.3547 45.717 75.4826L42.7185 75.8184C42.9698 73.3591 43.3879 71.0015 44.5601 68.6282C44.6779 68.3876 44.8296 68.1982 45.086 68.1387Z" fill="white"/>
<path fill-rule="evenodd" clip-rule="evenodd" d="M43.719 74.8249L45.1171 74.6654C45.1696 74.5556 45.2298 74.4349 45.2953 74.2956C46.9957 70.6626 47.4226 69.1618 47.4259 68.5604L45.3713 68.9749C44.3744 71.0046 43.9568 72.9703 43.719 74.8249ZM45.9896 76.3144C45.9303 76.3334 45.8764 76.3422 45.813 76.3484L42.817 76.6834C42.5566 76.7131 42.2896 76.618 42.0997 76.4364C41.9098 76.2462 41.8147 75.9891 41.8437 75.729C42.0812 73.3755 42.4821 70.8515 43.7678 68.2418C44.0382 67.71 44.4213 67.3845 44.9083 67.2908L47.3041 66.8067C47.786 66.7061 48.2607 66.8278 48.6317 67.1376C49.8168 68.1314 48.9751 70.5765 46.8903 75.0286C46.7226 75.3782 46.5985 75.6518 46.5267 75.8242C46.4294 76.0582 46.2291 76.2379 45.9896 76.3144Z" fill="#414141"/>
<path fill-rule="evenodd" clip-rule="evenodd" d="M44.9547 96.0463C43.6509 96.6182 42.1081 97.5737 41.8792 98.9491C41.7325 99.8783 42.6863 103.122 42.9255 104.232C41.6426 100.764 39.5071 97.5062 44.9547 96.0463Z" fill="white"/>
<path fill-rule="evenodd" clip-rule="evenodd" d="M43.199 105.064C43.1887 105.067 43.1784 105.07 43.1681 105.074C42.7236 105.202 42.2603 104.967 42.0967 104.534C41.9432 104.124 41.7838 103.712 41.6224 103.313C40.8493 101.393 40.052 99.4067 40.9061 97.7073C41.4863 96.555 42.7455 95.724 44.7223 95.2018C45.1693 95.0815 45.629 95.3234 45.7824 95.7508C45.9357 96.1866 45.7301 96.6554 45.3115 96.8456C43.786 97.5137 42.8772 98.3117 42.7499 99.0909C42.6611 99.5956 43.212 101.759 43.4792 102.807C43.607 103.313 43.7208 103.758 43.7821 104.06C43.8781 104.494 43.6214 104.929 43.199 105.064Z" fill="#414141"/>
<path fill-rule="evenodd" clip-rule="evenodd" d="M52.1511 104.4C48.9649 105.653 49.3882 107.023 50.0673 109.824C48.908 106.5 48.2501 105.492 52.1511 104.4Z" fill="white"/>
<path fill-rule="evenodd" clip-rule="evenodd" d="M50.3107 110.553C50.3055 110.554 50.3004 110.556 50.2901 110.559C49.8421 110.694 49.3891 110.551 49.2359 110.107L49.0201 109.497C48.4218 107.816 47.9927 106.604 48.5576 105.527C49.0058 104.667 49.9672 104.101 51.9169 103.556C52.3665 103.435 52.8399 103.684 52.9897 104.118C53.1395 104.56 52.9141 105.038 52.4777 105.209C50.0818 106.147 50.2332 106.778 50.8796 109.418C50.8862 109.447 50.8927 109.484 50.9017 109.521L50.9007 109.535C50.9394 109.96 50.7099 110.425 50.3107 110.553Z" fill="#414141"/>
<path fill-rule="evenodd" clip-rule="evenodd" d="M54.8429 64.0129C55.3204 64.6325 56.8551 66.1234 56.0353 68.1556C56.7205 66.7668 57.5932 66.3468 58.716 65.9963C56.856 66.1174 55.8596 64.8125 54.8429 64.0129Z" fill="white"/>
<path fill-rule="evenodd" clip-rule="evenodd" d="M56.3088 68.9897C56.1105 69.0531 55.8863 69.0458 55.6835 68.9557C55.2497 68.7674 55.0457 68.2717 55.2211 67.8323C55.7199 66.596 55.0649 65.6498 54.3492 64.7878L54.1487 64.5475C53.8757 64.1894 53.9112 63.7045 54.2248 63.3928C54.5436 63.0795 55.0412 63.0529 55.3962 63.3312C55.6018 63.491 55.8096 63.6754 56.0218 63.864C56.7974 64.5519 57.5264 65.1926 58.6619 65.117C59.1063 65.0933 59.503 65.3949 59.5819 65.8291C59.6633 66.2625 59.4119 66.6868 58.9895 66.8218C57.9646 67.2285 57.3493 67.4957 56.8292 68.5358C56.7217 68.7646 56.5277 68.9197 56.3088 68.9897Z" fill="#414141"/>
<path fill-rule="evenodd" clip-rule="evenodd" d="M70.8295 61.5789C69.8581 62.5688 69.5764 63.1098 66.658 64.2854C69.1518 63.753 68.6152 64.8124 69.3628 66.1828C68.6894 63.8613 69.9384 63.0251 70.8295 61.5789Z" fill="white"/>
<path fill-rule="evenodd" clip-rule="evenodd" d="M69.6301 67.008C69.2283 67.1365 68.7858 66.9651 68.5849 66.5924C68.3721 66.201 68.2448 65.8274 68.1392 65.5032C68.0793 65.3278 68.0012 65.0878 67.9521 65.0331C67.9418 65.0364 67.7055 64.9569 66.8454 65.1361C66.3985 65.2395 65.9518 64.9765 65.8164 64.5434C65.6811 64.1103 65.9063 63.6493 66.3274 63.4752C68.7269 62.5135 69.1583 62.057 69.869 61.3055L70.1992 60.966C70.5103 60.6466 71.0164 60.6117 71.369 60.8823C71.7258 61.1572 71.8186 61.6518 71.5856 62.0279C71.3831 62.3491 71.1662 62.6524 70.9503 62.9498C70.234 63.9286 69.8004 64.5182 70.212 65.9397C70.3355 66.3625 70.1129 66.8142 69.6945 66.9874C69.6687 66.9957 69.6507 67.0014 69.6301 67.008Z" fill="#414141"/>
</g>
<defs>
<clipPath id="clip0_1224_10737">
<rect width="140" height="132" fill="white"/>
</clipPath>
</defs>
</svg>
