<svg width="140" height="132" viewBox="0 0 140 132" fill="none" xmlns="http://www.w3.org/2000/svg">
<g clip-path="url(#clip0_1223_6974)">
<path fill-rule="evenodd" clip-rule="evenodd" d="M101.218 90.2708V77.7857C101.218 67.8003 88.9944 64.1774 80.5453 63.4472C79.8286 64.9187 79.098 66.3901 78.3314 67.8003C84.9567 79.7838 79.2861 105.451 71.9662 116.292C88.5516 106.672 101.215 93.93 101.218 90.2708ZM37.6304 75.0657L37.2263 74.6421C37.3592 74.7842 37.5031 74.9208 37.6304 75.0657ZM52.2066 93.0159C56.1945 102.229 54.2628 112.245 63.3152 120.862C48.4235 127.816 31.8187 131.126 18.6816 123.496C14.6217 121.135 14.1485 120.152 14.1513 116.392C14.154 112.633 14.0627 108.801 14.1956 105.077C14.893 98.5729 18.1973 94.1641 22.3845 89.4153C27.0698 84.2763 32.9257 80.1322 37.1848 74.603C41.9006 79.9789 49.5554 86.8848 52.2066 93.0159Z" fill="white"/>
<path fill-rule="evenodd" clip-rule="evenodd" d="M100.095 90.2708V77.7857C100.095 73.976 98.0827 71.178 95.1824 69.1659C91.2775 66.457 85.7731 65.1277 81.2068 64.6484L80.4595 66.156L79.6127 67.8031C82.5241 73.544 82.9337 81.9297 81.8267 90.3935C80.7474 98.6231 78.229 106.984 75.1571 113.048C80.6623 109.59 85.882 105.692 90.7656 101.39C96.5468 96.2431 100.106 91.943 100.106 90.2708H100.095ZM102.347 77.7857V90.2708C102.347 92.5533 98.5034 97.5167 92.2489 103.09C86.1604 108.455 79.5666 113.209 72.5612 117.284C72.3775 117.389 72.1683 117.441 71.9572 117.433C71.746 117.425 71.5412 117.358 71.3657 117.239C71.1198 117.071 70.9503 116.811 70.8943 116.517C70.8382 116.223 70.9003 115.919 71.0668 115.67C74.9412 109.946 78.3258 99.9552 79.6182 90.1064C80.7031 81.821 80.2935 73.6862 77.4043 68.3995C77.3011 68.2302 77.2437 68.0367 77.2379 67.8382C77.2321 67.6397 77.278 67.4431 77.3711 67.268C77.7557 66.5518 78.1238 65.8411 78.4781 65.1416L79.5158 63.0459C79.6039 62.817 79.7629 62.6228 79.9694 62.4923C80.1758 62.3617 80.4186 62.3017 80.6616 62.3213C85.6679 62.7533 91.9832 64.1857 96.4859 67.3098C99.9618 69.7177 102.369 73.1121 102.367 77.7912L102.347 77.7857ZM38.0289 73.8562L38.4329 74.2826L38.4163 74.2965C39.5233 75.5367 40.7964 76.8771 42.1137 78.265C46.406 82.7853 51.1937 87.8295 53.2388 92.5505C54.6807 95.8947 55.3643 99.278 56.0478 102.672C57.2517 108.656 58.461 114.656 64.0734 120.004C64.2141 120.128 64.3215 120.286 64.3859 120.464C64.4503 120.641 64.4697 120.831 64.4422 121.018C64.4146 121.204 64.3411 121.381 64.2284 121.531C64.1156 121.682 63.9672 121.802 63.7967 121.88C55.6576 125.689 46.9816 128.423 38.6128 128.919C31.387 129.348 24.3853 128.114 18.1337 124.477C15.9363 123.195 14.6909 122.247 13.9548 121.066C13.1716 119.826 13.0277 118.482 13.0277 116.392V113.132C13 110.439 12.9779 107.722 13.072 105.083V104.958C13.4048 101.803 14.4041 98.7566 16.0027 96.0229C17.4971 93.4172 19.4095 91.0762 21.5376 88.6628L21.5515 88.6489C23.533 86.4751 25.7442 84.4686 27.9498 82.4481C30.9138 79.7476 33.8833 77.0416 36.2909 73.9119C36.353 73.8317 36.4256 73.7605 36.5068 73.7001C36.733 73.53 37.0144 73.4516 37.2953 73.4805C37.5762 73.5094 37.836 73.6435 38.0234 73.8562H38.0289ZM51.1909 93.4562C49.3063 89.1004 44.6597 84.2094 40.5002 79.8257C39.3656 78.6301 38.2641 77.468 37.2457 76.3504C34.9044 79.1791 32.1896 81.6455 29.4775 84.1258C27.3327 86.0766 25.1907 88.0274 23.2396 90.1677C21.1834 92.5003 19.3486 94.741 17.9676 97.1516C16.5318 99.6065 15.6335 102.342 15.333 105.175C15.2389 107.792 15.2555 110.47 15.2749 113.123V116.392C15.2749 118.064 15.3662 119.084 15.8533 119.867C16.3625 120.703 17.3837 121.436 19.2434 122.518C25.0827 125.901 31.661 127.063 38.4606 126.659C46.0269 126.21 53.892 123.844 61.3724 120.494C56.2305 114.979 55.0322 109.04 53.8394 103.116C53.1863 99.8493 52.5304 96.5831 51.1909 93.4562Z" fill="#3C3C3C"/>
<path fill-rule="evenodd" clip-rule="evenodd" d="M37.1848 74.6031C37.8269 73.767 39.6949 71.8413 40.2069 70.9801C41.2198 69.2551 41.181 68.5918 41.3913 66.5657C50.0203 76.6208 70.3113 82.5234 78.1044 68.2546C80.3184 73.5496 74.028 83.7552 65.9691 86.7873C60.0412 89.0168 51.0249 87.6233 46.4392 83.443L38.6903 76.3337L37.1848 74.6031Z" fill="white"/>
<path fill-rule="evenodd" clip-rule="evenodd" d="M36.3186 73.884C36.5953 73.5134 37.0049 73.0703 37.4256 72.5853C38.0737 71.8947 38.6773 71.1631 39.2327 70.3949C40.0104 69.0711 40.063 68.4441 40.2041 67.0506L40.2678 66.4347C40.2893 66.2145 40.3744 66.0055 40.5127 65.8335C40.6509 65.6616 40.8362 65.5342 41.0456 65.4672C41.255 65.4001 41.4793 65.3964 41.6908 65.4564C41.9023 65.5165 42.0916 65.6376 42.2354 65.8049C44.4082 68.2621 46.9914 70.3174 49.8681 71.8775C53.7591 74.0317 58.1953 75.4279 62.4489 75.5784C66.6195 75.7261 70.6129 74.6783 73.7235 71.9722C75.0975 70.7594 76.2447 69.3088 77.1109 67.6888C77.2552 67.4253 77.4972 67.2302 77.7841 67.1461C78.0709 67.062 78.3792 67.0958 78.6413 67.2401C78.8733 67.3664 79.0529 67.572 79.1478 67.8198L79.2612 68.1264C80.299 71.0721 79.2612 75.1186 76.9144 78.8279C74.6119 82.4759 71.0336 85.8704 66.9654 87.5871L66.3566 87.8267C63.1685 89.0251 59.1612 89.2453 55.3725 88.5959C51.6503 87.9577 48.0969 86.4779 45.6864 84.254L37.9376 77.1475L36.3463 75.3388C36.1693 75.137 36.0695 74.8783 36.065 74.6091C36.0604 74.3399 36.1513 74.0779 36.3214 73.8701L36.3186 73.884ZM39.1137 74.093L38.6737 74.5919L39.479 75.5116L47.1947 82.593C49.2924 84.5159 52.428 85.8063 55.7462 86.3748C59.175 86.9628 62.7644 86.7789 65.5762 85.7226L66.1047 85.5081C69.7273 83.9809 72.9376 80.9237 75.0159 77.6268C76.3665 75.4865 77.2299 73.2765 77.4015 71.3703C76.7393 72.2156 75.9979 72.9949 75.1875 73.6973C71.6092 76.813 67.0706 78.0197 62.3659 77.8525C57.7443 77.6881 52.9566 76.1804 48.7777 73.8785C46.3905 72.565 44.1806 70.9484 42.2022 69.0683C42.0016 69.9494 41.6504 70.7886 41.1644 71.5486C40.7963 72.1952 39.8997 73.2068 39.1137 74.093Z" fill="#3C3C3C"/>
<path fill-rule="evenodd" clip-rule="evenodd" d="M73.3306 75.0601C76.5934 71.8998 79.2529 66.1422 81.7962 60.8973C85.2611 53.7211 85.0839 45.5472 85.1255 38.9507L83.9355 35.049C83.5093 33.4327 83.4761 31.7048 83.4456 30.0745C83.4069 27.9342 83.3681 25.9527 82.2722 24.9466C80.5176 23.3275 77.7419 25.7827 74.4846 28.6978C72.2706 30.6709 69.8546 32.814 67.2283 34.3384C64.602 35.8628 62.1998 36.5177 59.9803 37.1253C57.8383 37.7077 55.9067 38.24 54.3347 39.5638C51.8855 41.64 51.9935 43.326 52.0377 46.2913C52.0765 49.0977 52.2232 51.865 50.5239 57.8261C50.328 56.3026 49.945 54.8096 49.3838 53.3811C46.3091 45.876 38.9449 48.5013 39.1027 55.6384C39.1242 56.3612 39.2169 57.08 39.3794 57.7843C39.8277 59.7769 40.9402 62.0928 41.8507 63.804C42.1441 64.3613 41.7649 65.8551 41.502 66.68C47.7371 73.7921 56.7895 78.6636 63.9959 78.6636C67.1923 78.6441 70.9755 77.3314 73.3306 75.0601Z" fill="white"/>
<path fill-rule="evenodd" clip-rule="evenodd" d="M72.5391 74.2464C75.4366 71.4372 77.9162 66.3094 80.2658 61.4463L80.7695 60.4012C83.9355 53.8771 83.9687 46.3693 83.9963 40.1183V39.1262L82.8478 35.3277C82.6251 34.4479 82.4816 33.5497 82.4189 32.644C82.358 31.8246 82.3386 30.9412 82.3248 30.08C82.3319 29.1387 82.2718 28.198 82.1449 27.2653C82.0342 26.6104 81.846 26.0781 81.5139 25.7743L81.4724 25.7325C81.0462 25.3925 80.3654 25.5904 79.5103 26.092C78.2843 26.8138 76.8148 28.1209 75.229 29.5338H75.2097C72.9569 31.5404 70.505 33.7141 67.7873 35.2943C65.0697 36.8744 62.5596 37.5684 60.2792 38.1898H60.2626C59.2741 38.4405 58.2988 38.7409 57.3402 39.09C56.5082 39.3958 55.7328 39.8395 55.046 40.4026C53.0894 42.0747 53.1087 43.5072 53.1447 45.9596L53.1586 46.6842C53.2028 49.4349 53.2527 52.3053 51.5977 58.1104C51.531 58.3708 51.3745 58.5989 51.1562 58.7539C50.938 58.9089 50.6721 58.9807 50.4061 58.9566C50.1401 58.9325 49.8913 58.814 49.704 58.6222C49.5168 58.4305 49.4033 58.178 49.3838 57.9097C49.2858 57.2047 49.1519 56.5052 48.9825 55.814C48.8141 55.1226 48.5958 54.4445 48.3294 53.7852C47.5157 51.7981 46.3921 50.6555 45.263 50.2012C44.6833 49.9659 44.0461 49.9143 43.4365 50.0535C42.8057 50.2078 42.2304 50.5371 41.776 51.0039C40.8074 51.9681 40.1654 53.5539 40.2096 55.5911C40.2161 55.9051 40.2392 56.2186 40.2788 56.5302C40.3203 56.8479 40.3812 57.1768 40.4532 57.5084C40.6978 58.5082 41.0312 59.4839 41.4495 60.4235C41.895 61.4518 42.3821 62.4245 42.8166 63.241C43.0557 63.7832 43.1271 64.3853 43.0214 64.9689V65.0051C42.9603 65.4652 42.8678 65.9206 42.7446 66.3679C45.6692 69.5874 49.1146 72.2843 52.9344 74.3439C56.712 76.3532 60.5837 77.5154 63.9821 77.5126C65.5985 77.4888 67.198 77.1765 68.7061 76.5901C70.1253 76.0696 71.428 75.2711 72.5391 74.2408V74.2464ZM82.2916 62.4412C79.859 67.4715 77.2936 72.7805 74.0971 75.8767C72.7692 77.1189 71.2096 78.0832 69.5087 78.7137C67.7418 79.3992 65.8671 79.7598 63.9738 79.7783C60.1962 79.7783 55.962 78.527 51.8772 76.3532C47.6506 74.0787 43.8577 71.0679 40.6746 67.4603C40.5311 67.314 40.4297 67.1313 40.381 66.9316C40.3322 66.7319 40.3381 66.5227 40.3978 66.3261C40.567 65.8111 40.692 65.2824 40.7714 64.7459L40.824 64.3335C40.3508 63.4361 39.825 62.3827 39.3739 61.3404C38.9014 60.271 38.5254 59.1611 38.2503 58.024C38.1613 57.6311 38.092 57.2339 38.0427 56.834C37.9925 56.442 37.9629 56.0475 37.9542 55.6524C37.8933 52.9491 38.8093 50.7837 40.1903 49.4098C40.9473 48.6474 41.9012 48.1135 42.9439 47.8686C43.9933 47.6261 45.0913 47.7127 46.0905 48.1167C47.7648 48.7799 49.345 50.3322 50.416 52.9463L50.4769 53.0996C50.853 51.0069 50.9997 48.8789 50.9142 46.7539V46.0293C50.8671 42.9024 50.8394 41.0603 53.6152 38.7054C54.4853 37.9771 55.4703 37.4007 56.5293 36.9998C57.5445 36.6231 58.5792 36.3021 59.6289 36.0384L59.6981 36.0161C61.8511 35.4308 64.1896 34.7926 66.6693 33.3518C69.1489 31.911 71.5566 29.7818 73.7346 27.845C75.3951 26.354 76.9587 24.9773 78.3729 24.144C80.097 23.1268 81.6385 22.8843 82.953 24.0353L83.0305 24.0994C83.7888 24.7961 84.1735 25.7715 84.3644 26.8863C84.5099 27.9341 84.5784 28.9914 84.5692 30.0494C84.583 30.8241 84.5996 31.6212 84.6661 32.4767C84.715 33.2452 84.8345 34.0074 85.0231 34.7536L86.1992 38.6246C86.2329 38.7338 86.2497 38.8475 86.249 38.9618V40.1267C86.2214 46.6229 86.1854 54.4206 82.8036 61.3933L82.2916 62.4412Z" fill="#3C3C3C"/>
<path fill-rule="evenodd" clip-rule="evenodd" d="M33.5428 21.1398C27.792 31.7577 31.4091 60.8109 41.336 67.1231C41.538 66.5936 42.1994 64.4867 41.8369 63.804C40.9264 62.0928 39.8139 59.7769 39.3656 57.7843C37.2069 48.2086 48.5286 43.719 50.5156 57.8261C52.2149 51.8622 52.0682 49.0976 52.0294 46.2913C51.9852 43.326 51.8772 41.64 54.3264 39.5638C55.8983 38.2316 57.83 37.7077 59.972 37.1252C62.186 36.5205 64.5992 35.8656 67.22 34.3384C69.8408 32.8112 72.2568 30.6708 74.4763 28.6977C77.7336 25.7966 80.5093 23.3274 82.2639 24.9466C83.3709 25.9527 83.3986 27.9341 83.4373 30.0745C83.4677 31.7131 83.501 33.4187 83.9271 35.049L85.1171 38.9646C85.452 33.7977 85.3385 27.8171 84.6273 22.9094C83.2436 13.4341 79.037 13.0634 67.4248 6.88212C65.5817 5.88721 63.174 4.24853 59.5818 4.13705C50.8311 3.86394 37.8573 14.1252 33.5428 21.1398Z" fill="#2B7CFF"/>
<path fill-rule="evenodd" clip-rule="evenodd" d="M34.517 21.7027C31.6582 26.9977 31.2431 37.2005 32.8565 46.6675C34.1877 54.5292 36.8942 61.8141 40.7161 65.2253L40.7825 64.8574L40.8517 64.3279C40.3785 63.4361 39.8526 62.3938 39.4015 61.3404L39.3711 61.2595C38.9069 60.2165 38.5364 59.1336 38.2641 58.024C37.3979 54.192 38.4966 51.0373 40.3702 49.276C41.1573 48.5203 42.1424 48.0069 43.2096 47.7962C44.3035 47.5928 45.4333 47.744 46.4364 48.2281C47.989 48.9666 49.4474 50.5301 50.4686 53.1024C50.8483 51.0091 50.9977 48.8801 50.9142 46.7539V46.0293C50.8671 42.8996 50.8394 41.0603 53.6152 38.7054C54.4853 37.9771 55.4703 37.4007 56.5293 36.9998C57.5623 36.6184 58.6145 36.2919 59.6815 36.0216H59.6981C61.8512 35.4336 64.1897 34.7954 66.6693 33.3546C69.1489 31.9138 71.5566 29.7846 73.7346 27.8477L73.7512 27.8338C75.4117 26.3512 76.9642 24.9773 78.3729 24.1468C80.1302 23.1101 81.6938 22.8788 83.0277 24.105C83.3288 24.3798 83.5814 24.7039 83.7749 25.0637C83.6993 24.3837 83.6154 23.7185 83.5231 23.0683C82.4632 15.7471 79.4937 14.2534 72.1406 10.5636C70.6157 9.79718 68.9026 8.93882 66.9101 7.87702L66.0383 7.39768C64.411 6.48916 62.3438 5.35491 59.5514 5.26573C55.8015 5.15146 51.1411 7.14965 46.7796 10.0034C41.538 13.4201 36.8001 18.0296 34.517 21.7027ZM30.6425 47.0632C28.9627 37.1447 29.4608 26.3512 32.5798 20.613L32.6102 20.5601C35.0068 16.6083 40.0381 11.7006 45.5536 8.09997C50.2583 5.03442 55.367 2.8718 59.6123 3.00557C62.9554 3.10869 65.3049 4.39344 67.1287 5.41622L67.9589 5.87048C69.8325 6.86818 71.5843 7.74883 73.1479 8.53194C81.251 12.6008 84.5222 14.2422 85.7537 22.745C86.1103 25.3255 86.3228 27.9242 86.3902 30.5287C86.4788 33.4215 86.4262 36.3449 86.2518 39.0342C86.2366 39.2997 86.1291 39.5512 85.9482 39.7448C85.7672 39.9383 85.5244 40.0615 85.2622 40.0928C85 40.1241 84.7353 40.0614 84.5145 39.9157C84.2936 39.77 84.1308 39.5507 84.0545 39.2962L82.8478 35.3277C82.6251 34.4479 82.4816 33.5497 82.4189 32.6439C82.358 31.8246 82.3386 30.9412 82.3248 30.08C82.3319 29.1386 82.2718 28.198 82.1449 27.2653C82.0342 26.6104 81.846 26.0781 81.5139 25.7743C81.0933 25.3786 80.3903 25.5737 79.5103 26.092C78.2843 26.8138 76.8148 28.1209 75.229 29.5338C72.968 31.5459 70.5244 33.7141 67.7873 35.3082C65.0503 36.9023 62.5984 37.5739 60.3318 38.1898L60.2626 38.2093C59.2739 38.4578 58.2984 38.7573 57.3402 39.1067C56.5082 39.4126 55.7328 39.8562 55.046 40.4193C53.0894 42.0775 53.1088 43.5239 53.1447 45.9708L53.1586 46.7009C53.2029 49.4516 53.2527 52.322 51.5977 58.1271C51.5262 58.3765 51.3718 58.5936 51.1605 58.7422C50.9491 58.8909 50.6935 58.962 50.4364 58.9437C50.1792 58.9254 49.9361 58.8189 49.7475 58.6419C49.559 58.4649 49.4364 58.2281 49.4004 57.971C48.7666 53.4619 47.1864 51.0819 45.4816 50.2765C44.9064 49.9945 44.2569 49.9046 43.6274 50.0201C42.9805 50.154 42.3845 50.47 41.9089 50.9314C40.5611 52.1994 39.7945 54.5543 40.4615 57.5251C40.6986 58.4967 41.0209 59.4452 41.4246 60.3594L41.4633 60.4402C41.9033 61.4686 42.3932 62.444 42.8277 63.2605C43.1044 63.7705 43.1044 64.4784 43.002 65.1918C42.8719 65.9708 42.6699 66.7358 42.3987 67.477C42.3716 67.5612 42.3344 67.6416 42.288 67.7167C42.1281 67.9702 41.8751 68.1497 41.5842 68.2161C41.2933 68.2824 40.9882 68.2301 40.7355 68.0706C35.6765 64.8685 32.1951 56.285 30.6287 47.0493L30.6425 47.0632Z" fill="#3C3C3C"/>
<path fill-rule="evenodd" clip-rule="evenodd" d="M67.018 84.3516C52.6079 83.0501 44.6957 82.6795 37.1848 74.5975C41.8895 79.9706 49.5553 86.8598 52.2066 92.9909C56.1945 102.204 54.26 112.22 63.3151 120.837L71.9883 116.284C78.7299 106.591 85.4133 80.5754 78.3535 67.792L78.11 68.2379C78.8295 75.1075 73.3278 78.3877 68.0364 83.7552L67.0235 84.3432L67.018 84.3516Z" fill="#2B7CFF"/>
<path fill-rule="evenodd" clip-rule="evenodd" d="M66.9211 85.4914L65.0143 85.3214C56.7756 84.5912 50.6983 84.0478 45.5121 81.9047C48.714 85.405 51.725 89.0725 53.2388 92.5645C54.6807 95.9087 55.3642 99.292 56.0478 102.686C57.2129 108.472 58.3807 114.274 63.5199 119.483L71.2217 115.439C74.8194 110.119 78.3867 100.044 79.7068 89.9727C80.537 83.6186 80.4789 77.298 78.9596 72.2342C78.0103 75.9547 75.1432 78.6217 71.8749 81.6594C70.873 82.5903 69.8297 83.5601 68.8307 84.5745C68.7443 84.6639 68.6432 84.7374 68.5318 84.7919L67.5798 85.3493C67.3807 85.4631 67.152 85.5136 66.9239 85.4942L66.9211 85.4914ZM65.2081 83.0668L66.7634 83.2061L67.3335 82.8773C68.3657 81.835 69.3786 80.8958 70.35 79.9901C74.2493 76.3672 77.5066 73.3378 76.9919 68.3772C76.9689 68.1495 77.0152 67.9201 77.1247 67.7195L77.3655 67.2708C77.4684 67.084 77.6207 66.9297 77.8055 66.8249C78.0661 66.6793 78.3734 66.6439 78.6599 66.7265C78.9464 66.8091 79.1886 67.0029 79.3332 67.2653C82.6043 73.1846 83.0582 81.7347 81.9401 90.2653C80.5564 100.828 76.7456 111.446 72.9154 116.961C72.811 117.109 72.6736 117.23 72.5141 117.315L63.888 121.843C63.6786 121.966 63.4353 122.018 63.1943 121.99C62.9534 121.963 62.7278 121.857 62.5513 121.69C56.4103 115.838 55.129 109.478 53.8504 103.129C53.1918 99.8633 52.5359 96.5943 51.1826 93.4702C49.2979 89.1143 44.6542 84.2234 40.4919 79.8396C39.0334 78.304 37.6331 76.827 36.3961 75.4196L36.3684 75.389C36.1651 75.1672 36.0576 74.8733 36.0695 74.5717C36.0814 74.2701 36.2118 73.9857 36.432 73.781C36.6522 73.5762 36.9442 73.4679 37.2436 73.48C37.5431 73.492 37.8256 73.6233 38.0289 73.8451C44.8839 81.2358 52.2674 81.8963 65.2081 83.0529V83.0668Z" fill="#3C3C3C"/>
<path fill-rule="evenodd" clip-rule="evenodd" d="M78.3784 77.0555C78.506 76.7893 78.7317 76.5838 79.0075 76.4828C79.2833 76.3817 79.5874 76.393 79.8551 76.5143C80.1227 76.6356 80.3327 76.8574 80.4405 77.1323C80.5482 77.4072 80.5451 77.7136 80.4318 77.9863C79.5075 80.0319 77.6229 83.0835 75.5777 86.3943C74.5482 88.0664 73.4745 89.7999 72.5557 91.3494C72.4022 91.6065 72.1536 91.7918 71.8646 91.8645C71.5755 91.9371 71.2696 91.8912 71.0142 91.7367C70.8154 91.6199 70.6577 91.4436 70.5631 91.2323L67.7541 85.7115L64.8677 94.6295C64.7751 94.9156 64.5737 95.1531 64.3076 95.29C64.0415 95.4268 63.7324 95.4519 63.448 95.3597L50.9418 89.9308C50.799 89.8771 50.6684 89.7947 50.5582 89.6886C50.4479 89.5826 50.3601 89.4551 50.3002 89.3139C50.2403 89.1726 50.2095 89.0206 50.2097 88.8671C50.2098 88.7135 50.2409 88.5616 50.3012 88.4205C50.3614 88.2794 50.4494 88.1521 50.5599 88.0463C50.6704 87.9405 50.8011 87.8584 50.9441 87.8049C51.0871 87.7515 51.2393 87.7279 51.3916 87.7354C51.5439 87.743 51.6931 87.7817 51.8302 87.849L63.1159 92.7567L65.7782 84.5243C65.8233 84.3826 65.8959 84.2512 65.9917 84.1379C66.0875 84.0245 66.2046 83.9313 66.3363 83.8637C66.468 83.7961 66.6117 83.7554 66.7591 83.7439C66.9065 83.7325 67.0547 83.7505 67.1951 83.7969L67.2698 83.8248C67.3553 83.6291 67.4942 83.4618 67.6705 83.3425C67.8467 83.2232 68.0529 83.1568 68.2652 83.1509C68.4774 83.1451 68.687 83.2001 68.8694 83.3095C69.0518 83.419 69.1996 83.5783 69.2956 83.7691L71.6701 88.4454L73.6626 85.1959C75.6718 81.952 77.5177 78.9617 78.3784 77.0555Z" fill="#3C3C3C"/>
<path fill-rule="evenodd" clip-rule="evenodd" d="M63.3151 120.851L71.9883 116.297C71.8444 115.013 71.814 114.77 71.6728 113.566C70.945 107.413 70.7291 100.814 70.0124 94.2505C69.9792 93.9551 70.2891 91.4636 70.6406 88.8662L68.0447 83.7635L67.0318 84.3515L64.887 90.9815C65.4405 92.8459 65.9719 94.8079 65.9304 95.237C65.1721 102.94 64.3889 110.537 63.6306 117.883C63.5033 118.99 63.4314 119.692 63.3151 120.851Z" fill="white"/>
<path fill-rule="evenodd" clip-rule="evenodd" d="M64.6435 118.878L70.7845 115.654L70.552 113.703C70.1784 110.531 69.9377 107.237 69.6941 103.89C69.4644 100.741 69.232 97.5418 68.8805 94.3787C68.8849 93.7564 68.933 93.1353 69.0244 92.5198C69.1268 91.6448 69.2873 90.399 69.4644 89.0697L67.7597 85.7254L66.0522 91.0205C66.3289 91.943 66.5835 92.8766 66.7689 93.629C66.9391 94.1943 67.0322 94.7803 67.0457 95.3708C66.3077 102.802 65.5761 110.011 64.8511 116.997L64.6546 118.9L64.6435 118.878ZM72.5003 117.301L63.8493 121.843C63.6512 121.954 63.4242 122.001 63.1989 121.977C63.0518 121.963 62.909 121.919 62.7786 121.849C62.6482 121.779 62.5328 121.684 62.439 121.569C62.3452 121.454 62.2748 121.322 62.2318 121.18C62.1889 121.037 62.1743 120.888 62.1888 120.74L62.5956 116.746C63.3262 109.673 64.079 102.377 64.7902 95.1256C64.7357 94.7958 64.6636 94.4693 64.5743 94.1474C64.3834 93.367 64.09 92.3331 63.7911 91.3215C63.719 91.0978 63.719 90.8568 63.7911 90.6331L65.9359 84.0004C66.024 83.7343 66.2063 83.5101 66.4479 83.3705L67.5078 82.7574C67.7728 82.621 68.0808 82.596 68.3641 82.6879C68.6474 82.7799 68.8829 82.9813 69.0189 83.2479L71.5871 88.2977C71.7107 88.5155 71.7602 88.768 71.7282 89.0167C71.5483 90.3461 71.374 91.7033 71.2494 92.7734C71.1581 93.5621 71.1028 94.0805 71.1055 94.1251C71.4653 97.3523 71.6978 100.563 71.9358 103.723C72.1738 107.031 72.4145 110.292 72.7854 113.433L73.1009 116.175C73.1243 116.401 73.0796 116.63 72.9725 116.831C72.8655 117.032 72.7009 117.195 72.5003 117.301Z" fill="#3C3C3C"/>
<path fill-rule="evenodd" clip-rule="evenodd" d="M69.0687 93.1246C69.1443 92.9953 69.2447 92.8824 69.3641 92.7925C69.4835 92.7026 69.6194 92.6376 69.764 92.6011C69.9086 92.5647 70.0589 92.5576 70.2063 92.5802C70.3536 92.6028 70.495 92.6548 70.6223 92.733C70.7495 92.8112 70.86 92.9141 70.9473 93.0357C71.0347 93.1573 71.0971 93.2952 71.131 93.4414C71.1649 93.5876 71.1696 93.7391 71.1448 93.8871C71.12 94.0351 71.0662 94.1766 70.9865 94.3035C70.7414 94.7482 70.4004 95.1318 69.9885 95.426C69.5765 95.7202 69.1043 95.9176 68.6065 96.0035C67.7098 96.1623 66.6693 96.0035 65.4073 95.5158C65.128 95.4086 64.9025 95.1941 64.7802 94.9194C64.658 94.6448 64.6491 94.3325 64.7556 94.0513C64.862 93.77 65.075 93.5429 65.3477 93.4198C65.6205 93.2967 65.9306 93.2878 66.2099 93.395C67.0761 93.7294 67.7375 93.8548 68.219 93.7712C68.3992 93.733 68.5687 93.6553 68.7156 93.5435C68.8624 93.4317 68.983 93.2887 69.0687 93.1246Z" fill="#3C3C3C"/>
<path fill-rule="evenodd" clip-rule="evenodd" d="M41.4771 89.2955C41.4162 89.1583 41.3831 89.0102 41.3796 88.86C41.3762 88.7097 41.4025 88.5603 41.457 88.4204C41.5115 88.2805 41.5932 88.1529 41.6972 88.0451C41.8012 87.9374 41.9255 87.8515 42.0628 87.7927C42.2001 87.7338 42.3477 87.7031 42.497 87.7023C42.6462 87.7015 42.7941 87.7306 42.932 87.788C43.07 87.8454 43.1952 87.9299 43.3003 88.0366C43.4055 88.1433 43.4884 88.2699 43.5444 88.4093L47.7786 98.4002C47.8804 98.639 47.896 98.9062 47.8229 99.1554L46.8405 102.734L58.3863 120.26C58.4759 120.384 58.5396 120.525 58.5736 120.674C58.6076 120.824 58.6113 120.978 58.5843 121.129C58.5574 121.28 58.5003 121.424 58.4167 121.552C58.3331 121.68 58.2246 121.789 58.0977 121.874C57.9709 121.958 57.8283 122.016 57.6787 122.044C57.529 122.071 57.3754 122.068 57.227 122.034C57.0786 122.001 56.9386 121.937 56.8154 121.847C56.6921 121.757 56.5882 121.643 56.51 121.512L44.6736 103.556C44.5839 103.422 44.5243 103.269 44.499 103.11C44.4737 102.95 44.4832 102.786 44.5269 102.631L45.5453 98.9241L41.4771 89.2955Z" fill="#3C3C3C"/>
<path fill-rule="evenodd" clip-rule="evenodd" d="M70.5963 42.8885C75.6774 39.9539 80.7252 36.8995 85.8339 34.029C86.5175 33.6416 87.0046 33.3852 87.6439 33.5608L87.7241 33.5859C88.4077 33.8061 88.7564 34.3829 88.8837 35.5646C88.9944 37.6965 88.8837 40.0932 88.8837 42.2531C88.8778 42.8011 88.7939 43.3454 88.6346 43.8694C88.4793 44.3852 88.2687 44.8823 88.0064 45.3521L87.9095 45.5276C87.6332 45.9994 87.3055 46.4387 86.9326 46.8375C86.5603 47.2405 86.1325 47.5878 85.6624 47.8686L77.2825 52.7456C76.6809 53.1097 76.0092 53.3406 75.3121 53.4228C74.6314 53.5022 73.9434 53.3616 73.3472 53.0215L73.2725 52.9742C72.8229 52.6926 72.4501 52.3028 72.1876 51.8399C72.1378 52.0935 72.0742 52.3471 71.9994 52.6007L71.9828 52.6481C71.7481 53.415 71.4278 54.1527 71.0281 54.8469C70.623 55.5611 70.1353 56.2243 69.5751 56.8228C69.0559 57.3832 68.4594 57.8656 67.804 58.2553L59.3439 63.1741C58.9184 63.4198 58.4475 63.5754 57.9601 63.6312C57.4307 63.691 56.896 63.5808 56.4325 63.3162L56.3937 63.2939C55.9458 63.021 55.5929 62.615 55.3836 62.1318L55.3504 62.051C55.1638 61.5931 55.0697 61.1023 55.0737 60.6074V54.0387C55.0737 53.1776 55.1899 52.5951 55.4971 52.0879L55.5497 52.0071C55.8929 51.5274 56.3469 51.1391 56.8725 50.8756L70.5991 42.894L70.5963 42.8885ZM70.0954 50.335V45.7952L57.9961 52.8292C57.792 52.9298 57.6052 53.0624 57.4426 53.2222L57.426 53.2528C57.3365 53.5044 57.3034 53.7728 57.3291 54.0387V60.6074C57.3215 60.7966 57.3487 60.9856 57.4094 61.1648L57.4288 61.2094C57.4521 61.2653 57.487 61.3157 57.5312 61.3571H57.5561C57.6155 61.3783 57.6793 61.3841 57.7415 61.3738C57.9204 61.3489 58.0926 61.2883 58.2479 61.1954L66.6887 56.2961C67.1589 56.0142 67.5867 55.6661 67.9589 55.2622C68.395 54.7943 68.7758 54.2772 69.0936 53.721C69.406 53.176 69.6566 52.5973 69.8408 51.996V51.9542C70.0022 51.4295 70.0879 50.8842 70.0954 50.335ZM85.9557 36.5734L73.8675 43.6019V49.4543C73.8569 49.836 73.9257 50.2157 74.0695 50.5691C74.1448 50.7538 74.2705 50.9132 74.432 51.0289L74.4735 51.054C74.6637 51.1549 74.8806 51.1929 75.0934 51.1627C75.4733 51.1116 75.8382 50.9805 76.1645 50.7781L84.5443 45.9178C84.8256 45.7498 85.0811 45.5414 85.3026 45.2991C85.5603 45.0206 85.7876 44.7151 85.9806 44.3878L86.0111 44.3293C86.2112 43.9843 86.3701 43.6167 86.4843 43.234C86.5801 42.9196 86.6314 42.5931 86.6365 42.2642V36.1777L85.9557 36.5734Z" fill="#3C3C3C"/>
<path fill-rule="evenodd" clip-rule="evenodd" d="M43.3507 49.3958C43.2876 49.6915 43.1104 49.9497 42.8582 50.1139C42.606 50.278 42.2993 50.3344 42.0057 50.2709C41.7121 50.2073 41.4557 50.0289 41.2927 49.7749C41.1297 49.5209 41.0736 49.2121 41.1368 48.9165L41.3 48.1612C41.3398 47.9694 41.4001 47.7825 41.4799 47.6038L41.5048 47.5899C41.6373 47.2991 41.8266 47.0381 42.0615 46.8226C42.2964 46.6071 42.5721 46.4416 42.8719 46.3358C43.4244 46.1448 44.0192 46.1148 44.5878 46.2494L44.6929 46.2773C44.9288 46.3379 45.1593 46.418 45.382 46.517L56.1751 51.4358C56.4474 51.5596 56.6597 51.7873 56.7653 52.0687C56.871 52.3501 56.8612 52.6623 56.7383 52.9365C56.6153 53.2107 56.3893 53.4245 56.1098 53.5309C55.8303 53.6373 55.5203 53.6275 55.248 53.5037L44.4549 48.5848L44.109 48.4678C43.954 48.4255 43.7907 48.4255 43.6358 48.4678C43.5941 48.4837 43.5596 48.5144 43.5389 48.5542L43.3507 49.3958Z" fill="#3C3C3C"/>
<path fill-rule="evenodd" clip-rule="evenodd" d="M83.0776 105.955C83.0425 106.104 82.978 106.244 82.8878 106.367C82.7977 106.49 82.6837 106.593 82.5529 106.671C82.4221 106.749 82.2771 106.799 82.1266 106.818C81.976 106.838 81.8231 106.827 81.677 106.785C81.5308 106.744 81.3945 106.673 81.2762 106.578C81.1578 106.482 81.06 106.363 80.9884 106.228C80.9168 106.094 80.873 105.946 80.8597 105.793C80.8463 105.641 80.8636 105.488 80.9106 105.342L86.3376 85.9011L84.8543 84.1621C84.7092 83.9921 84.6177 83.7826 84.5914 83.5601L83.036 73.8729C83.0112 73.5876 83.0947 73.3034 83.2697 73.0777C83.4447 72.8519 83.6983 72.7014 83.9792 72.6565C84.2601 72.6116 84.5474 72.6756 84.7833 72.8357C85.0191 72.9958 85.1859 73.24 85.25 73.519L86.761 82.9275L88.4215 84.8643C88.5495 85.0064 88.6394 85.1789 88.683 85.3656C88.7266 85.5523 88.7223 85.7471 88.6706 85.9317L83.0776 105.955Z" fill="#3C3C3C"/>
<path fill-rule="evenodd" clip-rule="evenodd" d="M92.1493 116.841L86.202 113.385C93.1733 117.331 101.849 110.718 106.28 105.618C112.465 98.5033 117.925 86.3609 115.579 76.9134C114.887 74.1265 113.484 71.6741 110.979 70.1831L117.222 73.8144C123.485 77.8163 122.5 87.9578 120.543 94.1781C117.676 103.4 109.9 114.558 100.452 117.429C97.6455 118.276 94.7535 118.318 92.1493 116.841Z" fill="white"/>
<path fill-rule="evenodd" clip-rule="evenodd" d="M91.64 117.588C90.8679 117.139 86.0359 114.461 85.7564 114.168C85.5587 114.045 85.416 113.85 85.3584 113.624C85.3008 113.397 85.3327 113.157 85.4475 112.953C85.5623 112.75 85.7509 112.6 85.9737 112.534C86.1965 112.467 86.4361 112.491 86.642 112.599C89.3347 114.118 92.3402 113.901 95.2211 112.783C99.2921 111.209 103.125 107.875 105.602 105.025C109.204 100.798 111.954 95.9052 113.697 90.6192C115.18 86.0348 115.739 81.2915 114.704 77.1224C114.395 75.794 113.852 74.5321 113.102 73.3963C112.429 72.3998 111.547 71.5652 110.517 70.9522C110.32 70.8259 110.18 70.6274 110.126 70.3988C110.071 70.1702 110.108 69.9293 110.226 69.727C110.345 69.5248 110.538 69.377 110.763 69.3149C110.988 69.2529 111.228 69.2814 111.433 69.3944C113.5 70.6401 115.642 71.7967 117.701 73.0508C120.626 74.918 122.099 77.9779 122.655 81.3863C123.377 85.7868 122.555 90.7836 121.412 94.4484C119.588 100.072 116.672 105.273 112.833 109.751C109.396 113.722 105.245 116.916 100.701 118.296C99.165 118.784 97.554 118.987 95.9462 118.895C94.4578 118.799 93.0099 118.367 91.7092 117.632L91.64 117.588ZM91.5736 115.467L92.5893 116.052C93.6562 116.656 94.844 117.011 96.0652 117.092C97.4601 117.166 98.857 116.987 100.189 116.562C104.376 115.291 108.245 112.295 111.474 108.561C115.154 104.275 117.95 99.2952 119.699 93.9105C120.779 90.452 121.556 85.7617 120.887 81.6761C120.408 78.7443 119.171 76.133 116.735 74.578L115.41 73.8032C115.856 74.7237 116.203 75.6898 116.445 76.6848C117.568 81.2107 116.984 86.2968 115.401 91.1766C113.581 96.6938 110.71 101.801 106.95 106.212C104.326 109.233 100.247 112.772 95.8632 114.475C94.491 115.021 93.0449 115.355 91.5736 115.467Z" fill="#3C3C3C"/>
<path fill-rule="evenodd" clip-rule="evenodd" d="M102.666 74.0346C93.1124 79.5888 85.369 93.0968 85.369 104.205C85.369 115.314 93.1179 119.812 102.666 114.263C112.213 108.714 119.962 95.2009 119.962 84.0924C119.962 72.9839 112.219 68.4915 102.666 74.0346Z" fill="white"/>
<path fill-rule="evenodd" clip-rule="evenodd" d="M103.07 74.8428C98.4508 77.5405 94.2581 82.175 91.2111 87.4896L91.1834 87.537C88.1392 92.8515 86.2684 98.8238 86.2684 104.205C86.2684 107.271 86.8773 109.793 87.9621 111.682C88.6407 112.941 89.6519 113.986 90.8837 114.701C92.1156 115.417 93.52 115.776 94.9416 115.737C97.1141 115.737 99.5854 115.01 102.217 113.48L102.264 113.455C106.883 110.754 111.073 106.123 114.12 100.811C117.167 95.4991 119.063 89.4906 119.063 84.0896C119.063 81.024 118.454 78.5159 117.369 76.6152C116.692 75.3559 115.682 74.3102 114.45 73.5944C113.218 72.8785 111.814 72.5206 110.392 72.5603C108.223 72.5603 105.751 73.2821 103.117 74.8149L103.07 74.84V74.8428ZM89.6585 86.5839C92.8494 81.0101 97.2691 76.1498 102.165 73.2849L102.217 73.2543C105.134 71.557 107.913 70.7461 110.392 70.7461C112.128 70.7094 113.841 71.152 115.344 72.026C116.848 72.9 118.085 74.172 118.922 75.7039C120.164 77.8693 120.859 80.6924 120.859 84.084C120.859 89.7943 118.875 96.1094 115.67 101.7C112.465 107.29 108.057 112.142 103.164 115.002L103.114 115.035C100.191 116.732 97.413 117.543 94.9389 117.543C93.2014 117.58 91.4871 117.137 89.9823 116.261C88.4776 115.386 87.2399 114.111 86.404 112.577C85.1642 110.412 84.4668 107.589 84.4668 104.202C84.4668 98.5089 86.4372 92.2189 89.6253 86.6452L89.6585 86.5839Z" fill="#3C3C3C"/>
<path fill-rule="evenodd" clip-rule="evenodd" d="M98.5919 66.889C102.948 64.4198 108.624 62.6139 113.359 65.1751L119.306 68.6308C110.558 64.2498 100.189 72.3819 94.7922 78.7332C87.558 87.2471 81.3562 101.162 83.5701 112.446C84.2897 116.116 85.8948 119.313 89.0469 121.42C87.63 120.584 83.512 118.31 82.405 117.479C75.5888 112.295 76.7041 100.758 78.8655 93.5593C81.9954 83.1337 89.1825 72.4962 98.5919 66.889Z" fill="white"/>
<path fill-rule="evenodd" clip-rule="evenodd" d="M98.1519 66.0976C100.643 64.6791 103.59 63.4723 106.568 63.1268C109.02 62.8481 111.497 63.1407 113.785 64.3781L119.755 67.8505C119.964 67.964 120.12 68.1566 120.189 68.386C120.257 68.6155 120.233 68.8629 120.12 69.0739C120.007 69.285 119.816 69.4423 119.588 69.5113C119.36 69.5802 119.115 69.5553 118.905 69.4418C115.446 67.7112 111.679 68.0958 108.112 69.57C103.131 71.6211 98.5144 75.7569 95.484 79.3241C91.3194 84.3005 88.1134 90.0156 86.0304 96.1763C84.2288 101.588 83.465 107.215 84.4585 112.276C84.76 113.958 85.34 115.578 86.1743 117.067C87.0088 118.512 88.1633 119.744 89.5479 120.667C89.6462 120.733 89.7307 120.817 89.7966 120.916C89.8625 121.014 89.9086 121.124 89.9321 121.241C89.9556 121.357 89.9561 121.477 89.9337 121.594C89.9112 121.71 89.8661 121.821 89.8011 121.92C89.736 122.019 89.6522 122.104 89.5545 122.17C89.4568 122.237 89.347 122.283 89.2315 122.307C89.116 122.331 88.997 122.331 88.8813 122.308C88.7656 122.286 88.6554 122.24 88.5571 122.175L87.2841 121.442C85.4382 120.394 82.7344 118.856 81.8626 118.193C78.7271 115.81 77.1579 112.209 76.5796 108.277C75.8268 103.177 76.7401 97.5028 78.0048 93.2891C79.7534 87.5753 82.4593 82.2048 86.0055 77.4095C89.3735 72.8529 93.4776 68.89 98.1325 66.1199H98.1519V66.0976ZM106.77 64.9243C104.063 65.2364 101.357 66.3595 99.0209 67.6777C94.5929 70.3197 90.6631 74.1126 87.4391 78.4741C84.0135 83.1076 81.4028 88.2987 79.7206 93.8214C78.514 97.8372 77.6423 103.224 78.3369 108.034C78.8655 111.521 80.2492 114.698 82.9447 116.757C83.2519 116.991 83.8137 117.345 84.4917 117.755C83.6229 116.15 83.012 114.416 82.6818 112.619C81.6274 107.235 82.4244 101.29 84.3174 95.5994C86.4756 89.22 89.7961 83.3017 94.1086 78.148C97.2801 74.4164 102.134 70.0661 107.426 67.9007C109.45 67.0293 111.618 66.5491 113.818 66.4849L112.933 65.9833C111.001 64.9271 108.884 64.679 106.77 64.9243Z" fill="#3C3C3C"/>
<path fill-rule="evenodd" clip-rule="evenodd" d="M91.8504 116.66L85.9031 113.204L86.0526 113.296L86.202 113.385L92.1493 116.844L91.9971 116.752L91.8504 116.66Z" fill="white"/>
<path fill-rule="evenodd" clip-rule="evenodd" d="M86.3542 112.421C88.4409 113.625 90.5359 114.832 92.6059 116.063C92.8094 116.185 92.9569 116.382 93.0164 116.613C93.0758 116.844 93.0424 117.088 92.9234 117.294C92.8044 117.5 92.6094 117.65 92.381 117.712C92.1525 117.774 91.9091 117.742 91.7037 117.624C89.6337 116.465 87.4363 115.233 85.4299 113.97C85.2259 113.847 85.0789 113.647 85.0213 113.414C84.9636 113.182 85.0001 112.936 85.1227 112.73C85.2453 112.525 85.4439 112.377 85.6749 112.319C85.9058 112.261 86.1502 112.297 86.3542 112.421Z" fill="#3C3C3C"/>
<path fill-rule="evenodd" clip-rule="evenodd" d="M116.924 73.6305L110.979 70.1748L110.827 70.0884L110.672 70.0048L116.616 73.4605L116.771 73.5441L116.924 73.6305Z" fill="white"/>
<path fill-rule="evenodd" clip-rule="evenodd" d="M116.478 74.4136C114.386 73.218 112.305 71.9973 110.224 70.7906C110.015 70.6746 109.862 70.4801 109.796 70.2498C109.73 70.0196 109.758 69.7726 109.873 69.563C109.989 69.3535 110.182 69.1986 110.41 69.1325C110.639 69.0664 110.884 69.0944 111.093 69.2105C113.199 70.3392 115.296 71.6462 117.369 72.8501C117.567 72.9729 117.709 73.1681 117.767 73.3947C117.825 73.6213 117.793 73.8615 117.678 74.0649C117.563 74.2682 117.375 74.4188 117.152 74.4849C116.929 74.551 116.689 74.5274 116.484 74.4191L116.478 74.4136Z" fill="#3C3C3C"/>
<path fill-rule="evenodd" clip-rule="evenodd" d="M89.4012 86.4361C93.2756 79.6808 98.6251 73.781 104.536 70.3448C110.448 66.9085 115.8 66.5825 119.672 68.8343C123.543 71.0861 125.943 75.9185 125.943 82.7909C125.943 89.6633 123.546 97.2826 119.672 104.035C115.797 110.788 110.448 116.704 104.536 120.129C98.6251 123.554 93.2729 123.889 89.4012 121.637C85.5295 119.385 83.1301 114.556 83.1301 107.683C83.1301 100.811 85.5267 93.1915 89.4012 86.4361ZM116.924 73.6305C115.193 72.6636 113.203 72.2734 111.239 72.5157C109.175 72.7247 106.911 73.4911 104.536 74.8734C102.057 76.3532 99.8004 78.1833 97.8364 80.3078C95.6503 82.6537 93.7419 85.247 92.1493 88.0358C90.5437 90.8171 89.2675 93.7784 88.3468 96.859C87.499 99.634 87.0517 102.517 87.0184 105.42C87.0184 108.185 87.4916 110.54 88.3468 112.443C89.0938 114.295 90.4326 115.843 92.1513 116.842C93.87 117.841 95.8705 118.235 97.8364 117.961C99.9009 117.755 102.162 116.986 104.536 115.606C107.019 114.126 109.278 112.295 111.245 110.169C115.619 105.451 118.865 99.7891 120.734 93.6151C121.582 90.8392 122.028 87.955 122.06 85.0511C122.06 82.2921 121.589 79.9344 120.734 78.0309C119.958 76.1951 118.624 74.6544 116.924 73.6305Z" fill="#2B7CFF"/>
<path fill-rule="evenodd" clip-rule="evenodd" d="M88.6235 85.9875C90.6023 82.5142 92.9772 79.2856 95.6999 76.3672C98.1581 73.7061 100.983 71.4142 104.088 69.5616C107.099 67.8115 109.988 66.8361 112.634 66.5713C115.443 66.2927 117.983 66.811 120.106 68.054C122.229 69.2969 123.975 71.2505 125.14 73.8423C126.247 76.2836 126.842 79.2906 126.842 82.7909C126.802 86.4245 126.243 90.0333 125.182 93.5064C124.034 97.3406 122.446 101.027 120.449 104.49L120.419 104.537C118.446 107.991 116.081 111.202 113.373 114.107C110.914 116.768 108.088 119.059 104.982 120.91C101.971 122.663 99.0818 123.638 96.4388 123.9C93.6271 124.179 91.0866 123.663 88.9501 122.42L88.9003 122.387C86.7832 121.141 85.0867 119.199 83.9327 116.632C82.8257 114.191 82.2307 111.184 82.2307 107.683C82.2709 104.05 82.8302 100.441 83.8912 96.9677C85.0395 93.1349 86.6277 89.4499 88.6235 85.9875ZM97.0006 77.6269C91.748 83.2794 87.8521 90.0693 85.6125 97.4749C84.6029 100.784 84.0698 104.222 84.0296 107.683C84.0296 110.924 84.5831 113.678 85.571 115.888C86.559 118.098 88.0147 119.789 89.8025 120.829L89.8495 120.854C91.6594 121.907 93.8347 122.345 96.2617 122.103C98.6888 121.86 101.304 120.965 104.091 119.346C107.046 117.58 109.735 115.396 112.075 112.861C114.687 110.061 116.968 106.964 118.872 103.634L118.897 103.584C120.823 100.245 122.356 96.6907 123.463 92.9937C124.473 89.6856 125.006 86.2487 125.046 82.7881C125.046 79.547 124.493 76.7936 123.505 74.5836C122.517 72.3736 121.036 70.668 119.226 69.6146C117.416 68.5612 115.241 68.1264 112.814 68.3661C110.387 68.6058 107.774 69.5059 104.99 71.1251C102.034 72.8912 99.3442 75.0751 97.0034 77.6101L97.0006 77.6269ZM116.478 74.4275C115.737 73.9993 114.929 73.6989 114.09 73.5385C113.178 73.3659 112.245 73.3274 111.322 73.4243C110.274 73.5374 109.243 73.775 108.25 74.1321C107.115 74.5386 106.02 75.0508 104.979 75.6621C103.821 76.3424 102.716 77.1111 101.675 77.9613C100.546 78.8815 99.4804 79.8768 98.484 80.9404C97.4287 82.0649 96.4417 83.2524 95.5283 84.4965C94.5862 85.7811 93.7168 87.1181 92.9242 88.5012L92.8937 88.5486C92.1125 89.9154 91.4076 91.3249 90.7822 92.7707C90.1704 94.1896 89.6437 95.6442 89.2047 97.1266C88.7874 98.5273 88.4638 99.9546 88.2361 101.399C88.0257 102.734 87.9184 104.083 87.9151 105.434C87.9081 106.649 88.0147 107.862 88.2333 109.057C88.4219 110.101 88.7341 111.118 89.1632 112.087C89.5376 112.94 90.0346 113.734 90.6382 114.441C91.1968 115.091 91.8578 115.644 92.5948 116.077L92.6391 116.102C93.3669 116.516 94.1568 116.806 94.9776 116.964C95.8899 117.135 96.8221 117.173 97.7451 117.075C98.7922 116.963 99.8225 116.726 100.814 116.37C101.95 115.964 103.045 115.452 104.085 114.84C105.249 114.158 106.359 113.387 107.406 112.535C108.534 111.616 109.599 110.622 110.594 109.559C111.649 108.434 112.635 107.247 113.547 106.003C114.491 104.719 115.36 103.382 116.151 101.998L116.182 101.953C116.963 100.587 117.668 99.1771 118.293 97.7313C118.905 96.3121 119.433 94.8576 119.874 93.3755C120.29 91.9756 120.613 90.5493 120.84 89.106C121.05 87.7694 121.157 86.4183 121.161 85.065C121.167 83.8501 121.061 82.6373 120.845 81.4421C120.654 80.399 120.342 79.3822 119.915 78.4128C119.538 77.5602 119.039 76.7678 118.435 76.0606C117.883 75.4112 117.229 74.8584 116.497 74.4247L116.478 74.4275ZM114.436 71.7633C113.353 71.5567 112.246 71.5107 111.151 71.6267C109.961 71.7532 108.79 72.0217 107.664 72.4266C106.423 72.8698 105.227 73.4297 104.091 74.0987C102.85 74.8229 101.668 75.6438 100.554 76.5539C99.3627 77.5236 98.2375 78.5729 97.1861 79.6947C96.079 80.8676 95.0439 82.1073 94.0865 83.4068C93.1017 84.7472 92.1934 86.1428 91.3661 87.5871L91.3384 87.6401C90.5191 89.0668 89.78 90.5388 89.1244 92.0489C88.4806 93.5347 87.9261 95.0582 87.464 96.611C87.0341 98.0829 86.7012 99.5818 86.4677 101.098C86.2407 102.524 86.1241 103.965 86.119 105.409C86.1133 106.736 86.231 108.059 86.4705 109.364C86.6855 110.548 87.0404 111.703 87.5276 112.803C87.9743 113.814 88.5664 114.753 89.285 115.59C89.9732 116.39 90.7887 117.07 91.6982 117.602L91.7535 117.632C92.6505 118.152 93.6254 118.521 94.64 118.725C95.7228 118.929 96.8293 118.974 97.925 118.859C99.1128 118.733 100.281 118.465 101.406 118.062C102.649 117.617 103.848 117.058 104.988 116.389C106.227 115.662 107.409 114.84 108.524 113.931C109.715 112.962 110.839 111.912 111.89 110.791C112.994 109.612 114.027 108.367 114.984 107.065C115.967 105.724 116.874 104.328 117.701 102.884L117.729 102.831C118.548 101.406 119.287 99.9364 119.943 98.4281C120.587 96.9414 121.141 95.417 121.603 93.8632C122.043 92.387 122.382 90.8823 122.619 89.3596C122.846 87.9319 122.963 86.4886 122.968 85.0427C122.964 83.7184 122.838 82.3973 122.591 81.0965C122.375 79.9133 122.022 78.7599 121.537 77.6603C121.087 76.6506 120.494 75.7119 119.777 74.8734C118.391 73.2595 116.505 72.1637 114.425 71.7633H114.436Z" fill="#3C3C3C"/>
<path fill-rule="evenodd" clip-rule="evenodd" d="M115.313 81.8294L104.027 105.81L92.0995 102.383L94.2415 97.8149L101.733 99.9692L110.871 80.553L115.313 81.8294Z" fill="#2B7CFF"/>
<path fill-rule="evenodd" clip-rule="evenodd" d="M114.162 82.3589L111.317 81.5368L102.184 100.956L94.6898 98.7987L93.259 101.864L103.584 104.829C107.114 97.3402 110.64 89.8528 114.164 82.3673L114.162 82.3589ZM101.296 98.9798L110.138 80.1963C110.218 80.0155 110.361 79.8705 110.54 79.7888C110.719 79.7071 110.921 79.6945 111.109 79.7532L115.537 81.024C115.651 81.0584 115.757 81.1171 115.846 81.1962C115.936 81.2753 116.008 81.3729 116.056 81.4824C116.105 81.5918 116.13 81.7106 116.129 81.8306C116.128 81.9506 116.102 82.069 116.052 82.1778L104.769 106.145C104.684 106.321 104.541 106.462 104.364 106.543C104.187 106.624 103.988 106.64 103.8 106.588L91.8725 103.177C91.7594 103.142 91.655 103.084 91.5661 103.005C91.4773 102.927 91.4062 102.83 91.3574 102.722C91.3087 102.613 91.2835 102.496 91.2836 102.376C91.2836 102.257 91.3089 102.14 91.3578 102.031L93.5025 97.4749C93.5819 97.2944 93.7246 97.1497 93.9033 97.0685C94.082 96.9872 94.2842 96.9752 94.4711 97.0346L101.296 98.9798Z" fill="#3C3C3C"/>
</g>
<defs>
<clipPath id="clip0_1223_6974">
<rect width="113.842" height="126" fill="white" transform="translate(13 3)"/>
</clipPath>
</defs>
</svg>
