<svg width="86" height="128" viewBox="0 0 86 128" fill="none" xmlns="http://www.w3.org/2000/svg">
<path d="M82.094 92.2808C84.2517 100.115 68.498 111.287 46.9072 117.233C25.3164 123.179 6.06451 121.649 3.90683 113.814C2.70026 109.433 7.09458 104.009 14.9785 99.0381C21.1932 95.1197 29.5763 91.4833 39.0936 88.8621C60.6844 82.9158 79.9363 84.4464 82.094 92.2808Z" fill="#E8E8E8"/>
<path fill-rule="evenodd" clip-rule="evenodd" d="M8.71543 119.346L4.2822 116.783L4.03877 116.611L3.8235 116.404L3.62875 116.152L3.46987 115.858L3.34174 115.535L3.24693 115.168L3.19054 114.766L3.17773 114.337V37.4604L3.19054 37.0016L3.24693 36.535L3.34174 36.0685L3.46987 35.5865L3.62875 35.1149L3.8235 34.6407L4.03877 34.1818L4.2822 33.7281L4.55383 33.2897L4.84083 32.8668L5.15604 32.472L5.4866 32.0926L5.82999 31.7491L6.19643 31.4261L6.56801 31.1441L6.95751 30.9006L15.0629 26.2147L19.8907 23.4308L44.1018 9.44478L48.3197 7.01209L57.0427 1.97496L57.4219 1.77501L57.8038 1.62377L58.1677 1.5238L58.5136 1.46484H58.8442L59.1594 1.50074L59.4464 1.58788L59.718 1.71605L64.1512 4.27178L63.8796 4.14874L63.5849 4.06416L63.2774 4.02827H62.9468L62.5932 4.08465L62.237 4.18463L61.8629 4.33586L61.4759 4.53582L52.753 9.57295L48.535 12.0082L24.324 25.9917L19.4961 28.7781L11.3907 33.464L11.0038 33.7076L10.6297 33.987L10.2709 34.31L9.91982 34.6535L9.58926 35.0277L9.27407 35.4302L8.98706 35.8531L8.71543 36.2915L8.46942 36.7426L8.25416 37.2015L8.06966 37.6757L7.90309 38.15L7.77496 38.6216L7.68271 39.0959L7.62378 39.5624L7.60328 40.0213V116.898L7.62378 117.329L7.68271 117.731L7.77496 118.09L7.90309 118.418L8.06966 118.713L8.25416 118.957L8.46942 119.172L8.71543 119.346Z" fill="white"/>
<path fill-rule="evenodd" clip-rule="evenodd" d="M58.7333 2.29794L57.7365 2.55685L57.429 2.72092L6.39052 32.3797L5.24248 33.7716L4.26615 35.8608L4.01502 37.4963L4.07909 115.055L4.62491 116.001L6.77745 117.249L6.76208 116.934V40.0213L6.94915 38.4576L7.71023 36.3837L8.92233 34.5099L10.0703 33.3538L10.9391 32.7514L61.3702 3.63861L58.7333 2.29794ZM8.71476 120.185C8.57126 120.185 8.42775 120.149 8.29193 120.069L3.23601 117.006L2.73374 116.268L2.43393 115.386L2.33398 114.373V37.463L2.52105 35.8993L3.28213 33.8255L4.49422 31.9516L5.64224 30.7955L6.51095 30.1931L57.493 0.844474L58.3899 0.636853L58.8358 0.624023L59.6815 0.782954L60.0838 0.954715L64.5734 3.54633C64.968 3.77447 65.1115 4.26409 64.904 4.67424C64.6964 5.0767 64.2069 5.23306 63.7995 5.04849L63.1742 4.86906L62.1851 5.12797L61.8699 5.29203L10.8289 34.9508L9.68083 36.3428L8.70706 38.4319L8.45594 40.0674L8.52 117.619L9.20164 118.659C9.57577 118.918 9.67572 119.421 9.43227 119.8C9.26571 120.049 8.99408 120.185 8.71476 120.185Z" fill="#414141"/>
<path fill-rule="evenodd" clip-rule="evenodd" d="M61.4742 90.1539L11.389 119.08C9.30053 120.287 7.60156 119.303 7.60156 116.898V40.0211C7.60156 37.6115 9.30053 34.6687 11.389 33.4613L19.4944 28.7754L24.3223 25.9915L48.5333 12.0055L52.7513 9.57277L61.4742 4.53564C63.555 3.33083 65.254 4.31263 65.254 6.71712V83.5941C65.254 85.9986 63.555 88.9465 61.4742 90.1539Z" fill="white"/>
<path fill-rule="evenodd" clip-rule="evenodd" d="M61.4749 90.1541H61.4954H61.4749ZM63.1611 4.85888C62.7869 4.85888 62.3564 5.00245 61.89 5.26135L11.8048 34.1947C9.99056 35.2431 8.44789 37.9116 8.44789 40.0213V116.898C8.44789 117.731 8.69902 118.354 9.13722 118.613C9.5831 118.864 10.2417 118.772 10.9669 118.349L61.0521 89.4236C62.8741 88.3751 64.4167 85.7066 64.4167 83.5969V6.71993C64.4167 5.88681 64.1656 5.25623 63.7274 5.00501C63.5634 4.91017 63.3763 4.85888 63.1611 4.85888ZM9.70355 120.444C9.1936 120.444 8.72208 120.32 8.28901 120.069C7.29986 119.503 6.76172 118.367 6.76172 116.898V40.0213C6.76172 37.2938 8.60677 34.0947 10.9669 32.7309L61.0521 3.80532C62.3282 3.06705 63.5839 2.9722 64.5679 3.53871C65.5571 4.11292 66.1029 5.23827 66.1029 6.71736V83.5943C66.1029 86.3218 64.2527 89.521 61.8926 90.8847L11.8074 119.81C11.0796 120.228 10.3698 120.444 9.70355 120.444Z" fill="#414141"/>
<path fill-rule="evenodd" clip-rule="evenodd" d="M14.5332 38.8804V112.076L60.1134 85.7551V12.5669C44.92 21.3364 29.7266 30.1109 14.5332 38.8804Z" fill="white"/>
<path fill-rule="evenodd" clip-rule="evenodd" d="M15.3789 39.3753V110.618L59.2653 85.2709V14.0205L15.3789 39.3753ZM14.5333 112.922C14.3898 112.922 14.2386 112.887 14.1181 112.807C13.8542 112.656 13.6953 112.376 13.6953 112.077V38.8806C13.6953 38.5858 13.8542 38.3064 14.1181 38.1551L59.6906 11.8339C59.9546 11.6826 60.2724 11.6826 60.5363 11.8339C60.7951 11.9851 60.9514 12.2646 60.9514 12.5671V85.7553C60.9514 86.0552 60.7926 86.3372 60.5363 86.4859L14.9561 112.807C14.828 112.887 14.6844 112.922 14.5333 112.922Z" fill="#414141"/>
<path fill-rule="evenodd" clip-rule="evenodd" d="M30.4709 32.9819C30.4709 30.2826 30.4709 28.1883 30.4709 25.4839C36.0522 22.2617 41.6334 19.0344 47.2146 15.8122C47.2146 18.5166 47.2146 20.6134 47.2146 23.3179C41.6334 26.5375 36.0522 29.7597 30.4709 32.9819ZM49.6901 24.3279V11.9414L27.998 24.4714V36.8501L49.6901 24.3279Z" fill="white"/>
<path fill-rule="evenodd" clip-rule="evenodd" d="M31.3172 25.9712V31.5261L46.3748 22.8285V17.2736L31.3172 25.9712ZM30.4716 33.8307C30.3281 33.8307 30.1846 33.7948 30.0488 33.7153C29.79 33.5641 29.6259 33.2846 29.6259 32.9822V25.4842C29.6259 25.1842 29.7925 24.9023 30.0488 24.7536L46.7925 15.0792C47.059 14.928 47.3819 14.9357 47.6382 15.0792C47.9021 15.2305 48.061 15.5099 48.061 15.8124V23.3181C48.061 23.6129 47.9021 23.8923 47.6382 24.0435L30.8944 33.7179C30.7663 33.7922 30.6151 33.8307 30.4716 33.8307ZM49.6908 24.3281H49.7113H49.6908ZM28.8418 24.9587L48.8477 13.4053V23.8385L28.8418 35.3918V24.9587ZM27.9962 37.6963C27.8527 37.6963 27.7092 37.6527 27.581 37.5809C27.3145 37.4297 27.1582 37.1503 27.1582 36.8478V24.4691C27.1582 24.1666 27.3171 23.8872 27.581 23.7359L49.2731 11.2085C49.5319 11.0649 49.8548 11.0649 50.1136 11.2085C50.3775 11.3597 50.5364 11.6391 50.5364 11.9391V24.3255C50.5364 24.6203 50.3775 24.8997 50.1136 25.051L28.4216 37.5809C28.2909 37.6527 28.1474 37.6963 27.9962 37.6963Z" fill="#414141"/>
<path fill-rule="evenodd" clip-rule="evenodd" d="M27.9965 24.4715L49.6911 11.9415L46.7211 10.2265L44.9401 9.20117L23.248 21.7312L27.9965 24.4715Z" fill="#2B7CFF"/>
<path fill-rule="evenodd" clip-rule="evenodd" d="M24.9341 21.7311L27.9964 23.4973L48.0023 11.9439L44.9401 10.1777L24.9341 21.7311ZM27.9964 25.3174C27.8529 25.3174 27.7094 25.2738 27.5813 25.202L22.8329 22.454C22.5689 22.3028 22.4023 22.031 22.4023 21.7286C22.4023 21.4261 22.5689 21.1467 22.8329 20.9954L44.5249 8.46792C44.7837 8.31668 45.099 8.31668 45.3655 8.46792L50.1139 11.2082C50.3778 11.3595 50.5367 11.6389 50.5367 11.9388C50.5367 12.2413 50.3778 12.5207 50.1139 12.672L28.4218 25.202C28.2911 25.2763 28.1476 25.3174 27.9964 25.3174Z" fill="#414141"/>
<path fill-rule="evenodd" clip-rule="evenodd" d="M8.71544 119.346L4.2822 116.783L4.03877 116.611L3.8235 116.404L3.62875 116.152L3.46987 115.858L3.34174 115.535L3.24693 115.168L3.19054 114.766L3.17773 114.337V37.4604L3.19054 37.0015L3.24693 36.535L3.34174 36.0607L3.46987 35.5865L3.62875 35.1148L3.8235 34.6406L4.03877 34.1817L4.2822 33.728L4.29502 33.7075L8.72825 36.2684L8.71544 36.2914L8.46943 36.7426L8.25417 37.2015L8.06967 37.6757L7.89798 38.1499L7.77497 38.6216L7.68272 39.0958L7.62379 39.5624L7.60328 40.0212V116.898L7.62379 117.329L7.68272 117.731L7.77497 118.09L7.89798 118.418L8.06967 118.713L8.25417 118.957L8.46943 119.172L8.71544 119.346Z" fill="#2B7CFF"/>
<path fill-rule="evenodd" clip-rule="evenodd" d="M4.64029 34.8841L4.1534 36.2837L4.01759 37.4963L4.08165 115.055L4.62748 116.001L6.78002 117.249L6.76465 116.934V40.0212L6.95173 38.4575L7.61029 36.5914L4.64029 34.8841ZM8.71477 120.185C8.57127 120.185 8.42775 120.149 8.29962 120.069L3.23601 117.006L2.73374 116.268L2.43393 115.378L2.33398 114.373V37.4629L2.52105 35.8992L3.28214 33.8254L3.54864 33.3307C3.65626 33.1308 3.84334 32.9718 4.06628 32.9154C4.28153 32.8513 4.53267 32.8718 4.72486 32.9795L9.15809 35.5404C9.35285 35.6557 9.49378 35.8428 9.55272 36.0582C9.6091 36.2735 9.57322 36.5017 9.46047 36.6965L8.70708 38.4268L8.45595 40.0622L8.52001 117.613L9.20165 118.654C9.57578 118.905 9.68341 119.416 9.4374 119.795C9.2734 120.041 8.99409 120.185 8.71477 120.185Z" fill="#414141"/>
<path fill-rule="evenodd" clip-rule="evenodd" d="M23.248 24.169L25.3647 25.3892V35.3301L27.9965 36.8503V24.4715L23.248 21.7312V24.169Z" fill="white"/>
<path fill-rule="evenodd" clip-rule="evenodd" d="M26.2103 34.8483L27.1559 35.3943V24.9612L24.0936 23.1899V23.6847L25.7798 24.6587C26.0437 24.81 26.2103 25.0894 26.2103 25.3919V34.8483ZM27.9964 37.6962C27.8529 37.6962 27.7094 37.6527 27.5813 37.5809L24.9495 36.0608C24.6856 35.9095 24.519 35.6301 24.519 35.3277V25.8764L22.8329 24.892C22.5689 24.7485 22.4023 24.4614 22.4023 24.1666V21.7262C22.4023 21.4237 22.5689 21.1443 22.8329 20.9931C23.0917 20.8418 23.4146 20.8418 23.6708 20.9931L28.4193 23.7333C28.6832 23.8846 28.842 24.164 28.842 24.4665V36.8452C28.842 37.1477 28.6832 37.4271 28.4193 37.5783C28.2911 37.6527 28.1476 37.6962 27.9964 37.6962Z" fill="#414141"/>
<path fill-rule="evenodd" clip-rule="evenodd" d="M44.5801 17.3323V21.5363L47.2144 23.3153V15.8096L44.5801 17.3323Z" fill="white"/>
<path fill-rule="evenodd" clip-rule="evenodd" d="M45.4283 21.0854L46.3738 21.7237V17.2736L45.4283 17.8196V21.0854ZM47.2143 24.1564C47.0478 24.1564 46.8838 24.1077 46.7479 24.0129L44.1085 22.2339C43.8779 22.0749 43.7344 21.8109 43.7344 21.5392V17.3326C43.7344 17.0378 43.8933 16.7507 44.1649 16.602L46.7966 15.0793C47.0555 14.9281 47.3784 14.9358 47.6372 15.0793C47.9011 15.2306 48.06 15.51 48.06 15.8125V23.3182C48.06 23.6258 47.8883 23.9129 47.609 24.0564C47.486 24.1282 47.3502 24.1564 47.2143 24.1564Z" fill="#414141"/>
<path fill-rule="evenodd" clip-rule="evenodd" d="M30.4707 29.6803L44.5801 21.5364L47.2144 23.3154L30.4707 32.982V29.6803Z" fill="white"/>
<path fill-rule="evenodd" clip-rule="evenodd" d="M31.3163 30.1699V31.526L45.6282 23.2589L44.5442 22.5258L31.3163 30.1699ZM30.4707 33.8305C30.3272 33.8305 30.1836 33.7946 30.0478 33.7151C29.789 33.5639 29.625 33.2845 29.625 32.982V29.6803C29.625 29.3804 29.7916 29.0984 30.0478 28.9471L44.1649 20.8032C44.4366 20.6391 44.7876 20.6519 45.0541 20.8314L47.6859 22.6104C47.9293 22.7744 48.0677 23.0487 48.06 23.3435C48.0472 23.6306 47.8884 23.8947 47.6372 24.0382L30.8935 33.7126C30.7653 33.792 30.6142 33.8305 30.4707 33.8305Z" fill="#414141"/>
<path fill-rule="evenodd" clip-rule="evenodd" d="M48.6142 32.8666C46.9562 33.8279 45.5519 36.2605 45.5519 38.1831C45.5519 38.9367 45.7671 39.4904 46.1541 39.7109C46.5282 39.9339 47.1227 39.8468 47.7762 39.4674C49.4393 38.5061 50.8385 36.0734 50.8385 34.1509C50.8385 33.3972 50.6232 32.8384 50.2414 32.6231C49.8621 32.4001 49.265 32.4872 48.6142 32.8666ZM46.6333 41.5207C46.1592 41.5207 45.7082 41.4053 45.3059 41.1772C44.3731 40.6389 43.8555 39.5776 43.8555 38.1857C43.8555 35.6453 45.5775 32.6743 47.7736 31.4054C48.978 30.7108 50.1543 30.6236 51.0819 31.1619C52.0147 31.7002 52.5298 32.7615 52.5298 34.1534C52.5298 36.6938 50.8077 39.6647 48.6142 40.9336C47.9325 41.3284 47.256 41.5207 46.6333 41.5207Z" fill="#2B7CFF"/>
<path fill-rule="evenodd" clip-rule="evenodd" d="M26.4833 90.5692C24.8202 91.5382 23.4133 93.9709 23.4133 95.8883C23.4133 96.6419 23.6363 97.2008 24.0155 97.4238C24.3948 97.6391 24.9919 97.552 25.6453 97.1803C27.3084 96.219 28.7152 93.7786 28.7152 91.8638C28.7152 91.1024 28.4923 90.5513 28.1131 90.336C27.7235 90.1027 27.129 90.195 26.4833 90.5692ZM24.5024 99.231C24.0284 99.231 23.5696 99.1079 23.1673 98.8798C22.2422 98.3415 21.7246 97.2802 21.7246 95.8883C21.7246 93.3557 23.4466 90.377 25.6427 89.1132C26.842 88.4186 28.0157 88.3237 28.9561 88.8697C29.8812 89.408 30.3989 90.4693 30.3989 91.8612C30.3989 94.3938 28.6768 97.3725 26.4807 98.6363C25.8016 99.0361 25.1251 99.231 24.5024 99.231Z" fill="#2B7CFF"/>
<path fill-rule="evenodd" clip-rule="evenodd" d="M26.8643 88.1085C26.398 88.1085 26.0238 87.7342 26.0187 87.2754C25.9239 74.9402 31.7845 68.6752 37.4529 62.6255C42.5037 57.2295 47.2726 52.1335 47.5955 42.9692C47.6083 42.5899 47.8748 42.2668 48.2489 42.1797C48.6 42.0951 48.9946 42.2592 49.1817 42.595L51.5418 46.9349C51.7647 47.345 51.6212 47.8551 51.2035 48.0756C50.7961 48.2986 50.2861 48.1474 50.0555 47.7372L49.0356 45.8505C47.8876 53.9381 43.2186 58.9317 38.6829 63.7688C33.2374 69.5827 27.6152 75.5965 27.7074 87.2575C27.7074 87.7163 27.3282 88.1034 26.8695 88.1034H26.8643V88.1085Z" fill="#414141"/>
<path fill-rule="evenodd" clip-rule="evenodd" d="M45.2987 48.8265C45.1475 48.8265 44.9912 48.783 44.8554 48.6907C44.4608 48.4472 44.3378 47.9217 44.5914 47.5346L47.7254 42.5487C47.9689 42.154 48.4916 42.0386 48.8863 42.2898C49.2809 42.5334 49.4039 43.0589 49.1528 43.4511L46.0188 48.4318C45.8599 48.683 45.578 48.8265 45.2987 48.8265Z" fill="#414141"/>
<path fill-rule="evenodd" clip-rule="evenodd" d="M26.5953 56.0402C26.4441 56.0402 26.3083 56.0043 26.1725 55.9325C25.7701 55.6967 25.6343 55.1866 25.8624 54.7764L31.7665 44.5509C32.0023 44.1408 32.5199 44.0126 32.9145 44.2433C33.3246 44.4715 33.4604 44.9893 33.2297 45.3994L27.3256 55.6249C27.1693 55.8941 26.8823 56.0402 26.5953 56.0402Z" fill="#414141"/>
<path fill-rule="evenodd" clip-rule="evenodd" d="M32.6236 52.7023C32.4801 52.7023 32.3366 52.6664 32.2008 52.5946L26.2967 49.1853C25.8944 48.9418 25.7585 48.4317 25.9891 48.0292C26.2249 47.6217 26.7348 47.4909 27.1449 47.7139L33.049 51.1232C33.4513 51.3668 33.5871 51.8769 33.3565 52.2793C33.1976 52.551 32.9157 52.7023 32.6236 52.7023Z" fill="#414141"/>
<path fill-rule="evenodd" clip-rule="evenodd" d="M36.9132 88.8545C36.7697 88.8545 36.6339 88.8186 36.4981 88.7391C36.0958 88.511 35.9523 87.9932 36.188 87.5907L42.005 77.5088C42.2357 77.1063 42.7508 76.9704 43.1531 77.1986C43.5631 77.4344 43.6912 77.9522 43.4606 78.3547L37.6436 88.4367C37.4873 88.7033 37.2079 88.8545 36.9132 88.8545Z" fill="#414141"/>
<path fill-rule="evenodd" clip-rule="evenodd" d="M42.8523 85.5682C42.7088 85.5682 42.5653 85.5246 42.4371 85.4529L36.6201 82.0948C36.2101 81.8641 36.0743 81.3412 36.3126 80.9387C36.5432 80.5362 37.0583 80.4004 37.4606 80.6285L43.2777 83.9866C43.68 84.2224 43.8158 84.7402 43.5852 85.1427C43.4263 85.417 43.147 85.5682 42.8523 85.5682Z" fill="#414141"/>
<path fill-rule="evenodd" clip-rule="evenodd" d="M48.9018 68.1241C48.7506 68.1241 48.6071 68.0882 48.4789 68.0088C48.0715 67.7781 47.9331 67.2628 48.1714 66.8604L52.146 59.9648C52.3817 59.5623 52.8994 59.4265 53.3017 59.6572C53.704 59.893 53.8398 60.4108 53.6092 60.8133L49.627 67.7012C49.4681 67.9729 49.1888 68.1241 48.9018 68.1241Z" fill="#414141"/>
<path fill-rule="evenodd" clip-rule="evenodd" d="M52.9538 65.876C52.8103 65.876 52.6745 65.8325 52.5386 65.7607L48.5564 63.4561C48.1541 63.2254 48.0183 62.7178 48.2489 62.3077C48.4847 61.9001 49.0023 61.7694 49.4046 62.0001L53.3791 64.2969C53.7892 64.5328 53.925 65.0506 53.6867 65.4531C53.5278 65.7197 53.2485 65.876 52.9538 65.876Z" fill="#414141"/>
<path fill-rule="evenodd" clip-rule="evenodd" d="M23.4148 72.4202C23.2713 72.4202 23.1278 72.3766 22.992 72.3049C22.5897 72.069 22.4538 71.5512 22.6845 71.1488L26.6667 64.2608C26.8947 63.8584 27.4124 63.7148 27.8147 63.9507C28.2247 64.1814 28.3605 64.6966 28.1222 65.0991L24.1477 71.9947C23.9862 72.2639 23.7069 72.4202 23.4148 72.4202Z" fill="#414141"/>
<path fill-rule="evenodd" clip-rule="evenodd" d="M27.4726 70.167C27.3291 70.167 27.1855 70.1312 27.0497 70.0517L23.0752 67.7549C22.6652 67.519 22.5294 67.0089 22.7677 66.5988C22.9958 66.1963 23.5134 66.0682 23.9157 66.2912L27.8979 68.5957C28.3003 68.8264 28.4361 69.3416 28.2054 69.7441C28.0466 70.0183 27.7672 70.167 27.4726 70.167Z" fill="#414141"/>
</svg>
