<svg width="103" height="113" viewBox="0 0 103 113" fill="none" xmlns="http://www.w3.org/2000/svg">
<path d="M101.543 86.0977C102.347 96.1264 80.5948 106.054 52.9567 108.272C25.3186 110.49 2.26106 104.158 1.45627 94.1295C1.00623 88.5215 7.60993 85.6268 18.3521 81.4123C26.8199 78.0902 37.8593 75.6144 50.0423 74.6367C77.6804 72.4188 100.738 76.0689 101.543 86.0977Z" fill="#E8E8E8"/>
<path fill-rule="evenodd" clip-rule="evenodd" d="M41.4498 21.6062C29.7997 28.3356 20.3438 44.6992 20.3438 58.1285C20.3438 71.5579 29.7899 77.0312 41.4498 70.3043C53.1096 63.5773 62.5558 47.2432 62.5558 33.782C62.5558 20.3207 53.0998 14.8793 41.4498 21.6062Z" fill="white"/>
<path fill-rule="evenodd" clip-rule="evenodd" d="M41.8192 22.2317C30.3876 28.8336 21.0862 44.9419 21.0862 58.1284C21.0862 64.3623 23.1527 68.9794 26.9051 71.153C30.6576 73.3267 35.6838 72.7869 41.083 69.6811C52.5146 63.0792 61.816 46.9733 61.816 33.7843C61.816 27.5578 59.7495 22.9383 55.9971 20.7597C52.2446 18.5812 47.2135 19.1258 41.8192 22.2317ZM32.0245 73.9302C29.9722 73.9569 27.9502 73.4334 26.1689 72.414C21.9427 69.9926 19.6211 64.9241 19.6211 58.1284C19.6211 44.466 29.2464 27.8032 41.083 20.9707C46.9583 17.5704 52.5195 17.0454 56.7358 19.4987C60.9521 21.952 63.2836 26.9936 63.2836 33.7819C63.2836 47.4492 53.6558 64.1121 41.8192 70.947C38.3809 72.9366 35.0407 73.9302 32.0245 73.9302Z" fill="#414141"/>
<path fill-rule="evenodd" clip-rule="evenodd" d="M41.4512 40.9848C34.2089 46.2717 28.498 53.9088 25.7444 61.2172C25.0532 60.4078 24.5704 59.4418 24.3381 58.4033C21.9674 48.8354 29.6907 34.0518 41.4635 25.4382L41.4512 40.9848Z" fill="white"/>
<path fill-rule="evenodd" clip-rule="evenodd" d="M40.7146 26.9298C29.7959 35.4796 22.8211 49.2721 25.0323 58.2144C25.1565 58.7145 25.3342 59.1998 25.5624 59.6618C28.5835 52.5178 34.1521 45.4768 40.7146 40.6168V26.9298ZM25.744 61.9606C25.5332 61.9554 25.333 61.8672 25.1869 61.7152C24.4213 60.8056 23.8859 59.7252 23.626 58.5652C21.1988 48.7741 29.0032 33.6396 41.0262 24.8593C41.1359 24.7787 41.2657 24.7301 41.4013 24.7188C41.5369 24.7076 41.673 24.7341 41.7944 24.7955C41.914 24.8557 42.0149 24.9473 42.0862 25.0606C42.1576 25.1738 42.1967 25.3044 42.1994 25.4382V40.9848C42.1982 41.0985 42.1701 41.2104 42.1172 41.311C42.0642 41.4117 41.9881 41.4984 41.895 41.5638C35.0233 46.6004 29.2511 54.0339 26.4336 61.4846C26.3883 61.6011 26.314 61.7041 26.2179 61.7839C26.1217 61.8637 26.0067 61.9178 25.8839 61.9409C25.8356 61.9602 25.7833 61.967 25.7317 61.9606H25.744Z" fill="#414141"/>
<path fill-rule="evenodd" clip-rule="evenodd" d="M50.531 1.71235L60.8263 7.65179C59.0584 7.00936 57.1952 6.6677 55.3142 6.64103C46.2558 6.51591 37.1164 12.8332 30.9785 18.9811C19.8978 30.0578 10.9891 47.6848 10.9891 63.5331C10.9891 69.7228 12.4298 76.619 17.0436 81.0693L17.4878 81.4864L7.19986 75.5469C6.98144 75.3973 6.12004 74.4847 5.90162 74.259C0.163727 67.7577 0.0336547 57.26 1.48408 49.2107C3.55051 37.6802 9.72279 25.1684 18.1726 15.6913C25.6087 7.34758 38.6822 -2.47053 50.531 1.71235Z" fill="#2B7CFF"/>
<path fill-rule="evenodd" clip-rule="evenodd" d="M44.6773 1.467C35.3514 1.467 25.5125 8.56931 18.7267 16.1868C10.434 25.4848 4.26172 37.8863 2.20756 49.3358C1.32651 54.2424 -0.0208229 66.455 6.45823 73.7634C6.70365 74.0504 7.46934 74.8428 7.63868 74.968L14.1374 78.7215C10.996 73.9793 10.2598 68.0619 10.2598 63.5454C10.2598 48.6612 18.3757 30.5435 30.4577 18.4733C34.2519 14.6854 44.2012 5.92956 55.0413 5.92956H55.3211C55.7039 5.92956 56.0574 5.94918 56.4279 5.97371L50.2213 2.38453C48.4359 1.7789 46.5626 1.47301 44.6773 1.47926V1.467ZM17.4898 82.2297C17.3612 82.2238 17.2354 82.1895 17.1217 82.1292L6.8337 76.1824C6.31133 75.733 5.81941 75.2495 5.36119 74.7349C-1.53753 66.926 -0.146002 54.1958 0.766956 49.0856C2.87019 37.3662 9.175 24.6973 17.642 15.1908C26.1089 5.68423 39.2732 -3.025 50.7858 1.01313L50.9109 1.06956L61.1989 7.01637C61.3563 7.10556 61.4745 7.25066 61.53 7.42289C61.5854 7.59512 61.5741 7.7819 61.4983 7.94617C61.4227 8.11377 61.287 8.247 61.1181 8.31965C60.9491 8.39229 60.759 8.39908 60.5853 8.33869C58.8971 7.71323 57.1117 7.39018 55.3113 7.38436H55.0487C44.7411 7.38436 35.1698 15.8335 31.5057 19.4988C19.6765 31.3188 11.7347 49.0218 11.7347 63.5331C11.7347 68.7317 12.7459 75.8953 17.5585 80.5517L17.9978 80.9516C18.127 81.0749 18.2069 81.2409 18.2227 81.4187C18.2385 81.5965 18.1891 81.774 18.0837 81.9182C18.0196 82.0165 17.9313 82.0968 17.8274 82.1513C17.7234 82.2058 17.6072 82.2328 17.4898 82.2297Z" fill="#414141"/>
<path fill-rule="evenodd" clip-rule="evenodd" d="M56.1008 70.6355L45.8128 64.6936L45.7196 64.6298L45.6263 64.5685L45.5331 64.5072L45.4447 64.4238L45.3588 64.3428L45.2754 64.2815L45.1895 64.2005L45.1085 64.1122L45.0275 64.0312L44.9465 63.9503L44.8704 63.8619L44.7968 63.7638L44.7207 63.6829L55.0087 69.6223L55.0848 69.7057L55.1584 69.8039L55.2345 69.8922L55.3155 69.9731L55.3965 70.0541L55.4775 70.1424L55.5634 70.2234L55.6468 70.2847L55.7327 70.3657L55.8284 70.4295L55.9143 70.5104L56.0076 70.5718L56.1008 70.6355Z" fill="white"/>
<path fill-rule="evenodd" clip-rule="evenodd" d="M56.0649 71.3616C55.9517 71.3663 55.8394 71.3391 55.741 71.2831L45.453 65.3411C45.426 65.3166 45.3082 65.2602 45.2836 65.2357C45.2142 65.1857 45.1478 65.1316 45.0849 65.0737C45.0112 65.0236 44.9422 64.9669 44.8787 64.9044C44.8787 64.9044 44.6897 64.7425 44.6848 64.7425C44.6292 64.675 44.5685 64.6118 44.5032 64.5536C44.5032 64.5365 44.3289 64.3672 44.3216 64.3475L44.1596 64.1611C44.0475 64.0292 43.9855 63.8621 43.9844 63.6891C43.9833 63.516 44.0432 63.3481 44.1537 63.2149C44.2641 63.0816 44.418 62.9916 44.5883 62.9605C44.7586 62.9294 44.9344 62.9592 45.0849 63.0448L55.3777 68.9843C55.4594 69.0297 55.5286 69.0946 55.579 69.1732L55.4219 69.3965L55.5274 69.4602L55.7041 69.3155L55.5912 69.5044L55.7336 69.5854L55.8465 69.4602L55.7729 69.6025L55.9029 69.6835L55.979 69.6025L55.9348 69.6835L56.0845 69.7914L56.1287 69.7277L56.1017 69.7914L56.2514 69.8773L56.2711 69.8528V69.8969L56.4331 69.9779C56.5922 70.0917 56.7047 70.2593 56.7498 70.4496C56.7949 70.6399 56.7696 70.8401 56.6785 71.0132C56.6146 71.1189 56.5246 71.2065 56.4172 71.2675C56.3098 71.3285 56.1885 71.3609 56.0649 71.3616Z" fill="#414141"/>
<path fill-rule="evenodd" clip-rule="evenodd" d="M26.5301 71.7958L16.2422 65.8539C27.8358 72.2324 42.1265 56.6172 47.4447 46.1195C51.9408 37.241 56.1153 20.247 46.0826 14.175C49.2043 16.0028 56.697 19.6852 58.945 22.2489C67.6525 32.1038 59.4064 52.3558 51.0597 62.1028C45.6728 68.4004 35.1664 76.538 26.5301 71.7958Z" fill="#2B7CFF"/>
<path fill-rule="evenodd" clip-rule="evenodd" d="M26.8909 71.1532C34.651 75.4219 44.458 68.6999 50.4953 61.6294C58.999 51.6936 66.6929 32.1284 58.3929 22.7298C57.0578 21.2137 53.5483 19.1431 50.4756 17.4503C55.4773 25.1709 52.2426 38.2568 48.0975 46.4582C43.8469 54.8387 35.0682 64.7108 26.5007 67.3653C24.8949 67.8753 23.2152 68.1133 21.5309 68.0694L26.8811 71.1532H26.8909ZM32.1281 73.9475C30.0472 73.9546 27.9982 73.4356 26.1718 72.4387C26.1718 72.4387 26.1718 72.4387 26.1718 72.4141L15.8838 66.4968C15.7215 66.3991 15.6031 66.2425 15.5532 66.0597C15.5034 65.877 15.526 65.682 15.6163 65.5155C15.7096 65.3485 15.8643 65.2244 16.0475 65.1695C16.2308 65.1145 16.4282 65.133 16.598 65.2211C19.4326 66.774 22.6231 67.0243 26.081 65.9693C34.2485 63.4424 42.6811 53.9187 46.7894 45.8007C51.3346 36.8192 55.0551 20.4802 45.7047 14.8277C45.5382 14.7261 45.4188 14.5626 45.3728 14.3731C45.3268 14.1836 45.3579 13.9836 45.4593 13.817C45.5605 13.6584 45.7187 13.5447 45.9013 13.499C46.0838 13.4534 46.2769 13.4794 46.4409 13.5717C47.1207 13.9642 48.0092 14.4377 49.0007 14.9823C52.6525 16.967 57.6468 19.6804 59.4948 21.7706C68.3299 31.7874 60.4445 52.2627 51.6095 62.5985C46.6422 68.3809 39.2109 73.9475 32.1281 73.9475Z" fill="#414141"/>
<path fill-rule="evenodd" clip-rule="evenodd" d="M56.3705 20.122L46.08 14.1752L45.7192 13.9937L45.3511 13.8048L44.9707 13.6379L55.2587 19.5798L55.6391 19.7467L56.0072 19.9356L56.3705 20.122Z" fill="white"/>
<path fill-rule="evenodd" clip-rule="evenodd" d="M56.3699 20.8653C56.244 20.8603 56.1214 20.8232 56.014 20.7573L54.9587 20.247L44.6021 14.261C44.4382 14.1717 44.3162 14.0214 44.2625 13.8428C44.2087 13.6641 44.2276 13.4715 44.3149 13.3067C44.4023 13.1404 44.5484 13.0126 44.7249 12.9482C44.9014 12.8838 45.0956 12.8874 45.2696 12.9583L46.4304 13.5373L56.738 19.4988C56.8205 19.5452 56.893 19.6075 56.9513 19.682C57.0097 19.7565 57.0527 19.8417 57.078 19.9329C57.1034 20.0241 57.1104 20.1193 57.0988 20.2132C57.0872 20.3072 57.0572 20.3978 57.0104 20.4801C56.9458 20.594 56.853 20.6893 56.7407 20.7568C56.6285 20.8242 56.5008 20.8616 56.3699 20.8653Z" fill="#414141"/>
<path fill-rule="evenodd" clip-rule="evenodd" d="M56.3692 20.1221C52.5554 17.9263 47.2887 18.2379 41.4477 21.6063C35.6067 24.9747 30.3474 30.7375 26.5262 37.3467C22.7051 43.9559 20.3515 51.4017 20.3515 58.1286C20.3515 64.8556 22.7075 69.5806 26.5262 71.796C30.3449 74.0113 35.6239 73.6801 41.4477 70.3044C47.2715 66.9286 52.5554 61.1732 56.3692 54.5713C60.183 47.9695 62.5439 40.5115 62.5439 33.782C62.5439 27.0526 60.183 22.33 56.3692 20.1221ZM41.4477 10.7995C49.8582 5.93215 57.4735 5.47583 62.9857 8.66512C68.4978 11.8544 71.9066 18.6623 71.9066 28.3725C71.9066 33.9832 70.7654 39.9496 68.7407 45.8278C69.3577 45.9117 69.9522 46.1159 70.4906 46.4288L92.8973 59.3724C96.7798 61.6049 96.7725 68.9133 92.8973 75.6231C89.0246 82.3304 82.6879 85.9932 78.8127 83.7607L56.3888 70.822C55.8515 70.5162 55.3788 70.1087 54.9973 69.6223C50.9159 74.3229 46.307 78.2972 41.4379 81.1136C33.0274 85.9736 25.412 86.4299 19.8999 83.248C14.3878 80.0661 10.9863 73.2434 10.9863 63.5332C10.9863 53.8231 14.3952 43.0825 19.9073 33.5343C25.4194 23.986 33.0347 15.6472 41.4452 10.8044L41.4477 10.7995Z" fill="white"/>
<path fill-rule="evenodd" clip-rule="evenodd" d="M50.8717 19.4546C48.1107 19.4546 45.0282 20.3893 41.8182 22.2317C36.2938 25.421 31.086 30.9238 27.1667 37.7194C23.2473 44.5151 21.0852 51.7572 21.0852 58.1284C21.0852 64.3623 23.1516 68.999 26.8991 71.153C30.6467 73.307 35.6827 72.7869 41.0819 69.6811C46.6136 66.4918 51.8141 60.989 55.7334 54.1982C59.6527 47.4075 61.8149 40.1629 61.8149 33.7843C61.8149 27.5578 59.7485 22.9137 56.0034 20.7597C54.437 19.8825 52.667 19.4332 50.8717 19.457V19.4546ZM32.0235 73.9302C29.9688 73.9567 27.9445 73.4332 26.1604 72.414C21.9417 69.9926 19.62 64.9241 19.62 58.1284C19.62 51.5045 21.8484 43.9925 25.8929 36.9712C29.9374 29.9498 35.3391 24.2778 41.0819 20.9707C46.9572 17.5704 52.5184 17.0454 56.7347 19.4987C60.9608 21.9177 63.2825 26.9936 63.2825 33.7819C63.2825 40.4058 61.0541 47.9252 57.0071 54.9441C52.9602 61.963 47.561 67.6325 41.8182 70.947C38.3823 72.9366 35.0397 73.9302 32.0235 73.9302ZM55.0462 7.36469C57.6993 7.32795 60.314 8.00044 62.6199 9.3126C68.1393 12.4774 71.1727 19.2657 71.1727 28.3772C71.1727 33.7745 70.1248 39.5815 68.0461 45.5847C68.0119 45.6874 68.0004 45.7962 68.0122 45.9038C68.0241 46.0113 68.0591 46.1151 68.1148 46.2078C68.1728 46.2984 68.2486 46.3762 68.3376 46.4365C68.4266 46.4968 68.527 46.5384 68.6326 46.5587C69.1621 46.6308 69.6724 46.8058 70.1346 47.0739L92.5462 59.9905C94.1832 60.9473 95.0863 63.0179 95.0863 65.8318C95.0863 68.7758 94.0874 72.1221 92.2763 75.2697C88.6563 81.5207 82.6706 85.1221 79.1856 83.1202L56.774 70.1766C56.3215 69.9154 55.9213 69.5727 55.5935 69.1659C55.5254 69.0822 55.4413 69.0131 55.346 68.9625C55.2507 68.912 55.1463 68.881 55.0389 68.8715C54.9296 68.8765 54.8225 68.9034 54.7239 68.9506C54.6252 68.9978 54.5371 69.0643 54.4646 69.1462C50.2925 73.9449 45.7866 77.7769 41.0917 80.4658C33.1892 85.0412 25.8095 85.7894 20.29 82.6026C14.7706 79.4158 11.7249 72.6447 11.7249 63.5331C11.7249 54.2841 14.8589 43.7423 20.5452 33.8898C26.2316 24.0373 33.7979 16.0592 41.8157 11.4396C46.4983 8.74099 50.9993 7.36469 55.0438 7.36469H55.0462ZM27.8538 86.0176C24.9455 86.0568 22.0792 85.3218 19.5489 83.8881C13.5557 80.4265 10.2598 73.2065 10.2598 63.5257C10.2598 54.0265 13.4502 43.2173 19.2764 33.1587C25.1027 23.1002 32.8309 14.9356 41.0819 10.1615C49.4482 5.33826 57.3581 4.57037 63.3512 8.02708C69.3443 11.4838 72.6452 18.7112 72.6452 28.3895C72.6452 33.7328 71.6635 39.4294 69.7002 45.3173C70.1018 45.4371 70.4888 45.6017 70.8537 45.808L93.2678 58.7491C95.3759 59.9758 96.5441 62.4953 96.5441 65.8269C96.5441 69.0407 95.4765 72.6618 93.5352 76.0179C89.4515 83.0957 82.6853 86.864 78.4469 84.418L56.0353 71.4818C55.6721 71.2768 55.3343 71.0298 55.029 70.7458C50.8962 75.3776 46.4394 79.1091 41.8182 81.7856C36.9049 84.5873 32.1487 86.0176 27.8538 86.0176Z" fill="#414141"/>
</svg>
