<svg width="103" height="119" viewBox="0 0 103 119" fill="none" xmlns="http://www.w3.org/2000/svg">
<path d="M100.077 88.8809C101.556 97.5322 84.1906 107.72 61.2902 111.635C38.3898 115.55 18.6262 111.711 17.147 103.06C16.3199 98.2223 21.3854 92.9042 30.0164 88.4711C36.82 84.9765 45.8391 82.0319 55.9337 80.306C78.8341 76.3905 98.5977 80.2296 100.077 88.8809Z" fill="#E8E8E8"/>
<path fill-rule="evenodd" clip-rule="evenodd" d="M25.8287 107.091L0.794922 92.6304L62.0099 57.2798L87.0368 71.7403L25.8287 107.091Z" fill="#2B7CFF"/>
<path fill-rule="evenodd" clip-rule="evenodd" d="M2.37244 92.6302L25.8284 106.189L85.4655 71.7401L62.0096 58.1815L2.37244 92.6302ZM25.8284 107.879C25.694 107.879 25.562 107.838 25.4482 107.772L0.400725 93.3044C0.154827 93.1723 0 92.9103 0 92.6302C0 92.3501 0.154827 92.0881 0.400725 91.9492L61.6088 56.5986C61.857 56.4574 62.1644 56.4574 62.4103 56.5986L87.4372 71.0591C87.6831 71.2003 87.8379 71.4599 87.8379 71.7401C87.8379 72.0202 87.6831 72.2821 87.4372 72.4142L26.2223 107.772C26.1152 107.84 25.9627 107.879 25.8284 107.879Z" fill="#414141"/>
<path fill-rule="evenodd" clip-rule="evenodd" d="M25.8287 115.074L0.794922 100.613V92.6304L25.8287 107.091V115.074Z" fill="#2B7CFF"/>
<path fill-rule="evenodd" clip-rule="evenodd" d="M1.56877 100.158L25.0519 113.707V107.544L1.56877 93.9877V100.158ZM25.8283 115.855C25.694 115.855 25.562 115.821 25.4481 115.748L0.400724 101.287C0.154827 101.146 0 100.887 0 100.613V92.6303C0 92.3501 0.154827 92.0882 0.400724 91.9493C0.642068 91.8081 0.956268 91.8081 1.19533 91.9493L26.2222 106.41C26.4704 106.551 26.6229 106.811 26.6229 107.091V115.074C26.6229 115.354 26.4704 115.616 26.2222 115.75C26.1152 115.821 25.9627 115.855 25.8283 115.855Z" fill="#414141"/>
<path fill-rule="evenodd" clip-rule="evenodd" d="M25.8281 107.091L87.0362 71.7402V79.7232L25.8281 115.074V107.091Z" fill="#2B7CFF"/>
<path fill-rule="evenodd" clip-rule="evenodd" d="M26.6214 107.546V113.71L86.2585 79.2678V73.0978L26.6214 107.546ZM25.8268 115.855C25.6925 115.855 25.5605 115.821 25.4466 115.748C25.2053 115.614 25.0527 115.354 25.0527 115.072V107.089C25.0527 106.808 25.2076 106.547 25.4466 106.408L86.6615 71.0571C86.9097 70.9159 87.1966 70.9159 87.4379 71.0571C87.6838 71.1983 87.8386 71.4579 87.8386 71.7381V79.721C87.8386 80.0012 87.6838 80.2563 87.4379 80.402L26.223 115.746C26.1137 115.821 25.9612 115.855 25.8268 115.855Z" fill="#414141"/>
<path fill-rule="evenodd" clip-rule="evenodd" d="M58.3256 82.11L44.5781 74.1726V28.427L58.3256 36.3622V82.11Z" fill="white"/>
<path fill-rule="evenodd" clip-rule="evenodd" d="M45.3607 73.7194L57.5304 80.7526V36.8177L45.3607 29.7845V73.7194ZM58.3273 82.8981C58.193 82.8981 58.0677 82.864 57.9334 82.7911L44.1859 74.8559C43.9377 74.7147 43.7852 74.4551 43.7852 74.1726V28.427C43.7852 28.1469 43.9377 27.885 44.1859 27.746C44.4272 27.6048 44.7141 27.6048 44.96 27.746L58.7076 35.688C58.9489 35.8292 59.1015 36.0821 59.1015 36.3622V82.1078C59.1015 82.388 58.9466 82.6567 58.7076 82.7888C58.5937 82.864 58.4594 82.8981 58.3273 82.8981Z" fill="#414141"/>
<path fill-rule="evenodd" clip-rule="evenodd" d="M58.3256 36.3621L44.5781 28.427L60.8301 19.041L74.5776 26.983L58.3256 36.3621Z" fill="white"/>
<path fill-rule="evenodd" clip-rule="evenodd" d="M46.1576 28.427L58.3273 35.4603L73.0038 26.9831L60.834 19.9498L46.1576 28.427ZM58.3273 37.1503C58.1929 37.1503 58.0677 37.1161 57.9334 37.0432L44.1859 29.108C43.9377 28.9668 43.7852 28.7072 43.7852 28.427C43.7852 28.1469 43.9377 27.885 44.1859 27.746L60.4379 18.3601C60.6792 18.2188 60.9661 18.2188 61.2143 18.3601L74.98 26.3021C75.2214 26.4433 75.3534 26.7029 75.3534 26.9831C75.3534 27.2564 75.2191 27.5183 74.98 27.6572L58.7075 37.0432C58.5937 37.1184 58.4593 37.1503 58.3273 37.1503Z" fill="#414141"/>
<path fill-rule="evenodd" clip-rule="evenodd" d="M42.9428 90.9996L29.1953 83.0644V50.0142L42.9428 57.9561V90.9996Z" fill="#2B7CFF"/>
<path fill-rule="evenodd" clip-rule="evenodd" d="M29.9714 82.6112L42.148 89.6445V58.4117L29.9714 51.3785V82.6112ZM42.9426 91.7899C42.7878 91.7899 42.6557 91.749 42.5419 91.6829L28.8011 83.7409C28.5529 83.5997 28.4004 83.3401 28.4004 83.0645V50.0142C28.4004 49.7341 28.5529 49.4721 28.8011 49.34C29.0425 49.1988 29.3293 49.1988 29.5752 49.34L43.316 57.2752C43.5641 57.4164 43.7167 57.676 43.7167 57.9562V91.0019C43.7167 91.282 43.5641 91.544 43.316 91.6829C43.209 91.749 43.0769 91.7899 42.9426 91.7899Z" fill="#414141"/>
<path fill-rule="evenodd" clip-rule="evenodd" d="M42.9428 57.9562L29.1953 50.0142L45.4496 40.6282L59.1948 48.5702L42.9428 57.9562Z" fill="#2B7CFF"/>
<path fill-rule="evenodd" clip-rule="evenodd" d="M30.7455 50.0142L42.9426 57.0474L57.6168 48.5702L45.4471 41.537L30.7455 50.0142ZM42.9426 58.7374C42.7877 58.7374 42.6557 58.7032 42.5418 58.6304L28.8011 50.6952C28.5529 50.554 28.4004 50.2944 28.4004 50.0142C28.4004 49.7341 28.5529 49.4722 28.8011 49.3401L45.0464 39.9472C45.2923 39.806 45.5814 39.806 45.8205 39.9472L59.568 47.8892C59.8139 48.0304 59.9688 48.2901 59.9688 48.5702C59.9688 48.8504 59.8139 49.1123 59.568 49.2535L43.3159 58.6326C43.2089 58.7055 43.0769 58.7374 42.9426 58.7374Z" fill="#414141"/>
<path fill-rule="evenodd" clip-rule="evenodd" d="M42.9434 90.9995V57.9561L59.1953 48.5701V81.6135L42.9434 90.9995Z" fill="#2B7CFF"/>
<path fill-rule="evenodd" clip-rule="evenodd" d="M43.7191 58.4094V89.6421L58.3956 81.1581V49.9321L43.7191 58.4094ZM42.945 91.7899C42.7902 91.7899 42.6581 91.7489 42.5443 91.6828C42.3029 91.5439 42.1504 91.282 42.1504 91.0019V57.9561C42.1504 57.676 42.3029 57.4141 42.5443 57.2751L58.7963 47.8891C59.0445 47.7479 59.3314 47.7479 59.5727 47.8891C59.8186 48.0303 59.9734 48.29 59.9734 48.5701V81.6159C59.9734 81.896 59.8186 82.1579 59.5727 82.2969L43.3207 91.6828C43.2114 91.7489 43.0793 91.7899 42.945 91.7899Z" fill="#414141"/>
<path fill-rule="evenodd" clip-rule="evenodd" d="M58.3262 82.1101V36.3623L74.5782 26.9832V72.7242L58.3262 82.1101Z" fill="white"/>
<path fill-rule="evenodd" clip-rule="evenodd" d="M59.102 36.8178V80.7527L73.783 72.2755V28.3406L59.102 36.8178ZM58.3278 82.8982C58.1935 82.8982 58.0683 82.864 57.9339 82.7911C57.6858 82.6568 57.5332 82.3903 57.5332 82.1101V36.3645C57.5332 36.0844 57.6858 35.8293 57.9339 35.6904L74.1791 26.3044C74.4273 26.1632 74.7347 26.1632 74.9806 26.3044C75.2219 26.4456 75.354 26.7053 75.354 26.9854V72.7241C75.354 73.0043 75.1991 73.273 74.9601 73.4051L58.7081 82.7911C58.5942 82.864 58.4599 82.8982 58.3278 82.8982Z" fill="#414141"/>
<path fill-rule="evenodd" clip-rule="evenodd" d="M42.9449 72.2822L29.1973 64.347L12.9453 73.7331L26.6905 81.6682L42.9449 72.2822Z" fill="white"/>
<path fill-rule="evenodd" clip-rule="evenodd" d="M14.5007 73.7331L26.6909 80.7663L41.3742 72.2822L29.1977 65.2558L14.5007 73.7331ZM26.6886 82.4563C26.5361 82.4563 26.4017 82.4221 26.2947 82.3492L12.5472 74.4141C12.3013 74.2729 12.1465 74.0132 12.1465 73.7331C12.1465 73.4529 12.3013 73.191 12.5472 73.0498L28.7992 63.6638C29.0406 63.5226 29.3275 63.5226 29.5734 63.6638L43.3141 71.6058C43.5622 71.747 43.7148 72.0066 43.7148 72.28C43.7148 72.5669 43.5622 72.8289 43.3141 72.9632L27.0689 82.3492C26.9573 82.4244 26.8229 82.4563 26.6886 82.4563Z" fill="#414141"/>
<path fill-rule="evenodd" clip-rule="evenodd" d="M26.6905 81.6681L12.9453 73.7329V92.4434L26.6905 100.385V81.6681Z" fill="white"/>
<path fill-rule="evenodd" clip-rule="evenodd" d="M13.7198 91.9972L25.8963 99.0236V82.1306L13.7198 75.0906V91.9972ZM26.6886 101.174C26.536 101.174 26.4017 101.135 26.2947 101.067L12.5472 93.1246C12.3013 92.9834 12.1465 92.7238 12.1465 92.4436V73.7308C12.1465 73.4507 12.3013 73.1888 12.5472 73.0476C12.7886 72.9063 13.0754 72.9063 13.3236 73.0476L27.0711 80.9896C27.3101 81.1308 27.465 81.3904 27.465 81.6637V100.383C27.465 100.663 27.3101 100.925 27.0711 101.064C26.9572 101.135 26.8229 101.174 26.6886 101.174Z" fill="#414141"/>
<path fill-rule="evenodd" clip-rule="evenodd" d="M42.9438 90.9996V72.2822L26.6895 81.6682V100.386L42.9438 90.9996Z" fill="white"/>
<path fill-rule="evenodd" clip-rule="evenodd" d="M27.4656 82.1282V99.0211L42.1489 90.5439V73.6441L27.4656 82.1282ZM26.6891 101.173C26.5366 101.173 26.4023 101.135 26.2953 101.066C26.0471 100.925 25.8945 100.666 25.8945 100.385V81.6658C25.8945 81.3925 26.0494 81.1306 26.2953 80.9917L42.5428 71.6057C42.7887 71.4645 43.0778 71.4645 43.3169 71.6057C43.5651 71.7469 43.7176 71.9997 43.7176 72.2799V90.9994C43.7176 91.2796 43.5651 91.5415 43.3169 91.6804L27.0716 101.066C26.9578 101.135 26.8235 101.173 26.6891 101.173Z" fill="#414141"/>
<path fill-rule="evenodd" clip-rule="evenodd" d="M59.5703 15.9457L70.235 9.78934L66.8675 7.34319L70.235 0.783691L59.5703 6.94233V15.9457Z" fill="#2B7CFF"/>
<path fill-rule="evenodd" clip-rule="evenodd" d="M60.3657 7.39567V14.5883L68.7923 9.71425L66.3993 7.97644C66.0851 7.75552 65.9985 7.32734 66.1784 6.98797L68.3232 2.79491L60.3657 7.39567ZM59.571 16.7361C59.4367 16.7361 59.3046 16.7019 59.1976 16.629C58.9312 16.4878 58.7969 16.2282 58.7969 15.948V6.94243C58.7969 6.66229 58.9312 6.40037 59.1976 6.26143L69.8373 0.109647C70.1515 -0.0702835 70.5272 -0.0247383 70.7663 0.216687C71.0327 0.458112 71.101 0.83846 70.9461 1.14594L67.886 7.10185L70.7071 9.15397C70.9279 9.3134 71.0349 9.56166 71.0144 9.83497C71.0144 10.0946 70.8596 10.336 70.6342 10.4704L59.9763 16.6268C59.8374 16.7019 59.7031 16.7361 59.571 16.7361Z" fill="#414141"/>
<path fill-rule="evenodd" clip-rule="evenodd" d="M59.5714 28.4953C59.1502 28.4953 58.7949 28.14 58.7949 27.7072V15.948C58.7949 15.5129 59.1502 15.1667 59.5714 15.1667C60.0131 15.1667 60.366 15.5152 60.366 15.948V27.7072C60.366 28.14 60.0108 28.4953 59.5714 28.4953Z" fill="#414141"/>
</svg>
