<svg width="117" height="106" viewBox="0 0 117 106" fill="none" xmlns="http://www.w3.org/2000/svg">
<path d="M116.302 72.7653C116.239 83.3766 95.544 91.8552 70.0792 91.7028C44.6145 91.5504 24.0227 82.8247 24.0862 72.2134C24.1217 66.2796 30.6086 61.0127 40.7734 57.549C48.7861 54.8187 59.0842 53.2088 70.3092 53.2759C95.774 53.4283 116.366 62.154 116.302 72.7653Z" fill="#E8E8E8"/>
<path fill-rule="evenodd" clip-rule="evenodd" d="M104.513 84C105.6 83.9977 106.662 83.7025 107.565 83.1518C108.468 82.6011 109.17 81.8195 109.585 80.9058C109.999 79.9921 110.106 78.9873 109.893 78.0182C109.679 77.0492 109.155 76.1593 108.385 75.4611C107.616 74.763 106.636 74.2877 105.57 74.0955C104.503 73.9033 103.398 74.0026 102.394 74.3811C101.39 74.7595 100.531 75.4 99.9273 76.2217C99.3232 77.0434 99.0005 78.0093 99 78.9977C99.0007 79.6552 99.1438 80.3061 99.4212 80.9134C99.6986 81.5206 100.105 82.0723 100.617 82.5368C101.129 83.0013 101.736 83.3696 102.405 83.6207C103.073 83.8717 103.79 84.0006 104.513 84Z" fill="white"/>
<path fill-rule="evenodd" clip-rule="evenodd" d="M104.53 74.4334C103.55 74.4329 102.593 74.7005 101.779 75.2024C100.964 75.7042 100.329 76.4178 99.9545 77.2528C99.5795 78.0878 99.4812 79.0067 99.6721 79.8932C99.863 80.7797 100.335 81.5941 101.027 82.2332C101.719 82.8724 102.602 83.3076 103.562 83.4838C104.522 83.66 105.518 83.5693 106.422 83.2232C107.327 82.8771 108.1 82.2911 108.644 81.5393C109.187 80.7875 109.477 79.9038 109.477 78.9999C109.47 77.7906 108.947 76.6325 108.021 75.7774C107.094 74.9223 105.84 74.4393 104.53 74.4334ZM104.53 84.9999C103.243 85.0054 101.983 84.6581 100.91 84.0021C99.8375 83.3461 98.9998 82.4109 98.5033 81.3151C98.0068 80.2192 97.8739 79.012 98.1213 77.8463C98.3688 76.6806 98.9855 75.6089 99.8933 74.7671C100.801 73.9252 101.959 73.3511 103.221 73.1173C104.483 72.8836 105.791 73.0008 106.981 73.4541C108.17 73.9074 109.187 74.6764 109.902 75.6637C110.618 76.651 111 77.8121 111 78.9999C110.989 80.5833 110.304 82.0993 109.094 83.2215C107.884 84.3437 106.245 84.9824 104.53 84.9999Z" fill="#414141"/>
<path fill-rule="evenodd" clip-rule="evenodd" d="M110 88.4301C109.969 86.9794 109.376 85.5985 108.348 84.5835C107.32 83.5684 105.939 83 104.5 83C103.061 83 101.68 83.5684 100.652 84.5835C99.6237 85.5985 99.0307 86.9794 99 88.4301V102.214C99.0628 102.974 99.0627 103.399 100.66 104.316C102.196 105.228 106.866 105.228 108.403 104.316C110 103.399 109.94 102.977 110 102.214V88.4301Z" fill="#2B7CFF"/>
<path fill-rule="evenodd" clip-rule="evenodd" d="M99.536 88.3766V102.404C99.5988 103.001 99.5988 103.205 100.816 103.909C102.226 104.716 106.771 104.716 108.182 103.909C109.399 103.205 109.461 103 109.461 102.448L109.527 88.3766V88.2988C109.485 87.0128 108.94 85.7935 108.008 84.8985C107.076 84.0036 105.829 83.5032 104.531 83.5032C103.234 83.5032 101.987 84.0036 101.055 84.8985C100.123 85.7935 99.578 87.0128 99.536 88.2988V88.3766ZM104.531 105.997C102.802 105.997 101.009 105.738 100.112 105.198C98.3192 104.181 98.1256 103.527 98.0628 102.57L98 88.2806C98 88.2443 98.0628 88.1976 98.0628 88.1613C98.13 86.5048 98.8409 84.9383 100.047 83.7899C101.252 82.6414 102.859 82 104.531 82C106.203 82 107.81 82.6414 109.016 83.7899C110.222 84.9383 110.933 86.5048 111 88.1613V102.404C110.935 103.527 110.738 104.181 108.951 105.198C107.988 105.735 106.261 106 104.531 106V105.997Z" fill="#414141"/>
<path fill-rule="evenodd" clip-rule="evenodd" d="M104.513 84C105.6 83.9977 106.662 83.7025 107.565 83.1518C108.468 82.6011 109.17 81.8195 109.585 80.9058C109.999 79.9921 110.106 78.9873 109.893 78.0182C109.679 77.0492 109.155 76.1593 108.385 75.4611C107.616 74.763 106.636 74.2877 105.57 74.0955C104.503 73.9033 103.398 74.0026 102.394 74.3811C101.39 74.7595 100.531 75.4 99.9273 76.2217C99.3232 77.0434 99.0005 78.0093 99 78.9977C99.0007 79.6552 99.1438 80.3061 99.4212 80.9134C99.6986 81.5206 100.105 82.0723 100.617 82.5368C101.129 83.0013 101.736 83.3696 102.405 83.6207C103.073 83.8717 103.79 84.0006 104.513 84Z" fill="#2B7CFF"/>
<path fill-rule="evenodd" clip-rule="evenodd" d="M104.53 74.4334C103.55 74.4329 102.593 74.7005 101.779 75.2024C100.964 75.7042 100.329 76.4178 99.9545 77.2528C99.5795 78.0878 99.4812 79.0067 99.6721 79.8932C99.863 80.7797 100.335 81.5941 101.027 82.2332C101.719 82.8724 102.602 83.3076 103.562 83.4838C104.522 83.66 105.518 83.5693 106.422 83.2232C107.327 82.8771 108.1 82.2911 108.644 81.5393C109.187 80.7875 109.477 79.9038 109.477 78.9999C109.47 77.7906 108.947 76.6325 108.021 75.7774C107.094 74.9223 105.84 74.4393 104.53 74.4334ZM104.53 84.9999C103.243 85.0054 101.983 84.6581 100.91 84.0021C99.8375 83.3461 98.9998 82.4109 98.5033 81.3151C98.0068 80.2192 97.8739 79.012 98.1213 77.8463C98.3688 76.6806 98.9855 75.6089 99.8933 74.7671C100.801 73.9252 101.959 73.3511 103.221 73.1173C104.483 72.8836 105.791 73.0008 106.981 73.4541C108.17 73.9074 109.187 74.6764 109.902 75.6637C110.618 76.651 111 77.8121 111 78.9999C110.989 80.5833 110.304 82.0993 109.094 83.2215C107.884 84.3437 106.245 84.9824 104.53 84.9999Z" fill="#414141"/>
<path fill-rule="evenodd" clip-rule="evenodd" d="M26 36.0051V63.9723L26.1854 64.873C26.6222 66.7479 27.6786 68.5924 28.8594 70.097C31.47 73.3243 35.3833 75.7599 39.1747 77.3609C51.2956 82.5088 68.6325 82.2728 80.3826 76.1557C83.5518 74.5117 86.7312 72.1876 88.7628 69.2521C89.6904 67.9178 90.3834 66.4351 90.8121 64.8679L91 63.9723V36C90.8853 36.6048 90.7404 37.2035 90.5658 37.7938C89.8616 39.7072 88.7834 41.4614 87.394 42.9544C83.6051 47.1382 77.6374 49.8479 72.2309 51.2864C61.5397 54.161 47.9917 53.5699 37.8593 48.8102C33.946 46.9783 29.9057 44.1773 27.6684 40.4375C26.9899 39.3468 26.4861 38.1569 26.1752 36.9109L26 36.0051Z" fill="white"/>
<path fill-rule="evenodd" clip-rule="evenodd" d="M26.4412 40.0141V64.0303L26.6305 64.7851C27.1325 66.6052 28.0035 68.3018 29.189 69.7686C31.3816 72.526 35.0121 75.0601 39.3334 76.901C51.6142 82.1541 68.8252 81.6508 80.1593 75.7071C82.6641 74.3926 86.1077 72.1563 88.3618 68.9521C89.2755 67.6951 89.9352 66.2707 90.3037 64.7594L90.4904 63.8813V40.0038C89.8509 41.1795 89.0736 42.2742 88.175 43.2645C83.539 48.3712 76.3394 50.8719 72.5196 51.9092C61.0064 55.0133 47.2213 54.0094 37.3915 49.3417C34.0092 47.7396 29.3758 44.9128 26.8096 40.5764C26.6842 40.3941 26.5537 40.199 26.4335 40.0038L26.4412 40.0141ZM58.4377 81.9897C51.5502 81.9897 44.6013 80.7573 38.7143 78.2566C35.5213 76.8933 31.0746 74.467 28.0709 70.6928C26.7416 69.0516 25.7612 67.1547 25.1901 65.1189L25.0007 64.1817V35.7393C24.9925 35.5598 25.0528 35.384 25.1693 35.2475C25.2857 35.1111 25.4496 35.0244 25.6276 35.005C25.8114 34.9836 25.9966 35.0317 26.1471 35.1399C26.2975 35.2482 26.4023 35.4088 26.4412 35.5904L26.6305 36.4992C26.9486 37.6754 27.4337 38.7995 28.0709 39.837C29.9489 42.9718 33.4438 45.8808 38.026 48.0297C47.5436 52.5357 60.9424 53.5036 72.1512 50.4945C75.8457 49.5009 82.7331 47.1055 87.0544 42.2786C88.3985 40.858 89.4236 39.1648 90.0606 37.3131C90.236 36.7668 90.3821 36.2114 90.4981 35.6494C90.5297 35.4618 90.6315 35.2935 90.7828 35.1789C90.9341 35.0643 91.1233 35.0122 91.3117 35.0332C91.4925 35.0426 91.6633 35.1195 91.7906 35.2486C91.9179 35.3778 91.9926 35.55 92 35.7315V64.0379L91.7441 65.0932C91.3271 66.7821 90.6047 68.3799 89.6129 69.8071C87.1721 73.2578 83.4725 75.6327 80.8475 77.0217C74.5946 80.3234 66.5174 82 58.4377 82V81.9897Z" fill="#414141"/>
<path fill-rule="evenodd" clip-rule="evenodd" d="M116 34V36.4799L58 70V67.5201L116 34Z" fill="#2B7CFF"/>
<path fill-rule="evenodd" clip-rule="evenodd" d="M59.4349 68.164V68.9463L115.497 35.8281V35.0457L59.4349 68.164ZM58.7494 70.9986C58.6181 70.9982 58.4891 70.9632 58.3748 70.8969C58.2592 70.8347 58.1629 70.7408 58.0967 70.6256C58.0306 70.5104 57.9971 70.3786 58.0002 70.245V67.7311C57.9968 67.5985 58.0301 67.4676 58.0964 67.3536C58.1627 67.2396 58.2593 67.1471 58.3748 67.087L115.876 33.1004C115.991 33.0346 116.12 33 116.251 33C116.382 33 116.511 33.0346 116.625 33.1004C116.732 33.173 116.821 33.2693 116.886 33.3822C116.951 33.4952 116.99 33.6217 117 33.7523V36.2662C116.99 36.3957 116.951 36.5212 116.886 36.6329C116.821 36.7446 116.732 36.8395 116.625 36.9103L59.0603 70.8969C58.9737 70.9712 58.8621 71.0078 58.7494 70.9986Z" fill="#414141"/>
<path fill-rule="evenodd" clip-rule="evenodd" d="M58 67.5201V70L1 36.4799V34L58 67.5201Z" fill="white"/>
<path fill-rule="evenodd" clip-rule="evenodd" d="M1.43646 35.8369L57.5584 68.9464V68.1643L1.43646 35.0548V35.8369ZM58.3237 70.9929C58.1922 70.9925 58.0631 70.9575 57.9487 70.8912L0.375267 36.9189C0.259573 36.8588 0.162907 36.7664 0.0965316 36.6524C0.0301562 36.5384 -0.00323091 36.4075 0.000246414 36.2749V33.7513C-0.00287383 33.6178 0.0305842 33.486 0.096843 33.3708C0.163102 33.2557 0.259549 33.1617 0.375267 33.0995C0.478384 33.0345 0.597177 33 0.718368 33C0.83956 33 0.958353 33.0345 1.06147 33.0995L58.6247 67.0771C58.7404 67.1372 58.8371 67.2296 58.9035 67.3436C58.9698 67.4576 59.0032 67.5885 58.9998 67.7211V70.2499C59.0029 70.3835 58.9694 70.5152 58.9032 70.6304C58.8369 70.7456 58.7404 70.8395 58.6247 70.9017C58.5373 70.9741 58.4256 71.0087 58.3135 70.9981L58.3237 70.9929Z" fill="#414141"/>
<path fill-rule="evenodd" clip-rule="evenodd" d="M58.5 1L116 34.0038L58.5 67L1 34.0038L58.5 1Z" fill="white"/>
<path fill-rule="evenodd" clip-rule="evenodd" d="M2.20087 33.9915L58.491 66.4074L114.781 33.9915L58.491 1.57552L2.20087 33.9915ZM58.491 67.9874C58.3589 67.9862 58.2294 67.951 58.1149 67.8853L0.379112 34.627C0.264355 34.5644 0.168612 34.4721 0.101915 34.3598C0.0352171 34.2475 0 34.1194 0 33.9889C0 33.8584 0.0352171 33.7303 0.101915 33.618C0.168612 33.5058 0.264355 33.4135 0.379112 33.3508L58.1329 0.100203C58.2356 0.0347567 58.355 0 58.477 0C58.5989 0 58.7183 0.0347567 58.8211 0.100203L116.621 33.3636C116.736 33.4262 116.831 33.5185 116.898 33.6308C116.965 33.7431 117 33.8712 117 34.0017C117 34.1322 116.965 34.2603 116.898 34.3726C116.831 34.4848 116.736 34.5771 116.621 34.6398L58.8211 67.898C58.7765 67.9357 58.7247 67.9639 58.6689 67.981C58.613 67.9981 58.5543 68.0037 58.4962 67.9976L58.491 67.9874Z" fill="#414141"/>
<path fill-rule="evenodd" clip-rule="evenodd" d="M104.261 74.9995C104.07 74.9959 103.886 74.918 103.749 74.7819C103.611 74.6457 103.53 74.4614 103.521 74.2664V54.3777C103.55 50.4821 102.193 46.7073 99.6989 43.751C97.2051 40.7948 93.7438 38.8571 89.9548 38.2961L58.6276 33.4688C58.5318 33.4573 58.4392 33.4261 58.3555 33.377C58.2719 33.328 58.1991 33.2621 58.1413 33.1834C58.0835 33.1047 58.0421 33.0149 58.0196 32.9194C57.9971 32.8238 57.9939 32.7247 58.0103 32.6279C58.0385 32.4386 58.1377 32.2679 58.2872 32.1517C58.4367 32.0355 58.6247 31.9828 58.8116 32.0049L90.2017 36.8374C94.3311 37.4562 98.102 39.5713 100.821 42.7935C103.54 46.0157 105.024 50.1285 105 54.3752V74.2638C105.001 74.3621 104.983 74.4597 104.946 74.5507C104.909 74.6416 104.855 74.724 104.786 74.7928C104.717 74.8616 104.635 74.9154 104.544 74.9509C104.454 74.9865 104.358 75.003 104.261 74.9995Z" fill="#414141"/>
<path fill-rule="evenodd" clip-rule="evenodd" d="M63.7562 30.168C60.8324 28.6144 56.1167 28.6069 53.1929 30.168C50.269 31.7291 50.269 34.264 53.1929 35.8301C56.1167 37.3962 60.8324 37.3837 63.7562 35.8301C66.7479 34.264 66.7479 31.7391 63.7562 30.168Z" fill="#2B7CFF"/>
<path fill-rule="evenodd" clip-rule="evenodd" d="M58.5295 29.5266C56.9025 29.5266 55.2755 29.9087 54.0719 30.6703C52.9864 31.3311 52.4449 32.1564 52.4449 33.0003C52.4449 33.8442 52.9864 34.6696 54.0719 35.333C56.5333 36.8589 60.5159 36.8589 62.9872 35.333C64.0112 34.6696 64.6142 33.8442 64.6142 33.0003C64.6142 32.1564 64.0112 31.3311 62.9872 30.6703C61.6118 29.8979 60.0802 29.5049 58.5295 29.5266ZM58.5295 38C56.6613 38 54.7955 37.5542 53.3482 36.6519C51.8418 35.7098 51 34.4174 51 33.0003C51 31.5832 51.8418 30.2935 53.3482 29.3435C56.2404 27.5522 60.7571 27.5522 63.6493 29.3435C65.1557 30.2935 66 31.5859 66 33.0003C66 34.4148 65.1557 35.7098 63.6493 36.6519C62.2635 37.5542 60.3953 38 58.5295 38Z" fill="#414141"/>
</svg>
