<svg width="98" height="127" viewBox="0 0 98 127" fill="none" xmlns="http://www.w3.org/2000/svg">
<path d="M96.6421 102.71C97.3922 112.057 77.5783 121.273 52.3865 123.294C27.1948 125.316 6.16478 119.378 5.41473 110.031C4.9953 104.805 11.0062 99.6192 20.7921 95.7095C28.5061 92.6276 38.5657 90.3386 49.6703 89.4475C74.8621 87.4259 95.8921 93.3639 96.6421 102.71Z" fill="#E8E8E8"/>
<path fill-rule="evenodd" clip-rule="evenodd" d="M42.7671 23.879C45.7192 22.2613 48.8036 21.3082 51.9702 22.9656C49.6694 21.6418 46.3122 19.243 43.9611 18.9491C41.5386 18.65 39.2828 19.5343 37.2097 20.6727C30.0293 25.0307 24.8612 33.8103 24.2363 42.1582L29.7963 45.3645C30.4132 37.0192 35.5867 28.237 42.7671 23.879Z" fill="#2B7CFF"/>
<path fill-rule="evenodd" clip-rule="evenodd" d="M42.3392 23.1085C43.896 22.2533 45.5005 21.5728 47.1552 21.3213L47.4332 21.2816C46.1359 20.5562 44.8597 19.9578 43.851 19.8387C42.7921 19.7166 41.7194 19.8148 40.7003 20.1272C39.6345 20.4569 38.6074 20.9007 37.637 21.4511H37.6132C34.203 23.5347 31.2589 26.6669 29.0746 30.2809C26.9519 33.7429 25.6177 37.6299 25.1667 41.6657L29.0455 43.9056C29.6136 39.8907 30.9966 36.0345 33.1096 32.5737C35.4421 28.7135 38.614 25.3563 42.3048 23.1164L42.3392 23.0952V23.1085ZM47.42 23.0793C46.0035 23.2938 44.587 23.9001 43.1838 24.6679C39.7657 26.7516 36.8083 29.8917 34.624 33.511C32.3947 37.1965 30.9703 41.3771 30.6526 45.4412C30.6426 45.5749 30.6018 45.7045 30.5334 45.8198C30.4158 46.0151 30.2275 46.1575 30.0076 46.2177C29.7878 46.2778 29.5532 46.251 29.3526 46.1428L23.8402 42.9657C23.6842 42.886 23.555 42.7622 23.4689 42.6097C23.3827 42.4571 23.3434 42.2826 23.3557 42.1078C23.6814 37.7631 25.2091 33.3098 27.5628 29.3992C29.8821 25.5602 33.0328 22.2189 36.6945 19.979L36.7924 19.9181C37.8771 19.3026 39.0259 18.8081 40.2185 18.4434C41.4667 18.0632 42.7797 17.9433 44.0761 18.0912C46.1015 18.3427 48.6458 19.9128 50.8037 21.2445C51.3808 21.5993 51.9342 21.9409 52.3922 22.2083C52.5882 22.3242 52.732 22.5111 52.794 22.7301C52.8559 22.9492 52.8313 23.1837 52.7251 23.3851C52.619 23.5865 52.4395 23.7394 52.2237 23.8121C52.008 23.8848 51.7725 23.8718 51.5661 23.7757C50.299 23.0919 48.8416 22.8453 47.42 23.074V23.0793Z" fill="#414141"/>
<path fill-rule="evenodd" clip-rule="evenodd" d="M42.7671 23.879C45.7192 22.2613 48.8036 21.3082 51.9702 22.9656C49.6694 21.6418 46.3122 19.243 43.9611 18.9491C41.5386 18.65 39.2828 19.5343 37.2097 20.6727C30.0293 25.0307 24.8612 33.8103 24.2363 42.1582L29.7963 45.3645C30.4132 37.0192 35.5867 28.237 42.7671 23.879Z" fill="#2B7CFF"/>
<path fill-rule="evenodd" clip-rule="evenodd" d="M42.3392 23.1085C43.896 22.2533 45.5005 21.5728 47.1552 21.3213L47.4332 21.2816C46.1359 20.5562 44.8597 19.9578 43.851 19.8387C42.7921 19.7166 41.7194 19.8148 40.7003 20.1272C39.6345 20.4569 38.6074 20.9007 37.637 21.4511H37.6132C34.203 23.5347 31.2589 26.6669 29.0746 30.2809C26.9519 33.7429 25.6177 37.6299 25.1667 41.6657L29.0455 43.9056C29.6136 39.8907 30.9966 36.0345 33.1096 32.5737C35.4421 28.7135 38.614 25.3563 42.3048 23.1164L42.3392 23.0952V23.1085ZM47.42 23.0793C46.0035 23.2938 44.587 23.9001 43.1838 24.6679C39.7657 26.7516 36.8083 29.8917 34.624 33.511C32.3947 37.1965 30.9703 41.3771 30.6526 45.4412C30.6426 45.5749 30.6018 45.7045 30.5334 45.8198C30.4158 46.0151 30.2275 46.1575 30.0076 46.2177C29.7878 46.2778 29.5532 46.251 29.3526 46.1428L23.8402 42.9657C23.6842 42.886 23.555 42.7622 23.4689 42.6097C23.3827 42.4571 23.3434 42.2826 23.3557 42.1078C23.6814 37.7631 25.2091 33.3098 27.5628 29.3992C29.8821 25.5602 33.0328 22.2189 36.6945 19.979L36.7924 19.9181C37.8771 19.3026 39.0259 18.8081 40.2185 18.4434C41.4667 18.0632 42.7797 17.9433 44.0761 18.0912C46.1015 18.3427 48.6458 19.9128 50.8037 21.2445C51.3808 21.5993 51.9342 21.9409 52.3922 22.2083C52.5882 22.3242 52.732 22.5111 52.794 22.7301C52.8559 22.9492 52.8313 23.1837 52.7251 23.3851C52.619 23.5865 52.4395 23.7394 52.2237 23.8121C52.008 23.8848 51.7725 23.8718 51.5661 23.7757C50.299 23.0919 48.8416 22.8453 47.42 23.074V23.0793Z" fill="#414141"/>
<path fill-rule="evenodd" clip-rule="evenodd" d="M48.1771 4.61229C46.4879 3.63532 42.7177 1.12007 41.1767 0.926794C33.6337 -0.0104647 25.4234 16.283 31.7989 20.1486L37.3589 23.3548C30.3718 18.9227 40.867 0.775883 48.1824 4.61229H48.1771ZM42.7706 23.879L37.2106 20.6701L42.7706 23.879Z" fill="white"/>
<path fill-rule="evenodd" clip-rule="evenodd" d="M47.2799 3.03697L48.6037 3.83126C48.8112 3.94115 48.9665 4.12897 49.0356 4.3534C49.1046 4.57783 49.0816 4.82049 48.9718 5.02799C48.8619 5.23548 48.674 5.39083 48.4496 5.45985C48.2252 5.52887 47.9825 5.5059 47.775 5.39601C45.686 4.30254 43.1893 5.44366 41.0368 7.56971C39.9243 8.69167 38.9638 9.95478 38.18 11.3267C37.381 12.6903 36.7666 14.154 36.3531 15.6794C35.858 17.5618 35.7892 19.3649 36.332 20.7469C36.3185 20.5772 36.3539 20.4071 36.4341 20.257C36.5144 20.1068 36.6361 19.9828 36.7847 19.8997C36.9179 19.8255 37.0678 19.7866 37.2203 19.7866C37.3727 19.7866 37.5226 19.8255 37.6558 19.8997L43.1814 23.0901C43.3358 23.1693 43.463 23.2929 43.5468 23.4449C43.6606 23.6503 43.6883 23.8925 43.6238 24.1184C43.5592 24.3442 43.4078 24.5352 43.2026 24.6495C43.0694 24.7237 42.9195 24.7627 42.767 24.7627C42.6146 24.7627 42.4647 24.7237 42.3315 24.6495L36.8059 21.4592C36.7338 21.4213 36.6671 21.3741 36.6073 21.3188C36.9057 21.8424 37.3286 22.2843 37.8385 22.6056C38.0349 22.7297 38.1747 22.9259 38.228 23.152C38.2813 23.3781 38.2437 23.6161 38.1233 23.8148C38.003 24.0136 37.8095 24.1571 37.5844 24.2147C37.3594 24.2722 37.1207 24.2392 36.9198 24.1227C35.0664 23.0636 33.1734 22.0046 31.3465 20.9058C29.6864 19.8997 28.8577 18.2185 28.675 16.2221C28.4923 14.2258 28.9398 11.9621 29.848 9.74871C30.7436 7.53591 32.0176 5.49591 33.6129 3.72006C35.8369 1.2816 38.5745 -0.291087 41.291 0.045161C42.6836 0.217257 45.3498 1.84819 47.2905 3.03697H47.2799ZM44.4443 3.40235C43.0887 2.60806 41.7437 1.89585 41.058 1.81377C38.9743 1.54901 36.7662 2.87282 34.9075 4.91679C33.4493 6.53685 32.2846 8.39862 31.4656 10.4186C30.6713 12.3884 30.2557 14.39 30.4066 16.0633C30.539 17.5089 31.1029 18.7109 32.2229 19.3887L34.3966 20.641C33.9835 19.0366 34.0974 17.1568 34.6031 15.2319C35.5349 11.8665 37.3101 8.79457 39.7607 6.30679C41.2248 4.87972 42.8266 3.83126 44.4443 3.40235Z" fill="#414141"/>
<path fill-rule="evenodd" clip-rule="evenodd" d="M48.1771 4.61229C46.4879 3.63532 42.7177 1.12007 41.1767 0.926794C33.6337 -0.0104647 25.4234 16.283 31.7989 20.1486L37.3589 23.3548C30.3718 18.9227 40.867 0.775883 48.1824 4.61229H48.1771ZM42.7706 23.879L37.2106 20.6701L42.7706 23.879Z" fill="white"/>
<path fill-rule="evenodd" clip-rule="evenodd" d="M47.2799 3.03697L48.6037 3.83126C48.8112 3.94115 48.9665 4.12897 49.0356 4.3534C49.1046 4.57783 49.0816 4.82049 48.9718 5.02799C48.8619 5.23548 48.674 5.39083 48.4496 5.45985C48.2252 5.52887 47.9825 5.5059 47.775 5.39601C45.686 4.30254 43.1893 5.44366 41.0368 7.56971C39.9243 8.69167 38.9638 9.95478 38.18 11.3267C37.381 12.6903 36.7666 14.154 36.3531 15.6794C35.858 17.5618 35.7892 19.3649 36.332 20.7469C36.3185 20.5772 36.3539 20.4071 36.4341 20.257C36.5144 20.1068 36.6361 19.9828 36.7847 19.8997C36.9179 19.8255 37.0678 19.7866 37.2203 19.7866C37.3727 19.7866 37.5226 19.8255 37.6558 19.8997L43.1814 23.0901C43.3358 23.1693 43.463 23.2929 43.5468 23.4449C43.6606 23.6503 43.6883 23.8925 43.6238 24.1184C43.5592 24.3442 43.4078 24.5352 43.2026 24.6495C43.0694 24.7237 42.9195 24.7627 42.767 24.7627C42.6146 24.7627 42.4647 24.7237 42.3315 24.6495L36.8059 21.4592C36.7338 21.4213 36.6671 21.3741 36.6073 21.3188C36.9057 21.8424 37.3286 22.2843 37.8385 22.6056C38.0349 22.7297 38.1747 22.9259 38.228 23.152C38.2813 23.3781 38.2437 23.6161 38.1233 23.8148C38.003 24.0136 37.8095 24.1571 37.5844 24.2147C37.3594 24.2722 37.1207 24.2392 36.9198 24.1227C35.0664 23.0636 33.1734 22.0046 31.3465 20.9058C29.6864 19.8997 28.8577 18.2185 28.675 16.2221C28.4923 14.2258 28.9398 11.9621 29.848 9.74871C30.7436 7.53591 32.0176 5.49591 33.6129 3.72006C35.8369 1.2816 38.5745 -0.291087 41.291 0.045161C42.6836 0.217257 45.3498 1.84819 47.2905 3.03697H47.2799ZM44.4443 3.40235C43.0887 2.60806 41.7437 1.89585 41.058 1.81377C38.9743 1.54901 36.7662 2.87282 34.9075 4.91679C33.4493 6.53685 32.2846 8.39862 31.4656 10.4186C30.6713 12.3884 30.2557 14.39 30.4066 16.0633C30.539 17.5089 31.1029 18.7109 32.2229 19.3887L34.3966 20.641C33.9835 19.0366 34.0974 17.1568 34.6031 15.2319C35.5349 11.8665 37.3101 8.79457 39.7607 6.30679C41.2248 4.87972 42.8266 3.83126 44.4443 3.40235Z" fill="#414141"/>
<path fill-rule="evenodd" clip-rule="evenodd" d="M51.9689 22.9655C49.5172 21.5517 46.2289 21.88 42.7631 23.8816C39.1729 25.9574 35.9217 29.5158 33.5679 33.5878C31.4101 37.3289 30.0069 41.5016 29.7871 45.3645L55.7471 30.3762C55.53 26.7649 54.1267 24.2126 51.9689 22.9655Z" fill="#2B7CFF"/>
<path fill-rule="evenodd" clip-rule="evenodd" d="M51.5241 23.7333C50.3999 23.1124 49.1075 22.8648 47.8334 23.0264C46.1937 23.2341 44.6165 23.7863 43.2053 24.6467C41.4413 25.6983 39.8365 26.9963 38.4396 28.5017C36.8621 30.1799 35.4866 32.037 34.3411 34.0352C33.2828 35.8593 32.421 37.7905 31.7702 39.7964C31.353 41.0806 31.0448 42.3976 30.8488 43.7335L54.8257 29.8917C54.7225 28.6252 54.385 27.389 53.8302 26.2459C53.324 25.2024 52.5244 24.3292 51.5294 23.7333H51.5241ZM47.6612 21.2551C49.3047 21.0567 50.9687 21.3849 52.4138 22.1924C53.707 22.9582 54.7479 24.0856 55.4082 25.4357C56.1468 26.9629 56.5641 28.6256 56.6341 30.3206C56.6421 30.485 56.6048 30.6484 56.5264 30.7931C56.448 30.9378 56.3314 31.0583 56.1893 31.1414L30.2743 46.1031C30.1169 46.2045 29.9318 46.2545 29.7448 46.246C29.5097 46.2331 29.2893 46.1274 29.132 45.9522C28.9747 45.777 28.8932 45.5466 28.9055 45.3114C29.0419 43.2492 29.4368 41.2122 30.081 39.2484C31.5351 34.7887 33.949 30.7019 37.1528 27.2758C38.6691 25.6464 40.4113 24.2429 42.3263 23.1085C43.9541 22.1215 45.7722 21.4899 47.6612 21.2551Z" fill="#414141"/>
<path fill-rule="evenodd" clip-rule="evenodd" d="M51.9689 22.9655C49.5172 21.5517 46.2289 21.88 42.7631 23.8816C39.1729 25.9574 35.9217 29.5158 33.5679 33.5878C31.4101 37.3289 30.0069 41.5016 29.7871 45.3645L55.7471 30.3762C55.53 26.7649 54.1267 24.2126 51.9689 22.9655Z" fill="white"/>
<path fill-rule="evenodd" clip-rule="evenodd" d="M51.5241 23.7333C50.3999 23.1124 49.1075 22.8648 47.8334 23.0264C46.1937 23.2341 44.6165 23.7863 43.2053 24.6467C41.4413 25.6983 39.8365 26.9963 38.4396 28.5017C36.8621 30.1799 35.4866 32.037 34.3411 34.0352C33.2828 35.8593 32.421 37.7905 31.7702 39.7964C31.353 41.0806 31.0448 42.3976 30.8488 43.7335L54.8257 29.8917C54.7225 28.6252 54.385 27.389 53.8302 26.2459C53.324 25.2024 52.5244 24.3292 51.5294 23.7333H51.5241ZM47.6612 21.2551C49.3047 21.0567 50.9687 21.3849 52.4138 22.1924C53.707 22.9582 54.7479 24.0856 55.4082 25.4357C56.1468 26.9629 56.5641 28.6256 56.6341 30.3206C56.6421 30.485 56.6048 30.6484 56.5264 30.7931C56.448 30.9378 56.3314 31.0583 56.1893 31.1414L30.2743 46.1031C30.1169 46.2045 29.9318 46.2545 29.7448 46.246C29.5097 46.2331 29.2893 46.1274 29.132 45.9522C28.9747 45.777 28.8932 45.5466 28.9055 45.3114C29.0419 43.2492 29.4368 41.2122 30.081 39.2484C31.5351 34.7887 33.949 30.7019 37.1528 27.2758C38.6691 25.6464 40.4113 24.2429 42.3263 23.1085C43.9541 22.1215 45.7722 21.4899 47.6612 21.2551Z" fill="#414141"/>
<path fill-rule="evenodd" clip-rule="evenodd" d="M42.7631 22.82C44.8812 21.5994 46.7849 19.5052 48.1696 17.1117C49.5543 14.713 50.4095 12.0097 50.4095 9.56862C50.4095 7.12751 49.5516 5.41185 48.1696 4.61492C46.7875 3.81798 44.8706 3.93183 42.7578 5.14444C40.645 6.35705 38.7308 8.45926 37.346 10.8554C35.9613 13.2515 35.1035 15.96 35.1035 18.3985C35.1035 20.8369 35.9613 22.5526 37.346 23.3522C38.7308 24.1517 40.6503 24.0405 42.7631 22.82Z" fill="white"/>
<path fill-rule="evenodd" clip-rule="evenodd" d="M43.1998 23.5904C42.2009 24.1932 41.0856 24.5776 39.9273 24.7183C38.9066 24.8405 37.8732 24.6425 36.97 24.1517L36.9117 24.1199C36.0083 23.5832 35.2983 22.774 34.8836 21.8085C34.4254 20.7321 34.2007 19.5707 34.2243 18.401C34.2398 17.0544 34.4484 15.7169 34.8439 14.4296C35.7 11.6146 37.1899 9.03323 39.1992 6.88388C40.1151 5.89942 41.1683 5.05228 42.3261 4.36863C43.3284 3.76341 44.4471 3.37638 45.6091 3.2328C46.6511 3.09814 47.7085 3.31043 48.6178 3.83685C49.527 4.36326 50.2376 5.1745 50.6396 6.14519C51.0979 7.22255 51.3226 8.3848 51.2989 9.55533C51.2842 10.9018 51.0765 12.2393 50.682 13.5268C50.2602 14.9227 49.6782 16.2651 48.9478 17.5273V17.5485C48.2269 18.7958 47.3671 19.9576 46.3849 21.0116L46.3372 21.0646C45.4245 22.0485 44.374 22.8948 43.2184 23.5772L43.1998 23.5904ZM42.3261 22.0495C43.3342 21.4493 44.2516 20.7085 45.0505 19.8493L45.0929 19.8069C45.9822 18.8509 46.7594 17.7965 47.4095 16.6642L47.4493 16.6007C48.0971 15.4739 48.6132 14.2763 48.9875 13.0317C49.328 11.9075 49.5063 10.7405 49.517 9.56592C49.5416 8.64745 49.3711 7.73421 49.0167 6.88653C48.7688 6.25121 48.3121 5.71919 47.7217 5.37801C47.1312 5.03683 46.4422 4.90681 45.768 5.00936C44.8568 5.1265 43.9807 5.43508 43.1972 5.91485C42.1873 6.51471 41.2689 7.25657 40.4701 8.11767C38.6523 10.0603 37.3053 12.3947 36.5331 14.9406C36.187 16.0629 36.0041 17.2293 35.9904 18.4037C35.9657 19.3213 36.1363 20.2337 36.4907 21.0805C36.7534 21.7076 37.2075 22.2358 37.7881 22.5896L37.8278 22.6108C38.4155 22.9192 39.0835 23.0402 39.742 22.9576C40.658 22.8413 41.5388 22.5318 42.3261 22.0495Z" fill="#414141"/>
<path fill-rule="evenodd" clip-rule="evenodd" d="M42.7631 22.82C44.8812 21.5994 46.7849 19.5052 48.1696 17.1117C49.5543 14.713 50.4095 12.0097 50.4095 9.56862C50.4095 7.12751 49.5516 5.41185 48.1696 4.61492C46.7875 3.81798 44.8706 3.93183 42.7578 5.14444C40.645 6.35705 38.7308 8.45926 37.346 10.8554C35.9613 13.2515 35.1035 15.96 35.1035 18.3985C35.1035 20.8369 35.9613 22.5526 37.346 23.3522C38.7308 24.1517 40.6503 24.0405 42.7631 22.82Z" fill="white"/>
<path fill-rule="evenodd" clip-rule="evenodd" d="M43.1998 23.5904C42.2009 24.1932 41.0856 24.5776 39.9273 24.7183C38.9066 24.8405 37.8732 24.6425 36.97 24.1517L36.9117 24.1199C36.0083 23.5832 35.2983 22.774 34.8836 21.8085C34.4254 20.7321 34.2007 19.5707 34.2243 18.401C34.2398 17.0544 34.4484 15.7169 34.8439 14.4296C35.7 11.6146 37.1899 9.03323 39.1992 6.88388C40.1151 5.89942 41.1683 5.05228 42.3261 4.36863C43.3284 3.76341 44.4471 3.37638 45.6091 3.2328C46.6511 3.09814 47.7085 3.31043 48.6178 3.83685C49.527 4.36326 50.2376 5.1745 50.6396 6.14519C51.0979 7.22255 51.3226 8.3848 51.2989 9.55533C51.2842 10.9018 51.0765 12.2393 50.682 13.5268C50.2602 14.9227 49.6782 16.2651 48.9478 17.5273V17.5485C48.2269 18.7958 47.3671 19.9576 46.3849 21.0116L46.3372 21.0646C45.4245 22.0485 44.374 22.8948 43.2184 23.5772L43.1998 23.5904ZM42.3261 22.0495C43.3342 21.4493 44.2516 20.7085 45.0505 19.8493L45.0929 19.8069C45.9822 18.8509 46.7594 17.7965 47.4095 16.6642L47.4493 16.6007C48.0971 15.4739 48.6132 14.2763 48.9875 13.0317C49.328 11.9075 49.5063 10.7405 49.517 9.56592C49.5416 8.64745 49.3711 7.73421 49.0167 6.88653C48.7688 6.25121 48.3121 5.71919 47.7217 5.37801C47.1312 5.03683 46.4422 4.90681 45.768 5.00936C44.8568 5.1265 43.9807 5.43508 43.1972 5.91485C42.1873 6.51471 41.2689 7.25657 40.4701 8.11767C38.6523 10.0603 37.3053 12.3947 36.5331 14.9406C36.187 16.0629 36.0041 17.2293 35.9904 18.4037C35.9657 19.3213 36.1363 20.2337 36.4907 21.0805C36.7534 21.7076 37.2075 22.2358 37.7881 22.5896L37.8278 22.6108C38.4155 22.9192 39.0835 23.0402 39.742 22.9576C40.658 22.8413 41.5388 22.5318 42.3261 22.0495Z" fill="#414141"/>
<path fill-rule="evenodd" clip-rule="evenodd" d="M19.4311 94.7982C22.3832 93.1805 25.4704 92.2274 28.6343 93.8848C26.3335 92.561 22.9763 90.1622 20.6252 89.8683C18.2026 89.5691 15.9468 90.4534 13.8738 91.5919C6.69339 95.9473 1.52523 104.729 0.900391 113.077L6.4604 116.284C7.08259 107.936 12.2508 99.1562 19.4311 94.7982Z" fill="#2B7CFF"/>
<path fill-rule="evenodd" clip-rule="evenodd" d="M19.0042 94.0225C20.561 93.1674 22.1656 92.4869 23.8203 92.2354L24.0983 92.1957C22.8009 91.4702 21.5248 90.8718 20.5161 90.7501C19.457 90.6315 18.3848 90.7307 17.3654 91.0413C16.2991 91.3698 15.2719 91.8137 14.3021 92.3651H14.2783C10.8681 94.4462 7.92397 97.5809 5.73968 101.192C3.61781 104.655 2.28364 108.541 1.83178 112.577L5.71052 114.82C6.27865 110.805 7.6617 106.949 9.77466 103.488C12.1072 99.6276 15.2791 96.2677 18.9725 94.0278L19.0042 94.0093V94.0225ZM24.0851 93.9934C22.6686 94.2079 21.2521 94.8142 19.8489 95.582C16.4281 97.6657 13.476 100.806 11.2864 104.425C9.05979 108.113 7.63538 112.291 7.3309 116.355C7.32095 116.489 7.28018 116.619 7.21177 116.734C7.15365 116.835 7.07617 116.923 6.98385 116.994C6.89154 117.065 6.78618 117.116 6.67378 117.146C6.56138 117.176 6.44418 117.184 6.32886 117.169C6.21355 117.153 6.1024 117.115 6.00179 117.057L0.486765 113.88C0.330703 113.8 0.201574 113.676 0.115412 113.524C0.0292501 113.371 -0.0101517 113.197 0.00222862 113.022C0.327887 108.677 1.85561 104.224 4.21199 100.313C6.52866 96.4742 9.67669 93.1329 13.341 90.893L13.4389 90.8321C14.5235 90.2167 15.6725 89.7222 16.865 89.3574C18.1132 88.9772 19.4261 88.8574 20.7225 89.0053C22.748 89.2568 25.2924 90.8268 27.4502 92.1586C28.0274 92.5134 28.5781 92.8523 29.0388 93.1223C29.2347 93.2383 29.3785 93.4251 29.4405 93.6442C29.5025 93.8633 29.4778 94.0978 29.3717 94.2992C29.2655 94.5006 29.086 94.6534 28.8703 94.7261C28.6545 94.7989 28.4191 94.7858 28.2127 94.6897C26.9503 94.0116 25.5001 93.767 24.0851 93.9934Z" fill="#414141"/>
<path fill-rule="evenodd" clip-rule="evenodd" d="M24.8529 75.5315C23.1637 74.5572 19.3935 72.0393 17.8526 71.8487C10.3095 70.9114 2.09916 87.2049 8.47464 91.0704L14.0347 94.2767C7.04757 89.8446 17.5428 71.6977 24.8582 75.5315H24.8529ZM19.4465 94.8009L13.8864 91.592L19.4465 94.8009Z" fill="white"/>
<path fill-rule="evenodd" clip-rule="evenodd" d="M23.9441 73.9561C24.4524 74.2659 24.9104 74.5465 25.2837 74.7504C25.4893 74.8641 25.6414 75.0547 25.7066 75.2803C25.7718 75.506 25.7449 75.7484 25.6316 75.9542C25.5184 76.16 25.3281 76.3125 25.1026 76.3781C24.877 76.4438 24.6346 76.4174 24.4286 76.3046C22.3396 75.2084 19.8429 76.3496 17.6904 78.4783C15.4679 80.7419 13.8556 83.5321 13.0041 86.5879C12.5116 88.4704 12.4428 90.2734 12.9882 91.6555C12.9765 91.495 13.0084 91.3343 13.0806 91.1904C13.1527 91.0465 13.2625 90.9249 13.3982 90.8383C13.5339 90.7518 13.6904 90.7035 13.8513 90.6987C14.0122 90.6938 14.1714 90.7326 14.312 90.8109L19.872 94.0198C20.0109 94.0997 20.1253 94.2159 20.203 94.3561C20.296 94.5266 20.3308 94.7227 20.3022 94.9148C20.2736 95.1069 20.1831 95.2844 20.0444 95.4204C19.9057 95.5564 19.7264 95.6434 19.5338 95.6682C19.3412 95.6931 19.1458 95.6544 18.9771 95.5581L13.4171 92.3492C13.3579 92.3139 13.3029 92.2722 13.2529 92.2247C13.5523 92.7483 13.975 93.1909 14.4841 93.5141C14.6805 93.6382 14.8204 93.8344 14.8736 94.0605C14.9269 94.2867 14.8893 94.5247 14.769 94.7234C14.6487 94.9221 14.4552 95.0657 14.2301 95.1232C14.005 95.1808 13.7664 95.1478 13.5654 95.0312C12.0377 94.1443 9.28155 92.7807 8.0054 91.8143C6.34269 90.8083 5.51396 89.127 5.33127 87.128C5.14859 85.1291 5.59602 82.8707 6.50415 80.6546C7.4005 78.443 8.67442 76.404 10.2691 74.6286C12.4957 72.1902 15.2307 70.6148 17.9472 70.9537C19.3398 71.1258 22.0034 72.7567 23.9441 73.9455V73.9561ZM21.1164 74.3215C19.7608 73.5272 18.4159 72.8123 17.7328 72.7329C15.6464 72.4681 13.441 73.792 11.5797 75.8386C10.1215 77.4577 8.95681 79.3186 8.13778 81.3377C7.34349 83.3102 6.92782 85.3091 7.07873 86.9851C7.20846 88.428 7.77236 89.6327 8.88701 90.3052L11.0634 91.5602C10.653 89.9716 10.7668 88.0785 11.2725 86.1511C12.2049 82.788 13.979 79.7181 16.4274 77.2312C17.8889 75.7962 19.4907 74.7372 21.1164 74.3215Z" fill="#414141"/>
<path fill-rule="evenodd" clip-rule="evenodd" d="M28.1903 94.6525C27.0657 94.0328 25.7738 93.7844 24.4995 93.943C22.86 94.153 21.2831 94.706 19.8714 95.566C18.108 96.6183 16.5033 97.9163 15.1057 99.4209C13.5306 101.099 12.156 102.956 11.0099 104.952L10.9834 104.997C9.93614 106.808 9.08325 108.725 8.43902 110.716C8.02152 112 7.7133 113.317 7.51765 114.653L31.4946 100.808C31.3914 99.5435 31.0538 98.309 30.4991 97.1678C29.9944 96.1225 29.1945 95.2481 28.1982 94.6525H28.1903ZM24.3248 92.1797C25.9682 91.9813 27.6322 92.3094 29.0772 93.1169C30.3705 93.8827 31.4114 95.0101 32.0717 96.3603C32.8116 97.8871 33.2288 99.5499 33.2975 101.245C33.3062 101.409 33.2693 101.573 33.1908 101.717C33.1122 101.861 32.9952 101.981 32.8528 102.063L6.93784 117.025C6.80054 117.116 6.64045 117.167 6.47573 117.172C6.31102 117.177 6.14822 117.136 6.00561 117.053C5.86301 116.971 5.74632 116.85 5.66871 116.705C5.5911 116.559 5.55561 116.395 5.56632 116.231C5.70026 114.168 6.0944 112.131 6.73927 110.168C7.4253 108.065 8.33045 106.04 9.43983 104.126L9.46627 104.073C10.6824 101.956 12.1415 99.9891 13.8137 98.211C15.3292 96.5817 17.0705 95.1783 18.9845 94.0436C20.6131 93.0522 22.4331 92.417 24.3248 92.1797Z" fill="#414141"/>
<path d="M31.9182 100.999L7.43359 114.553C8.74527 108.869 11.1298 101.635 18.3642 96.6268C24.0482 92.6917 29.7321 91.8172 31.9182 100.999Z" fill="white"/>
<path fill-rule="evenodd" clip-rule="evenodd" d="M19.4282 93.7392C21.5463 92.5187 23.4499 90.4271 24.8346 88.031C26.2193 85.6322 27.0745 82.929 27.0745 80.4879C27.0745 78.0468 26.222 76.3258 24.8532 75.5315C23.4843 74.7372 21.5542 74.8484 19.4414 76.061C17.3286 77.2737 15.4144 79.3759 14.0297 81.772C12.645 84.1681 11.7871 86.8766 11.7871 89.3151C11.7871 91.7535 12.645 93.4692 14.0297 94.2688C15.4144 95.0683 17.3154 94.9598 19.4282 93.7392Z" fill="white"/>
<path fill-rule="evenodd" clip-rule="evenodd" d="M18.9922 92.9661C19.9995 92.3659 20.9159 91.6251 21.7139 90.766C22.6208 89.802 23.4125 88.7357 24.073 87.5888L24.1126 87.5279C24.7605 86.4002 25.2767 85.2018 25.6509 83.9563C25.9927 82.8333 26.171 81.667 26.1805 80.4932C26.205 79.5738 26.0345 78.6597 25.6801 77.8111C25.4326 77.1757 24.9758 76.6437 24.3852 76.3029C23.7945 75.9621 23.1054 75.8329 22.4314 75.9366C21.5213 76.0547 20.6461 76.3632 19.8632 76.8421L19.8156 76.8686C18.824 77.4648 17.9212 78.1974 17.1335 79.0449C16.2267 80.009 15.435 81.0752 14.7745 82.2221C14.1074 83.3699 13.5744 84.5905 13.1859 85.8599C12.8399 86.9823 12.6571 88.1486 12.6431 89.323C12.6198 90.2414 12.7903 91.1544 13.1436 92.0024C13.4062 92.6289 13.8603 93.1562 14.4409 93.5089L14.4806 93.5354C15.069 93.8416 15.7366 93.9617 16.3948 93.8796C17.305 93.7615 18.1801 93.453 18.963 92.9741L18.9922 92.9661ZM23.0007 91.9892C22.0851 92.971 21.0339 93.8171 19.8791 94.5018C18.8774 95.1078 17.7583 95.4941 16.5961 95.6349C15.5746 95.7558 14.5406 95.5579 13.636 95.0683L13.5804 95.0366C12.6763 94.5008 11.9661 93.6913 11.5523 92.7252C11.0919 91.6484 10.8663 90.4859 10.8904 89.3151C10.906 87.9684 11.1147 86.631 11.51 85.3436C12.3645 82.5355 13.8497 79.9599 15.8521 77.8138C16.7555 76.8445 17.7913 76.0075 18.9286 75.3277L18.9763 75.2985C19.9786 74.6914 21.0986 74.3042 22.262 74.1627C23.3043 74.0253 24.3628 74.2364 25.2727 74.7632C26.1825 75.2899 26.8926 76.1028 27.2924 77.0751C27.7524 78.1519 27.9772 79.3146 27.9517 80.4852C27.9372 81.8318 27.7295 83.1692 27.3349 84.4567C26.9147 85.8541 26.3326 87.1976 25.6006 88.4599V88.4784C24.8721 89.7449 23.9996 90.9229 23.0007 91.9892Z" fill="#414141"/>
<path fill-rule="evenodd" clip-rule="evenodd" d="M77.9089 61.0358C80.861 59.4181 83.9482 58.465 87.1121 60.1224C84.8113 58.7986 81.4541 56.3972 79.103 56.1059C76.6831 55.8041 74.4273 56.6911 72.3542 57.8295C65.1739 62.1849 60.0031 70.9644 59.3809 79.3124L64.9409 82.5213C65.5604 74.1733 70.7286 65.3938 77.9089 61.0358Z" fill="#2B7CFF"/>
<path fill-rule="evenodd" clip-rule="evenodd" d="M77.4827 60.2598C79.0395 59.4047 80.6439 58.7242 82.2987 58.4727L82.5794 58.433C81.282 57.7075 80.0059 57.1092 78.9971 56.9874C77.9371 56.8675 76.8639 56.9666 75.8438 57.2786C74.7778 57.6076 73.7506 58.0515 72.7805 58.6024H72.7566C69.3465 60.6861 66.4023 63.8209 64.2207 67.4323C62.0965 70.8937 60.7613 74.7809 60.3101 78.817L64.189 81.0569C64.7595 77.0436 66.1424 73.1887 68.253 69.7278C70.5856 65.8675 73.7601 62.5077 77.4509 60.2678L77.4827 60.2493V60.2598ZM82.5635 60.2307C81.147 60.4452 79.7305 61.0515 78.3273 61.8193C74.9065 63.903 71.9517 67.0404 69.7648 70.6624C67.5382 74.3505 66.1137 78.5285 65.7934 82.5926C65.7831 82.7258 65.7434 82.8552 65.6769 82.9712C65.6185 83.072 65.5409 83.1604 65.4483 83.2312C65.3558 83.3021 65.2502 83.354 65.1375 83.384C65.0249 83.414 64.9075 83.4215 64.792 83.4061C64.6765 83.3907 64.5651 83.3527 64.4643 83.2942L58.9493 80.117C58.7933 80.0376 58.6643 79.9137 58.5785 79.7611C58.4928 79.6084 58.4541 79.4338 58.4674 79.2592C58.7931 74.9145 60.3075 70.4612 62.6745 66.5506C64.9938 62.7142 68.1419 59.3729 71.8062 57.133L71.9015 57.0721C72.9863 56.4571 74.1351 55.9626 75.3275 55.5974C76.5765 55.2168 77.8904 55.097 79.1877 55.2452C81.2132 55.51 83.7549 57.0642 85.9127 58.3959C86.474 58.7428 87.0115 59.0737 87.5331 59.3755C87.7386 59.4892 87.8907 59.6798 87.9559 59.9055C88.0211 60.1312 87.9941 60.3735 87.8809 60.5793C87.7676 60.7851 87.5774 60.9376 87.3519 61.0033C87.1263 61.069 86.8839 61.0425 86.6779 60.9297L86.6434 60.9112C85.3953 60.2503 83.9666 60.0115 82.5714 60.2307H82.5635Z" fill="#414141"/>
<path fill-rule="evenodd" clip-rule="evenodd" d="M83.3177 41.7664C81.6285 40.792 77.8582 38.2742 76.32 38.0835C68.7742 37.1463 60.564 53.4398 66.9395 57.3026L72.4995 60.5116C65.5124 56.0794 76.005 37.9326 83.3203 41.7664H83.3177ZM77.9138 61.0331L72.3538 57.8242L77.9138 61.0331Z" fill="white"/>
<path fill-rule="evenodd" clip-rule="evenodd" d="M82.4228 40.1909C82.9312 40.5034 83.3919 40.784 83.7625 40.9985C83.9593 41.1163 84.1028 41.3059 84.1628 41.5273C84.2228 41.7487 84.1947 41.9848 84.0844 42.1859C83.974 42.387 83.7901 42.5376 83.5711 42.606C83.3521 42.6744 83.1152 42.6552 82.91 42.5526C80.821 41.4565 78.3217 42.5976 76.1718 44.7263C73.9469 46.9881 72.3341 49.7789 71.4855 52.836C70.9904 54.7185 70.9216 56.5188 71.467 57.9035C71.4553 57.743 71.4872 57.5823 71.5594 57.4385C71.6315 57.2946 71.7412 57.1729 71.8769 57.0864C72.0126 56.9998 72.1692 56.9516 72.3301 56.9467C72.491 56.9419 72.6502 56.9807 72.7908 57.0589L78.3508 60.2652C78.4885 60.3469 78.6019 60.4639 78.6791 60.6041C78.7721 60.7746 78.807 60.9708 78.7783 61.1629C78.7497 61.355 78.6592 61.5325 78.5205 61.6685C78.3818 61.8044 78.2026 61.8915 78.01 61.9163C77.8174 61.9411 77.6219 61.9025 77.4532 61.8061L71.8932 58.5972C71.8328 58.5627 71.7768 58.5209 71.7264 58.4728C72.0258 58.9963 72.4484 59.4389 72.9576 59.7622C73.154 59.8863 73.2939 60.0825 73.3471 60.3086C73.4004 60.5347 73.3628 60.7727 73.2425 60.9714C73.1222 61.1702 72.9287 61.3137 72.7036 61.3713C72.4785 61.4289 72.2398 61.3958 72.0388 61.2793C70.5138 60.3923 67.7576 59.0261 66.4788 58.0598C64.8188 57.0537 63.9901 55.3751 63.8048 53.3761C63.6194 51.3772 64.0695 49.1187 64.9803 46.9027C65.8747 44.6906 67.1478 42.6514 68.7426 40.8767C70.9692 38.4382 73.7042 36.8629 76.4207 37.2018C77.8133 37.3739 80.4795 39.0048 82.4175 40.1909H82.4228ZM79.5952 40.5589C78.2396 39.7647 76.8972 39.0498 76.2115 38.9704C74.1252 38.7056 71.9197 40.0294 70.0584 42.076C68.6045 43.6968 67.4442 45.5586 66.6298 47.5778C65.8355 49.5476 65.4198 51.5492 65.5707 53.2225C65.7031 54.6655 66.2644 55.8702 67.3817 56.5427L69.5581 57.7976C69.145 56.1932 69.2615 54.3134 69.7672 52.3912C70.6962 49.0246 72.4718 45.952 74.9248 43.4661C76.3678 42.0363 77.9722 40.9852 79.5952 40.5589Z" fill="#414141"/>
<path fill-rule="evenodd" clip-rule="evenodd" d="M87.1128 60.1225C84.6637 58.7087 81.3727 59.037 77.907 61.0386C74.3168 63.1117 71.0655 66.6701 68.7118 70.7448C66.5539 74.4832 65.1507 78.6586 64.9336 82.5214L90.8803 67.5332C90.6765 63.9219 89.2706 61.3696 87.1128 60.1225Z" fill="white"/>
<path fill-rule="evenodd" clip-rule="evenodd" d="M86.6676 60.8902C85.544 60.27 84.2529 60.0216 82.9794 60.1807C81.3396 60.3909 79.7625 60.9449 78.3514 61.8063C76.587 62.8561 74.9821 64.1534 73.5857 65.6586C70.5653 68.891 68.289 72.7452 66.9163 76.9507C66.5016 78.2355 66.1934 79.5523 65.9949 80.8877L89.9639 67.0592C89.8615 65.7935 89.5239 64.5579 88.9683 63.4161C88.4637 62.3715 87.6637 61.4979 86.6676 60.9035V60.8902ZM82.8047 58.4173C84.4482 58.2171 86.1128 58.5454 87.5572 59.3546C88.8512 60.1202 89.893 61.2476 90.5543 62.5979C91.2935 64.1248 91.7099 65.7877 91.7775 67.4828C91.7873 67.6465 91.7514 67.8097 91.6738 67.9542C91.5961 68.0987 91.4799 68.2187 91.338 68.3009L65.378 83.2891C65.2284 83.377 65.0561 83.4184 64.8829 83.4083C64.7666 83.4018 64.6527 83.3726 64.5477 83.3221C64.4428 83.2717 64.3487 83.201 64.271 83.1142C64.1933 83.0275 64.1335 82.9262 64.0949 82.8163C64.0564 82.7064 64.0398 82.59 64.0463 82.4737C64.1815 80.4114 64.5755 78.3745 65.2192 76.4106C65.9102 74.2837 66.8234 72.2355 67.9436 70.2999C69.1615 68.1831 70.6213 66.2151 72.2936 64.4354C73.8076 62.8064 75.5482 61.4038 77.4618 60.2707C79.0917 59.2822 80.9127 58.6505 82.8047 58.4173Z" fill="#414141"/>
<path fill-rule="evenodd" clip-rule="evenodd" d="M77.9086 59.9769C80.0267 58.7563 81.9304 56.6647 83.3124 54.2686C84.6945 51.8857 85.5523 49.1693 85.5523 46.7282C85.5523 44.2871 84.6945 42.5714 83.3098 41.7718C81.9251 40.9722 80.0109 41.0887 77.9007 42.3013C75.7905 43.5139 73.8789 45.6135 72.5101 48.0149C71.1413 50.4163 70.2676 53.1169 70.2676 55.558C70.2676 57.9991 71.1254 59.7121 72.5101 60.5117C73.8948 61.3113 75.7931 61.1948 77.9086 59.9769Z" fill="white"/>
<path fill-rule="evenodd" clip-rule="evenodd" d="M77.4728 59.2035C78.4788 58.6016 79.3935 57.8589 80.1892 56.9981C81.0945 56.0334 81.8852 54.9672 82.5456 53.8209L82.588 53.7574C83.2332 52.6293 83.7492 51.432 84.1263 50.1884C84.467 49.0642 84.6453 47.8972 84.6558 46.7226C84.6788 45.8043 84.5083 44.8914 84.1554 44.0432C83.9079 43.4078 83.4512 42.8758 82.8605 42.535C82.2699 42.1942 81.5807 42.065 80.9067 42.1687C79.9961 42.2847 79.1206 42.5934 78.3386 43.0742L78.2883 43.1007C77.296 43.6959 76.393 44.4286 75.6062 45.277L75.5638 45.3194C73.7713 47.2562 72.4399 49.5733 71.6692 52.0973C71.323 53.2196 71.1402 54.386 71.1264 55.5604C71.1034 56.4787 71.2739 57.3917 71.6268 58.2398C71.8897 58.8669 72.3449 59.3944 72.9268 59.7463L72.9639 59.7701C73.5524 60.0788 74.2214 60.1998 74.8807 60.117C75.7909 59.9989 76.666 59.6904 77.4489 59.2115L77.4728 59.2035ZM81.4787 58.2239C80.5644 59.2069 79.5141 60.0539 78.3598 60.7392C77.3571 61.3453 76.2371 61.7315 75.074 61.8723C74.0525 61.9932 73.0186 61.7953 72.114 61.3057L72.0584 61.274C71.1543 60.7382 70.444 59.9287 70.0303 58.9626C69.5708 57.8856 69.346 56.7231 69.371 55.5524C69.3855 54.2059 69.5933 52.8685 69.9879 51.581C70.4111 50.1759 70.9976 48.8252 71.7354 47.5566C72.4545 46.308 73.3135 45.1452 74.2956 44.0909L74.3433 44.0379C75.2471 43.0679 76.2838 42.2309 77.4225 41.5518L77.4701 41.5227C78.4721 40.9167 79.5909 40.5297 80.7532 40.3869C81.7951 40.2527 82.8523 40.4651 83.7615 40.9915C84.6706 41.5179 85.3812 42.3288 85.7836 43.2992C86.2421 44.3756 86.4669 45.537 86.443 46.7067C86.4284 48.0533 86.2207 49.3907 85.826 50.6782C85.411 52.0538 84.8399 53.3775 84.1236 54.6231L84.0336 54.7767C83.3169 56.0199 82.4597 57.1766 81.4787 58.2239Z" fill="#414141"/>
<path fill-rule="evenodd" clip-rule="evenodd" d="M60.9741 53.1697L55.1335 49.7993L51.8319 50.4903L57.6567 53.8608L60.9609 53.1697H60.9741ZM43.9817 77.5676L38.1437 74.2078L39.2027 77.4141L45.0275 80.7845L43.9684 77.5782L43.9817 77.5676ZM27.7227 65.6268L31.0269 62.5L31.7523 60.0589L30.1638 57.4112L33.325 51.9677L36.4068 52.0233L38.1569 50.17L39.216 45.7458L43.6746 43.1697L47.2886 45.2586L49.5629 42.5898L55.4009 45.9603L52.3032 49.5849L50.5531 49.7596L47.2489 47.8507L45.0381 49.1295L43.979 53.551L42.2289 55.4043L39.1498 55.3488L35.9991 60.8029L37.5877 63.4505L36.8623 65.8916L33.5606 69.0158V71.5602L36.8623 73.4664L37.5877 75.0709L35.9991 79.5428L30.1611 76.175L31.334 72.8707L27.7227 70.7659V65.6268Z" fill="#2B7CFF"/>
<path fill-rule="evenodd" clip-rule="evenodd" d="M58.5185 52.7752L54.9866 50.7366L54.2876 50.8822L57.8196 52.9208L58.5185 52.7752ZM55.5638 49.0315L61.3568 52.3754C61.5219 52.4575 61.6574 52.5891 61.7443 52.7518C61.8313 52.9145 61.8653 53.1002 61.8417 53.2832C61.8181 53.4661 61.7381 53.6371 61.6127 53.7725C61.4874 53.9078 61.323 54.0007 61.1424 54.0382L57.8381 54.7292C57.6246 54.7739 57.402 54.738 57.2133 54.6286L51.3752 51.2581C51.2675 51.1951 51.1742 51.1103 51.1013 51.009C51.0283 50.9078 50.9774 50.7925 50.9516 50.6704V50.6015L50.6392 50.6333C50.4552 50.6504 50.2704 50.6107 50.1097 50.5195L47.2476 48.8673L45.8126 49.6934L44.8462 53.7496C44.8062 53.8999 44.7298 54.0381 44.6238 54.152L42.9081 55.9656C42.8233 56.0657 42.7173 56.1456 42.5978 56.1997C42.4783 56.2537 42.3483 56.2805 42.2171 56.278L39.6568 56.233L37.0304 60.7816L38.3542 62.9712C38.418 63.0771 38.459 63.1952 38.4745 63.3178C38.49 63.4405 38.4797 63.565 38.4443 63.6834L37.7162 66.1245C37.6727 66.2732 37.5905 66.4075 37.4778 66.5138L34.4543 69.3758V71.0306L37.2766 72.6615C37.4535 72.7529 37.5943 72.9012 37.6764 73.0825L37.8035 73.3685C37.9307 73.3144 38.0688 73.2908 38.2067 73.2995C38.3446 73.3083 38.4785 73.3491 38.5978 73.4188L44.4041 76.7733C44.6079 76.8803 44.7618 77.0627 44.833 77.2817L45.892 80.4906C45.9467 80.6614 45.9485 80.8447 45.8971 81.0165C45.8458 81.1883 45.7437 81.3406 45.6043 81.4534C45.4649 81.5662 45.2946 81.6342 45.1159 81.6486C44.9371 81.6629 44.7583 81.6229 44.6026 81.5337L38.8123 78.1871C38.7061 78.1332 38.6119 78.0586 38.535 77.9676C38.4582 77.8767 38.4003 77.7713 38.3648 77.6576L38.0047 76.5589L36.8477 79.8075L36.7789 79.9531C36.6619 80.1563 36.4692 80.3049 36.243 80.3664C36.0167 80.4279 35.7753 80.3974 35.5716 80.2814L29.7891 76.9428C29.5925 76.8472 29.4378 76.6829 29.3543 76.4808C29.2708 76.2787 29.2645 76.0531 29.3364 75.8466L30.2604 73.2387L27.348 71.5522C27.1987 71.4799 27.0726 71.3671 26.9842 71.2267C26.8957 71.0863 26.8484 70.9238 26.8477 70.7579V65.6268C26.8496 65.5061 26.8757 65.387 26.9243 65.2765C26.973 65.166 27.0432 65.0664 27.131 64.9834L30.2419 62.0287L30.7899 60.1753L29.3999 57.8693C29.3194 57.7325 29.2769 57.5766 29.2769 57.4178C29.2769 57.2591 29.3194 57.1032 29.3999 56.9664L32.548 51.515C32.6288 51.377 32.7451 51.2633 32.8848 51.1855C33.0245 51.1078 33.1825 51.0688 33.3423 51.0728L36.0323 51.1231L37.3561 49.7305L38.3569 45.5366C38.3859 45.4197 38.4381 45.3097 38.5104 45.2133C38.5827 45.1169 38.6737 45.0359 38.7779 44.9753L43.2364 42.3965C43.3717 42.3185 43.5251 42.2774 43.6813 42.2774C43.8374 42.2774 43.9908 42.3185 44.1261 42.3965L47.0993 44.1149L48.8865 42.0179C49.0207 41.8569 49.2074 41.7484 49.4137 41.7116C49.6201 41.6748 49.8328 41.712 50.0144 41.8167L55.8286 45.1951L55.9609 45.2904C56.1395 45.4432 56.2501 45.6606 56.2685 45.895C56.2869 46.1293 56.2115 46.3613 56.0589 46.5401L53.819 49.1665L54.9522 48.9309C55.1649 48.8891 55.3857 48.9247 55.5744 49.0315H55.5638ZM43.2338 78.1554L39.7072 76.1193L39.9269 76.7945L43.4562 78.8332L43.2338 78.1554ZM28.6004 65.9763V70.2416L31.7775 72.0711C31.9546 72.1757 32.0902 72.3382 32.1616 72.531C32.233 72.7239 32.2357 72.9355 32.1693 73.1302L31.2427 75.7407L35.5186 78.2083L36.6306 75.0735L36.1699 74.0542L33.1146 72.2909C32.9802 72.2127 32.8687 72.1007 32.7911 71.9659C32.7135 71.8312 32.6726 71.6785 32.6724 71.5231V68.9681C32.6725 68.8362 32.702 68.7059 32.7588 68.5868C32.8156 68.4677 32.8983 68.3628 33.0007 68.2797L36.0799 65.3673L36.628 63.514L35.2406 61.2106C35.1543 61.068 35.1098 60.904 35.1121 60.7374C35.1145 60.5707 35.1636 60.4081 35.2539 60.268L38.3834 54.8536C38.4667 54.7095 38.5888 54.5917 38.7357 54.5135C38.8827 54.4354 39.0486 54.4 39.2147 54.4115L41.8623 54.4618L43.1861 53.0744L44.187 48.8753C44.2179 48.7446 44.2781 48.6227 44.3629 48.5186C44.4477 48.4145 44.555 48.331 44.6767 48.2743L46.8213 47.0352C46.9558 46.9591 47.1077 46.9191 47.2622 46.9191C47.4167 46.9191 47.5685 46.9591 47.703 47.0352L50.761 48.8011L51.8757 48.6899L54.0335 46.1588L49.739 43.7309L47.9439 45.849C47.8082 46.0056 47.6223 46.1101 47.4181 46.1449C47.2138 46.1796 47.0039 46.1424 46.824 46.0397L43.6468 44.2102L39.9667 46.3283L38.9976 50.3791C38.9584 50.5539 38.8659 50.7121 38.7328 50.8319L37.0225 52.6376C36.9333 52.7284 36.8258 52.799 36.707 52.8446C36.5883 52.8903 36.4611 52.91 36.3341 52.9023L33.8083 52.8573L31.2056 57.4086L32.5294 59.6008C32.5966 59.7134 32.6382 59.8392 32.6515 59.9696C32.6648 60.0999 32.6493 60.2316 32.6062 60.3554L31.894 62.7515C31.8432 62.9238 31.7406 63.0763 31.6001 63.1883L28.6004 65.9763Z" fill="#414141"/>
<path fill-rule="evenodd" clip-rule="evenodd" d="M56.9457 63.882L57.6712 61.4409L60.9754 58.3167V53.1697L57.6844 53.8608L56.959 52.2563L58.5475 47.7818L55.3995 45.9629L52.3044 49.5848L50.5544 49.7596L49.4953 46.5533L45.0367 49.1295L43.9777 53.551L42.225 55.4043L39.1431 55.3461L35.9951 60.8002L37.5837 63.4478L36.8582 65.8916L33.5566 69.0158V74.1654L36.8582 73.477L37.5837 75.0815L35.9951 79.556C37.0541 80.1596 38.1035 80.765 39.1431 81.3722L42.225 77.7582L43.9777 77.5861L45.0367 80.7924L49.4953 78.2163L50.5544 73.7921L52.3071 71.9387L55.3863 71.9943L58.5343 66.5402L56.9457 63.882Z" fill="white"/>
<path fill-rule="evenodd" clip-rule="evenodd" d="M56.0951 63.6171L56.8153 61.1972C56.8677 61.0228 56.9721 60.8686 57.1145 60.755L60.0798 57.9512V54.2631L57.8479 54.729C57.6503 54.77 57.4445 54.7425 57.2646 54.651C57.0846 54.5596 56.9411 54.4097 56.8576 54.226L56.1295 52.6215C56.0353 52.4127 56.0258 52.1754 56.1031 51.9596L57.4454 48.1815L55.5762 47.1012L52.9736 50.154C52.8976 50.2431 52.8047 50.3162 52.7001 50.369C52.5955 50.4217 52.4815 50.453 52.3646 50.4611L50.6357 50.6332C50.435 50.6524 50.2338 50.6028 50.0649 50.4927C49.8961 50.3825 49.7697 50.2183 49.7064 50.0269L48.9889 47.8585L45.8117 49.6933L44.8454 53.7494C44.8049 53.9229 44.7126 54.0799 44.5806 54.1995L42.8703 56.0052C42.7811 56.096 42.6735 56.1666 42.5548 56.2123C42.436 56.258 42.3089 56.2776 42.1819 56.27L39.6534 56.2223L37.0322 60.7789L38.356 62.9711C38.4231 63.0836 38.4648 63.2095 38.4781 63.3399C38.4913 63.4702 38.4759 63.6019 38.4328 63.7257L37.718 66.1218C37.6685 66.2948 37.5667 66.4483 37.4267 66.5613L34.4534 69.3731V73.0559L36.688 72.5899C36.8857 72.549 37.0913 72.5765 37.2713 72.6679C37.4512 72.7593 37.5947 72.9092 37.6782 73.093L38.4037 74.6974C38.4973 74.9054 38.5077 75.1413 38.4328 75.3567L37.0878 79.1375L38.9571 80.2177L41.5597 77.1624C41.7148 76.983 41.9347 76.8725 42.1713 76.8552L43.9002 76.6858C44.1013 76.6663 44.303 76.716 44.472 76.8267C44.641 76.9375 44.7671 77.1026 44.8295 77.2947L45.5443 79.4605L48.7215 77.6231L49.6879 73.5696C49.7288 73.3963 49.8211 73.2394 49.9527 73.1195L51.663 71.3138C51.7522 71.2231 51.8599 71.1526 51.9786 71.1069C52.0973 71.0613 52.2244 71.0415 52.3514 71.049L54.8799 71.0967L57.5063 66.5507L56.1825 64.3558C56.1148 64.2466 56.0719 64.1238 56.0568 63.9962C56.0417 63.8685 56.0548 63.7392 56.0951 63.6171ZM58.4515 61.9253L57.9035 63.7786L59.2908 66.0821C59.3701 66.2188 59.4118 66.3741 59.4118 66.5322C59.4118 66.6902 59.3701 66.8455 59.2908 66.9823L56.1587 72.4099C56.0821 72.5536 55.9675 72.6736 55.8275 72.7567C55.6874 72.8398 55.5272 72.8828 55.3644 72.8812L52.6744 72.8309L51.3506 74.2209L50.3498 78.4147C50.3206 78.5323 50.2681 78.6429 50.1953 78.7398C50.1225 78.8366 50.031 78.9179 49.9262 78.9787L45.5285 81.5177C45.4573 81.5661 45.3798 81.6044 45.2981 81.6316C45.1872 81.6674 45.0703 81.6811 44.9541 81.6718C44.8379 81.6625 44.7247 81.6303 44.6209 81.5772C44.5172 81.5241 44.4249 81.4511 44.3493 81.3623C44.2738 81.2734 44.2166 81.1706 44.1808 81.0597L43.3495 78.5339L42.6637 78.6L39.8202 81.9334C39.6863 82.0949 39.4995 82.2037 39.2931 82.2405C39.0866 82.2774 38.8737 82.2399 38.6923 82.1346L35.5787 80.3369C35.3902 80.2334 35.2457 80.0648 35.1721 79.8627C35.0986 79.6606 35.101 79.4386 35.1789 79.2381L36.6483 75.0999L36.3624 74.4697L33.818 74.9993C33.7399 75.0227 33.6587 75.0343 33.5771 75.0337C33.4601 75.034 33.3443 75.0113 33.2362 74.9667C33.1281 74.9221 33.03 74.8566 32.9473 74.7739C32.8646 74.6912 32.7991 74.593 32.7545 74.4849C32.7099 74.3768 32.6872 74.261 32.6875 74.1441V68.9971C32.6895 68.8767 32.7154 68.7578 32.7635 68.6474C32.8117 68.537 32.8812 68.4372 32.9681 68.3537L36.095 65.3963L36.643 63.543L35.2557 61.2396C35.1764 61.1028 35.1347 60.9475 35.1347 60.7895C35.1347 60.6314 35.1764 60.4761 35.2557 60.3394L38.3904 54.9091C38.4671 54.7656 38.5818 54.6461 38.7219 54.5634C38.862 54.4808 39.0221 54.4382 39.1847 54.4405L41.8747 54.4908L43.1986 53.0981L44.1994 48.9043C44.2286 48.787 44.2811 48.6769 44.3539 48.5804C44.4267 48.484 44.5182 48.4032 44.623 48.343L49.0074 45.8092C49.0806 45.7581 49.1609 45.7179 49.2457 45.6901C49.4697 45.6164 49.7138 45.6348 49.9243 45.741C50.1348 45.8473 50.2945 46.0327 50.3684 46.2566L51.2023 48.7878L51.8881 48.7189L54.729 45.3856C54.8635 45.225 55.0501 45.1168 55.2563 45.08C55.4625 45.0432 55.6752 45.0802 55.8569 45.1844L58.9705 46.9847C59.1606 47.0831 59.3087 47.2469 59.3875 47.4459C59.4664 47.6449 59.4706 47.8658 59.3994 48.0676L57.9273 52.2032L58.2132 52.836L60.7576 52.3065C60.8369 52.2841 60.9188 52.2725 61.0012 52.2721C61.2369 52.2728 61.4628 52.3667 61.6295 52.5334C61.7962 52.7001 61.8901 52.9259 61.8908 53.1617V58.3219C61.8888 58.4422 61.8627 58.5609 61.814 58.6709C61.7654 58.781 61.6952 58.8802 61.6075 58.9626L58.4515 61.9253Z" fill="#414141"/>
<path fill-rule="evenodd" clip-rule="evenodd" d="M49.8192 65.1317C51.2277 62.6906 51.2277 60.0536 49.8192 59.2381C48.4106 58.4226 46.1125 59.7438 44.7145 62.1849C43.3166 64.626 43.306 67.2657 44.7145 68.0785C46.1231 68.8913 48.4159 67.5728 49.8192 65.1317Z" fill="#2B7CFF"/>
<path fill-rule="evenodd" clip-rule="evenodd" d="M50.5615 65.6241C49.8858 66.8199 48.9243 67.8296 47.763 68.563L47.7127 68.5948C46.516 69.2858 45.2716 69.4235 44.2708 68.8595C43.27 68.2956 42.7695 67.1386 42.7695 65.7565C42.8123 64.3663 43.2077 63.0097 43.9186 61.8142L43.9478 61.7533C44.624 60.5373 45.5955 59.5111 46.7728 58.7694L46.8231 58.7377C48.0092 58.0519 49.2404 57.909 50.2332 58.4729L50.265 58.4888C51.2631 59.0686 51.7635 60.2124 51.7635 61.5944C51.7238 62.9763 51.334 64.3255 50.6304 65.5156L50.5615 65.6427V65.6241ZM49.0921 64.6207C49.6402 63.6965 49.9478 62.6497 49.987 61.5759C49.987 60.8505 49.799 60.2812 49.4151 60.0324L49.3383 59.9873C48.9306 59.7782 48.3402 59.8973 47.7127 60.2521L47.6676 60.2759C46.7734 60.8507 46.0349 61.6374 45.5178 62.5661L45.4463 62.6879C44.8956 63.6121 44.5869 64.6602 44.5487 65.7353C44.5487 66.4846 44.7553 67.0591 45.1603 67.3027C45.5654 67.5463 46.1744 67.4245 46.8231 67.038L46.8681 67.0115C47.7629 66.4386 48.5017 65.6526 49.018 64.7239L49.0921 64.6207Z" fill="#414141"/>
<path fill-rule="evenodd" clip-rule="evenodd" d="M45.4831 48.3537C45.5839 48.4121 45.6723 48.4899 45.7431 48.5824C45.8139 48.675 45.8658 48.7805 45.8957 48.8931C45.9257 49.0057 45.9333 49.1231 45.9179 49.2387C45.9025 49.3542 45.8645 49.4655 45.8061 49.5663C45.7477 49.6672 45.67 49.7555 45.5775 49.8263C45.4849 49.8971 45.3793 49.949 45.2667 49.979C45.1541 50.009 45.0367 50.0165 44.9212 50.0011C44.8057 49.9857 44.6944 49.9478 44.5935 49.8894L38.7687 46.5163C38.663 46.4606 38.5695 46.3841 38.494 46.2914C38.4186 46.1986 38.3626 46.0916 38.3295 45.9767C38.2965 45.8618 38.287 45.7414 38.3016 45.6228C38.3162 45.5041 38.3548 45.3897 38.4148 45.2863C38.4748 45.1829 38.5551 45.0927 38.6508 45.0211C38.7466 44.9495 38.8558 44.898 38.972 44.8697C39.0881 44.8414 39.2088 44.8369 39.3268 44.8564C39.4447 44.8759 39.5575 44.9191 39.6583 44.9833L45.4831 48.3537Z" fill="#414141"/>
<path fill-rule="evenodd" clip-rule="evenodd" d="M39.5966 54.5702C39.8002 54.6882 39.9487 54.8822 40.0093 55.1096C40.0698 55.3371 40.0376 55.5792 39.9196 55.7828C39.8016 55.9865 39.6076 56.1349 39.3802 56.1955C39.1528 56.2561 38.9107 56.2238 38.707 56.1059L32.8664 52.7328C32.7655 52.6744 32.6772 52.5967 32.6064 52.5041C32.5356 52.4116 32.4837 52.306 32.4537 52.1934C32.4237 52.0808 32.4162 51.9634 32.4316 51.8479C32.447 51.7324 32.4849 51.621 32.5434 51.5202C32.6018 51.4193 32.6794 51.331 32.772 51.2602C32.8645 51.1894 32.9702 51.1375 33.0828 51.1075C33.1954 51.0775 33.3128 51.07 33.4283 51.0854C33.5438 51.1008 33.6551 51.1388 33.7559 51.1972L39.5966 54.5702Z" fill="#414141"/>
<path fill-rule="evenodd" clip-rule="evenodd" d="M36.4445 60.0244C36.6482 60.1413 36.797 60.3344 36.8583 60.561C36.9197 60.7877 36.8884 61.0294 36.7715 61.2331C36.6546 61.4367 36.4616 61.5856 36.2349 61.6469C36.0082 61.7082 35.7665 61.677 35.5628 61.5601L29.7222 58.187C29.6197 58.13 29.5297 58.0533 29.4571 57.9612C29.3846 57.8691 29.3312 57.7635 29.2998 57.6506C29.2685 57.5376 29.2599 57.4196 29.2745 57.3033C29.2892 57.187 29.3269 57.0748 29.3853 56.9732C29.4438 56.8716 29.5218 56.7826 29.6149 56.7115C29.7081 56.6403 29.8144 56.5884 29.9278 56.5587C30.0412 56.5289 30.1594 56.5221 30.2754 56.5385C30.3915 56.5548 30.5031 56.5941 30.6038 56.654L36.4445 60.0244Z" fill="#414141"/>
<path fill-rule="evenodd" clip-rule="evenodd" d="M34.0021 68.2294C34.2058 68.3463 34.3546 68.5394 34.4159 68.766C34.4773 68.9927 34.446 69.2344 34.3291 69.4381C34.2122 69.6417 34.0192 69.7906 33.7925 69.8519C33.5658 69.9132 33.3241 69.882 33.1204 69.7651L27.2824 66.3946C27.1816 66.3367 27.0932 66.2596 27.0222 66.1675C26.9512 66.0754 26.899 65.9703 26.8686 65.858C26.8382 65.7458 26.8303 65.6287 26.8452 65.5134C26.8601 65.3981 26.8976 65.2868 26.9555 65.186C27.0134 65.0852 27.0905 64.9967 27.1826 64.9257C27.2747 64.8547 27.3798 64.8025 27.492 64.7722C27.6043 64.7418 27.7214 64.7339 27.8367 64.7488C27.952 64.7636 28.0633 64.8011 28.1641 64.859L34.0021 68.2294Z" fill="#414141"/>
<path fill-rule="evenodd" clip-rule="evenodd" d="M34.0074 73.3791C34.2111 73.497 34.3595 73.6911 34.4201 73.9185C34.4807 74.1459 34.4484 74.388 34.3304 74.5917C34.2125 74.7953 34.0184 74.9437 33.791 75.0043C33.5636 75.0649 33.3214 75.0327 33.1178 74.9147L27.5578 71.7111C27.3542 71.5931 27.2057 71.3991 27.1451 71.1717C27.0846 70.9442 27.1168 70.7021 27.2348 70.4984C27.3528 70.2948 27.5468 70.1464 27.7742 70.0858C28.0016 70.0252 28.2438 70.0575 28.4474 70.1754L34.0074 73.3791Z" fill="#414141"/>
<path fill-rule="evenodd" clip-rule="evenodd" d="M49.9409 45.7774C50.1445 45.8954 50.293 46.0894 50.3535 46.3168C50.4141 46.5442 50.3819 46.7864 50.2639 46.99C50.1459 47.1937 49.9519 47.3421 49.7245 47.4027C49.4971 47.4632 49.2549 47.431 49.0513 47.313L43.5363 44.1359C43.3327 44.0179 43.1842 43.8239 43.1236 43.5965C43.0631 43.3691 43.0953 43.1269 43.2133 42.9233C43.3313 42.7196 43.5253 42.5712 43.7527 42.5106C43.9801 42.45 44.2222 42.4823 44.4259 42.6003L49.9409 45.7774Z" fill="#414141"/>
<path fill-rule="evenodd" clip-rule="evenodd" d="M21.2081 34.3002C21.2723 34.1939 21.358 34.1023 21.4598 34.0312C21.5615 33.96 21.677 33.911 21.7988 33.8871C21.9206 33.8633 22.0461 33.8653 22.1672 33.8928C22.2882 33.9204 22.4021 33.973 22.5016 34.0472C22.6011 34.1215 22.6839 34.2157 22.7448 34.3239C22.8057 34.4321 22.8432 34.5518 22.8551 34.6754C22.8669 34.799 22.8527 34.9236 22.8135 35.0414C22.7743 35.1592 22.7109 35.2674 22.6273 35.3592C21.4808 36.8737 20.3767 38.4331 19.3283 40.019C18.2798 41.605 17.2631 43.2412 16.3074 44.8986C13.4744 49.801 11.1051 54.9571 9.23026 60.2998C7.47095 65.2583 6.24956 70.3916 5.58713 75.6111C5.55199 75.8386 5.42997 76.0437 5.24674 76.1832C5.0635 76.3226 4.83332 76.3856 4.60461 76.3589C4.3759 76.3321 4.16645 76.2177 4.02033 76.0398C3.87422 75.8618 3.80287 75.6341 3.82118 75.4045C4.4997 70.0565 5.75215 64.7972 7.55694 59.7174C9.47278 54.2713 11.8926 49.016 14.785 44.0196C15.7593 42.333 16.7866 40.6704 17.8615 39.05C18.9365 37.4297 20.0644 35.8305 21.2214 34.3002H21.2081ZM27.0726 110.713C26.8377 110.727 26.607 110.647 26.4312 110.49C26.2555 110.334 26.1491 110.114 26.1354 109.879C26.1217 109.644 26.2018 109.414 26.3582 109.238C26.5147 109.062 26.7345 108.956 26.9693 108.942C32.5082 108.614 38.5395 106.35 44.5072 102.503C50.52 98.6269 56.4533 93.1542 61.7565 86.4372C61.8263 86.3395 61.9153 86.257 62.0179 86.1947C62.1206 86.1324 62.2348 86.0916 62.3537 86.0747C62.4726 86.0579 62.5937 86.0654 62.7096 86.0967C62.8256 86.1281 62.9339 86.1826 63.0281 86.2571C63.1223 86.3316 63.2004 86.4244 63.2577 86.53C63.315 86.6355 63.3502 86.7516 63.3613 86.8712C63.3723 86.9907 63.359 87.1113 63.3221 87.2256C63.2852 87.3399 63.2254 87.4455 63.1465 87.536C57.7162 94.4198 51.632 100.022 45.4657 103.999C39.2491 108.007 32.9238 110.369 27.0726 110.713ZM82.0399 34.9277C82.0536 35.1625 81.9735 35.3932 81.8171 35.569C81.6607 35.7448 81.4408 35.8512 81.206 35.8649C80.9711 35.8786 80.7404 35.7984 80.5646 35.642C80.3888 35.4856 80.2824 35.2658 80.2687 35.0309C80.1767 33.5034 79.9999 31.9822 79.7392 30.4743C78.6431 24.1756 76.1119 19.2219 72.4635 15.9415C68.8151 12.6611 64.0996 11.0699 58.5476 11.4061C57.5712 11.467 56.5989 11.5819 55.6352 11.7503C55.4031 11.79 55.1648 11.7359 54.9726 11.5998C54.7805 11.4638 54.6502 11.257 54.6105 11.0249C54.5709 10.7928 54.625 10.5545 54.7611 10.3623C54.8971 10.1702 55.1039 10.0399 55.336 10.0003C56.3672 9.82092 57.4075 9.69894 58.4522 9.63488C64.4994 9.26686 69.6861 11.0487 73.6602 14.6204C77.6343 18.192 80.3322 23.4687 81.4972 30.1778C81.7675 31.7496 81.9488 33.3354 82.0399 34.9277Z" fill="#414141"/>
</svg>
