<svg width="107" height="91" viewBox="0 0 107 91" fill="none" xmlns="http://www.w3.org/2000/svg">
<path d="M99.035 70.3186C99.3546 79.8834 78.2451 88.3512 51.8856 89.232C25.526 90.1129 3.89833 83.0731 3.57872 73.5083C3.39999 68.1597 9.92217 63.1541 20.3162 59.6264C28.5095 56.8456 39.1088 54.9831 50.7281 54.5948C77.0877 53.714 98.7154 60.7538 99.035 70.3186Z" fill="#E8E8E8"/>
<path fill-rule="evenodd" clip-rule="evenodd" d="M29.9922 1.58052C26.7831 0.219249 24.0818 0.630127 20.8931 1.81983C15.9959 3.92382 12.4641 7.17912 9.15351 11.29C5.66459 15.8886 3.37172 20.3245 1.78749 25.878C0.726819 30.1266 0.300291 33.8763 1.2752 38.1791C2.05152 40.8836 2.9994 42.6964 5.27193 44.4075L7.67533 45.8004L11.8886 48.2295L36.5525 5.37764L29.9922 1.58052Z" fill="#2B7CFF"/>
<path fill-rule="evenodd" clip-rule="evenodd" d="M25.9817 1.46768C24.3839 1.46768 22.8222 1.88081 21.15 2.50388C16.9502 4.31665 13.4162 7.17013 9.73092 11.7438C6.24876 16.3356 4.01458 20.7648 2.49805 26.0812C1.30423 30.849 1.15529 34.3098 1.9948 38.0143C2.68762 40.4253 3.52487 42.1636 5.72068 43.8251L11.622 47.2249L35.5571 5.64631L29.6692 2.23524C28.3716 1.69344 27.1688 1.46768 25.9817 1.46768ZM11.8906 48.9609C11.7619 48.9609 11.6333 48.9293 11.5228 48.8684L4.90823 45.0442C2.31975 43.1005 1.34033 41.0642 0.573041 38.3846C-0.541789 33.4564 0.157799 29.3817 1.07855 25.7019C2.65601 20.1778 4.96239 15.5996 8.57092 10.8453C12.4277 6.05267 16.1355 3.066 20.6061 1.14261C23.4564 0.0793329 26.5752 -0.67016 30.2808 0.898801C30.3078 0.912346 30.3372 0.923634 30.3643 0.941694L36.9247 4.74105C37.2767 4.94649 37.394 5.39122 37.1932 5.74564L12.5202 48.5997C12.4254 48.7623 12.2652 48.8864 12.0756 48.9361C12.0147 48.9564 11.9538 48.9609 11.8906 48.9609Z" fill="#414141"/>
<path fill-rule="evenodd" clip-rule="evenodd" d="M24.8629 47.3807C34.5262 41.8024 42.3594 28.2303 42.3594 17.067C42.3594 5.89688 34.5262 1.36608 24.8629 6.95113C15.1973 12.5294 7.35742 26.1128 7.35742 37.2761C7.35742 48.4507 15.1973 52.9612 24.8629 47.3807Z" fill="white"/>
<path fill-rule="evenodd" clip-rule="evenodd" d="M24.8636 47.3807H24.884H24.8636ZM32.672 5.29186C30.4062 5.29186 27.8741 6.06619 25.2292 7.59001C15.7825 13.0441 8.09383 26.3656 8.09383 37.2784C8.09383 42.4006 9.78184 46.2 12.8487 47.9676C15.9157 49.742 20.0545 49.3108 24.4958 46.7418C33.9403 41.2877 41.6244 27.9729 41.6244 17.0647C41.6244 11.9289 39.9342 8.12955 36.865 6.36193C35.6238 5.6463 34.2088 5.29186 32.672 5.29186ZM17.0395 50.5118C15.2454 50.5118 13.5844 50.0942 12.113 49.2431C8.57673 47.2001 6.62695 42.9447 6.62695 37.2784C6.62695 25.896 14.6406 12.0012 24.4981 6.31451C29.4065 3.47684 34.0644 3.04566 37.5984 5.09095C41.1438 7.13399 43.0958 11.3894 43.0958 17.067C43.0958 28.4448 35.0822 42.3261 25.2292 48.0105C25.2292 48.0105 25.2292 48.0105 25.2292 48.0173C22.3519 49.6743 19.5693 50.5118 17.0395 50.5118Z" fill="#414141"/>
<path fill-rule="evenodd" clip-rule="evenodd" d="M32.6869 11.2065L32.2287 11.0146C30.4504 10.4277 29.1596 10.5067 27.3587 10.9582C23.8111 12.0643 21.2136 14.1999 18.7447 16.9112C15.3687 20.8596 13.0984 25.1962 12.0016 30.2936C11.4713 33.2487 11.3585 35.8674 12.3695 38.7277C12.9991 40.2086 13.5858 41.0822 14.8812 42.0642L16.6121 43.0576L17.2553 43.4323C19.5617 45.0374 21.2655 45.8997 26.5982 42.8205C31.9309 39.7413 39.202 27.158 39.202 20.986C39.202 14.814 37.5862 13.7507 35.0225 12.5655L32.6869 11.2065Z" fill="white"/>
<path fill-rule="evenodd" clip-rule="evenodd" d="M29.8403 11.3329C29.1024 11.3329 28.378 11.4638 27.534 11.6693C24.5799 12.5948 22.102 14.3128 19.2856 17.4056C15.9073 21.3539 13.7521 25.6274 12.7163 30.4494C12.283 32.8672 12.0189 35.5423 13.0593 38.4838C13.6641 39.9083 14.2192 40.6398 15.3228 41.4773L17.6201 42.7957C19.6332 44.1953 21.0459 45.1818 26.2318 42.1839C31.3772 39.2108 38.4678 26.9277 38.4678 20.986C38.4678 14.963 36.8949 14.2383 34.7127 13.2337L31.9391 11.6896C31.1718 11.439 30.5038 11.3329 29.8403 11.3329ZM20.8947 45.6266C19.3172 45.6266 18.1573 44.9584 16.8348 44.0328L14.5126 42.6963C12.9487 41.5269 12.3258 40.502 11.6917 39.0166C10.5205 35.7049 10.8003 32.8062 11.2764 30.1627C12.3687 25.0766 14.6277 20.5909 18.1866 16.4303C21.2061 13.1118 23.8781 11.2765 27.1413 10.2583C29.0121 9.78876 30.461 9.65783 32.4559 10.3148L32.9705 10.5337C32.9998 10.545 33.0246 10.5586 33.0517 10.5721L35.3874 11.9334C38.109 13.1818 39.9347 14.5069 39.9347 20.986C39.9347 27.4266 32.5371 40.2402 26.963 43.4594C24.2504 45.0261 22.3841 45.6266 20.8947 45.6266Z" fill="#414141"/>
<path fill-rule="evenodd" clip-rule="evenodd" d="M43.8014 77.638L32.9623 69.0346L19.0811 42.7438C17.524 41.5699 16.8808 40.3328 16.3482 38.4816C15.5132 34.7839 16.1789 31.3344 17.4156 27.8104C18.6478 24.6251 20.0944 22.1193 22.2383 19.4577C30.8229 9.41861 49.951 12.8229 60.8262 16.2475C62.6677 16.8277 64.0353 18.0219 64.8455 19.776L67.3933 25.2753C68.0297 26.6501 68.1786 28.0046 67.8514 29.4855L65.7233 39.1183L77.3613 65.6461L65.1659 72.4435C65.4119 73.2629 62.4804 76.7169 59.1765 75.78C58.7162 76.4731 59.0186 78.0466 55.3243 77.9292C55.4822 78.6222 54.5751 79.2724 52.9231 79.2724L45.2119 78.2339C44.6748 78.164 44.2279 77.9766 43.8014 77.638Z" fill="white"/>
<path fill-rule="evenodd" clip-rule="evenodd" d="M33.5422 68.5539L44.2617 77.0624C44.5799 77.3197 44.9049 77.4552 45.3111 77.5116L53.0246 78.541C54.0627 78.541 54.566 78.1911 54.6156 78.067C54.5615 77.8412 54.6179 77.629 54.7623 77.4552C54.9067 77.2746 55.1821 77.1865 55.3513 77.2001C57.8202 77.2678 58.0459 76.6312 58.2783 76.0059C58.3573 75.8004 58.4363 75.5814 58.574 75.3737C58.75 75.1119 59.0863 74.9855 59.3819 75.0735C60.7427 75.455 61.9432 74.9358 62.715 74.4301C63.8366 73.6987 64.4189 72.7686 64.455 72.5361C64.3557 72.2042 64.5137 71.974 64.8161 71.8046L76.427 65.3256L65.0598 39.4163C64.9989 39.2741 64.9808 39.1161 65.0124 38.9603L67.1428 29.3276C67.4316 28.0024 67.3053 26.8105 66.732 25.5801L64.1864 20.0876C63.4598 18.5187 62.2592 17.4644 60.6118 16.9452C54.0943 14.8886 32.1069 9.04845 22.7979 19.9386C20.7149 22.5257 19.3067 24.9683 18.1039 28.0792C16.6934 32.0772 16.3707 35.24 17.0681 38.3192C17.5352 39.9446 18.07 41.0553 19.5256 42.1547C19.6114 42.2156 19.6813 42.3037 19.7332 42.3985L33.5422 68.5539ZM52.9547 80.0061C52.9456 80.0061 52.9344 80.0061 52.9253 80.0061L45.1193 78.9632C44.4422 78.8751 43.8781 78.6381 43.3455 78.2137L32.5109 69.6104C32.4297 69.5471 32.3619 69.4659 32.3168 69.3801L18.5101 43.227C16.8424 41.9221 16.1699 40.5157 15.644 38.6849C14.8745 35.2851 15.213 31.8673 16.7296 27.569C17.9956 24.2888 19.4715 21.7266 21.6673 19.004C31.5834 7.40952 54.3177 13.4257 61.0519 15.55C63.0829 16.1867 64.6265 17.5434 65.5157 19.4736L68.0636 24.9661C68.7677 26.4854 68.9347 28.0092 68.5736 29.6526L66.4996 39.0484L78.0406 65.3572C78.1895 65.7071 78.0586 66.1067 77.7291 66.2941L65.879 72.8973C65.7052 73.6106 65.0688 74.3353 64.7438 74.6672C64.1639 75.2541 62.1937 77.0104 59.6165 76.6334C59.2329 77.6154 58.5514 78.6133 55.9561 78.6697C55.9042 78.7961 55.8343 78.9067 55.7463 79.0196C55.2408 79.6517 54.2229 80.0061 52.9547 80.0061Z" fill="#414141"/>
<path fill-rule="evenodd" clip-rule="evenodd" d="M75.3848 66.5242L68.4612 61.0881L63.1736 52.8911L58.5428 48.2497C56.3018 46.0013 55.1351 43.3126 55.02 40.1408L54.8102 34.3119L44.788 33.3186L40.8229 38.0616C39.7486 39.3484 38.1419 40.0618 36.5418 39.5606L32.8092 38.4115C32.4527 38.2987 32.1954 38.0549 32.0668 37.7049C31.9381 37.355 31.9765 36.9983 32.1773 36.6868L39.9699 24.397C40.5228 23.5279 41.3374 22.8416 42.3574 22.6858L59.0054 20.0987C59.3823 20.0355 59.705 20.2297 59.9916 20.4802L70.0431 29.3341C78.788 37.0367 74.6333 36.899 83.3398 38.9872C85.9757 39.6193 87.3997 40.2875 91.3219 41.8181C97.4308 53.9206 88.2685 62.7858 79.3183 65.5647C79.3183 65.5625 76.1611 66.856 75.3848 66.5242Z" fill="white"/>
<path fill-rule="evenodd" clip-rule="evenodd" d="M75.7117 65.8424C76.1585 65.8921 77.6682 65.4429 79.0381 64.8807C83.5899 63.463 89.2183 60.0271 91.5292 54.5707C93.1337 50.7781 92.89 46.6876 90.7912 42.3938L88.9497 41.6624C86.544 40.712 85.2216 40.1882 83.1724 39.7006C77.596 38.3642 77.0612 37.8878 75.1655 35.6078C74.1929 34.4384 72.7215 32.6708 69.5598 29.8782L59.5082 21.0311C59.3886 20.925 59.2284 20.8121 59.1178 20.8189L42.4699 23.406C41.504 23.555 40.8766 24.3361 40.5878 24.7876L32.7952 37.0774C32.7163 37.197 32.7049 37.3144 32.7568 37.4454C32.8042 37.5831 32.8855 37.6576 33.0254 37.7027L36.7603 38.8585C37.9564 39.2288 39.2924 38.7389 40.2582 37.5898L44.2234 32.8423C44.3791 32.6617 44.6228 32.5624 44.8598 32.5872L54.8819 33.5805C55.2453 33.6121 55.5297 33.9124 55.5432 34.2803L55.7553 40.116C55.8614 43.1139 56.9401 45.6017 59.0614 47.7328L63.6923 52.3697L69.0114 60.5847L75.7117 65.8424ZM75.7297 67.2985C75.4815 67.2985 75.2671 67.2669 75.0956 67.1924C75.0346 67.1676 74.9827 67.136 74.9308 67.0976L68.0072 61.6615C67.9417 61.6119 67.8876 61.5487 67.8447 61.4809L62.5548 53.284L58.0211 48.7667C55.6628 46.3986 54.4035 43.5067 54.2862 40.1702L54.0989 34.9711L45.1013 34.0839L41.3822 38.5267C40.0371 40.1453 38.0963 40.8135 36.3248 40.2559L32.5921 39.1069C32.0144 38.9308 31.5834 38.5199 31.3758 37.951C31.1681 37.3822 31.2313 36.7952 31.5563 36.2895L39.3511 23.9997C40.0732 22.8574 41.1023 22.1327 42.2442 21.9567L58.8922 19.3696C59.7046 19.2386 60.2801 19.7579 60.4764 19.9249L70.5279 28.7788C73.7799 31.6391 75.2919 33.4654 76.2962 34.6641C77.9391 36.644 78.2392 37.0006 83.5155 38.2693C85.6639 38.7818 87.0247 39.3191 89.4936 40.3011L91.5856 41.1251C91.7593 41.1928 91.897 41.3192 91.9782 41.4818C94.3568 46.1977 94.6705 50.9226 92.8832 55.1396C90.3714 61.0633 84.3391 64.7679 79.53 66.2668C78.5371 66.68 76.8242 67.2985 75.7297 67.2985Z" fill="#414141"/>
<path fill-rule="evenodd" clip-rule="evenodd" d="M59.1824 76.5204C59.1757 76.5204 59.1667 76.5204 59.1576 76.5204C55.1136 76.3827 51.8661 75.2585 49.228 73.089C46.6959 70.9963 42.1801 65.9847 41.1962 64.8243C40.9344 64.5196 40.9705 64.0568 41.2797 63.7926C41.5866 63.5308 42.0538 63.5669 42.3155 63.8739C43.2837 65.0162 47.7046 69.9285 50.1645 71.9535C52.5431 73.9153 55.4995 74.9266 59.2095 75.0508C59.6158 75.0688 59.9294 75.4075 59.9181 75.8116C59.9046 76.2089 59.5774 76.5204 59.1824 76.5204Z" fill="#414141"/>
<path fill-rule="evenodd" clip-rule="evenodd" d="M65.1648 73.2539C65.1603 73.2539 65.1603 73.2539 65.1558 73.2539L64.8353 73.2471C61.7323 73.2042 58.521 73.1591 55.5895 70.6036C53.1161 68.4409 46.373 62.2689 44.9918 60.7564C44.7165 60.4561 44.7346 59.9934 45.0347 59.7202C45.3303 59.4516 45.7997 59.4628 46.0705 59.7631C47.4246 61.244 54.1 67.3483 56.5531 69.4974C59.0784 71.6962 61.8857 71.7391 64.8556 71.7775L65.1738 71.7843C65.5801 71.791 65.9028 72.1206 65.8983 72.5202C65.8915 72.9288 65.5643 73.2539 65.1648 73.2539Z" fill="#414141"/>
<path fill-rule="evenodd" clip-rule="evenodd" d="M72.6399 69.5109C72.6106 69.5109 72.5857 69.5109 72.5586 69.5109C68.2099 69.0368 63.6897 68.337 60.37 65.4632C57.7138 63.1651 51.8598 57.9412 50.7134 56.4603C50.4652 56.142 50.5261 55.6792 50.8466 55.4354C51.1648 55.1848 51.6297 55.2413 51.8757 55.5596C52.8054 56.7651 57.9621 61.4381 61.3291 64.3503C64.3283 66.9487 68.4288 67.5808 72.7166 68.0481C73.1183 68.091 73.4094 68.4544 73.3688 68.8608C73.3282 69.2355 73.01 69.5109 72.6399 69.5109Z" fill="#414141"/>
<path fill-rule="evenodd" clip-rule="evenodd" d="M55.3245 78.6876C55.2997 78.6876 55.2749 78.6876 55.2478 78.6876C51.9056 78.3445 47.7351 77.6627 45.1421 75.3759C43.0027 73.4886 39.4957 70.1836 38.3538 68.9149C38.083 68.6147 38.1079 68.1474 38.4103 67.8787C38.7127 67.6101 39.1731 67.6282 39.4461 67.9352C40.5271 69.1362 44.016 72.4208 46.1103 74.2765C48.3918 76.2811 52.2711 76.9065 55.399 77.2248C55.7984 77.2609 56.0941 77.6244 56.0535 78.0239C56.0173 78.4077 55.6946 78.6876 55.3245 78.6876Z" fill="#414141"/>
<path fill-rule="evenodd" clip-rule="evenodd" d="M100.533 39.6714L93.8938 35.8359C91.5513 34.8493 89.8091 34.8245 87.3357 35.285C83.5015 36.2422 80.7461 38.0166 77.7559 40.5405C77.2481 40.9897 76.5937 41.6038 76.1153 42.0824C71.7959 46.3987 68.2934 52.1598 66.3549 57.939C65.3597 60.9009 64.8451 63.576 64.651 66.6552C64.5517 71.265 65.2829 75.7281 69.1735 78.6696L75.788 82.4938L100.533 39.6714Z" fill="#2B7CFF"/>
<path fill-rule="evenodd" clip-rule="evenodd" d="M90.0349 35.7231C89.2225 35.7231 88.3988 35.8292 87.469 36.0052C83.7093 36.9489 81.0485 38.7233 78.2321 41.1027C77.7447 41.5338 77.1038 42.1343 76.6344 42.6017C72.473 46.7622 68.9795 52.4421 67.05 58.1761C66.0909 61.0319 65.5764 63.6551 65.3823 66.6982C65.3033 70.4343 65.7118 75.1322 69.6204 78.0827L75.524 81.4871L99.529 39.9401L93.5328 36.4726C92.2533 35.9353 91.1588 35.7231 90.0349 35.7231ZM75.7904 83.2231C75.6663 83.2231 75.5399 83.1915 75.427 83.1237L68.8102 79.3063C64.2968 75.902 63.8274 70.7527 63.9154 66.635C64.1208 63.4293 64.6556 60.6865 65.6576 57.7088C67.6571 51.7671 71.2769 45.8818 75.594 41.5655C76.086 41.0711 76.7517 40.4457 77.273 39.992C79.8547 37.8112 82.8336 35.6553 87.1553 34.5695C89.64 34.1067 91.5718 34.057 94.1828 35.1632L100.903 39.0371C101.073 39.1364 101.19 39.2922 101.246 39.4795C101.291 39.6737 101.264 39.8723 101.172 40.0417L76.4267 82.8574C76.2913 83.0921 76.0454 83.2231 75.7904 83.2231Z" fill="#414141"/>
<path fill-rule="evenodd" clip-rule="evenodd" d="M88.7585 81.6383C98.4264 76.06 106.26 62.4947 106.26 51.3246C106.26 40.159 98.4287 35.6305 88.7585 41.211C79.0974 46.7961 71.2598 60.3772 71.2598 71.536C71.2598 82.7061 79.0974 87.2234 88.7585 81.6383Z" fill="white"/>
<path fill-rule="evenodd" clip-rule="evenodd" d="M96.5746 39.547C94.3066 39.547 91.7723 40.3213 89.1296 41.8451C79.6807 47.306 71.9942 60.6185 71.9942 71.5335C71.9942 76.6625 73.6845 80.4619 76.7492 82.2295C79.8184 84.0039 83.9594 83.5659 88.3939 81.0059C97.8429 75.545 105.525 62.2326 105.525 51.3244C105.525 46.1953 103.839 42.3959 100.765 40.6215C99.5287 39.9082 98.1114 39.547 96.5746 39.547ZM80.9422 84.7737C79.1503 84.7737 77.4871 84.3493 76.0203 83.505C72.4772 81.462 70.5273 77.2066 70.5273 71.5335C70.5273 60.1489 78.5455 46.2608 88.3962 40.5764C93.3046 37.7387 97.9648 37.303 101.506 39.3506C105.046 41.3936 107.001 45.649 107.001 51.3221C107.001 62.6999 98.9825 76.5812 89.1319 82.2724C86.2568 83.9362 83.472 84.7737 80.9422 84.7737Z" fill="#414141"/>
<path fill-rule="evenodd" clip-rule="evenodd" d="M37.2918 72.317L32.1736 72.1658C31.3882 72.1409 30.7202 71.8791 30.1357 71.3463L29.3414 70.6284C28.6531 70.0031 28.301 69.2039 28.301 68.2738V66.2692L27.8632 66.1495C27.202 65.9689 26.6784 65.6258 26.2451 65.093L24.8256 63.3435C24.3743 62.7881 24.1486 62.1808 24.1215 61.463L24.0696 60.0633L23.5506 59.8827C22.7698 59.6028 22.183 59.1264 21.7519 58.4131L20.8538 56.9209C20.258 55.9343 20.0098 54.9207 20.0797 53.7649L20.1158 53.1283C18.166 52.1914 16.7375 50.3177 16.8029 47.8796L16.8391 46.3242L17.0241 43.0576C17.2227 41.2403 17.8636 40.8588 19.3305 40.7346C20.003 40.6782 20.7612 40.7595 21.3728 41.0416L22.1943 41.4232C22.8939 41.7415 23.2685 42.0914 23.7898 42.7844C24.2276 43.3714 24.46 43.9832 24.5187 44.7146L24.5594 45.2022L24.5684 46.7892L25.5387 47.2272L26.5904 48.146C27.4615 48.909 27.9038 49.9204 27.8677 51.0762L27.7865 54.0313C28.2514 54.2638 28.6305 54.4625 29.0841 54.8191L30.1357 55.6499C31.0384 56.3565 31.58 57.7742 31.5439 58.8917L31.4198 62.5533C32.652 62.6098 33.2072 63.0342 34.3242 63.9394C35.0802 64.5512 35.5271 65.3323 35.667 66.3008L36.1183 69.3484L37.2918 72.317Z" fill="white"/>
<path fill-rule="evenodd" clip-rule="evenodd" d="M19.7305 41.4524C19.6199 41.4524 19.5093 41.4592 19.3988 41.466C18.2817 41.5653 17.9229 41.6669 17.7626 43.141L17.5415 47.8953C17.4918 49.8638 18.5728 51.5683 20.4414 52.469C20.7077 52.5999 20.8724 52.8821 20.8543 53.1756L20.816 53.8122C20.7573 54.8191 20.9672 55.6814 21.4862 56.5438L22.3867 58.0382C22.7297 58.6071 23.1788 58.9751 23.8017 59.1941L24.3185 59.3815C24.5983 59.4808 24.7923 59.7449 24.8036 60.0429L24.8555 61.4358C24.8781 61.9979 25.0496 62.4539 25.3994 62.8851L26.8212 64.6347C27.1597 65.0478 27.5411 65.2961 28.0601 65.4474L28.5002 65.567C28.8206 65.655 29.0395 65.9485 29.0395 66.2736L29.0373 68.2783C29.0373 68.9961 29.3081 69.6102 29.8407 70.091L30.6351 70.8089C31.0841 71.222 31.5851 71.4207 32.1967 71.441L36.2047 71.5539L35.4442 69.6283L34.95 66.4045C34.8349 65.6302 34.4805 65.0117 33.869 64.5105C32.7699 63.6188 32.375 63.3366 31.3979 63.2915C30.9962 63.2734 30.6824 62.9348 30.6982 62.5284L30.8201 58.8667C30.8517 57.9051 30.3575 56.7424 29.694 56.2232L28.6446 55.3925C28.2452 55.0877 27.9044 54.9048 27.4666 54.6881C27.2138 54.5572 27.0536 54.2953 27.0649 54.0064L27.1484 51.0513C27.1755 50.1144 26.8279 49.3198 26.1216 48.7012L25.1467 47.8524L24.2733 47.4596C24.0115 47.3354 23.8445 47.0781 23.84 46.7914L23.7971 44.78C23.7452 44.1862 23.5625 43.7054 23.2059 43.2245C22.7252 42.5879 22.4431 42.3441 21.8947 42.0935L21.0733 41.712C20.7077 41.5404 20.2202 41.4524 19.7305 41.4524ZM37.2924 73.0461C37.2856 73.0461 37.2811 73.0461 37.2743 73.0461L32.1538 72.9016C31.1947 72.87 30.353 72.5336 29.6466 71.8903L28.8523 71.1724C28.0127 70.4093 27.5681 69.4093 27.5681 68.2738L27.5704 66.8312C26.8076 66.6009 26.187 66.181 25.6793 65.558L24.2553 63.8084C23.7046 63.1266 23.418 62.3726 23.3842 61.49L23.3007 60.5779C22.3573 60.2348 21.6465 59.6524 21.1275 58.79L20.227 57.3023C19.559 56.1916 19.2701 55.0222 19.3491 53.7219L19.3604 53.5594C17.2323 52.3539 16.0137 50.2544 16.0723 47.8547L16.1107 46.306L16.3003 43.0191C16.5485 40.6758 17.5821 40.1453 19.2724 40.0008C20.1322 39.9263 21.0033 40.064 21.6803 40.3688L22.5063 40.7503C23.3819 41.1499 23.8378 41.6127 24.3816 42.3373C24.9075 43.0439 25.1873 43.7799 25.2595 44.649L25.2979 45.1299L25.3047 46.3105L25.8508 46.5544C25.914 46.586 25.9749 46.6221 26.0313 46.674L27.083 47.5928C28.1233 48.4981 28.6491 49.7103 28.613 51.0919L28.5431 53.5842C28.8725 53.7648 29.1885 53.959 29.5473 54.2344L30.599 55.0651C31.7589 55.9772 32.3254 57.6883 32.287 58.9142L32.1877 61.9008C33.2371 62.1017 33.887 62.6255 34.7919 63.3682C35.6924 64.0929 36.234 65.0433 36.3988 66.1856L36.8501 69.24L37.974 72.0438C38.062 72.274 38.0349 72.5314 37.8904 72.7301C37.7573 72.9332 37.5339 73.0461 37.2924 73.0461Z" fill="#414141"/>
<path fill-rule="evenodd" clip-rule="evenodd" d="M17.6782 42.7573L19.8965 44.4821L19.6529 48.3108C19.6461 48.4056 19.5242 48.435 19.4317 48.435C19.3414 48.4462 19.1496 48.2544 19.0841 48.1911L18.1679 47.2723C17.8858 46.9969 17.5789 46.6718 17.5901 46.2723L17.6782 42.7573Z" fill="white"/>
<path fill-rule="evenodd" clip-rule="evenodd" d="M18.3738 44.2338L18.3196 46.2949C18.3174 46.3581 18.4393 46.5207 18.683 46.7577L18.9944 47.0692L19.1389 44.8208L18.3738 44.2338ZM19.43 49.1755C19.078 49.1755 18.8049 48.9565 18.5611 48.7195L17.6426 47.8007C17.338 47.4959 16.8279 46.988 16.8482 46.2588L16.9408 42.7416C16.9476 42.4662 17.1123 42.2179 17.3605 42.0982C17.6088 41.9786 17.9022 42.0102 18.1233 42.1795L20.3417 43.9042C20.5335 44.0532 20.6418 44.2857 20.626 44.5295L20.3823 48.365C20.3575 48.7398 20.0709 49.1394 19.4774 49.1777C19.4616 49.1755 19.4458 49.1755 19.43 49.1755Z" fill="#414141"/>
<path fill-rule="evenodd" clip-rule="evenodd" d="M20.7625 48.6743L23.3218 50.3787L23.306 53.6837C23.306 53.765 23.2766 53.8349 23.2202 53.8891C23.1638 53.9456 23.0938 53.9704 23.0148 53.9704H22.6944C22.1798 53.9636 21.7398 53.765 21.4035 53.3767L21.1665 53.108C20.8799 52.7762 20.74 52.3969 20.7422 51.959L20.7625 48.6743Z" fill="white"/>
<path fill-rule="evenodd" clip-rule="evenodd" d="M21.4863 50.0423L21.4773 51.9657C21.475 52.2275 21.554 52.4285 21.721 52.6226L21.958 52.898C22.125 53.0922 22.3304 53.205 22.5718 53.2299L22.5876 50.7692L21.4863 50.0423ZM23.0119 53.2412H23.0141C23.0119 53.2412 23.0119 53.2412 23.0119 53.2412ZM23.0141 54.7108C23.0119 54.7108 23.0074 54.7108 23.0006 54.7108H22.6892C21.9603 54.704 21.3239 54.4038 20.8477 53.862L20.6107 53.5933C20.2068 53.1238 20.0036 52.5752 20.0059 51.9634L20.0262 48.6765C20.0285 48.4011 20.1797 48.1573 20.4166 48.0263C20.6536 47.9022 20.9425 47.9135 21.1681 48.0647L23.7273 49.7691C23.9326 49.9068 24.0568 50.1326 24.0568 50.3809L24.041 53.6927C24.041 53.9613 23.9304 54.2232 23.7318 54.4173C23.5445 54.6047 23.2872 54.7108 23.0141 54.7108Z" fill="#414141"/>
<path fill-rule="evenodd" clip-rule="evenodd" d="M25.0513 55.835L27.615 57.7832L27.5992 60.8443C27.5992 60.9188 27.5675 60.9933 27.5111 61.0498C27.4524 61.1062 27.3848 61.1311 27.3035 61.1311H26.9853C26.4753 61.1243 26.033 60.9188 25.6967 60.5306L25.4598 60.2619C25.1709 59.9301 25.0332 59.5553 25.0332 59.1128L25.0513 55.835Z" fill="white"/>
<path fill-rule="evenodd" clip-rule="evenodd" d="M25.7787 57.3091L25.7696 59.1219C25.7674 59.3838 25.8419 59.5847 26.0134 59.7834L26.2481 60.052C26.4196 60.2529 26.6205 60.359 26.8665 60.3906L26.8778 58.1467L25.7787 57.3091ZM27.3043 60.3952H27.3088C27.3065 60.3952 27.3065 60.3952 27.3043 60.3952ZM26.8619 60.8376V60.8444V60.8376ZM27.3088 61.8693C27.3043 61.8693 27.302 61.8693 27.2952 61.8693L26.9838 61.8625C26.2526 61.8558 25.6162 61.5623 25.1445 61.0137L24.9099 60.7451C24.5036 60.2823 24.3005 59.7337 24.3028 59.1129L24.3186 55.8282C24.3208 55.5528 24.4788 55.2977 24.7293 55.1713C24.9753 55.0471 25.2732 55.0787 25.4988 55.2458L28.058 57.2008C28.2431 57.3385 28.3492 57.5575 28.3492 57.7877L28.3311 60.8489C28.3311 61.1108 28.2228 61.3749 28.0309 61.5668C27.8391 61.7564 27.5818 61.8693 27.3088 61.8693Z" fill="#414141"/>
<path fill-rule="evenodd" clip-rule="evenodd" d="M29.2773 64.1177L31.8365 65.9666L31.6176 68.6146C31.6018 68.7636 31.4754 68.8832 31.3242 68.8765H30.9812C30.4667 68.8697 30.0289 68.671 29.6903 68.2827L29.6791 68.2647C29.3947 67.9464 29.2932 67.0411 29.2932 66.61L29.2773 64.1177Z" fill="white"/>
<path fill-rule="evenodd" clip-rule="evenodd" d="M30.0209 65.5626L30.0277 66.6056C30.0299 67.0864 30.145 67.6621 30.2398 67.793C30.4271 68.012 30.6483 68.1226 30.9146 68.1429L31.0658 66.3256L30.0209 65.5626ZM31.3276 69.6171C31.3253 69.6171 31.3231 69.6171 31.3208 69.6171L30.98 69.6103C30.2556 69.6103 29.6192 69.3168 29.143 68.766C28.581 68.1294 28.5653 66.7681 28.563 66.6123L28.5449 64.1268C28.5427 63.8447 28.6962 63.5895 28.9421 63.4654C29.1859 63.3412 29.486 63.3593 29.7072 63.5218L32.2686 65.3775C32.4763 65.5287 32.5914 65.7771 32.5688 66.0344L32.3499 68.6825C32.2957 69.2175 31.8579 69.6171 31.3276 69.6171Z" fill="#414141"/>
<path fill-rule="evenodd" clip-rule="evenodd" d="M24.5764 46.7871C24.0551 46.8368 23.6308 46.8932 23.2855 46.9677C22.4212 47.1551 21.3402 47.4734 20.7986 48.1868C20.2727 48.8798 20.205 52.1171 20.1215 53.1284C20.02 48.8437 19.1714 46.5252 24.5764 46.7871Z" fill="white"/>
<path fill-rule="evenodd" clip-rule="evenodd" d="M20.1213 53.8665C20.1123 53.8665 20.1055 53.8665 20.0988 53.8665C19.7084 53.8485 19.3969 53.5347 19.3879 53.1487C19.3766 52.6362 19.354 52.1553 19.3292 51.6993C19.2367 49.6924 19.16 48.1122 20.198 47.076C21.0127 46.2633 22.3803 45.9517 24.61 46.0511C24.9959 46.0691 25.2982 46.3829 25.3095 46.7622C25.3231 47.1505 25.0342 47.4733 24.6528 47.5117C24.1631 47.5681 23.766 47.6178 23.441 47.6877C23.0461 47.7758 21.8432 48.0309 21.3873 48.6381C21.0917 49.0761 20.9585 51.4758 20.9066 52.3743C20.8863 52.7107 20.8728 52.9929 20.8547 53.1915C20.8209 53.5731 20.5027 53.8665 20.1213 53.8665Z" fill="#414141"/>
<path fill-rule="evenodd" clip-rule="evenodd" d="M35.1136 31.7114L37.1401 31.9439C37.3229 31.9619 37.4696 32.0568 37.5666 32.2125C38.1714 33.181 34.3869 36.9736 33.7166 37.7547L31.25 37.2558C32.085 35.3505 33.026 33.5693 34.5697 31.9687C34.7254 31.8062 34.8947 31.6933 35.1136 31.7114Z" fill="white"/>
<path fill-rule="evenodd" clip-rule="evenodd" d="M32.2997 36.7163L33.4507 36.9466C33.5206 36.8721 33.5996 36.7908 33.6876 36.696C35.976 34.2218 36.7027 33.1292 36.8606 32.6483L35.1229 32.4541C33.8072 33.8245 32.9677 35.2918 32.2997 36.7163ZM33.7169 38.4907C33.665 38.4907 33.6199 38.4839 33.568 38.4727L31.1037 37.9737C30.8893 37.9308 30.702 37.7864 30.5981 37.5922C30.4966 37.3913 30.4875 37.161 30.5778 36.9601C31.3744 35.1361 32.3449 33.2172 34.0397 31.4563C34.3917 31.0997 34.7799 30.9371 35.1906 30.9868L37.2172 31.2125C37.6256 31.2554 37.9709 31.4744 38.1853 31.8175C38.8691 32.9169 37.5692 34.6597 34.7641 37.6916C34.5407 37.9286 34.3714 38.116 34.2699 38.2356C34.1322 38.3982 33.9268 38.4907 33.7169 38.4907Z" fill="#414141"/>
<path fill-rule="evenodd" clip-rule="evenodd" d="M27.7969 54.029C26.6144 54.1532 25.143 54.5234 24.6059 55.5664C24.2493 56.273 24.1681 59.1152 24.071 60.0656C23.9491 56.9593 23.0961 53.8033 27.7969 54.029Z" fill="white"/>
<path fill-rule="evenodd" clip-rule="evenodd" d="M24.0729 60.8017C24.0639 60.8017 24.0549 60.8017 24.0458 60.8017C23.6599 60.7904 23.353 60.4834 23.3349 60.0951C23.3191 59.7272 23.2989 59.3569 23.2741 58.9957C23.1567 57.2597 23.0371 55.465 24.1541 54.3227C24.9124 53.5484 26.1265 53.2052 27.8303 53.2933C28.2162 53.3113 28.5186 53.6229 28.5299 54.0044C28.5389 54.3927 28.2546 54.7155 27.8732 54.7606C26.4898 54.9051 25.5623 55.3115 25.2599 55.9029C25.0591 56.2845 24.9372 58.1582 24.8785 59.0657C24.8492 59.5037 24.8244 59.8897 24.7951 60.1471C24.759 60.5196 24.443 60.8017 24.0729 60.8017Z" fill="#414141"/>
<path fill-rule="evenodd" clip-rule="evenodd" d="M31.3494 62.5624C28.4969 62.7497 28.4789 63.9552 28.2938 66.373C28.2329 63.4134 27.9711 62.4382 31.3494 62.5624Z" fill="white"/>
<path fill-rule="evenodd" clip-rule="evenodd" d="M28.2997 67.0186C28.2952 67.0186 28.2907 67.0186 28.2817 67.0186C27.8912 67.0118 27.5685 66.7815 27.5618 66.3865L27.5482 65.8424C27.5076 64.3435 27.4805 63.2621 28.2072 62.5442C28.7849 61.9708 29.6944 61.7631 31.3825 61.8263C31.7706 61.8444 32.082 62.165 32.0888 62.551C32.0933 62.9438 31.7909 63.2689 31.4005 63.2937C29.2565 63.4314 29.2137 63.9755 29.0444 66.2556C29.0422 66.2804 29.0376 66.312 29.0354 66.3436L29.0309 66.3549C28.9519 66.7048 28.6495 67.0186 28.2997 67.0186Z" fill="#414141"/>
<path fill-rule="evenodd" clip-rule="evenodd" d="M43.923 30.9055C44.1419 31.5241 44.9746 33.1111 43.7988 34.5288C44.7015 33.5919 45.5027 33.4791 46.4844 33.4858C44.9768 33.1066 44.5233 31.8063 43.923 30.9055Z" fill="white"/>
<path fill-rule="evenodd" clip-rule="evenodd" d="M43.8 35.2667C43.6262 35.2667 43.4501 35.2035 43.3125 35.0794C43.0168 34.8175 42.983 34.3683 43.2358 34.0612C43.9512 33.1989 43.6758 32.2733 43.3306 31.3996L43.2335 31.1558C43.1094 30.7991 43.2628 30.4199 43.5923 30.2506C43.9263 30.0812 44.3281 30.1874 44.5379 30.5012C44.6598 30.6818 44.7771 30.8827 44.8967 31.0881C45.3346 31.8376 45.7476 32.5374 46.6683 32.7677C47.0271 32.8625 47.2641 33.2056 47.2144 33.5736C47.167 33.9416 46.8579 34.217 46.4878 34.217C45.5693 34.2802 45.0118 34.3367 44.3303 35.0365C44.1859 35.1922 43.9918 35.2667 43.8 35.2667Z" fill="#414141"/>
<path fill-rule="evenodd" clip-rule="evenodd" d="M57.2387 33.05C56.2119 33.5941 55.8486 33.9553 53.2285 34.1494C55.3453 34.3617 54.6457 35.0728 54.8849 36.3618C54.9504 34.33 56.1578 33.9801 57.2387 33.05Z" fill="white"/>
<path fill-rule="evenodd" clip-rule="evenodd" d="M54.884 37.0911C54.532 37.0911 54.2251 36.8405 54.1619 36.4906C54.0942 36.1226 54.0897 35.7908 54.0897 35.5041C54.0874 35.3483 54.0874 35.1361 54.0626 35.0796C54.0536 35.0796 53.8866 34.9555 53.1577 34.8787C52.7763 34.8471 52.4897 34.522 52.4942 34.1405C52.4987 33.759 52.7966 33.4475 53.1757 33.4159C55.3287 33.2601 55.789 33.005 56.5473 32.5851L56.8971 32.3977C57.2266 32.2216 57.6373 32.3232 57.8472 32.6303C58.0593 32.9418 58.0051 33.3617 57.723 33.6032C57.4793 33.8087 57.2288 33.996 56.9806 34.1789C56.1591 34.7794 55.6626 35.1406 55.622 36.3845C55.6107 36.7547 55.3173 37.0595 54.9405 37.0911C54.9179 37.0911 54.9021 37.0911 54.884 37.0911Z" fill="#414141"/>
</svg>
