<svg width="277" height="215" viewBox="0 0 277 215" fill="none" xmlns="http://www.w3.org/2000/svg">
<ellipse rx="75.8448" ry="42.7252" transform="matrix(-0.987042 0.160465 0.160465 0.987042 116.903 106.658)" fill="#E8E8E8"/>
<path fill-rule="evenodd" clip-rule="evenodd" d="M97.4707 10.2333C98.9293 10.004 100.423 10.1676 101.797 10.7071L102.042 10.8171L113.035 18.3758C112.273 18.0246 111.457 17.8067 110.622 17.7315C106.736 17.3696 102.588 19.6898 99.6954 22.0777C94.3572 26.4805 89.8258 33.7589 88.9796 40.6712C88.617 43.6492 88.9198 47.1606 90.9708 49.5041L91.1545 49.7046L80.1623 42.146C79.9745 41.9464 79.7972 41.7371 79.6313 41.5189C77.2259 38.322 77.6398 33.4343 78.6573 29.8052C80.8281 22.0906 88.5881 11.4443 97.4707 10.2333Z" fill="white"/>
<path fill-rule="evenodd" clip-rule="evenodd" d="M97.3108 9.07042C98.1628 8.95076 99.0263 8.93686 99.8817 9.02896C100.695 9.11251 101.492 9.31297 102.248 9.62425L102.515 9.7452L102.697 9.85028L113.694 17.4093L112.563 19.4377C112.238 19.2889 111.902 19.1668 111.557 19.0724C111.216 18.9815 110.867 18.9205 110.515 18.8901C108.901 18.7893 107.287 19.0685 105.801 19.7053C103.858 20.5158 102.05 21.6176 100.439 22.9726C97.6572 25.3191 95.3093 28.1358 93.5023 31.2942C91.7632 34.2113 90.6194 37.4438 90.1369 40.8053C89.9216 42.371 89.9722 43.9619 90.2864 45.5109C90.5308 46.6934 91.0673 47.796 91.8472 48.7181L92.0313 48.914L90.532 50.6638L79.4286 43.0193C79.3091 42.9078 79.1972 42.7884 79.094 42.6617L78.7259 42.2109C77.561 40.5664 76.8842 38.6265 76.7735 36.6145C76.6235 34.2099 76.8926 31.7975 77.5688 29.485C78.8002 25.1019 81.7613 19.8397 85.688 15.7333C89.0049 12.2816 93.0325 9.65254 97.3477 9.06426L97.3108 9.07042ZM99.6349 11.3449C98.9649 11.2757 98.2889 11.2893 97.6222 11.3852C93.8847 11.8968 90.319 14.2495 87.3364 17.3739C83.675 21.1657 80.9179 26.0857 79.7809 30.1361C79.1803 32.1764 78.9367 34.305 79.0609 36.4281C79.1379 38.0033 79.6574 39.525 80.5599 40.8186L80.9113 41.2501L88.0448 46.1498L88.0146 46.0159C87.6402 44.2104 87.5752 42.3543 87.8228 40.527C88.341 36.856 89.5825 33.3242 91.4755 30.1362C93.4236 26.7447 95.952 23.7213 98.9457 21.2038C100.746 19.6935 102.766 18.4664 104.936 17.5645C106.056 17.1096 107.23 16.7986 108.429 16.6391L101.486 11.8632L101.341 11.7973C100.797 11.5644 100.223 11.412 99.6349 11.3449Z" fill="#3C3C3C"/>
<path fill-rule="evenodd" clip-rule="evenodd" d="M107.84 12.072C110.021 10.9983 112.354 10.2652 114.757 9.89829C117.184 9.51674 119.668 9.78997 121.953 10.6897L122.361 10.8671L129.627 15.868C128.366 15.2844 127.013 14.9243 125.628 14.8035C119.166 14.2016 112.27 18.0594 107.46 22.0325C98.6024 29.354 91.0444 41.4584 89.6358 52.9564C89.0317 57.8971 89.5041 63.7392 92.9512 67.6444L93.2564 67.9724L85.9899 62.976C85.6786 62.6465 85.3849 62.3009 85.1101 61.9404C81.1069 56.6353 81.7918 48.4948 83.4762 42.456C86.8073 30.6249 96.1669 17.9373 107.236 12.3644L107.84 12.072Z" fill="white"/>
<path fill-rule="evenodd" clip-rule="evenodd" d="M107.353 11.0152C108.491 10.4787 109.661 10.0125 110.856 9.61897C112.075 9.21526 113.328 8.92421 114.599 8.74958C115.954 8.55887 117.327 8.53499 118.688 8.67846C119.965 8.80851 121.216 9.12445 122.401 9.61624L122.84 9.80963C122.933 9.85099 123.02 9.90519 123.099 9.9707L130.288 14.9157C130.525 15.0803 130.692 15.3269 130.757 15.6077C130.821 15.8885 130.78 16.1833 130.639 16.435C130.499 16.6868 130.27 16.8774 129.997 16.9698C129.724 17.0623 129.426 17.05 129.162 16.9354C128.581 16.6781 127.983 16.4625 127.371 16.2903C126.761 16.1305 126.138 16.0221 125.51 15.9662C122.808 15.7162 120.007 16.3109 117.319 17.3816C114.011 18.7577 110.934 20.6308 108.192 22.936C103.495 26.8935 99.5291 31.6452 96.4761 36.9745C93.526 42.0969 91.4431 47.6688 90.7832 53.0858C90.4141 55.7748 90.5048 58.5069 91.0512 61.1656C91.4706 63.2507 92.4088 65.1965 93.779 66.8234L94.0838 67.1558C94.2668 67.3745 94.3633 67.6526 94.3551 67.9375C94.347 68.2224 94.2348 68.4944 94.0397 68.7023C93.8446 68.9101 93.5801 69.0393 93.2962 69.0655C93.0123 69.0917 92.7285 69.0131 92.4987 68.8444L85.1844 63.8216C85.011 63.6599 84.8489 63.4864 84.6993 63.3024L84.1292 62.5953C82.2081 60.0443 81.2888 56.9285 81.019 53.6874C80.7972 49.7903 81.2551 45.8843 82.3722 42.1441C84.1155 35.9331 87.4874 29.4927 91.8834 23.9269C96.0581 18.6338 101.183 14.1188 106.734 11.3245L107.376 11.0079L107.353 11.0152ZM111.579 11.8348C110.471 12.2031 109.385 12.6367 108.328 13.1331L107.743 13.4178C102.518 16.0519 97.6703 20.3304 93.6872 25.3802C89.4833 30.6982 86.2657 36.8515 84.5996 42.7739C83.5676 46.2711 83.1529 49.9213 83.3742 53.5608C83.6039 56.3907 84.3935 59.0834 86.0179 61.2572L86.7222 62.102L89.4369 63.9675C89.1647 63.226 88.9414 62.4676 88.7683 61.697C88.1671 58.7811 88.0637 55.7845 88.4624 52.8342C89.1664 47.0896 91.3502 41.2173 94.4471 35.8435C97.6393 30.2683 101.785 25.2961 106.696 21.1532C109.626 18.6946 112.914 16.6961 116.446 15.2264C118.917 14.1896 121.563 13.6296 124.243 13.5758L121.808 11.9003L121.501 11.7671C120.524 11.3618 119.493 11.1 118.441 10.99C117.266 10.8691 116.081 10.8926 114.911 11.0599C113.779 11.2157 112.664 11.475 111.579 11.8348Z" fill="#3C3C3C"/>
<path fill-rule="evenodd" clip-rule="evenodd" d="M114.634 16.8677C101.601 23.0653 90.1144 39.7568 88.9673 54.1416C87.8202 68.5264 97.4607 75.1663 110.476 68.9673C123.491 62.7682 134.995 46.0782 136.138 31.6885C137.281 17.2988 127.663 10.6652 114.634 16.8677Z" fill="white"/>
<path fill-rule="evenodd" clip-rule="evenodd" d="M115.135 17.921C108.809 20.9261 102.843 26.5082 98.3068 33.0969C93.7709 39.6855 90.6862 47.2552 90.1353 54.2181C89.8212 58.1885 90.3562 61.5187 91.5774 64.0868C92.3372 65.7863 93.5504 67.2438 95.0841 68.2995C96.6177 69.3552 98.4127 69.9682 100.272 70.0714C103.103 70.2954 106.405 69.6089 109.997 67.9022C116.318 64.8922 122.289 59.3105 126.825 52.7218C131.361 46.1331 134.441 38.5676 134.997 31.6005C135.311 27.6301 134.771 24.2996 133.55 21.7315C132.792 20.0317 131.58 18.5739 130.047 17.5188C128.513 16.4637 126.719 15.8522 124.86 15.7517C122.029 15.5277 118.727 16.2098 115.135 17.921ZM96.3882 31.775C101.138 24.8949 107.432 19.0077 114.136 15.8148C118.114 13.9255 121.816 13.1754 125.044 13.4307C127.311 13.5622 129.499 14.3129 131.369 15.6011C133.24 16.8892 134.721 18.6656 135.652 20.7368C137.044 23.6631 137.666 27.3946 137.314 31.7838C136.728 39.1884 133.493 47.1634 128.747 54.0665C124 60.9695 117.702 66.8338 110.999 70.0222C107.021 71.9115 103.319 72.6662 100.091 72.4108C97.823 72.2801 95.6339 71.5297 93.7626 70.2414C91.8913 68.9531 90.4094 67.1763 89.4782 65.1044C88.0861 62.1735 87.4692 58.4469 87.8168 54.0528C88.3932 46.6521 91.6279 38.677 96.3837 31.7747L96.3882 31.775Z" fill="#3C3C3C"/>
<path fill-rule="evenodd" clip-rule="evenodd" d="M170.403 49.6637C158.793 44.5186 144.365 59.6895 139.198 70.4684C135.895 77.3587 133.043 88.4704 138.859 94.8305C136.084 92.9194 99.1132 67.9185 97.9018 66.4304C90.3836 57.2193 98.8532 39.5545 106.527 31.2006C111.739 25.5315 121.652 18.3388 129.612 21.6895L170.403 49.6637Z" fill="#2B7CFF"/>
<path fill-rule="evenodd" clip-rule="evenodd" d="M169.932 50.7264C165.308 48.6782 160.107 50.2076 155.298 53.4144C148.819 57.7361 143.093 65.0378 140.251 70.9715C138.426 74.7725 136.746 79.8911 136.678 84.7109C136.627 88.217 137.443 91.5512 139.72 94.0215L138.22 95.7758L134.747 93.4104C124.846 86.6817 98.156 68.5392 97.0096 67.147C93.4715 62.7856 93.1861 56.8178 94.6788 50.7366C96.5536 43.0938 101.25 35.2253 105.687 30.3974C108.76 27.0534 113.424 23.2003 118.403 21.1499C122.272 19.5558 126.346 19.0301 130.078 20.5996L130.287 20.7159L171.082 48.686L169.951 50.7098L169.932 50.7264ZM153.996 51.4701C157.573 49.0866 161.383 47.5423 165.128 47.4576L129.061 22.7322C125.985 21.4821 122.567 21.96 119.262 23.3175C114.63 25.2185 110.26 28.8409 107.376 31.9822C103.157 36.5734 98.7099 44.0489 96.9161 51.299C95.5791 56.7304 95.7791 62.0022 98.7896 65.6915C99.6876 66.7829 124.891 83.9281 135.262 90.9705C134.589 88.9405 134.275 86.8085 134.336 84.6707C134.411 79.4796 136.2 74.0069 138.14 69.9564C141.142 63.718 147.176 56.0279 154.005 51.4709L153.996 51.4701Z" fill="#3C3C3C"/>
<path fill-rule="evenodd" clip-rule="evenodd" d="M170.402 49.6625C158.433 44.353 143.397 60.5006 138.39 72.2445L137.746 73.8534L97.4306 45.944L97.7479 45.1437C102.378 33.5241 116.906 17.4905 128.875 21.4214C131.223 22.1876 167.232 47.4662 170.402 49.6625Z" fill="white"/>
<path fill-rule="evenodd" clip-rule="evenodd" d="M169.941 50.735L169.778 50.6632C164.35 48.3518 158.144 50.8766 152.66 55.345C147.135 59.9623 142.695 65.7392 139.654 72.2654L138.828 74.2861L137.085 74.8148L96.7693 46.91L96.3488 45.5162L96.6661 44.716C99.3094 38.0819 105.085 30.0448 111.818 24.9179C117.331 20.7193 123.509 18.4326 129.235 20.3096C131.366 21.0088 157.087 38.9522 167.232 46.0357L171.063 48.7015L169.941 50.7305L169.941 50.735ZM151.192 53.5464C155.558 49.9645 160.445 47.535 165.201 47.4577C154.703 40.1331 130.279 23.1086 128.51 22.5288C123.62 20.922 118.175 23.0082 113.229 26.7618C106.861 31.6183 101.356 39.2143 98.854 45.5013L137.208 72.0492L137.515 71.3252C140.164 65.3672 145.257 58.3873 151.192 53.5464Z" fill="#3C3C3C"/>
<path fill-rule="evenodd" clip-rule="evenodd" d="M157.401 50.5302C146.089 55.9026 136.148 70.3717 135.157 82.8416C134.166 95.3114 142.516 101.065 153.815 95.6912C165.113 90.3177 175.067 75.8496 176.058 63.3798C177.049 50.91 168.7 45.1567 157.401 50.5302Z" fill="white"/>
<path fill-rule="evenodd" clip-rule="evenodd" d="M157.901 51.5762C152.447 54.1696 147.294 58.9907 143.373 64.6803C139.453 70.3699 136.795 76.9031 136.314 82.9282C136.044 86.3398 136.507 89.2017 137.553 91.4023C138.196 92.8554 139.227 94.1028 140.534 95.0065C141.841 95.9102 143.373 96.4351 144.959 96.5231C147.389 96.7154 150.221 96.1277 153.309 94.6577C158.767 92.0647 163.916 87.2432 167.836 81.5536C171.757 75.8641 174.414 69.3309 174.891 63.3054C175.161 59.8893 174.702 57.0323 173.652 54.8268C173.009 53.3773 171.976 52.1342 170.669 51.2351C169.363 50.3361 167.832 49.8163 166.248 49.7333C163.818 49.5411 160.987 50.1288 157.899 51.5988L157.901 51.5762ZM141.455 63.3585C145.587 57.3365 151.066 52.2509 156.901 49.4746C160.371 47.8217 163.612 47.1666 166.434 47.3898C168.427 47.504 170.351 48.1631 171.996 49.2952C173.64 50.4273 174.942 51.9889 175.76 53.8099C176.977 56.3732 177.518 59.6313 177.216 63.4485C176.706 69.8931 173.889 76.8309 169.76 82.8123C165.63 88.7937 160.153 93.9203 154.313 96.6962C150.844 98.3491 147.603 99.0043 144.781 98.781C142.787 98.6668 140.864 98.0078 139.219 96.8757C137.574 95.7436 136.272 94.1819 135.454 92.3609C134.233 89.7972 133.692 86.5392 133.994 82.722C134.506 76.3002 137.319 69.3621 141.477 63.3602L141.455 63.3585Z" fill="#3C3C3C"/>
<path fill-rule="evenodd" clip-rule="evenodd" d="M178.573 50.7255C165.166 44.7943 148.553 62.291 142.575 74.729C138.771 82.6726 135.488 95.5053 142.168 102.813C138.902 100.569 133.894 97.6512 132.4 95.6646C123.934 84.3876 134.458 63.4525 144.198 53.7518C150.107 47.8703 160.712 40.8276 169.262 44.3972L178.573 50.7255Z" fill="white"/>
<path fill-rule="evenodd" clip-rule="evenodd" d="M178.107 51.7874C172.703 49.4008 166.648 51.1711 161.054 54.9008C153.554 59.9036 146.93 68.3587 143.623 75.2306C141.511 79.6301 139.567 85.5623 139.488 91.1521C139.433 95.2292 140.385 99.1366 143.045 102.041C143.247 102.253 143.362 102.534 143.367 102.828C143.372 103.121 143.265 103.406 143.069 103.624C142.873 103.843 142.602 103.98 142.31 104.007C142.018 104.035 141.726 103.951 141.492 103.773C140.654 103.194 139.739 102.6 138.803 101.986C135.883 100.082 132.72 98.0223 131.485 96.3782C127.504 91.0748 127.425 83.8761 129.468 76.6276C131.994 67.6351 137.821 58.4911 143.391 52.9411C146.838 49.4997 151.887 45.6589 157.225 43.6731C161.385 42.1202 165.743 41.6804 169.729 43.3518C169.829 43.3935 169.922 43.4482 170.007 43.5143L179.225 49.7581C179.47 49.9186 179.645 50.1655 179.715 50.4495C179.786 50.7334 179.746 51.0335 179.605 51.2897C179.464 51.546 179.232 51.7397 178.954 51.8319C178.676 51.9242 178.374 51.9083 178.107 51.7874ZM159.761 52.9572C164.018 50.1196 168.561 48.3203 173.012 48.3641L168.736 45.4726C165.392 44.1016 161.654 44.5132 158.04 45.86C153.043 47.7321 148.298 51.343 145.038 54.5906C139.71 59.8967 134.141 68.6485 131.719 77.2546C129.858 83.8645 129.871 90.3505 133.347 94.979C134.143 96.0397 136.227 97.5016 138.452 98.9701C137.516 96.4611 137.077 93.794 137.159 91.1175C137.24 85.156 139.294 78.8697 141.525 74.2301C144.978 67.0479 151.907 58.1951 159.761 52.9572Z" fill="#3C3C3C"/>
<path fill-rule="evenodd" clip-rule="evenodd" d="M163.577 51.7398C150.542 57.9645 139.053 74.6285 137.911 89.0182C136.768 103.408 146.404 110.043 159.419 103.844C172.434 97.6448 183.938 80.9547 185.081 66.5651C186.224 52.1754 176.592 45.5407 163.573 51.7394L163.577 51.7398ZM162.639 59.8783C171.65 55.6028 178.324 60.1714 177.537 70.1268C176.749 80.0822 168.8 91.6297 159.786 95.9322C150.773 100.235 144.1 95.6391 144.888 85.6837C145.676 75.7283 153.627 64.1493 162.622 59.8544L162.639 59.8783Z" fill="white"/>
<path fill-rule="evenodd" clip-rule="evenodd" d="M164.09 52.7758C157.769 55.7812 151.798 61.363 147.262 67.9517C142.726 74.5404 139.641 82.1055 139.09 89.073C138.776 93.0434 139.311 96.3736 140.532 98.9417C141.29 100.642 142.503 102.1 144.037 103.156C145.572 104.211 147.368 104.822 149.227 104.922C152.058 105.146 155.36 104.464 158.952 102.753C165.273 99.7471 171.244 94.1654 175.78 87.5767C180.316 80.988 183.396 73.4179 183.952 66.4554C184.266 62.4849 183.726 59.1544 182.505 56.5863C181.747 54.8865 180.535 53.4288 179.002 52.3737C177.468 51.3186 175.674 50.707 173.815 50.6065C170.984 50.3825 167.682 51.0645 164.09 52.7758ZM145.33 66.6243C150.079 59.7441 156.374 53.8569 163.082 50.6644C167.055 48.7747 170.758 48.0246 173.985 48.28C176.253 48.4115 178.441 49.1621 180.311 50.4503C182.182 51.7385 183.663 53.5148 184.594 55.5861C185.991 58.5128 186.608 62.2394 186.26 66.6335C185.674 74.038 182.435 82.0082 177.693 88.9116C172.951 95.815 166.649 101.679 159.946 104.872C155.968 106.761 152.266 107.511 149.038 107.256C146.77 107.125 144.581 106.375 142.709 105.087C140.838 103.798 139.356 102.021 138.425 99.9495C137.032 97.0232 136.411 93.2917 136.763 88.9025C137.349 81.4979 140.588 73.5277 145.33 66.6243ZM163.082 60.9315L163.147 60.905C165.567 59.7359 167.789 59.2858 169.691 59.4364C170.904 59.4969 172.076 59.8899 173.08 60.5725C174.084 61.2551 174.88 62.2007 175.382 63.3059L175.409 63.3715C176.226 65.0823 176.589 67.3241 176.376 70.0056C175.999 74.7827 173.888 79.9579 170.792 84.4611C167.696 88.9642 163.61 92.7859 159.288 94.843C156.863 96.0117 154.646 96.4621 152.743 96.3116C151.544 96.2354 150.386 95.8499 149.38 95.1929L149.328 95.157C148.344 94.4667 147.558 93.5304 147.048 92.4416L147.022 92.376C146.204 90.6652 145.846 88.4238 146.058 85.7423C146.435 80.9877 148.525 75.8381 151.602 71.347L151.638 71.291C154.715 66.7999 158.786 62.9951 163.082 60.9315ZM149.72 69.9692C153.025 65.1697 157.4 61.0806 162.072 58.8381L162.139 58.8025C164.967 57.4617 167.581 56.9248 169.876 57.1063C171.495 57.2024 173.057 57.736 174.396 58.6503C175.736 59.5645 176.802 60.825 177.481 62.2973L177.512 62.3633C178.508 64.4466 178.952 67.0893 178.709 70.1674C178.299 75.3457 176.044 80.9221 172.713 85.7513C169.382 90.5806 164.988 94.6908 160.298 96.9228C157.47 98.2636 154.851 98.8002 152.561 98.619C150.958 98.5095 149.411 97.9838 148.073 97.0939L148.003 97.0521C146.687 96.1323 145.636 94.8824 144.956 93.428L144.92 93.3617C143.924 91.2784 143.48 88.6357 143.723 85.5576C144.131 80.4019 146.385 74.8525 149.674 70.0336L149.72 69.9692Z" fill="#3C3C3C"/>
<path fill-rule="evenodd" clip-rule="evenodd" d="M166.53 54.3486C168.712 53.2767 171.045 52.5437 173.448 52.1749C175.874 51.7916 178.358 52.0633 180.643 52.9618L181.055 53.1441L188.317 58.1402C187.056 57.5586 185.703 57.1985 184.319 57.0756C177.857 56.4736 170.961 60.3315 166.151 64.3045C157.298 71.6265 149.735 83.7306 148.331 95.229C147.727 100.17 148.195 106.011 151.642 109.917L151.947 110.249L144.685 105.253C144.528 105.118 143.949 104.406 143.801 104.213C139.798 98.9074 140.482 90.7669 142.167 84.7281C145.498 72.8969 154.862 60.2098 165.931 54.6413L166.53 54.3486Z" fill="#2B7CFF"/>
<path fill-rule="evenodd" clip-rule="evenodd" d="M166.041 53.2957C167.18 52.762 168.35 52.2959 169.545 51.8995C170.764 51.4979 172.016 51.2069 173.288 51.0301C174.643 50.8419 176.015 50.818 177.376 50.959C178.654 51.0935 179.906 51.4094 181.094 51.8971L181.532 52.0905C181.622 52.1313 181.706 52.1821 181.783 52.2419L188.99 57.1973C189.236 57.3581 189.413 57.6065 189.483 57.8923C189.554 58.1781 189.513 58.48 189.369 58.737C189.226 58.9939 188.99 59.1868 188.71 59.2767C188.429 59.3665 188.125 59.3467 187.859 59.2211C187.28 58.9598 186.681 58.7442 186.068 58.5761C185.459 58.4118 184.836 58.3033 184.207 58.2519C181.505 57.9974 178.705 58.5921 176.016 59.6628C172.709 61.0389 169.631 62.912 166.89 65.2172C162.194 69.1758 158.23 73.9275 155.178 79.256C152.223 84.3825 150.144 89.9548 149.48 95.3669C149.113 98.056 149.204 100.788 149.748 103.447C150.165 105.54 151.102 107.495 152.474 109.131L152.779 109.459C152.962 109.678 153.059 109.956 153.05 110.241C153.042 110.526 152.93 110.798 152.735 111.006C152.54 111.214 152.275 111.343 151.992 111.369C151.708 111.395 151.424 111.317 151.194 111.148L143.881 106.112C143.715 105.958 143.558 105.794 143.411 105.621L142.837 104.913C140.921 102.358 139.996 99.2468 139.731 96.006C139.487 92.0973 139.925 88.176 141.024 84.4172C142.772 78.2065 146.144 71.7661 150.536 66.2C154.715 60.9118 159.835 56.3919 165.386 53.6022L166.029 53.2811L166.041 53.2957ZM170.267 54.1153C169.161 54.4848 168.077 54.9184 167.021 55.4139L166.436 55.7032C161.206 58.3324 156.363 62.6158 152.375 67.6606C148.175 72.9835 144.954 79.1319 143.285 85.0813C142.255 88.5789 141.841 92.2288 142.06 95.8683C142.289 98.7026 143.084 101.391 144.708 103.565L145.408 104.409L148.122 106.279C147.851 105.538 147.628 104.779 147.454 104.009C146.853 101.093 146.749 98.0964 147.148 95.1461C147.852 89.4015 150.036 83.5248 153.133 78.151C156.325 72.576 160.473 67.6053 165.386 63.4657C168.315 61.0045 171.603 59.0057 175.136 57.5389C177.606 56.5019 180.25 55.9417 182.929 55.8879L180.489 54.2119L180.187 54.0792C179.21 53.6739 178.179 53.4121 177.127 53.302C175.952 53.1812 174.766 53.2046 173.597 53.3719C172.468 53.5174 171.354 53.7632 170.268 54.1063L170.267 54.1153Z" fill="#3C3C3C"/>
<path fill-rule="evenodd" clip-rule="evenodd" d="M172.384 67.2731C163.373 71.5486 155.422 83.1185 154.634 93.0784C153.846 103.038 160.52 107.602 169.532 103.327C178.544 99.0514 186.495 87.4814 187.282 77.5216C188.07 67.5617 181.402 62.9799 172.384 67.2731Z" fill="white"/>
<path fill-rule="evenodd" clip-rule="evenodd" d="M172.837 68.346C168.542 70.4052 164.489 74.2114 161.399 78.7014C158.308 83.1914 156.192 88.3798 155.814 93.157C155.6 95.8611 155.96 98.0799 156.777 99.7907L156.808 99.8567C157.312 100.96 158.109 101.905 159.112 102.586C160.116 103.268 161.288 103.661 162.499 103.722C164.402 103.872 166.607 103.407 169.043 102.258C173.366 100.196 177.447 96.3785 180.547 91.8757C183.648 87.3729 185.754 82.1928 186.132 77.4201C186.346 74.716 185.986 72.4972 185.169 70.7819L185.138 70.7204C184.63 69.632 183.845 68.6959 182.862 68.0054L182.811 67.965C181.805 67.3095 180.646 66.9257 179.447 66.8509C177.545 66.7004 175.339 67.1654 172.903 68.315L172.837 68.346ZM159.48 77.3841C162.781 72.5797 167.16 68.4955 171.828 66.2482L171.895 66.2126C174.723 64.8717 177.337 64.3393 179.631 64.5209C181.233 64.6309 182.778 65.1547 184.115 66.0411L184.184 66.0874C185.501 67.0083 186.553 68.258 187.236 69.7119L187.272 69.7782C188.264 71.8611 188.713 74.5042 188.469 77.5823C188.059 82.7606 185.803 88.3416 182.473 93.1708C179.142 98.0001 174.745 102.083 170.058 104.338C167.23 105.679 164.616 106.211 162.321 106.03C160.703 105.934 159.14 105.402 157.801 104.488C156.462 103.575 155.395 102.315 154.716 100.843L154.68 100.777C153.689 98.6893 153.24 96.0462 153.483 92.9726C153.878 87.8068 156.139 82.2262 159.465 77.3966L159.48 77.3841Z" fill="#3C3C3C"/>
<path fill-rule="evenodd" clip-rule="evenodd" d="M158.409 103.545L151.142 98.5486C164.769 107.495 188.729 73.9543 177.197 62.8383L176.247 62.0603C183.654 67.1812 190.25 69.4671 186.273 82.7573C182.484 95.5046 167.663 109.624 158.409 103.545Z" fill="#2B7CFF"/>
<path fill-rule="evenodd" clip-rule="evenodd" d="M157.7 104.471C155.333 102.847 152.765 101.197 150.476 99.5056C150.219 99.3325 150.042 99.0645 149.982 98.7604C149.923 98.4564 149.987 98.1412 150.16 97.8843C150.333 97.6274 150.601 97.4497 150.905 97.3904C151.21 97.3312 151.525 97.3951 151.782 97.5682C155.339 99.9084 159.8 98.9099 164.052 96.0855C167.026 94.0321 169.652 91.5163 171.831 88.6333C174.14 85.6764 176.012 82.4035 177.39 78.9149C179.676 72.9554 179.904 67.1007 176.421 63.7051L175.509 62.9618C175.287 62.7645 175.148 62.49 175.122 62.1941C175.095 61.8983 175.182 61.6035 175.366 61.3698C175.549 61.1361 175.815 60.9812 176.109 60.9366C176.402 60.8921 176.702 60.9613 176.947 61.13C177.709 61.6438 178.528 62.1893 179.326 62.7104C186.05 67.1062 191.17 70.4499 187.39 83.0844C186.384 86.3274 184.918 89.4094 183.037 92.2362C180.192 96.546 176.466 100.46 172.549 103.011C168.498 105.652 164.209 106.886 160.398 105.742C159.468 105.464 158.584 105.051 157.773 104.518L157.709 104.472L157.7 104.471ZM157.052 101.187L159.062 102.57C159.677 102.977 160.349 103.291 161.056 103.503C164.158 104.429 167.769 103.345 171.27 101.06C174.915 98.6863 178.402 95.0349 181.079 90.9521C182.842 88.3168 184.219 85.4435 185.17 82.419C187.921 73.2176 185.208 69.6698 180.782 66.4899C182.008 70.3191 181.395 75.0323 179.584 79.7459C178.123 83.4476 176.139 86.9207 173.692 90.0593C171.355 93.1402 168.539 95.8265 165.351 98.0158C162.607 99.835 159.776 100.99 157.039 101.186L157.052 101.187Z" fill="#3C3C3C"/>
<path fill-rule="evenodd" clip-rule="evenodd" d="M183.51 67.0529L176.248 62.0568L175.989 61.8912L175.725 61.7297L175.455 61.5859L182.722 66.5823L182.992 66.7262L183.255 66.8876L183.51 67.0529Z" fill="white"/>
<path fill-rule="evenodd" clip-rule="evenodd" d="M176.906 61.098L184.151 66.0791C184.281 66.1619 184.394 66.2697 184.482 66.3963C184.57 66.5229 184.633 66.6658 184.665 66.8166C184.698 66.9675 184.7 67.1233 184.672 67.275C184.644 67.4268 184.587 67.5715 184.502 67.7008C184.418 67.83 184.309 67.9413 184.181 68.0281C184.053 68.1148 183.91 68.1754 183.758 68.2062C183.607 68.2371 183.451 68.2376 183.3 68.2078C183.148 68.178 183.004 68.1184 182.876 68.0326C182.6 67.852 182.339 67.7044 182.062 67.5418L174.843 62.5764C174.576 62.4206 174.381 62.1649 174.302 61.8657C174.223 61.5664 174.267 61.2482 174.423 60.9809C174.578 60.7136 174.834 60.5192 175.133 60.4404C175.433 60.3615 175.751 60.4048 176.018 60.5607C176.327 60.7179 176.624 60.8975 176.906 61.098Z" fill="#3C3C3C"/>
<path fill-rule="evenodd" clip-rule="evenodd" d="M173.322 59.1419C160.293 65.3399 148.803 82.031 147.66 96.4207C146.517 110.81 156.149 117.445 169.169 111.242C182.189 105.039 193.661 88.3507 194.826 73.9673C195.991 59.5839 186.337 52.9429 173.318 59.1416L173.322 59.1419ZM172.383 67.2804C181.4 63.0053 188.07 67.5691 187.282 77.529C186.494 87.4888 178.549 99.0321 169.531 103.334C160.513 107.637 153.845 103.041 154.633 93.0858C155.42 83.1304 163.371 71.5695 172.383 67.2804Z" fill="white"/>
<path fill-rule="evenodd" clip-rule="evenodd" d="M173.818 60.1932C167.496 63.2032 161.526 68.7805 156.99 75.3692C152.454 81.9579 149.369 89.5276 148.818 96.4905C148.504 100.461 149.041 103.764 150.265 106.355C151.021 108.056 152.233 109.516 153.767 110.572C155.3 111.628 157.096 112.239 158.955 112.339C161.786 112.563 165.088 111.881 168.68 110.17C175.006 107.16 180.972 101.583 185.508 94.9942C190.044 88.4055 193.129 80.8358 193.679 73.8729C193.994 69.8979 193.455 66.5674 192.233 64.0038C191.477 62.3026 190.265 60.8434 188.732 59.7873C187.198 58.7313 185.403 58.1195 183.543 58.0195C180.712 57.7955 177.41 58.4775 173.818 60.1887L173.818 60.1932ZM155.071 74.0474C159.821 67.1672 166.115 61.28 172.823 58.092C176.796 56.2023 180.499 55.4476 183.726 55.703C185.994 55.833 188.183 56.5831 190.054 57.8714C191.924 59.1598 193.405 60.937 194.335 63.0091C195.727 65.9399 196.348 69.667 196.001 74.0611C195.415 81.4611 192.176 89.4358 187.434 96.3392C182.692 103.243 176.39 109.107 169.687 112.295C165.708 114.189 162.006 114.939 158.779 114.684C156.51 114.553 154.321 113.803 152.45 112.514C150.579 111.226 149.097 109.449 148.166 107.377C146.773 104.451 146.157 100.72 146.504 96.3301C147.09 88.9255 150.329 80.9508 155.071 74.0474ZM172.837 68.3466L172.903 68.3201C175.327 67.1514 177.544 66.701 179.447 66.8515C180.646 66.9256 181.805 67.3112 182.81 67.9701L182.862 68.006C183.863 68.7114 184.659 69.6694 185.169 70.7824C185.986 72.4933 186.344 74.7346 186.132 77.4207C185.754 82.1933 183.648 87.3689 180.547 91.8762C177.446 96.3835 173.366 100.197 169.043 102.258C166.619 103.427 164.401 103.877 162.499 103.727C161.275 103.662 160.093 103.261 159.084 102.567C158.074 101.874 157.275 100.914 156.777 99.7957C155.96 98.0804 155.601 95.8435 155.814 93.153C156.192 88.3803 158.298 83.2047 161.398 78.7019C164.499 74.1992 168.541 70.4103 172.837 68.3466ZM159.475 77.3843C162.781 72.5803 167.159 68.4961 171.828 66.2533L171.894 66.2132C174.722 64.8768 177.336 64.3399 179.631 64.5215C181.234 64.6316 182.781 65.1572 184.119 66.0465L184.184 66.088C185.522 67.0248 186.588 68.3 187.271 69.7833C188.263 71.8662 188.712 74.5093 188.468 77.5874C188.059 82.7612 185.803 88.3421 182.472 93.1713C179.142 98.0006 174.75 102.084 170.057 104.343C167.229 105.684 164.615 106.216 162.321 106.034C160.688 105.938 159.113 105.397 157.766 104.469C156.419 103.542 155.352 102.263 154.681 100.773C153.689 98.6898 153.24 96.0467 153.483 92.9686C153.878 87.8073 156.139 82.2268 159.46 77.3968L159.475 77.3843Z" fill="#3C3C3C"/>
<path fill-rule="evenodd" clip-rule="evenodd" d="M26.3394 44.3019C27.7829 44.0735 29.2613 44.2358 30.6207 44.772L30.8664 44.8777L41.7422 52.3591C40.9889 52.0081 40.1803 51.7907 39.3525 51.7165C35.5069 51.3579 31.4059 53.6546 28.5426 56.0176C23.2763 60.3717 18.778 67.5756 17.9419 74.4162C17.5773 77.3623 17.8608 80.8313 19.9132 83.1568L20.0929 83.3524L9.21702 75.871C9.12355 75.7911 8.80186 75.3847 8.68977 75.2534C6.31349 72.0904 6.71859 67.2565 7.72867 63.6631C9.87429 56.0372 17.553 45.5024 26.3394 44.3019Z" fill="white"/>
<path fill-rule="evenodd" clip-rule="evenodd" d="M26.1873 43.1393C27.0301 43.0191 27.8847 43.0045 28.7311 43.0956C29.537 43.1767 30.3267 43.3751 31.0751 43.6847L31.3423 43.8055L31.5245 43.9107L42.4048 51.3925L41.274 53.4163C40.9509 53.2722 40.6178 53.1519 40.2772 53.0563C39.9398 52.9676 39.5957 52.907 39.2483 52.8751C37.6547 52.7801 36.0609 53.0578 34.5934 53.6859C32.673 54.4799 30.885 55.5618 29.2907 56.8944C26.5391 59.2157 24.2166 62.0022 22.4293 65.1267C20.7102 68.0117 19.5786 71.208 19.0996 74.5318C18.8892 76.0796 18.9396 77.6517 19.2487 79.1828C19.4847 80.3478 20.0083 81.4354 20.7721 82.3463L20.9562 82.5423L19.4569 84.2921L8.48204 76.7438C8.35922 76.6266 8.2433 76.5024 8.13493 76.3718L7.77482 75.9351C6.62103 74.3055 5.95074 72.3835 5.84103 70.3901C5.69072 68.0099 5.95486 65.6217 6.62168 63.3319C7.84494 58.9935 10.7721 53.7605 14.6573 49.7189C17.9443 46.3011 21.9378 43.701 26.2072 43.1181L26.1873 43.1393ZM28.4844 45.4116C27.8234 45.3457 27.157 45.3585 26.499 45.4496C22.8028 45.9553 19.275 48.2883 16.3241 51.3563C12.7055 55.1243 9.98106 59.9743 8.85253 63.9755C8.25736 65.9999 8.01662 68.1119 8.14092 70.2183C8.21308 71.7727 8.72324 73.2751 9.61257 74.5522L9.9557 74.9739L16.9898 79.8113L16.9661 79.7097C16.5942 77.9146 16.53 76.0694 16.7764 74.2528C17.2924 70.6191 18.5232 67.1237 20.3979 63.9683C22.3255 60.6016 24.8293 57.5994 27.7952 55.0981C29.5762 53.5995 31.5755 52.3814 33.7241 51.4857C34.8228 51.0378 35.9734 50.7297 37.149 50.5685L30.3039 45.8639L30.1636 45.803C29.6254 45.594 29.0594 45.4652 28.4837 45.4206L28.4844 45.4116Z" fill="#3C3C3C"/>
<path fill-rule="evenodd" clip-rule="evenodd" d="M36.7418 45.9437C38.921 44.8691 41.2526 44.1358 43.6547 43.7696C46.0806 43.3863 48.5648 43.658 50.8505 44.5565L51.2579 44.7384L58.5244 49.7349C57.2619 49.1552 55.9097 48.7951 54.526 48.6703C48.0641 48.0684 41.1673 51.9307 36.3575 55.9038C27.5 63.2208 19.9421 75.3253 18.538 86.8237C17.9294 91.764 18.4014 97.6106 21.8488 101.511L22.1537 101.844L14.8872 96.8474C14.7345 96.7128 14.1554 96.0049 14.0078 95.8073C10.0046 90.5022 10.6894 82.3617 12.3738 76.3229C15.7004 64.4913 25.06 51.8038 36.129 46.2353L36.7418 45.9437Z" fill="white"/>
<path fill-rule="evenodd" clip-rule="evenodd" d="M36.2454 44.8817C37.3841 44.3447 38.5542 43.877 39.7493 43.481C40.9678 43.0788 42.2207 42.7892 43.4921 42.6161C44.8468 42.4241 46.2199 42.3987 47.5808 42.5405C48.8589 42.6743 50.111 42.9918 51.2985 43.4831L51.7368 43.6765C51.8304 43.7191 51.919 43.7718 52.0011 43.8335L59.1901 48.7784C59.4234 48.9454 59.5871 49.1924 59.6497 49.4723C59.7124 49.7522 59.6696 50.0454 59.5297 50.2958C59.3898 50.5462 59.1625 50.7363 58.8912 50.8297C58.6199 50.9232 58.3237 50.9134 58.0592 50.8022C57.48 50.541 56.8813 50.3253 56.2685 50.1572C55.6581 49.9974 55.0355 49.889 54.407 49.8331C51.6039 49.6547 48.7981 50.138 46.2163 51.244C42.9087 52.6216 39.831 54.4961 37.0896 56.8028C32.3938 60.7611 28.4297 65.5128 25.3777 70.8416C22.4227 75.9681 20.3398 81.54 19.6803 86.9525C19.3157 89.6432 19.4062 92.376 19.9479 95.0368C20.3744 97.1375 21.324 99.0968 22.7089 100.733L22.9972 101.046C23.1858 101.256 23.2917 101.527 23.2951 101.809C23.2985 102.091 23.1991 102.365 23.0156 102.579C22.8321 102.793 22.5769 102.933 22.2977 102.973C22.0184 103.013 21.7342 102.95 21.4979 102.796L14.1244 97.7187C14.0143 97.6193 13.8306 97.4189 13.6416 97.2271L13.0512 96.491C11.1522 93.9464 10.2332 90.8262 9.96432 87.6304C9.72215 83.7216 10.1613 79.8005 11.2622 76.0421C13.0101 69.8314 16.3774 63.3906 20.773 57.8293C24.9523 52.5366 30.0726 48.0213 35.6238 45.2271L36.2658 44.9105L36.2454 44.8817ZM40.4719 45.7013C39.364 46.067 38.2798 46.5007 37.2255 46.9999L36.6404 47.2847C31.4108 49.9139 26.5674 54.1973 22.5798 59.2466C18.3803 64.5649 15.1585 70.7134 13.4921 76.6402C12.4619 80.1378 12.0473 83.7877 12.2667 87.4271C12.4968 90.2525 13.2815 92.9494 14.8983 95.1044C15.1199 95.3986 15.3735 95.6907 15.6147 95.9683L18.3295 97.8338C18.0565 97.0941 17.833 96.3371 17.6605 95.5678C17.0593 92.6519 16.9559 89.6553 17.3546 86.705C18.0585 80.9605 20.2427 75.0837 23.3397 69.7099C26.5318 64.136 30.6774 59.1655 35.5881 55.0242C38.52 52.5653 41.8092 50.567 45.3427 49.0979C47.8126 48.0607 50.4567 47.5005 53.1351 47.4469L50.7001 45.7713L50.3931 45.6382C49.4165 45.2314 48.3861 44.9681 47.334 44.8565C46.1602 44.7402 44.9766 44.7638 43.8083 44.9268C42.6752 45.0846 41.5586 45.3438 40.4719 45.7013Z" fill="#3C3C3C"/>
<path fill-rule="evenodd" clip-rule="evenodd" d="M43.5266 50.7341C30.4959 56.9591 19.0069 73.6277 17.8598 88.0125C16.7128 102.397 26.3533 109.037 39.3687 102.834C52.3841 96.63 63.8835 79.9442 65.0261 65.5591C66.1686 51.1739 56.5552 44.5361 43.5266 50.7341Z" fill="white"/>
<path fill-rule="evenodd" clip-rule="evenodd" d="M44.0242 51.8059C37.7029 54.8159 31.7316 60.3977 27.1958 66.9864C22.6599 73.5751 19.5756 81.1402 19.0244 88.1076C18.7103 92.0781 19.2452 95.4082 20.4664 97.9764C21.2259 99.6767 22.4399 101.135 23.9747 102.19C25.5095 103.245 27.3057 103.856 29.1656 103.957C31.9967 104.181 35.2941 103.498 38.8636 101.785C45.189 98.7803 51.1558 93.1982 55.6916 86.6095C60.2275 80.0208 63.3122 72.4511 63.863 65.4882C64.1772 61.5178 63.6377 58.1873 62.4165 55.6191C61.6588 53.9193 60.4466 52.4616 58.9132 51.4065C57.3799 50.3514 55.585 49.7399 53.7263 49.6394C50.8952 49.4154 47.5936 50.0929 44.0016 51.8041L44.0242 51.8059ZM25.2772 65.6645C30.0266 58.7843 36.3214 52.8972 43.0291 49.7046C47.0027 47.815 50.7046 47.0648 53.9324 47.3202C56.2003 47.4502 58.389 48.2003 60.2597 49.4886C62.1304 50.777 63.6113 52.5541 64.5409 54.6263C65.9334 57.5526 66.5548 61.2796 66.2072 65.6737C65.6214 73.0782 62.3825 81.0484 57.6404 87.9518C52.8982 94.8552 46.5961 100.719 39.8929 103.912C35.9194 105.802 32.2174 106.552 28.9896 106.297C26.7205 106.167 24.5306 105.417 22.6584 104.128C20.7862 102.84 19.3036 101.062 18.3721 98.9898C16.9796 96.0634 16.363 92.3322 16.7103 87.9427C17.2923 80.5287 20.5413 72.5458 25.2789 65.642L25.2772 65.6645Z" fill="#3C3C3C"/>
<path fill-rule="evenodd" clip-rule="evenodd" d="M99.2974 83.5293C87.6875 78.3888 73.2595 93.5596 68.0928 104.339C64.7896 111.229 61.9373 122.341 67.7535 128.696C64.9784 126.79 28.0081 101.784 26.7964 100.301C19.2781 91.0894 27.748 73.4201 35.4216 65.0707C40.6332 59.4016 50.547 52.209 58.5062 55.5596L99.2974 83.5293Z" fill="#2B7CFF"/>
<path fill-rule="evenodd" clip-rule="evenodd" d="M98.8318 84.5971C94.2035 82.5485 89.0064 84.0783 84.1938 87.2848C77.7143 91.6064 71.9884 98.9037 69.1461 104.842C67.3212 108.643 65.6416 113.761 65.5733 118.581C65.5228 122.087 66.3368 125.444 68.6155 127.892L67.1158 129.646L63.5088 127.189C53.5045 120.388 27.0473 102.405 25.9099 101.013C22.3673 96.6515 22.0816 90.6881 23.5791 84.6028C25.449 76.9642 30.1451 69.0957 34.5828 64.2633C37.6549 60.9237 42.3191 57.0707 47.2989 55.0203C51.1674 53.4262 55.2417 52.9005 58.9782 54.4658L59.182 54.5863L99.9735 82.5515L98.8512 84.5805L98.8318 84.5971ZM82.896 85.3409C86.4731 82.9574 90.2851 81.3905 94.0279 81.3283L57.9654 56.6033C54.8889 55.3532 51.4671 55.8307 48.1616 57.1882C43.5294 59.0892 39.1602 62.7116 36.2761 65.8529C32.0574 70.4396 27.6101 77.9152 25.816 85.1697C24.4794 90.5966 24.6841 95.8643 27.6988 99.5585C28.6093 100.664 53.7959 117.795 64.1618 124.841C63.4924 122.809 63.1792 120.676 63.2361 118.537C63.3107 113.35 65.1004 107.873 67.0399 103.827C70.0378 97.5839 76.0712 89.8983 82.9005 85.3413L82.896 85.3409Z" fill="#3C3C3C"/>
<path fill-rule="evenodd" clip-rule="evenodd" d="M99.2968 83.5284C87.3279 78.2234 72.292 94.371 67.2848 106.115L66.6407 107.719L26.3298 79.8147L26.6426 79.0141C31.277 67.3949 45.8005 51.3609 57.7696 55.2872C60.1174 56.058 96.1055 81.3213 99.2968 83.5284Z" fill="white"/>
<path fill-rule="evenodd" clip-rule="evenodd" d="M98.8358 84.5982L98.6782 84.5268C93.2493 82.2198 87.0393 84.7398 81.5598 89.2086C76.0335 93.8267 71.5928 99.6052 68.5535 106.133L68.3601 106.572L67.7231 108.145L65.9805 108.669L25.665 80.7642L25.249 79.3708L25.5618 78.5701C28.2055 71.9315 33.9809 63.8944 40.7368 58.7738C46.2452 54.5704 52.4276 52.2841 58.1487 54.1652C60.2844 54.8647 86.1128 72.8847 96.2155 79.9331L99.973 82.5522L98.8553 84.5816L98.8358 84.5982ZM80.0918 87.4099C84.4574 83.8326 89.3446 81.403 94.0957 81.3254C83.5976 74.0008 59.1741 56.9718 57.4051 56.3965C52.5422 54.7919 47.0702 56.8714 42.1278 60.6299C35.7557 65.4861 30.2559 73.0778 27.7535 79.3648L66.103 105.917C66.187 105.715 66.3209 105.34 66.4153 105.18C69.0588 99.2304 74.1515 92.2549 80.0918 87.4099Z" fill="#3C3C3C"/>
<path fill-rule="evenodd" clip-rule="evenodd" d="M92.743 34.084C95.4949 33.7031 99.6349 33.7812 102.229 34.8752L102.698 35.0847L127.221 51.9492C125.767 51.2781 124.208 50.8647 122.613 50.7276C115.197 50.0365 106.055 54.5784 100.541 59.1352C94.4308 64.1844 88.7437 71.5073 84.8868 79.2608L60.3635 62.4053C66.5301 50.2271 78.9212 35.9745 92.743 34.084Z" fill="#2B7CFF"/>
<path fill-rule="evenodd" clip-rule="evenodd" d="M92.5847 32.9276C94.4111 32.6915 96.2574 32.649 98.0927 32.801C99.664 32.8977 101.211 33.2327 102.682 33.7944L103.173 34.0146C103.254 34.052 103.331 34.0976 103.402 34.1507L127.886 50.9895C128.122 51.1559 128.287 51.4037 128.351 51.685C128.414 51.9663 128.371 52.2611 128.23 52.5126C128.089 52.7641 127.86 52.9544 127.587 53.0468C127.313 53.1392 127.016 53.1271 126.751 53.0129C126.079 52.7087 125.384 52.4581 124.673 52.2636C123.966 52.0736 123.242 51.9466 122.512 51.884C119.32 51.5861 115.745 52.3328 112.298 53.6473C108.316 55.1861 104.6 57.3407 101.287 60.0321C98.1451 62.667 95.2987 65.635 92.7976 68.8839C90.1562 72.2786 87.8574 75.9263 85.9346 79.7736C85.8669 79.9108 85.7727 80.0332 85.6575 80.1339C85.5423 80.2346 85.4082 80.3116 85.2632 80.3604C85.1181 80.4091 84.9648 80.4288 84.8122 80.4182C84.6595 80.4076 84.5105 80.367 84.3735 80.2986L84.1747 80.1741L59.7297 63.361C59.4921 63.197 59.3237 62.9508 59.2571 62.67C59.1905 62.3891 59.2304 62.0936 59.3691 61.8404C62.8004 55.051 68.1375 47.6232 74.5758 41.9877C79.9375 37.2874 86.1081 33.8301 92.5851 32.9231L92.5847 32.9276ZM97.9001 35.1213C96.234 34.9853 94.5581 35.0259 92.9006 35.2427C86.9118 36.0568 81.1706 39.3032 76.1199 43.7424C70.1834 48.9415 65.1928 55.7164 61.8943 62.0312L84.4641 77.5485C86.3281 74.0001 88.5034 70.624 90.9643 67.46C93.5688 64.075 96.5329 60.9826 99.8047 58.2369C103.315 55.3757 107.254 53.0856 111.478 51.451C114.841 50.1751 118.345 49.3957 121.613 49.4865L102.137 36.0913L101.782 35.9363C100.535 35.4707 99.2248 35.1958 97.8956 35.1209L97.9001 35.1213Z" fill="#3C3C3C"/>
<path fill-rule="evenodd" clip-rule="evenodd" d="M92.7444 34.0845C95.4963 33.7036 99.6363 33.7817 102.231 34.8758L102.7 35.0852L126.611 51.525L126.456 51.5989L126.42 51.5961C125.203 51.1184 123.923 50.8201 122.621 50.7105C115.204 50.0194 106.062 54.5613 100.549 59.1181C97.8564 61.3704 95.3806 63.8694 93.1538 66.5826L68.6873 49.7543C75.167 41.9317 83.6415 35.328 92.7444 34.0845Z" fill="white"/>
<path fill-rule="evenodd" clip-rule="evenodd" d="M92.5861 32.9287C94.4125 32.6926 96.2588 32.6501 98.0942 32.8021C99.6654 32.8989 101.213 33.2338 102.683 33.7955L103.174 34.0157C103.255 34.0531 103.332 34.0987 103.404 34.1518L127.274 50.552C127.446 50.6711 127.584 50.8346 127.671 51.0251C127.759 51.2156 127.793 51.4262 127.771 51.6347C127.749 51.8432 127.671 52.0419 127.546 52.2099C127.42 52.3779 127.252 52.509 127.058 52.5893L126.926 52.6514C126.785 52.7178 126.631 52.7552 126.475 52.7616C126.318 52.7679 126.163 52.743 126.016 52.6883C125.467 52.474 124.903 52.2991 124.329 52.1648C123.739 52.0269 123.141 51.9295 122.538 51.8734C119.345 51.5755 115.77 52.3221 112.323 53.6367C108.341 55.1755 104.625 57.33 101.312 60.0215C100.064 61.052 98.8269 62.1876 97.6239 63.403C96.4209 64.6185 95.219 65.9338 94.0697 67.3303C93.8736 67.5665 93.5923 67.7158 93.2867 67.746C92.9812 67.7762 92.6761 67.6847 92.4376 67.4914L68.0482 50.7191C67.9221 50.6329 67.8142 50.5227 67.7307 50.3949C67.6472 50.2671 67.5898 50.124 67.5616 49.974C67.5335 49.8239 67.5352 49.6698 67.5667 49.5204C67.5981 49.371 67.6587 49.2293 67.745 49.1033L67.8062 49.0174C71.2642 44.745 75.3405 41.0125 79.9006 37.943C83.8896 35.3426 88.1752 33.523 92.6097 32.9169L92.5861 32.9287ZM97.9015 35.1224C96.2354 34.9864 94.5595 35.0271 92.902 35.2438C88.8255 35.7965 84.8631 37.4876 81.1565 39.9017C77.1444 42.6013 73.5286 45.8473 70.4137 49.5457L92.9489 65.0422C93.9215 63.9098 94.9241 62.8206 95.9564 61.7746C97.2084 60.5132 98.5046 59.3232 99.8152 58.2387C103.325 55.3775 107.265 53.0874 111.489 51.4528C114.851 50.1769 118.356 49.3976 121.624 49.4883L102.148 36.0932L101.793 35.9381C100.543 35.4713 99.2293 35.1962 97.897 35.122L97.9015 35.1224Z" fill="#3C3C3C"/>
<path fill-rule="evenodd" clip-rule="evenodd" d="M109.608 52.8187C99.5017 57.6289 90.2031 67.9404 84.8383 79.2162C87.2568 78.4698 89.8096 78.2631 92.3167 78.6107C96.1159 71.5283 102.09 65.2211 108.538 62.1532C114.987 59.0852 120.276 59.9526 123.23 63.7235C124.934 60.1244 126.977 56.6962 129.333 53.4858C124.889 49.4518 117.829 48.9069 109.608 52.8187Z" fill="white"/>
<path fill-rule="evenodd" clip-rule="evenodd" d="M110.105 53.8611C105.274 56.159 100.625 59.7594 96.5145 64.1234C92.7584 68.1457 89.5528 72.6484 86.9814 77.5137C87.5425 77.4175 88.0919 77.3522 88.6306 77.3086C89.6431 77.2204 90.6617 77.2266 91.673 77.3271C93.6108 73.8795 95.9975 70.7043 98.7708 67.8845C101.447 65.0984 104.585 62.7967 108.046 61.0811C111.379 59.4945 114.478 58.9053 117.164 59.1903C119.302 59.3853 121.322 60.2551 122.933 61.6738C123.594 60.3657 124.298 59.0926 125.049 57.855C125.913 56.4041 126.831 55.0029 127.776 53.6673C125.713 52.1598 123.233 51.3298 120.678 51.2918C117.561 51.1858 113.991 51.9963 110.135 53.8317L110.105 53.8611ZM94.8194 62.5562C99.1148 57.9756 104.008 54.2132 109.109 51.7688C113.314 49.766 117.249 48.88 120.728 49.0011C124.19 49.0404 127.522 50.3264 130.113 52.6232C130.326 52.8166 130.459 53.0821 130.488 53.3683C130.516 53.6546 130.438 53.9412 130.267 54.1728C129.144 55.6983 128.052 57.3443 127.022 59.0677C126.043 60.7181 125.122 62.4366 124.294 64.1896C124.219 64.3681 124.098 64.5241 123.945 64.6427C123.702 64.8317 123.393 64.9171 123.087 64.8801C122.781 64.8431 122.501 64.6869 122.31 64.4453C121.656 63.6147 120.839 62.9273 119.909 62.4254C118.978 61.9235 117.955 61.618 116.902 61.5278C114.653 61.2863 111.958 61.8078 109.03 63.2043C105.814 64.8044 102.897 66.9469 100.409 69.5379C97.6269 72.3814 95.2572 75.6012 93.3697 79.103C93.2627 79.3327 93.0837 79.5213 92.8599 79.6402C92.636 79.7592 92.3795 79.802 92.1291 79.7622C91.0306 79.5935 89.9159 79.5555 88.8084 79.6491C87.5956 79.7565 86.396 79.9805 85.2262 80.3181C85.0089 80.3959 84.7734 80.4074 84.5495 80.3514C84.3256 80.2953 84.1233 80.1741 83.9683 80.0031C83.8134 79.8321 83.7126 79.6189 83.6788 79.3906C83.645 79.1623 83.6797 78.9292 83.7785 78.7206C86.6107 72.7999 90.3342 67.3484 94.8194 62.5562Z" fill="#3C3C3C"/>
<path fill-rule="evenodd" clip-rule="evenodd" d="M103.213 70.3802C99.7724 68.0037 96.4994 66.8288 98.5688 60.2808C100.385 54.529 107.255 47.6216 111.879 50.5269L115.26 52.8533C108.156 48.7858 96.8775 65.2034 103.213 70.3802Z" fill="#2B7CFF"/>
<path fill-rule="evenodd" clip-rule="evenodd" d="M102.514 71.3094L101.47 70.6192C98.0676 68.3909 95.3463 66.6065 97.4618 59.9352C97.9203 58.5516 98.549 57.2304 99.3335 56.0019C100.695 53.803 102.483 51.8997 104.594 50.4047C106.741 48.9556 109.072 48.2693 111.21 48.9463C111.671 49.0926 112.112 49.2966 112.523 49.5536L115.965 51.9075C116.227 52.0713 116.412 52.3321 116.481 52.6327C116.55 52.9333 116.497 53.2489 116.333 53.5102C116.169 53.7715 115.908 53.957 115.608 54.0259C115.307 54.0948 114.991 54.0415 114.73 53.8776C112.912 52.8269 110.641 53.5542 108.564 55.2039C105.954 57.2914 104.01 60.0963 102.972 63.2736C102.206 65.7888 102.331 68.1749 103.95 69.4957C104.172 69.693 104.311 69.9676 104.337 70.2634C104.364 70.5592 104.276 70.8541 104.093 71.0877C103.909 71.3214 103.644 71.4763 103.35 71.5208C103.056 71.5654 102.757 71.4962 102.512 71.3274L102.514 71.3094ZM99.6865 60.6555C98.7021 63.752 99.1255 65.4544 100.202 66.7005C100.128 65.3148 100.309 63.9275 100.734 62.6067C101.912 58.969 104.124 55.7529 107.101 53.3512C108.222 52.4442 109.508 51.7621 110.889 51.3426C110.761 51.2793 110.629 51.2264 110.493 51.1843C109.107 50.7482 107.464 51.2803 105.864 52.351C104.02 53.6592 102.459 55.3266 101.276 57.253C100.607 58.3087 100.074 59.4442 99.6883 60.6329L99.6865 60.6555Z" fill="#3C3C3C"/>
<path fill-rule="evenodd" clip-rule="evenodd" d="M108.558 70.2709C104.231 72.3321 101.026 70.1285 101.404 65.3514C101.782 60.5742 105.6 55.0218 109.928 52.9606C114.255 50.8994 117.465 53.1033 117.087 57.8805C116.709 62.6576 112.89 68.2101 108.558 70.2709Z" fill="white"/>
<path fill-rule="evenodd" clip-rule="evenodd" d="M108.988 71.3587C107.766 71.9744 106.406 72.2636 105.039 72.1981C104.148 72.1376 103.29 71.8412 102.553 71.3393L102.489 71.2889C101.791 70.7907 101.234 70.122 100.869 69.3468L100.834 69.2669C100.299 68.0101 100.095 66.6372 100.242 65.2793C100.448 62.6834 101.575 59.8974 103.226 57.493L103.272 57.4331C104.92 55.0602 107.099 53.0377 109.428 51.9294C110.669 51.2908 112.057 50.9893 113.452 51.0552C114.343 51.1156 115.201 51.412 115.938 51.9139L116.002 51.9644C116.701 52.4614 117.259 53.1304 117.622 53.9065C118.187 55.1835 118.404 56.5866 118.253 57.9744C118.048 60.5703 116.92 63.3562 115.269 65.7606L115.224 65.8205C113.67 68.1452 111.552 70.0386 109.068 71.3242L108.993 71.3591L108.988 71.3587ZM105.223 69.8681C106.184 69.9015 107.137 69.6898 107.993 69.2529L108.05 69.2211C110.172 68.1146 111.979 66.4882 113.301 64.4939L113.337 64.4332C114.748 62.4738 115.634 60.187 115.913 57.7893C116.03 56.8107 115.892 55.8185 115.511 54.9095C115.32 54.491 115.027 54.1266 114.66 53.849L114.604 53.8173C114.209 53.5531 113.752 53.398 113.278 53.3678C112.294 53.3337 111.318 53.5566 110.446 54.0145C108.324 55.1197 106.517 56.7464 105.196 58.7418L105.155 58.802C103.746 60.7618 102.861 63.0488 102.584 65.4463C102.47 66.404 102.599 67.3749 102.959 68.2696L102.987 68.3216C103.176 68.7422 103.469 69.1084 103.837 69.3866L103.888 69.4224C104.287 69.6839 104.747 69.8374 105.223 69.8681Z" fill="#3C3C3C"/>
<path fill-rule="evenodd" clip-rule="evenodd" d="M86.2885 84.3899C74.976 89.7668 65.0313 104.231 64.0399 116.705C63.0486 129.18 71.4032 134.929 82.6973 129.555C93.9913 124.181 103.95 109.714 104.941 97.2437C105.932 84.7739 97.6006 79.0176 86.2885 84.3899Z" fill="white"/>
<path fill-rule="evenodd" clip-rule="evenodd" d="M86.798 85.4446C81.3441 88.0425 76.1904 92.8636 72.2701 98.5532C68.3497 104.243 65.6918 110.776 65.2151 116.801C64.9452 120.213 65.4038 123.075 66.45 125.275C67.0923 126.728 68.124 127.976 69.4311 128.879C70.7381 129.783 72.2696 130.308 73.8563 130.396C76.2816 130.588 79.1179 130.001 82.21 128.531C87.6639 125.933 92.8175 121.112 96.7334 115.422C100.649 109.732 103.312 103.199 103.793 97.1786C104.063 93.7625 103.6 90.9006 102.554 88.7C101.908 87.2508 100.874 86.008 99.5673 85.1084C98.2602 84.2088 96.7299 83.6874 95.1453 83.6017C92.72 83.4098 89.8838 83.9972 86.7963 85.4672L86.798 85.4446ZM70.3519 97.2269C74.4845 91.2049 79.9626 86.1238 85.803 83.3433C89.2721 81.6949 92.5087 81.0349 95.3304 81.2627C97.3243 81.3754 99.2488 82.0339 100.894 83.1662C102.539 84.2984 103.841 85.8609 104.657 87.6828C105.875 90.2416 106.419 93.5045 106.113 97.3214C105.603 103.766 102.786 110.704 98.6566 116.685C94.5271 122.667 89.0459 127.788 83.21 130.569C79.7364 132.217 76.4997 132.877 73.6777 132.654C71.6843 132.537 69.761 131.877 68.1168 130.744C66.4726 129.611 65.1702 128.05 64.3513 126.229C63.1339 123.671 62.5888 120.412 62.8956 116.591C63.4033 110.173 66.2203 103.235 70.3519 97.2269Z" fill="#3C3C3C"/>
<path fill-rule="evenodd" clip-rule="evenodd" d="M107.474 84.5911C94.0624 78.6596 77.45 96.1563 71.4715 108.594C67.6677 116.538 64.3862 129.348 71.0643 136.679C67.8033 134.434 62.7923 131.489 61.2965 129.525C52.83 118.253 63.3591 97.3181 73.0951 87.6126C79.0039 81.7311 89.6087 74.6929 98.1633 78.2584L107.474 84.5911Z" fill="white"/>
<path fill-rule="evenodd" clip-rule="evenodd" d="M107.004 85.6557C101.6 83.2646 95.5446 85.0393 89.9737 88.7708C82.4745 93.7691 75.8495 102.224 72.5474 109.101C70.4303 113.5 68.4867 119.432 68.4074 125.022C68.3525 129.099 69.3089 133.007 71.9643 135.911C72.1472 136.129 72.2437 136.407 72.2355 136.692C72.2274 136.977 72.1151 137.249 71.92 137.457C71.7249 137.665 71.4604 137.794 71.1765 137.82C70.8926 137.847 70.6089 137.768 70.3791 137.599C69.6168 137.085 68.6859 136.468 67.7282 135.843C64.8033 133.938 61.6456 131.879 60.4058 130.235C56.4251 124.931 56.3505 117.733 58.3892 110.484C60.9155 101.487 66.7421 92.3431 72.3114 86.7975C75.759 83.3562 80.8078 79.5154 86.1502 77.5255C90.3055 75.9767 94.6637 75.5324 98.65 77.2083C98.7506 77.2474 98.8442 77.3022 98.9275 77.3708L108.122 83.6308C108.37 83.7903 108.548 84.038 108.62 84.3239C108.692 84.6097 108.653 84.9123 108.51 85.1703C108.368 85.4283 108.132 85.6224 107.852 85.7133C107.571 85.8042 107.266 85.7851 106.999 85.6599L107.004 85.6557ZM88.6579 86.8255C92.9151 83.9878 97.4577 82.1886 101.909 82.2278L97.6334 79.3364C94.2894 77.9698 90.5553 78.3819 86.9377 79.7283C81.9448 81.6007 77.2003 85.2071 73.9355 88.4588C68.6075 93.765 63.0389 102.512 60.6158 111.123C58.7325 117.726 58.7682 124.214 62.2439 128.847C63.0404 129.903 65.1244 131.37 67.3715 132.84C66.4351 130.33 65.996 127.661 66.0788 124.983C66.1603 119.021 68.2135 112.735 70.445 108.096C73.8764 100.903 80.8089 92.0591 88.6579 86.8255Z" fill="#3C3C3C"/>
<path fill-rule="evenodd" clip-rule="evenodd" d="M92.4772 85.5697C79.4486 91.7677 67.9578 108.459 66.8149 122.848C65.672 137.238 75.3038 143.873 88.3238 137.67C101.344 131.466 112.839 114.78 113.981 100.395C115.124 86.0098 105.492 79.3706 92.4727 85.5693L92.4772 85.5697ZM91.5385 93.7082C100.555 89.433 107.225 93.9968 106.437 103.957C105.649 113.917 97.7044 125.46 88.6862 129.762C79.6679 134.064 73.0003 129.469 73.7878 119.514C74.5754 109.558 82.524 98.0198 91.537 93.7262L91.5385 93.7082Z" fill="white"/>
<path fill-rule="evenodd" clip-rule="evenodd" d="M92.972 86.6386C86.6507 89.6485 80.6795 95.2303 76.1437 101.819C71.6078 108.408 68.5234 115.973 67.9722 122.94C67.6581 126.911 68.1952 130.214 69.4192 132.805C70.1753 134.506 71.387 135.965 72.9205 137.021C74.454 138.077 76.2496 138.689 78.109 138.789C80.9446 139.014 84.242 138.331 87.834 136.62C94.1598 133.61 100.126 128.033 104.662 121.444C109.198 114.855 112.283 107.286 112.833 100.323C113.148 96.3477 112.608 93.0172 111.387 90.4535C110.631 88.7523 109.419 87.2932 107.886 86.2371C106.352 85.1811 104.556 84.5693 102.697 84.4693C99.866 84.2453 96.5685 84.9277 92.972 86.6386ZM74.2254 100.493C78.9748 93.6125 85.2697 87.7253 91.977 84.5373C95.9506 82.6476 99.6529 81.8929 102.881 82.1483C105.149 82.2783 107.337 83.0284 109.208 84.3167C111.079 85.6051 112.56 87.3823 113.489 89.4544C114.886 92.3811 115.503 96.1122 115.155 100.506C114.57 107.906 111.33 115.881 106.588 122.784C101.846 129.688 95.544 135.552 88.8409 138.745C84.8628 140.634 81.1653 141.385 77.933 141.129C75.6647 140.998 73.4757 140.248 71.6044 138.96C69.7331 137.671 68.2512 135.894 67.3201 133.822C65.9276 130.896 65.3109 127.165 65.6582 122.775C66.244 115.371 69.4832 107.396 74.2254 100.493ZM92.0424 94.7778C94.4665 93.6091 96.684 93.1587 98.5864 93.3092C99.8097 93.3932 100.989 93.7994 102.004 94.4866C102.986 95.1773 103.769 96.1133 104.275 97.2013L104.307 97.2627C105.124 98.9781 105.482 101.215 105.27 103.901C104.892 108.674 102.786 113.849 99.6851 118.356C96.584 122.864 92.5036 126.677 88.1808 128.738C85.7567 129.907 83.5395 130.353 81.6371 130.203C80.4384 130.128 79.2794 129.744 78.2731 129.088L78.2219 129.048C77.2398 128.357 76.454 127.423 75.9414 126.337L75.9148 126.271C75.0979 124.556 74.7396 122.319 74.9518 119.638C75.3297 114.861 77.4357 109.685 80.5363 105.182C83.637 100.679 87.7181 96.8574 92.0406 94.8004L92.0424 94.7778ZM78.6233 103.847C81.9498 99.0131 86.3526 94.9082 91.0431 92.6716C93.8706 91.3353 96.4852 90.7984 98.7798 90.9799C100.399 91.076 101.961 91.6096 103.3 92.5238C104.64 93.438 105.706 94.6986 106.385 96.1709L106.42 96.2372C107.412 98.3201 107.861 100.963 107.616 104.064C107.206 109.242 104.95 114.819 101.62 119.648C98.289 124.477 93.897 128.56 89.2047 130.819C86.3769 132.16 83.7627 132.693 81.4681 132.511C79.8651 132.403 78.318 131.879 76.9796 130.99L76.9106 130.944C75.5955 130.023 74.5448 128.773 73.8631 127.32L73.8276 127.254C72.8352 125.175 72.3869 122.528 72.6305 119.45C73.037 114.253 75.2909 108.699 78.6143 103.847L78.6233 103.847Z" fill="#3C3C3C"/>
<path fill-rule="evenodd" clip-rule="evenodd" d="M95.4291 88.2168C97.6087 87.1431 99.94 86.4098 102.342 86.0427C104.768 85.6595 107.252 85.9312 109.538 86.8297L109.949 87.0165L117.216 92.0129C115.955 91.4293 114.602 91.0691 113.217 90.9483C106.751 90.346 99.8546 94.2039 95.0494 98.1773C86.1918 105.494 78.6336 117.603 77.225 129.101C76.621 134.042 77.0887 139.884 80.5403 143.789L80.8451 144.122L73.579 139.121C73.426 138.991 72.8428 138.278 72.6948 138.085C68.6961 132.78 69.3813 124.635 71.0608 118.6C74.3874 106.769 83.7515 94.0818 94.8208 88.5088L95.4291 88.2168Z" fill="#2B7CFF"/>
<path fill-rule="evenodd" clip-rule="evenodd" d="M94.9419 87.1585C96.0795 86.6224 97.248 86.1546 98.4413 85.7575C99.662 85.3575 100.916 85.0681 102.189 84.893C103.543 84.7044 104.916 84.6804 106.277 84.8218C107.554 84.9523 108.805 85.2682 109.991 85.7596L110.429 85.953C110.518 85.9922 110.602 86.0415 110.68 86.0999L117.887 91.0553C118.133 91.2162 118.31 91.4645 118.38 91.7503C118.45 92.0361 118.41 92.338 118.266 92.595C118.123 92.8519 117.887 93.0448 117.606 93.1347C117.326 93.2246 117.022 93.2047 116.756 93.0791C116.177 92.8213 115.58 92.6073 114.969 92.4389C114.358 92.2755 113.734 92.1654 113.104 92.1099C110.402 91.8599 107.601 92.4546 104.912 93.5253C101.606 94.9027 98.5284 96.7757 95.7861 99.0797C91.09 103.038 87.1258 107.789 84.0741 113.118C81.1195 118.241 79.0411 123.813 78.3767 129.229C78.0125 131.919 78.1031 134.65 78.6447 137.309C79.0712 139.41 80.0209 141.369 81.4058 143.006L81.6936 143.323C81.8823 143.533 81.9882 143.804 81.9916 144.086C81.9949 144.368 81.8956 144.642 81.712 144.856C81.5285 145.07 81.2734 145.21 80.9941 145.25C80.7148 145.29 80.4306 145.227 80.1943 145.073L72.8167 139.991C72.6485 139.836 72.4888 139.672 72.3384 139.5L71.748 138.764C69.8445 136.218 68.93 133.099 68.6611 129.903C68.4175 125.994 68.8552 122.073 69.9545 118.314C71.7024 112.103 75.0739 105.668 79.4653 100.101C83.6446 94.8087 88.7695 90.2937 94.3161 87.4991L94.9627 87.1829L94.9419 87.1585ZM99.1639 87.9778C98.0567 88.3454 96.9727 88.7791 95.9175 89.2764L95.3325 89.5613C90.1028 92.1905 85.2594 96.4738 81.2717 101.523C77.0722 106.841 73.8501 112.994 72.184 118.917C71.1543 122.414 70.7397 126.064 70.9586 129.704C71.1891 132.525 71.9734 135.226 73.5902 137.381C73.8123 137.671 74.07 137.968 74.3066 138.245L77.0215 140.11C76.7508 139.369 76.5289 138.611 76.3573 137.84C75.757 134.926 75.652 131.931 76.0465 128.982C76.7505 123.237 78.9391 117.361 82.0316 111.986C85.2254 106.411 89.3727 101.439 94.285 97.2966C97.2154 94.838 100.503 92.8396 104.035 91.3699C106.507 90.3348 109.152 89.7748 111.832 89.7192L109.388 88.0384L109.086 87.9102C108.109 87.5048 107.078 87.243 106.026 87.133C104.852 87.0122 103.668 87.0358 102.5 87.2032C101.365 87.3585 100.247 87.6177 99.1594 87.9775L99.1639 87.9778Z" fill="#3C3C3C"/>
<path fill-rule="evenodd" clip-rule="evenodd" d="M101.292 101.146C92.2762 105.421 84.3296 116.991 83.5417 126.951C82.7538 136.911 89.4239 141.475 98.44 137.2C107.456 132.925 115.402 121.359 116.191 111.394C116.979 101.43 110.296 96.8517 101.292 101.146Z" fill="white"/>
<path fill-rule="evenodd" clip-rule="evenodd" d="M101.724 102.221C97.4281 104.285 93.371 108.09 90.2804 112.58L90.2396 112.636C87.1626 117.127 85.0719 122.281 84.6961 127.031C84.4822 129.736 84.842 131.954 85.6589 133.67L85.69 133.736C86.1938 134.839 86.9908 135.784 87.9942 136.466C88.9976 137.148 90.169 137.542 91.3808 137.605C93.2832 137.756 95.4886 137.286 97.9297 136.132L97.9909 136.106C102.286 134.046 106.339 130.236 109.43 125.746L109.47 125.694C112.547 121.203 114.638 116.049 115.014 111.299C115.228 108.595 114.868 106.372 114.051 104.661L114.02 104.595C113.512 103.507 112.727 102.57 111.744 101.88L111.693 101.844C110.687 101.187 109.528 100.802 108.329 100.725C106.427 100.575 104.222 101.04 101.785 102.194L101.724 102.221ZM88.3618 111.259C91.6629 106.459 96.0369 102.374 100.71 100.127L100.781 100.092C103.609 98.7511 106.218 98.2184 108.513 98.3999C110.116 98.5078 111.663 99.0319 113.002 99.9205L113.066 99.9619C114.384 100.882 115.436 102.132 116.118 103.586L116.154 103.653C117.146 105.74 117.594 108.383 117.349 111.484C116.941 116.635 114.688 122.189 111.399 127.003L111.353 127.072C108.052 131.868 103.677 135.957 99.0046 138.199L98.9383 138.235C96.1105 139.576 93.4959 140.113 91.2013 139.931C89.5825 139.835 88.02 139.301 86.6807 138.387C85.3413 137.473 84.2754 136.212 83.5964 134.74L83.5608 134.674C82.5688 132.591 82.1202 129.948 82.3637 126.87C82.7716 121.714 85.0251 116.164 88.3186 111.346L88.3618 111.259Z" fill="#3C3C3C"/>
<path fill-rule="evenodd" clip-rule="evenodd" d="M87.3064 137.409L80.04 132.412C93.6668 141.358 117.631 107.823 106.095 96.7065L105.145 95.9284C112.557 101.027 119.147 103.335 115.17 116.621C111.358 129.371 96.5828 143.489 87.3064 137.409Z" fill="#2B7CFF"/>
<path fill-rule="evenodd" clip-rule="evenodd" d="M86.6007 138.341C84.2347 136.711 81.6658 135.066 79.3775 133.37C79.1376 133.191 78.9756 132.927 78.9253 132.632C78.875 132.336 78.9402 132.033 79.1074 131.785C79.2745 131.536 79.5308 131.362 79.8232 131.297C80.1156 131.232 80.4217 131.282 80.6782 131.437C84.2358 133.773 88.6967 132.774 92.9529 129.95C95.9255 127.898 98.5503 125.384 100.728 122.502C103.039 119.545 104.911 116.271 106.287 112.779C108.573 106.824 108.8 100.965 105.317 97.5739L104.405 96.8306C104.183 96.6333 104.045 96.3587 104.018 96.0629C103.991 95.7671 104.079 95.4722 104.262 95.2386C104.446 95.0049 104.711 94.85 105.005 94.8054C105.299 94.7609 105.598 94.83 105.843 94.9988C106.605 95.5126 107.424 96.0581 108.222 96.5748C114.946 100.975 120.067 104.314 116.29 116.954C115.276 120.197 113.803 123.278 111.915 126.104C109.074 130.414 105.345 134.327 101.432 136.879C97.3763 139.52 93.0871 140.754 89.2814 139.605C88.3518 139.328 87.4674 138.917 86.6561 138.386L86.5962 138.34L86.6007 138.341ZM85.9533 135.056L87.9626 136.435C88.5787 136.844 89.2526 137.159 89.9619 137.369C93.064 138.294 96.6699 137.21 100.171 134.929C103.815 132.555 107.303 128.9 109.984 124.822C111.745 122.186 113.121 119.312 114.07 116.288C116.822 107.087 114.108 103.539 109.688 100.359C110.909 104.188 110.295 108.901 108.485 113.611C107.026 117.314 105.043 120.788 102.597 123.929C100.259 127.008 97.4427 129.694 94.256 131.885C91.5083 133.704 88.6729 134.854 85.9353 135.055L85.9533 135.056Z" fill="#3C3C3C"/>
<path fill-rule="evenodd" clip-rule="evenodd" d="M112.411 100.923L105.144 95.9266L104.885 95.7565L104.621 95.5995L104.352 95.4512L111.618 100.448L111.888 100.596L112.152 100.757L112.411 100.923Z" fill="white"/>
<path fill-rule="evenodd" clip-rule="evenodd" d="M111.746 101.883C111.484 101.703 111.227 101.569 110.958 101.412L103.739 96.4423C103.49 96.278 103.313 96.0245 103.246 95.734C103.178 95.4434 103.224 95.1379 103.374 94.8803C103.525 94.6226 103.768 94.4324 104.055 94.3489C104.341 94.2653 104.649 94.2948 104.915 94.4311C107.684 95.9472 110.457 98.1664 113.096 99.9669C113.336 100.146 113.497 100.411 113.548 100.706C113.598 101.001 113.533 101.304 113.366 101.552C113.199 101.801 112.942 101.975 112.65 102.04C112.358 102.105 112.051 102.055 111.795 101.9L111.746 101.883Z" fill="#3C3C3C"/>
<path fill-rule="evenodd" clip-rule="evenodd" d="M102.217 93.0109C89.1886 99.2089 77.6978 115.9 76.5552 130.285C75.4126 144.67 85.0486 151.31 98.0637 145.111C111.079 138.912 122.579 122.221 123.726 107.832C124.873 93.4428 115.233 86.8073 102.217 93.0109ZM101.283 101.145C110.295 96.8697 116.969 101.438 116.182 111.394C115.394 121.349 107.445 132.892 98.431 137.199C89.4169 141.506 82.7406 136.906 83.5282 126.95C84.3158 116.995 92.2657 105.438 101.292 101.146L101.283 101.145Z" fill="white"/>
<path fill-rule="evenodd" clip-rule="evenodd" d="M102.715 94.0646C96.3941 97.07 90.4273 102.652 85.8869 109.24C81.3466 115.829 78.271 123.399 77.7156 130.362C77.4011 134.337 77.9409 137.663 79.1621 140.231C79.9204 141.931 81.1326 143.388 82.6657 144.444C84.1988 145.5 85.9932 146.113 87.852 146.215C90.6875 146.44 93.9853 145.753 97.5815 144.046C103.903 141.036 109.87 135.454 114.405 128.865C118.941 122.277 122.026 114.712 122.577 107.744C122.891 103.774 122.356 100.444 121.13 97.8751C120.373 96.1753 119.16 94.7176 117.627 93.6625C116.094 92.6074 114.299 91.9958 112.44 91.8953C109.609 91.6713 106.311 92.3537 102.715 94.0646ZM83.9729 107.919C88.7223 101.039 95.0172 95.1517 101.725 91.9591C105.698 90.0695 109.4 89.3193 112.628 89.5747C114.896 89.7047 117.085 90.4548 118.955 91.7431C120.826 93.0315 122.307 94.8086 123.237 96.8807C124.634 99.8074 125.25 103.539 124.903 107.928C124.317 115.333 121.082 123.308 116.336 130.211C111.589 137.114 105.296 142.979 98.5886 146.167C94.615 148.056 90.9082 148.811 87.6808 148.551C85.4133 148.419 83.2253 147.669 81.3549 146.38C79.4844 145.092 78.0032 143.316 77.0724 141.245C75.6799 138.318 75.0584 134.591 75.4105 130.198C75.9959 122.798 79.2307 114.822 83.9774 107.919L83.9729 107.919ZM101.729 102.227L101.79 102.2C104.214 101.031 106.431 100.585 108.334 100.736C109.533 100.81 110.693 101.195 111.698 101.854L111.749 101.89C112.751 102.593 113.548 103.549 114.057 104.662C114.873 106.377 115.232 108.614 115.019 111.305C114.641 116.077 112.535 121.253 109.435 125.756C106.334 130.259 102.253 134.081 97.9349 136.138C95.5063 137.306 93.2707 137.755 91.3863 137.606C90.1629 137.544 88.9805 137.144 87.9704 136.451C86.9604 135.758 86.1619 134.799 85.6637 133.68C84.8513 131.965 84.4888 129.723 84.7013 127.037C85.0789 122.264 87.1894 117.089 90.2859 112.582C93.3824 108.074 97.4287 104.29 101.729 102.227ZM88.3666 111.269C91.6681 106.464 96.0488 102.353 100.715 100.133L100.786 100.098C103.614 98.7568 106.224 98.2241 108.518 98.4056C110.121 98.5135 111.668 99.0376 113.007 99.9262L113.076 99.9725C114.413 100.909 115.476 102.185 116.158 103.667C117.15 105.75 117.599 108.393 117.356 111.472C116.946 116.645 114.69 122.226 111.36 127.055C108.029 131.885 103.637 135.968 98.9446 138.227C96.1171 139.563 93.5026 140.1 91.208 139.919C89.5756 139.821 88.001 139.28 86.6544 138.352C85.3078 137.425 84.2404 136.147 83.5678 134.657C82.5758 132.574 82.1272 129.931 82.3707 126.853C82.7758 121.674 85.0405 116.098 88.3621 111.268L88.3666 111.269Z" fill="#3C3C3C"/>
<path opacity="0.2" d="M248.324 214.547C258.997 214.547 267.649 211.417 267.649 207.557C267.649 203.697 258.997 200.567 248.324 200.567C237.652 200.567 229 203.697 229 207.557C229 211.417 237.652 214.547 248.324 214.547Z" fill="#575757"/>
<path opacity="0.01" fill-rule="evenodd" clip-rule="evenodd" d="M264.881 198.474C269.421 201.093 269.421 205.343 264.881 207.963C260.342 210.583 252.987 210.583 248.448 207.963C243.908 205.343 243.908 201.093 248.448 198.474C252.987 195.854 260.342 195.854 264.881 198.474Z" fill="#575757"/>
<path opacity="0.01" fill-rule="evenodd" clip-rule="evenodd" d="M264.01 200.072C267.642 202.174 267.642 205.588 264.01 207.69C260.379 209.792 254.477 209.797 250.818 207.69C247.159 205.583 247.186 202.174 250.818 200.072C254.45 197.969 260.365 197.965 264.01 200.072Z" fill="#575757"/>
<path opacity="0.02" fill-rule="evenodd" clip-rule="evenodd" d="M263.188 201.576C265.989 203.192 265.989 205.816 263.188 207.437C260.387 209.058 255.843 209.054 253.042 207.437C250.241 205.821 250.241 203.192 253.042 201.576C255.843 199.959 260.387 199.941 263.188 201.576Z" fill="#575757"/>
<path opacity="0.02" fill-rule="evenodd" clip-rule="evenodd" d="M262.412 202.995C264.419 204.153 264.419 206.033 262.412 207.19C261.287 207.761 260.043 208.059 258.781 208.059C257.519 208.059 256.275 207.761 255.149 207.19C253.147 206.033 253.147 204.153 255.149 202.995C256.275 202.424 257.519 202.127 258.781 202.127C260.043 202.127 261.287 202.424 262.412 202.995Z" fill="#575757"/>
<path opacity="0.02" fill-rule="evenodd" clip-rule="evenodd" d="M261.676 204.345C262.924 205.066 262.924 206.238 261.676 206.96C260.973 207.319 260.195 207.506 259.406 207.506C258.617 207.506 257.839 207.319 257.136 206.96C255.888 206.238 255.888 205.066 257.136 204.345C257.839 203.986 258.617 203.799 259.406 203.799C260.195 203.799 260.973 203.986 261.676 204.345Z" fill="#575757"/>
<path opacity="0.02" fill-rule="evenodd" clip-rule="evenodd" d="M260.977 205.625C261.094 205.665 261.195 205.74 261.267 205.841C261.338 205.941 261.377 206.061 261.377 206.184C261.377 206.307 261.338 206.427 261.267 206.527C261.195 206.627 261.094 206.702 260.977 206.742C260.678 206.895 260.347 206.974 260.011 206.974C259.675 206.974 259.343 206.895 259.044 206.742C258.927 206.702 258.826 206.627 258.755 206.527C258.683 206.427 258.645 206.307 258.645 206.184C258.645 206.061 258.683 205.941 258.755 205.841C258.826 205.74 258.927 205.665 259.044 205.625C259.343 205.473 259.675 205.394 260.011 205.394C260.347 205.394 260.678 205.473 260.977 205.625Z" fill="#575757"/>
<path fill-rule="evenodd" clip-rule="evenodd" d="M240.808 113.754L232.464 118.576L236.205 133.187L244.553 128.369L240.808 113.754Z" fill="white"/>
<path fill-rule="evenodd" clip-rule="evenodd" d="M240.04 115.585L233.843 119.163L236.971 131.363L243.168 127.785L240.04 115.585ZM231.869 117.542L240.222 112.72C240.382 112.629 240.561 112.575 240.746 112.564C240.93 112.552 241.115 112.584 241.285 112.655C241.455 112.727 241.607 112.837 241.728 112.976C241.849 113.116 241.936 113.282 241.983 113.46L245.706 127.99C245.79 128.251 245.783 128.533 245.684 128.789C245.586 129.045 245.403 129.26 245.165 129.397L236.817 134.214C236.722 134.27 236.619 134.311 236.513 134.337C236.361 134.376 236.202 134.384 236.047 134.362C235.892 134.34 235.742 134.287 235.608 134.207C235.473 134.127 235.355 134.021 235.261 133.895C235.167 133.77 235.099 133.627 235.06 133.474L231.337 118.945C231.251 118.687 231.256 118.407 231.351 118.152C231.446 117.897 231.626 117.682 231.859 117.542H231.869Z" fill="#414141"/>
<path fill-rule="evenodd" clip-rule="evenodd" d="M234.775 136.032L238.139 135.424L237.231 130.307L235.347 129.934L234.176 125.362C233.077 125.871 232.714 126.534 232.914 129.712C233.113 132.4 233.413 132.513 234.775 136.032Z" fill="white"/>
<path fill-rule="evenodd" clip-rule="evenodd" d="M235.537 134.692L236.763 134.469L236.214 131.291L235.138 131.078C234.916 131.028 234.712 130.917 234.551 130.756C234.39 130.595 234.279 130.392 234.23 130.169L234.189 130.011C234.311 131.609 234.529 132.135 235.188 133.738L235.56 134.646L235.537 134.692ZM238.361 136.585L235.002 137.198C234.728 137.248 234.447 137.201 234.204 137.066C233.961 136.931 233.773 136.716 233.671 136.458C233.435 135.859 233.167 135.209 232.945 134.642C232.123 132.639 231.892 132.086 231.747 129.761C231.638 128.017 231.692 126.928 231.946 126.129C232.071 125.705 232.291 125.315 232.59 124.99C232.889 124.664 233.259 124.413 233.671 124.253C233.747 124.218 233.826 124.189 233.907 124.167C234.214 124.09 234.539 124.137 234.812 124.299C235.084 124.46 235.281 124.723 235.36 125.03L236.345 128.871L237.421 129.084C237.673 129.118 237.907 129.23 238.091 129.406C238.275 129.581 238.398 129.811 238.443 130.06L239.351 135.173C239.382 135.331 239.382 135.494 239.349 135.652C239.316 135.81 239.251 135.959 239.159 136.091C239.066 136.223 238.948 136.335 238.811 136.42C238.673 136.505 238.52 136.561 238.361 136.585Z" fill="#414141"/>
<path fill-rule="evenodd" clip-rule="evenodd" d="M256.665 201.912C256.356 201.698 256.914 201.158 257.414 200.872C257.913 200.586 258.63 200.154 259.23 200.418L265.785 203.596C266.003 203.669 266.193 203.809 266.328 203.996C266.463 204.183 266.535 204.408 266.535 204.638C266.535 204.868 266.463 205.093 266.328 205.28C266.193 205.467 266.003 205.607 265.785 205.68C265.223 205.97 264.601 206.121 263.969 206.121C263.337 206.121 262.715 205.97 262.153 205.68L256.665 201.912Z" fill="#66CEEF"/>
<path fill-rule="evenodd" clip-rule="evenodd" d="M255.98 202.899C255.81 202.779 255.668 202.624 255.562 202.445C255.379 202.134 255.327 201.764 255.417 201.414C255.47 201.199 255.562 200.996 255.689 200.815C255.996 200.417 256.376 200.082 256.811 199.83L256.879 199.793C257.601 199.376 258.608 198.808 259.739 199.339L266.371 202.554C266.729 202.758 267.039 203.037 267.279 203.371C267.552 203.736 267.699 204.178 267.699 204.633C267.699 205.088 267.552 205.531 267.279 205.896C267.03 206.231 266.713 206.509 266.349 206.713C265.989 206.921 265.6 207.074 265.196 207.167H265.082C264.708 207.248 264.326 207.289 263.943 207.29C263.116 207.314 262.296 207.13 261.559 206.754L255.975 202.917L255.98 202.899ZM258.704 201.537L258.427 201.687L262.808 204.706C263.171 204.875 263.569 204.958 263.97 204.947C264.177 204.948 264.384 204.93 264.587 204.892H264.673C264.849 204.852 265.019 204.788 265.177 204.702L258.704 201.537Z" fill="#414141"/>
<path fill-rule="evenodd" clip-rule="evenodd" d="M245.671 208.26C245.362 208.046 245.92 207.502 246.42 207.216C246.919 206.93 247.636 206.498 248.236 206.762L254.786 209.94C255.005 210.013 255.195 210.153 255.329 210.34C255.464 210.527 255.536 210.751 255.536 210.982C255.536 211.212 255.464 211.437 255.329 211.624C255.195 211.811 255.005 211.951 254.786 212.024C254.224 212.311 253.602 212.46 252.97 212.46C252.339 212.46 251.717 212.311 251.155 212.024L245.671 208.26Z" fill="#66CEEF"/>
<path fill-rule="evenodd" clip-rule="evenodd" d="M244.998 209.25C244.824 209.132 244.678 208.977 244.571 208.796C244.39 208.487 244.337 208.118 244.426 207.77C244.48 207.557 244.572 207.355 244.698 207.175C245.005 206.774 245.389 206.439 245.829 206.19H245.856C246.582 205.768 247.604 205.178 248.748 205.736L255.38 208.955C255.737 209.158 256.047 209.436 256.288 209.768L256.361 209.886C256.585 210.227 256.705 210.626 256.706 211.035C256.702 211.489 256.556 211.93 256.288 212.297L256.202 212.406C255.965 212.69 255.679 212.93 255.358 213.114C254.998 213.319 254.611 213.472 254.209 213.568H254.096C253.72 213.653 253.336 213.695 252.952 213.695C252.112 213.706 251.284 213.501 250.545 213.101L244.975 209.268L244.998 209.25ZM247.722 207.888L247.449 208.038L251.812 211.044C252.178 211.222 252.581 211.31 252.988 211.298C253.197 211.3 253.405 211.28 253.61 211.239H253.691C253.867 211.2 254.037 211.137 254.195 211.053L247.722 207.888Z" fill="#414141"/>
<path fill-rule="evenodd" clip-rule="evenodd" d="M275.591 154.449L272.213 153.954L271.419 159.085L272.395 159.888L272.363 164.429C273.562 164.297 274.488 164.102 275.319 161.023C276.018 158.426 275.777 158.227 275.591 154.449Z" fill="white"/>
<path fill-rule="evenodd" clip-rule="evenodd" d="M271.805 141.706L272.127 153.466C272.127 153.948 272.319 154.41 272.659 154.75C273 155.091 273.462 155.282 273.943 155.282C274.425 155.282 274.887 155.091 275.227 154.75C275.568 154.41 275.759 153.948 275.759 153.466L275.805 140.926C275.805 140.524 275.698 140.129 275.496 139.781L267.084 125.552C266.894 125.147 266.622 124.785 266.287 124.489C265.951 124.193 265.559 123.969 265.133 123.831C264.708 123.693 264.259 123.643 263.813 123.685C263.368 123.728 262.936 123.861 262.544 124.076C261.01 124.962 260.615 126.138 261.505 127.672C264.237 132.449 268.75 137.003 271.805 141.706Z" fill="white"/>
<path fill-rule="evenodd" clip-rule="evenodd" d="M272.998 141.698L273.325 153.503C273.326 153.618 273.361 153.73 273.425 153.825C273.491 153.926 273.586 154.005 273.697 154.052C273.774 154.083 273.856 154.1 273.938 154.102C274.058 154.099 274.175 154.061 274.274 153.993C274.371 153.926 274.448 153.833 274.496 153.725C274.525 153.648 274.54 153.567 274.542 153.485L274.587 140.94C274.586 140.845 274.574 140.75 274.551 140.658C274.526 140.571 274.491 140.487 274.447 140.408L266.034 126.174L265.885 125.884C265.632 125.449 265.225 125.125 264.745 124.976C264.271 124.816 263.754 124.835 263.293 125.03L263.12 125.116C262.734 125.289 262.423 125.596 262.244 125.979C262.187 126.369 262.286 126.766 262.521 127.082C263.996 129.639 266.016 132.168 268.032 134.687C269.725 136.803 271.414 138.915 272.808 141.044C272.931 141.236 272.998 141.46 272.998 141.689V141.698ZM270.933 153.503L270.615 142.079C269.303 140.095 267.737 138.138 266.166 136.177C264.092 133.58 262.008 130.973 260.446 128.267C260.158 127.834 259.964 127.345 259.878 126.832C259.792 126.318 259.815 125.793 259.947 125.289C260.288 124.303 260.999 123.488 261.931 123.019C262.058 122.946 262.189 122.883 262.317 122.824C263.317 122.39 264.442 122.335 265.48 122.669C266.518 123.003 267.399 123.704 267.959 124.64C268.023 124.749 268.077 124.858 268.132 124.967L276.517 139.151C276.67 139.415 276.788 139.699 276.866 139.995C276.945 140.291 276.983 140.597 276.98 140.903L276.934 153.444C276.941 153.844 276.863 154.242 276.707 154.611C276.399 155.347 275.812 155.931 275.074 156.234C274.336 156.537 273.508 156.534 272.771 156.227C272.237 155.998 271.78 155.619 271.458 155.135C271.135 154.652 270.961 154.084 270.955 153.503H270.933Z" fill="#3B3B3B"/>
<path fill-rule="evenodd" clip-rule="evenodd" d="M255.834 123.206C256.577 123.584 257.398 123.781 258.231 123.781C259.065 123.781 259.886 123.584 260.628 123.206C261.949 122.443 261.949 121.204 260.628 120.441C259.886 120.062 259.065 119.865 258.231 119.865C257.398 119.865 256.577 120.062 255.834 120.441C254.509 121.217 254.513 122.457 255.834 123.206Z" fill="white"/>
<path fill-rule="evenodd" clip-rule="evenodd" d="M256.443 122.173C256.995 122.456 257.61 122.596 258.231 122.581C258.852 122.598 259.468 122.458 260.02 122.173L260.074 122.141C260.203 122.071 260.313 121.971 260.397 121.85V121.846C260.298 121.711 260.169 121.602 260.02 121.528C259.462 121.259 258.851 121.119 258.231 121.119C257.612 121.119 257 121.259 256.443 121.528C256.293 121.602 256.164 121.711 256.066 121.846C256.163 121.982 256.293 122.093 256.443 122.168V122.173ZM258.231 125.015C257.183 125.028 256.148 124.773 255.226 124.275C254.708 123.989 254.273 123.572 253.964 123.067C253.741 122.697 253.623 122.273 253.623 121.841C253.623 121.409 253.741 120.985 253.964 120.615C254.271 120.108 254.706 119.69 255.226 119.403C256.153 118.917 257.184 118.663 258.231 118.663C259.278 118.663 260.309 118.917 261.236 119.403C261.756 119.69 262.191 120.108 262.498 120.615C262.722 120.985 262.841 121.409 262.841 121.841C262.841 122.273 262.722 122.697 262.498 123.067C262.207 123.549 261.798 123.949 261.309 124.229L261.241 124.275C260.318 124.777 259.282 125.035 258.231 125.024V125.015Z" fill="#3D6680"/>
<path fill-rule="evenodd" clip-rule="evenodd" d="M268.001 156.804L267.306 181.635C267.313 181.743 267.313 181.85 267.306 181.958L266.312 202.326C266.312 202.944 266.067 203.536 265.63 203.973C265.193 204.41 264.601 204.655 263.983 204.655C263.366 204.655 262.773 204.41 262.337 203.973C261.9 203.536 261.654 202.944 261.654 202.326L260.66 181.967C260.66 181.858 260.66 181.744 260.66 181.635L259.639 166.048L257.719 167.161L256.357 187.983C256.363 188.092 256.363 188.201 256.357 188.31L255.362 208.673C255.362 209.291 255.117 209.883 254.68 210.32C254.244 210.757 253.651 211.002 253.034 211.002C252.416 211.002 251.824 210.757 251.387 210.32C250.95 209.883 250.705 209.291 250.705 208.673L249.711 188.319C249.711 188.21 249.711 188.096 249.711 187.987L248.989 164.754C248.285 159.937 265.431 149.489 268.001 156.804Z" fill="#2B7CFF"/>
<path fill-rule="evenodd" clip-rule="evenodd" d="M269.195 156.871C268.741 172.453 268.25 186.805 267.492 202.315C267.494 203.013 267.288 203.696 266.9 204.277C266.513 204.858 265.962 205.311 265.317 205.578C264.672 205.845 263.962 205.914 263.278 205.777C262.593 205.64 261.965 205.303 261.473 204.808C261.144 204.481 260.883 204.093 260.705 203.665C260.526 203.237 260.434 202.779 260.433 202.315C260.569 193.139 259.321 180.026 258.676 170.237L257.514 187.972C257.251 194.855 256.838 201.775 256.502 208.663C256.502 209.598 256.13 210.496 255.469 211.157C254.807 211.819 253.91 212.19 252.974 212.19C252.039 212.19 251.142 211.819 250.48 211.157C249.819 210.496 249.447 209.598 249.447 208.663L248.457 188.39C247.817 180.971 247.953 172.381 247.722 164.821C247.45 162.269 250.718 158.732 254.777 156.244C256.38 155.25 258.09 154.439 259.875 153.829C261.471 153.244 263.173 153.006 264.868 153.129C266.866 153.361 268.418 154.355 269.14 156.398C269.19 156.544 269.212 156.698 269.204 156.852L269.195 156.871ZM266.108 181.588L266.798 157.002C266.603 156.574 266.293 156.208 265.903 155.945C265.513 155.682 265.057 155.532 264.587 155.513C263.239 155.428 261.889 155.628 260.624 156.099C259.014 156.654 257.471 157.388 256.025 158.287C252.648 160.362 249.896 163.009 250.123 164.58V164.703C250.577 179.364 250.95 194.011 251.862 208.653C251.861 208.803 251.89 208.951 251.947 209.089C252.004 209.227 252.088 209.352 252.194 209.457C252.297 209.563 252.421 209.646 252.557 209.703C252.694 209.76 252.84 209.789 252.988 209.789C253.136 209.789 253.283 209.76 253.421 209.703C253.558 209.646 253.682 209.562 253.787 209.457C253.892 209.354 253.976 209.23 254.033 209.093C254.09 208.957 254.119 208.81 254.118 208.663C255.167 195.831 255.648 180.058 256.497 167.068C256.51 166.872 256.571 166.682 256.675 166.515C256.779 166.348 256.922 166.209 257.092 166.11L258.989 165.011C259.166 164.906 259.366 164.848 259.572 164.842C259.777 164.837 259.98 164.884 260.162 164.979C260.344 165.074 260.499 165.214 260.612 165.386C260.724 165.558 260.791 165.756 260.805 165.96C261.604 178.16 262.081 190.124 262.844 202.311C262.842 202.458 262.87 202.605 262.925 202.742C262.98 202.88 263.062 203.004 263.166 203.11C263.379 203.322 263.667 203.441 263.967 203.441C264.268 203.441 264.556 203.322 264.768 203.11C264.874 203.006 264.958 202.882 265.014 202.746C265.071 202.61 265.1 202.463 265.1 202.315C265.645 195.804 265.981 188.136 266.099 181.588H266.108Z" fill="#414141"/>
<path fill-rule="evenodd" clip-rule="evenodd" d="M268.596 155.238L266.326 144.287L267.429 127.124C267.57 126.466 266.657 124.268 265.786 123.76C265.032 123.312 264.173 123.071 263.297 123.061C262.42 123.051 261.556 123.271 260.792 123.701L250.973 129.326C250.301 129.703 249.306 130.57 249.502 131.401L250.864 149.989L247.922 162.702C247.722 163.551 248.299 164.169 249.025 164.591C249.875 165.023 250.814 165.248 251.767 165.248C252.72 165.248 253.659 165.023 254.509 164.591L266.203 157.84C267.156 157.263 268.872 156.559 268.596 155.238Z" fill="white"/>
<path fill-rule="evenodd" clip-rule="evenodd" d="M267.415 155.445L265.145 144.548C265.127 144.444 265.119 144.339 265.123 144.234L266.23 127.067V126.89C266.153 126.498 266.012 126.12 265.813 125.773C265.668 125.411 265.445 125.085 265.159 124.82C264.568 124.478 263.899 124.294 263.216 124.284C262.581 124.267 261.953 124.424 261.4 124.738C258.15 126.595 254.786 128.67 251.495 130.409C251.207 130.574 250.956 130.795 250.755 131.058C250.709 131.122 250.664 131.095 250.668 131.126C250.688 131.207 250.699 131.289 250.7 131.372L252.062 149.905C252.069 150.043 252.055 150.181 252.021 150.314L249.093 162.95C249.082 162.973 249.077 162.999 249.077 163.025C249.077 163.05 249.082 163.076 249.093 163.1C249.225 163.29 249.401 163.445 249.606 163.554C250.274 163.876 251.007 164.044 251.749 164.044C252.491 164.044 253.223 163.876 253.892 163.554L265.586 156.802L265.99 156.575C266.603 156.244 267.433 155.79 267.374 155.504V155.458L267.415 155.445ZM267.533 144.216L269.767 155C270.189 157.025 268.455 157.969 267.184 158.664L266.839 158.859L255.14 165.61C254.109 166.15 252.963 166.432 251.799 166.432C250.635 166.432 249.489 166.15 248.458 165.61C247.889 165.304 247.411 164.855 247.068 164.307C246.728 163.738 246.627 163.057 246.787 162.414L249.688 149.905L248.326 131.585C248.272 131.249 248.289 130.906 248.374 130.578C248.459 130.249 248.611 129.941 248.821 129.673C249.226 129.134 249.733 128.681 250.314 128.339L260.211 122.668C261.137 122.131 262.192 121.86 263.261 121.882C264.355 121.892 265.428 122.185 266.376 122.731C267.078 123.235 267.631 123.919 267.978 124.711C268.39 125.488 268.609 126.352 268.618 127.231L267.533 144.216Z" fill="#414141"/>
<path fill-rule="evenodd" clip-rule="evenodd" d="M260.9 121.19H255.562L255.171 126.267C255.167 126.319 255.167 126.373 255.171 126.425C255.197 126.696 255.295 126.955 255.455 127.176C255.614 127.396 255.83 127.57 256.079 127.679C256.753 128.021 257.498 128.2 258.254 128.2C259.01 128.2 259.755 128.021 260.428 127.679C260.678 127.57 260.893 127.396 261.053 127.176C261.213 126.955 261.31 126.696 261.336 126.425C261.341 126.373 261.341 126.319 261.336 126.267L260.9 121.19Z" fill="white"/>
<path fill-rule="evenodd" clip-rule="evenodd" d="M259.789 122.394H256.675L256.361 126.408C256.446 126.504 256.547 126.584 256.661 126.644L256.706 126.671C257.181 126.901 257.704 127.015 258.232 127.003C258.777 127.017 259.317 126.894 259.802 126.644L259.857 126.617C259.949 126.561 260.032 126.49 260.102 126.408L259.789 122.394ZM255.562 119.992H260.901C261.204 119.993 261.495 120.107 261.717 120.314C261.938 120.52 262.073 120.803 262.095 121.105C262.236 122.871 262.399 124.655 262.504 126.426C262.498 126.916 262.339 127.392 262.05 127.788C261.79 128.138 261.463 128.433 261.087 128.655L261.015 128.701C260.175 129.138 259.243 129.37 258.296 129.377C257.349 129.384 256.413 129.166 255.567 128.741L255.485 128.701C255.08 128.474 254.728 128.164 254.45 127.793C254.159 127.398 254.001 126.921 253.996 126.43C254.205 124.737 254.268 122.875 254.4 121.159C254.408 120.853 254.533 120.561 254.749 120.344C254.965 120.127 255.256 120.001 255.562 119.992Z" fill="#414141"/>
<path fill-rule="evenodd" clip-rule="evenodd" d="M260.424 121.892C259.745 122.237 258.993 122.417 258.231 122.417C257.47 122.417 256.718 122.237 256.039 121.892C254.827 121.189 254.822 120.076 256.039 119.354C256.719 119.01 257.471 118.83 258.234 118.83C258.996 118.83 259.748 119.01 260.429 119.354C261.641 120.058 261.636 121.189 260.424 121.892Z" fill="white"/>
<path fill-rule="evenodd" clip-rule="evenodd" d="M261.033 122.941C260.17 123.397 259.208 123.635 258.232 123.635C257.256 123.635 256.294 123.397 255.431 122.941C254.939 122.674 254.527 122.28 254.237 121.801C254.025 121.443 253.913 121.036 253.91 120.62C253.912 120.206 254.025 119.8 254.237 119.444C254.528 118.966 254.94 118.573 255.431 118.305C256.295 117.849 257.257 117.61 258.234 117.61C259.211 117.61 260.173 117.849 261.037 118.305L261.115 118.355C261.571 118.618 261.954 118.993 262.227 119.444C262.436 119.801 262.547 120.207 262.549 120.62C262.552 121.036 262.44 121.444 262.227 121.801L262.168 121.892C261.882 122.329 261.492 122.69 261.033 122.941ZM258.232 121.197C258.782 121.214 259.327 121.09 259.816 120.838C259.922 120.785 260.018 120.712 260.098 120.625C260.034 120.55 259.959 120.485 259.875 120.434L259.816 120.407C259.327 120.155 258.782 120.031 258.232 120.048C257.679 120.031 257.131 120.155 256.639 120.407C256.536 120.461 256.443 120.533 256.366 120.62C256.446 120.71 256.541 120.784 256.648 120.838C257.136 121.091 257.682 121.215 258.232 121.197Z" fill="#1A87C7"/>
<path fill-rule="evenodd" clip-rule="evenodd" d="M258.232 107.375C261.114 107.375 263.847 109.686 263.589 112.578L263.021 118.935C262.78 121.609 261.323 124.138 258.245 124.138C255.299 124.138 253.742 121.786 253.474 118.935L252.875 112.578C252.607 109.731 255.286 107.375 258.232 107.375Z" fill="white"/>
<path fill-rule="evenodd" clip-rule="evenodd" d="M258.231 106.179C258.427 106.179 258.626 106.179 258.822 106.206H258.944C260.442 106.371 261.845 107.018 262.944 108.049C263.522 108.573 263.986 109.211 264.307 109.923C264.627 110.635 264.797 111.405 264.805 112.186C264.806 112.348 264.799 112.51 264.782 112.671L264.215 119.028C264.117 120.698 263.48 122.292 262.399 123.568C261.863 124.126 261.221 124.569 260.51 124.872C259.799 125.175 259.034 125.331 258.261 125.331C257.488 125.331 256.723 125.175 256.012 124.872C255.301 124.569 254.658 124.126 254.123 123.568C253.043 122.291 252.406 120.698 252.307 119.028L251.708 112.644C251.708 112.458 251.681 112.299 251.681 112.19C251.691 111.421 251.857 110.663 252.169 109.96C252.481 109.258 252.933 108.626 253.497 108.104C254.62 107.037 256.068 106.377 257.61 106.229C257.85 106.229 258.063 106.197 258.25 106.197L258.231 106.179ZM258.617 108.599C258.489 108.592 258.36 108.592 258.231 108.599C258.064 108.599 257.927 108.599 257.818 108.599C256.815 108.696 255.873 109.124 255.14 109.816C254.808 110.117 254.54 110.483 254.354 110.891C254.167 111.3 254.066 111.741 254.055 112.19C254.118 114.301 254.464 116.69 254.663 118.819C254.721 119.964 255.144 121.061 255.871 121.947C256.183 122.26 256.553 122.507 256.961 122.677C257.369 122.846 257.806 122.933 258.247 122.933C258.689 122.933 259.126 122.846 259.534 122.677C259.941 122.507 260.312 122.26 260.624 121.947C261.35 121.064 261.773 119.97 261.831 118.828C262.027 116.653 262.308 114.374 262.403 112.204C262.393 111.75 262.291 111.304 262.102 110.892C261.913 110.479 261.642 110.11 261.305 109.806C260.591 109.138 259.68 108.717 258.708 108.608L258.617 108.599Z" fill="#414141"/>
<path fill-rule="evenodd" clip-rule="evenodd" d="M260.278 120.672C256.461 120.545 257.868 113.78 252.874 111.809C252.833 106.002 263.533 104.853 264.269 113.367C264.6 117.226 264.096 120.795 260.278 120.672Z" fill="white"/>
<path fill-rule="evenodd" clip-rule="evenodd" d="M260.243 121.846C257.591 121.76 256.833 119.789 255.962 117.51C255.285 115.749 254.514 113.724 252.434 112.906C252.198 112.812 251.997 112.645 251.861 112.43C251.725 112.215 251.66 111.962 251.676 111.708C251.676 109.301 253.147 107.54 255.117 106.645C256.025 106.244 257.002 106.026 257.994 106.004C258.986 105.982 259.972 106.157 260.896 106.518C263.216 107.426 265.146 109.592 265.463 113.247C265.645 115.335 265.586 117.379 264.937 118.945C264.183 120.761 262.753 121.928 260.243 121.846ZM258.204 116.657C258.772 118.137 259.262 119.417 260.315 119.453C261.623 119.494 262.354 118.931 262.726 118.037C263.18 116.893 263.225 115.217 263.071 113.451C262.848 110.854 261.555 109.365 260.016 108.743C259.39 108.497 258.722 108.377 258.05 108.392C257.379 108.407 256.716 108.556 256.102 108.829C255.625 109.025 255.2 109.329 254.86 109.718C254.521 110.106 254.276 110.568 254.146 111.067C256.566 112.398 257.433 114.668 258.204 116.675V116.657Z" fill="#414141"/>
<path fill-rule="evenodd" clip-rule="evenodd" d="M263.406 113.139C262.577 113.141 261.783 113.471 261.197 114.058C260.611 114.644 260.281 115.438 260.278 116.267V128.249C260.282 129.077 260.613 129.87 261.199 130.456C261.785 131.041 262.578 131.37 263.406 131.373C264.233 131.369 265.026 131.039 265.611 130.454C266.196 129.869 266.526 129.076 266.529 128.249V116.267C266.527 115.439 266.197 114.645 265.612 114.059C265.027 113.473 264.234 113.142 263.406 113.139Z" fill="white"/>
<path fill-rule="evenodd" clip-rule="evenodd" d="M263.406 114.341C262.896 114.343 262.407 114.546 262.047 114.907C261.686 115.267 261.483 115.756 261.482 116.266V128.249C261.482 128.759 261.684 129.249 262.045 129.61C262.406 129.971 262.896 130.174 263.406 130.174C263.917 130.174 264.406 129.971 264.767 129.61C265.128 129.249 265.331 128.759 265.331 128.249V116.266C265.328 115.757 265.124 115.269 264.763 114.909C264.403 114.549 263.916 114.345 263.406 114.341ZM260.347 113.211C260.952 112.608 261.723 112.198 262.561 112.032C263.399 111.866 264.268 111.951 265.057 112.278C265.847 112.605 266.522 113.158 266.998 113.867C267.474 114.577 267.73 115.412 267.733 116.266V128.249C267.733 129.396 267.277 130.497 266.466 131.308C265.654 132.12 264.554 132.576 263.406 132.576C262.259 132.576 261.159 132.12 260.347 131.308C259.536 130.497 259.08 129.396 259.08 128.249V116.266C259.082 115.123 259.538 114.028 260.347 113.22V113.211Z" fill="#414141"/>
<path fill-rule="evenodd" clip-rule="evenodd" d="M261.473 163.571C261.609 163.492 261.759 163.441 261.915 163.421C262.07 163.4 262.229 163.41 262.38 163.451C262.532 163.491 262.674 163.561 262.799 163.657C262.924 163.752 263.029 163.871 263.107 164.007C263.186 164.143 263.237 164.293 263.258 164.449C263.278 164.605 263.268 164.763 263.228 164.915C263.187 165.066 263.117 165.209 263.022 165.333C262.926 165.458 262.807 165.563 262.671 165.642L258.282 168.18C258.145 168.268 257.993 168.327 257.833 168.355C257.673 168.382 257.509 168.376 257.352 168.339C257.194 168.301 257.046 168.231 256.916 168.134C256.785 168.038 256.676 167.915 256.595 167.775C256.513 167.635 256.461 167.48 256.442 167.319C256.422 167.158 256.435 166.994 256.48 166.839C256.525 166.683 256.602 166.538 256.705 166.413C256.807 166.287 256.935 166.184 257.079 166.109L261.473 163.571Z" fill="#1A87C7"/>
<path fill-rule="evenodd" clip-rule="evenodd" d="M253.95 135.24L242.814 148.966C242.567 149.31 242.229 149.579 241.837 149.741C241.445 149.903 241.016 149.952 240.598 149.882C240.18 149.813 239.79 149.628 239.471 149.348C239.153 149.068 238.919 148.704 238.797 148.298L234.711 136.725C234.596 136.499 234.529 136.252 234.515 135.998C234.5 135.745 234.539 135.492 234.629 135.255C234.719 135.017 234.857 134.802 235.036 134.621C235.214 134.441 235.428 134.3 235.664 134.207C235.9 134.114 236.153 134.072 236.406 134.083C236.659 134.094 236.908 134.158 237.135 134.271C237.362 134.383 237.563 134.542 237.725 134.738C237.887 134.933 238.006 135.16 238.075 135.404L241.348 142.864L249.129 131.317L250.119 130.255L253.95 135.24Z" fill="white"/>
<path fill-rule="evenodd" clip-rule="evenodd" d="M251.572 136.26C251.777 136.03 252.064 135.889 252.371 135.864C252.678 135.84 252.983 135.935 253.221 136.13C253.46 136.324 253.615 136.603 253.654 136.909C253.692 137.215 253.612 137.524 253.429 137.772L243.777 149.667C243.584 149.931 243.355 150.166 243.096 150.367C242.838 150.567 242.552 150.729 242.247 150.848C242.143 150.889 242.043 150.925 241.934 150.957C241.103 151.193 240.214 151.113 239.439 150.731C238.664 150.35 238.059 149.694 237.739 148.891C236.378 144.964 234.902 141.041 233.59 137.086C233.388 136.55 233.344 135.967 233.463 135.406C233.585 134.824 233.879 134.293 234.307 133.881L234.335 133.853C234.618 133.581 234.953 133.368 235.32 133.227C235.867 133.016 236.465 132.97 237.038 133.094C237.612 133.218 238.136 133.507 238.548 133.926C238.822 134.205 239.038 134.535 239.183 134.898L241.553 140.292L241.98 139.601C244.476 135.515 248.449 129.041 250.896 127.992C251.187 127.868 251.517 127.865 251.811 127.983C252.105 128.102 252.34 128.333 252.464 128.625C252.588 128.917 252.591 129.246 252.472 129.541C252.353 129.835 252.123 130.07 251.831 130.194C250.092 130.943 246.383 137.004 244.022 140.85C243.351 141.944 242.788 142.866 242.379 143.474C242.251 143.677 242.064 143.836 241.843 143.928C241.553 144.055 241.223 144.061 240.928 143.945C240.633 143.829 240.396 143.601 240.268 143.311L236.972 135.801C236.943 135.725 236.898 135.655 236.841 135.597C236.755 135.513 236.648 135.455 236.532 135.429C236.418 135.395 236.296 135.395 236.182 135.429C236.113 135.454 236.049 135.495 235.996 135.547C235.909 135.63 235.851 135.738 235.828 135.856C235.796 135.961 235.796 136.073 235.828 136.178C237.308 139.987 238.429 144.214 239.973 147.951C240.07 148.197 240.254 148.398 240.491 148.516C240.727 148.635 240.998 148.661 241.253 148.591L241.371 148.55C241.466 148.514 241.555 148.463 241.635 148.401C241.713 148.339 241.783 148.267 241.843 148.187L251.572 136.26Z" fill="#414141"/>
<path fill-rule="evenodd" clip-rule="evenodd" d="M274.954 154.878L272.509 154.53C272.396 154.513 272.28 154.518 272.168 154.545C272.056 154.572 271.951 154.62 271.859 154.686C271.767 154.752 271.689 154.836 271.63 154.932C271.571 155.028 271.532 155.134 271.516 155.244V155.297L270.949 158.838C270.926 158.983 270.941 159.131 270.994 159.268C271.047 159.405 271.136 159.526 271.252 159.62L271.645 159.929V162.727C271.645 162.949 271.736 163.163 271.898 163.32C272.06 163.478 272.28 163.566 272.509 163.566H272.604C273.221 163.554 273.814 163.326 274.273 162.924C274.74 162.505 275.142 161.805 275.49 160.551C275.856 159.414 275.961 158.214 275.798 157.034C275.773 156.643 275.739 156.175 275.714 155.674C275.705 155.479 275.626 155.293 275.491 155.148C275.356 155.003 275.173 154.91 274.973 154.883L274.954 154.878ZM273.105 156.325L274.005 156.45C274.005 156.721 274.034 156.933 274.044 157.145C274.188 158.143 274.101 159.16 273.791 160.122C273.693 160.523 273.552 160.912 273.369 161.284V159.562C273.371 159.434 273.344 159.307 273.289 159.191C273.234 159.075 273.153 158.973 273.051 158.891L272.723 158.631L273.105 156.325Z" fill="#3C3C3C"/>
</svg>
