<svg width="229" height="228" viewBox="0 0 229 228" fill="none" xmlns="http://www.w3.org/2000/svg">
<path d="M93.0114 169.407C93.0114 180.36 75.5582 189.24 54.0287 189.24C32.4991 189.24 15.0459 180.36 15.0459 169.407C15.0459 163.281 20.5035 157.805 29.0797 154.166C35.8401 151.299 44.5383 149.573 54.0287 149.573C75.5582 149.573 93.0114 158.453 93.0114 169.407Z" fill="#E8E8E8"/>
<path d="M119 142.735C119 148.779 107.977 153.678 94.3795 153.678C80.7818 153.678 69.7588 148.779 69.7588 142.735C69.7588 139.356 73.2057 136.334 78.6222 134.327C82.892 132.745 88.3856 131.793 94.3795 131.793C107.977 131.793 119 136.692 119 142.735Z" fill="#E8E8E8"/>
<path fill-rule="evenodd" clip-rule="evenodd" d="M61.4141 147.192L69.5633 151.899C70.4833 139.656 78.0642 126.78 88.5932 120.414C92.9234 118.038 97.4457 116.644 102.087 119.073C98.7133 117.126 93.7902 113.614 90.3432 113.185C86.794 112.743 83.4861 114.043 80.448 115.708C69.915 122.078 62.3382 134.954 61.4141 147.192Z" fill="#2B7CFF"/>
<path fill-rule="evenodd" clip-rule="evenodd" d="M62.5923 146.583L68.6235 150.067C69.4273 144.108 71.4602 138.381 74.5934 133.249C77.9994 127.61 82.6322 122.708 88.0173 119.441L88.0582 119.416C90.3235 118.189 92.6582 117.179 95.0584 116.815C95.3856 116.766 95.7127 116.73 96.0398 116.701C93.9503 115.503 91.8527 114.477 90.209 114.272C88.6311 114.094 87.0334 114.241 85.5149 114.706C83.9379 115.193 82.4188 115.851 80.9844 116.668H80.9516C75.9223 119.739 71.5757 124.359 68.3618 129.683C65.2122 134.814 63.2416 140.581 62.5923 146.566V146.583ZM69.0038 152.863L60.9118 148.19C60.7156 148.089 60.5533 147.933 60.445 147.742C60.3367 147.55 60.2872 147.33 60.3026 147.11C60.781 140.768 62.9931 134.267 66.4359 128.547C69.8216 122.937 74.4216 118.054 79.774 114.787L79.8967 114.71C81.4753 113.816 83.1467 113.098 84.8811 112.567C86.6882 112.016 88.5891 111.84 90.4666 112.052C93.3983 112.416 97.107 114.706 100.251 116.648C101.069 117.159 101.887 117.645 102.635 118.087C102.894 118.23 103.085 118.469 103.167 118.753C103.249 119.037 103.215 119.341 103.073 119.6C102.93 119.859 102.691 120.05 102.407 120.132C102.123 120.214 101.818 120.18 101.56 120.037H101.515C99.632 119.051 97.4796 118.702 95.3815 119.044C93.2797 119.367 91.1821 120.271 89.1254 121.391C84.0756 124.462 79.7209 129.086 76.4988 134.422C73.2276 139.857 71.1218 146.01 70.668 152.005C70.6568 152.173 70.6064 152.337 70.5208 152.483C70.3674 152.732 70.123 152.911 69.8396 152.982C69.5562 153.053 69.2563 153.01 69.0038 152.863Z" fill="#414141"/>
<path fill-rule="evenodd" clip-rule="evenodd" d="M96.5249 92.1394C94.047 90.7082 88.5188 87.016 86.2576 86.7379C75.2175 85.3599 63.1593 109.26 72.5066 114.919L80.6558 119.625C70.409 113.124 85.7956 86.513 96.5249 92.1394Z" fill="white"/>
<path fill-rule="evenodd" clip-rule="evenodd" d="M95.1152 89.9892C95.8634 90.4472 96.5381 90.8561 97.0819 91.1709C97.3235 91.322 97.4981 91.5598 97.57 91.8355C97.642 92.1112 97.6058 92.4039 97.4688 92.6538C97.3318 92.9037 97.1046 93.0917 96.8334 93.1794C96.5623 93.2671 96.268 93.2478 96.0106 93.1254C92.8663 91.4899 89.1249 93.1745 85.9192 96.3475C82.6289 99.6837 80.2448 103.805 78.9925 108.32C77.8476 112.687 78.2442 116.772 81.2537 118.681C81.494 118.84 81.6636 119.086 81.7269 119.367C81.7902 119.648 81.7424 119.943 81.5935 120.189C81.4446 120.436 81.206 120.615 80.9278 120.69C80.6496 120.765 80.3532 120.729 80.1006 120.591C77.3897 119.033 74.6092 117.479 71.9228 115.872C69.543 114.433 68.3572 112.016 68.0914 109.142C67.8257 106.267 68.5003 102.963 69.8006 99.7372C71.1065 96.5144 72.9618 93.5426 75.2839 90.9542C78.5141 87.4214 82.4681 85.1397 86.3894 85.6386C88.3889 85.888 92.2774 88.2678 95.107 90.0015L95.1152 89.9892ZM91.5578 90.439C89.4234 89.1755 87.2276 87.9856 86.1277 87.8466C83.0037 87.4377 79.7122 89.429 76.944 92.4589C74.7983 94.8516 73.0853 97.5995 71.8819 100.58C70.7002 103.495 70.0909 106.455 70.3199 108.945C70.5162 111.121 71.3748 112.928 73.0717 113.963L76.6537 116.007C75.9136 113.599 76.0567 110.691 76.8377 107.731C78.1926 102.831 80.7767 98.358 84.3449 94.7364C86.5693 92.5571 89.0554 90.9746 91.5578 90.4513V90.439Z" fill="#414141"/>
<path fill-rule="evenodd" clip-rule="evenodd" d="M102.087 119.074C94.6371 114.772 82.5585 121.752 75.1002 134.653C71.9354 140.132 69.8787 146.253 69.5557 151.92L107.624 129.942C107.296 124.627 105.252 120.881 102.087 119.074Z" fill="white"/>
<path fill-rule="evenodd" clip-rule="evenodd" d="M101.53 120.019C98.1813 118.085 93.6958 118.735 89.1571 121.356L89.0998 121.389C84.3976 124.116 79.6953 128.933 76.0725 135.189L76.0357 135.246C74.4932 137.917 73.2365 140.743 72.2862 143.677C71.6304 145.69 71.1583 147.758 70.8755 149.856L106.478 129.297C106.334 127.377 105.829 125.501 104.989 123.768C104.233 122.204 103.034 120.897 101.542 120.007L101.53 120.019ZM88.0367 119.426C93.2624 116.408 98.5412 115.746 102.638 118.089C104.506 119.188 106.011 120.81 106.968 122.754C108.04 124.971 108.644 127.384 108.743 129.844C108.754 130.051 108.708 130.256 108.61 130.438C108.512 130.62 108.366 130.771 108.187 130.875L70.1599 152.82C69.9608 152.952 69.7238 153.016 69.4853 153C69.3391 152.992 69.196 152.956 69.064 152.892C68.9321 152.829 68.8139 152.74 68.7163 152.631C68.6186 152.522 68.5435 152.395 68.4951 152.257C68.4468 152.119 68.4261 151.973 68.4344 151.827C68.63 148.818 69.2057 145.846 70.1477 142.982C71.1463 139.9 72.4675 136.931 74.0894 134.126L74.1221 134.06C77.9289 127.469 82.9378 122.37 87.959 119.455L88.0367 119.426Z" fill="#414141"/>
<path fill-rule="evenodd" clip-rule="evenodd" d="M99.8098 99.4015C99.8098 95.8237 98.5545 93.309 96.5386 92.1395C94.5228 90.9701 91.6974 91.1378 88.602 92.9246C85.5067 94.7115 82.6976 97.7823 80.6695 101.299C78.6414 104.815 77.3779 108.781 77.3779 112.339C77.3779 115.896 78.6373 118.431 80.6695 119.605C87.6984 123.69 99.8098 110.895 99.8098 99.4015Z" fill="white"/>
<path fill-rule="evenodd" clip-rule="evenodd" d="M98.7101 99.4019C98.7464 98.0297 98.4914 96.6653 97.9619 95.3989C97.5806 94.4321 96.8832 93.623 95.9833 93.1032C95.0834 92.5835 94.034 92.3838 93.0061 92.5366C91.6448 92.7107 90.3361 93.172 89.1666 93.8901C87.6677 94.7794 86.3055 95.8812 85.1226 97.1612C82.437 100.024 80.4412 103.463 79.2877 107.216V107.257C78.7851 108.906 78.5194 110.619 78.4986 112.343C78.4628 113.717 78.7178 115.082 79.2469 116.351C79.6481 117.305 80.3408 118.108 81.2259 118.644C81.9585 119.059 82.7882 119.273 83.6302 119.262C85.5765 119.262 87.7641 118.264 89.8494 116.62C92.1919 114.713 94.1594 112.386 95.6516 109.759C97.5039 106.549 98.706 102.898 98.706 99.3856L98.7101 99.4019ZM99.9982 94.4952C100.656 96.0459 100.979 97.7179 100.947 99.4019C100.947 103.319 99.622 107.363 97.5857 110.892C95.9527 113.762 93.7992 116.302 91.2356 118.383C88.7822 120.333 86.0999 121.515 83.6343 121.515C82.3995 121.525 81.1843 121.206 80.1137 120.591C78.8223 119.823 77.8084 118.665 77.2187 117.283C76.5573 115.733 76.2326 114.061 76.266 112.376C76.2863 110.435 76.5852 108.507 77.1533 106.652V106.607C78.4044 102.511 80.5734 98.7547 83.4952 95.6238C84.8269 94.196 86.3552 92.9651 88.034 91.9682C89.482 91.0946 91.0984 90.5372 92.7771 90.3327C94.2692 90.1331 95.7853 90.4328 97.0893 91.185C98.3932 91.9372 99.4117 93.0996 99.9859 94.4911L99.9982 94.4952Z" fill="#414141"/>
<path fill-rule="evenodd" clip-rule="evenodd" d="M40.0649 148.411C44.3909 146.039 48.9174 144.641 53.5583 147.07C50.185 145.123 45.2619 141.611 41.8149 141.182C38.2657 140.74 34.9578 142.04 31.9156 143.709C21.3866 150.1 13.8058 162.972 12.8857 175.193L21.0186 179.916C21.955 167.678 29.5359 154.802 40.0649 148.411Z" fill="#2B7CFF"/>
<path fill-rule="evenodd" clip-rule="evenodd" d="M39.5305 147.433C41.7957 146.206 44.1264 145.2 46.5307 144.836C46.8537 144.787 47.1808 144.746 47.512 144.722C45.4185 143.52 43.3209 142.493 41.6812 142.293C40.1051 142.105 38.507 142.244 36.9871 142.702C35.4099 143.189 33.8907 143.847 32.4566 144.665H32.4239C27.3904 147.739 23.048 152.356 19.83 157.68C16.6845 162.814 14.7142 168.581 14.0605 174.567L20.0958 178.051C20.8951 172.091 22.9284 166.363 26.0656 161.233C29.4717 155.594 34.1004 150.692 39.4896 147.425L39.5305 147.396V147.433ZM46.8619 147.044C44.7602 147.363 42.6626 148.271 40.6018 149.391C35.556 152.458 31.1972 157.087 27.9792 162.423C24.7081 167.853 22.5982 174.011 22.1484 180.005C22.1333 180.171 22.0831 180.331 22.0012 180.475C21.8533 180.731 21.6102 180.917 21.3251 180.994C21.04 181.071 20.7362 181.031 20.4801 180.884L12.4086 176.227C12.2048 176.131 12.035 175.975 11.9218 175.78C11.8086 175.585 11.7574 175.36 11.7748 175.135C12.2491 168.793 14.4612 162.292 17.9082 156.567C21.3061 150.966 25.9266 146.059 31.2422 142.808L31.3649 142.731C32.9421 141.833 34.6138 141.113 36.3493 140.584C38.1563 140.032 40.0576 139.858 41.9348 140.073C44.8624 140.437 48.5711 142.726 51.7196 144.669C52.5373 145.176 53.3551 145.666 54.0993 146.104C54.3409 146.255 54.5155 146.493 54.5874 146.768C54.6594 147.044 54.6231 147.337 54.4862 147.587C54.3492 147.837 54.1219 148.025 53.8508 148.112C53.5797 148.2 53.2854 148.181 53.028 148.058L52.983 148.034C51.1041 147.049 48.9556 146.701 46.8619 147.044Z" fill="#414141"/>
<path fill-rule="evenodd" clip-rule="evenodd" d="M48.0062 120.156C45.5324 118.725 40.0042 115.036 37.743 114.754C26.7029 113.38 14.6446 137.276 23.9919 142.939L32.1371 147.641C21.882 141.152 37.2687 114.533 48.0062 120.156Z" fill="white"/>
<path fill-rule="evenodd" clip-rule="evenodd" d="M46.587 118.005C47.3353 118.463 48.0059 118.876 48.5538 119.191C48.8008 119.34 48.9806 119.578 49.0555 119.857C49.1304 120.135 49.0946 120.432 48.9556 120.685C48.8165 120.938 48.5851 121.127 48.3097 121.212C48.0343 121.298 47.7364 121.274 47.4784 121.145C44.334 119.51 40.5968 121.19 37.3869 124.363C34.1008 127.703 31.7185 131.825 30.4644 136.34C29.3195 140.707 29.7161 144.791 32.7256 146.701C32.9613 146.862 33.1263 147.108 33.1865 147.387C33.2468 147.666 33.1978 147.958 33.0495 148.202C32.9013 148.446 32.6651 148.624 32.3896 148.699C32.1141 148.774 31.8202 148.741 31.5684 148.606C29.3358 147.31 25.2878 145.302 23.3905 143.892C21.0108 142.448 19.825 140.036 19.5592 137.161C19.2934 134.287 19.9681 130.979 21.2684 127.757C22.5733 124.533 24.4272 121.56 26.7476 118.97C29.9778 115.437 33.9359 113.155 37.8531 113.654C39.8566 113.9 43.7452 116.283 46.5748 118.013L46.587 118.005ZM43.0256 118.459C40.8911 117.195 38.6954 116.005 37.5955 115.862C34.4715 115.478 31.184 117.445 28.4117 120.479C26.2652 122.871 24.5521 125.619 23.3497 128.599C22.168 131.515 21.5587 134.475 21.7877 136.965C21.988 139.136 22.8426 140.94 24.5354 141.974L28.1255 144.043C27.3854 141.635 27.5285 138.728 28.3054 135.771C29.6634 130.87 32.2486 126.396 35.8168 122.773C38.0371 120.573 40.5231 118.99 43.0256 118.459Z" fill="#414141"/>
<path fill-rule="evenodd" clip-rule="evenodd" d="M53.5602 147.07C46.1102 142.768 34.0315 149.748 26.5733 162.649C23.4125 168.14 21.3558 174.274 21.0205 179.916L59.0884 157.938C58.7817 152.643 56.725 148.898 53.5602 147.07Z" fill="white"/>
<path fill-rule="evenodd" clip-rule="evenodd" d="M53.0034 148.033C49.6505 146.099 45.1691 146.753 40.6304 149.37L40.5731 149.403C35.8708 152.134 31.1686 156.951 27.5417 163.207L27.509 163.264C25.9649 165.933 24.708 168.758 23.7594 171.692C23.1018 173.705 22.6296 175.775 22.3488 177.874L57.9224 157.327C57.7791 155.407 57.2727 153.531 56.43 151.799C55.6738 150.235 54.4772 148.926 52.9871 148.033H53.0034ZM39.51 147.44C44.7315 144.427 50.0144 143.74 54.1075 146.103C55.9765 147.207 57.4806 148.835 58.4335 150.785C59.5056 153 60.111 155.412 60.2122 157.871C60.2227 158.078 60.176 158.283 60.0771 158.465C59.9783 158.647 59.8312 158.798 59.652 158.902L21.625 180.847C21.4527 180.961 21.2519 181.025 21.0452 181.032C20.8384 181.039 20.6339 180.987 20.4547 180.884C20.2754 180.781 20.1285 180.63 20.0304 180.448C19.9323 180.266 19.887 180.06 19.8995 179.853C20.1018 176.841 20.6843 173.867 21.6332 171.001C22.635 167.919 23.9576 164.95 25.579 162.144L25.6117 162.079C29.4185 155.491 34.4275 150.392 39.4487 147.473L39.51 147.44Z" fill="#414141"/>
<path fill-rule="evenodd" clip-rule="evenodd" d="M51.2786 127.423C51.2786 123.845 50.0233 121.33 48.0075 120.157C45.9916 118.983 43.1702 119.155 40.0749 120.942C36.9796 122.729 34.1664 125.804 32.1383 129.32C30.1102 132.837 28.8672 136.803 28.8672 140.36C28.8672 143.918 30.1266 146.453 32.1383 147.622C39.1713 151.711 51.2786 138.929 51.2786 127.423Z" fill="white"/>
<path fill-rule="evenodd" clip-rule="evenodd" d="M50.1651 127.422C50.1997 126.049 49.9433 124.683 49.4128 123.415C49.0335 122.448 48.3371 121.638 47.4375 121.118C46.538 120.598 45.4886 120.399 44.4611 120.553C43.099 120.727 41.7891 121.187 40.6175 121.902C39.1211 122.795 37.7595 123.897 36.5735 125.174C33.8907 128.043 31.9016 131.49 30.7591 135.249C30.2433 136.911 29.9679 138.639 29.9413 140.38C29.9055 141.752 30.1605 143.117 30.6896 144.383C31.0908 145.338 31.7835 146.14 32.6686 146.677C33.3989 147.095 34.2276 147.309 35.0688 147.299C37.0192 147.299 39.2027 146.301 41.2922 144.653C43.6345 142.745 45.602 140.419 47.0944 137.792L47.1271 137.739C48.9589 134.545 50.1488 130.914 50.1488 127.422H50.1651ZM51.4491 122.516C52.1094 124.066 52.4328 125.738 52.3977 127.422C52.3977 131.311 51.0933 135.33 49.0734 138.847L49.0407 138.912C47.4058 141.781 45.2526 144.321 42.6906 146.403C40.2372 148.354 37.5549 149.535 35.0893 149.535C33.8552 149.546 32.641 149.225 31.5728 148.607C30.2803 147.841 29.265 146.684 28.6737 145.303C28.0142 143.753 27.6909 142.081 27.7251 140.397C27.7464 138.442 28.0494 136.5 28.6247 134.631C29.8709 130.536 32.039 126.78 34.9625 123.652C36.293 122.215 37.8229 120.976 39.5053 119.972C40.9536 119.099 42.5699 118.542 44.2485 118.337C45.7404 118.139 47.2559 118.439 48.5591 119.192C49.8623 119.945 50.8798 121.108 51.4531 122.499L51.4491 122.516Z" fill="#414141"/>
<path fill-rule="evenodd" clip-rule="evenodd" d="M41.8282 52.2771C41.8282 50.8215 41.8036 50.1141 42.3229 48.7157C42.9855 46.8456 44.2477 45.2471 45.913 44.1688L95.1355 15.7753C95.6303 15.4931 96.7711 14.7817 97.3435 14.5486C97.9166 14.2938 98.558 14.2362 99.1672 14.385L91.0588 9.70322C90.5904 9.58606 90.0992 9.59591 89.6359 9.73182C89.2802 9.83809 88.9384 9.98637 88.6178 10.1735L39.3953 38.5628C38.8105 38.9022 37.7597 39.4706 37.1872 39.8918C35.2491 41.3556 33.7484 44.1156 33.7198 46.5567V88.6727C33.7168 89.0417 33.7876 89.4076 33.928 89.7489C34.0685 90.0901 34.2757 90.3999 34.5376 90.6599L34.6071 90.7253L42.6909 95.4071C42.4105 95.1463 42.1877 94.8297 42.037 94.4775C41.8863 94.1254 41.811 93.7457 41.8159 93.3627L41.8282 52.2771Z" fill="#2B7CFF"/>
<path fill-rule="evenodd" clip-rule="evenodd" d="M40.712 52.2767V52.0926C40.712 50.6329 40.712 49.856 41.2804 48.3308C41.6778 47.2568 42.2422 46.2522 42.9528 45.3541C43.6141 44.4971 44.4278 43.7694 45.353 43.2074C61.6392 34.5225 78.968 24.0467 94.9517 14.5849C95.291 14.3805 95.7204 14.127 96.1252 13.9062L90.6215 10.7291H90.462C90.2854 10.734 90.1098 10.7587 89.9386 10.8026C89.8117 10.8392 89.6874 10.8843 89.5666 10.9376C73.2885 19.1686 55.6284 30.5644 39.514 39.7768C38.9514 40.0814 38.4054 40.4159 37.8784 40.7786C36.9768 41.4905 36.2414 42.3905 35.7236 43.4159C35.196 44.3832 34.8993 45.4594 34.8567 46.5604V88.6763C34.8558 88.9102 34.9002 89.1421 34.9875 89.3591L35.0121 89.4246C35.0872 89.575 35.1852 89.7129 35.3024 89.8335L40.7366 92.9697V52.2726L40.712 52.2767ZM42.9446 52.0926V93.354C42.9451 93.5895 42.9909 93.8228 43.0795 94.041C43.1771 94.2543 43.3161 94.4461 43.4884 94.6053C43.6844 94.7934 43.8048 95.0467 43.8268 95.3174C43.8489 95.5882 43.7711 95.8576 43.6081 96.075C43.4451 96.2923 43.2082 96.4425 42.9421 96.4971C42.676 96.5518 42.3991 96.5071 42.1636 96.3717L34.1084 91.7225C34.0094 91.6722 33.9185 91.6075 33.8385 91.5304L33.7568 91.4567C33.4141 91.1241 33.1368 90.7302 32.939 90.2955L32.8899 90.1892C32.6973 89.711 32.5987 89.2001 32.5996 88.6845V46.5685C32.6439 45.1119 33.026 43.6855 33.7159 42.4019C34.3888 41.0821 35.3419 39.9251 36.5086 39.0122C37.1176 38.588 37.7511 38.2002 38.4059 37.8509C54.7085 28.6672 72.1927 18.9764 88.0577 9.22842C88.2663 9.11393 88.4666 9.01171 88.6547 8.92584C88.8758 8.83274 89.1025 8.75356 89.3335 8.6887C89.6842 8.59347 90.0455 8.54265 90.4089 8.53741C90.7676 8.51983 91.1263 8.57406 91.4638 8.69689L91.6069 8.76637L99.6498 13.4114C99.8999 13.53 100.097 13.7377 100.202 13.9938C100.307 14.2499 100.313 14.536 100.218 14.7961C100.124 15.0563 99.9356 15.2718 99.6906 15.4006C99.4456 15.5295 99.1613 15.5623 98.8934 15.4927C98.7156 15.4495 98.5319 15.4357 98.3496 15.4518C98.1443 15.4776 97.9434 15.5313 97.7526 15.6112C97.3927 15.7584 96.6077 16.2205 96.072 16.5353C80.0189 25.8663 61.909 35.2626 46.4733 45.1578C45.7861 45.5802 45.1808 46.1232 44.6865 46.7607C44.1265 47.479 43.6797 48.2788 43.3617 49.1323C43.0159 50.0787 42.8738 51.0875 42.9446 52.0926Z" fill="#414141"/>
<path fill-rule="evenodd" clip-rule="evenodd" d="M77.5778 77.6071C87.3912 72.5205 91.2061 76.9406 97.4458 80.4407C97.5031 75.2805 97.6339 70.476 96.5054 66.064L96.7058 65.9495C98.9547 64.6534 100.795 61.4722 100.795 58.8716C100.795 48.7434 100.795 27.3501 100.795 17.2218C100.795 14.6254 98.9628 13.5418 96.7058 14.8584L45.8927 44.1679C43.6438 45.4641 41.8037 48.6657 41.8037 51.2458V52.2762V93.3576C41.8016 93.853 41.9301 94.3402 42.1762 94.7701C42.4224 95.2 42.7776 95.5573 43.206 95.8062C43.6344 96.055 44.1208 96.1864 44.6161 96.1873C45.1115 96.1881 45.5984 96.0583 46.0276 95.811L77.5778 77.6071Z" fill="white"/>
<path fill-rule="evenodd" clip-rule="evenodd" d="M77.0681 76.6173C85.9207 72.0254 90.1813 74.671 95.2843 77.844L96.3556 78.5064C96.4006 74.1558 96.3801 70.0791 95.4274 66.3418C95.3634 66.0944 95.3867 65.8324 95.4932 65.6001C95.5997 65.3677 95.7829 65.1792 96.0121 65.0661L96.2043 64.9557C97.2096 64.2754 98.0453 63.3734 98.6472 62.3193C99.249 61.2652 99.6009 60.087 99.6758 58.8754V17.2256C99.6941 16.7765 99.597 16.3303 99.3937 15.9294L99.3691 15.8844C99.2864 15.7456 99.1696 15.6301 99.0298 15.5491C98.8752 15.4627 98.6998 15.4203 98.5227 15.4265C98.0731 15.4502 97.6375 15.5912 97.2593 15.8354L46.4502 45.1448C45.434 45.8263 44.5876 46.7317 43.9758 47.7914C43.3641 48.8511 43.0034 50.0369 42.9215 51.2578V93.3737C42.9207 93.6728 42.9967 93.967 43.1423 94.2283L43.1709 94.2774C43.3221 94.5154 43.53 94.7121 43.7761 94.8498L43.8211 94.8743C44.0713 95.0132 44.3527 95.0864 44.6388 95.087C44.9395 95.0835 45.234 95.0018 45.4934 94.8498L77.0763 76.6336L77.0681 76.6173ZM94.1026 79.7372C89.6048 76.9322 85.8143 74.5892 78.0863 78.5963L46.6015 96.7634C46.0195 97.1097 45.3563 97.2958 44.6791 97.303C44.0019 97.3102 43.3349 97.1382 42.7457 96.8043L42.6721 96.7634C42.0973 96.4349 41.6149 95.9666 41.2696 95.4018L41.2246 95.3282C40.879 94.7291 40.6984 94.049 40.7012 93.3574V51.2414C40.7581 49.6219 41.2252 48.0433 42.0587 46.6536C42.8432 45.2387 43.9781 44.0489 45.3544 43.1985L96.1634 13.889C96.8786 13.4513 97.6967 13.2101 98.535 13.1898C99.1075 13.1728 99.6735 13.3143 100.171 13.5987C100.637 13.8721 101.027 14.2589 101.303 14.7232L101.344 14.7927C101.75 15.5307 101.952 16.3634 101.929 17.2052V58.855C101.88 60.4746 101.415 62.0545 100.579 63.4427C99.8862 64.6693 98.9397 65.7342 97.8031 66.5667C98.6986 70.6147 98.6454 74.9245 98.5923 79.5204V80.3627C98.6011 80.5738 98.5515 80.7832 98.4491 80.9679C98.378 81.096 98.2822 81.2087 98.1674 81.2996C98.0525 81.3905 97.9208 81.4579 97.7799 81.4978C97.6389 81.5377 97.4914 81.5494 97.346 81.5321C97.2005 81.5148 97.0599 81.469 96.9322 81.3972C95.914 80.8616 94.994 80.2892 94.1026 79.7372Z" fill="#414141"/>
<path fill-rule="evenodd" clip-rule="evenodd" d="M10.0743 45.8315C10.1029 43.0183 11.9756 39.7758 14.3963 38.3406L66.4851 8.29514C67.9203 7.47735 69.4414 6.25071 71.0688 6.95401C69.9198 6.28751 62.3348 1.81829 61.7951 1.66291C60.3108 1.25402 58.757 2.41934 57.5303 3.12673L7.11796 32.2031C4.83634 33.5198 3.59331 34.1576 2.23988 36.6559C1.54454 37.8805 1.15724 39.2557 1.11133 40.6631V84.7377C1.11133 85.7108 1.37302 86.8721 2.23578 87.4405L5.27385 89.1946C4.49696 94.1013 4.58283 98.5664 4.63598 103.481L13.5907 108.654C13.5294 102.61 13.4394 98.3252 14.5966 92.2981L10.0661 89.6853L10.0743 45.8315Z" fill="white"/>
<path fill-rule="evenodd" clip-rule="evenodd" d="M8.95674 45.828C9.03893 44.1348 9.52359 42.4856 10.3705 41.0172C11.2174 39.5488 12.4022 38.3034 13.8266 37.3843L65.9278 7.33072L66.5247 6.97498C66.9336 6.73783 67.3057 6.49661 67.7105 6.28807C65.1304 4.77926 61.7325 2.80837 61.4872 2.73477H61.4177C60.6367 2.56303 59.5818 3.20499 58.6822 3.75291C41.8726 13.8566 24.4129 23.5638 7.38251 33.3568C5.4648 34.4608 4.36895 35.0905 3.22405 37.2045C2.91492 37.7751 2.66685 38.3768 2.48395 38.9995C2.32568 39.5502 2.24045 40.1194 2.23044 40.6923L2.21 84.726C2.20537 85.1448 2.27888 85.5608 2.42673 85.9526C2.50902 86.1688 2.65077 86.3574 2.83562 86.4964L5.81644 88.2138C6.01175 88.3268 6.16826 88.4962 6.26534 88.6998C6.36242 88.9035 6.39553 89.1318 6.36028 89.3546C5.63654 93.9465 5.6815 98.2031 5.73057 102.819L12.4446 106.696C12.3996 101.789 12.4446 97.9127 13.3441 92.8384L9.50057 90.6222C9.33019 90.5253 9.18857 90.3849 9.09015 90.2154C8.99174 90.0458 8.94007 89.8532 8.94039 89.6572V45.8116L8.95674 45.828ZM12.3015 42.1479C11.624 43.2724 11.2402 44.5491 11.1852 45.8607V89.052L15.0778 91.3009C15.3032 91.4068 15.4866 91.5852 15.5985 91.8076C15.7105 92.03 15.7445 92.2835 15.6953 92.5276C14.5954 98.2521 14.6403 102.415 14.7017 108.066V108.609C14.7171 108.829 14.6658 109.049 14.5545 109.239C14.4812 109.366 14.3836 109.477 14.2673 109.567C14.151 109.656 14.0182 109.722 13.8766 109.76C13.735 109.797 13.5872 109.807 13.4419 109.788C13.2965 109.769 13.1563 109.721 13.0293 109.648L4.07455 104.476C3.90717 104.378 3.7682 104.238 3.67138 104.07C3.57455 103.903 3.52326 103.712 3.52256 103.519V102.918C3.47349 98.4443 3.4285 94.3022 4.06637 89.8085L1.61301 88.4019C1.05943 88.0185 0.632423 87.479 0.386333 86.8522C0.130464 86.1896 0.000124548 85.4853 0.0019725 84.775V40.6923C0.0127543 39.919 0.125494 39.1504 0.337268 38.4066C0.560258 37.6254 0.868796 36.8712 1.25728 36.1577C2.70067 33.4917 4.00096 32.7434 6.2744 31.435C23.3007 21.6461 40.695 11.9389 57.5209 1.85973C58.8008 1.07874 60.3014 0.162835 61.986 0.592172L62.0965 0.61673C62.6771 0.780287 67.776 3.76111 70.3397 5.26175L71.6318 6.01409C71.8648 6.15201 72.04 6.36966 72.1249 6.62674C72.2099 6.88381 72.1988 7.16295 72.0939 7.41253C72.0376 7.54782 71.9551 7.67058 71.851 7.77375C71.747 7.87693 71.6235 7.95845 71.4877 8.01359C71.352 8.06873 71.2066 8.0964 71.0601 8.095C70.9136 8.09359 70.7688 8.06314 70.6341 8.0054C69.7673 7.64149 68.7001 8.28752 67.686 8.90495L67.04 9.28933L14.9634 39.3307C13.8572 40.027 12.9423 40.9883 12.3015 42.1275V42.1479Z" fill="#414141"/>
<path fill-rule="evenodd" clip-rule="evenodd" d="M14.5846 92.2866L11.4975 92.7936L3.72852 88.3203L5.24549 89.1953L5.22505 89.3303C4.51358 94.1511 4.55446 98.6407 4.60762 103.482L13.5624 108.655C13.5051 103.171 13.4765 98.2932 14.462 92.8508L14.5846 92.2866Z" fill="white"/>
<path fill-rule="evenodd" clip-rule="evenodd" d="M13.2103 93.6457L11.6769 93.8951C11.4058 93.9419 11.127 93.8849 10.8959 93.7356L6.14867 90.996C5.92787 92.8401 5.81338 94.6352 5.73978 96.4302C5.67435 98.5442 5.68662 100.658 5.71115 102.838L12.4252 106.714C12.4252 104.669 12.4252 102.67 12.5029 100.695C12.5926 98.3337 12.8219 95.9798 13.1898 93.6457H13.2103ZM11.7096 91.6339L14.3388 91.2005C14.4885 91.1697 14.6429 91.1697 14.7927 91.2005C14.9369 91.2279 15.0744 91.2836 15.1971 91.3643C15.3198 91.4449 15.4254 91.549 15.5079 91.6706C15.5903 91.7921 15.6479 91.9287 15.6774 92.0726C15.707 92.2165 15.7078 92.3648 15.68 92.509L15.5736 93.0691C15.1222 95.6203 14.849 98.1999 14.7559 100.789C14.6455 103.345 14.6659 105.896 14.6945 108.595C14.7099 108.815 14.6586 109.034 14.5473 109.224C14.474 109.352 14.3765 109.463 14.2602 109.552C14.1439 109.641 14.0111 109.707 13.8695 109.745C13.7278 109.783 13.5801 109.793 13.4347 109.773C13.2893 109.754 13.1491 109.707 13.0222 109.633L4.06739 104.461C3.90001 104.363 3.76104 104.224 3.66422 104.056C3.5674 103.888 3.5161 103.698 3.5154 103.504C3.48678 101.051 3.46633 98.72 3.53584 96.3812C3.59257 94.1791 3.76592 91.9817 4.05514 89.798L3.19238 89.2992L4.30047 87.3691L11.7137 91.6462L11.7096 91.6339ZM5.842 88.2483L6.3613 89.3727C6.39654 89.1549 6.36595 88.9315 6.27343 88.7312C6.18091 88.5309 6.03068 88.3627 5.842 88.2483Z" fill="#414141"/>
<path fill-rule="evenodd" clip-rule="evenodd" d="M11.5124 41.2887L2.55357 36.1162L1.11426 40.6631L1.35958 86.2996C1.88706 87.6449 3.40406 88.1356 5.26044 89.1946C4.48354 94.1422 4.56941 98.5255 4.62257 103.481L13.5773 108.654C13.516 102.59 13.4219 98.3538 14.5832 92.2981L10.0526 89.6853C10.0526 83.8258 9.67647 46.4326 10.3348 43.9792L11.5124 41.2887Z" fill="#2B7CFF"/>
<path fill-rule="evenodd" clip-rule="evenodd" d="M10.0899 41.7522L3.20412 37.7777L2.23095 40.8444L2.47221 86.0516C2.79114 86.6159 3.5844 87.033 4.56983 87.5522L4.62706 87.5849C4.99506 87.7771 5.38761 87.9938 5.81695 88.231C6.01153 88.3436 6.16756 88.5125 6.2646 88.7153C6.36164 88.9181 6.39516 89.1455 6.36078 89.3677C5.63704 93.9841 5.682 98.1466 5.73107 102.771V102.837L12.4451 106.713C12.4001 101.806 12.4451 97.9545 13.3447 92.8556L9.50108 90.6394C9.3307 90.5424 9.18907 90.402 9.09066 90.2325C8.99225 90.063 8.94057 89.8704 8.9409 89.6744L8.91227 83.4183C8.83458 70.8694 8.68736 45.8002 9.25573 43.678L9.31298 43.5186L10.0899 41.7522ZM3.11008 35.1526L11.9871 40.2761C12.2512 40.4006 12.4562 40.6232 12.5585 40.8966C12.6608 41.17 12.6524 41.4726 12.5351 41.7399L11.3983 44.3241C10.9199 46.618 11.0671 71.0943 11.1366 83.4102L11.1693 89.0324L15.062 91.2813C15.2874 91.3872 15.4707 91.5656 15.5827 91.788C15.6946 92.0104 15.7287 92.264 15.6794 92.508C14.5836 98.2325 14.6245 102.321 14.6858 107.964V108.655C14.6851 108.85 14.6335 109.042 14.536 109.211C14.4385 109.38 14.2985 109.521 14.13 109.619C13.9615 109.717 13.7701 109.77 13.575 109.771C13.3799 109.773 13.1877 109.724 13.0175 109.628L4.08325 104.468C3.9082 104.375 3.76173 104.236 3.65948 104.066C3.55722 103.896 3.503 103.701 3.5026 103.503V102.796C3.45353 98.3347 3.40856 94.2949 4.04644 89.8053L3.53123 89.5354C2.04695 88.7544 0.877522 88.141 0.321428 86.7099C0.272427 86.5792 0.247495 86.4406 0.24783 86.301L0.00247982 40.7503C-0.00676157 40.6122 0.00987737 40.4735 0.051545 40.3415L1.49086 35.7987L1.58899 35.5779C1.66089 35.45 1.75729 35.3376 1.87267 35.247C1.98805 35.1564 2.12013 35.0895 2.2614 35.05C2.40266 35.0105 2.55033 34.9993 2.69595 35.0169C2.84157 35.0345 2.9823 35.0806 3.11008 35.1526Z" fill="#414141"/>
<path fill-rule="evenodd" clip-rule="evenodd" d="M90.3684 31.0631C90.4954 30.9806 90.6379 30.9247 90.7872 30.899C90.9364 30.8733 91.0894 30.8783 91.2367 30.9135C91.384 30.9488 91.5226 31.0137 91.644 31.1043C91.7654 31.1948 91.8672 31.3091 91.943 31.4402C92.0188 31.5713 92.0672 31.7165 92.0851 31.8669C92.1031 32.0173 92.0902 32.1698 92.0473 32.3151C92.0045 32.4603 91.9325 32.5954 91.8358 32.7119C91.739 32.8285 91.6196 32.9242 91.4847 32.9931L73.2194 43.5425C72.9641 43.6809 72.665 43.7143 72.3854 43.6357C72.1059 43.5571 71.868 43.3727 71.7222 43.1215C71.5764 42.8704 71.5342 42.5723 71.6046 42.2906C71.6749 42.0089 71.8523 41.7657 72.0991 41.6126L90.3684 31.0631Z" fill="#414141"/>
<path fill-rule="evenodd" clip-rule="evenodd" d="M87.399 43.1852C87.526 43.1027 87.6685 43.0468 87.8177 43.0211C87.967 42.9954 88.1199 43.0003 88.2672 43.0356C88.4145 43.0709 88.5531 43.1357 88.6745 43.2263C88.796 43.3168 88.8977 43.4312 88.9736 43.5623C89.0494 43.6934 89.0977 43.8385 89.1157 43.989C89.1336 44.1394 89.1207 44.2919 89.0779 44.4371C89.035 44.5824 88.963 44.7174 88.8663 44.834C88.7696 44.9506 88.6501 45.0462 88.5152 45.1152L73.2063 53.9554C72.9516 54.0856 72.6567 54.113 72.3823 54.032C72.108 53.9511 71.8752 53.7679 71.732 53.5203C71.5888 53.2727 71.5461 52.9796 71.6127 52.7014C71.6793 52.4233 71.8502 52.1813 72.09 52.0255L87.399 43.1852Z" fill="#414141"/>
<path fill-rule="evenodd" clip-rule="evenodd" d="M52.2478 77.0953C51.9919 77.2422 51.6881 77.2815 51.4032 77.2044C51.1183 77.1274 50.8757 76.9403 50.7288 76.6843C50.5819 76.4284 50.5426 76.1246 50.6197 75.8397C50.6967 75.5549 50.8838 75.3123 51.1397 75.1653L90.3648 52.5331C90.6204 52.3984 90.9183 52.368 91.1959 52.4484C91.4734 52.5287 91.709 52.7136 91.853 52.9641C91.9971 53.2146 92.0383 53.5112 91.9682 53.7915C91.8981 54.0718 91.722 54.314 91.477 54.4672L52.2478 77.0953Z" fill="#414141"/>
<path fill-rule="evenodd" clip-rule="evenodd" d="M72.4709 54.3329C72.4709 43.4727 72.4709 20.6892 72.4709 9.82901C72.4709 7.07716 70.5287 5.95679 68.1489 7.32658L14.3795 38.3411C11.9998 39.7191 10.0575 43.0802 10.0575 45.832L10.0371 89.9107C10.0371 92.6544 11.9794 93.7829 14.3591 92.409L14.5676 92.2863C13.3777 98.3175 13.5086 103.249 13.5618 108.642C15.2996 105.669 17.0251 102.709 18.7342 99.7241C29.6394 80.682 51.0368 71.1016 68.0058 61.877C69.3262 61.11 70.4109 59.9955 71.142 58.6549C71.965 57.3597 72.4241 55.8668 72.4709 54.3329Z" fill="white"/>
<path fill-rule="evenodd" clip-rule="evenodd" d="M71.3542 54.3321V9.82819C71.3722 9.34274 71.2682 8.86054 71.0516 8.42572C70.9538 8.25029 70.8132 8.10254 70.6427 7.99636C70.4723 7.90269 70.2811 7.85349 70.0866 7.85326C69.604 7.87095 69.1339 8.0117 68.7209 8.26215L14.9515 39.2808C13.861 40.0062 12.9535 40.9744 12.3001 42.1096C11.6467 43.2447 11.2652 44.5157 11.1856 45.823V89.9017C11.1658 90.3873 11.2699 90.8699 11.4882 91.3042C11.5812 91.4818 11.723 91.6291 11.8968 91.7291C12.0706 91.829 12.2693 91.8774 12.4695 91.8684C12.9547 91.8448 13.4253 91.6955 13.8352 91.435L14.0397 91.3124C14.225 91.2049 14.4374 91.153 14.6514 91.1629C14.8654 91.1728 15.072 91.2441 15.2466 91.3683C15.4212 91.4924 15.5564 91.6642 15.6361 91.8631C15.7157 92.062 15.7364 92.2796 15.6957 92.49C14.9458 96.4738 14.6033 100.524 14.6735 104.577L17.7974 99.1713C27.5618 82.1163 45.4876 72.5932 61.3036 64.2191C63.4789 63.066 65.6133 61.9334 67.5065 60.903C68.0361 60.6087 68.5185 60.2365 68.9376 59.799C69.9217 58.7493 70.6568 57.4915 71.0884 56.119C71.268 55.5302 71.363 54.9189 71.3705 54.3035L71.3542 54.3321ZM73.6031 9.82819L73.5826 54.3321C73.5809 55.1638 73.4556 55.9907 73.2106 56.7855C72.9478 57.6446 72.5812 58.4685 72.1188 59.2388C71.675 60.0116 71.138 60.7271 70.52 61.3691C69.9459 61.9673 69.2841 62.4747 68.5574 62.8739C66.4148 64.0392 64.3867 65.1187 62.3258 66.2104C46.7879 74.4578 29.1646 83.7928 19.7233 100.3L14.5426 109.226C14.4436 109.392 14.3036 109.529 14.136 109.625C13.9684 109.721 13.7789 109.772 13.5858 109.774C13.4398 109.775 13.2949 109.747 13.1596 109.692C13.0242 109.637 12.901 109.556 12.797 109.454C12.6929 109.351 12.6101 109.229 12.5532 109.095C12.4963 108.96 12.4665 108.816 12.4655 108.67V107.746C12.4123 103.223 12.3673 98.975 13.1442 94.0601C12.9188 94.1003 12.6903 94.1208 12.4614 94.1214C11.8697 94.1271 11.2874 93.9737 10.7753 93.6774C10.2632 93.381 9.84 92.9526 9.55004 92.4368C9.13203 91.6644 8.92338 90.796 8.94487 89.918V45.8394C9.02717 44.1409 9.51572 42.4869 10.3695 41.0162C11.2233 39.5456 12.4174 38.3012 13.8516 37.3876L67.6169 6.37307C68.3636 5.9132 69.2182 5.65793 70.0948 5.63295C70.6882 5.62756 71.2724 5.77999 71.7876 6.07459C72.2957 6.37045 72.7184 6.79312 73.0143 7.30127C73.4289 8.07732 73.632 8.9488 73.6031 9.82819Z" fill="#414141"/>
<path fill-rule="evenodd" clip-rule="evenodd" d="M21.0711 50.4069C20.9444 50.4797 20.8045 50.5268 20.6596 50.5455C20.5147 50.5643 20.3675 50.5542 20.2264 50.5161C20.0854 50.4779 19.9532 50.4124 19.8375 50.3231C19.7218 50.2339 19.6248 50.1227 19.552 49.996C19.4793 49.8693 19.4322 49.7295 19.4135 49.5845C19.3947 49.4396 19.4047 49.2924 19.4429 49.1514C19.4811 49.0103 19.5466 48.8782 19.6359 48.7625C19.7251 48.6468 19.8362 48.5497 19.963 48.477L56.3054 27.5335C56.4321 27.4607 56.5719 27.4137 56.7168 27.3949C56.8618 27.3762 57.009 27.3862 57.15 27.4243C57.2911 27.4625 57.4232 27.5281 57.5389 27.6173C57.6547 27.7065 57.7517 27.8177 57.8244 27.9444C57.8972 28.0711 57.9443 28.2109 57.963 28.3559C57.9817 28.5008 57.9717 28.648 57.9336 28.7891C57.8954 28.9301 57.8298 29.0623 57.7406 29.178C57.6514 29.2937 57.5402 29.3907 57.4135 29.4634L21.0711 50.4069Z" fill="#414141"/>
<path fill-rule="evenodd" clip-rule="evenodd" d="M21.0691 61.4196C20.8132 61.5665 20.5094 61.6057 20.2245 61.5287C19.9396 61.4516 19.697 61.2646 19.5501 61.0086C19.4031 60.7527 19.3639 60.4489 19.441 60.164C19.518 59.8791 19.7051 59.6365 19.961 59.4896L61.4718 35.5448C61.7281 35.3991 62.0316 35.3603 62.3163 35.4368C62.6011 35.5134 62.8442 35.6991 62.9929 35.9537C63.066 36.0801 63.1135 36.2196 63.1325 36.3644C63.1515 36.5091 63.1418 36.6562 63.1038 36.7972C63.0658 36.9382 63.0003 37.0702 62.9111 37.1858C62.8219 37.3014 62.7107 37.3982 62.584 37.4707L21.0691 61.4196Z" fill="#414141"/>
<path fill-rule="evenodd" clip-rule="evenodd" d="M21.0633 73.1289C20.8073 73.2759 20.5035 73.3151 20.2186 73.238C19.9338 73.161 19.6912 72.9739 19.5442 72.718C19.3973 72.462 19.358 72.1582 19.4351 71.8733C19.5122 71.5885 19.6992 71.3459 19.9552 71.1989L46.6845 55.7796C46.9404 55.6326 47.2442 55.5934 47.5291 55.6705C47.814 55.7475 48.0566 55.9346 48.2035 56.1905C48.3505 56.4464 48.3897 56.7503 48.3126 57.0351C48.2356 57.32 48.0485 57.5626 47.7926 57.7096L21.0633 73.1289Z" fill="#414141"/>
<path fill-rule="evenodd" clip-rule="evenodd" d="M11.7143 91.631C11.9594 91.7841 12.1354 92.0264 12.2056 92.3067C12.2757 92.587 12.2344 92.8835 12.0904 93.134C11.9463 93.3845 11.7108 93.5694 11.4332 93.6497C11.1557 93.7301 10.8578 93.6998 10.6022 93.565L1.93364 88.5602C1.67771 88.4127 1.49084 88.1696 1.41416 87.8843C1.33748 87.5991 1.37726 87.2951 1.52475 87.0391C1.67223 86.7832 1.91534 86.5963 2.2006 86.5196C2.48586 86.4429 2.78988 86.4827 3.04582 86.6302L11.7143 91.631Z" fill="#414141"/>
<path opacity="0.2" fill-rule="evenodd" clip-rule="evenodd" d="M183.081 198.311C161.634 198.311 144.238 204.634 144.238 212.448C144.238 220.263 161.634 226.586 183.081 226.586C204.528 226.586 221.937 220.263 221.937 212.448C221.937 204.634 204.541 198.311 183.081 198.311Z" fill="#BFBFBF"/>
<path fill-rule="evenodd" clip-rule="evenodd" d="M186.636 155.879L184.784 153.192L180.637 155.959L180.718 157.162L177.497 160.09C178.383 160.851 179.107 161.373 181.845 159.969C184.1 158.726 184.1 158.445 186.636 155.879Z" fill="white"/>
<path fill-rule="evenodd" clip-rule="evenodd" d="M185.269 155.718L184.504 154.595L181.726 156.44L181.767 157.041C181.767 157.362 181.646 157.683 181.404 157.883L179.432 159.688C179.875 159.608 180.438 159.407 181.324 158.966C182.975 158.084 183.337 157.723 184.585 156.44L185.269 155.718ZM185.672 152.55L187.524 155.237C187.846 155.638 187.806 156.239 187.443 156.6C186.92 157.121 186.517 157.563 186.155 157.923C184.746 159.407 184.343 159.848 182.371 160.851C180.801 161.653 179.754 161.893 178.949 161.853C178.023 161.773 177.459 161.372 176.895 160.891C176.855 160.851 176.815 160.811 176.774 160.771C176.372 160.329 176.412 159.648 176.855 159.247L179.713 156.64L179.673 155.999C179.633 155.598 179.794 155.197 180.116 154.996L184.263 152.229C184.665 151.949 185.35 152.069 185.672 152.55Z" fill="#414141"/>
<path fill-rule="evenodd" clip-rule="evenodd" d="M160.307 208.651C159.744 208.33 159.462 207.929 159.462 207.488C159.462 207.087 159.744 206.646 160.307 206.325C160.871 206.004 161.596 205.844 162.32 205.844C163.045 205.844 163.77 206.004 164.333 206.325L169.648 209.373C170.211 209.693 170.493 210.094 170.493 210.535C170.493 210.936 170.211 211.378 169.648 211.698C169.084 212.019 168.359 212.18 167.635 212.18C166.91 212.18 166.185 212.019 165.622 211.698L160.307 208.651Z" fill="white"/>
<path fill-rule="evenodd" clip-rule="evenodd" d="M159.783 209.573C159.38 209.332 159.058 209.051 158.817 208.731L158.776 208.65C158.535 208.29 158.414 207.889 158.414 207.488C158.414 207.046 158.535 206.605 158.817 206.244C159.058 205.924 159.38 205.643 159.783 205.402C160.145 205.202 160.548 205.041 160.991 204.921C161.434 204.801 161.876 204.761 162.319 204.761C162.762 204.761 163.245 204.801 163.648 204.921L163.769 204.961C164.171 205.082 164.534 205.202 164.896 205.402L170.291 208.49C170.653 208.731 170.975 208.971 171.177 209.292C171.458 209.693 171.579 210.094 171.579 210.535C171.579 210.976 171.458 211.377 171.177 211.778C170.935 212.099 170.653 212.38 170.21 212.62C169.848 212.821 169.445 212.981 169.002 213.102C168.56 213.222 168.117 213.262 167.674 213.262C167.231 213.262 166.748 213.222 166.345 213.102L166.225 213.061C165.822 212.941 165.46 212.821 165.097 212.62L159.783 209.573ZM160.548 207.488C160.588 207.568 160.709 207.648 160.83 207.728L166.144 210.776C166.305 210.856 166.506 210.936 166.708 211.016H166.788C167.07 211.097 167.352 211.097 167.634 211.097C167.915 211.097 168.197 211.056 168.479 211.016C168.721 210.976 168.922 210.896 169.123 210.776C169.244 210.696 169.365 210.615 169.405 210.535C169.365 210.455 169.284 210.415 169.164 210.335L163.809 207.247C163.648 207.167 163.447 207.087 163.245 207.006H163.165C162.883 206.926 162.601 206.926 162.319 206.926C162.037 206.926 161.756 206.966 161.474 207.006C161.232 207.046 161.031 207.127 160.83 207.247C160.709 207.327 160.588 207.407 160.548 207.488Z" fill="#414141"/>
<path fill-rule="evenodd" clip-rule="evenodd" d="M149.115 214.946C148.551 214.625 148.27 214.224 148.27 213.783C148.27 213.382 148.551 212.941 149.115 212.62C149.679 212.299 150.403 212.139 151.128 212.139C151.853 212.139 152.577 212.299 153.141 212.62L158.455 215.667C159.019 215.988 159.301 216.389 159.301 216.83C159.301 217.231 159.019 217.672 158.455 217.993C157.892 218.314 157.167 218.474 156.442 218.474C155.718 218.474 154.993 218.314 154.429 217.993L149.115 214.946Z" fill="white"/>
<path fill-rule="evenodd" clip-rule="evenodd" d="M148.591 215.868C148.188 215.627 147.866 215.346 147.624 215.026C147.342 214.625 147.222 214.224 147.222 213.782C147.222 213.341 147.342 212.94 147.624 212.539C147.826 212.219 148.148 211.938 148.591 211.697C148.953 211.497 149.355 211.336 149.798 211.216C150.241 211.096 150.684 211.056 151.127 211.056C151.57 211.056 152.013 211.096 152.455 211.216C152.898 211.336 153.301 211.497 153.663 211.697L158.978 214.745C159.38 214.985 159.702 215.266 159.944 215.587C160.226 215.988 160.346 216.389 160.346 216.83C160.346 217.271 160.226 217.672 159.944 218.073C159.702 218.394 159.42 218.675 158.978 218.915C158.615 219.116 158.213 219.276 157.77 219.396C157.327 219.517 156.884 219.557 156.441 219.557C155.998 219.557 155.556 219.517 155.113 219.396C154.67 219.276 154.267 219.116 153.905 218.915L148.591 215.868ZM149.355 213.782C149.396 213.863 149.517 213.943 149.637 214.023L154.952 217.071C155.153 217.191 155.354 217.271 155.596 217.311C155.837 217.391 156.159 217.391 156.441 217.391C156.723 217.391 157.045 217.351 157.287 217.311C157.528 217.271 157.73 217.191 157.931 217.071C158.052 216.99 158.172 216.91 158.213 216.83C158.172 216.75 158.052 216.67 157.931 216.589L152.617 213.542C152.415 213.422 152.214 213.341 151.972 213.301C151.731 213.221 151.409 213.221 151.127 213.221C150.805 213.221 150.523 213.261 150.281 213.301C150.04 213.341 149.839 213.422 149.637 213.542C149.517 213.622 149.436 213.702 149.355 213.782Z" fill="#414141"/>
<path fill-rule="evenodd" clip-rule="evenodd" d="M163.528 158.686C165.017 159.248 166.104 160.731 166.104 162.416C166.104 162.536 166.104 162.656 166.104 162.736L166.064 184.751C166.064 191.568 165.46 199.067 165.178 205.924C165.178 206.325 164.897 206.766 164.333 207.087C163.769 207.408 163.045 207.568 162.32 207.568C161.595 207.568 160.871 207.408 160.307 207.087C159.743 206.766 159.462 206.365 159.462 205.924C159.462 198.826 159.381 191.769 159.381 184.671L157.65 171.077L155.436 172.32L154.832 191.047C154.59 198.104 154.228 205.162 153.946 212.22C153.946 212.621 153.664 213.062 153.1 213.383C152.537 213.703 151.812 213.864 151.087 213.864C150.363 213.864 149.638 213.703 149.074 213.383C148.511 213.062 148.229 212.661 148.229 212.22C148.229 205.122 148.148 198.064 148.148 190.967L146.9 169.032C146.9 168.912 146.9 168.831 146.9 168.711C146.9 166.345 148.39 165.543 150.121 164.581L155.838 161.373L159.904 159.087C161.112 158.406 162.32 158.205 163.528 158.686Z" fill="#2B7CFF"/>
<path fill-rule="evenodd" clip-rule="evenodd" d="M163.931 157.683C164.897 158.044 165.702 158.726 166.306 159.568C166.87 160.37 167.192 161.373 167.192 162.415V162.816L167.151 184.751C167.151 189.282 166.87 194.174 166.628 198.986C166.507 201.352 166.386 203.718 166.266 205.924C166.266 206.726 165.823 207.488 164.897 208.009L164.816 208.049C164.454 208.249 164.092 208.37 163.689 208.49C163.246 208.61 162.803 208.65 162.36 208.65C161.918 208.65 161.434 208.61 161.032 208.49L160.911 208.45C160.508 208.33 160.146 208.209 159.784 208.009L159.743 207.969C159.341 207.728 159.059 207.447 158.858 207.167C158.576 206.766 158.455 206.365 158.455 205.924C158.455 203.197 158.455 200.47 158.415 197.743C158.375 192.931 158.375 188.159 158.375 184.751L156.885 172.801L156.603 172.961L155.919 191.087C155.758 195.818 155.556 200.47 155.355 205.122L155.033 212.259C155.033 212.701 154.912 213.142 154.63 213.503L154.55 213.583C154.349 213.863 154.027 214.104 153.664 214.345C153.302 214.545 152.899 214.706 152.456 214.826C152.014 214.946 151.571 214.986 151.128 214.986C150.685 214.986 150.242 214.946 149.799 214.826C149.356 214.706 148.954 214.545 148.591 214.345L148.511 214.305C148.149 214.064 147.826 213.823 147.625 213.503C147.343 213.102 147.223 212.701 147.223 212.259C147.223 209.613 147.223 206.966 147.182 204.32C147.142 199.387 147.142 194.455 147.142 191.006C147.142 183.788 145.813 175.929 145.813 168.711C145.813 165.784 147.464 164.861 149.437 163.738C152.658 161.934 156.08 159.849 159.341 158.165C160.066 157.764 160.83 157.483 161.555 157.403C162.36 157.282 163.166 157.363 163.931 157.683ZM164.534 160.731C164.212 160.25 163.729 159.849 163.166 159.648C162.723 159.488 162.28 159.448 161.837 159.488C161.354 159.528 160.871 159.729 160.388 160.009C157.086 161.854 153.825 163.779 150.524 165.583C149.115 166.345 147.988 167.027 147.988 168.711C147.826 175.167 148.873 184.23 149.276 190.966C149.276 196.38 149.276 200.31 149.316 204.28L149.356 212.219V212.259C149.397 212.34 149.477 212.38 149.598 212.46L149.638 212.5C149.839 212.62 150.041 212.701 150.282 212.741C150.524 212.821 150.846 212.821 151.128 212.821C151.41 212.821 151.732 212.781 151.973 212.741C152.215 212.701 152.416 212.62 152.617 212.5C152.738 212.42 152.819 212.38 152.859 212.3L152.899 212.259L153.221 205.041C153.423 200.35 153.624 195.658 153.785 191.006L154.389 172.28C154.389 171.919 154.59 171.558 154.953 171.398L157.086 170.195C157.207 170.114 157.408 170.034 157.569 169.994C158.173 169.914 158.697 170.355 158.777 170.916L160.468 184.47V184.631C160.468 189.924 160.468 193.813 160.508 197.703L160.549 205.924C160.589 206.004 160.669 206.044 160.79 206.124H160.83C160.992 206.204 161.193 206.285 161.394 206.365H161.475C161.756 206.445 162.038 206.445 162.32 206.445C162.602 206.445 162.884 206.405 163.166 206.365C163.367 206.325 163.568 206.244 163.769 206.164L163.81 206.124C164.011 206.004 164.092 205.924 164.092 205.884V205.843C164.172 203.518 164.333 201.192 164.454 198.826C164.695 194.094 164.977 189.282 164.977 184.671C164.977 177.212 165.058 169.753 165.058 162.335C165.058 161.774 164.857 161.212 164.534 160.731Z" fill="#414141"/>
<path fill-rule="evenodd" clip-rule="evenodd" d="M154.752 129.332C155.839 129.974 157.57 129.974 158.657 129.332C159.744 128.691 159.744 127.688 158.657 127.087C157.57 126.445 155.839 126.445 154.752 127.087C153.665 127.688 153.665 128.691 154.752 129.332Z" fill="white"/>
<path fill-rule="evenodd" clip-rule="evenodd" d="M155.315 128.37C155.678 128.571 156.201 128.691 156.724 128.691C157.248 128.691 157.771 128.571 158.133 128.37C158.254 128.29 158.335 128.25 158.375 128.17C158.335 128.13 158.254 128.05 158.133 127.969C157.771 127.769 157.248 127.649 156.724 127.649C156.201 127.649 155.678 127.769 155.315 127.969C155.194 128.05 155.114 128.09 155.074 128.17C155.114 128.25 155.194 128.33 155.315 128.37ZM156.724 130.857C155.839 130.857 154.953 130.656 154.228 130.255C153.745 129.974 153.383 129.614 153.141 129.253C152.94 128.932 152.859 128.571 152.859 128.21C152.859 127.849 152.94 127.488 153.141 127.167C153.383 126.766 153.705 126.406 154.188 126.165C154.913 125.764 155.798 125.563 156.684 125.563C157.57 125.563 158.456 125.764 159.18 126.165C159.663 126.446 160.026 126.807 160.227 127.167C160.428 127.488 160.509 127.849 160.509 128.21C160.509 128.531 160.428 128.852 160.267 129.172L160.227 129.253C159.985 129.654 159.663 129.974 159.18 130.255C158.496 130.656 157.61 130.857 156.724 130.857Z" fill="#1A87C7"/>
<path fill-rule="evenodd" clip-rule="evenodd" d="M165.622 162.135C166.387 161.694 166.709 161.092 166.588 160.531V132.26C166.307 129.694 162.482 127.489 160.831 128.451L152.699 133.143L149.679 134.867C148.391 135.589 146.78 137.072 146.74 138.877V168.03C146.7 168.19 146.7 168.39 146.74 168.551V168.671H146.78C146.901 169.032 146.418 169.353 147.344 169.874C148.27 170.395 150.806 170.636 152.135 169.874L165.622 162.135Z" fill="white"/>
<path fill-rule="evenodd" clip-rule="evenodd" d="M165.098 161.212C165.299 161.091 165.46 160.971 165.541 160.851C165.581 160.811 165.581 160.77 165.581 160.73C165.581 160.65 165.541 160.57 165.541 160.49V132.299C165.501 132.019 165.38 131.738 165.219 131.457C164.856 130.816 164.212 130.214 163.488 129.813C162.843 129.452 162.159 129.212 161.636 129.292C161.515 129.292 161.434 129.332 161.354 129.372C157.61 131.377 153.906 133.663 150.202 135.788C149.598 136.149 148.913 136.71 148.43 137.352C148.108 137.833 147.867 138.355 147.826 138.876V168.028C147.826 168.109 147.826 168.189 147.786 168.269V168.309C147.867 168.59 147.867 168.79 147.867 168.951C148.229 169.151 148.994 169.272 149.839 169.272C150.524 169.272 151.208 169.191 151.611 168.951L165.098 161.212ZM167.353 161.933C167.111 162.374 166.708 162.735 166.145 163.056L152.658 170.795C151.893 171.236 150.806 171.437 149.839 171.437C148.672 171.437 147.464 171.156 146.82 170.795C145.612 170.114 145.652 169.512 145.733 168.951C145.693 168.871 145.693 168.79 145.693 168.67V168.63C145.652 168.51 145.652 168.389 145.652 168.269C145.652 168.149 145.652 168.028 145.693 167.908V138.836C145.733 137.793 146.135 136.871 146.699 136.069C147.384 135.106 148.35 134.385 149.155 133.903C152.819 131.778 156.724 129.693 160.307 127.487C160.629 127.287 161.032 127.167 161.434 127.127C162.401 127.006 163.568 127.327 164.575 127.929C165.581 128.49 166.507 129.372 167.071 130.335C167.353 130.856 167.594 131.417 167.675 132.019C167.675 132.099 167.675 132.139 167.675 132.219V160.369C167.755 160.931 167.634 161.452 167.353 161.933ZM147.867 168.951C147.867 168.951 147.826 169.231 147.826 169.111L147.867 168.951Z" fill="#414141"/>
<path fill-rule="evenodd" clip-rule="evenodd" d="M153.947 128.169H159.502L159.905 133.422C159.905 133.462 159.905 133.542 159.905 133.582C159.905 134.064 159.583 134.505 158.979 134.866C157.731 135.587 155.718 135.587 154.47 134.866C153.866 134.505 153.544 134.024 153.544 133.582C153.544 133.542 153.544 133.462 153.544 133.422L153.947 128.169Z" fill="white"/>
<path fill-rule="evenodd" clip-rule="evenodd" d="M153.947 127.127H160.469C160.63 129.252 160.751 131.498 160.952 133.623C160.952 134.064 160.791 134.545 160.509 134.946C160.267 135.267 159.905 135.588 159.503 135.829C158.697 136.27 157.691 136.51 156.725 136.51C155.718 136.51 154.712 136.27 153.947 135.829C153.504 135.588 153.141 135.267 152.9 134.946C152.618 134.545 152.457 134.064 152.457 133.623C152.457 133.543 152.457 133.463 152.457 133.383L152.94 127.127H153.947ZM158.496 129.252H154.953L154.631 133.503V133.583C154.631 133.583 154.631 133.623 154.671 133.663C154.752 133.743 154.873 133.864 155.034 133.944C155.477 134.225 156.121 134.345 156.765 134.345C157.409 134.345 158.013 134.225 158.496 133.944C158.657 133.864 158.778 133.743 158.858 133.663C158.899 133.623 158.899 133.583 158.899 133.583C158.697 132.139 158.617 130.696 158.496 129.252Z" fill="#414141"/>
<path fill-rule="evenodd" clip-rule="evenodd" d="M157.247 115.979H156.2C153.583 115.979 151.288 118.105 151.409 120.711L151.65 126.526C151.771 129.132 153.784 131.298 156.441 131.298H156.965C159.582 131.298 161.635 129.132 161.756 126.526L162.038 120.711C162.158 118.105 159.863 115.979 157.247 115.979Z" fill="white"/>
<path fill-rule="evenodd" clip-rule="evenodd" d="M157.248 117.022C156.845 117.022 156.443 117.022 156.04 117.022C155.074 117.062 154.188 117.463 153.544 118.104C152.9 118.746 152.497 119.588 152.497 120.51L152.739 126.485C152.779 127.528 153.222 128.49 153.906 129.172L153.946 129.212C154.591 129.854 155.476 130.215 156.443 130.215H156.966C157.972 130.215 158.858 129.814 159.502 129.172C160.187 128.49 160.63 127.528 160.67 126.485L160.952 120.671V120.51C160.952 119.588 160.549 118.746 159.905 118.104C159.261 117.463 158.375 117.062 157.409 117.022H157.248ZM156.201 114.896H157.248H157.53C159.019 114.977 160.428 115.618 161.435 116.621C162.482 117.623 163.126 119.027 163.126 120.551L162.844 126.606C162.763 128.21 162.119 129.653 161.032 130.696C159.985 131.738 158.576 132.38 156.966 132.38H156.443C154.872 132.38 153.463 131.779 152.457 130.776L152.376 130.696C151.33 129.653 150.645 128.21 150.605 126.606C150.524 124.641 150.363 122.515 150.363 120.551C150.363 119.027 151.007 117.623 152.054 116.621C153.061 115.618 154.43 114.977 155.959 114.896H156.201Z" fill="#414141"/>
<path fill-rule="evenodd" clip-rule="evenodd" d="M157.247 115.979H156.2C153.583 115.979 151.288 118.105 151.409 120.711L151.65 126.526C153.18 125.443 154.187 124.12 154.267 121.954C158.253 122.436 159.582 122.195 161.876 119.388C161.313 117.423 159.38 115.979 157.247 115.979Z" fill="white"/>
<path fill-rule="evenodd" clip-rule="evenodd" d="M157.248 117.022C156.846 117.022 156.443 117.022 156.04 117.022C155.074 117.062 154.188 117.463 153.544 118.105C152.9 118.746 152.498 119.588 152.498 120.511L152.659 124.039C153.021 123.478 153.222 122.756 153.222 121.874C153.222 121.272 153.746 120.831 154.309 120.831H154.39C156.242 121.032 157.45 121.112 158.375 120.831C159.14 120.591 159.825 120.069 160.63 119.107C160.388 118.546 159.986 118.064 159.503 117.704C158.859 117.303 158.094 117.022 157.248 117.022ZM156.201 114.897H157.248C158.577 114.897 159.785 115.338 160.791 116.059C161.798 116.781 162.563 117.864 162.885 119.067C163.005 119.388 162.925 119.749 162.683 120.069C161.395 121.633 160.348 122.516 159.02 122.917C157.973 123.237 156.765 123.277 155.195 123.117C155.034 123.919 154.792 124.601 154.39 125.202C153.866 126.084 153.101 126.766 152.216 127.408C152.055 127.528 151.853 127.608 151.652 127.608C151.048 127.648 150.565 127.167 150.525 126.566C150.444 124.601 150.283 122.475 150.283 120.511C150.283 118.987 150.927 117.583 151.974 116.581C152.981 115.578 154.349 114.937 155.879 114.856L156.201 114.897Z" fill="#414141"/>
<path fill-rule="evenodd" clip-rule="evenodd" d="M159.823 168.591C160.347 168.31 160.991 168.47 161.273 168.992C161.555 169.513 161.394 170.155 160.87 170.435L155.999 173.242C155.475 173.523 154.831 173.363 154.549 172.841C154.268 172.32 154.429 171.678 154.952 171.398L159.823 168.591Z" fill="#414141"/>
<path fill-rule="evenodd" clip-rule="evenodd" d="M173.876 157.403L174.601 153.914L179.955 154.957L180.398 156.2L184.907 157.804L183.699 159.809C177.419 159.207 178.586 159.368 173.876 157.403Z" fill="white"/>
<path fill-rule="evenodd" clip-rule="evenodd" d="M172.829 157.202L173.553 153.714C173.674 153.152 174.238 152.791 174.801 152.871L180.156 153.914C180.559 153.994 180.881 154.315 180.961 154.676L181.203 155.398L185.229 156.841C185.792 157.042 186.074 157.643 185.873 158.205C185.833 158.285 185.792 158.405 185.752 158.485L184.585 160.45C184.383 160.811 183.981 161.012 183.578 160.972L182.813 160.891C180.277 160.651 179.109 160.531 178.062 160.25C177.136 160.009 176.412 159.729 175.083 159.127L173.513 158.445C172.99 158.205 172.748 157.683 172.829 157.202ZM175.405 155.157L175.083 156.761L175.848 157.082C177.096 157.603 177.781 157.924 178.546 158.084C179.431 158.325 180.559 158.405 182.974 158.686H183.095L183.296 158.365L180.035 157.202C179.753 157.082 179.512 156.881 179.391 156.561L179.149 155.879L175.405 155.157Z" fill="#414141"/>
<path fill-rule="evenodd" clip-rule="evenodd" d="M163.567 149.583L153.542 136.711L148.47 141.162L160.346 153.072C160.628 153.393 160.95 153.593 161.353 153.753C161.393 153.753 161.474 153.794 161.514 153.794L172.787 157.122C173.028 157.202 173.27 157.242 173.552 157.202C174.599 157.122 175.404 156.24 175.323 155.197C175.283 154.395 174.719 153.753 174.035 153.553L163.567 149.583Z" fill="white"/>
<path fill-rule="evenodd" clip-rule="evenodd" d="M145.694 140.159C145.653 139.558 146.137 139.077 146.7 139.037C147.304 138.996 147.787 139.478 147.828 140.039C147.828 140.36 147.948 140.721 148.109 141.042C148.27 141.362 148.472 141.603 148.794 141.844L161.073 152.229L161.194 152.35C161.274 152.43 161.355 152.51 161.435 152.55C161.516 152.59 161.596 152.67 161.717 152.67C165.461 153.793 169.568 154.836 173.232 156.079L173.352 156.119C173.393 156.119 173.473 156.119 173.513 156.119C173.715 156.119 173.916 155.999 174.077 155.838C174.198 155.678 174.278 155.477 174.278 155.237C174.278 155.076 174.198 154.916 174.117 154.796L174.077 154.756C173.997 154.635 173.836 154.555 173.715 154.515L163.167 150.585C163.006 150.505 162.845 150.425 162.764 150.305L155.839 143.488C155.437 143.087 155.396 142.405 155.839 141.964C156.242 141.563 156.926 141.523 157.369 141.964L164.173 148.66L174.439 152.55C174.963 152.751 175.406 153.031 175.728 153.472L175.768 153.553C176.13 153.994 176.332 154.555 176.372 155.157C176.412 155.959 176.13 156.721 175.647 157.282C175.164 157.843 174.439 158.244 173.634 158.284H173.594C173.393 158.284 173.191 158.284 172.99 158.244C172.829 158.204 172.668 158.204 172.507 158.124C169.125 157.202 164.133 155.919 160.993 154.716C160.711 154.635 160.429 154.475 160.187 154.315C159.946 154.154 159.745 153.994 159.543 153.793L147.425 143.528C146.902 143.127 146.499 142.605 146.177 142.044C145.895 141.443 145.734 140.801 145.694 140.159Z" fill="#414141"/>
<path fill-rule="evenodd" clip-rule="evenodd" d="M186.596 156.12C186.395 156.24 186.194 156.36 185.952 156.4C184.986 156.601 184.06 156.039 183.818 155.077C183.657 154.355 183.939 153.633 184.503 153.273L192.796 146.816L199.399 134.265C199.842 133.223 202.298 131.819 203.908 132.741C205.438 133.624 205.277 135.829 204.834 136.631C204.351 137.433 204.713 136.872 204.633 136.952L196.178 148.862C196.017 149.142 195.695 149.423 195.574 149.543C195.413 149.664 195.494 149.623 195.413 149.623L186.596 156.12Z" fill="#2B7CFF"/>
<path fill-rule="evenodd" clip-rule="evenodd" d="M187.201 156.962C187.04 157.082 186.879 157.162 186.718 157.243C186.557 157.323 186.356 157.363 186.195 157.443C185.43 157.603 184.665 157.483 184.061 157.082C183.457 156.681 182.974 156.08 182.813 155.318V155.278C182.692 154.716 182.733 154.195 182.934 153.714C183.135 153.192 183.497 152.751 183.94 152.431L191.952 146.135L198.394 133.864C198.434 133.784 198.474 133.704 198.515 133.624C198.917 132.942 199.763 132.22 200.769 131.819C201.776 131.378 203.024 131.218 204.07 131.659L204.151 131.699C204.272 131.739 204.352 131.779 204.433 131.819C205.359 132.34 205.882 133.223 206.083 134.105C206.365 135.228 206.124 136.511 205.761 137.152C205.681 137.273 205.641 137.393 205.56 137.473L205.399 137.714L197.065 149.423C196.944 149.624 196.824 149.784 196.663 149.944L196.622 149.984C196.461 150.185 196.26 150.345 196.139 150.426L195.938 150.546L187.201 156.962ZM185.833 155.318C185.873 155.318 185.913 155.278 185.953 155.238L194.77 148.781L194.931 148.661C194.972 148.621 195.012 148.581 195.092 148.501C195.173 148.421 195.213 148.38 195.213 148.34C197.911 144.29 201.091 140.401 203.748 136.35L203.869 136.19C203.869 136.15 203.869 136.15 203.909 136.11C204.07 135.829 204.151 135.188 204.03 134.586C203.95 134.225 203.748 133.864 203.386 133.664L203.265 133.624C202.782 133.423 202.178 133.543 201.615 133.784C201.011 134.025 200.568 134.386 200.407 134.666C198.434 138.837 195.938 143.167 193.764 147.298C193.683 147.458 193.603 147.578 193.442 147.659L185.148 154.115C185.027 154.195 184.947 154.315 184.907 154.436C184.866 154.556 184.866 154.676 184.866 154.796V154.837C184.907 155.037 185.027 155.157 185.188 155.278C185.349 155.358 185.51 155.398 185.712 155.358H185.752L185.833 155.318ZM194.972 148.661H194.931H194.972Z" fill="#414141"/>
<path fill-rule="evenodd" clip-rule="evenodd" d="M200.889 159.168C199.479 159.689 198.513 161.052 198.513 162.616C198.513 162.737 198.513 162.817 198.513 162.937L198.553 183.428L199.681 203.398L194.326 206.606C194.326 207.007 194.568 207.368 195.091 207.689C195.614 207.969 196.299 208.13 196.983 208.13L203.143 205.242C203.667 204.962 203.908 204.561 203.908 204.16C203.908 204.12 203.908 204.12 203.908 204.08V183.909L204.713 170.315L207.169 171.198L208.216 188.882L210.189 209.132L204.794 212.42C204.794 212.821 205.035 213.182 205.559 213.503C206.082 213.784 206.767 213.944 207.451 213.944L213.57 211.097C213.893 210.897 214.134 210.656 214.255 210.415C214.416 210.095 214.335 209.734 214.335 209.373L213.57 188.801L214.295 167.629C214.295 167.508 214.295 167.428 214.295 167.308C214.295 165.102 212.926 164.381 211.276 163.458L207.33 161.253L204.311 159.569C203.143 158.887 202.016 158.727 200.889 159.168Z" fill="white"/>
<path fill-rule="evenodd" clip-rule="evenodd" d="M201.292 160.13C200.809 160.33 200.366 160.651 200.044 161.092C199.762 161.533 199.601 162.014 199.601 162.576C199.842 169.353 199.641 176.49 199.641 183.307L200.768 203.277C200.809 203.678 200.567 204.039 200.245 204.239L195.937 206.806C196.018 206.846 196.139 206.886 196.219 206.886C196.38 206.926 196.581 206.966 196.783 206.966L202.661 204.199C202.741 204.159 202.822 204.079 202.862 204.039V204.079C203.023 192.129 202.983 182.104 203.667 170.195C203.707 169.593 204.191 169.152 204.794 169.192C204.915 169.192 205.036 169.232 205.157 169.272L207.572 170.155C207.975 170.315 208.257 170.676 208.257 171.117L209.304 188.801L211.276 209.011C211.317 209.412 211.115 209.813 210.753 210.014L206.405 212.701C206.485 212.741 206.606 212.781 206.687 212.781C206.848 212.821 207.049 212.861 207.25 212.861L213.088 210.134C213.169 210.094 213.209 210.054 213.249 210.014L213.289 209.974C212.323 194.335 212.927 182.826 213.209 167.348C213.209 165.824 212.162 165.222 210.874 164.5C208.498 163.217 206.163 161.854 203.788 160.49C203.345 160.25 202.902 160.089 202.459 160.049C202.057 159.929 201.694 160.009 201.292 160.13ZM198.272 159.929C198.796 159.127 199.601 158.526 200.487 158.165C201.211 157.884 201.976 157.804 202.701 157.884C203.426 157.964 204.11 158.205 204.794 158.606C206.807 159.969 209.746 161.373 211.92 162.616C213.772 163.658 215.343 164.541 215.343 167.307C214.497 171.558 214.779 183.708 214.618 188.801C214.859 195.538 214.859 202.876 215.383 209.493C215.423 209.894 215.423 210.335 215.182 210.856C215.061 211.097 214.9 211.297 214.698 211.498C214.537 211.658 214.336 211.818 214.095 211.939L213.974 212.019L207.975 214.826C207.814 214.906 207.613 214.986 207.452 214.986C207.049 214.986 206.606 214.946 206.204 214.826C205.801 214.746 205.398 214.585 205.036 214.385C204.633 214.144 204.352 213.904 204.11 213.583C203.828 213.222 203.707 212.781 203.707 212.38C203.707 212.019 203.909 211.658 204.231 211.457L209.062 208.53C207.854 195.979 206.888 184.51 206.163 171.959L205.72 171.799L205.036 183.949V203.999V204.119C205.036 204.56 204.915 204.961 204.633 205.322C204.432 205.603 204.11 205.884 203.707 206.124L197.548 209.011C197.387 209.092 197.226 209.132 197.024 209.132C196.581 209.132 196.179 209.092 195.776 208.971C195.374 208.851 194.971 208.731 194.649 208.53C194.287 208.33 194.005 208.089 193.803 207.808L193.723 207.728C193.441 207.367 193.32 206.926 193.32 206.525C193.32 206.164 193.522 205.803 193.844 205.603L198.635 202.716C197.829 188.681 197.548 177.052 197.507 162.977C197.507 162.856 197.507 162.696 197.507 162.576C197.467 161.613 197.749 160.691 198.272 159.929Z" fill="#414141"/>
<path fill-rule="evenodd" clip-rule="evenodd" d="M199.682 203.357L194.327 206.565C194.327 206.966 194.569 207.327 195.092 207.648C195.615 207.929 196.3 208.089 196.984 208.089L203.144 205.202C203.587 204.961 203.829 204.641 203.909 204.32C201.816 204.641 200.648 204.601 199.682 203.357Z" fill="white"/>
<path fill-rule="evenodd" clip-rule="evenodd" d="M199.521 204.72L195.978 206.845C196.059 206.885 196.18 206.925 196.26 206.925C196.421 206.966 196.622 207.006 196.824 207.006L200.528 205.281C200.125 205.121 199.803 204.961 199.521 204.72ZM193.804 205.642L199.159 202.434C199.602 202.154 200.206 202.274 200.568 202.715C200.89 203.116 201.212 203.316 201.615 203.397C202.138 203.477 202.863 203.437 203.829 203.276C203.95 203.276 204.111 203.276 204.232 203.316C204.795 203.437 205.158 204.038 205.037 204.6C204.956 204.92 204.795 205.201 204.594 205.482L204.554 205.522C204.352 205.763 204.111 205.963 203.789 206.164L197.629 209.051C197.468 209.131 197.307 209.171 197.106 209.171C196.663 209.171 196.26 209.131 195.858 209.011C195.455 208.89 195.052 208.77 194.73 208.57C194.368 208.369 194.086 208.128 193.885 207.848L193.804 207.768C193.522 207.407 193.402 206.966 193.402 206.565C193.281 206.204 193.482 205.843 193.804 205.642Z" fill="#414141"/>
<path fill-rule="evenodd" clip-rule="evenodd" d="M198.111 171.999C195.937 169.232 199.078 155.718 200.245 152.671L199.118 146.936C198.635 144.49 198.514 142.365 198.756 139.919L199.198 135.227C199.48 132.821 203.023 130.816 204.553 131.698L208.66 134.064L211.478 135.668C212.645 136.31 214.175 137.713 214.215 139.398L213.531 156.721L215.826 167.427C215.866 167.548 215.504 174.926 215.383 177.212C215.343 177.893 215.423 178.736 214.779 179.137C213.934 179.618 211.558 179.858 210.31 179.137L198.917 172.6C198.554 172.4 198.313 172.279 198.111 171.999Z" fill="#2B7CFF"/>
<path fill-rule="evenodd" clip-rule="evenodd" d="M197.187 172.561C196.18 171.197 196.14 168.23 196.502 164.982C197.026 160.29 198.395 154.756 199.119 152.591L198.032 147.137C197.791 145.894 197.63 144.691 197.549 143.488C197.469 142.285 197.509 141.082 197.63 139.799L198.073 135.108C198.153 134.546 198.354 133.985 198.636 133.463C199.16 132.541 200.045 131.739 201.012 131.178C201.978 130.616 203.065 130.336 203.991 130.416C204.353 130.456 204.716 130.576 205.038 130.737C207.332 132.06 209.748 133.343 212.003 134.747C212.768 135.188 213.653 135.869 214.257 136.752C214.821 137.514 215.183 138.396 215.223 139.358L214.539 156.601L216.834 167.187C216.874 167.308 216.874 167.468 216.834 167.588C216.834 168.19 216.794 169.433 216.713 170.796C216.592 173.122 216.471 175.969 216.391 177.253V177.533C216.351 178.415 216.351 179.378 215.264 180.019L215.183 180.06C214.539 180.38 213.492 180.621 212.405 180.621C211.439 180.621 210.473 180.461 209.708 180.019C205.883 177.814 201.938 175.649 198.153 173.363C197.831 173.162 197.549 173.002 197.227 172.641L197.187 172.561ZM198.596 165.182C198.274 167.989 198.274 170.395 198.878 171.278L198.918 171.318C198.958 171.398 199.079 171.438 199.2 171.518C203.025 173.483 207.01 176.009 210.795 178.175C211.157 178.375 211.761 178.496 212.405 178.496C213.13 178.496 213.814 178.375 214.136 178.215L214.177 178.175C214.217 178.175 214.217 177.814 214.217 177.493V177.132C214.297 175.849 214.458 172.962 214.539 170.716C214.62 168.992 214.7 167.709 214.7 167.669L212.405 156.962C212.405 156.882 212.365 156.802 212.365 156.681L213.049 139.358C213.049 138.877 212.808 138.436 212.526 137.995C212.083 137.393 211.479 136.912 210.916 136.591C208.58 135.348 206.245 133.905 203.951 132.581C203.91 132.541 203.83 132.541 203.709 132.501C203.266 132.461 202.622 132.621 202.018 132.982C201.374 133.343 200.81 133.864 200.448 134.466C200.287 134.747 200.206 134.987 200.166 135.268L199.723 139.92C199.602 141.082 199.602 142.205 199.643 143.288C199.683 144.371 199.844 145.453 200.086 146.616L201.213 152.35C201.253 152.551 201.253 152.751 201.173 152.912C200.528 154.837 199.119 160.451 198.596 165.182Z" fill="#414141"/>
<path fill-rule="evenodd" clip-rule="evenodd" d="M221.906 164.7L218.604 165.221L219.329 170.194L220.456 170.675L221.745 174.886L223.677 173.843C223.395 168.069 223.516 169.111 221.906 164.7Z" fill="white"/>
<path fill-rule="evenodd" clip-rule="evenodd" d="M221.22 165.863L219.851 166.063L220.334 169.432L220.898 169.672C221.22 169.793 221.421 170.033 221.502 170.354L222.388 173.321L222.589 173.241V173.201C222.468 170.955 222.428 169.913 222.267 169.071C222.146 168.349 221.905 167.747 221.462 166.544L221.22 165.863ZM218.442 164.138L221.743 163.617C222.227 163.537 222.75 163.818 222.911 164.299L223.475 165.783C223.958 167.066 224.199 167.747 224.401 168.63C224.602 169.592 224.642 170.715 224.763 173.081L224.803 173.803C224.803 174.204 224.602 174.564 224.24 174.765L222.388 175.767C222.307 175.808 222.227 175.848 222.106 175.888C221.542 176.048 220.938 175.727 220.777 175.166L219.65 171.437L219.046 171.196C218.684 171.076 218.402 170.755 218.321 170.354L217.597 165.341C217.476 164.78 217.879 164.259 218.442 164.138Z" fill="#414141"/>
<path fill-rule="evenodd" clip-rule="evenodd" d="M221.985 164.58L220.093 153.874C220.093 153.833 220.093 153.753 220.053 153.713C220.013 153.553 219.972 153.392 219.892 153.232L214.094 138.716L208.458 141.362L215.906 154.916L218.563 165.302C218.604 165.543 218.684 165.743 218.845 165.944C219.409 166.746 220.496 166.946 221.301 166.385C221.865 165.984 222.146 165.222 221.985 164.58Z" fill="#2B7CFF"/>
<path fill-rule="evenodd" clip-rule="evenodd" d="M210.35 147.098C210.068 146.576 210.27 145.935 210.793 145.654C211.317 145.373 211.961 145.574 212.242 146.095L216.832 154.436C216.872 154.516 216.913 154.596 216.913 154.677L219.57 165.143L219.61 165.223L219.691 165.383C219.811 165.504 219.932 165.584 220.093 165.624C220.254 165.664 220.456 165.624 220.617 165.504C220.737 165.423 220.818 165.303 220.858 165.183C220.898 165.063 220.898 164.902 220.898 164.782C217.637 148.261 220.496 157.604 213.048 139.078C212.846 138.516 213.088 137.915 213.652 137.714C214.215 137.514 214.819 137.754 215.02 138.316L220.818 152.752C220.858 152.832 220.898 152.952 220.939 153.033C221.985 155.96 222.428 161.133 222.992 164.341C223.113 164.862 223.072 165.423 222.871 165.945C222.67 166.426 222.348 166.907 221.865 167.228C221.22 167.669 220.456 167.829 219.771 167.709C219.087 167.589 218.443 167.228 218 166.626L217.919 166.546C217.798 166.386 217.718 166.225 217.637 166.065C217.557 165.905 217.517 165.744 217.476 165.624L214.859 155.318L210.35 147.098Z" fill="#414141"/>
<path fill-rule="evenodd" clip-rule="evenodd" d="M208.779 130.856H204.028L203.666 135.388C203.666 135.428 203.666 135.468 203.666 135.508C203.666 135.909 203.948 136.31 204.471 136.631C205.558 137.232 207.289 137.232 208.376 136.631C208.9 136.31 209.182 135.909 209.182 135.508C209.182 135.468 209.182 135.428 209.182 135.388L208.779 130.856Z" fill="white"/>
<path fill-rule="evenodd" clip-rule="evenodd" d="M207.814 131.939H205.036L204.754 135.508C204.794 135.588 204.875 135.628 204.995 135.708L205.036 135.748C205.398 135.949 205.881 136.029 206.405 136.029C206.928 136.029 207.451 135.909 207.814 135.708C207.934 135.628 208.015 135.548 208.055 135.508C208.095 135.508 207.814 132.26 207.814 131.939ZM204.029 129.813H208.82C209.384 129.813 209.867 130.255 209.907 130.816C210.028 132.38 210.189 133.984 210.27 135.548C210.27 135.949 210.149 136.31 209.907 136.671L209.867 136.751C209.666 137.072 209.344 137.352 208.941 137.553C208.216 137.954 207.331 138.154 206.445 138.154C205.599 138.154 204.754 137.954 204.029 137.593L203.949 137.553C203.546 137.312 203.224 137.031 203.023 136.751C202.741 136.39 202.62 135.949 202.62 135.508C202.62 135.427 202.62 135.347 202.62 135.267L202.982 130.816C202.942 130.255 203.425 129.813 204.029 129.813Z" fill="#414141"/>
<path fill-rule="evenodd" clip-rule="evenodd" d="M206.405 118.586C208.981 118.586 211.437 120.631 211.196 123.197L210.672 128.852C210.471 131.217 209.142 133.463 206.405 133.463C203.788 133.463 202.379 131.378 202.137 128.852L201.614 123.197C201.372 120.671 203.747 118.586 206.405 118.586Z" fill="white"/>
<path fill-rule="evenodd" clip-rule="evenodd" d="M206.404 117.503C206.565 117.503 206.726 117.503 206.927 117.543H206.967C208.336 117.663 209.665 118.265 210.631 119.187C211.637 120.15 212.282 121.433 212.282 122.876C212.282 123.037 212.282 123.157 212.282 123.317L211.758 128.931C211.637 130.415 211.114 131.899 210.108 132.981C209.222 133.944 208.014 134.545 206.404 134.545C204.833 134.545 203.585 133.944 202.7 132.981C201.733 131.939 201.21 130.535 201.049 128.972L200.526 123.317C200.526 123.157 200.485 122.997 200.485 122.876C200.485 121.473 201.13 120.19 202.096 119.227C203.062 118.305 204.391 117.703 205.759 117.543H205.8C206.082 117.503 206.243 117.503 206.404 117.503ZM206.726 119.668C206.645 119.668 206.524 119.668 206.404 119.668C206.283 119.668 206.162 119.668 206.041 119.668C205.115 119.749 204.27 120.15 203.626 120.751C203.022 121.312 202.659 122.074 202.659 122.876V123.117L203.183 128.771C203.304 129.894 203.666 130.896 204.27 131.538C204.753 132.099 205.478 132.42 206.404 132.42C207.33 132.42 208.054 132.059 208.537 131.538C209.182 130.856 209.504 129.814 209.624 128.771C209.785 126.846 210.067 124.801 210.148 122.876C210.148 122.034 209.745 121.312 209.182 120.751C208.497 120.15 207.652 119.749 206.726 119.668Z" fill="#414141"/>
<path fill-rule="evenodd" clip-rule="evenodd" d="M210.19 209.091L204.795 212.379C204.795 212.78 205.036 213.141 205.56 213.462C206.083 213.742 206.768 213.903 207.452 213.903L213.572 211.056C213.894 210.855 214.135 210.615 214.256 210.374C214.296 210.294 214.296 210.214 214.337 210.133C212.243 210.454 211.156 210.294 210.19 209.091Z" fill="white"/>
<path fill-rule="evenodd" clip-rule="evenodd" d="M210.029 210.454L206.405 212.66C206.486 212.7 206.607 212.74 206.687 212.74C206.848 212.78 207.049 212.82 207.251 212.82L211.035 211.056C210.673 210.895 210.351 210.695 210.029 210.454ZM204.271 211.457L209.666 208.169C210.109 207.888 210.753 208.008 211.075 208.409C211.397 208.81 211.72 209.051 212.122 209.131C212.605 209.251 213.29 209.211 214.216 209.091C214.336 209.091 214.457 209.091 214.578 209.091C215.142 209.211 215.544 209.773 215.423 210.334L215.343 210.575C215.303 210.655 215.303 210.735 215.262 210.815C215.142 211.056 214.981 211.256 214.779 211.457C214.618 211.617 214.417 211.778 214.175 211.898L214.055 211.978L208.056 214.785C207.895 214.865 207.694 214.946 207.532 214.946C207.13 214.946 206.687 214.905 206.284 214.785C205.882 214.705 205.479 214.545 205.117 214.344C204.714 214.103 204.432 213.863 204.191 213.542C203.909 213.181 203.788 212.74 203.788 212.339C203.748 212.018 203.949 211.657 204.271 211.457Z" fill="#414141"/>
<path fill-rule="evenodd" clip-rule="evenodd" d="M204.392 136.872C204.472 136.27 204.996 135.869 205.6 135.95C206.204 136.03 206.606 136.551 206.526 137.153C206.284 138.997 206.123 140.2 206.083 141.283C206.043 142.326 206.043 143.288 206.204 144.651C206.244 145.253 205.841 145.774 205.237 145.814C204.634 145.854 204.11 145.453 204.07 144.852C203.909 143.368 203.909 142.326 203.949 141.163C203.989 140.04 204.15 138.797 204.392 136.872Z" fill="#414141"/>
<path fill-rule="evenodd" clip-rule="evenodd" d="M207.412 126.004L207.453 130.134C207.453 131.096 208.982 132.54 209.667 132.5L212.646 132.54L212.525 124.961C212.485 120.63 210.351 117.102 206.366 117.102C202.38 117.102 199.924 120.109 200.246 124.44C200.246 124.64 200.286 124.841 200.286 125.041C200.447 126.645 200.608 127.848 202.138 128.891L201.615 123.197V122.635L202.742 123.277L207.412 126.004Z" fill="white"/>
<path fill-rule="evenodd" clip-rule="evenodd" d="M208.499 126.004C208.499 127.408 208.539 128.811 208.539 130.175C208.579 130.375 208.821 130.656 209.103 130.937C209.385 131.217 209.626 131.418 209.666 131.418C210.31 131.418 210.955 131.418 211.559 131.458L211.478 124.962C211.438 122.917 210.955 121.112 209.948 119.869C209.143 118.827 207.935 118.145 206.405 118.145C206.244 118.145 206.083 118.145 205.962 118.145C204.553 118.225 203.386 118.827 202.621 119.749C202.178 120.27 201.856 120.872 201.655 121.593C201.856 121.593 202.057 121.634 202.218 121.754L208.016 125.082C208.297 125.283 208.459 125.603 208.499 126.004ZM206.365 130.135L206.325 126.606L202.782 124.601L203.184 128.771C203.225 129.012 203.144 129.253 202.983 129.493C202.661 129.974 201.977 130.095 201.494 129.774C200.527 129.132 200.004 128.41 199.682 127.568C199.36 126.806 199.279 126.045 199.199 125.162L199.158 124.561C199.158 124.28 199.118 123.999 199.118 123.759C199.118 121.634 199.762 119.789 200.89 118.426C202.057 117.062 203.708 116.22 205.761 116.06C205.962 116.06 206.164 116.02 206.365 116.02C208.62 116.02 210.391 116.982 211.639 118.546C212.887 120.15 213.572 122.436 213.612 124.962L213.733 132.581C213.733 133.182 213.249 133.623 212.646 133.623C212.404 133.623 209.666 133.583 209.666 133.583C209.022 133.583 208.177 133.102 207.533 132.42C206.969 131.819 206.486 131.017 206.405 130.295C206.365 130.255 206.365 130.215 206.365 130.135Z" fill="#414141"/>
</svg>
