<svg width="226" height="232" viewBox="0 0 226 232" fill="none" xmlns="http://www.w3.org/2000/svg">
<path d="M142.221 161.543C145.314 172.772 117.237 190.299 79.5103 200.689C41.7835 211.08 8.69262 210.399 5.59989 199.17C3.87044 192.89 11.8877 184.642 25.8887 176.773C36.9254 170.57 51.6804 164.604 68.3106 160.023C106.037 149.633 139.128 150.313 142.221 161.543Z" fill="#E8E8E8"/>
<path fill-rule="evenodd" clip-rule="evenodd" d="M16.1646 207.451L8.41817 202.972L7.99281 202.672L7.61667 202.309L7.27636 201.87L6.99875 201.355L6.77486 200.791L6.60919 200.15L6.51066 199.447L6.48828 198.699V64.367L6.51066 63.5652L6.60919 62.75L6.77486 61.9347L6.99875 61.0926L7.27636 60.2685L7.61667 59.4398L7.99281 58.638L8.41817 57.8452L8.89281 57.0793L9.39431 56.3402L9.94509 55.6504L10.5227 54.9875L11.1227 54.3873L11.763 53.8229L12.4123 53.3302L13.0929 52.9046L27.2559 44.7166L35.6919 39.8522L77.9973 15.4135L85.3676 11.1628L100.61 2.36109L101.272 2.01169L101.94 1.74744L102.576 1.57274L103.18 1.46973H103.758L104.308 1.53244L104.81 1.68472L105.285 1.90868L113.031 6.37445L112.556 6.15946L112.041 6.01166L111.504 5.94895H110.926L110.309 6.04748L109.686 6.22217L109.032 6.48643L108.356 6.83583L93.1141 15.6375L85.7438 19.8928L43.4384 44.3269L35.0023 49.1959L20.8393 57.3838L20.1632 57.8094L19.5095 58.2976L18.8826 58.862L18.2691 59.4622L17.6915 60.1162L17.1408 60.8194L16.6393 61.5585L16.1646 62.3244L15.7348 63.1128L15.3586 63.9146L15.0362 64.7432L14.7452 65.5719L14.5213 66.396L14.3601 67.2247L14.2571 68.0399L14.2213 68.8417V203.174L14.2571 203.926L14.3601 204.629L14.5213 205.256L14.7452 205.83L15.0362 206.345L15.3586 206.77L15.7348 207.147L16.1646 207.451Z" fill="white"/>
<path fill-rule="evenodd" clip-rule="evenodd" d="M103.564 2.92494L101.822 3.37735L101.284 3.66403L12.1019 55.4886L10.0959 57.9208L8.38986 61.5714L7.95105 64.4291L8.06299 199.952L9.01675 201.605L12.778 203.787L12.7511 203.236V68.8412L13.078 66.1088L14.4079 62.4851L16.5259 59.2108L18.5319 57.1907L20.0498 56.1381L108.171 5.26757L103.564 2.92494ZM16.1632 208.915C15.9124 208.915 15.6617 208.853 15.4244 208.714L6.58984 203.361L5.71219 202.071L5.18831 200.53L5.01367 198.761V64.3709L5.34054 61.6385L6.67043 58.0149L8.78838 54.7406L10.7944 52.7205L12.3123 51.6678L101.396 0.385206L102.964 0.022418L103.743 0L105.22 0.277709L105.923 0.577837L113.768 5.10632C114.458 5.50497 114.709 6.36051 114.346 7.07719C113.983 7.78043 113.128 8.05364 112.416 7.73114L111.324 7.41761L109.595 7.87002L109.044 8.1567L19.8573 59.9812L17.8513 62.4135L16.1497 66.064L15.7109 68.9218L15.8229 204.432L17.0139 206.25C17.6677 206.703 17.8423 207.581 17.4169 208.243C17.1259 208.678 16.6513 208.915 16.1632 208.915Z" fill="#414141"/>
<path fill-rule="evenodd" clip-rule="evenodd" d="M108.353 156.44L20.8358 206.983C17.1865 209.093 14.2178 207.373 14.2178 203.171V68.8396C14.2178 64.6291 17.1865 59.487 20.8358 57.3772L34.9988 49.1893L43.4349 44.3248L85.7403 19.8862L93.1106 15.6354L108.353 6.83372C111.989 4.72849 114.957 6.44403 114.957 10.6455V144.977C114.957 149.179 111.989 154.33 108.353 156.44Z" fill="white"/>
<path fill-rule="evenodd" clip-rule="evenodd" d="M108.355 156.441H108.39H108.355ZM111.301 7.39935C110.647 7.39935 109.895 7.65021 109.08 8.10261L21.5631 58.6596C18.3929 60.4916 15.6973 65.1544 15.6973 68.8408V203.173C15.6973 204.628 16.1361 205.717 16.9018 206.169C17.6809 206.608 18.8317 206.447 20.0989 205.708L107.616 155.164C110.799 153.332 113.495 148.669 113.495 144.983V10.6513C113.495 9.19552 113.056 8.09366 112.291 7.65469C112.004 7.48896 111.677 7.39935 111.301 7.39935ZM17.8914 209.367C17.0003 209.367 16.1764 209.152 15.4197 208.713C13.6913 207.723 12.751 205.739 12.751 203.173V68.8408C12.751 64.0749 15.9749 58.4848 20.0989 56.1019L107.616 5.55839C109.846 4.26838 112.04 4.10263 113.759 5.09254C115.488 6.09588 116.441 8.06227 116.441 10.6468V144.979C116.441 149.744 113.208 155.335 109.085 157.717L21.5676 208.261C20.2959 208.991 19.0556 209.367 17.8914 209.367Z" fill="#414141"/>
<path fill-rule="evenodd" clip-rule="evenodd" d="M26.3301 66.8473V194.747L105.975 148.754V20.8682C79.4268 36.1916 52.8784 51.5239 26.3301 66.8473Z" fill="white"/>
<path fill-rule="evenodd" clip-rule="evenodd" d="M27.8081 67.7127V192.199L104.493 147.909V23.4086L27.8081 67.7127ZM26.3304 196.226C26.0797 196.226 25.8155 196.163 25.605 196.024C25.1438 195.76 24.8662 195.272 24.8662 194.748V66.8481C24.8662 66.333 25.1438 65.8448 25.605 65.5805L105.237 19.5879C105.698 19.3236 106.253 19.3236 106.714 19.5879C107.167 19.8521 107.44 20.3404 107.44 20.869V148.755C107.44 149.279 107.162 149.772 106.714 150.032L27.0692 196.024C26.8454 196.163 26.5946 196.226 26.3304 196.226Z" fill="#414141"/>
<path fill-rule="evenodd" clip-rule="evenodd" d="M54.1794 56.5408C54.1794 51.8242 54.1794 48.1646 54.1794 43.4391C63.9318 37.8087 73.6843 32.1694 83.4367 26.539C83.4367 31.2646 83.4367 34.9286 83.4367 39.6541C73.6843 45.28 63.9318 50.9104 54.1794 56.5408ZM87.7622 41.419V19.7754L49.8584 41.6698V63.2999L87.7622 41.419Z" fill="white"/>
<path fill-rule="evenodd" clip-rule="evenodd" d="M55.6579 44.2906V53.997L81.969 38.799V29.0926L55.6579 44.2906ZM54.1803 58.0239C53.9296 58.0239 53.6788 57.9612 53.4415 57.8223C52.9893 57.558 52.7027 57.0698 52.7027 56.5412V43.4395C52.7027 42.9154 52.9937 42.4227 53.4415 42.1629L82.6989 25.2584C83.1646 24.9941 83.7288 25.0075 84.1765 25.2584C84.6378 25.5226 84.9153 26.0109 84.9153 26.5394V39.6546C84.9153 40.1697 84.6378 40.6579 84.1765 40.9222L54.9191 57.8267C54.6952 57.9566 54.4311 58.0239 54.1803 58.0239ZM87.7632 41.4194H87.799H87.7632ZM51.3325 42.5213L86.29 22.3334V40.5639L51.3325 60.7517V42.5213ZM49.8548 64.7785C49.6041 64.7785 49.3533 64.7024 49.1295 64.5769C48.6638 64.3127 48.3906 63.8244 48.3906 63.2959V41.6657C48.3906 41.1372 48.6683 40.649 49.1295 40.3847L87.0333 18.4948C87.4856 18.2439 88.0497 18.2439 88.502 18.4948C88.9632 18.759 89.2408 19.2473 89.2408 19.7713V41.4149C89.2408 41.93 88.9632 42.4183 88.502 42.6825L50.5982 64.5769C50.3698 64.7024 50.119 64.7785 49.8548 64.7785Z" fill="#414141"/>
<path fill-rule="evenodd" clip-rule="evenodd" d="M49.8548 41.67L87.7631 19.7756L82.5734 16.779L79.4615 14.9873L41.5576 36.8817L49.8548 41.67Z" fill="#2B7CFF"/>
<path fill-rule="evenodd" clip-rule="evenodd" d="M44.504 36.8816L49.8549 39.9678L84.8125 19.7799L79.4616 16.6937L44.504 36.8816ZM49.8549 43.1481C49.6042 43.1481 49.3534 43.0719 49.1296 42.9465L40.8323 38.1447C40.3711 37.8805 40.0801 37.4057 40.0801 36.8771C40.0801 36.3486 40.3711 35.8604 40.8323 35.5961L78.7362 13.706C79.1885 13.4417 79.7392 13.4417 80.2049 13.706L88.5021 18.4943C88.9633 18.7586 89.2409 19.2468 89.2409 19.7709C89.2409 20.2995 88.9633 20.7877 88.5021 21.052L50.5983 42.9465C50.3699 43.0764 50.1191 43.1481 49.8549 43.1481Z" fill="#414141"/>
<path fill-rule="evenodd" clip-rule="evenodd" d="M16.1647 207.452L8.41818 202.973L7.99282 202.673L7.61667 202.31L7.27636 201.871L6.99875 201.356L6.77486 200.792L6.60919 200.151L6.51066 199.448L6.48828 198.7V64.3681L6.51066 63.5663L6.60919 62.7511L6.77486 61.9224L6.99875 61.0938L7.27636 60.2696L7.61667 59.441L7.99282 58.6392L8.41818 57.8464L8.44059 57.8105L16.187 62.2853L16.1647 62.3256L15.7348 63.1139L15.3586 63.9157L15.0363 64.7444L14.7363 65.573L14.5213 66.3972L14.3601 67.2259L14.2571 68.0411L14.2213 68.8429V203.175L14.2571 203.927L14.3601 204.631L14.5213 205.258L14.7363 205.831L15.0363 206.346L15.3586 206.772L15.7348 207.148L16.1647 207.452Z" fill="#2B7CFF"/>
<path fill-rule="evenodd" clip-rule="evenodd" d="M9.04362 59.8637L8.19284 62.3094L7.95554 64.4281L8.06748 199.951L9.02124 201.604L12.7825 203.786L12.7556 203.235V68.8401L13.0825 66.1078L14.2333 62.8469L9.04362 59.8637ZM16.1632 208.914C15.9125 208.914 15.6617 208.852 15.4378 208.713L6.58984 203.36L5.7122 202.07L5.18831 200.516L5.01367 198.76V64.3699L5.34054 61.6375L6.67043 58.0138L7.13611 57.1494C7.32417 56.8 7.65105 56.5223 8.04062 56.4237C8.41674 56.3118 8.85556 56.3476 9.19139 56.5357L16.9378 61.0105C17.2782 61.212 17.5244 61.539 17.6274 61.9152C17.7259 62.2915 17.6632 62.6902 17.4662 63.0306L16.1498 66.0541L15.711 68.9118L15.8229 204.422L17.014 206.24C17.6677 206.679 17.8558 207.571 17.4259 208.234C17.1393 208.664 16.6513 208.914 16.1632 208.914Z" fill="#414141"/>
<path fill-rule="evenodd" clip-rule="evenodd" d="M41.5576 41.1415L45.2562 43.2736V60.6441L49.8548 63.3003V41.6701L41.5576 36.8818V41.1415Z" fill="white"/>
<path fill-rule="evenodd" clip-rule="evenodd" d="M46.734 59.8028L48.3862 60.7569V42.5265L43.0354 39.4314V40.2959L45.9817 41.998C46.4429 42.2622 46.734 42.7505 46.734 43.279V59.8028ZM49.8549 64.7792C49.6042 64.7792 49.3534 64.7031 49.1296 64.5777L44.5309 61.9215C44.0697 61.6572 43.7787 61.169 43.7787 60.6404V44.1256L40.8323 42.4056C40.3711 42.1548 40.0801 41.6531 40.0801 41.138V36.8738C40.0801 36.3452 40.3711 35.857 40.8323 35.5927C41.2846 35.3285 41.8488 35.3285 42.2966 35.5927L50.5938 40.381C51.055 40.6453 51.3326 41.1335 51.3326 41.662V63.2921C51.3326 63.8207 51.055 64.3089 50.5938 64.5732C50.3699 64.7031 50.1191 64.7792 49.8549 64.7792Z" fill="#414141"/>
<path fill-rule="evenodd" clip-rule="evenodd" d="M78.833 29.1958V36.5418L83.4361 39.6504V26.5352L78.833 29.1958Z" fill="white"/>
<path fill-rule="evenodd" clip-rule="evenodd" d="M80.3143 35.7535L81.9666 36.8688V29.0929L80.3143 30.047V35.7535ZM83.4353 41.1196C83.1442 41.1196 82.8576 41.0345 82.6203 40.8687L78.0083 37.7602C77.6053 37.4825 77.3545 37.0211 77.3545 36.5463V29.1959C77.3545 28.6808 77.6321 28.1791 78.1068 27.9193L82.7054 25.2586C83.1576 24.9944 83.7218 25.0078 84.1741 25.2586C84.6353 25.5229 84.9129 26.0111 84.9129 26.5397V39.6549C84.9129 40.1924 84.6129 40.6941 84.1248 40.9449C83.9099 41.0703 83.6726 41.1196 83.4353 41.1196Z" fill="#414141"/>
<path fill-rule="evenodd" clip-rule="evenodd" d="M54.1787 50.7724L78.833 36.542L83.4361 39.6505L54.1787 56.5417V50.7724Z" fill="white"/>
<path fill-rule="evenodd" clip-rule="evenodd" d="M55.6565 51.6269V53.9964L80.6645 39.5509L78.7704 38.2699L55.6565 51.6269ZM54.1788 58.0233C53.9281 58.0233 53.6773 57.9606 53.44 57.8217C52.9878 57.5575 52.7012 57.0692 52.7012 56.5406V50.7714C52.7012 50.2473 52.9922 49.7546 53.44 49.4903L78.1077 35.2598C78.5823 34.9732 79.1958 34.9956 79.6615 35.3091L84.2601 38.4177C84.6855 38.7043 84.9272 39.1836 84.9138 39.6987C84.8914 40.2004 84.6138 40.6618 84.175 40.9126L54.9176 57.8172C54.6937 57.9561 54.4296 58.0233 54.1788 58.0233Z" fill="#414141"/>
<path fill-rule="evenodd" clip-rule="evenodd" d="M85.8815 56.3403C82.9844 58.02 80.5307 62.2708 80.5307 65.6302C80.5307 66.9471 80.9068 67.9146 81.5829 68.2998C82.2367 68.6895 83.2755 68.5372 84.4173 67.8743C87.3234 66.1946 89.7682 61.9438 89.7682 58.5844C89.7682 57.2675 89.3921 56.2911 88.7249 55.9148C88.0622 55.5251 87.0189 55.6774 85.8815 56.3403ZM82.4203 71.4621C81.5919 71.4621 80.8038 71.2606 80.1008 70.8619C78.4709 69.9213 77.5664 68.0669 77.5664 65.6347C77.5664 61.1958 80.5754 56.0044 84.4128 53.7872C86.5174 52.5733 88.5727 52.421 90.1936 53.3616C91.8235 54.3023 92.7235 56.1567 92.7235 58.5889C92.7235 63.0278 89.7145 68.2192 85.8815 70.4364C84.6905 71.1262 83.5083 71.4621 82.4203 71.4621Z" fill="#2B7CFF"/>
<path fill-rule="evenodd" clip-rule="evenodd" d="M47.2116 157.167C44.3056 158.86 41.8473 163.111 41.8473 166.461C41.8473 167.778 42.2369 168.755 42.8996 169.144C43.5623 169.521 44.6056 169.368 45.7474 168.719C48.6534 167.039 51.1117 162.775 51.1117 159.429C51.1117 158.099 50.7221 157.136 50.0594 156.759C49.3788 156.352 48.34 156.513 47.2116 157.167ZM43.7503 172.302C42.922 172.302 42.1204 172.087 41.4174 171.689C39.801 170.748 38.8965 168.894 38.8965 166.461C38.8965 162.036 41.9055 156.831 45.7429 154.623C47.8385 153.409 49.8893 153.243 51.5326 154.197C53.149 155.138 54.0535 156.992 54.0535 159.425C54.0535 163.85 51.0445 169.055 47.2071 171.263C46.0205 171.962 44.8384 172.302 43.7503 172.302Z" fill="#2B7CFF"/>
<path fill-rule="evenodd" clip-rule="evenodd" d="M47.8771 152.865C47.0621 152.865 46.4084 152.211 46.3994 151.409C46.2338 129.855 56.4743 118.908 66.379 108.337C75.2046 98.9082 83.5376 90.0035 84.1018 73.9903C84.1242 73.3274 84.5899 72.763 85.2436 72.6107C85.8571 72.4629 86.5466 72.7495 86.8735 73.3363L90.9975 80.9196C91.387 81.6363 91.1363 82.5277 90.4064 82.9129C89.6944 83.3026 88.8034 83.0383 88.4004 82.3216L86.6183 79.0249C84.6122 93.1569 76.4538 101.882 68.5283 110.335C59.0131 120.494 49.189 131.002 49.3502 151.378C49.3502 152.18 48.6875 152.856 47.886 152.856H47.8771V152.865Z" fill="#414141"/>
<path fill-rule="evenodd" clip-rule="evenodd" d="M80.0884 84.2264C79.8242 84.2264 79.5511 84.1502 79.3138 83.989C78.6242 83.5635 78.4093 82.6452 78.8526 81.9689L84.3288 73.2568C84.7541 72.567 85.6676 72.3655 86.3572 72.8044C87.0467 73.2299 87.2616 74.1482 86.8228 74.8335L81.3466 83.5366C81.069 83.9755 80.5765 84.2264 80.0884 84.2264Z" fill="#414141"/>
<path fill-rule="evenodd" clip-rule="evenodd" d="M47.4072 96.831C47.143 96.831 46.9057 96.7683 46.6684 96.6428C45.9654 96.2308 45.728 95.3394 46.1265 94.6227L56.4432 76.7551C56.8552 76.0384 57.7597 75.8145 58.4492 76.2176C59.1657 76.6163 59.403 77.5211 59 78.2378L48.6833 96.1054C48.4102 96.5757 47.9087 96.831 47.4072 96.831Z" fill="#414141"/>
<path fill-rule="evenodd" clip-rule="evenodd" d="M57.9402 91.0008C57.6894 91.0008 57.4387 90.9381 57.2014 90.8127L46.8848 84.8554C46.1818 84.4299 45.9444 83.5386 46.3474 82.8353C46.7594 82.1231 47.6504 81.8947 48.3669 82.2844L58.6835 88.2416C59.3865 88.6672 59.6238 89.5585 59.2208 90.2618C58.9432 90.7365 58.4506 91.0008 57.9402 91.0008Z" fill="#414141"/>
<path fill-rule="evenodd" clip-rule="evenodd" d="M65.4358 154.169C65.185 154.169 64.9477 154.107 64.7104 153.968C64.0074 153.569 63.7567 152.664 64.1686 151.961L74.333 134.344C74.736 133.641 75.6361 133.404 76.3391 133.802C77.0555 134.214 77.2794 135.119 76.8764 135.822L66.712 153.439C66.4388 153.905 65.9507 154.169 65.4358 154.169Z" fill="#414141"/>
<path fill-rule="evenodd" clip-rule="evenodd" d="M75.8138 148.428C75.563 148.428 75.3123 148.352 75.0884 148.226L64.924 142.359C64.2075 141.956 63.9702 141.042 64.3866 140.339C64.7896 139.635 65.6896 139.398 66.3926 139.796L76.5571 145.664C77.2601 146.076 77.4974 146.981 77.0944 147.684C76.8168 148.164 76.3287 148.428 75.8138 148.428Z" fill="#414141"/>
<path fill-rule="evenodd" clip-rule="evenodd" d="M86.3844 117.947C86.1202 117.947 85.8695 117.884 85.6456 117.745C84.9336 117.342 84.6919 116.442 85.1083 115.739L92.0532 103.69C92.4652 102.986 93.3697 102.749 94.0727 103.152C94.7757 103.564 95.013 104.469 94.61 105.172L87.6517 117.208C87.374 117.683 86.8859 117.947 86.3844 117.947Z" fill="#414141"/>
<path fill-rule="evenodd" clip-rule="evenodd" d="M93.465 114.02C93.2142 114.02 92.9769 113.943 92.7396 113.818L85.7812 109.791C85.0782 109.388 84.8409 108.501 85.2439 107.784C85.6559 107.072 86.5604 106.844 87.2634 107.247L94.2083 111.26C94.9247 111.672 95.162 112.577 94.7456 113.281C94.468 113.746 93.9799 114.02 93.465 114.02Z" fill="#414141"/>
<path fill-rule="evenodd" clip-rule="evenodd" d="M41.8492 125.453C41.5984 125.453 41.3476 125.377 41.1103 125.252C40.4073 124.84 40.17 123.935 40.573 123.232L47.5313 111.196C47.9299 110.493 48.8344 110.242 49.5374 110.654C50.2538 111.057 50.4911 111.957 50.0747 112.661L43.1298 124.71C42.8477 125.18 42.3596 125.453 41.8492 125.453Z" fill="#414141"/>
<path fill-rule="evenodd" clip-rule="evenodd" d="M48.9397 121.517C48.689 121.517 48.4382 121.455 48.2009 121.316L41.256 117.302C40.5395 116.89 40.3022 115.999 40.7187 115.282C41.1172 114.579 42.0217 114.355 42.7247 114.745L49.683 118.772C50.386 119.175 50.6233 120.075 50.2203 120.778C49.9427 121.258 49.4547 121.517 48.9397 121.517Z" fill="#414141"/>
<path opacity="0.2" d="M197.075 231.284C208.163 231.284 217.151 228.066 217.151 224.097C217.151 220.127 208.163 216.909 197.075 216.909C185.988 216.909 177 220.127 177 224.097C177 228.066 185.988 231.284 197.075 231.284Z" fill="#717171"/>
<path fill-rule="evenodd" clip-rule="evenodd" d="M209.476 143.197L215.738 139.371L223.923 156.283C224.251 157 224.303 157.813 224.067 158.565C223.884 158.977 224.015 158.677 223.982 158.735L217.158 171.501C217.053 171.75 217.203 171.684 216.699 172.155C216.369 172.425 215.956 172.572 215.53 172.573C215.103 172.573 214.69 172.426 214.359 172.157C214.028 171.888 213.8 171.513 213.714 171.096C213.628 170.678 213.689 170.244 213.886 169.866L218.97 157.853L209.476 143.197Z" fill="#2B7CFF"/>
<path fill-rule="evenodd" clip-rule="evenodd" d="M214.785 140.013C214.656 139.739 214.642 139.425 214.745 139.14C214.848 138.856 215.06 138.624 215.334 138.495C215.609 138.367 215.923 138.353 216.207 138.456C216.492 138.559 216.724 138.771 216.853 139.045L224.835 156.133C225.108 156.652 225.249 157.228 225.248 157.814C225.278 158.445 225.159 159.075 224.901 159.652C224.886 159.686 224.869 159.718 224.849 159.75L216.996 172.829C216.763 173.369 216.382 173.832 215.897 174.164C215.412 174.496 214.842 174.684 214.255 174.706C213.855 174.727 213.456 174.662 213.083 174.517C212.692 174.36 212.344 174.111 212.069 173.791C211.727 173.352 211.521 172.822 211.478 172.267C211.435 171.713 211.556 171.157 211.827 170.671V170.619L217.971 158.363L210.119 146.18C210.039 146.053 209.983 145.912 209.957 145.765C209.931 145.617 209.934 145.466 209.966 145.32C209.998 145.173 210.059 145.035 210.145 144.912C210.231 144.789 210.34 144.684 210.466 144.604C210.592 144.523 210.733 144.468 210.881 144.442C211.029 144.415 211.18 144.418 211.326 144.45C211.473 144.483 211.611 144.543 211.734 144.629C211.857 144.715 211.962 144.824 212.043 144.95L220.255 157.703C220.361 157.869 220.422 158.06 220.433 158.257C220.443 158.455 220.402 158.651 220.314 158.828L213.882 171.652C213.718 172.031 213.718 172.254 213.797 172.352C213.828 172.38 213.863 172.402 213.901 172.417C213.984 172.444 214.07 172.457 214.157 172.457C214.322 172.445 214.481 172.387 214.614 172.288C214.747 172.19 214.85 172.055 214.909 171.901C214.928 171.854 214.95 171.808 214.975 171.763L222.892 158.579C222.966 158.349 222.995 158.107 222.977 157.866C222.985 157.655 222.944 157.445 222.859 157.252C222.839 157.22 222.822 157.187 222.807 157.153L214.785 140.013Z" fill="#3C3C3C"/>
<path fill-rule="evenodd" clip-rule="evenodd" d="M203.66 218.837C203.398 218.751 203.17 218.584 203.008 218.361C202.847 218.138 202.76 217.87 202.76 217.594C202.76 217.319 202.847 217.05 203.008 216.827C203.17 216.604 203.398 216.438 203.66 216.352C204.327 216.016 205.063 215.842 205.809 215.842C206.556 215.842 207.292 216.016 207.959 216.352L213.612 219.622C213.874 219.708 214.102 219.874 214.264 220.097C214.425 220.32 214.512 220.589 214.512 220.864C214.512 221.14 214.425 221.408 214.264 221.631C214.102 221.854 213.874 222.021 213.612 222.107C212.945 222.442 212.209 222.617 211.463 222.617C210.716 222.617 209.98 222.442 209.313 222.107L203.66 218.837Z" fill="white"/>
<path fill-rule="evenodd" clip-rule="evenodd" d="M203.088 219.824C202.688 219.604 202.34 219.301 202.067 218.935L202.002 218.83C201.756 218.464 201.624 218.035 201.622 217.594C201.632 217.123 201.788 216.666 202.067 216.286C202.338 215.923 202.684 215.622 203.081 215.403V215.403C203.492 215.177 203.933 215.007 204.39 214.9C205.331 214.682 206.309 214.682 207.249 214.9C207.707 215.007 208.147 215.177 208.558 215.403L208.617 215.443L214.205 218.667C214.605 218.887 214.953 219.191 215.226 219.556C215.25 219.59 215.272 219.625 215.291 219.661C215.537 220.027 215.669 220.457 215.671 220.897C215.661 221.368 215.505 221.825 215.226 222.205V222.205C214.953 222.569 214.608 222.872 214.212 223.094L214.133 223.134C213.749 223.338 213.34 223.492 212.916 223.591C211.977 223.818 210.996 223.818 210.057 223.591C209.599 223.49 209.158 223.323 208.748 223.094L203.094 219.824H203.088ZM203.925 217.601C204.007 217.704 204.11 217.789 204.226 217.849L209.88 221.119C210.085 221.235 210.305 221.321 210.534 221.374C211.127 221.505 211.741 221.505 212.334 221.374C212.561 221.329 212.782 221.252 212.988 221.145H213.034C213.149 221.083 213.251 220.998 213.335 220.897V220.897C213.256 220.794 213.156 220.709 213.04 220.648L207.446 217.418L207.38 217.385C207.175 217.269 206.955 217.181 206.726 217.123C206.133 216.993 205.519 216.993 204.926 217.123C204.698 217.181 204.477 217.269 204.272 217.385C204.154 217.444 204.051 217.529 203.971 217.634V217.634L203.925 217.601Z" fill="#3C3C3C"/>
<path fill-rule="evenodd" clip-rule="evenodd" d="M191.73 225.567C191.471 225.48 191.245 225.313 191.085 225.091C190.926 224.868 190.84 224.602 190.84 224.328C190.84 224.054 190.926 223.787 191.085 223.565C191.245 223.343 191.471 223.176 191.73 223.089C192.397 222.749 193.135 222.572 193.883 222.572C194.631 222.572 195.369 222.749 196.036 223.089L201.689 226.359C201.949 226.446 202.174 226.613 202.334 226.835C202.494 227.058 202.58 227.324 202.58 227.598C202.58 227.872 202.494 228.138 202.334 228.361C202.174 228.583 201.949 228.75 201.689 228.837C201.022 229.177 200.285 229.354 199.536 229.354C198.788 229.354 198.051 229.177 197.384 228.837L191.73 225.567Z" fill="white"/>
<path fill-rule="evenodd" clip-rule="evenodd" d="M191.169 226.554C190.768 226.335 190.42 226.032 190.148 225.665L190.083 225.567C189.821 225.185 189.686 224.73 189.698 224.268C189.71 223.805 189.867 223.358 190.148 222.99V222.99C190.419 222.624 190.765 222.321 191.163 222.1V222.1C191.572 221.87 192.013 221.7 192.471 221.597C192.939 221.486 193.417 221.428 193.898 221.427C194.38 221.429 194.861 221.486 195.331 221.597C195.789 221.7 196.23 221.87 196.64 222.1L196.698 222.133L202.293 225.364C202.694 225.582 203.042 225.886 203.314 226.253L203.379 226.351C203.624 226.717 203.756 227.147 203.759 227.587C203.747 228.059 203.589 228.516 203.307 228.895C203.034 229.261 202.686 229.565 202.286 229.785L202.215 229.824C201.831 230.031 201.421 230.187 200.997 230.288C200.528 230.399 200.047 230.456 199.564 230.458C199.084 230.457 198.605 230.4 198.138 230.288C197.68 230.185 197.239 230.015 196.829 229.785L191.176 226.515L191.169 226.554ZM192.007 224.337C192.088 224.436 192.188 224.519 192.301 224.579L197.955 227.849C198.159 227.968 198.379 228.056 198.609 228.111C198.905 228.178 199.208 228.211 199.512 228.209C199.816 228.211 200.119 228.178 200.415 228.111C200.642 228.064 200.862 227.987 201.069 227.882H201.115C201.231 227.823 201.334 227.74 201.416 227.64V227.64C201.332 227.54 201.23 227.458 201.115 227.398L195.521 224.167H195.455C195.251 224.048 195.031 223.959 194.801 223.905C194.206 223.775 193.59 223.775 192.995 223.905C192.765 223.959 192.544 224.048 192.34 224.167C192.227 224.227 192.127 224.31 192.046 224.409L192.007 224.337Z" fill="#3C3C3C"/>
<path fill-rule="evenodd" clip-rule="evenodd" d="M212.768 168.663C213.573 168.976 214.265 169.524 214.753 170.235C215.241 170.947 215.503 171.79 215.504 172.653C215.504 172.777 215.504 172.895 215.504 173.012L214.516 219.222C214.491 219.49 214.396 219.746 214.239 219.965C214.083 220.183 213.871 220.356 213.626 220.465C212.959 220.8 212.223 220.975 211.476 220.975C210.73 220.975 209.994 220.8 209.327 220.465C209.081 220.356 208.869 220.183 208.713 219.965C208.556 219.746 208.461 219.49 208.437 219.222L206.539 181.946L204.177 183.254C203.385 197.602 203.182 211.656 202.593 225.932C202.57 226.2 202.475 226.456 202.318 226.675C202.162 226.893 201.949 227.066 201.704 227.175C201.037 227.514 200.299 227.691 199.551 227.691C198.802 227.691 198.065 227.514 197.398 227.175C197.153 227.065 196.941 226.892 196.785 226.674C196.629 226.455 196.533 226.2 196.508 225.932L195.049 179.722C195.049 179.604 195.049 179.487 195.049 179.369C195.049 176.819 196.626 176.001 198.497 174.942L204.57 171.515L208.888 169.069C209.462 168.713 210.11 168.491 210.782 168.421C211.454 168.35 212.133 168.433 212.768 168.663V168.663Z" fill="white"/>
<path fill-rule="evenodd" clip-rule="evenodd" d="M213.18 167.578C214.2 167.972 215.077 168.665 215.696 169.566C216.315 170.467 216.647 171.534 216.648 172.627C216.648 172.784 216.648 172.947 216.648 173.104L215.673 219.242C215.663 219.713 215.507 220.17 215.228 220.55C214.956 220.914 214.61 221.217 214.214 221.439L214.136 221.479C213.751 221.683 213.342 221.837 212.918 221.937C211.979 222.163 210.999 222.163 210.059 221.937C209.601 221.835 209.16 221.668 208.75 221.439C208.351 221.219 208.003 220.916 207.729 220.55L207.664 220.445C207.419 220.08 207.287 219.65 207.285 219.209V219.209L205.485 183.855L205.282 183.973C204.818 192.475 204.562 200.826 204.301 209.177C204.131 214.782 203.96 220.393 203.731 225.972C203.72 226.444 203.562 226.901 203.28 227.28C203.007 227.646 202.659 227.949 202.259 228.169L202.187 228.208C201.803 228.415 201.394 228.571 200.97 228.673C200.5 228.783 200.02 228.84 199.537 228.843C199.057 228.841 198.578 228.784 198.111 228.673C197.652 228.569 197.211 228.399 196.802 228.169C196.401 227.95 196.052 227.647 195.781 227.28C195.757 227.248 195.735 227.216 195.716 227.181C195.47 226.814 195.338 226.381 195.336 225.939V225.88L193.877 179.827V179.376C193.877 176.237 195.644 175.236 197.764 174.046L197.908 173.961C201.369 171.999 204.831 169.991 208.312 168.075C209.046 167.655 209.855 167.382 210.694 167.271C211.536 167.17 212.391 167.28 213.18 167.591V167.578ZM213.834 170.848C213.479 170.324 212.972 169.92 212.382 169.69C211.937 169.516 211.456 169.455 210.982 169.514C210.435 169.591 209.908 169.773 209.431 170.05L199.053 175.936L198.902 176.021C197.417 176.858 196.187 177.551 196.187 179.369V179.631V179.69L197.646 225.802C197.649 225.841 197.649 225.88 197.646 225.919V225.919C197.727 226.019 197.827 226.101 197.94 226.161C198.145 226.28 198.365 226.368 198.595 226.423C198.891 226.49 199.194 226.523 199.498 226.521C199.802 226.523 200.105 226.49 200.401 226.423C200.628 226.376 200.848 226.299 201.055 226.194H201.101C201.217 226.135 201.32 226.053 201.402 225.952V225.952V225.913C201.637 220.236 201.808 214.664 201.978 209.092C202.246 200.473 202.508 191.86 202.985 183.208C202.995 183.017 203.052 182.832 203.153 182.669C203.254 182.507 203.394 182.372 203.561 182.279L205.858 180.971C206.026 180.862 206.221 180.798 206.421 180.788C206.622 180.777 206.822 180.82 207.001 180.912C207.179 181.003 207.331 181.14 207.439 181.31C207.548 181.479 207.609 181.673 207.618 181.874L209.509 219.066C209.513 219.107 209.513 219.148 209.509 219.19C209.589 219.295 209.692 219.38 209.81 219.438C210.016 219.554 210.236 219.642 210.465 219.7C211.058 219.822 211.671 219.822 212.264 219.7C212.491 219.649 212.711 219.57 212.918 219.464H212.964C213.08 219.402 213.182 219.317 213.265 219.216V219.216L214.247 173.071C214.243 173.019 214.243 172.967 214.247 172.914V172.646C214.282 172.03 214.132 171.417 213.815 170.887L213.834 170.848Z" fill="#3C3C3C"/>
<path fill-rule="evenodd" clip-rule="evenodd" d="M203.404 137.266C204.051 137.593 204.766 137.764 205.491 137.764C206.216 137.764 206.932 137.593 207.579 137.266C208.73 136.612 208.73 135.52 207.579 134.853C206.932 134.522 206.217 134.35 205.491 134.35C204.765 134.35 204.05 134.522 203.404 134.853C202.246 135.533 202.246 136.599 203.404 137.266Z" fill="white"/>
<path fill-rule="evenodd" clip-rule="evenodd" d="M203.975 136.278C204.444 136.517 204.966 136.634 205.493 136.618C206.017 136.635 206.537 136.518 207.004 136.278C207.11 136.223 207.205 136.15 207.286 136.062C207.209 135.971 207.116 135.895 207.011 135.84H206.965C206.506 135.62 206.001 135.512 205.493 135.526C204.966 135.509 204.444 135.626 203.975 135.866V135.866C203.869 135.918 203.776 135.992 203.7 136.082C203.774 136.173 203.865 136.248 203.968 136.304L203.975 136.278ZM205.493 138.894C204.564 138.904 203.648 138.679 202.829 138.24V138.24C202.364 137.988 201.975 137.615 201.704 137.161V137.161C201.503 136.824 201.397 136.44 201.396 136.049V136.049C201.397 135.692 201.487 135.341 201.658 135.029C201.671 134.997 201.686 134.966 201.704 134.937C201.979 134.486 202.367 134.114 202.829 133.858V133.858C203.636 133.436 204.532 133.213 205.442 133.206C206.352 133.199 207.251 133.409 208.064 133.819L208.136 133.858C208.602 134.112 208.993 134.484 209.268 134.937V134.937C209.47 135.272 209.576 135.655 209.576 136.046C209.576 136.436 209.47 136.819 209.268 137.154V137.154C208.993 137.609 208.603 137.984 208.136 138.24C207.327 138.685 206.416 138.915 205.493 138.907V138.894Z" fill="#3C3C3C"/>
<path fill-rule="evenodd" clip-rule="evenodd" d="M215.021 172.351C215.838 171.874 216.185 171.239 216.054 170.624V140.424C215.747 137.67 211.683 135.329 209.904 136.362L201.234 141.365L198.021 143.216C196.66 143.975 194.939 145.59 194.9 147.493V178.655C194.854 178.842 194.854 179.037 194.9 179.224V179.355C195.03 179.747 194.52 180.101 195.495 180.663C196.47 181.225 199.192 181.474 200.605 180.663L215.001 172.364L215.021 172.351Z" fill="#2B7CFF" stroke="#F9FAFE" stroke-width="1.28" stroke-miterlimit="22.93"/>
<path fill-rule="evenodd" clip-rule="evenodd" d="M215.674 173.275C215.614 173.321 215.548 173.361 215.478 173.392L201.187 181.639C200.25 182.105 199.21 182.33 198.164 182.293C197.053 182.325 195.949 182.101 194.938 181.639C193.629 180.9 193.682 180.253 193.767 179.677C193.757 179.581 193.757 179.485 193.767 179.389V179.389C193.754 179.261 193.754 179.132 193.767 179.003C193.757 178.864 193.757 178.724 193.767 178.585V147.534C193.815 146.466 194.19 145.439 194.84 144.591C195.543 143.649 196.435 142.863 197.457 142.282L209.334 135.435C209.697 135.226 210.101 135.097 210.518 135.056C211.7 134.99 212.875 135.289 213.881 135.913C214.981 136.541 215.9 137.442 216.551 138.528C216.884 139.073 217.106 139.677 217.205 140.307C217.212 140.377 217.212 140.447 217.205 140.517V170.6C217.284 171.157 217.163 171.724 216.865 172.202C216.574 172.668 216.174 173.056 215.7 173.333L215.674 173.275ZM214.509 171.313C214.658 171.227 214.786 171.108 214.882 170.966C214.895 170.928 214.895 170.886 214.882 170.848C214.876 170.772 214.876 170.696 214.882 170.619V140.471C214.827 140.155 214.717 139.852 214.555 139.575C214.101 138.846 213.471 138.244 212.723 137.822C212.14 137.443 211.456 137.247 210.76 137.26C210.658 137.268 210.558 137.294 210.466 137.338C206.5 139.627 202.548 141.962 198.563 144.212C197.821 144.626 197.172 145.189 196.659 145.866C196.278 146.336 196.05 146.911 196.005 147.514V178.65C196.015 178.739 196.015 178.829 196.005 178.918V178.918V178.964C196.005 179.003 196.005 179.043 196.005 179.082C196.053 179.272 196.069 179.469 196.05 179.664V179.664V179.867C196.05 179.801 196.05 179.736 196.05 179.67C196.715 179.939 197.429 180.061 198.144 180.03C198.792 180.062 199.438 179.939 200.029 179.67L214.32 171.424C214.378 171.381 214.442 171.346 214.509 171.319V171.313Z" fill="#3C3C3C"/>
<path fill-rule="evenodd" clip-rule="evenodd" d="M202.533 136.056H208.422L208.854 141.673C208.86 141.73 208.86 141.787 208.854 141.843C208.826 142.143 208.718 142.43 208.542 142.675C208.366 142.92 208.129 143.114 207.853 143.236C207.108 143.614 206.284 143.81 205.448 143.81C204.613 143.81 203.789 143.614 203.044 143.236C202.769 143.113 202.533 142.919 202.358 142.674C202.184 142.429 202.077 142.143 202.049 141.843C202.046 141.787 202.046 141.73 202.049 141.673L202.533 136.056Z" fill="white"/>
<path fill-rule="evenodd" clip-rule="evenodd" d="M202.531 134.912H209.5L210.01 141.543C210.014 141.587 210.014 141.631 210.01 141.674C210.01 141.746 210.01 141.798 210.01 141.844C210.008 142.355 209.843 142.852 209.539 143.263C209.248 143.658 208.875 143.986 208.446 144.225C207.528 144.702 206.508 144.951 205.472 144.951C204.437 144.951 203.417 144.702 202.498 144.225V144.225C202.07 143.986 201.697 143.658 201.406 143.263V143.263C201.102 142.852 200.937 142.355 200.934 141.844V141.844C200.928 141.742 200.928 141.639 200.934 141.537L201.451 134.912H202.531ZM207.38 137.201H203.591L203.238 141.779V141.864C203.244 141.898 203.26 141.93 203.284 141.955V141.955C203.385 142.087 203.515 142.194 203.663 142.269V142.269C204.235 142.545 204.861 142.688 205.495 142.688C206.13 142.688 206.756 142.545 207.327 142.269C207.473 142.19 207.601 142.083 207.707 141.955C207.727 141.928 207.74 141.897 207.746 141.864V141.864V141.779L207.393 137.201H207.38Z" fill="#3C3C3C"/>
<path fill-rule="evenodd" clip-rule="evenodd" d="M206.044 122.984H204.932C204.26 122.976 203.594 123.102 202.972 123.356C202.35 123.609 201.785 123.984 201.31 124.458C200.835 124.933 200.46 125.498 200.206 126.119C199.953 126.741 199.826 127.407 199.834 128.078L200.096 134.298C200.12 135.641 200.664 136.924 201.615 137.874C202.566 138.824 203.849 139.369 205.193 139.392H205.749C207.093 139.367 208.375 138.822 209.326 137.872C210.276 136.922 210.822 135.641 210.847 134.298L211.141 128.078C211.15 127.407 211.024 126.74 210.771 126.118C210.518 125.496 210.143 124.931 209.668 124.456C209.193 123.981 208.627 123.607 208.005 123.354C207.383 123.101 206.716 122.975 206.044 122.984Z" fill="white"/>
<path fill-rule="evenodd" clip-rule="evenodd" d="M206.045 124.128H204.736C203.727 124.175 202.771 124.595 202.053 125.305C201.707 125.64 201.431 126.04 201.242 126.483C201.052 126.925 200.952 127.401 200.948 127.882V128.039L201.209 134.258C201.249 135.333 201.693 136.354 202.453 137.116C202.808 137.475 203.23 137.76 203.697 137.954C204.163 138.149 204.663 138.248 205.168 138.248H205.724C206.228 138.248 206.726 138.149 207.191 137.956C207.656 137.763 208.078 137.48 208.433 137.123C209.192 136.354 209.638 135.331 209.683 134.252L209.971 128.032V127.862C209.967 127.385 209.867 126.912 209.678 126.473C209.49 126.034 209.215 125.637 208.872 125.305C208.158 124.6 207.211 124.181 206.209 124.128H206.045ZM204.932 121.846H206.333C207.899 121.923 209.382 122.572 210.501 123.67C211.062 124.215 211.509 124.865 211.815 125.584C212.122 126.302 212.282 127.075 212.287 127.856C212.287 127.895 212.287 127.987 212.287 128.124L211.993 134.343C211.928 135.993 211.246 137.559 210.082 138.731C209.517 139.304 208.844 139.758 208.101 140.066C207.358 140.375 206.561 140.533 205.757 140.53H205.201C204.395 140.532 203.596 140.374 202.851 140.065C202.107 139.756 201.431 139.303 200.862 138.731C199.704 137.554 199.027 135.987 198.965 134.337L198.703 128.117V127.875C198.707 127.09 198.868 126.313 199.178 125.591C199.487 124.869 199.937 124.216 200.503 123.67C201.623 122.563 203.116 121.913 204.69 121.846H204.932Z" fill="#3C3C3C"/>
<path fill-rule="evenodd" clip-rule="evenodd" d="M208.972 179.184C209.23 179.068 209.521 179.051 209.79 179.138C210.059 179.224 210.286 179.408 210.428 179.652C210.569 179.897 210.614 180.185 210.554 180.461C210.494 180.737 210.334 180.981 210.104 181.146L204.732 184.246C204.603 184.338 204.456 184.403 204.3 184.435C204.145 184.467 203.984 184.466 203.829 184.433C203.673 184.399 203.527 184.334 203.398 184.24C203.27 184.146 203.162 184.027 203.083 183.889C203.003 183.751 202.954 183.599 202.937 183.441C202.92 183.283 202.937 183.123 202.986 182.972C203.034 182.821 203.114 182.681 203.22 182.563C203.326 182.444 203.456 182.349 203.6 182.284L208.972 179.184Z" fill="#3C3C3C"/>
<path fill-rule="evenodd" clip-rule="evenodd" d="M206.044 122.984H204.932C203.945 122.985 202.979 123.268 202.147 123.8C201.316 124.332 200.654 125.09 200.24 125.985C200.757 129.648 202.203 129.314 203.944 131.152C205.769 133.114 204.598 136.024 206.954 136.194C207.87 136.259 209.879 135.886 210.559 134.886L210.821 134.664C210.821 134.552 210.821 134.441 210.821 134.323L211.115 128.104C211.128 127.433 211.005 126.766 210.755 126.142C210.505 125.519 210.133 124.952 209.661 124.475C209.188 123.997 208.624 123.62 208.003 123.363C207.382 123.107 206.716 122.978 206.044 122.984V122.984Z" fill="white"/>
<path fill-rule="evenodd" clip-rule="evenodd" d="M206.047 124.128H204.934C204.158 124.132 203.399 124.359 202.749 124.782C202.205 125.133 201.756 125.611 201.44 126.175C201.754 127.987 202.382 128.445 203.174 129.013C203.756 129.415 204.298 129.873 204.79 130.38C205.605 131.328 206.127 132.491 206.295 133.729C206.446 134.448 206.577 135.037 207.048 135.037C207.633 135.051 208.215 134.951 208.762 134.742H208.847C209.146 134.649 209.413 134.474 209.619 134.239C209.65 134.19 209.685 134.144 209.724 134.101L210.005 128.039V127.869C210.001 127.391 209.901 126.919 209.713 126.48C209.524 126.041 209.25 125.644 208.906 125.312C208.193 124.607 207.245 124.188 206.243 124.135L206.047 124.128ZM204.934 121.846H206.334C207.901 121.923 209.384 122.572 210.503 123.67C211.063 124.215 211.51 124.865 211.817 125.584C212.124 126.302 212.284 127.075 212.289 127.856C212.289 127.895 212.289 127.987 212.289 128.124L211.988 134.546V134.749C211.957 135.042 211.814 135.311 211.589 135.501L211.425 135.638C210.962 136.194 210.359 136.617 209.678 136.861L209.58 136.9C208.724 137.215 207.815 137.359 206.904 137.326C204.718 137.169 204.43 135.821 204.077 134.186C203.977 133.364 203.656 132.584 203.148 131.93C202.75 131.525 202.311 131.161 201.839 130.845V130.845C200.53 129.922 199.555 129.197 199.124 126.142C199.09 125.92 199.121 125.693 199.215 125.488C199.712 124.389 200.519 123.46 201.538 122.814C202.556 122.176 203.733 121.84 204.934 121.846V121.846Z" fill="#3C3C3C"/>
<path fill-rule="evenodd" clip-rule="evenodd" d="M180.34 132.002L183.828 132.329L185.091 129.366L184.351 126.299C184.351 125.37 184.594 121.374 184.227 121.211C183.861 121.047 183.763 123.899 183.226 125.671L180.026 126.776L180.34 132.002Z" fill="white"/>
<path fill-rule="evenodd" clip-rule="evenodd" d="M181.403 130.955L183.085 131.112L183.876 129.261L183.294 126.848L181.2 127.574L181.403 130.955V130.955ZM183.706 133.459L180.284 133.139C180 133.129 179.73 133.014 179.526 132.816C179.323 132.617 179.201 132.35 179.185 132.066L178.871 126.835C178.858 126.587 178.925 126.342 179.063 126.135C179.201 125.929 179.402 125.773 179.636 125.69L182.254 124.781C182.398 124.127 182.515 123.388 182.614 122.741C182.678 122.1 182.814 121.468 183.019 120.857V120.857C183.059 120.688 183.138 120.531 183.25 120.398C183.361 120.264 183.503 120.159 183.662 120.091C183.822 120.022 183.996 119.992 184.169 120.002C184.343 120.013 184.511 120.064 184.662 120.151C185.663 120.596 185.558 123.682 185.493 125.468V126.168L186.18 129.019C186.258 129.275 186.244 129.55 186.14 129.797L184.871 132.76C184.778 132.986 184.614 133.176 184.405 133.302C184.195 133.428 183.95 133.483 183.706 133.459V133.459Z" fill="#3C3C3C"/>
<path fill-rule="evenodd" clip-rule="evenodd" d="M194.878 150.778C197.797 151.223 199.112 144.807 196.422 144.409L184.108 142.571L184.265 133.572C184.265 133.311 184.382 133.435 184.147 132.774C183.911 132.114 182.485 131.224 181.569 131.551C181.188 131.676 180.856 131.917 180.621 132.241C180.386 132.566 180.26 132.956 180.26 133.356L179.239 144.474C178.899 148.149 180.548 148.607 183.735 149.098L194.878 150.778Z" fill="#2B7CFF"/>
<path fill-rule="evenodd" clip-rule="evenodd" d="M198.851 143.617C199.151 143.66 199.42 143.821 199.601 144.063C199.782 144.305 199.86 144.609 199.816 144.909C199.773 145.208 199.613 145.478 199.37 145.658C199.128 145.839 198.823 145.917 198.524 145.873L182.951 143.558C183.01 140.216 183.121 136.842 183.121 133.507C183.133 133.444 183.133 133.38 183.121 133.317C183.039 133.125 182.902 132.961 182.728 132.846C182.553 132.714 182.345 132.633 182.126 132.611C182.076 132.603 182.026 132.603 181.976 132.611C181.806 132.658 181.656 132.756 181.544 132.892C181.448 133.043 181.396 133.217 181.393 133.395L180.32 145.062C180.248 145.68 180.372 146.304 180.674 146.848C180.772 147.023 180.909 147.173 181.075 147.286C181.241 147.399 181.43 147.473 181.629 147.502L195.089 149.64C195.387 149.688 195.655 149.852 195.832 150.097C196.009 150.341 196.082 150.646 196.034 150.945C195.987 151.243 195.822 151.51 195.577 151.688C195.333 151.865 195.027 151.938 194.729 151.89L181.276 149.751C180.751 149.675 180.251 149.483 179.81 149.189C179.37 148.895 179.001 148.506 178.73 148.051C178.183 147.082 177.954 145.966 178.076 144.86L179.142 133.291C179.155 132.661 179.363 132.05 179.738 131.544C180.113 131.038 180.637 130.661 181.236 130.466C181.572 130.346 181.928 130.297 182.283 130.322C182.93 130.371 183.55 130.597 184.076 130.976C184.634 131.36 185.061 131.905 185.3 132.539C185.429 132.888 185.483 133.26 185.457 133.631L185.326 141.577L198.851 143.617Z" fill="#3C3C3C"/>
</svg>
