<svg width="26" height="26" viewBox="0 0 26 26" fill="none" xmlns="http://www.w3.org/2000/svg">
<g clip-path="url(#clip0_280_4745)">
<path d="M17.8724 16.2733C17.4354 16.2734 17.0811 15.9155 17.081 15.4739C17.0809 15.0323 17.4351 14.6742 17.8721 14.6741C18.3091 14.6741 18.6634 15.032 18.6635 15.4736C18.663 15.9149 18.3092 16.2726 17.8724 16.2733ZM9.12759 16.2733C8.69059 16.2734 8.3363 15.9155 8.33619 15.4739C8.33612 15.0323 8.69029 14.6742 9.12729 14.6741C9.56429 14.6741 9.91857 15.032 9.91869 15.4736C9.91824 15.9149 9.56437 16.2727 9.12759 16.2733ZM18.1562 11.4574L19.7373 8.69004C19.8282 8.53107 19.7744 8.32771 19.6171 8.2358C19.4598 8.14389 19.2585 8.19826 19.1676 8.35722L17.5665 11.1595C16.3421 10.5948 14.9671 10.2804 13.4999 10.2804C12.0326 10.2804 10.6577 10.5953 9.43337 11.1595L7.8324 8.35722C7.74159 8.19822 7.54038 8.1437 7.38304 8.2355C7.2257 8.32726 7.17174 8.53059 7.26258 8.68959L8.84385 11.4574C6.12874 12.9497 4.27164 15.7273 4 19.009H23C22.7281 15.7273 20.8711 12.9497 18.1562 11.4574Z" fill="#2B7CFF"/>
</g>
<defs>
<clipPath id="clip0_280_4745">
<rect width="19" height="12" fill="white" transform="translate(4 7)"/>
</clipPath>
</defs>
</svg>
