<svg width="27" height="27" viewBox="0 0 27 27" fill="none" xmlns="http://www.w3.org/2000/svg">
<path d="M25.312 7.59375C25.312 9.39684 24.61 11.0919 23.3351 12.3668L11.1766 24.6696C10.1878 25.6584 8.88923 26.1529 7.59154 26.1529C6.29554 26.1529 4.99954 25.6593 4.0132 24.6729C2.03966 22.6986 2.03966 19.4872 4.0132 17.5137L12.7966 8.78006C14.1154 7.46972 16.2113 7.42669 17.471 8.68472C18.0861 9.29981 18.4101 10.1301 18.3839 11.0236C18.3578 11.8977 17.9975 12.7263 17.3689 13.3549L9.03351 21.6903C8.7036 22.0202 8.17035 22.0202 7.84045 21.6903C7.51054 21.3604 7.51054 20.8271 7.84045 20.4972L16.1758 12.1618C16.499 11.8387 16.6846 11.4168 16.6973 10.9738C16.7099 10.5503 16.5606 10.1604 16.2779 9.87778C15.6747 9.27703 14.647 9.32006 13.9872 9.9765L5.20457 18.7085C3.89085 20.023 3.89085 22.1645 5.20626 23.4799C6.52251 24.7953 8.6631 24.7953 9.97935 23.4799L22.1378 11.1772C23.098 10.217 23.6245 8.94628 23.6245 7.59375C23.6245 6.24122 23.098 4.97053 22.142 4.01456C21.1852 3.05775 19.9145 2.53125 18.562 2.53125C17.2094 2.53125 15.9388 3.05775 14.9819 4.01456L3.12557 15.7866C2.79398 16.1148 2.26073 16.1131 1.93251 15.7815C1.60429 15.4508 1.60598 14.9175 1.93673 14.5884L13.7914 2.81897C15.0638 1.54575 16.7589 0.84375 18.562 0.84375C20.3651 0.84375 22.0602 1.54575 23.3351 2.8215C24.61 4.09556 25.312 5.79066 25.312 7.59375Z" fill="#1B6DFF"/>
</svg>
