<svg width="142" height="54" viewBox="0 0 142 54" fill="none" xmlns="http://www.w3.org/2000/svg">
<path d="M53.3392 26.99V29.6318H51.7676V22.1309H54.5423C56.3304 22.1309 57.4436 22.9246 57.4436 24.5337C57.4436 26.1203 56.3417 26.99 54.5423 26.99H53.3392ZM54.317 25.7105C55.4084 25.7105 55.8694 25.3404 55.8694 24.5363C55.8694 23.8184 55.4084 23.4267 54.317 23.4267H53.3392V25.7105H54.317Z" fill="black"/>
<path d="M65.5976 28.3488H68.8587V29.6318H64.0234V22.1309H65.595L65.5976 28.3488Z" fill="black"/>
<path d="M74.6963 29.6318L77.3951 22.1309H78.902L81.6008 29.6318H79.9253L79.4521 28.2074H76.8555L76.3831 29.6318H74.6963ZM77.2693 26.9253H79.0243L78.1512 24.2835L77.2693 26.9253Z" fill="black"/>
<path d="M93.7917 22.1309V29.6318H92.476L89.4507 24.9901V29.6318H87.9551V22.1309H89.2595L92.2961 26.8381V22.1309H93.7917Z" fill="black"/>
<path d="M106.129 22.131V23.4251H103.992V29.6328H102.421V23.4243H100.284V22.1301L106.129 22.131Z" fill="black"/>
<path d="M114.294 29.6318H112.722V22.1309H114.294V29.6318Z" fill="black"/>
<path d="M127.396 22.1309V29.6318H126.08L123.055 24.9901V29.6318H121.559V22.1309H122.863L125.901 26.8381V22.1309H127.396Z" fill="black"/>
<path d="M140.148 25.7287V26.4138C140.148 28.7079 139.046 29.7294 137.292 29.7294C135.538 29.7294 134.324 28.7079 134.324 26.4138V25.4578C134.324 23.0334 135.546 22.0334 137.292 22.0334C138.923 22.0334 139.901 22.9247 140.137 24.4578H138.631C138.495 23.7728 138.08 23.3155 137.292 23.3155C136.382 23.3155 135.895 23.9134 135.895 25.3491V26.4138C135.895 27.8494 136.379 28.4473 137.292 28.4473C138.18 28.4473 138.541 27.9141 138.631 27.0125H137.321V25.7287H140.148Z" fill="black"/>
<path d="M55.7911 37.1224C55.4541 36.6117 55.049 36.3615 54.2614 36.3615C53.5533 36.3615 53.1709 36.6764 53.1709 37.188C53.1709 37.7747 53.666 38.0352 54.7006 38.2855C56.3193 38.6763 57.051 39.2638 57.051 40.5899C57.051 41.8185 56.1962 42.7753 54.3741 42.7753C53.0138 42.7753 52.0691 42.4164 51.3828 41.5467L52.5868 40.7426C53.0024 41.2422 53.4748 41.4924 54.2728 41.4924C55.1729 41.4924 55.4759 41.1119 55.4759 40.6555C55.4759 40.1335 55.1502 39.8402 53.8904 39.5244C52.3616 39.1336 51.6002 38.4269 51.6002 37.1854C51.6002 36 52.4096 35.0759 54.2544 35.0759C55.4916 35.0759 56.4241 35.478 56.975 36.3045L55.7911 37.1224Z" fill="black"/>
<path d="M65.4178 40.0327V42.6736H63.8462V35.177H66.6244C68.4116 35.177 69.5257 35.9699 69.5257 37.579C69.5257 39.1665 68.423 40.0361 66.6244 40.0361L65.4178 40.0327ZM66.3965 38.7497C67.487 38.7497 67.948 38.3805 67.948 37.5755C67.948 36.8577 67.487 36.4668 66.3965 36.4668H65.4178V38.7497H66.3965Z" fill="black"/>
<path d="M74.7373 42.6771L77.4439 35.177H78.95L81.6496 42.6771H79.9707L79.4974 41.2535H76.9L76.4276 42.6771H74.7373ZM77.3129 39.9706H79.067L78.1939 37.3288L77.3129 39.9706Z" fill="black"/>
<path d="M91.85 37.5029C91.7033 36.7963 91.2763 36.3614 90.5115 36.3614C89.6009 36.3614 89.1145 36.9593 89.1145 38.3941V39.4597C89.1145 40.8513 89.5983 41.4923 90.5115 41.4923C91.2973 41.4923 91.6815 41.1119 91.85 40.3509H93.3456C93.0837 42.0359 92.1084 42.7753 90.5115 42.7753C88.7653 42.7753 87.543 41.7529 87.543 39.4597V38.3933C87.543 36.0785 88.7653 35.0776 90.5115 35.0776C92.0525 35.0776 93.0985 35.8602 93.3569 37.502L91.85 37.5029Z" fill="black"/>
<path d="M104.914 35.177V36.4712H101.653V38.1562H104.577V39.4374H101.653V41.395H104.914V42.6771H100.079V35.177H104.914Z" fill="black"/>
<path d="M39.5152 36.2795C39.3197 32.9664 37.8817 29.4705 36.3598 25.7701C33.634 19.1448 30.545 11.6361 32.6317 1.84197C32.6317 1.84197 32.6317 1.83593 32.6317 1.83334C32.632 1.83134 32.632 1.8293 32.6317 1.8273V1.81522C32.6321 1.81265 32.6321 1.81003 32.6317 1.80746V1.80056V1.78675V1.77812C32.6317 1.77812 32.6317 1.77812 32.6317 1.77295C32.6317 1.76777 32.6317 1.77295 32.6317 1.76777V1.74361V1.69098C32.6321 1.6887 32.6321 1.68636 32.6317 1.68408V1.67632V1.67114V1.64698C32.6314 1.64469 32.6314 1.64237 32.6317 1.64008C32.6317 1.64008 32.6317 1.6349 32.6317 1.63231C32.6317 1.63231 32.6317 1.63231 32.6317 1.62628V1.61937V1.6142V1.60988C32.6313 1.60818 32.6313 1.60641 32.6317 1.60471L32.6247 1.58486V1.55294C32.6195 1.54086 32.6143 1.52878 32.6081 1.5167C32.5564 1.41641 32.4709 1.33709 32.3663 1.29238C32.3555 1.28733 32.3445 1.28301 32.3331 1.27944H32.32H32.3157L32.2973 1.27426H32.2868H32.2807H32.2668H32.2545C27.7476 0.325216 23.8623 0.913626 20.7061 3.01706C17.287 5.29564 14.6354 9.36016 12.5985 15.441C10.8374 20.7039 9.74605 26.8434 8.78389 32.265C7.05603 41.853 5.58224 50.1503 1.31453 50.2564H1.28572H1.26389L1.24294 50.2607H1.23246H1.21587H1.20365L1.18269 50.2667H1.1696L1.13904 50.2788L1.12594 50.284L1.09276 50.3012H1.08403L1.04998 50.3228H1.04387C1.03251 50.3307 1.02172 50.3394 1.01156 50.3487L0.984498 50.3746H0.97926L0.971402 50.3832L0.95394 50.4031L0.948701 50.4091C0.948868 50.4114 0.948868 50.4137 0.948701 50.416C0.946377 50.4187 0.94433 50.4216 0.94259 50.4246L0.931239 50.4402L0.926001 50.4471L0.920762 50.4557L0.909412 50.4764L0.902427 50.4876V50.4945C0.899152 50.501 0.896237 50.5076 0.893696 50.5144C0.891013 50.5191 0.888679 50.524 0.886711 50.529C0.886711 50.5376 0.8806 50.5463 0.87798 50.5549V50.5678C0.877463 50.5698 0.877463 50.5719 0.87798 50.5739C0.87798 50.5834 0.873615 50.5929 0.871869 50.6024V50.6153C0.871869 50.6256 0.871869 50.636 0.867503 50.6472C0.867503 50.6472 0.867503 50.6515 0.867503 50.6541C0.867503 50.6567 0.867503 50.6593 0.867503 50.6619C0.867503 50.674 0.867503 50.6869 0.867503 50.699C0.867503 50.7033 0.867503 50.7067 0.867503 50.7111C0.867503 50.7111 0.867503 50.718 0.867503 50.7214V50.7499V50.7594C0.867082 50.7648 0.867082 50.7703 0.867503 50.7758C0.868536 50.7836 0.869993 50.7914 0.871869 50.7991C0.871869 50.7991 0.871869 50.7991 0.871869 50.806C0.871478 50.8111 0.871478 50.8163 0.871869 50.8215L0.877107 50.8422C0.877107 50.8422 0.877107 50.8422 0.877107 50.8474C0.876613 50.8511 0.876613 50.8549 0.877107 50.8586C0.877107 50.8655 0.881473 50.8715 0.884092 50.8776L0.889331 50.8897V50.8957L0.897189 50.9121C0.900619 50.9176 0.903541 50.9233 0.90592 50.9293C0.909107 50.9347 0.912606 50.9399 0.916397 50.9449C0.917611 50.948 0.919385 50.951 0.921635 50.9535L0.92862 50.9647C0.92862 50.9708 0.937351 50.9759 0.940843 50.9811L0.956559 51.001L0.960052 51.076L0.97926 51.0967L0.994976 51.1097L1.00807 51.1217L1.01418 51.1269L1.03077 51.139L1.0526 51.1545C1.05725 51.1579 1.06222 51.1608 1.06744 51.1632L1.09276 51.1778C1.10122 51.1826 1.10997 51.187 1.11896 51.1908L1.13554 51.1977L1.15737 51.2063L1.18007 51.2141H1.18793C1.20392 51.219 1.22026 51.2228 1.23682 51.2253H1.24119H1.26738H1.2831H1.33723C2.47226 51.1959 4.20973 51.4841 6.21873 51.8292C9.16107 52.3236 12.8953 52.9508 16.9168 52.9508C22.963 52.9508 29.6571 51.5324 35.2842 46.1125C38.3898 43.1256 39.7344 39.9989 39.5152 36.2795ZM26.6554 17.8766C26.6554 18.1475 26.6475 18.4184 26.644 18.6902C26.5698 24.2982 26.4921 30.0908 22.8574 36.0043C20.5594 39.7426 18.0911 42.5182 15.6334 44.575C18.1653 42.1593 20.4799 39.1396 22.5439 35.5487C25.949 29.6336 26.3035 23.6968 26.6204 18.4598C26.6292 18.2648 26.644 18.0707 26.6554 17.8766ZM25.7945 15.9215C25.7334 16.7412 25.6827 17.5686 25.633 18.402C25.3073 23.7831 24.9711 29.348 21.6839 35.0656C19.4575 38.9394 17.1185 41.8323 14.831 43.9935C17.1997 41.4509 19.3947 38.2992 21.3853 34.5893C24.3993 28.9597 24.9973 23.3293 25.5256 18.3615C25.6129 17.5306 25.6993 16.7187 25.7945 15.9215ZM23.699 36.5116C27.2395 30.7526 27.5293 25.1773 27.6149 19.7738C27.7991 25.3585 27.841 31.1201 24.0273 36.943C21.7899 40.3595 19.2387 43.123 16.3737 45.2333C18.876 43.1239 21.3775 40.2957 23.7025 36.5116H23.699ZM24.5381 18.2553C23.995 23.3733 23.4327 28.6655 20.5079 34.1303C18.6927 37.5245 16.6566 40.4639 14.4931 42.8693C16.5204 40.3095 18.4377 37.2165 20.2232 33.6204C22.8425 28.3454 23.6283 23.0696 24.3268 18.4149C24.5529 16.8982 24.773 15.428 25.0462 14.0191C24.8463 15.3901 24.6961 16.805 24.5416 18.2553H24.5381ZM24.8576 37.4744C28.4068 32.0562 28.7552 26.7605 28.6548 21.6098C29.0345 26.9391 29.004 32.4117 25.2008 37.8834C22.6941 41.4863 19.9561 44.0298 17.2268 45.8295C20.0736 43.6783 22.6184 40.8933 24.8611 37.4744H24.8576ZM23.3472 18.2717C22.6627 22.8556 21.8865 28.0521 19.3353 33.1899C17.5437 36.798 15.6229 39.8833 13.5947 42.4216C15.4832 39.7375 17.3193 36.4684 19.0638 32.6602C21.2832 27.8131 22.1999 22.9505 23.0093 18.66C23.4581 16.2787 23.8772 14.0571 24.4595 12.0347C23.9907 13.9924 23.6772 16.0863 23.3507 18.2717H23.3472ZM26.018 38.4364C29.5802 33.3167 29.9854 28.2661 29.7531 23.3379C30.2962 28.5715 30.2089 33.6256 26.3777 38.8247C23.734 42.4129 20.8353 44.8641 17.9313 46.5361C20.9802 44.4965 23.6877 41.7891 26.018 38.4364ZM22.0402 18.4762C21.2421 22.7124 20.3367 27.5137 18.1662 32.2529C16.5195 35.8498 14.7995 38.9489 13.0263 41.5234C14.6677 38.8091 16.2949 35.5306 17.9078 31.6878C19.7317 27.3498 20.7008 22.973 21.5591 19.1095C22.2872 15.8258 22.956 12.825 24.0038 10.2514C23.121 12.7465 22.5954 15.5298 22.0402 18.4762ZM27.1775 39.3984C30.7519 34.547 31.2138 29.7198 30.8881 24.9901C31.5412 29.9942 31.3858 34.8421 27.5512 39.7685C24.7258 43.3974 21.6307 45.7622 18.5364 47.31C21.8175 45.3921 24.7083 42.746 27.1775 39.3984ZM20.5926 18.8998C19.702 22.9108 18.7817 27.059 16.9945 31.3168C15.4937 34.8913 13.9727 37.9852 12.4465 40.5735C13.8496 37.8506 15.2754 34.579 16.7474 30.725C18.1758 26.9874 19.0795 23.3422 19.9543 19.8178C21.0134 15.5488 21.9624 11.7164 23.6274 8.68806C22.2052 11.6379 21.4255 15.1494 20.5926 18.8998ZM28.3352 40.3595C30.6454 37.3968 31.8817 34.1821 32.1297 30.5317C32.2082 29.2526 32.1892 27.9695 32.0729 26.6932C32.7793 31.4506 32.5348 36.0647 28.7272 40.7046C25.894 44.1557 22.7744 46.3834 19.647 47.8113C22.9464 46.0357 25.8573 43.5432 28.3352 40.3595ZM22.9342 7.91933C21.092 11.1254 20.0731 15.2356 18.9939 19.5874C18.126 23.0843 17.2294 26.7001 15.8228 30.3824C14.466 33.9327 13.1651 36.9533 11.8982 39.489C13.1206 36.672 14.3307 33.4082 15.5871 29.7621C16.6348 26.7295 17.425 23.7391 18.1907 20.8462C19.4479 16.101 20.6353 11.6146 22.6697 8.29636C22.8181 8.05478 22.9703 7.82069 23.1263 7.59406C23.0617 7.69846 22.9979 7.80631 22.9342 7.91674V7.91933ZM29.4929 41.3207C33.1198 36.9007 33.7039 32.5635 33.2542 28.1418C34.0601 32.8103 33.7676 37.1638 29.8989 41.6468C27.0465 44.9512 23.8955 47.0495 20.7314 48.3669C24.0596 46.7216 26.9959 44.3645 29.4929 41.3207ZM17.2337 20.5969C16.4724 23.4716 15.6849 26.4456 14.6511 29.4446C13.4209 33.0148 12.3391 35.9154 11.3281 38.3234C12.3566 35.4599 13.3659 32.2417 14.4267 28.7932C15.1016 26.6001 15.6936 24.4103 16.2663 22.2922C17.707 16.9629 19.0681 11.9295 21.3906 8.28256C21.7984 7.6377 22.253 7.02294 22.7509 6.44313C20.032 10.0348 18.6883 15.1036 17.2337 20.5969ZM23.8457 47.9329C26.3585 46.5033 28.6478 44.6018 30.6515 42.2809C34.2696 38.0879 34.9245 33.9388 34.4678 29.7095C35.2851 34.1605 34.9166 38.3329 31.0732 42.5881C28.2706 45.6708 25.1789 47.6292 22.0585 48.8526C22.6697 48.5691 23.2654 48.2625 23.8457 47.9329ZM22.2741 5.48459C21.6329 6.19355 21.0556 6.95656 20.5489 7.76489C18.1505 11.5387 16.771 16.6411 15.3103 22.0438C14.7402 24.1532 14.15 26.3352 13.4768 28.5145C12.5164 31.6447 11.5944 34.5824 10.6663 37.2285C11.3071 35.0544 11.9349 32.7318 12.5784 30.3514C12.8025 29.5208 13.0304 28.6805 13.262 27.8304C13.5667 26.6984 13.8653 25.5544 14.1534 24.4474C15.7407 18.3597 17.239 12.6094 19.8688 8.46546C20.5448 7.37888 21.3532 6.37835 22.2759 5.48631L22.2741 5.48459ZM31.8093 43.2403C34.5473 40.2085 35.8255 37.0517 35.8203 33.3064C35.8169 32.5153 35.7642 31.7253 35.6622 30.9407C36.5895 35.358 36.2018 39.357 32.2467 43.5311C29.3899 46.5327 26.2293 48.4014 23.0346 49.523C26.0669 48.2409 29.066 46.2583 31.8093 43.2403ZM21.7398 4.64252C20.696 5.62139 19.7861 6.73081 19.0332 7.94262C16.3266 12.2142 14.8048 18.037 13.1983 24.1998C12.9102 25.3042 12.6124 26.443 12.3095 27.5724C12.0766 28.4225 11.8488 29.2631 11.6258 30.0943C11.1107 32.0001 10.6078 33.8586 10.1023 35.629C10.3983 34.3624 10.6907 33.0596 10.9885 31.737C11.3456 30.1495 11.714 28.5076 12.1025 26.8589C13.5589 20.6374 15.209 13.5851 18.2352 8.71394C19.2803 7.03413 20.4406 5.68044 21.7398 4.64252ZM32.9679 44.1997C35.8325 41.18 37.1299 38.0249 37.0513 34.2779C37.0369 33.6499 36.9879 33.0232 36.9047 32.4005C37.8284 36.6349 37.3718 40.4889 33.4201 44.4706C30.8262 47.1037 27.6185 49.0681 24.078 50.1917C27.153 49.0054 30.1923 47.1159 32.9679 44.1997ZM13.5152 15.7283C15.471 9.8899 17.9855 6.00053 21.1889 3.84101C19.7721 4.95571 18.5067 6.41005 17.3926 8.20404C14.2818 13.2081 12.6124 20.3441 11.1404 26.638C10.751 28.2902 10.3808 29.9347 10.0237 31.5248C9.81851 32.4367 9.61595 33.3366 9.41252 34.2209C9.5202 33.6239 9.62759 33.0217 9.7347 32.4143C10.7388 26.7648 11.7769 20.923 13.5152 15.73V15.7283ZM34.5927 45.4171C31.9537 47.977 28.7141 49.8509 25.1632 50.8715C28.2697 49.762 31.3299 47.9674 34.1247 45.1583C37.8624 41.3931 38.6648 37.6875 38.1514 33.8189C39.0656 37.8903 38.5461 41.6097 34.5927 45.4171Z" fill="black"/>
<path d="M44.8696 44.0591H19.4292V18.9197H44.8696V44.0591ZM21.061 42.4483H43.2377V20.5339H21.061V42.4483Z" fill="#0BAF68"/>
</svg>
