<svg width="142" height="39" viewBox="0 0 142 39" fill="none" xmlns="http://www.w3.org/2000/svg">
<path d="M68.1474 4.8274C68.4284 4.59052 68.6526 4.29418 68.8038 3.96002C68.9549 3.62586 69.0292 3.26232 69.0211 2.89596C69.0211 1.19003 67.6039 0.0769043 65.8577 0.0769043H61.9355V9.94621H66.1436C67.9327 9.94621 69.3782 8.80437 69.3782 7.05603C69.3877 6.60973 69.2789 6.1688 69.0629 5.77759C68.8468 5.38638 68.5311 5.05866 68.1474 4.8274ZM65.8571 2.19093C66.0901 2.19093 66.3135 2.28303 66.4783 2.44697C66.643 2.6109 66.7356 2.83325 66.7356 3.0651C66.7356 3.29694 66.643 3.51929 66.4783 3.68323C66.3135 3.84717 66.0901 3.93927 65.8571 3.93927H64.2263V2.19093H65.8571ZM66.1436 7.83034H64.2263V5.94106H66.1444C66.3961 5.94106 66.6376 6.04058 66.8156 6.21774C66.9936 6.39489 67.0936 6.63517 67.0936 6.8857C67.0936 7.13624 66.9936 7.37651 66.8156 7.55367C66.6376 7.73082 66.3961 7.83034 66.1444 7.83034H66.1436Z" fill="#D5D5D5"/>
<path d="M73.6662 7.77404V6.0257H77.2447V3.8827H73.6662V2.24739H77.6024V0.0759277H71.3762V9.94524H77.6749V7.77404H73.6662Z" fill="#D5D5D5"/>
<path d="M86.5525 0.0759277H79.1099V2.24712H81.6861V9.94497H83.9763V2.24739H86.5525V0.0759277Z" fill="#D5D5D5"/>
<path d="M95.1406 0.0759277H87.698V2.24712H90.2742V9.94497H92.5642V2.24739H95.1406V0.0759277Z" fill="#D5D5D5"/>
<path d="M99.2915 7.77404V6.0257H102.87V3.8827H99.2915V2.24739H103.228V0.0759277H97.0007V9.94524H103.298V7.77404H99.2915Z" fill="#D5D5D5"/>
<path d="M110.718 9.94531H113.18L111.047 6.32191C111.591 6.06109 112.051 5.65561 112.377 5.15043C112.703 4.64526 112.881 4.06012 112.894 3.45992C112.892 3.01299 112.802 2.5707 112.629 2.15847C112.455 1.74624 112.202 1.37217 111.883 1.05776C111.563 0.743354 111.185 0.494795 110.769 0.32636C110.353 0.157925 109.908 0.0729331 109.459 0.0762662H105.45V9.94557H107.741V6.70261H108.829L110.718 9.94531ZM107.741 2.19108H109.458C109.773 2.22459 110.064 2.37273 110.276 2.60699C110.487 2.84125 110.604 3.14509 110.604 3.46005C110.604 3.77501 110.487 4.07885 110.276 4.31311C110.064 4.54737 109.773 4.6955 109.458 4.72902H107.741V2.19108Z" fill="#D5D5D5"/>
<path d="M65.4419 24.8058C67.6176 24.8058 69.1634 23.6779 69.1634 21.7747C69.1634 19.6881 67.4601 19.1664 65.9431 18.7151C64.383 18.2498 64.1397 17.9397 64.1397 17.4884C64.1397 17.0932 64.4974 16.7412 65.2129 16.7412C66.1289 16.7412 66.6015 17.1783 66.9449 17.8833L68.8775 16.7694C68.5538 16.0812 68.0337 15.5031 67.3822 15.1069C66.7306 14.7108 65.9763 14.5143 65.2132 14.5419C63.4815 14.5419 61.8497 15.6415 61.8497 17.5453C61.8497 19.4344 63.3097 20.1394 64.7981 20.5488C66.301 20.9577 66.8737 21.1974 66.8737 21.8037C66.8737 22.1844 66.6018 22.6072 65.514 22.6072C65.0619 22.6358 64.6127 22.518 64.2334 22.2715C63.8542 22.025 63.5652 21.663 63.4098 21.2396L61.4346 22.3675C61.9926 23.8189 63.3381 24.8058 65.4419 24.8058Z" fill="#D5D5D5"/>
<path d="M75.8776 24.8055C76.8953 24.7951 77.8871 24.4853 78.7282 23.915C79.5693 23.3448 80.2221 22.5396 80.6043 21.601C80.9865 20.6623 81.0811 19.632 80.8761 18.64C80.6712 17.6479 80.1759 16.7384 79.4525 16.0259C78.7292 15.3134 77.8102 14.8298 76.8113 14.6361C75.8124 14.4423 74.7781 14.547 73.8389 14.937C72.8996 15.327 72.0973 15.9848 71.533 16.8277C70.9686 17.6705 70.6675 18.6607 70.6675 19.6735C70.6651 20.3526 70.7986 21.0254 71.0602 21.6526C71.3219 22.2798 71.7064 22.8488 72.1914 23.3265C72.6764 23.8043 73.2521 24.1811 73.885 24.435C74.5179 24.6889 75.1953 24.8149 75.8776 24.8055ZM75.8776 22.6061C75.2937 22.6114 74.7213 22.444 74.2331 22.125C73.745 21.806 73.3631 21.3499 73.1359 20.8145C72.9087 20.2791 72.8465 19.6887 72.9571 19.118C73.0678 18.5474 73.3463 18.0224 73.7573 17.6095C74.1683 17.1967 74.6934 16.9147 75.2657 16.7994C75.8381 16.684 76.4319 16.7405 76.972 16.9617C77.512 17.1828 77.9738 17.5587 78.2989 18.0415C78.6239 18.5243 78.7974 19.0924 78.7974 19.6735C78.8129 20.0605 78.7482 20.4465 78.6074 20.8075C78.4665 21.1685 78.2524 21.4967 77.9785 21.7719C77.7046 22.047 77.3767 22.263 77.0153 22.4065C76.6538 22.55 76.2666 22.618 75.8776 22.6061Z" fill="#D5D5D5"/>
<path d="M89.3189 16.9095V14.7383H83.2349V24.6076H85.5251V20.985H89.2466V18.8138H85.5259V16.9095H89.3189Z" fill="#D5D5D5"/>
<path d="M98.2576 14.739H90.8147V16.9094H93.3912V24.6075H95.6812V16.9094H98.2576V14.739Z" fill="#D5D5D5"/>
<path d="M102.166 24.6083H104.771L106.402 18.7858L108.034 24.6083H110.639L113.401 14.739H110.997L109.265 21.6475L107.333 14.739H105.473L103.54 21.6475L101.808 14.739H99.4038L102.166 24.6083Z" fill="#D5D5D5"/>
<path d="M121.059 24.6083H123.564L120.158 14.739H117.238L113.831 24.6083H116.336L116.837 23.0576H120.558L121.059 24.6083ZM117.524 20.9425L118.698 17.3191L119.871 20.9425H117.524Z" fill="#D5D5D5"/>
<path d="M130.544 24.6084H133.006L130.874 20.985C131.417 20.7242 131.877 20.3187 132.203 19.8135C132.529 19.3084 132.708 18.7232 132.72 18.123C132.719 17.676 132.629 17.2337 132.455 16.8214C132.282 16.4092 132.028 16.035 131.709 15.7206C131.39 15.4062 131.011 15.1576 130.595 14.9891C130.179 14.8207 129.734 14.7357 129.285 14.7391H125.276V24.6084H127.566V21.3657H128.654L130.544 24.6084ZM127.567 16.8539H129.284C129.599 16.8874 129.89 17.0356 130.102 17.2698C130.313 17.5041 130.43 17.8079 130.43 18.1229C130.43 18.4379 130.313 18.7417 130.102 18.9759C129.89 19.2102 129.599 19.3583 129.284 19.3919H127.567V16.8539Z" fill="#D5D5D5"/>
<path d="M137.232 22.4372V20.6888H140.81V18.5458H137.232V16.9095H141.168V14.7383H134.942V24.6076H141.24V22.4364L137.232 22.4372Z" fill="#D5D5D5"/>
<path d="M71.8541 34.1113H66.8304V34.816H71.0814C70.9225 36.6632 69.4495 38.1436 67.0163 38.1436C64.3255 38.1436 62.5077 36.1979 62.5077 33.7727C62.5077 31.3475 64.3255 29.4021 66.9591 29.4021C67.6954 29.3868 68.4221 29.5701 69.0621 29.9325C69.7022 30.2949 70.2318 30.8229 70.5948 31.4606L71.2675 31.0654C70.8212 30.3282 70.1886 29.7202 69.4326 29.3021C68.6767 28.8841 67.8238 28.6705 66.9591 28.6826C63.9103 28.6826 61.7493 30.9526 61.7493 33.7722C61.7493 36.5918 63.9103 38.862 67.0176 38.862C70.0092 38.862 71.8555 36.8742 71.8555 34.4914L71.8541 34.1113Z" fill="#D5D5D5"/>
<path d="M80.9407 38.7073H81.8144L79.3234 34.5615C80.0172 34.3865 80.6222 33.9643 81.0238 33.3748C81.4254 32.7853 81.5955 32.0696 81.5019 31.3636C81.4083 30.6575 81.0575 30.0102 80.5161 29.5445C79.9747 29.0788 79.2803 28.8271 78.5647 28.8372H74.6143V38.7065H75.3719V34.661H78.5351L80.9407 38.7073ZM75.3719 29.543H78.5647C79.1527 29.543 79.7167 29.7755 80.1325 30.1893C80.5483 30.6031 80.7819 31.1643 80.7819 31.7495C80.7819 32.3347 80.5483 32.8959 80.1325 33.3097C79.7167 33.7235 79.1527 33.956 78.5647 33.956H75.3719V29.543Z" fill="#D5D5D5"/>
<path d="M88.8459 38.8623C89.8552 38.8521 90.839 38.5448 91.6732 37.9793C92.5074 37.4138 93.1549 36.6153 93.534 35.6843C93.9132 34.7534 94.007 33.7316 93.8038 32.7476C93.6006 31.7637 93.1093 30.8616 92.392 30.1549C91.6746 29.4483 90.7631 28.9686 89.7724 28.7764C88.7817 28.5842 87.7559 28.688 86.8244 29.0748C85.8928 29.4616 85.0971 30.114 84.5373 30.95C83.9776 31.7859 83.679 32.768 83.679 33.7725C83.6785 34.4454 83.8123 35.1117 84.0724 35.7328C84.3326 36.354 84.714 36.9176 85.1946 37.391C85.6752 37.8644 86.2453 38.2382 86.8721 38.4907C87.4989 38.7433 88.1697 38.8696 88.8459 38.8623ZM88.8459 38.1433C87.9779 38.1401 87.1304 37.881 86.4103 37.3988C85.6902 36.9165 85.1298 36.2328 84.7999 35.4338C84.47 34.6349 84.3854 33.7566 84.5567 32.9098C84.728 32.063 85.1476 31.2857 85.7625 30.6761C86.3774 30.0664 87.16 29.6518 88.0115 29.4845C88.863 29.3171 89.7453 29.4046 90.5468 29.7359C91.3484 30.0672 92.0334 30.6274 92.5153 31.3459C92.9972 32.0643 93.2544 32.9087 93.2544 33.7725C93.2577 34.3488 93.1458 34.9201 92.9253 35.453C92.7047 35.9859 92.3798 36.4698 91.9696 36.8767C91.5594 37.2835 91.072 37.6051 90.5357 37.8227C89.9994 38.0403 89.425 38.1497 88.8459 38.1444V38.1433Z" fill="#D5D5D5"/>
<path d="M100.247 38.8626C102.451 38.8626 103.925 37.495 103.925 35.4084V28.8381H103.167V35.4084C103.167 37.0155 102.151 38.1436 100.247 38.1436C98.3576 38.1436 97.3412 37.0157 97.3412 35.4084V28.8381H96.5828V35.4084C96.5828 37.495 98.0428 38.8626 100.247 38.8626Z" fill="#D5D5D5"/>
<path d="M110.537 28.8379H107.131V38.7072H107.889V34.9429H110.537C110.944 34.9504 111.349 34.877 111.728 34.727C112.107 34.577 112.452 34.3534 112.743 34.0692C113.034 33.785 113.265 33.4459 113.423 33.0718C113.58 32.6977 113.662 32.2961 113.662 31.8904C113.662 31.4847 113.58 31.0831 113.423 30.709C113.265 30.3349 113.034 29.9958 112.743 29.7116C112.452 29.4274 112.107 29.2038 111.728 29.0538C111.349 28.9038 110.944 28.8304 110.537 28.8379H110.537ZM110.537 34.2389H107.89V29.544H110.537C111.163 29.544 111.763 29.7913 112.205 30.2316C112.647 30.6718 112.896 31.2689 112.896 31.8915C112.896 32.514 112.647 33.1111 112.205 33.5514C111.763 33.9916 111.163 34.2389 110.537 34.2389Z" fill="#D5D5D5"/>
<path fill-rule="evenodd" clip-rule="evenodd" d="M53.5995 0.508043C53.6526 0.668432 53.6491 0.842092 53.5895 1.00022C53.5299 1.15836 53.4178 1.29146 53.2717 1.37747L40.9647 8.619L53.0157 10.6237C53.1893 10.6526 53.347 10.7418 53.4608 10.8755C53.5745 11.0092 53.6369 11.1787 53.6369 11.3539C53.6369 11.529 53.5745 11.6985 53.4608 11.8322C53.347 11.9659 53.1893 12.0552 53.0157 12.0841L29.4305 16.0041L48.9215 35.8465C49.04 35.9668 49.1137 36.1236 49.1306 36.2912C49.1474 36.4588 49.1063 36.627 49.0141 36.7683C48.9219 36.9095 48.7841 37.0152 48.6234 37.0679C48.4627 37.1207 48.2887 37.1174 48.1302 37.0585L42.4063 34.9423L44.2978 37.8581C44.3774 37.9807 44.4187 38.1239 44.4167 38.2698C44.4147 38.4157 44.3694 38.5578 44.2865 38.6781C44.2037 38.7985 44.0869 38.8918 43.9509 38.9464C43.8149 39.0009 43.6657 39.0142 43.5221 38.9846L35.9826 37.4331C35.8559 37.4071 35.7382 37.3487 35.6412 37.2636C35.5442 37.1785 35.4711 37.0696 35.4293 36.9478L33.4286 31.1303L27.095 26.6986L27.0926 26.697L22.7011 23.6472L11.1505 18.2267C11.0298 18.1701 10.9266 18.0822 10.8517 17.9722C10.7769 17.8623 10.7331 17.7343 10.7251 17.6018L10.2784 10.2459L1.11235 15.4372C0.964919 15.5208 0.793188 15.5518 0.625646 15.5249C0.458104 15.4981 0.304822 15.415 0.191232 15.2895C0.0776416 15.1641 0.0105711 15.0037 0.00114826 14.8351C-0.00827462 14.6665 0.0405166 14.4997 0.139427 14.3625L10.2525 0.309393C10.3397 0.18814 10.4617 0.095925 10.6025 0.0448247C10.7432 -0.00627551 10.8962 -0.0138785 11.0414 0.0230095L23.1303 3.09288L52.8161 0.00403859C52.9849 -0.0134453 53.1545 0.0270021 53.297 0.118672C53.4395 0.210342 53.5462 0.347728 53.5995 0.508043ZM21.7422 4.26871L11.6133 1.69626L11.6927 8.98864L12.0991 15.6637L21.7422 4.26871ZM14.1024 17.9753L22.8015 22.0569L26.4189 16.4391L14.1024 17.9753ZM27.7518 17.1138L24.0876 22.8046L27.9485 25.4851L32.4203 28.614L27.7518 17.1138ZM31.028 21.2302L34.7441 30.3839L34.7513 30.4018L34.7584 30.4216L36.6998 36.0671L42.0846 37.1757L39.9497 33.8859L31.028 21.2302ZM41.0431 32.8578L45.5373 34.5195L33.767 22.5369L41.0431 32.8578ZM31.6713 14.1301L38.9781 9.78957L48.3793 11.3532L31.6713 14.1301ZM28.2615 14.4315L38.4489 8.37872L38.4516 8.37714L49.5799 1.82904L24.1418 4.47658L28.2615 14.4315ZM22.8544 5.25353L13.2615 16.588L26.8427 14.8936L22.8544 5.25353ZM10.1998 8.58712L10.14 3.01146L3.32425 12.4808L10.1998 8.58712Z" fill="#F52747"/>
</svg>
