<svg width="155" height="55" viewBox="0 0 155 55" fill="none" xmlns="http://www.w3.org/2000/svg">
<path fill-rule="evenodd" clip-rule="evenodd" d="M0 48.1393H41.7713V6.27905H0V48.1393Z" fill="#DE2236"/>
<path fill-rule="evenodd" clip-rule="evenodd" d="M30.0991 17.0606L28.6984 21.7908C27.1203 27.1123 27.1281 28.3341 27.1281 28.3341C27.1281 28.3341 27.0968 27.1699 25.6061 21.9308L25.1035 20.208C24.9364 19.6376 24.503 19.1615 23.9078 18.9744C23.6804 18.9048 23.4413 18.8814 23.2048 18.9054C22.9682 18.9295 22.7387 19.0007 22.5299 19.1147C22.3211 19.2287 22.1371 19.3833 21.9886 19.5695C21.8401 19.7556 21.7302 19.9696 21.6652 20.1988L20.6183 23.7739C18.6511 30.3028 18.6668 31.4318 18.6668 31.4318C18.6668 31.4318 18.6511 30.3028 16.8263 24.0016L16.7049 23.5555C16.6504 23.223 16.5054 22.912 16.2859 22.6567C16.0665 22.4015 15.781 22.2118 15.4609 22.1087C15.2333 22.0393 14.9943 22.016 14.7577 22.0403C14.5211 22.0646 14.2917 22.1358 14.0829 22.2499C13.8741 22.3641 13.6901 22.5187 13.5416 22.705C13.3932 22.8912 13.2832 23.1051 13.2183 23.3344C13.2183 23.3344 9.33352 37.2556 7.95898 40.9746C9.85697 41.5711 11.8646 40.4736 12.4455 38.5258V38.5232L12.452 38.5258L12.9702 36.6551C14.9296 30.3028 14.9061 29.1713 14.9061 29.1713C14.9061 29.1713 14.8982 30.3028 16.4712 35.5812L16.9411 37.2412C17.12 37.7854 17.5416 38.2367 18.1199 38.4185C18.3473 38.4881 18.5863 38.5115 18.8229 38.4875C19.0595 38.4634 19.2889 38.3922 19.4977 38.2782C19.7066 38.1642 19.8906 38.0096 20.0391 37.8235C20.1875 37.6373 20.2975 37.4233 20.3625 37.1941L21.237 34.2534C23.3595 27.1045 23.3569 26.2084 23.3569 26.2084C23.3569 26.2084 23.3765 27.0482 24.5748 31.3834L25.3802 34.0036C25.546 34.5765 25.9794 35.0566 26.5772 35.2437C26.8025 35.3126 27.0391 35.3362 27.2735 35.3132C27.5078 35.2903 27.7354 35.2211 27.943 35.1098C28.1507 34.9984 28.3343 34.8471 28.4834 34.6644C28.6326 34.4818 28.7442 34.2714 28.812 34.0454C28.812 34.0454 33.0283 18.6578 34.5856 14.6105C32.6889 14.0153 30.68 15.1115 30.0991 17.0606Z" fill="white"/>
<path fill-rule="evenodd" clip-rule="evenodd" d="M62.3024 35.8782L59.3392 22.2462H59.2217C59.3562 23.2966 59.424 24.2607 59.424 25.1372V35.8782H56.7363V19.8706H61.1941L63.8596 32.4522H63.9458L66.5904 19.8706H71.1109V35.8796H68.3592V25.0286C68.3592 24.1312 68.4088 23.2103 68.5093 22.2684H68.4232L65.4704 35.8796H62.3024V35.8782ZM77.3779 33.8206C77.8961 33.8206 78.3112 33.5812 78.6206 33.1024C78.9299 32.6249 79.084 31.9879 79.084 31.1925V30.163L78.2094 30.2062C77.5619 30.2441 77.0868 30.4338 76.7866 30.7752C76.4837 31.1193 76.3323 31.6294 76.3323 32.3097C76.3323 33.3169 76.6808 33.8206 77.3779 33.8206ZM79.8411 35.8796L79.2759 34.2143H79.2119C78.7916 34.9298 78.3595 35.423 77.9118 35.6925C77.4627 35.9633 76.8988 36.098 76.2148 36.098C75.3402 36.098 74.6536 35.7631 74.1524 35.0907C73.6511 34.4184 73.4005 33.4844 73.4005 32.2874C73.4005 31.0028 73.7425 30.0479 74.4304 29.4239C75.1144 28.7999 76.1404 28.4559 77.5058 28.3892L79.084 28.3238V27.4473C79.084 26.3092 78.6036 25.7389 77.6442 25.7389C76.9328 25.7389 76.1169 26.0228 75.1914 26.5931L74.2111 24.5786C75.3529 23.8229 76.6922 23.4224 78.0606 23.4274C79.3189 23.4274 80.2758 23.7989 80.9337 24.5393C81.5916 25.281 81.9205 26.3302 81.9205 27.688V35.8796H79.8411ZM96.1841 33.6335C95.5445 33.6335 95.2247 33.2253 95.2247 32.4078V25.9914H97.3785V23.6799H95.2247V21.0519H93.4115L92.6858 23.6367L92.6244 23.6799H87.7071V21.0519H85.894L85.1695 23.6367L83.6867 24.6885V25.9914H84.8393V32.3097C84.8393 33.572 85.0873 34.5204 85.5846 35.1509C86.0833 35.7814 86.8469 36.098 87.8781 36.098C88.8023 36.098 89.4955 35.9332 89.9576 35.6048V33.3274C89.4955 33.5315 89.0647 33.6335 88.6666 33.6335C88.027 33.6335 87.7071 33.2253 87.7071 32.4078V25.9914H92.3555V32.3097C92.3555 33.572 92.6048 34.5204 93.1022 35.1509C93.5995 35.7814 94.3644 36.098 95.3944 36.098C96.3199 36.098 97.013 35.9332 97.4738 35.6048V33.3274C97.013 33.5315 96.5822 33.6335 96.1841 33.6335ZM103.541 25.6957C103.136 25.6957 102.802 25.9155 102.539 26.3576C102.276 26.7998 102.123 27.4839 102.082 28.4114H104.96C104.944 27.5206 104.814 26.8456 104.566 26.3851C104.316 25.9247 103.974 25.6957 103.541 25.6957ZM103.957 36.098C102.471 36.098 101.3 35.5564 100.443 34.472C99.5859 33.3876 99.159 31.8531 99.159 29.8674C99.159 27.8528 99.5467 26.2792 100.321 25.1476C101.095 24.0174 102.177 23.4497 103.562 23.4497C104.857 23.4497 105.876 23.9337 106.623 24.9017C107.37 25.8697 107.743 27.2249 107.743 28.97V30.5241H102.039C102.06 31.6124 102.276 32.4208 102.689 32.9493C103.1 33.4791 103.669 33.7434 104.395 33.7434C105.318 33.7434 106.264 33.4477 107.231 32.8565V35.2543C106.32 35.8168 105.229 36.098 103.957 36.098ZM115.121 23.451C115.469 23.451 115.811 23.5059 116.144 23.6145L115.814 26.4401C115.563 26.3595 115.3 26.3224 115.036 26.3302C114.345 26.3302 113.817 26.6101 113.446 27.1674C113.077 27.726 112.893 28.5383 112.893 29.6044V35.8782H110.055V23.6799H112.391L112.711 25.5858H112.808C113.12 24.8193 113.46 24.2725 113.831 23.9428C114.201 23.6158 114.63 23.451 115.121 23.451ZM126.562 35.8782L125.378 28.7934L124.962 25.8043H124.919C124.813 26.7762 124.728 27.4787 124.664 27.9117C124.599 28.3473 124.147 31.0028 123.309 35.8782H119.663L117.296 23.6799H120.143L121.23 30.4037C121.358 31.148 121.475 32.2403 121.582 33.678H121.648C121.678 33.087 121.727 32.4971 121.795 31.9094C121.881 31.1179 121.941 30.6078 121.978 30.3815L123.15 23.6799H126.796L127.959 30.4037C128.093 31.1193 128.211 32.2102 128.311 33.678H128.353C128.452 32.3711 128.578 31.2802 128.727 30.4037L129.857 23.6799H132.628L130.253 35.8782H126.562ZM137.854 33.8206C138.373 33.8206 138.787 33.5812 139.096 33.1024C139.406 32.6249 139.56 31.9879 139.56 31.1925V30.163L138.685 30.2062C138.038 30.2441 137.563 30.4338 137.262 30.7752C136.959 31.1193 136.808 31.6294 136.808 32.3097C136.808 33.3169 137.157 33.8206 137.854 33.8206ZM140.317 35.8796L139.752 34.2143H139.688C139.269 34.9298 138.835 35.423 138.386 35.6925C137.938 35.9633 137.375 36.098 136.691 36.098C135.816 36.098 135.129 35.7631 134.628 35.0907C134.127 34.4184 133.876 33.4844 133.876 32.2874C133.876 31.0028 134.219 30.0479 134.905 29.4239C135.591 28.7999 136.617 28.4559 137.982 28.3892L139.56 28.3238V27.4473C139.56 26.3092 139.079 25.7389 138.12 25.7389C137.408 25.7389 136.593 26.0228 135.667 26.5931L134.687 24.5786C135.829 23.823 137.168 23.4226 138.536 23.4274C139.795 23.4274 140.751 23.7989 141.409 24.5393C142.067 25.281 142.396 26.3302 142.396 27.688V35.8796H140.317ZM143.921 23.6799H146.863L148.505 30.5672C148.668 31.182 148.8 32.0389 148.9 33.1416H148.965C148.971 32.9663 149.004 32.6537 149.06 32.205C149.118 31.7563 149.163 31.4044 149.198 31.148C149.235 30.8929 149.726 28.4036 150.671 23.6799H153.655L150.254 36.7547C149.842 38.3611 149.294 39.5149 148.612 40.2147C147.93 40.9159 147.02 41.2664 145.883 41.2664C145.375 41.273 144.869 41.2101 144.379 41.0794V38.6384C144.67 38.7247 144.998 38.7692 145.359 38.7692C146.312 38.7692 146.939 38.1269 147.236 36.8423L147.439 36.0758L143.921 23.6799Z" fill="black"/>
</svg>
