<svg width="153" height="55" viewBox="0 0 153 55" fill="none" xmlns="http://www.w3.org/2000/svg">
<path d="M51.2516 27.0613H47.9932V40.9138H51.2516V27.0613Z" fill="#F34300"/>
<path d="M61.2873 26.906V29.9933C61.0382 29.9442 60.7851 29.918 60.5312 29.9152C59.9861 29.8838 59.4405 29.9655 58.9289 30.1552C58.4172 30.345 57.951 30.6386 57.5596 31.0174C56.7958 31.8949 56.4117 33.0372 56.4909 34.1953V40.9139H53.2324V27.0613H56.3344V29.085C57.2728 27.6321 58.9238 26.9058 61.2873 26.906Z" fill="#F34300"/>
<path d="M76.1541 35.0253H65.2321C65.3931 35.9978 65.9313 36.8687 66.7309 37.4504C67.6088 38.0689 68.6665 38.3835 69.7414 38.3459C70.4417 38.3685 71.1391 38.2464 71.7896 37.9874C72.4401 37.7284 73.0297 37.338 73.5211 36.8409L75.2675 38.8387C74.6315 39.5897 73.8159 40.1694 72.8956 40.5243C71.7218 40.9521 70.474 41.1428 69.2252 41.0849C67.9765 41.0271 66.7519 40.7221 65.6231 40.1876C64.4984 39.6196 63.562 38.7417 62.9251 37.6585C62.2813 36.5426 61.9525 35.2743 61.9736 33.9878C61.9544 32.713 62.2736 31.4558 62.8989 30.3432C63.5001 29.2776 64.3897 28.4013 65.4666 27.8141C66.601 27.1985 67.8763 26.8856 69.1682 26.9058C70.4379 26.8844 71.6912 27.1928 72.8045 27.8006C73.8618 28.386 74.7297 29.2588 75.3068 30.3172C75.9239 31.4693 76.2337 32.7598 76.2063 34.065C76.2063 34.2903 76.1889 34.6103 76.1541 35.0253ZM66.5222 30.4204C65.7939 31.0476 65.3248 31.9211 65.2059 32.8722H73.104C72.9967 31.93 72.5415 31.061 71.8269 30.4338C71.0895 29.802 70.1407 29.4687 69.1682 29.4996C68.2025 29.4729 67.2606 29.8006 66.5222 30.4204Z" fill="#F34300"/>
<path d="M92.9525 21.6655V40.9137H89.825V39.1241C89.2947 39.7747 88.6093 40.2829 87.831 40.6023C86.9996 40.9386 86.1089 41.1061 85.2115 41.0951C83.9519 41.1146 82.7084 40.8111 81.601 40.2137C80.5403 39.634 79.6678 38.7654 79.0856 37.7098C78.462 36.569 78.1477 35.2862 78.1734 33.9878C78.1468 32.6931 78.4612 31.414 79.0856 30.2778C79.6711 29.2282 80.5432 28.365 81.601 27.7881C82.7084 27.1903 83.9519 26.8865 85.2115 26.9059C86.0769 26.8954 86.9358 27.0539 87.7399 27.3726C88.4948 27.6772 89.1653 28.1577 89.6951 28.7735V21.6655H92.9525ZM87.7137 37.7879C88.3423 37.4309 88.8571 36.9049 89.1992 36.2702C89.5753 35.5687 89.7638 34.7827 89.7466 33.9878C89.7637 33.1927 89.5752 32.4065 89.1992 31.7047C88.8567 31.0703 88.3419 30.5445 87.7137 30.1871C87.0651 29.8384 86.3395 29.6557 85.6023 29.6557C84.8651 29.6557 84.1395 29.8384 83.4908 30.1871C82.8627 30.5448 82.3479 31.0706 82.005 31.7047C81.6292 32.4066 81.4407 33.1927 81.4576 33.9878C81.4406 34.7827 81.6291 35.5686 82.005 36.2702C82.3476 36.9046 82.8625 37.4305 83.4908 37.7879C84.1393 38.137 84.865 38.3199 85.6023 38.3199C86.3396 38.3199 87.0653 38.137 87.7137 37.7879Z" fill="#F34300"/>
<path d="M98.5096 40.1878C97.4067 39.6082 96.489 38.7319 95.8628 37.6587C95.2192 36.5425 94.891 35.2745 94.9112 33.988C94.8892 32.7054 95.2183 31.4411 95.8628 30.3299C96.4917 29.2624 97.4085 28.3911 98.5096 27.8142C99.6932 27.2171 101.001 26.906 102.328 26.906C103.655 26.906 104.963 27.2171 106.146 27.8142C107.247 28.3916 108.163 29.2628 108.793 30.3299C109.437 31.4411 109.766 32.7054 109.745 33.988C109.765 35.2745 109.436 36.5425 108.793 37.6587C108.166 38.7316 107.249 39.6078 106.146 40.1878C104.963 40.7843 103.655 41.0953 102.328 41.0953C101.001 41.0953 99.6932 40.7843 98.5096 40.1878ZM105.286 37.1265C105.683 36.7084 105.992 36.215 106.193 35.6759C106.395 35.1367 106.486 34.5627 106.46 33.988C106.486 33.4132 106.395 32.8391 106.193 32.2998C105.992 31.7605 105.683 31.2671 105.286 30.8487C104.491 30.0835 103.427 29.6559 102.321 29.6559C101.215 29.6559 100.152 30.0835 99.3558 30.8487C98.9625 31.2691 98.6581 31.7631 98.4582 32.3021C98.2593 32.8412 98.1695 33.4143 98.196 33.988C98.1695 34.5616 98.2593 35.1346 98.4582 35.6735C98.6581 36.2124 98.9625 36.7064 99.3558 37.1265C100.152 37.8921 101.215 38.3201 102.321 38.3201C103.427 38.3201 104.491 37.8921 105.286 37.1265Z" fill="#F34300"/>
<path d="M133.444 28.4235C133.993 29.041 134.413 29.7621 134.677 30.5441C134.941 31.3261 135.045 32.153 134.981 32.9756V40.9138H131.723V33.3911C131.795 32.4117 131.509 31.4393 130.914 30.6546C130.621 30.3397 130.26 30.0937 129.859 29.9344C129.458 29.7752 129.026 29.7066 128.595 29.7338C128.104 29.7132 127.614 29.7987 127.16 29.9844C126.705 30.1703 126.297 30.4519 125.962 30.81C125.251 31.6724 124.898 32.7713 124.972 33.8838V40.9138H121.714V33.3911C121.786 32.4117 121.498 31.4393 120.905 30.6546C120.612 30.3397 120.25 30.0937 119.85 29.9344C119.448 29.7752 119.016 29.7066 118.585 29.7338C118.093 29.7103 117.602 29.7932 117.145 29.9768C116.689 30.1604 116.277 30.4403 115.94 30.7973C115.233 31.6661 114.883 32.7691 114.961 33.8838V40.9138H111.703V27.0612H114.806V28.8256C115.332 28.1994 116.002 27.7098 116.76 27.3987C117.587 27.0616 118.474 26.894 119.367 26.9059C120.326 26.8879 121.274 27.0874 122.144 27.4893C122.937 27.8661 123.603 28.4657 124.059 29.2143C124.647 28.4767 125.408 27.8934 126.275 27.5154C127.219 27.101 128.241 26.8931 129.272 26.9059C130.034 26.8662 130.797 26.9802 131.514 27.241C132.23 27.5018 132.886 27.904 133.444 28.4235Z" fill="#F34300"/>
<path d="M151.121 35.0255H140.2C140.361 35.998 140.899 36.8686 141.698 37.4506C142.576 38.0692 143.634 38.3838 144.709 38.3462C145.41 38.3686 146.106 38.2464 146.757 37.9874C147.408 37.7284 147.998 37.3381 148.489 36.8412L150.235 38.8389C149.599 39.59 148.783 40.1697 147.863 40.5246C146.689 40.9524 145.442 41.143 144.193 41.0852C142.943 41.0273 141.72 40.7224 140.59 40.1878C139.466 39.6198 138.529 38.7418 137.892 37.6587C137.248 36.5427 136.92 35.2745 136.94 33.988C136.922 32.7133 137.241 31.4562 137.866 30.3434C138.468 29.2779 139.357 28.4017 140.433 27.8143C141.568 27.1987 142.844 26.8858 144.135 26.9061C145.405 26.8846 146.658 27.193 147.772 27.8009C148.829 28.3863 149.697 29.2592 150.274 30.3174C150.891 31.4697 151.201 32.7601 151.173 34.0654C151.173 34.2905 151.156 34.6106 151.121 35.0255ZM141.489 30.4207C140.762 31.0479 140.292 31.9214 140.173 32.8725H148.071C147.965 31.9302 147.509 31.0612 146.794 30.4341C146.057 29.8022 145.108 29.4688 144.135 29.4998C143.17 29.4731 142.228 29.8008 141.489 30.4207Z" fill="#F34300"/>
<path d="M44.0274 21.4843C43.3596 21.4427 42.6902 21.535 42.0588 21.7556C41.4275 21.9762 40.8471 22.3207 40.3519 22.7686C39.9052 23.235 39.5592 23.7874 39.3351 24.3918C39.1109 24.9962 39.0135 25.6399 39.0487 26.2832V27.0614H36.7549V29.6551H39.0487V40.9139H42.3071V29.6551H46.0345V27.0614H42.2029V26.3352C42.2029 24.8481 42.8892 24.1044 44.2619 24.1041H46.0345V21.4843H44.0274Z" fill="#F34300"/>
<path d="M49.6224 24.727C50.5221 24.727 51.2515 24.0011 51.2515 23.1057C51.2515 22.2103 50.5221 21.4844 49.6224 21.4844C48.7226 21.4844 47.9932 22.2103 47.9932 23.1057C47.9932 24.0011 48.7226 24.727 49.6224 24.727Z" fill="#F34300"/>
<path d="M16.0343 35.6826H10.6895V41.0017H16.0343V35.6826Z" fill="#F34300"/>
<path d="M19.8605 18.1877L19.4111 18.1921L19.4631 23.5109L19.9124 23.5066C20.717 23.4979 21.5154 23.6472 22.2621 23.9458C23.0087 24.2444 23.6888 24.6865 24.2636 25.2468C24.8383 25.8072 25.2966 26.4748 25.6118 27.2115C25.9272 27.9482 26.0935 28.7395 26.1014 29.5401C26.1092 30.3409 25.9584 31.1353 25.6575 31.8779C25.3566 32.6206 24.9116 33.2969 24.3479 33.8683C23.7841 34.4397 23.1128 34.8949 22.3722 35.2079C21.6315 35.5209 20.8362 35.6856 20.0315 35.6924L19.4111 35.6984V41.0178L20.0835 41.0114C23.1232 40.9793 26.0257 39.7477 28.1533 37.587C30.2808 35.4264 31.4592 32.5136 31.4297 29.4886C31.4001 26.4637 30.1649 23.5742 27.9956 21.4552C25.8262 19.3361 22.9002 18.1609 19.8605 18.1877Z" fill="#F34300"/>
<path d="M16.0346 18.1394H0V23.4585H16.0346V18.1394Z" fill="#F34300"/>
<path d="M16.0347 26.9431H5.33203V32.2622H16.0347V26.9431Z" fill="#F34300"/>
</svg>
