<svg width="154" height="53" viewBox="0 0 154 53" fill="none" xmlns="http://www.w3.org/2000/svg">
<path d="M7.57121 20.2345C9.96724 20.2345 11.5621 21.4197 12.1301 22.1263C12.1677 22.1643 12.209 22.2022 12.209 22.2744C12.209 22.3124 12.2467 22.3846 12.209 22.4226C12.209 22.4606 12.1677 22.5365 12.1677 22.5707C12.1301 22.6087 12.0924 22.6467 12.0548 22.6847L11.7502 22.981C11.5245 23.2013 11.295 23.0911 11.1069 22.905C10.1553 22.0161 8.90275 21.5337 7.57121 21.5337C6.89039 21.5337 6.24343 21.6438 5.63408 21.9022C5.02849 22.1643 4.45675 22.4985 3.964 22.981C3.50887 23.4254 3.12897 23.9838 2.86191 24.6144C2.59484 25.207 2.482 25.8756 2.482 26.5061C2.482 29.4045 4.79904 31.5584 7.5336 31.5584C8.25579 31.5584 8.97798 31.4064 9.66256 31.1101C10.3095 30.8138 10.9151 30.3694 11.3702 29.811C11.5997 29.5907 11.7878 29.5907 11.942 29.7388L12.2843 30.0351C12.4347 30.1833 12.51 30.3314 12.3595 30.5175C11.9044 31.2241 10.0801 32.8195 7.5336 32.8195C6.66094 32.8195 5.82591 32.6714 5.02849 32.3751C4.2273 32.075 3.50887 31.5926 2.89952 31.038C2.29017 30.4416 1.79742 29.773 1.45513 28.9943C1.15046 28.1396 1 27.3229 1 26.5061C1 25.6894 1.15046 24.8385 1.49275 24.094C1.83504 23.3153 2.32778 22.6467 2.93713 22.0541C3.54648 21.4577 4.26868 21.0133 5.0661 20.717C5.86352 20.3447 6.69856 20.1965 7.57121 20.2345Z" fill="#1A1A1B"/>
<path d="M20.9089 20.2346C24.3281 20.2346 27.0626 23.0532 27.0626 26.472C27.0626 29.9592 24.3281 32.7816 20.9089 32.7816C17.4484 32.7816 14.7515 29.9592 14.7515 26.472C14.7515 23.0532 17.4484 20.2346 20.9089 20.2346ZM20.9089 31.5585C23.6059 31.5585 25.7311 29.3286 25.7311 26.472C25.7311 23.7218 23.6059 21.4958 20.9089 21.4958C18.2082 21.4958 16.0454 23.7218 16.0454 26.472C16.0454 29.2906 18.1706 31.5585 20.9089 31.5585Z" fill="#1A1A1B"/>
<path d="M30.2148 20.9032C30.2148 20.7892 30.2525 20.6791 30.3277 20.6411C30.4067 20.5689 30.5195 20.5309 30.6324 20.5309H30.937C31.0123 20.5309 31.1289 20.5689 31.2041 20.6031C31.2793 20.6411 31.3169 20.7512 31.3169 20.8272L31.4298 22.1264C32.6485 20.9374 34.2809 20.2688 35.9886 20.2346C39.4491 20.2346 40.9274 22.3505 40.9274 25.6895V32.0751C40.9274 32.189 40.8898 32.2612 40.8145 32.3372C40.7393 32.4094 40.6265 32.4473 40.5475 32.4473H40.0171C39.9043 32.4473 39.829 32.4094 39.7501 32.3372C39.6748 32.2612 39.6372 32.151 39.6372 32.0751V25.6895C39.6372 22.9431 38.3094 21.4958 35.9886 21.4958C33.4835 21.4958 31.7345 23.3875 31.584 23.5737V32.0751C31.584 32.1131 31.584 32.189 31.584 32.2232C31.584 32.2612 31.5464 32.3372 31.5088 32.3752C31.4674 32.4094 31.4298 32.4473 31.3546 32.4473C31.3169 32.4473 31.2417 32.4853 31.2041 32.4473H30.6324C30.5947 32.4473 30.5195 32.4473 30.4819 32.4094C30.4443 32.3752 30.4067 32.3752 30.3691 32.3372C30.3277 32.2992 30.3277 32.2612 30.2901 32.2232C30.2901 32.189 30.2901 32.1131 30.2901 32.0751L30.2148 20.9032Z" fill="#1A1A1B"/>
<path d="M44.0458 31L44.3505 30.5175C44.3881 30.4795 44.4257 30.4415 44.4633 30.4074C44.501 30.3694 44.5762 30.3694 44.6138 30.3694C44.6514 30.3694 44.7304 30.3694 44.768 30.4074C44.8056 30.4415 44.8432 30.4415 44.8809 30.4795C45.8287 31.2241 46.9684 31.6305 48.1495 31.6305C49.8948 31.6305 51.1098 30.6657 51.1098 29.5147C51.1098 28.1396 49.7444 27.5849 47.653 26.8404C45.4902 26.0997 43.8916 25.169 43.8916 23.3152C43.8916 22.0161 45.1103 20.1965 47.9201 20.1965C49.135 20.1965 50.35 20.5308 51.3768 21.1614C51.4521 21.2336 51.5311 21.3095 51.5687 21.4197C51.6063 21.5337 51.5687 21.6438 51.5311 21.7198L51.3392 22.0541C51.3016 22.0883 51.264 22.1263 51.2264 22.1642C51.1888 22.2022 51.1098 22.2364 51.0722 22.2364C51.0345 22.2364 50.9593 22.2364 50.9217 22.2364C50.8841 22.2364 50.8089 22.2022 50.7712 22.1642C49.9325 21.6438 48.947 21.3475 47.9577 21.3095C46.0206 21.3095 45.2984 22.4226 45.2984 23.2393C45.2984 24.4283 46.4005 24.9867 48.2248 25.6172C50.5418 26.4719 52.5542 27.2127 52.5542 29.3665C52.5542 31.1481 50.6546 32.6714 48.1871 32.6714C46.7428 32.7056 45.2984 32.2231 44.1587 31.3342C44.0834 31.2962 44.0458 31.2241 44.0082 31.1481C44.0082 31.1481 44.0082 31.0721 44.0458 31Z" fill="#1A1A1B"/>
<path d="M60.9119 20.2346C64.143 20.2346 66.46 22.5366 66.46 25.6895C66.46 26.1719 66.46 26.8405 66.0049 26.8405H56.2026C56.3155 29.4046 58.215 31.5585 60.9909 31.5585C62.2811 31.5585 63.5337 31.1482 64.5981 30.4416C64.8652 30.2555 65.0157 30.2213 65.1699 30.4416L65.4708 30.8899C65.5498 31.0001 65.5498 31.1862 65.3579 31.3723C64.7486 31.9649 62.8115 32.7816 60.9119 32.7816C57.1505 32.7816 54.8711 29.9592 54.8711 26.472C54.8711 23.0532 57.1881 20.2346 60.9119 20.2346ZM65.1285 25.7655C65.1285 23.4255 63.6879 21.4198 60.9119 21.4198C58.215 21.4198 56.3907 23.3533 56.2403 25.7655H65.1285Z" fill="#1A1A1B"/>
<path d="M69.729 20.9032C69.729 20.8652 69.729 20.7892 69.7666 20.7512C69.8042 20.7171 69.8042 20.6791 69.8418 20.6411C69.8795 20.6031 69.9171 20.5689 69.9923 20.5689C70.0299 20.5689 70.1089 20.5309 70.1465 20.5309H70.4512C70.5264 20.5309 70.6393 20.5689 70.7145 20.6031C70.7897 20.6411 70.8311 20.7512 70.8311 20.8272L70.9439 22.1264C72.1589 20.9374 73.7913 20.2688 75.5028 20.2346C78.9595 20.2346 80.4415 22.3505 80.4415 25.6895V32.0751C80.4415 32.189 80.4039 32.2612 80.3287 32.3372C80.2497 32.4094 80.1369 32.4473 80.0616 32.4473H79.5313C79.4147 32.4473 79.3394 32.4094 79.2642 32.3372C79.189 32.2612 79.1514 32.151 79.1514 32.0751V25.6895C79.1514 22.9431 77.8198 21.4958 75.5028 21.4958C72.9939 21.4958 71.2486 23.3875 71.0944 23.5737V32.0751C71.0944 32.1131 71.0944 32.189 71.0944 32.2232C71.0944 32.2612 71.0568 32.3372 71.0192 32.3752C70.9816 32.4094 70.9439 32.4473 70.8687 32.4473C70.8311 32.4473 70.7521 32.4853 70.7145 32.4473H70.1465C70.1089 32.4473 70.0299 32.4473 69.9923 32.4094C69.9547 32.3752 69.9171 32.3752 69.8795 32.3372C69.8418 32.2992 69.8418 32.2612 69.8042 32.2232C69.8042 32.189 69.8042 32.1131 69.8042 32.0751V20.9032H69.729Z" fill="#1A1A1B"/>
<path d="M83.5557 31L83.8604 30.5175C83.898 30.4795 83.9356 30.4415 83.9732 30.4074C84.0109 30.3694 84.0899 30.3694 84.1275 30.3694C84.1651 30.3694 84.2403 30.3694 84.2779 30.4074C84.3155 30.4415 84.3532 30.4415 84.3908 30.4795C85.3424 31.2241 86.4821 31.6305 87.6594 31.6305C89.4085 31.6305 90.6234 30.6657 90.6234 29.5147C90.6234 28.1396 89.2543 27.5849 87.1667 26.8404C85.0001 26.0997 83.4053 25.169 83.4053 23.3152C83.4053 22.0161 84.5826 20.1965 87.43 20.1965C88.6487 20.1965 89.8636 20.5308 90.8905 21.1614C90.9657 21.2336 91.041 21.3095 91.0786 21.4197C91.1162 21.5337 91.0786 21.6438 91.041 21.7198L90.8491 22.0541C90.8115 22.0883 90.7739 22.1263 90.7363 22.1642C90.6987 22.2022 90.6234 22.2364 90.5858 22.2364C90.5482 22.2364 90.4692 22.2364 90.4316 22.2364C90.394 22.2364 90.3188 22.2022 90.2812 22.1642C89.4461 21.6438 88.4569 21.3475 87.4714 21.3095C85.5305 21.3095 84.8083 22.4226 84.8083 23.2393C84.8083 24.4283 85.9104 24.9867 87.7347 25.6172C90.0517 26.4719 92.0678 27.2127 92.0678 29.3665C92.0678 31.1481 90.1683 32.6714 87.6971 32.6714C86.2527 32.7056 84.8083 32.2231 83.6686 31.3342C83.5933 31.2962 83.5557 31.2241 83.5181 31.1481C83.5181 31.1481 83.5181 31.0721 83.5557 31Z" fill="#1A1A1B"/>
<path d="M94.8023 20.903C94.8023 20.7891 94.8399 20.7169 94.9151 20.6409C94.9903 20.5687 95.1069 20.5308 95.1822 20.5308H95.7501C95.8667 20.5308 95.942 20.5687 96.0172 20.6409C96.0924 20.7169 96.13 20.8271 96.13 20.903V27.3228C96.13 30.1072 97.4616 31.5203 99.7786 31.5203C102.325 31.5203 103.732 29.5906 103.845 29.4386V20.903C103.845 20.865 103.845 20.7891 103.882 20.7511C103.92 20.7169 103.92 20.6409 103.958 20.6409C103.995 20.6029 104.033 20.5687 104.07 20.5687C104.112 20.5687 104.187 20.5308 104.225 20.5308H104.755C104.872 20.5308 104.947 20.5687 105.022 20.6409C105.097 20.7169 105.135 20.8271 105.135 20.903V32.0749C105.135 32.1889 105.097 32.2611 105.022 32.337C104.947 32.4092 104.83 32.4472 104.755 32.4472H104.375C104.149 32.4472 104.033 32.2611 103.995 32.0749L103.882 30.9239C103.352 31.5203 102.705 31.9648 101.983 32.299C101.261 32.5953 100.463 32.7815 99.6658 32.7815C96.209 32.7815 94.7646 30.7378 94.7646 27.3608L94.8023 20.903Z" fill="#1A1A1B"/>
<path d="M108.592 31L108.897 30.5175C108.934 30.4795 108.972 30.4415 109.009 30.4074C109.051 30.3694 109.126 30.3694 109.164 30.3694C109.201 30.3694 109.276 30.3694 109.314 30.4074C109.352 30.4415 109.389 30.4415 109.431 30.4795C110.379 31.2241 111.518 31.6305 112.696 31.6305C114.445 31.6305 115.66 30.6657 115.66 29.5147C115.66 28.1396 114.29 27.5849 112.203 26.8404C110.036 26.0997 108.441 25.169 108.441 23.3152C108.441 22.0161 109.619 20.1965 112.47 20.1965C113.685 20.1965 114.9 20.5308 115.927 21.1614C116.002 21.2336 116.077 21.3095 116.115 21.4197C116.152 21.5337 116.115 21.6438 116.077 21.7198L115.889 22.0541C115.851 22.0883 115.81 22.1263 115.772 22.1642C115.735 22.2022 115.66 22.2364 115.622 22.2364C115.584 22.2364 115.509 22.2364 115.472 22.2364C115.43 22.2364 115.355 22.2022 115.317 22.1642C114.482 21.6438 113.493 21.3475 112.508 21.3095C110.57 21.3095 109.848 22.4226 109.848 23.2393C109.848 24.4283 110.95 24.9867 112.771 25.6172C115.092 26.4719 117.104 27.2127 117.104 29.3665C117.104 31.1481 115.204 32.6714 112.733 32.6714C111.289 32.7056 109.848 32.2231 108.708 31.3342C108.629 31.2962 108.592 31.2241 108.554 31.1481C108.554 31.1481 108.554 31.0721 108.592 31Z" fill="#1A1A1B"/>
<path d="M130.856 26.396L135.377 29.0323V23.7598L130.856 26.396Z" fill="#FFB26A" stroke="#FFB26A" stroke-width="0.097027" stroke-miterlimit="10" stroke-linejoin="bevel"/>
<path d="M152.055 18.8215L147.914 16.4854L139.631 21.3097L143.965 23.8358C144.307 24.0561 144.762 24.0561 145.142 23.8358L152.055 19.7864C152.435 19.5661 152.435 19.0077 152.055 18.8215Z" fill="#FF6B00" stroke="#FF6B00" stroke-width="0.097027" stroke-miterlimit="10" stroke-linejoin="bevel"/>
<path d="M152.055 34.0087L147.914 36.3449L139.631 31.5206L143.965 28.9945C144.307 28.7704 144.762 28.7704 145.142 28.9945L152.055 33.0401C152.435 33.2642 152.435 33.7846 152.055 34.0087Z" fill="#FF8B1C" stroke="#F68B25" stroke-width="0.097027" stroke-miterlimit="10" stroke-linejoin="bevel"/>
<path d="M135.377 18.8213V23.7596L139.631 21.2714L135.377 18.8213Z" fill="#FF8B1C" stroke="#F68B25" stroke-width="0.097027" stroke-miterlimit="10" stroke-linejoin="bevel"/>
<path d="M135.377 14.2173L131.39 16.4851L135.377 18.8213V14.2173Z" fill="#FF2F04" stroke="#FF2F04" stroke-width="0.097027" stroke-miterlimit="10" stroke-linejoin="bevel"/>
<path d="M139.631 21.2716L147.914 16.4473L140.203 12.1396C139.861 11.9535 139.405 11.9535 139.063 12.1396L135.377 14.2175V18.8215L139.631 21.2716Z" fill="#FF4C03" stroke="#FF4C03" stroke-width="0.097027" stroke-miterlimit="10" stroke-linejoin="bevel"/>
<path d="M135.377 23.7598V18.8215L131.352 16.4854L127.361 18.7494C127.019 18.9355 126.79 19.304 126.79 19.7142V24.0219L130.893 26.3961L135.377 23.7598Z" fill="#FF600D" stroke="#FF600D" stroke-width="0.097027" stroke-miterlimit="10" stroke-linejoin="bevel"/>
<path d="M135.377 34.0087V29.0325L139.631 31.5206L135.377 34.0087Z" fill="#FF8B1C" stroke="#F68B25" stroke-width="0.097027" stroke-miterlimit="10" stroke-linejoin="bevel"/>
<path d="M135.377 38.6087L131.39 36.3447L135.377 34.0085V38.6087Z" fill="#FF2F04" stroke="#FF2F04" stroke-width="0.097027" stroke-miterlimit="10" stroke-linejoin="bevel"/>
<path d="M139.631 31.5203L147.914 36.3446L140.203 40.6902C139.861 40.8764 139.405 40.8764 139.063 40.6902L135.377 38.6086V34.0084L139.631 31.5203Z" fill="#FF4C03" stroke="#FF4C03" stroke-width="0.097027" stroke-miterlimit="10" stroke-linejoin="bevel"/>
<path d="M130.856 26.3961L126.79 24.022V28.7703L130.856 26.3961Z" fill="#FF2F04" stroke="#FF2F04" stroke-width="0.097027" stroke-miterlimit="10" stroke-linejoin="bevel"/>
<path d="M135.377 29.0323V34.0085L131.352 36.3447L127.324 34.0807C126.981 33.8946 126.752 33.5223 126.752 33.1158V28.7702L130.856 26.396L135.377 29.0323Z" fill="#FF600D" stroke="#FF600D" stroke-width="0.097027" stroke-miterlimit="10" stroke-linejoin="bevel"/>
</svg>
