<svg width="19" height="19" viewBox="0 0 19 19" fill="none" xmlns="http://www.w3.org/2000/svg">
<path d="M16.5508 1.48438H14.8438V0.59375C14.8438 0.265852 14.5779 0 14.25 0C13.9221 0 13.6562 0.265852 13.6562 0.59375V1.48438H5.34375V0.59375C5.34375 0.265852 5.07794 0 4.75 0C4.42206 0 4.15625 0.265852 4.15625 0.59375V1.48438H2.44922C1.0987 1.48438 0 2.58307 0 3.93359V16.5508C0 17.9013 1.0987 19 2.44922 19H16.5508C17.9013 19 19 17.9013 19 16.5508V3.93359C19 2.58307 17.9013 1.48438 16.5508 1.48438ZM17.8125 16.5508C17.8125 17.2476 17.2476 17.8125 16.5508 17.8125H2.44922C1.75238 17.8125 1.1875 17.2476 1.1875 16.5508V6.7168C1.1875 6.61434 1.27059 6.53125 1.37305 6.53125H17.627C17.7294 6.53125 17.8125 6.61434 17.8125 6.7168V16.5508Z" fill="#1B6DFF"/>
</svg>
