<svg width="16" height="16" viewBox="0 0 16 16" fill="none" xmlns="http://www.w3.org/2000/svg">
<path d="M10.8511 9.41291L8.62023 7.73979V4.3316C8.62023 3.98891 8.34323 3.71191 8.00055 3.71191C7.65786 3.71191 7.38086 3.98891 7.38086 4.3316V8.04966C7.38086 8.24485 7.47258 8.42891 7.62873 8.54541L10.1074 10.4044C10.219 10.4881 10.3491 10.5284 10.4786 10.5284C10.6676 10.5284 10.8535 10.4435 10.975 10.2799C11.1808 10.0066 11.125 9.61804 10.8511 9.41291Z" fill="#4B7BE7"/>
<path d="M8 0C3.58853 0 0 3.58853 0 8C0 12.4115 3.58853 16 8 16C12.4115 16 16 12.4115 16 8C16 3.58853 12.4115 0 8 0ZM8 14.7607C4.27266 14.7607 1.23934 11.7273 1.23934 8C1.23934 4.27266 4.27266 1.23934 8 1.23934C11.728 1.23934 14.7607 4.27266 14.7607 8C14.7607 11.7273 11.7273 14.7607 8 14.7607Z" fill="#4B7BE7"/>
</svg>
