<svg width="21" height="21" viewBox="0 0 21 21" fill="none" xmlns="http://www.w3.org/2000/svg">
<g clip-path="url(#clip0_651_25030)">
<path d="M16.2369 14.3928C16.2491 12.7314 15.5923 11.4175 14.2823 10.4896C13.2706 9.77517 12.0427 9.4025 10.8552 9.04439C8.38129 8.29441 7.66365 7.89938 7.66365 6.71633C7.66365 5.39855 9.37621 4.92968 10.8423 4.92968C11.91 4.92968 13.1384 5.26165 13.9013 5.75362L15.4137 3.41131C14.4166 2.76497 13.0521 2.3241 11.7046 2.18726V0H8.91471V2.34064C6.4347 2.8862 4.87242 4.50708 4.87242 6.71633C4.87242 8.26356 5.51536 9.49059 6.77974 10.356C7.74139 11.0168 8.91422 11.3715 10.0472 11.715C12.4737 12.4485 13.4591 12.8954 13.4479 14.3755L13.4478 14.3864C13.4478 15.6288 11.8015 16.0704 10.391 16.0704C9.05868 16.0704 7.60982 15.4865 6.78853 14.6183L4.76172 16.5355C5.80179 17.6355 7.31291 18.4133 8.91465 18.7181V21.0001H11.7046V18.7672C14.4604 18.3727 16.2341 16.7136 16.2369 14.3928Z" fill="#1B6DFF"/>
</g>
<defs>
<clipPath id="clip0_651_25030">
<rect width="21" height="21" fill="white"/>
</clipPath>
</defs>
</svg>
