<svg width="134" height="147" viewBox="0 0 134 147" fill="none" xmlns="http://www.w3.org/2000/svg">
<path d="M132.105 112.011C133.152 125.058 104.852 137.974 68.8956 140.859C32.9392 143.745 2.94196 135.507 1.89494 122.46C1.30946 115.164 9.90069 111.398 23.8759 105.915C34.8923 101.593 49.2543 98.3721 65.104 97.1002C101.06 94.2148 131.058 98.9635 132.105 112.011Z" fill="#E8E8E8" fill-opacity="0.66"/>
<path fill-rule="evenodd" clip-rule="evenodd" d="M53.9251 28.1091C38.7688 36.8639 26.4668 58.1524 26.4668 75.6236C26.4668 93.0949 38.756 100.216 53.9251 91.464C69.0943 82.7124 81.3835 61.4622 81.3835 43.9494C81.3835 26.4367 69.0815 19.3575 53.9251 28.1091Z" fill="white"/>
<path fill-rule="evenodd" clip-rule="evenodd" d="M54.4065 28.923C39.5343 37.5118 27.4335 58.4684 27.4335 75.6237C27.4335 83.7337 30.1218 89.7405 35.0036 92.5683C39.8855 95.3961 46.4244 94.694 53.4487 90.6533C68.3209 82.0645 80.4217 61.1111 80.4217 43.9526C80.4217 35.8522 77.7333 29.8422 72.8515 27.008C67.9697 24.1738 61.4243 24.8824 54.4065 28.923ZM41.6639 96.1813C38.9938 96.216 36.3632 95.5349 34.0458 94.2088C28.5477 91.0586 25.5273 84.4646 25.5273 75.6237C25.5273 57.8492 38.0496 36.1713 53.4487 27.2825C61.0923 22.8588 68.3273 22.1758 73.8125 25.3675C79.2978 28.5592 82.331 35.1181 82.331 43.9495C82.331 61.7303 69.8055 83.4082 54.4065 92.3002C49.9333 94.8886 45.5879 96.1813 41.6639 96.1813Z" fill="#414141"/>
<path fill-rule="evenodd" clip-rule="evenodd" d="M53.9258 53.3202C44.5038 60.1982 37.0741 70.1339 33.4917 79.6419C32.5925 78.589 31.9644 77.3322 31.6622 75.9811C28.5779 63.5335 38.6258 44.3005 53.9418 33.0945L53.9258 53.3202Z" fill="white"/>
<path fill-rule="evenodd" clip-rule="evenodd" d="M52.9694 35.035C38.7645 46.158 29.6905 64.1016 32.5672 75.7353C32.7288 76.3859 32.96 77.0173 33.2569 77.6184C37.1872 68.3242 44.4318 59.1641 52.9694 52.8414V35.035ZM33.4931 80.609C33.2189 80.6022 32.9584 80.4875 32.7684 80.2898C31.7723 79.1065 31.0758 77.7009 30.7377 76.1917C27.58 63.4537 37.7332 43.7643 53.3749 32.3412C53.5175 32.2364 53.6864 32.1732 53.8628 32.1586C54.0392 32.1439 54.2163 32.1784 54.3743 32.2583C54.5298 32.3366 54.6611 32.4558 54.7539 32.6032C54.8467 32.7505 54.8976 32.9204 54.9011 33.0945V53.3201C54.8996 53.4681 54.863 53.6136 54.7941 53.7446C54.7253 53.8755 54.6262 53.9883 54.5052 54.0734C45.5653 60.6259 38.0557 70.2967 34.3903 79.9898C34.3314 80.1413 34.2347 80.2753 34.1096 80.3792C33.9845 80.4831 33.8349 80.5533 33.6751 80.5835C33.6124 80.6086 33.5442 80.6174 33.4772 80.609H33.4931Z" fill="#414141"/>
<path fill-rule="evenodd" clip-rule="evenodd" d="M65.739 2.22761L79.1329 9.95466C76.8328 9.11887 74.4089 8.67439 71.9618 8.63969C60.177 8.47692 48.2869 16.6955 40.3017 24.6938C25.886 39.1043 14.2961 62.0365 14.2961 82.6547C14.2961 90.7073 16.1703 99.6791 22.1728 105.469L22.7507 106.011L9.36633 98.2844C9.08217 98.0897 7.96151 96.9024 7.67735 96.6087C0.21251 88.1508 0.0432898 74.4936 1.93025 64.0217C4.61862 49.0208 12.6486 32.7432 23.6415 20.4138C33.3158 9.55889 50.324 -3.2142 65.739 2.22761Z" fill="#2B7CFF"/>
<path fill-rule="evenodd" clip-rule="evenodd" d="M58.1239 1.90852C45.9912 1.90852 33.1911 11.1484 24.3629 21.0586C13.5744 33.1551 5.54438 49.289 2.87198 64.1846C1.72575 70.5679 -0.02709 86.4561 8.40198 95.9641C8.72126 96.3375 9.71741 97.3685 9.93771 97.5312L18.3923 102.415C14.3055 96.245 13.3477 88.5467 13.3477 82.6708C13.3477 63.3069 23.9063 39.7363 39.6246 24.0332C44.5608 19.1053 57.5045 7.71419 71.6072 7.71419H71.9712C72.4693 7.71419 72.9291 7.73972 73.4112 7.77164L65.3365 3.10221C63.0138 2.31431 60.5767 1.91635 58.1239 1.92448V1.90852ZM22.7537 106.979C22.5864 106.971 22.4228 106.926 22.2748 106.848L8.89045 99.1111C8.21086 98.5265 7.57089 97.8975 6.97476 97.228C-2.00029 87.0689 -0.189945 70.5073 0.997788 63.859C3.73404 48.6124 11.9364 32.1305 22.9517 19.7628C33.967 7.39502 51.0933 -3.93544 66.0709 1.31806L66.2337 1.39147L79.618 9.1281C79.8229 9.24414 79.9767 9.43291 80.0488 9.65697C80.121 9.88104 80.1063 10.124 80.0076 10.3377C79.9092 10.5558 79.7327 10.7291 79.5129 10.8236C79.2931 10.9181 79.0458 10.927 78.8198 10.8484C76.6234 10.0347 74.3008 9.61442 71.9584 9.60685H71.6168C58.2069 9.60685 45.7549 20.599 40.988 25.3674C25.5985 40.7449 15.2666 63.776 15.2666 82.6548C15.2666 89.418 16.582 98.7377 22.8431 104.796L23.4147 105.316C23.5827 105.476 23.6867 105.692 23.7072 105.923C23.7278 106.155 23.6635 106.386 23.5264 106.573C23.443 106.701 23.3282 106.806 23.1929 106.877C23.0576 106.948 22.9064 106.983 22.7537 106.979Z" fill="#414141"/>
<path fill-rule="evenodd" clip-rule="evenodd" d="M72.9849 91.8948L59.6005 84.1646L59.4792 84.0816L59.3579 84.0018L59.2365 83.922L59.1216 83.8135L59.0099 83.7082L58.9013 83.6284L58.7895 83.5231L58.6842 83.4082L58.5788 83.3028L58.4734 83.1975L58.3745 83.0826L58.2787 82.9549L58.1797 82.8496L71.5641 90.5767L71.6631 90.6852L71.7589 90.8129L71.8579 90.9278L71.9632 91.0331L72.0686 91.1384L72.174 91.2533L72.2857 91.3586L72.3942 91.4384L72.506 91.5438L72.6305 91.6267L72.7423 91.7321L72.8636 91.8119L72.9849 91.8948Z" fill="white"/>
<path fill-rule="evenodd" clip-rule="evenodd" d="M72.9391 92.8395C72.7918 92.8456 72.6458 92.8102 72.5176 92.7373L59.1333 85.0071C59.0982 84.9752 58.9449 84.9017 58.9129 84.8698C58.8226 84.8048 58.7363 84.7345 58.6543 84.6592C58.5586 84.5939 58.4688 84.5202 58.3861 84.4389C58.3861 84.4389 58.1403 84.2283 58.1339 84.2283C58.0616 84.1404 57.9826 84.0583 57.8976 83.9825C57.8976 83.9602 57.6709 83.74 57.6613 83.7144L57.4506 83.4719C57.3048 83.3003 57.2241 83.0829 57.2227 82.8578C57.2213 82.6326 57.2992 82.4142 57.4429 82.2409C57.5866 82.0675 57.7868 81.9503 58.0083 81.9099C58.2299 81.8694 58.4586 81.9083 58.6543 82.0196L72.0451 89.7467C72.1514 89.8057 72.2413 89.8902 72.3069 89.9925L72.1026 90.2829L72.2399 90.3659L72.4697 90.1776L72.3229 90.4234L72.508 90.5287L72.6549 90.3659L72.5591 90.551L72.7284 90.6563L72.8273 90.551L72.7699 90.6563L72.9646 90.7968L73.0221 90.7138L72.987 90.7968L73.1818 90.9085L73.2073 90.8766V90.934L73.418 91.0394C73.625 91.1874 73.7714 91.4054 73.8301 91.653C73.8888 91.9006 73.8558 92.1611 73.7373 92.3863C73.6542 92.5238 73.5372 92.6377 73.3974 92.7171C73.2577 92.7964 73.0998 92.8386 72.9391 92.8395Z" fill="#414141"/>
<path fill-rule="evenodd" clip-rule="evenodd" d="M34.5152 93.4044L21.1309 85.6741C36.2138 93.9725 54.8056 73.6574 61.7245 60.0002C67.5737 48.4496 73.0047 26.3408 59.9524 18.4414C64.0137 20.8192 73.7614 25.6099 76.6861 28.9452C88.0142 41.7662 77.2863 68.1135 66.4275 80.794C59.4192 88.9871 45.7507 99.5739 34.5152 93.4044Z" fill="#2B7CFF"/>
<path fill-rule="evenodd" clip-rule="evenodd" d="M34.9848 92.5682C45.0806 98.1217 57.8391 89.3765 65.6935 80.1781C76.7566 67.2518 86.7662 41.7982 75.968 29.5708C74.2311 27.5984 69.6654 24.9046 65.6679 22.7023C72.1749 32.7465 67.9668 49.771 62.5741 60.4408C57.0441 71.3435 45.6233 84.1869 34.4772 87.6403C32.3882 88.3039 30.2029 88.6135 28.0117 88.5563L34.9721 92.5682H34.9848ZM41.7983 96.2035C39.0911 96.2129 36.4254 95.5377 34.0493 94.2407C34.0493 94.2407 34.0493 94.2407 34.0493 94.2087L20.665 86.5104C20.4537 86.3833 20.2997 86.1796 20.2349 85.9418C20.1701 85.704 20.1994 85.4504 20.317 85.2337C20.4383 85.0165 20.6395 84.8551 20.8779 84.7836C21.1163 84.7122 21.3731 84.7362 21.5941 84.8507C25.2818 86.8711 29.4325 87.1966 33.9312 85.8242C44.5569 82.5368 55.5275 70.1467 60.8723 59.5854C66.7854 47.9007 71.6257 26.6441 59.4611 19.2904C59.2444 19.1582 59.0891 18.9455 59.0293 18.699C58.9694 18.4524 59.0099 18.1922 59.1418 17.9755C59.2735 17.7692 59.4793 17.6212 59.7168 17.5618C59.9543 17.5024 60.2056 17.5362 60.4189 17.6563C61.3033 18.167 62.4591 18.7829 63.749 19.4915C68.5 22.0736 74.9974 25.6036 77.4016 28.3229C88.8958 41.3545 78.6372 67.9923 67.143 81.4388C60.6807 88.9616 51.0128 96.2035 41.7983 96.2035Z" fill="#414141"/>
<path fill-rule="evenodd" clip-rule="evenodd" d="M73.3366 26.178L59.949 18.4414L59.4797 18.2052L59.0008 17.9595L58.5059 17.7424L71.8902 25.4727L72.3851 25.6897L72.864 25.9355L73.3366 26.178Z" fill="white"/>
<path fill-rule="evenodd" clip-rule="evenodd" d="M73.3374 27.1452C73.1736 27.1388 73.0142 27.0904 72.8744 27.0048L71.5015 26.3409L58.0278 18.5532C57.8146 18.437 57.6559 18.2415 57.586 18.0091C57.5161 17.7767 57.5406 17.5261 57.6542 17.3116C57.7679 17.0953 57.958 16.929 58.1876 16.8452C58.4173 16.7615 58.6699 16.7662 58.8962 16.8584L60.4064 17.6117L73.8163 25.3674C73.9236 25.4278 74.0179 25.5088 74.0938 25.6057C74.1697 25.7027 74.2257 25.8136 74.2587 25.9322C74.2916 26.0508 74.3008 26.1748 74.2857 26.2969C74.2706 26.4191 74.2315 26.5371 74.1707 26.6441C74.0867 26.7923 73.9658 26.9162 73.8199 27.004C73.6739 27.0918 73.5077 27.1404 73.3374 27.1452Z" fill="#414141"/>
<path fill-rule="evenodd" clip-rule="evenodd" d="M73.3348 26.1781C68.3731 23.3216 61.5213 23.7269 53.9224 28.1091C46.3234 32.4912 39.4812 39.9885 34.51 48.5869C29.5387 57.1853 26.4768 66.872 26.4768 75.6236C26.4768 84.3752 29.5419 90.5224 34.51 93.4044C39.478 96.2865 46.3458 95.8556 53.9224 91.4639C61.499 87.0721 68.3731 79.5845 73.3348 70.9957C78.2964 62.4068 81.3679 52.7042 81.3679 43.9494C81.3679 35.1946 78.2964 29.0506 73.3348 26.1781ZM53.9224 14.0497C64.8642 7.71743 74.7716 7.12378 81.9426 11.273C89.1137 15.4221 93.5486 24.279 93.5486 36.9117C93.5486 44.2111 92.0639 51.9732 89.4298 59.6205C90.2325 59.7298 91.006 59.9954 91.7063 60.4025L120.857 77.2418C125.908 80.1462 125.898 89.6542 120.857 98.3835C115.819 107.11 107.575 111.875 102.533 108.97L73.3603 92.1373C72.6613 91.7395 72.0464 91.2094 71.55 90.5766C66.2403 96.6919 60.2442 101.862 53.9096 105.526C42.9678 111.849 33.0604 112.443 25.8893 108.303C18.7182 104.164 14.293 95.2875 14.293 82.6549C14.293 70.0222 18.7278 56.049 25.8989 43.627C33.07 31.205 42.9773 20.3565 53.9192 14.0561L53.9224 14.0497Z" fill="white"/>
<path fill-rule="evenodd" clip-rule="evenodd" d="M66.1826 25.31C62.5907 25.31 58.5805 26.526 54.4043 28.9229C47.2172 33.0721 40.442 40.2311 35.3431 49.072C30.2441 57.913 27.4312 67.3348 27.4312 75.6236C27.4312 83.7337 30.1196 89.7659 34.995 92.5682C39.8705 95.3705 46.4222 94.6939 53.4464 90.6532C60.643 86.504 67.4086 79.3451 72.5076 70.5105C77.6065 61.676 80.4194 52.2509 80.4194 43.9526C80.4194 35.8521 77.7311 29.8102 72.8588 27.0079C70.821 25.8667 68.5183 25.2821 66.1826 25.3131V25.31ZM41.6617 96.1812C38.9886 96.2157 36.355 95.5346 34.034 94.2087C28.5455 91.0586 25.5251 84.4646 25.5251 75.6236C25.5251 67.0061 28.4242 57.2331 33.686 48.0986C38.9478 38.964 45.9752 31.5848 53.4464 27.2824C61.09 22.8587 68.325 22.1757 73.8103 25.3674C79.3083 28.5144 82.3287 35.118 82.3287 43.9494C82.3287 52.5669 79.4297 62.3494 74.1647 71.4808C68.8997 80.6122 61.8755 87.9882 54.4043 92.3001C49.9343 94.8886 45.5856 96.1812 41.6617 96.1812ZM71.6136 9.58136C75.0652 9.53356 78.4668 10.4085 81.4667 12.1155C88.6474 16.2328 92.5937 25.0642 92.5937 36.9181C92.5937 43.9398 91.2304 51.4945 88.526 59.3045C88.4816 59.4381 88.4666 59.5797 88.482 59.7197C88.4975 59.8596 88.543 59.9945 88.6154 60.1152C88.6909 60.233 88.7895 60.3342 88.9053 60.4127C89.0211 60.4911 89.1517 60.5452 89.2891 60.5716C89.978 60.6654 90.6418 60.8931 91.2431 61.2419L120.4 78.0461C122.53 79.2909 123.705 81.9846 123.705 85.6455C123.705 89.4755 122.405 93.8289 120.049 97.9239C115.339 106.056 107.552 110.742 103.018 108.137L73.8614 91.2979C73.2727 90.9581 72.752 90.5122 72.3256 89.983C72.237 89.8742 72.1275 89.7842 72.0036 89.7185C71.8797 89.6527 71.7438 89.6124 71.604 89.6C71.4619 89.6065 71.3225 89.6416 71.1942 89.703C71.0659 89.7644 70.9512 89.8509 70.8569 89.9574C65.4291 96.2004 59.5671 101.186 53.4592 104.684C43.1783 110.636 33.5774 111.61 26.3968 107.464C19.2161 103.318 15.2538 94.5088 15.2538 82.6549C15.2538 70.6222 19.331 56.9076 26.7288 44.0898C34.1266 31.272 43.9701 20.8927 54.4011 14.8827C60.493 11.3719 66.3486 9.58136 71.6104 9.58136H71.6136ZM36.237 111.907C32.4534 111.958 28.7244 111.001 25.4325 109.136C17.6356 104.633 13.3477 95.2397 13.3477 82.6453C13.3477 70.2871 17.4983 56.2246 25.0781 43.1387C32.6579 30.0528 42.7121 19.4309 53.4464 13.2199C64.3308 6.94503 74.6213 5.94603 82.4181 10.4431C90.215 14.9402 94.5094 24.3429 94.5094 36.9341C94.5094 43.8855 93.2323 51.2966 90.678 58.9567C91.2006 59.1126 91.7039 59.3267 92.1786 59.595L121.339 76.4311C124.081 78.0269 125.601 81.3048 125.601 85.6391C125.601 89.8202 124.212 94.5311 121.687 98.8973C116.374 108.105 107.571 113.008 102.057 109.826L72.9003 92.9959C72.4279 92.7293 71.9884 92.4079 71.5912 92.0384C66.2145 98.0643 60.4164 102.919 54.4043 106.401C48.0122 110.046 41.8245 111.907 36.237 111.907Z" fill="#414141"/>
</svg>
