<svg width="188" height="138" viewBox="0 0 188 138" fill="none" xmlns="http://www.w3.org/2000/svg">
<path opacity="0.2" fill-rule="evenodd" clip-rule="evenodd" d="M22.1568 102.07C15.095 102.07 9.36719 104.12 9.36719 106.653C9.36719 109.186 15.095 111.236 22.1568 111.236C29.2186 111.236 34.9505 109.186 34.9505 106.653C34.9505 104.12 29.2227 102.07 22.1568 102.07Z" fill="black"/>
<path fill-rule="evenodd" clip-rule="evenodd" d="M2.84137 76.3345L4.75476 76.8845L3.77097 80.4467L2.89974 80.6801L1.59078 83.6424L0.707031 82.834C1.44905 78.6551 1.27396 79.4176 2.84137 76.3345Z" fill="white"/>
<path fill-rule="evenodd" clip-rule="evenodd" d="M3.05375 75.6385L4.95468 76.1801C5.13963 76.2344 5.29578 76.3592 5.38939 76.5276C5.483 76.696 5.50655 76.8945 5.45494 77.0801V77.1217L4.48362 80.6382C4.45002 80.7603 4.38499 80.8715 4.29503 80.9606C4.20506 81.0498 4.09329 81.1139 3.97085 81.1465L3.43726 81.2923L2.27003 83.9338C2.19147 84.1106 2.04617 84.2492 1.8658 84.3195C1.68542 84.3897 1.4846 84.3858 1.30705 84.3087C1.21682 84.2689 1.13588 84.2108 1.06943 84.1379L0.235687 83.3713C0.145915 83.2884 0.078294 83.1843 0.0389806 83.0686C-0.000332836 82.953 -0.0101093 82.8293 0.0105598 82.7089L0.102285 82.1922C0.253803 81.1176 0.476616 80.0542 0.76927 79.0091C1.01651 78.326 1.32194 77.6652 1.68222 77.0343C1.8323 76.7385 2.01156 76.4009 2.21166 76.0051C2.29007 75.853 2.41928 75.7331 2.57688 75.6661C2.73448 75.5991 2.91055 75.5894 3.07459 75.6385H3.05375ZM3.86248 77.3842L3.21631 77.2009L2.9537 77.7051C2.62868 78.2662 2.34985 78.8528 2.11996 79.4591C1.90779 80.2002 1.74483 80.9546 1.6322 81.7173L2.22 80.3882C2.26196 80.2862 2.32715 80.1955 2.41037 80.1232C2.4936 80.0509 2.59255 79.9989 2.69939 79.9715L3.16629 79.8424L3.86248 77.3842Z" fill="#3C3C3C"/>
<path fill-rule="evenodd" clip-rule="evenodd" d="M33.6793 72.1348L32.1035 73.3555L34.3463 76.2969L35.2425 76.1927L37.5603 78.4509L38.0814 77.3718C35.8345 73.7679 36.2889 74.4137 33.6793 72.1348Z" fill="white"/>
<path fill-rule="evenodd" clip-rule="evenodd" d="M33.6546 73.0764L33.121 73.493L34.6718 75.5304L35.1595 75.4721C35.2737 75.4599 35.3892 75.4743 35.4969 75.514C35.6046 75.5538 35.7017 75.6178 35.7806 75.7012L36.7978 76.697C36.4082 76.029 35.9751 75.3874 35.5013 74.7763C35.0652 74.2973 34.5913 73.8543 34.084 73.4514L33.6671 73.0805L33.6546 73.0764ZM31.662 72.7805L33.2335 71.5598C33.3667 71.4572 33.5314 71.404 33.6994 71.4093C33.8675 71.4146 34.0285 71.4781 34.1548 71.5889L35.0303 72.3431C35.6 72.7956 36.13 73.296 36.6144 73.8388C37.274 74.7001 37.877 75.6034 38.4194 76.5428L38.6987 76.9887C38.7633 77.0928 38.8006 77.2115 38.8072 77.3338C38.8137 77.4561 38.7893 77.5782 38.7362 77.6886L38.2152 78.7677C38.1824 78.839 38.1372 78.9039 38.0818 78.9594C37.945 79.0955 37.7599 79.1719 37.5669 79.1719C37.3739 79.1719 37.1888 79.0955 37.0521 78.9594L34.9677 76.9428L34.4133 77.0053C34.2881 77.0195 34.1614 77.0014 34.0453 76.9525C33.9292 76.9036 33.8277 76.8257 33.7505 76.7262L31.5119 73.7847C31.4077 73.6322 31.3653 73.446 31.3931 73.2635C31.421 73.081 31.517 72.9158 31.662 72.8014V72.7805Z" fill="#3C3C3C"/>
<path fill-rule="evenodd" clip-rule="evenodd" d="M33.899 71.5513C34.0324 71.6763 34.0282 71.5513 34.2241 72.0096C34.42 72.4679 34.1324 73.5887 33.5071 73.8637C33.2558 73.9889 32.9709 74.0306 32.6942 73.9826C32.4175 73.9347 32.1633 73.7996 31.9689 73.597L25.4073 67.8599L25.3073 67.7765C25.1464 67.6209 25.015 67.4374 24.9195 67.2349L19.0625 56.5523L23.6481 54.4358L27.9877 65.56L33.899 71.5513Z" fill="white"/>
<path fill-rule="evenodd" clip-rule="evenodd" d="M33.5811 72.2346C33.5173 72.1944 33.4573 72.1484 33.4019 72.0972L27.4657 66.0642C27.3964 65.9941 27.3425 65.9104 27.3073 65.8184L23.2511 55.4024L20.0704 56.869L25.5522 66.8683C25.5522 66.8683 25.5522 66.9017 25.5814 66.9225C25.6068 66.9803 25.639 67.0349 25.6773 67.085C25.7155 67.139 25.7587 67.1892 25.8065 67.235H25.8357C28.0618 69.064 30.2962 71.1222 32.4723 73.0346C32.5657 73.1327 32.6861 73.2008 32.8183 73.2304C32.9612 73.2498 33.1066 73.225 33.2351 73.1596C33.3695 73.0548 33.4649 72.9082 33.5061 72.7429C33.5697 72.5976 33.5942 72.4382 33.577 72.2805C33.5144 72.1388 33.6562 72.2305 33.602 72.1972L33.5811 72.2346ZM34.3899 71.0306C34.565 71.143 34.665 71.2181 34.8901 71.7305C35.0533 72.2232 35.043 72.7569 34.8609 73.2429C34.7816 73.5205 34.6464 73.7789 34.4636 74.0025C34.2808 74.226 34.0543 74.4099 33.7979 74.5428C33.4161 74.7225 32.9887 74.782 32.5723 74.7136C32.1548 74.637 31.7699 74.4367 31.4676 74.1387L24.9436 68.4307L24.8811 68.3807L24.8144 68.3182C24.6991 68.2089 24.5945 68.0889 24.5017 67.9599C24.4166 67.8384 24.3413 67.7102 24.2766 67.5766L18.4404 56.894C18.3483 56.7255 18.3268 56.5273 18.3807 56.3429C18.4346 56.1586 18.5596 56.0031 18.7281 55.9107H18.7739L23.3595 53.7984C23.446 53.7584 23.5395 53.7359 23.6347 53.732C23.7299 53.7282 23.825 53.7432 23.9144 53.7761C24.0038 53.809 24.0859 53.8591 24.1559 53.9237C24.2259 53.9883 24.2825 54.0661 24.3225 54.1525C24.334 54.1768 24.3437 54.2019 24.3516 54.2276L28.6246 65.1768L34.3899 71.0306Z" fill="#3C3C3C"/>
<path fill-rule="evenodd" clip-rule="evenodd" d="M17.0682 109.466C16.9188 109.4 16.7937 109.289 16.7105 109.149C16.6274 109.009 16.5903 108.846 16.6046 108.684C16.6188 108.521 16.6837 108.368 16.7901 108.244C16.8964 108.12 17.0389 108.033 17.1974 107.995C17.6098 107.831 18.0549 107.765 18.4971 107.803C18.9393 107.842 19.3665 107.983 19.7444 108.216L22.9252 110.432C23.0745 110.498 23.1996 110.608 23.2828 110.748C23.366 110.889 23.403 111.051 23.3887 111.214C23.3745 111.376 23.3096 111.53 23.2033 111.654C23.0969 111.777 22.9544 111.864 22.7959 111.903C22.3842 112.067 21.9398 112.133 21.4983 112.094C21.0567 112.056 20.6302 111.915 20.253 111.682L17.0682 109.466Z" fill="white"/>
<path fill-rule="evenodd" clip-rule="evenodd" d="M16.6582 110.049C16.4281 109.894 16.2334 109.693 16.0871 109.457C15.9344 109.207 15.8643 108.916 15.887 108.624C15.9148 108.328 16.0359 108.047 16.233 107.824C16.4158 107.615 16.642 107.449 16.8958 107.337C17.15 107.22 17.4195 107.14 17.6962 107.099C17.983 107.054 18.2742 107.044 18.5633 107.07C18.8469 107.097 19.1265 107.156 19.397 107.245C19.664 107.331 19.9168 107.456 20.1474 107.616L23.3281 109.832C23.5584 109.988 23.7531 110.191 23.8992 110.428C24.0545 110.68 24.1246 110.975 24.0991 111.27C24.0736 111.565 23.9538 111.844 23.7575 112.065C23.5723 112.273 23.3449 112.44 23.0905 112.553C22.836 112.67 22.5667 112.751 22.2901 112.795C22.003 112.836 21.7121 112.845 21.423 112.82C21.1392 112.794 20.8594 112.735 20.5893 112.645L20.5226 112.62C20.2801 112.536 20.0502 112.419 19.8389 112.274L16.6582 110.057V110.049ZM17.3544 108.737C17.393 108.783 17.4379 108.823 17.4878 108.857L20.6685 111.078C20.7707 111.144 20.8797 111.198 20.9936 111.241H21.0478C21.2138 111.296 21.386 111.331 21.5606 111.345C21.7364 111.366 21.9142 111.366 22.09 111.345C22.2333 111.325 22.3734 111.288 22.5069 111.232C22.5613 111.205 22.613 111.173 22.6611 111.136C22.6219 111.089 22.5754 111.048 22.5236 111.016L19.3429 108.795C19.2265 108.719 19.1002 108.661 18.9677 108.62C18.7994 108.568 18.6261 108.535 18.4507 108.52C18.2749 108.499 18.0972 108.499 17.9213 108.52C17.7779 108.538 17.6376 108.576 17.5044 108.632C17.4489 108.657 17.397 108.689 17.3502 108.728L17.3544 108.737Z" fill="#3C3C3C"/>
<path fill-rule="evenodd" clip-rule="evenodd" d="M16.618 84.2759L16.8639 83.076L16.3595 83.3635C16.4471 83.6635 16.5304 83.9676 16.618 84.2759ZM23.4338 77.7263C23.4327 77.9628 23.4004 78.1982 23.3379 78.4263C23.316 78.5123 23.2895 78.5971 23.2587 78.6804L19.3777 91.1796C19.3126 91.4295 19.2024 91.6653 19.0525 91.8755L18.9983 91.9504L18.7649 92.2587C18.9608 93.1378 19.115 93.9253 19.1817 94.6169V94.7544L20.2531 107.766C20.2659 107.945 20.2225 108.123 20.1291 108.276C20.0357 108.429 19.8969 108.55 19.732 108.62C19.34 108.829 18.9007 108.934 18.4564 108.924C18.0108 108.933 17.5703 108.829 17.1766 108.62C17.0317 108.555 16.9067 108.452 16.8144 108.322C16.7222 108.193 16.6659 108.041 16.6513 107.883L14.9505 95.2419V95.1544L10.5525 83.126C10.5116 83.0339 10.4768 82.9393 10.4483 82.8427C10.3736 82.6023 10.3329 82.3527 10.3274 82.101C10.3232 82.0289 10.3232 81.9566 10.3274 81.8844L10.3649 79.7179L23.513 72.1309L23.4338 77.7263Z" fill="white"/>
<path fill-rule="evenodd" clip-rule="evenodd" d="M17.5763 83.2171L17.3387 84.3837C17.3127 84.5475 17.2316 84.6975 17.1087 84.809C16.9859 84.9206 16.8287 84.9869 16.663 84.9971C16.4974 85.0073 16.3332 84.9607 16.1976 84.8651C16.062 84.7695 15.9631 84.6305 15.9172 84.4711L15.6587 83.5587C15.6137 83.402 15.6226 83.2349 15.6838 83.0839C15.745 82.9328 15.855 82.8066 15.9964 82.7254L16.5008 82.4379C16.6539 82.3474 16.8354 82.3176 17.0094 82.3546C17.1935 82.3929 17.3556 82.5012 17.4614 82.6567C17.5672 82.8122 17.6084 83.0027 17.5763 83.1879V83.2171ZM22.708 77.7175L22.7872 73.3677L11.1148 80.1089L11.0815 81.888C11.0815 81.9297 11.0815 81.9713 11.0815 82.013C11.0857 82.0448 11.0857 82.077 11.0815 82.1088C11.0815 82.1796 11.0815 82.2588 11.1065 82.338C11.1224 82.4293 11.1433 82.5197 11.169 82.6088L11.219 82.7421L11.2482 82.8171L15.6629 94.8996C15.6798 94.947 15.6923 94.9958 15.7004 95.0454C16.309 99.2785 16.8426 103.536 17.4096 107.774C17.4096 107.799 17.4096 107.824 17.4096 107.849C17.454 107.904 17.5093 107.949 17.5721 107.982C17.6948 108.048 17.825 108.098 17.9599 108.132C18.3063 108.204 18.6639 108.204 19.0104 108.132C19.1452 108.098 19.2754 108.048 19.398 107.982C19.4593 107.949 19.5144 107.905 19.5606 107.853V107.799L18.4893 94.7829C18.4893 94.7496 18.4893 94.7163 18.4893 94.6829C18.4476 94.3705 18.3892 94.0121 18.3184 93.6205C18.2475 93.2289 18.16 92.8164 18.0641 92.3706C18.0398 92.2635 18.0403 92.1523 18.0656 92.0454C18.0909 91.9385 18.1403 91.8388 18.21 91.754L18.4268 91.4623L18.4809 91.3915C18.5261 91.3272 18.5651 91.2588 18.5977 91.1873C18.6318 91.1101 18.6611 91.0308 18.6852 90.9499L22.5705 78.4507L22.5955 78.3841V78.3174L22.6246 78.2216C22.6461 78.1379 22.6629 78.053 22.6747 77.9674C22.6804 77.8814 22.6804 77.7951 22.6747 77.7091L22.708 77.7175ZM24.263 72.1095C24.2646 72.0143 24.2475 71.9197 24.2125 71.8311C24.1776 71.7425 24.1256 71.6617 24.0594 71.5932C23.9932 71.5247 23.9141 71.4699 23.8267 71.432C23.7394 71.394 23.6454 71.3736 23.5501 71.372C23.4173 71.369 23.2862 71.4022 23.1708 71.4679L10.0268 79.0507C9.91256 79.1165 9.81843 79.2121 9.75453 79.3274C9.69063 79.4426 9.65937 79.5731 9.66411 79.7048L9.62658 81.788V82.0504C9.62447 82.0698 9.62447 82.0894 9.62658 82.1088C9.62993 82.2568 9.64388 82.4044 9.66828 82.5504C9.69544 82.7052 9.73163 82.8582 9.77667 83.0087C9.80168 83.0921 9.82251 83.1545 9.83501 83.192V83.2296C9.85169 83.2768 9.86836 83.3184 9.88503 83.3545L14.2622 95.2996L15.9547 107.882C15.9655 108.166 16.0614 108.44 16.2298 108.669C16.3957 108.893 16.6074 109.08 16.851 109.215C17.0965 109.352 17.3604 109.453 17.6347 109.515C18.1988 109.654 18.7881 109.654 19.3522 109.515C19.6264 109.453 19.8904 109.352 20.1359 109.215C20.4133 109.059 20.6481 108.837 20.8196 108.569C20.9907 108.3 21.0602 107.978 21.0155 107.661L19.9441 94.6621V94.4913C19.8941 94.1288 19.8358 93.7455 19.7607 93.3455C19.7024 93.0456 19.6398 92.7289 19.5648 92.3956L19.594 92.3539L19.6815 92.2414C19.7744 92.1093 19.8567 91.97 19.9275 91.8248C20.0004 91.6708 20.059 91.5104 20.1026 91.3457L23.9711 78.8965C23.9711 78.859 24.0003 78.8173 24.0128 78.7715L24.0628 78.609C24.1004 78.472 24.1296 78.3329 24.1504 78.1924C24.1707 78.0475 24.1805 77.9013 24.1796 77.7549L24.263 72.1095Z" fill="#3C3C3C"/>
<path fill-rule="evenodd" clip-rule="evenodd" d="M8.67701 101.341C8.55834 101.231 8.47693 101.086 8.44403 100.927C8.41112 100.769 8.42832 100.603 8.49329 100.455C8.55825 100.306 8.66776 100.182 8.8067 100.098C8.94564 100.014 9.10715 99.9754 9.26897 99.9873C9.71244 99.9567 10.1566 100.037 10.5613 100.221C10.9711 100.392 11.331 100.665 11.6076 101.012L13.9087 104.137C14.0283 104.247 14.1105 104.391 14.1439 104.55C14.1773 104.709 14.1602 104.875 14.095 105.023C14.0298 105.172 13.9198 105.297 13.7802 105.38C13.6407 105.463 13.4787 105.5 13.3168 105.487C12.8733 105.511 12.4303 105.431 12.0234 105.253C11.6165 105.075 11.257 104.804 10.974 104.462L8.67701 101.341Z" fill="white"/>
<path fill-rule="evenodd" clip-rule="evenodd" d="M8.08922 101.77C7.9224 101.549 7.8032 101.295 7.73907 101.025C7.67384 100.735 7.70299 100.433 7.82227 100.162C7.94155 99.8901 8.14467 99.664 8.40188 99.5164C8.64362 99.3778 8.91229 99.2925 9.18976 99.2664C9.468 99.2377 9.74896 99.2504 10.0235 99.3039C10.3099 99.3557 10.5896 99.4396 10.8572 99.5539C11.1218 99.6649 11.3735 99.8046 11.6076 99.9705C11.832 100.139 12.0314 100.338 12.1996 100.562L14.4965 103.687C14.6649 103.908 14.7843 104.162 14.8467 104.433C14.9116 104.721 14.8839 105.023 14.7675 105.295C14.6451 105.566 14.441 105.792 14.1838 105.941C13.9428 106.078 13.6759 106.163 13.4001 106.191C13.1218 106.217 12.8412 106.205 12.5664 106.153C11.995 106.047 11.4558 105.81 10.9906 105.462C10.764 105.295 10.5631 105.096 10.3945 104.87L8.09757 101.75L8.08922 101.77ZM9.1731 100.754C9.1963 100.809 9.22716 100.861 9.2648 100.908L11.5617 104.033C11.6465 104.143 11.7461 104.241 11.8577 104.324C11.9983 104.43 12.1508 104.518 12.3121 104.587C12.473 104.66 12.6425 104.714 12.8165 104.745C12.9549 104.764 13.095 104.764 13.2334 104.745C13.2934 104.739 13.3522 104.725 13.4085 104.704C13.3889 104.646 13.3593 104.592 13.3209 104.545L11.024 101.425C10.9388 101.313 10.8376 101.215 10.7238 101.133C10.5834 101.027 10.4309 100.937 10.2695 100.866C10.1096 100.795 9.94162 100.743 9.76922 100.712C9.63114 100.69 9.49042 100.69 9.35235 100.712C9.29206 100.716 9.23288 100.73 9.17727 100.754H9.1731Z" fill="#3C3C3C"/>
<path fill-rule="evenodd" clip-rule="evenodd" d="M10.117 101.241C9.70425 101.072 9.3423 100.799 9.06645 100.449C8.9586 100.332 8.88429 100.187 8.8513 100.031C8.8183 99.8751 8.82782 99.713 8.87885 99.5619C8.90747 99.4996 8.94543 99.4419 8.99142 99.391L13.8396 92.0291L14.9735 95.133V95.2205L15.232 96.9371L12.1763 101.012C12.0992 101.151 11.9864 101.267 11.8493 101.349C11.7123 101.43 11.5561 101.473 11.3968 101.474C10.9572 101.507 10.5166 101.427 10.117 101.241Z" fill="white"/>
<path fill-rule="evenodd" clip-rule="evenodd" d="M9.82387 101.908C9.55806 101.799 9.30616 101.659 9.07351 101.491C8.8481 101.324 8.64861 101.125 8.48153 100.899C8.31311 100.678 8.19374 100.424 8.13137 100.154C8.06443 99.8651 8.0922 99.5626 8.21058 99.2911C8.24277 99.2237 8.27897 99.1583 8.31897 99.0953C8.34932 99.0487 8.38274 99.0042 8.41902 98.962L13.2297 91.65C13.3039 91.5376 13.4079 91.4481 13.53 91.3915C13.6522 91.3349 13.7877 91.3134 13.9214 91.3294C14.0551 91.3454 14.1817 91.3983 14.2871 91.4821C14.3924 91.566 14.4723 91.6775 14.5179 91.8041L15.6517 94.9081C15.6686 94.9555 15.6812 95.0043 15.6893 95.0539V95.1372L15.9477 96.8538C15.9621 96.9576 15.9543 97.0632 15.9248 97.1637C15.8953 97.2643 15.8449 97.3574 15.7768 97.4371L12.7962 101.408C12.6724 101.643 12.4845 101.838 12.2542 101.97C12.014 102.109 11.7467 102.194 11.4705 102.22C11.1922 102.247 10.9116 102.234 10.6368 102.183C10.3496 102.132 10.0696 102.047 9.80304 101.928L9.82387 101.908ZM9.94893 100.312C10.234 100.519 10.5614 100.662 10.9077 100.729C11.0461 100.747 11.1862 100.747 11.3246 100.729C11.396 100.723 11.4655 100.703 11.5289 100.67C11.5499 100.628 11.575 100.587 11.6039 100.549L14.472 96.7205L14.2594 95.2997L13.6466 93.6332L9.61126 99.7453C9.59046 99.7805 9.56676 99.814 9.5404 99.8453C9.56451 99.9076 9.59674 99.9664 9.63628 100.02C9.72104 100.131 9.82065 100.229 9.93226 100.312H9.94893ZM11.5205 100.729C11.5205 100.729 11.5164 100.737 11.5205 100.716V100.729Z" fill="#3C3C3C"/>
<path fill-rule="evenodd" clip-rule="evenodd" d="M24.006 74.3555V55.2358C23.8101 53.4776 21.2255 51.9902 20.0916 52.6443L12.1252 57.2274C11.2623 57.7107 10.1659 58.7398 10.1367 59.9523V80.4593C10.1742 82.1009 13.0548 82.1592 14.0511 81.5801L17.0526 79.8511L22.8179 76.5179C23.5766 76.0971 24.006 75.7179 24.006 74.3555Z" fill="#F9FAFE"/>
<path fill-rule="evenodd" clip-rule="evenodd" d="M23.2754 74.3551V55.2689C23.244 55.0669 23.1732 54.8729 23.0669 54.6982C22.7798 54.2323 22.3779 53.8479 21.8997 53.5815C21.5277 53.34 21.0926 53.2139 20.6491 53.2191C20.5837 53.2252 20.5201 53.2436 20.4615 53.2732H20.4198L12.4993 57.8562C12.0254 58.1205 11.6122 58.481 11.2862 58.9145C11.0447 59.213 10.8994 59.5776 10.8693 59.9603V79.5423V80.463C10.8747 80.5291 10.8946 80.5931 10.9277 80.6505C11.0611 80.8309 11.2524 80.9603 11.4696 81.0171C11.821 81.1289 12.189 81.1796 12.5576 81.1671C12.9483 81.1748 13.3357 81.0951 13.6915 80.9338L22.4458 75.8717C22.6897 75.755 22.9026 75.5822 23.0669 75.3676C23.2273 75.0437 23.2951 74.6818 23.2628 74.3218L23.2754 74.3551ZM24.7344 55.2356V74.3551C24.7765 74.9897 24.6315 75.6227 24.3175 76.1758C24.0324 76.5967 23.6432 76.9369 23.1878 77.1632L14.4335 82.2212C13.865 82.5025 13.2378 82.6453 12.6035 82.6379C12.0653 82.6561 11.528 82.5814 11.0152 82.417C10.4627 82.2517 9.98971 81.8901 9.68539 81.4005C9.54029 81.1451 9.4548 80.8602 9.43528 80.5672C9.43303 80.5353 9.43303 80.5033 9.43528 80.4714V79.5798V59.952C9.46624 59.2719 9.70481 58.6176 10.1189 58.0771C10.567 57.4769 11.1348 56.9761 11.7864 56.6063L19.7069 52.0233L19.7445 51.9983C19.9791 51.869 20.2369 51.7869 20.5032 51.7567C21.2567 51.7187 22.0039 51.9106 22.6459 52.3067C23.3465 52.7071 23.9322 53.281 24.3467 53.9732C24.5599 54.3179 24.7017 54.7018 24.7636 55.1023C24.7578 55.1475 24.7481 55.1921 24.7344 55.2356Z" fill="#3C3C3C"/>
<path fill-rule="evenodd" clip-rule="evenodd" d="M18.565 81.2548C18.6473 81.1959 18.7411 81.1548 18.8402 81.1342C18.9394 81.1137 19.0418 81.1141 19.1408 81.1355C19.2398 81.1569 19.3332 81.1988 19.415 81.2585C19.4968 81.3182 19.5652 81.3943 19.6158 81.482C19.6664 81.5697 19.6981 81.6669 19.7088 81.7676C19.7195 81.8683 19.7089 81.97 19.6779 82.0664C19.6468 82.1627 19.5959 82.2515 19.5285 82.327C19.461 82.4025 19.3785 82.4631 19.2862 82.5048L17.2018 83.7005L17.6187 85.0921C18.5608 88.3961 19.6322 92.1375 19.9323 94.4957C19.9566 94.6868 19.904 94.8799 19.7859 95.0323C19.6679 95.1846 19.4941 95.2839 19.3028 95.3082C19.1116 95.3325 18.9185 95.2798 18.766 95.1618C18.6136 95.0439 18.5143 94.8702 18.4899 94.679C18.2065 92.4583 17.1518 88.7585 16.218 85.5129C16.0512 84.9296 15.8887 84.3588 15.6677 83.5713C15.622 83.4147 15.6304 83.2473 15.6917 83.096C15.753 82.9448 15.8635 82.8187 16.0054 82.738L18.565 81.2548Z" fill="#3C3C3C"/>
<path fill-rule="evenodd" clip-rule="evenodd" d="M15.6421 53.2941C16.0537 53.5047 16.5095 53.6145 16.9719 53.6145C17.4343 53.6145 17.8901 53.5047 18.3017 53.2941C19.0395 52.8775 19.0395 52.1817 18.3017 51.7609C17.8901 51.5503 17.4343 51.4404 16.9719 51.4404C16.5095 51.4404 16.0537 51.5503 15.6421 51.7609C14.9084 52.1859 14.9084 52.8692 15.6421 53.2941Z" fill="white"/>
<path fill-rule="evenodd" clip-rule="evenodd" d="M16.0058 52.6653C16.3074 52.8107 16.638 52.8862 16.9729 52.8862C17.3078 52.8862 17.6384 52.8107 17.94 52.6653C17.9609 52.6705 17.9827 52.6708 18.0038 52.6663C18.0248 52.6618 18.0445 52.6526 18.0615 52.6394C18.0784 52.6261 18.0921 52.6092 18.1016 52.5899C18.111 52.5705 18.1159 52.5493 18.1159 52.5278C18.1159 52.5063 18.111 52.4851 18.1016 52.4657C18.0921 52.4464 18.0784 52.4294 18.0615 52.4162C18.0445 52.4029 18.0248 52.3937 18.0038 52.3892C17.9827 52.3847 17.9609 52.3851 17.94 52.3903H17.9108C17.6121 52.253 17.2871 52.1819 16.9583 52.1819C16.6295 52.1819 16.3045 52.253 16.0058 52.3903C15.9401 52.426 15.8809 52.4725 15.8307 52.5278C15.8798 52.5843 15.9392 52.6309 16.0058 52.6653ZM16.9729 54.3318C16.3822 54.3409 15.7993 54.1974 15.2804 53.9152C14.9845 53.7523 14.736 53.5154 14.5592 53.2277C14.4328 53.0144 14.3653 52.7715 14.3633 52.5236C14.3637 52.2956 14.4195 52.0712 14.5258 51.8695C14.5339 51.8506 14.5437 51.8325 14.555 51.8153C14.729 51.5268 14.9764 51.2896 15.2721 51.1279C15.7913 50.8466 16.374 50.7031 16.9646 50.7112C17.5438 50.701 18.1167 50.8342 18.632 51.0987L18.6821 51.1279C18.9777 51.2896 19.2251 51.5268 19.3991 51.8153C19.5273 52.0294 19.595 52.2741 19.595 52.5236C19.595 52.7731 19.5273 53.0179 19.3991 53.2319C19.224 53.5196 18.9769 53.7565 18.6821 53.9194C18.1582 54.2047 17.5694 54.3497 16.9729 54.3401V54.3318Z" fill="#3C3C3C"/>
<path fill-rule="evenodd" clip-rule="evenodd" d="M15.0895 52.5278H18.8413L19.1164 56.1027C19.1185 56.1402 19.1185 56.1777 19.1164 56.2151C19.0988 56.4054 19.0308 56.5875 18.9195 56.7428C18.8081 56.898 18.6574 57.0208 18.4827 57.0985C18.0079 57.339 17.4831 57.4643 16.9508 57.4643C16.4184 57.4643 15.8936 57.339 15.4188 57.0985C15.2431 57.0218 15.0913 56.8993 14.9791 56.7439C14.8669 56.5886 14.7985 56.4059 14.781 56.2151C14.7787 56.1791 14.7787 56.1429 14.781 56.1069L15.0895 52.5278Z" fill="white"/>
<path fill-rule="evenodd" clip-rule="evenodd" d="M15.0927 51.7983H19.5282L19.8533 56.0189V56.1065C19.8533 56.1481 19.8533 56.1856 19.8533 56.2147C19.8515 56.539 19.7464 56.8542 19.5532 57.1147C19.3671 57.3647 19.1298 57.5721 18.857 57.723C18.2726 58.0296 17.6224 58.1898 16.9623 58.1898C16.3023 58.1898 15.6521 58.0296 15.0677 57.723C14.7949 57.5721 14.5576 57.3647 14.3715 57.1147C14.1783 56.8542 14.0731 56.539 14.0714 56.2147C14.0674 56.1495 14.0674 56.0841 14.0714 56.0189L14.3965 51.7983H15.0927ZM18.1817 53.2566H15.7638L15.5429 56.1731V56.2314C15.5493 56.2511 15.5592 56.2694 15.5721 56.2856C15.6393 56.3669 15.7213 56.4348 15.8139 56.4856C16.1749 56.6691 16.5762 56.7593 16.9811 56.7481C17.3865 56.76 17.7883 56.6682 18.1483 56.4814C18.2426 56.4333 18.3252 56.365 18.3901 56.2814C18.403 56.2652 18.4128 56.2469 18.4193 56.2272V56.1689L18.1942 53.2524L18.1817 53.2566Z" fill="#3C3C3C"/>
<path fill-rule="evenodd" clip-rule="evenodd" d="M17.3255 44.1992H16.6168C16.1889 44.1942 15.7644 44.2747 15.3681 44.4361C14.9719 44.5974 14.6118 44.8363 14.3093 45.1387C14.0067 45.4411 13.7677 45.8009 13.6063 46.1969C13.4449 46.593 13.3643 47.0173 13.3694 47.4449L13.5361 51.4072C13.5521 52.2629 13.8994 53.0792 14.505 53.6845C15.1106 54.2897 15.9273 54.6367 16.7835 54.6528H17.1379C17.9929 54.6317 18.8071 54.2831 19.4123 53.6791C20.0174 53.075 20.3673 52.2617 20.3894 51.4072L20.5729 47.4449C20.5785 47.0171 20.4983 46.5926 20.3371 46.1962C20.1759 45.7999 19.9369 45.4399 19.6342 45.1374C19.3315 44.8349 18.9713 44.5961 18.5748 44.4349C18.1783 44.2738 17.7535 44.1936 17.3255 44.1992Z" fill="white"/>
<path fill-rule="evenodd" clip-rule="evenodd" d="M17.3294 44.9282H16.4956C15.8543 44.9562 15.2463 45.2221 14.7906 45.674C14.5697 45.8878 14.3936 46.1434 14.2726 46.426C14.1516 46.7086 14.0882 47.0124 14.0861 47.3197V47.4156L14.2487 51.3778C14.276 52.0635 14.5585 52.7143 15.0408 53.2027C15.2669 53.4315 15.5363 53.6131 15.8333 53.7368C16.1303 53.8606 16.449 53.924 16.7708 53.9235H17.1251C17.4463 53.9244 17.7645 53.8611 18.0609 53.7373C18.3572 53.6136 18.6259 53.4318 18.8509 53.2027C19.3354 52.7136 19.6194 52.0613 19.6472 51.3736L19.8348 47.4114V47.3073C19.8326 47.0018 19.7692 46.6998 19.6482 46.4193C19.5272 46.1387 19.351 45.8853 19.1303 45.674C18.6753 45.226 18.0715 44.9606 17.4336 44.9282H17.3294ZM16.6207 43.47H17.3294H17.5128C18.511 43.5173 19.4566 43.9313 20.1683 44.6324C20.5263 44.9788 20.8117 45.393 21.0078 45.8508C21.2039 46.3086 21.3068 46.8009 21.3105 47.2989C21.3105 47.3239 21.3105 47.3822 21.3105 47.4697L21.1271 51.4278C21.0827 52.4796 20.6489 53.4775 19.9098 54.2277C19.5482 54.5912 19.1182 54.8797 18.6446 55.0763C18.1709 55.273 17.663 55.374 17.1501 55.3734H16.7958C16.2826 55.3736 15.7744 55.2721 15.3007 55.0747C14.827 54.8773 14.3972 54.588 14.0361 54.2235C13.293 53.4781 12.8597 52.4794 12.823 51.4278L12.6562 47.4656V47.3114C12.6583 46.8113 12.7604 46.3167 12.9565 45.8566C13.1527 45.3965 13.439 44.9803 13.7985 44.6324C14.5146 43.9273 15.4664 43.5118 16.4706 43.4658L16.6207 43.47Z" fill="#3C3C3C"/>
<path fill-rule="evenodd" clip-rule="evenodd" d="M17.3255 44.1992H16.6168C16.1889 44.1942 15.7644 44.2747 15.3681 44.436C14.9719 44.5973 14.6118 44.8362 14.3093 45.1386C14.0067 45.441 13.7677 45.8008 13.6063 46.1969C13.4449 46.5929 13.3643 47.0172 13.3694 47.4449L13.5361 51.4071C14.0742 51.0795 14.52 50.6204 14.8315 50.073C15.1429 49.5255 15.3097 48.9078 15.3161 48.2781C18.03 48.5989 18.9262 48.4489 20.4686 46.5282C20.2657 45.8534 19.85 45.2621 19.2837 44.8425C18.7173 44.4228 18.0305 44.1972 17.3255 44.1992Z" fill="white"/>
<path fill-rule="evenodd" clip-rule="evenodd" d="M17.3268 44.9282H16.4931C15.8517 44.9562 15.2438 45.2221 14.788 45.674C14.5671 45.8878 14.391 46.1434 14.27 46.426C14.149 46.7085 14.0856 47.0124 14.0835 47.3197V47.4155L14.1794 49.7237C14.4373 49.278 14.5725 48.772 14.5713 48.2571C14.574 48.1619 14.5954 48.0682 14.6344 47.9813C14.6734 47.8944 14.7291 47.8159 14.7984 47.7505C14.8677 47.6851 14.9492 47.634 15.0383 47.6001C15.1273 47.5663 15.2222 47.5503 15.3175 47.5531H15.38C16.6306 47.6989 17.4644 47.7405 18.1022 47.5531C18.7123 47.3166 19.2428 46.9121 19.6321 46.3864C19.4548 46.0114 19.1869 45.6864 18.8526 45.4407C18.4052 45.1124 17.8651 44.9344 17.3101 44.9324L17.3268 44.9282ZM16.6181 43.47H17.3268C18.1947 43.4735 19.0388 43.7538 19.7363 44.2699C20.4237 44.7756 20.9261 45.4928 21.1662 46.3115C21.2018 46.4259 21.2087 46.5474 21.1861 46.6651C21.1636 46.7828 21.1124 46.8932 21.037 46.9864C20.1699 48.0614 19.4654 48.653 18.5357 48.9363C17.6927 49.1579 16.8134 49.2062 15.9511 49.078C15.8605 49.5805 15.6782 50.062 15.4133 50.4987C15.0341 51.0953 14.5343 51.6062 13.946 51.9986C13.8314 52.0808 13.6951 52.1272 13.5541 52.1319C13.4588 52.1358 13.3637 52.1209 13.2742 52.088C13.1847 52.0552 13.1026 52.005 13.0325 51.9404C12.9624 51.8757 12.9058 51.7979 12.8658 51.7114C12.8258 51.6249 12.8033 51.5313 12.7996 51.4361L12.6328 47.4739V47.3197C12.6348 46.8196 12.7369 46.325 12.9331 45.8649C13.1293 45.4048 13.4155 44.9886 13.775 44.6408C14.4912 43.9356 15.443 43.5201 16.4472 43.4741L16.6181 43.47Z" fill="#3C3C3C"/>
<path fill-rule="evenodd" clip-rule="evenodd" d="M12.527 63.4143V59.9854L10.3634 59.0896C8.75016 62.0061 6.98265 64.8101 5.06088 67.6849C4.92382 67.8619 4.82705 68.0667 4.77738 68.2849L2.69303 75.9135C2.64294 76.0736 2.62488 76.242 2.63988 76.409C2.65488 76.576 2.70265 76.7384 2.78046 76.8869C2.85827 77.0355 2.9646 77.1673 3.09337 77.2748C3.22213 77.3823 3.37082 77.4634 3.53095 77.5135C3.69107 77.5635 3.85951 77.5816 4.02662 77.5666C4.19372 77.5516 4.35623 77.5039 4.50488 77.4261C4.65353 77.3483 4.78539 77.2421 4.89295 77.1134C5.0005 76.9847 5.08165 76.8361 5.13174 76.676L7.70382 69.4431L12.527 63.4143Z" fill="#F9FAFE"/>
<path fill-rule="evenodd" clip-rule="evenodd" d="M9.70164 58.7398C9.73907 58.6427 9.79699 58.5548 9.87145 58.482C9.94591 58.4092 10.0352 58.3533 10.1332 58.3181C10.2312 58.2829 10.3356 58.2692 10.4394 58.2779C10.5432 58.2867 10.6438 58.3176 10.7346 58.3687C10.8253 58.4198 10.904 58.4898 10.9652 58.574C11.0265 58.6582 11.0688 58.7545 11.0895 58.8565C11.1102 58.9585 11.1086 59.0638 11.0849 59.1652C11.0612 59.2665 11.016 59.3616 10.9523 59.4439C10.1435 60.9021 9.28477 62.3604 8.401 63.7811C7.51723 65.2019 6.58345 66.6518 5.62047 68.0892L5.59546 68.1267C5.55724 68.1739 5.52504 68.2257 5.49959 68.2809C5.47269 68.3335 5.45305 68.3896 5.44122 68.4475C4.68669 70.9474 4.0322 73.5972 3.35686 76.1345C3.35413 76.1706 3.35413 76.2068 3.35686 76.2428C3.35269 76.2788 3.35269 76.3152 3.35686 76.3512C3.36999 76.4971 3.44043 76.632 3.55278 76.7262C3.61048 76.7736 3.67708 76.8091 3.74865 76.8305C3.82022 76.852 3.89534 76.859 3.96965 76.8511C4.07641 76.8393 4.17761 76.7974 4.26147 76.7303C4.34501 76.66 4.40712 76.5676 4.44072 76.4637V76.4345L7.05451 69.0849L11.9736 62.9604C12.0941 62.8101 12.2694 62.7138 12.461 62.6927C12.6525 62.6716 12.8446 62.7274 12.9949 62.8479C13.1453 62.9683 13.2416 63.1435 13.2627 63.3349C13.2838 63.5264 13.228 63.7184 13.1075 63.8687L8.34681 69.8016L5.81224 76.9178C5.67199 77.3564 5.38458 77.7332 4.99855 77.9846C4.61253 78.236 4.15153 78.3465 3.69341 78.2976C3.23529 78.2486 2.80812 78.0431 2.48401 77.7158C2.15991 77.3885 1.95874 76.9595 1.91448 76.5012C1.9009 76.3626 1.9009 76.2231 1.91448 76.0845C1.92579 75.9428 1.95378 75.803 1.99786 75.6679L4.08222 68.0975C4.12004 67.94 4.17309 67.7865 4.24063 67.6392C4.30956 67.4922 4.39336 67.3526 4.49074 67.2226C5.44121 65.7977 6.35279 64.3866 7.22545 62.9895C8.06336 61.6063 8.90125 60.1855 9.70164 58.7398Z" fill="#3C3C3C"/>
<path fill-rule="evenodd" clip-rule="evenodd" d="M92.125 86.5075C92.125 86.6845 92.0546 86.8543 91.9294 86.9795C91.8041 87.1047 91.6342 87.1751 91.457 87.1751C91.2799 87.1751 91.11 87.1047 90.9847 86.9795C90.8594 86.8543 90.7891 86.6845 90.7891 86.5075C90.7891 81.2126 90.0212 74.786 88.8926 68.1329C87.5182 60.1216 85.5642 51.8149 83.614 44.782C83.5762 44.6137 83.6046 44.4372 83.6933 44.2893C83.7821 44.1413 83.9244 44.0332 84.0908 43.9873C84.2571 43.9414 84.4348 43.9613 84.5869 44.0428C84.7391 44.1243 84.8539 44.2612 84.9078 44.4251C86.8695 51.5079 88.835 59.8645 90.2132 67.9103C91.3649 74.6133 92.1135 81.1167 92.1327 86.5075H92.125ZM99.2578 90.6205C99.2578 90.7986 99.187 90.9694 99.061 91.0953C98.935 91.2212 98.7641 91.292 98.586 91.292C98.4078 91.292 98.2369 91.2212 98.1109 91.0953C97.9849 90.9694 97.9141 90.7986 97.9141 90.6205C97.9561 84.6197 98.5706 78.6366 99.7492 72.7524C100.857 66.9382 102.528 61.2456 104.74 55.7553C104.815 55.6017 104.945 55.4825 105.105 55.4218C105.265 55.361 105.442 55.3635 105.6 55.4285C105.758 55.4935 105.885 55.6163 105.955 55.7718C106.026 55.9273 106.035 56.1039 105.98 56.2656C103.794 61.6728 102.143 67.2808 101.051 73.0095C99.9002 78.8102 99.3051 84.7071 99.2731 90.6205H99.2578Z" fill="#3C3C3C"/>
<path fill-rule="evenodd" clip-rule="evenodd" d="M101.817 53.8753C101.959 54.6506 102.254 55.39 102.684 56.0508C103.022 56.6333 103.498 57.1235 104.07 57.4781C104.204 57.5617 104.358 57.6044 104.516 57.6008C104.54 57.5966 104.564 57.5875 104.585 57.574C104.618 57.5441 104.644 57.5074 104.662 57.4665C104.802 57.099 104.826 56.6972 104.731 56.3155L104.109 52.5094C103.965 51.7343 103.671 50.995 103.241 50.334C102.902 49.7522 102.425 49.2633 101.851 48.9105C101.72 48.8235 101.564 48.7793 101.406 48.7839C101.382 48.7885 101.36 48.7991 101.341 48.8146C101.305 48.8408 101.277 48.8767 101.26 48.9182C101.12 49.2857 101.096 49.6875 101.191 50.0692L101.817 53.8792V53.8753ZM101.556 56.7683C101.027 55.9526 100.667 55.0394 100.496 54.0825L99.8706 50.2687C99.725 49.604 99.7963 48.9102 100.074 48.289C100.183 48.0762 100.338 47.8901 100.527 47.7441C100.722 47.5967 100.95 47.4993 101.191 47.4602C101.637 47.404 102.089 47.4956 102.477 47.7211C103.255 48.1849 103.906 48.8349 104.37 49.6127C104.894 50.4307 105.254 51.3429 105.429 52.2984L106.055 56.1045C106.2 56.7721 106.127 57.4686 105.848 58.0919C105.739 58.3047 105.584 58.4908 105.395 58.6368C105.201 58.7857 104.972 58.8834 104.731 58.9207C104.287 58.9787 103.836 58.8883 103.448 58.6636C102.669 58.1994 102.019 57.5479 101.556 56.7683Z" fill="#3C3C3C"/>
<path fill-rule="evenodd" clip-rule="evenodd" d="M97.7089 52.4249C97.8521 53.2001 98.1469 53.9394 98.5765 54.6005C98.9152 55.1822 99.3926 55.6712 99.9662 56.0239C100.096 56.1112 100.251 56.1543 100.408 56.1467C100.433 56.1442 100.457 56.1349 100.477 56.1198C100.51 56.0908 100.537 56.0556 100.557 56.0162C100.697 55.6483 100.719 55.2465 100.623 54.8652L99.6168 48.7262C99.4736 47.9499 99.1787 47.2094 98.7492 46.5469C98.412 45.9676 97.9374 45.48 97.3672 45.1273C97.2349 45.0416 97.0794 44.9988 96.9219 45.0045C96.898 45.0071 96.8754 45.0164 96.8566 45.0313C96.8242 45.0612 96.797 45.0962 96.776 45.1349C96.6371 45.5028 96.613 45.9041 96.7069 46.286L97.7127 52.4249H97.7089ZM97.4516 55.3179C96.924 54.5012 96.5627 53.5886 96.3883 52.6321L95.3825 46.4932C95.2366 45.8272 95.3079 45.1321 95.5859 44.5095C95.6951 44.2969 95.8497 44.1109 96.0389 43.9647C96.2324 43.8149 96.4611 43.7172 96.7031 43.6808C97.1472 43.6226 97.598 43.7129 97.9853 43.9378C98.7652 44.3977 99.4161 45.047 99.8778 45.8256C100.405 46.6425 100.766 47.5551 100.941 48.5114L101.947 54.6503C102.091 55.318 102.019 56.0143 101.74 56.6378C101.631 56.8495 101.476 57.0343 101.287 57.1788C101.093 57.329 100.865 57.4279 100.623 57.4666C100.178 57.5211 99.7281 57.4295 99.3404 57.2057C98.5631 56.7438 97.9138 56.0948 97.4516 55.3179Z" fill="#3C3C3C"/>
<path fill-rule="evenodd" clip-rule="evenodd" d="M93.6123 51.0437C93.7556 51.8189 94.0504 52.5582 94.4799 53.2192C94.8185 53.7998 95.2943 54.2886 95.8658 54.6427C95.9973 54.73 96.1534 54.773 96.3111 54.7654C96.335 54.7628 96.3576 54.7536 96.3763 54.7386C96.4117 54.7116 96.4395 54.6759 96.457 54.635C96.5959 54.2671 96.62 53.8658 96.5261 53.484L95.1402 45.0161C94.9934 44.2421 94.6988 43.5034 94.2726 42.8406C93.9327 42.2588 93.4556 41.7688 92.8829 41.4134C92.7485 41.3292 92.5923 41.2864 92.4338 41.2906C92.411 41.293 92.3896 41.3024 92.3723 41.3174C92.337 41.3444 92.3092 41.3801 92.2917 41.421C92.1511 41.7886 92.127 42.1904 92.2226 42.5721L93.6123 51.0476V51.0437ZM93.3512 53.9367C92.8232 53.1206 92.463 52.2076 92.2917 51.251L90.902 42.7754C90.7561 42.1094 90.8275 41.4143 91.1055 40.7918C91.2157 40.5809 91.3702 40.3964 91.5585 40.2508C91.7516 40.1004 91.9804 40.0026 92.2226 39.9669C92.6684 39.9089 93.1208 40.0007 93.5087 40.2278C94.2868 40.6916 94.9372 41.3416 95.4013 42.1193C95.9262 42.937 96.2861 43.8494 96.4608 44.8051L97.8467 53.273C97.992 53.9402 97.9207 54.6364 97.6432 55.2604C97.5321 55.4717 97.3777 55.6574 97.1902 55.8052C96.996 55.9531 96.7675 56.0494 96.5261 56.0853C96.082 56.1433 95.6312 56.0529 95.2439 55.8282C94.4641 55.3665 93.8132 54.716 93.3512 53.9367Z" fill="#3C3C3C"/>
<path fill-rule="evenodd" clip-rule="evenodd" d="M89.0995 47.1146C89.2435 47.8883 89.5383 48.6262 89.9671 49.2863C90.3041 49.8655 90.7771 50.3541 91.3452 50.7097C91.4802 50.7962 91.638 50.8403 91.7983 50.8363C91.8215 50.8314 91.8435 50.8223 91.8635 50.8095C91.8956 50.7804 91.9218 50.7451 91.9403 50.7059C92.0809 50.3384 92.105 49.9365 92.0094 49.5549L91.0036 43.4159C90.8613 42.6411 90.5678 41.9019 90.1398 41.2404C89.8001 40.6584 89.3229 40.1684 88.7501 39.8131C88.6167 39.7267 88.4598 39.6838 88.301 39.6903C88.2773 39.6935 88.2548 39.7027 88.2357 39.7172C88.2018 39.7448 88.1755 39.7804 88.1589 39.8208C88.0184 40.1883 87.9942 40.5902 88.0898 40.9718L89.0956 47.1108L89.0995 47.1146ZM88.8346 50.0076C88.3102 49.19 87.9516 48.2775 87.7789 47.3218L86.7731 41.1829C86.6272 40.5169 86.6985 39.8218 86.9765 39.1992C87.0854 38.9864 87.2402 38.8003 87.4295 38.6544C87.6234 38.5077 87.85 38.4102 88.0898 38.3705C88.5367 38.3162 88.9891 38.4077 89.3797 38.6314C90.1576 39.0958 90.8069 39.7474 91.2685 40.5268C91.7973 41.3425 92.1575 42.2556 92.328 43.2125L93.3338 49.3515C93.4813 50.0186 93.41 50.7155 93.1304 51.339C93.0214 51.5507 92.8667 51.7355 92.6774 51.88C92.4844 52.0282 92.2574 52.1258 92.017 52.1639C91.5688 52.2225 91.1138 52.1307 90.7233 51.903C89.946 51.4362 89.2969 50.7835 88.8346 50.0038V50.0076Z" fill="#3C3C3C"/>
<path fill-rule="evenodd" clip-rule="evenodd" d="M84.6883 43.7271C84.8333 44.5017 85.128 45.2406 85.5559 45.9025C85.8947 46.4842 86.3721 46.9732 86.9456 47.326C87.0758 47.4132 87.2306 47.4563 87.3871 47.4487C87.4108 47.4456 87.4333 47.4363 87.4524 47.4219C87.4856 47.3928 87.513 47.3577 87.533 47.3183C87.6734 46.9509 87.6988 46.5495 87.6059 46.1673L86.9802 42.3611C86.8369 41.586 86.5421 40.8467 86.1126 40.1857C85.774 39.604 85.2982 39.114 84.7267 38.7584C84.5921 38.6743 84.4363 38.6304 84.2776 38.6318L84.2123 38.6586C84.1811 38.6871 84.1551 38.7209 84.1355 38.7584C83.9987 39.1267 83.9747 39.5274 84.0664 39.9094L84.6883 43.7155V43.7271ZM84.4273 46.62C83.9023 45.8023 83.5425 44.8899 83.3677 43.9342L82.7458 40.1243C82.5999 39.4558 82.6712 38.7582 82.9493 38.133C83.0584 37.9214 83.2132 37.7367 83.4023 37.592C83.5961 37.4453 83.8227 37.3479 84.0626 37.3081C84.5082 37.2536 84.9595 37.3451 85.3486 37.569C86.1268 38.0344 86.7772 38.6857 87.2413 39.4644C87.7693 40.2805 88.1295 41.1935 88.3008 42.1501L88.9112 45.9639C89.0537 46.6291 88.981 47.3224 88.7039 47.9437C88.5939 48.1569 88.4394 48.3439 88.2509 48.4923C88.0541 48.639 87.8251 48.7363 87.5829 48.7762C87.1397 48.8307 86.6908 48.7392 86.3045 48.5154C85.5259 48.0505 84.8755 47.3991 84.4119 46.62H84.4273Z" fill="#3C3C3C"/>
<path fill-rule="evenodd" clip-rule="evenodd" d="M80.3018 86.5994C72.2093 91.2688 72.2093 98.8389 80.3018 103.508C88.3943 108.178 101.516 108.182 109.612 103.508C117.709 98.835 117.705 91.2688 109.612 86.5994C101.52 81.93 88.3943 81.9262 80.3018 86.5994Z" fill="white"/>
<path fill-rule="evenodd" clip-rule="evenodd" d="M80.6378 87.175C78.392 88.4757 76.7989 89.9913 75.8776 91.5951C75.2414 92.6346 74.9048 93.8296 74.9048 95.0482C74.9048 96.2668 75.2414 97.4617 75.8776 98.5013C76.8066 100.109 78.392 101.628 80.6378 102.925C84.5804 105.197 89.763 106.336 94.9571 106.336C100.151 106.336 105.322 105.185 109.28 102.925C111.526 101.628 113.119 100.109 114.041 98.5013C114.665 97.4567 115 96.265 115.012 95.0482C114.997 93.8314 114.66 92.6401 114.037 91.5951C113.111 89.9913 111.522 88.4757 109.273 87.175L109.242 87.1558C105.303 84.8959 100.136 83.7679 94.9533 83.7679C89.7707 83.7679 84.5881 84.919 80.634 87.175H80.6378ZM74.7067 90.9312C75.7509 89.1241 77.5014 87.4359 79.9584 86.0201C84.1121 83.6221 89.5557 82.425 94.9303 82.425C100.305 82.425 105.733 83.6144 109.879 85.9971L109.921 86.0201C112.378 87.4359 114.144 89.1241 115.173 90.9312C115.916 92.1799 116.313 93.6033 116.325 95.0558C116.312 96.5082 115.914 97.9312 115.173 99.1804C114.129 100.984 112.378 102.668 109.917 104.088C105.768 106.486 100.343 107.683 94.9456 107.683C89.548 107.683 84.1082 106.486 79.9737 104.088C77.5129 102.668 75.7509 100.984 74.722 99.1804C73.9686 97.9364 73.5703 96.51 73.5703 95.0558C73.5703 93.6017 73.9686 92.1753 74.722 90.9312H74.7067Z" fill="#3C3C3C"/>
<path fill-rule="evenodd" clip-rule="evenodd" d="M87.6348 86.8145V93.0723L87.6386 93.1183L87.6501 93.1644L87.6693 93.2104L87.6962 93.2565L87.7307 93.2987L87.7768 93.3409L87.8267 93.3831L87.8843 93.4176L98.4337 99.5066L98.499 99.5412L98.5643 99.568L98.6372 99.5949L98.714 99.614L98.7907 99.6294L98.8713 99.6409L98.952 99.6486H99.0326H99.1132L99.1938 99.6409L99.2745 99.6294L99.3512 99.614L99.428 99.5949L99.5009 99.568L99.5701 99.5412L99.6353 99.5066L99.7006 99.4682L100.468 99.027L102.422 97.899L102.48 97.8606L102.53 97.8223L102.572 97.7801L102.607 97.734L102.634 97.6918L102.653 97.6457L102.664 97.5997L102.668 97.5498V91.2959L102.664 91.3419L102.653 91.3879L102.634 91.434L102.607 91.48L102.572 91.5222L102.53 91.5644L102.48 91.6028L102.422 91.6412L100.468 92.7692L99.7006 93.2104L99.6353 93.2488L99.5701 93.2833L99.5009 93.314L99.428 93.337L99.3512 93.3562L99.2745 93.3716L99.1938 93.3831L99.1132 93.3907L99.0326 93.3946L98.952 93.3907L98.8713 93.3831L98.7907 93.3716L98.714 93.3562L98.6372 93.337L98.5643 93.314L98.499 93.2833L98.4337 93.2488L87.8843 87.1636L87.8267 87.1253L87.7768 87.0869L87.7307 87.0447L87.6962 86.9986L87.6693 86.9564L87.6501 86.9104L87.6386 86.8643L87.6348 86.8145Z" fill="#3C3C3C"/>
<path fill-rule="evenodd" clip-rule="evenodd" d="M88.3065 88.1689V92.8767L98.7792 98.9236H98.8214H98.8675H98.9289H99.0633H99.1631H99.2092C99.2598 98.91 99.3079 98.8879 99.3512 98.8583L100.119 98.4133H100.157L101.989 97.3581V92.658L100.031 93.7861L99.9616 93.8283L99.8695 93.8743L99.8158 93.9011L99.7466 93.9319H99.6967H99.6315C99.6058 93.943 99.5786 93.9508 99.5508 93.9549L99.3973 93.9894H99.3589H99.2783H99.1554H98.8867H98.8061H98.7293H98.6871H98.618C98.5643 93.9894 98.5143 93.9664 98.4606 93.9549H98.4145L98.3454 93.9319H98.2993L98.2303 93.9011L98.1381 93.8551C94.8788 92.1285 91.5159 90.0183 88.2988 88.1804L88.3065 88.1689ZM86.9629 93.0609V86.803C86.963 86.6435 87.0202 86.4894 87.1242 86.3684C87.2282 86.2475 87.3722 86.1678 87.5299 86.1437C87.6876 86.1196 87.8488 86.1527 87.9842 86.237C88.1196 86.3214 88.2203 86.4514 88.2681 86.6035L98.7677 92.6618H98.8138H98.8406H98.8906H98.9251H98.9981H99.1286H99.1746H99.2207H99.2591H99.2821L99.3551 92.6196C100.23 92.094 101.136 91.5914 102.019 91.0849C102.067 90.9318 102.168 90.801 102.305 90.7161C102.441 90.6311 102.603 90.5977 102.761 90.6218C102.92 90.6459 103.065 90.7259 103.17 90.8475C103.274 90.969 103.332 91.124 103.332 91.2844V97.6191C103.336 97.6637 103.336 97.7086 103.332 97.7533V97.7994C103.324 97.8306 103.313 97.8614 103.302 97.8915L103.282 97.9413C103.27 97.971 103.255 97.9993 103.236 98.0257C103.216 98.0651 103.191 98.1023 103.163 98.137L103.129 98.1792L103.075 98.2368C103.051 98.2652 103.024 98.2909 102.994 98.3135L102.945 98.3519L102.891 98.3903L102.833 98.4286L100.887 99.5528H100.852L100.019 100.036L99.954 100.071L99.8734 100.109H99.8388L99.7735 100.136L99.7006 100.159H99.6507H99.5969H99.5278L99.3704 100.19H99.2975H99.2169H99.1056H98.8906H98.8099H98.7715L98.6564 100.171H98.5988H98.5335H98.4567H98.4107L98.3378 100.148L98.2341 100.105L98.1765 100.075H98.142L98.0921 100.048C94.6754 98.0756 90.7558 96.0306 87.485 93.9088C87.458 93.8944 87.4323 93.8778 87.4082 93.8589L87.3544 93.8167C87.3322 93.8009 87.3117 93.7829 87.293 93.763L87.2661 93.7362L87.2009 93.6671L87.1625 93.621C87.1445 93.5977 87.1279 93.5733 87.1126 93.5482C87.0863 93.5112 87.0645 93.4712 87.0473 93.4292V93.4062C87.0473 93.3678 87.0205 93.3295 87.009 93.2911V93.245C87.0068 93.217 87.0068 93.1887 87.009 93.1606C86.9914 93.1324 86.976 93.1029 86.9629 93.0724V93.0609Z" fill="#3C3C3C"/>
<path fill-rule="evenodd" clip-rule="evenodd" d="M90.6717 84.8613L87.8846 86.4689C87.8187 86.4999 87.7629 86.549 87.7239 86.6105C87.6848 86.672 87.6641 86.7433 87.6641 86.8162C87.6641 86.889 87.6848 86.9603 87.7239 87.0218C87.7629 87.0833 87.8187 87.1324 87.8846 87.1634L98.4341 93.2486C98.6203 93.3433 98.8261 93.3926 99.0349 93.3926C99.2437 93.3926 99.4496 93.3433 99.6357 93.2486L99.701 93.2102L100.469 92.769L102.427 91.641C102.493 91.61 102.548 91.5609 102.587 91.4994C102.626 91.4379 102.647 91.3666 102.647 91.2937C102.647 91.2209 102.626 91.1496 102.587 91.0881C102.548 91.0266 102.493 90.9775 102.427 90.9465L91.8772 84.8613C91.6906 84.766 91.484 84.7163 91.2745 84.7163C91.0649 84.7163 90.8583 84.766 90.6717 84.8613Z" fill="white"/>
<path fill-rule="evenodd" clip-rule="evenodd" d="M76.3801 122.353C69.2627 118.247 67.0361 112.377 69.7041 107.178L74.7907 97.2827H115.484L120.57 107.178C123.258 112.385 121.016 118.247 113.894 122.353C103.525 128.33 86.7376 128.33 76.3801 122.353Z" fill="#2B7CFF"/>
<path fill-rule="evenodd" clip-rule="evenodd" d="M76.0319 122.932C72.4041 120.841 69.9932 118.289 68.8031 115.581C68.1803 114.204 67.8827 112.703 67.9333 111.194C67.9838 109.684 68.3813 108.206 69.0949 106.875L74.1815 96.9797C74.2378 96.8703 74.323 96.7785 74.428 96.7142C74.5329 96.6499 74.6535 96.6157 74.7765 96.6152H115.469C115.604 96.6148 115.736 96.6549 115.847 96.7301C115.959 96.8054 116.045 96.9124 116.095 97.0373L121.151 106.875C121.865 108.206 122.263 109.684 122.315 111.193C122.366 112.703 122.069 114.204 121.447 115.581C120.253 118.289 117.846 120.841 114.218 122.932L114.176 122.955C108.897 125.99 102.01 127.506 95.1307 127.506C88.2513 127.506 81.3335 125.971 76.0472 122.932H76.0319ZM70.0316 115.044C71.1103 117.495 73.3331 119.832 76.7037 121.773C81.775 124.697 88.4432 126.159 95.1307 126.159C101.818 126.159 108.448 124.705 113.515 121.792L113.546 121.769C116.917 119.828 119.139 117.491 120.218 115.04C120.758 113.844 121.016 112.54 120.972 111.229C120.927 109.917 120.581 108.634 119.961 107.477L115.063 97.9504H75.1988L70.3003 107.477C69.6801 108.634 69.3347 109.919 69.2908 111.231C69.2468 112.543 69.5056 113.847 70.0469 115.044H70.0316Z" fill="#3C3C3C"/>
<path fill-rule="evenodd" clip-rule="evenodd" d="M80.4795 86.5472C72.387 91.2166 72.387 98.7866 80.4795 103.456C88.572 108.125 101.694 108.129 109.79 103.456C117.886 98.7828 117.882 91.2166 109.79 86.5472C101.697 81.8778 88.572 81.874 80.4795 86.5472Z" fill="white"/>
<path fill-rule="evenodd" clip-rule="evenodd" d="M80.8117 87.1228C78.5659 88.4235 76.9727 89.939 76.0514 91.5428C75.4153 92.5824 75.0786 93.7773 75.0786 94.9959C75.0786 96.2145 75.4153 97.4095 76.0514 98.4491C76.9804 100.057 78.5659 101.576 80.8117 102.873C84.7543 105.144 89.9369 106.284 95.131 106.284C100.325 106.284 105.496 105.133 109.454 102.873C111.7 101.576 113.293 100.057 114.214 98.4491C114.839 97.4045 115.174 96.2127 115.186 94.9959C115.171 93.7791 114.834 92.5879 114.211 91.5428C113.285 89.939 111.696 88.4235 109.446 87.1228L109.416 87.1036C105.477 84.8437 100.31 83.7157 95.1271 83.7157C89.9445 83.7157 84.7619 84.8667 80.8078 87.1228H80.8117ZM74.8805 90.879C75.9247 89.0719 77.6753 87.3837 80.1322 85.9679C84.2859 83.5699 89.7296 82.3728 95.1041 82.3728C100.479 82.3728 105.907 83.5622 110.053 85.9449L110.095 85.9679C112.552 87.3837 114.318 89.0719 115.347 90.879C116.089 92.1277 116.487 93.5511 116.499 95.0036C116.486 96.4559 116.088 97.879 115.347 99.1282C114.303 100.931 112.552 102.616 110.091 104.035C105.941 106.433 100.517 107.631 95.1194 107.631C89.7219 107.631 84.2821 106.433 80.1475 104.035C77.6868 102.616 75.9247 100.931 74.8959 99.1282C74.1425 97.8841 73.7441 96.4577 73.7441 95.0036C73.7441 93.5494 74.1425 92.123 74.8959 90.879H74.8805Z" fill="#3C3C3C"/>
<path fill-rule="evenodd" clip-rule="evenodd" d="M74.4297 95.5752V102.777C74.5757 104.193 75.0906 105.547 75.923 106.702C78.7524 110.731 84.5646 112.872 89.2289 113.67C96.043 114.821 104.608 113.992 110.52 110.217C112.961 108.655 115.269 106.318 115.76 103.352L115.833 102.781V95.579C115.761 96.3624 115.568 97.1299 115.261 97.8543C113.445 102.155 108.105 104.718 103.855 105.854C96.3732 107.861 86.3612 107.247 79.7428 103.015C77.2974 101.457 74.994 99.1166 74.4988 96.1507L74.4297 95.5752Z" fill="white"/>
<path fill-rule="evenodd" clip-rule="evenodd" d="M75.1054 99.4694V102.777C75.1566 103.367 75.2923 103.947 75.5085 104.499C75.7564 105.142 76.0813 105.753 76.4759 106.318C77.6775 108.029 79.4588 109.388 81.4666 110.435C83.9472 111.689 86.605 112.558 89.348 113.01C93.1091 113.634 96.9465 113.646 100.711 113.044C104.166 112.484 107.453 111.387 110.167 109.649C111.473 108.84 112.627 107.811 113.579 106.606C114.356 105.635 114.883 104.489 115.115 103.268L115.18 102.738V99.4809C114.234 100.913 113.016 102.145 111.595 103.107C109.29 104.655 106.739 105.802 104.051 106.498C99.7435 107.602 95.2686 107.899 90.8528 107.373C86.6914 106.882 82.6567 105.654 79.4012 103.575C77.9641 102.681 76.6925 101.545 75.6429 100.218C75.4586 99.9759 75.282 99.7265 75.1208 99.4502L75.1054 99.4694ZM73.7618 102.777V95.575C73.7593 95.4023 73.8236 95.2352 73.9412 95.1086C74.0588 94.982 74.2207 94.9056 74.3932 94.8953C74.5657 94.8849 74.7356 94.9414 74.8675 95.053C74.9995 95.1645 75.0833 95.3227 75.1016 95.4944L75.1707 96.0661C75.4022 97.2874 75.9294 98.4335 76.7063 99.4042C77.6593 100.608 78.814 101.637 80.1191 102.447C83.1903 104.411 87.0292 105.574 91.0064 106.042C95.2536 106.549 99.558 106.266 103.702 105.205C106.24 104.553 108.649 103.472 110.823 102.009C112.508 100.828 113.917 99.3581 114.662 97.5893C114.804 97.2608 114.917 96.9207 115 96.5726C115.078 96.2231 115.137 95.8696 115.176 95.5136C115.195 95.3435 115.277 95.1867 115.407 95.0752C115.537 94.9638 115.704 94.9061 115.875 94.9139C116.046 94.9217 116.208 94.9945 116.327 95.1174C116.446 95.2403 116.514 95.4039 116.516 95.575V102.777C116.518 102.804 116.518 102.831 116.516 102.857L116.447 103.429V103.456C116.188 104.903 115.576 106.264 114.666 107.419C113.615 108.746 112.344 109.881 110.908 110.777C108.024 112.618 104.546 113.777 100.926 114.364C97.0166 114.99 93.0312 114.979 89.1253 114.329C86.2441 113.854 83.4528 112.941 80.8485 111.621C78.6641 110.47 76.714 108.985 75.3818 107.089C74.9239 106.431 74.5475 105.72 74.2608 104.971C73.9977 104.298 73.8335 103.59 73.7733 102.869C73.7675 102.838 73.7637 102.808 73.7618 102.777Z" fill="#3C3C3C"/>
<path fill-rule="evenodd" clip-rule="evenodd" d="M87.8105 86.7622V93.0201L87.8143 93.0661L87.8259 93.1121L87.8451 93.1582L87.8719 93.2042L87.9065 93.2464L87.9526 93.2886L88.0025 93.3308L88.06 93.3654L98.6095 99.4544L98.6748 99.4889L98.74 99.5157L98.813 99.5426L98.8898 99.5618L98.9665 99.5771L99.0471 99.5887L99.1278 99.5963H99.2084H99.289L99.3696 99.5887L99.4502 99.5771L99.527 99.5618L99.6038 99.5426L99.6767 99.5157L99.7458 99.4889L99.8111 99.4544L99.8763 99.416L100.644 98.9748L102.598 97.8467L102.656 97.8084L102.706 97.77L102.748 97.7278L102.782 97.6818L102.809 97.6395L102.829 97.5935L102.84 97.5475L102.844 97.4976V91.2436L102.84 91.2897L102.829 91.3357L102.809 91.3817L102.782 91.4278L102.748 91.47L102.706 91.5122L102.656 91.5505L102.598 91.5889L100.644 92.7169L99.8763 93.1582L99.8111 93.1965L99.7458 93.2311L99.6767 93.2618L99.6038 93.2848L99.527 93.304L99.4502 93.3193L99.3696 93.3308L99.289 93.3385L99.2084 93.3423L99.1278 93.3385L99.0471 93.3308L98.9665 93.3193L98.8898 93.304L98.813 93.2848L98.74 93.2618L98.6748 93.2311L98.6095 93.1965L88.06 87.1114L88.0025 87.073L87.9526 87.0347L87.9065 86.9924L87.8719 86.9464L87.8451 86.9042L87.8259 86.8581L87.8143 86.8121L87.8105 86.7622Z" fill="#3C3C3C"/>
<path fill-rule="evenodd" clip-rule="evenodd" d="M88.4804 88.1167V92.8245L98.953 98.8713H98.9953H99.0413H99.1028H99.2371H99.3369H99.383C99.4337 98.8577 99.4817 98.8356 99.525 98.8061L100.293 98.361H100.331L102.162 97.3059V92.6058L100.205 93.7338L100.135 93.776L100.043 93.822L99.9896 93.8489L99.9205 93.8796H99.8706H99.8053C99.7796 93.8908 99.7524 93.8985 99.7247 93.9026L99.5711 93.9372H99.5327H99.4521H99.3292H99.0605H98.9799H98.9031H98.8609H98.7918C98.7381 93.9372 98.6882 93.9141 98.6344 93.9026H98.5884L98.5192 93.8796H98.4732L98.4041 93.8489L98.312 93.8028C95.0527 92.0763 91.6897 89.966 88.4727 88.1282L88.4804 88.1167ZM87.1367 93.0086V86.7507C87.1369 86.5913 87.1941 86.4371 87.2981 86.3162C87.4021 86.1952 87.546 86.1155 87.7037 86.0914C87.8614 86.0673 88.0226 86.1004 88.158 86.1848C88.2934 86.2691 88.3941 86.3991 88.4419 86.5513L98.9416 92.6096H98.9876H99.0145H99.0644H99.0989H99.1719H99.3024H99.3485H99.3945H99.4329H99.456L99.5289 92.5674C100.404 92.0417 101.31 91.5391 102.193 91.0327C102.241 90.8796 102.342 90.7488 102.478 90.6638C102.615 90.5789 102.777 90.5454 102.935 90.5695C103.094 90.5936 103.239 90.6737 103.343 90.7952C103.448 90.9168 103.506 91.0718 103.506 91.2322V97.5668C103.51 97.6115 103.51 97.6564 103.506 97.7011V97.7471C103.498 97.7784 103.487 97.8091 103.475 97.8392L103.456 97.8891C103.444 97.9188 103.428 97.947 103.41 97.9735C103.389 98.0128 103.365 98.0501 103.337 98.0848L103.303 98.127L103.249 98.1845C103.225 98.213 103.198 98.2387 103.168 98.2613L103.118 98.2997L103.065 98.338L103.007 98.3764L101.061 99.5006H101.026L100.193 99.984L100.128 100.019L100.047 100.057H100.013L99.9474 100.084L99.8744 100.107H99.8245H99.7707H99.7017L99.5443 100.137H99.4713H99.3907H99.2794H99.0644H98.9838H98.9454L98.8302 100.118H98.7726H98.7073H98.6306H98.5845L98.5116 100.095L98.4079 100.053L98.3503 100.022H98.3158L98.2659 99.9955C94.8492 98.0234 90.9296 95.9783 87.6588 93.8566C87.6318 93.8422 87.6061 93.8255 87.582 93.8067L87.5283 93.7645C87.506 93.7487 87.4855 93.7307 87.4669 93.7108L87.44 93.6839L87.3747 93.6148L87.3363 93.5688C87.3184 93.5454 87.3017 93.5211 87.2864 93.4959C87.2601 93.4589 87.2383 93.419 87.2212 93.377V93.354C87.2212 93.3156 87.1943 93.2772 87.1828 93.2388V93.1928C87.1806 93.1647 87.1806 93.1365 87.1828 93.1084C87.1652 93.0802 87.1498 93.0507 87.1367 93.0202V93.0086Z" fill="#3C3C3C"/>
<path opacity="0.72" fill-rule="evenodd" clip-rule="evenodd" d="M53.3808 28.7837C47.5993 47.0202 53.8991 59.4783 60.4291 70.6435C64.5445 77.6879 67.4698 78.7008 69.7347 86.6968C71.0976 91.5158 70.6216 95.2452 74.4145 99.1779C84.8103 109.952 106.523 110.263 115.818 99.1779C119.326 94.9919 119.134 91.5043 120.497 86.6968C122.758 78.6893 125.684 77.6879 129.799 70.6435C136.325 59.4668 142.629 47.0202 136.847 28.7837C130.905 10.0409 113.011 0.66748 95.1141 0.66748C77.2169 0.66748 59.3427 10.0409 53.3808 28.7837Z" fill="white"/>
<path opacity="0.72" fill-rule="evenodd" clip-rule="evenodd" d="M54.038 28.9834C51.1895 37.9731 51.3123 45.5239 52.9554 52.2C54.5985 58.8761 57.7848 64.7579 61.0172 70.306C62.2152 72.3336 63.5451 74.2805 64.9982 76.1341C67.1596 78.9849 68.9101 81.2908 70.3728 86.5165C70.7567 87.8824 70.9985 89.1563 71.2288 90.3726C71.7932 93.3806 72.2922 96.0204 74.8912 98.7138C75.4291 99.271 75.9968 99.7987 76.5918 100.295C81.6593 104.538 88.7268 106.706 95.6792 106.706C102.632 106.706 109.415 104.561 113.964 100.183C114.433 99.7322 114.877 99.2571 115.296 98.7598C117.776 95.8017 118.337 93.1773 118.985 90.1308C119.227 89.0028 119.481 87.8287 119.845 86.5281C121.323 81.3023 123.07 78.9964 125.22 76.1456C126.67 74.2909 127.999 72.3441 129.197 70.3175C132.441 64.7694 135.623 58.9106 137.259 52.2115C138.894 45.5124 139.025 37.9846 136.172 28.9949C133.608 20.8008 128.306 13.7348 121.154 8.97818C113.603 3.89439 104.344 1.35057 95.0803 1.35057C85.8169 1.35057 76.5573 3.89439 69.0061 8.97818C61.8555 13.736 56.5545 20.8015 53.9881 28.9949L54.038 28.9834ZM51.654 52.5184C49.9572 45.6122 49.8267 37.8311 52.7596 28.5805C55.414 20.0978 60.9027 12.7836 68.3074 7.86165C76.0851 2.62055 85.6096 0 95.1302 0C104.651 0 114.175 2.62055 121.953 7.86165C129.358 12.7845 134.847 20.0983 137.505 28.5805C140.438 37.8311 140.303 45.6198 138.606 52.5184C136.91 59.4171 133.685 65.3526 130.395 70.9812C129.169 73.0544 127.808 75.0449 126.322 76.9398C124.245 79.6793 122.567 81.8894 121.158 86.8772C120.805 88.1242 120.556 89.2867 120.321 90.3956C119.63 93.6185 119.039 96.3963 116.348 99.6039C115.898 100.14 115.42 100.653 114.916 101.139C110.106 105.774 102.962 108.045 95.7214 108.045C88.4811 108.045 81.0873 105.77 75.7588 101.323C75.1268 100.795 74.5233 100.234 73.9507 99.6423C71.0753 96.6611 70.5455 93.8372 69.939 90.6181C69.7163 89.4364 69.4821 88.1971 69.1097 86.8772C67.697 81.8894 66.0194 79.6793 63.9463 76.9437C62.4604 75.046 61.0986 73.0543 59.8694 70.9812C56.5756 65.3526 53.3431 59.3979 51.654 52.5184Z" fill="#3C3C3C"/>
<path fill-rule="evenodd" clip-rule="evenodd" d="M54.038 28.9834C51.1895 37.9731 51.3123 45.5239 52.9554 52.2C54.5985 58.8761 57.7848 64.7579 61.0172 70.306C62.2152 72.3336 63.5451 74.2805 64.9982 76.1341C67.1596 78.9849 68.9101 81.2908 70.3728 86.5165C70.7567 87.8824 70.9985 89.1563 71.2288 90.3726C71.7932 93.3806 72.2922 96.0204 74.8912 98.7138C75.4291 99.271 75.9968 99.7987 76.5918 100.295C81.6593 104.538 88.7268 106.706 95.6792 106.706C102.632 106.706 109.415 104.561 113.964 100.183C114.433 99.7322 114.877 99.2571 115.296 98.7598C117.776 95.8017 118.337 93.1773 118.985 90.1308C119.227 89.0028 119.481 87.8287 119.845 86.5281C121.323 81.3023 123.07 78.9964 125.22 76.1456C126.67 74.2909 127.999 72.3441 129.197 70.3175C132.441 64.7694 135.623 58.9106 137.259 52.2115C138.894 45.5124 139.025 37.9846 136.172 28.9949C133.608 20.8008 128.306 13.7348 121.154 8.97818C113.603 3.89439 104.344 1.35057 95.0803 1.35057C85.8169 1.35057 76.5573 3.89439 69.0061 8.97818C61.8555 13.736 56.5545 20.8015 53.9881 28.9949L54.038 28.9834ZM51.654 52.5184C49.9572 45.6122 49.8267 37.8311 52.7596 28.5805C55.414 20.0978 60.9027 12.7836 68.3074 7.86165C76.0851 2.62055 85.6096 0 95.1302 0C104.651 0 114.175 2.62055 121.953 7.86165C129.358 12.7845 134.847 20.0983 137.505 28.5805C140.438 37.8311 140.303 45.6198 138.606 52.5184C136.91 59.4171 133.685 65.3526 130.395 70.9812C129.169 73.0544 127.808 75.0449 126.322 76.9398C124.245 79.6793 122.567 81.8894 121.158 86.8772C120.805 88.1242 120.556 89.2867 120.321 90.3956C119.63 93.6185 119.039 96.3963 116.348 99.6039C115.898 100.14 115.42 100.653 114.916 101.139C110.106 105.774 102.962 108.045 95.7214 108.045C88.4811 108.045 81.0873 105.77 75.7588 101.323C75.1268 100.795 74.5233 100.234 73.9507 99.6423C71.0753 96.6611 70.5455 93.8372 69.939 90.6181C69.7163 89.4364 69.4821 88.1971 69.1097 86.8772C67.697 81.8894 66.0194 79.6793 63.9463 76.9437C62.4604 75.046 61.0986 73.0543 59.8694 70.9812C56.5756 65.3526 53.3431 59.3979 51.654 52.5184Z" fill="#3C3C3C"/>
<path opacity="0.2" d="M166.309 138C174.567 138 181.262 135.603 181.262 132.646C181.262 129.69 174.567 127.293 166.309 127.293C158.05 127.293 151.355 129.69 151.355 132.646C151.355 135.603 158.05 138 166.309 138Z" fill="black"/>
<path fill-rule="evenodd" clip-rule="evenodd" d="M175.545 72.3865L180.209 69.5369L186.306 82.1337C186.551 82.6678 186.589 83.2733 186.414 83.8338C186.277 84.1407 186.375 83.9166 186.35 83.9604L181.267 93.469C181.189 93.6541 181.301 93.6054 180.926 93.9561C180.68 94.157 180.372 94.2669 180.054 94.2672C179.737 94.2675 179.429 94.1582 179.182 93.9578C178.936 93.7574 178.766 93.4781 178.702 93.1672C178.638 92.8562 178.683 92.5327 178.83 92.2512L182.617 83.3028L175.545 72.3865Z" fill="#2B7CFF"/>
<path fill-rule="evenodd" clip-rule="evenodd" d="M179.5 70.0145C179.404 69.8104 179.393 69.5767 179.47 69.3647C179.547 69.1528 179.705 68.9801 179.909 68.8844C180.113 68.7888 180.347 68.7782 180.559 68.855C180.771 68.9317 180.944 69.0895 181.04 69.2936L186.986 82.022C187.189 82.4081 187.294 82.8378 187.293 83.2739C187.316 83.7441 187.227 84.2131 187.035 84.6427C187.024 84.6681 187.011 84.6925 186.996 84.7158L181.147 94.4582C180.973 94.8601 180.689 95.2047 180.328 95.4521C179.967 95.6995 179.543 95.8397 179.105 95.8562C178.807 95.8714 178.51 95.8232 178.232 95.7149C177.941 95.5982 177.682 95.4127 177.477 95.1742C177.222 94.8475 177.069 94.4529 177.037 94.0396C177.005 93.6264 177.095 93.2128 177.297 92.8507V92.8117L181.873 83.6831L176.025 74.6081C175.964 74.5141 175.923 74.4091 175.904 74.2992C175.884 74.1893 175.886 74.0766 175.91 73.9676C175.934 73.8586 175.98 73.7554 176.044 73.6639C176.107 73.5723 176.189 73.4943 176.283 73.4341C176.377 73.374 176.482 73.333 176.592 73.3134C176.702 73.2938 176.815 73.2961 176.924 73.3201C177.033 73.344 177.136 73.3893 177.228 73.4532C177.319 73.517 177.397 73.5983 177.457 73.6923L183.574 83.1911C183.653 83.3152 183.699 83.4575 183.706 83.6043C183.714 83.7511 183.684 83.8974 183.618 84.029L178.827 93.5814C178.705 93.8639 178.705 94.0295 178.764 94.1026C178.787 94.1232 178.813 94.1397 178.842 94.1513C178.903 94.1712 178.967 94.1811 179.032 94.1805C179.155 94.172 179.273 94.1286 179.372 94.0552C179.472 93.9819 179.548 93.8817 179.592 93.7665C179.606 93.7315 179.623 93.6973 179.641 93.6642L185.538 83.8439C185.594 83.6726 185.615 83.4923 185.602 83.3129C185.607 83.1556 185.577 82.9991 185.514 82.855C185.499 82.8317 185.486 82.8073 185.475 82.782L179.5 70.0145Z" fill="#3C3C3C"/>
<path fill-rule="evenodd" clip-rule="evenodd" d="M171.213 128.727C171.018 128.663 170.848 128.539 170.728 128.373C170.608 128.207 170.543 128.007 170.543 127.801C170.543 127.596 170.608 127.396 170.728 127.23C170.848 127.064 171.018 126.94 171.213 126.876C171.71 126.626 172.258 126.496 172.814 126.496C173.37 126.496 173.919 126.626 174.415 126.876L178.626 129.311C178.821 129.376 178.991 129.5 179.112 129.666C179.232 129.832 179.297 130.032 179.297 130.237C179.297 130.442 179.232 130.642 179.112 130.808C178.991 130.975 178.821 131.099 178.626 131.163C178.13 131.412 177.581 131.542 177.025 131.542C176.469 131.542 175.921 131.412 175.424 131.163L171.213 128.727Z" fill="white"/>
<path fill-rule="evenodd" clip-rule="evenodd" d="M170.787 129.462C170.489 129.298 170.23 129.072 170.027 128.8L169.978 128.722C169.795 128.45 169.697 128.129 169.695 127.801C169.703 127.45 169.819 127.11 170.027 126.827C170.228 126.556 170.486 126.332 170.782 126.17C171.088 126 171.416 125.874 171.757 125.794C172.458 125.632 173.186 125.632 173.887 125.794C174.227 125.874 174.555 126 174.862 126.17L174.906 126.199L179.068 128.6C179.366 128.765 179.625 128.99 179.828 129.263C179.846 129.288 179.863 129.314 179.877 129.341C180.06 129.613 180.158 129.933 180.16 130.261C180.152 130.612 180.036 130.953 179.828 131.236C179.625 131.507 179.368 131.732 179.073 131.898L179.014 131.927C178.728 132.08 178.423 132.194 178.108 132.268C177.408 132.437 176.678 132.437 175.978 132.268C175.637 132.193 175.308 132.068 175.003 131.898L170.792 129.462H170.787ZM171.411 127.806C171.472 127.883 171.548 127.946 171.635 127.991L175.846 130.427C175.999 130.513 176.163 130.577 176.334 130.617C176.775 130.714 177.233 130.714 177.674 130.617C177.844 130.583 178.008 130.526 178.161 130.446H178.195C178.281 130.4 178.358 130.337 178.42 130.261C178.361 130.184 178.286 130.121 178.2 130.076L174.033 127.67L173.984 127.646C173.831 127.559 173.667 127.493 173.497 127.451C173.055 127.353 172.598 127.353 172.157 127.451C171.986 127.493 171.822 127.559 171.669 127.646C171.581 127.689 171.505 127.753 171.445 127.831L171.411 127.806Z" fill="#3C3C3C"/>
<path fill-rule="evenodd" clip-rule="evenodd" d="M162.327 133.74C162.134 133.675 161.966 133.551 161.847 133.385C161.728 133.219 161.664 133.021 161.664 132.817C161.664 132.613 161.728 132.414 161.847 132.249C161.966 132.083 162.134 131.959 162.327 131.894C162.824 131.641 163.373 131.509 163.931 131.509C164.488 131.509 165.038 131.641 165.534 131.894L169.745 134.329C169.939 134.395 170.107 134.519 170.225 134.684C170.344 134.85 170.408 135.049 170.408 135.252C170.408 135.456 170.344 135.655 170.225 135.821C170.107 135.986 169.939 136.11 169.745 136.176C169.249 136.428 168.699 136.56 168.142 136.56C167.584 136.56 167.035 136.428 166.538 136.176L162.327 133.74Z" fill="white"/>
<path fill-rule="evenodd" clip-rule="evenodd" d="M161.909 134.475C161.61 134.312 161.351 134.086 161.149 133.813L161.1 133.74C160.905 133.455 160.804 133.117 160.813 132.772C160.822 132.427 160.939 132.094 161.149 131.82C161.35 131.548 161.608 131.322 161.904 131.158C162.209 130.986 162.537 130.859 162.879 130.783C163.227 130.7 163.583 130.657 163.941 130.656C164.301 130.658 164.659 130.7 165.009 130.783C165.35 130.86 165.678 130.986 165.983 131.158L166.027 131.182L170.195 133.588C170.493 133.751 170.753 133.977 170.955 134.251L171.004 134.324C171.186 134.597 171.284 134.917 171.286 135.245C171.278 135.596 171.16 135.937 170.95 136.219C170.747 136.492 170.488 136.717 170.19 136.881L170.136 136.911C169.85 137.065 169.545 137.181 169.229 137.257C168.88 137.339 168.522 137.382 168.162 137.383C167.804 137.382 167.448 137.339 167.1 137.257C166.758 137.179 166.43 137.053 166.125 136.881L161.914 134.446L161.909 134.475ZM162.533 132.824C162.593 132.898 162.668 132.959 162.752 133.004L166.963 135.44C167.115 135.528 167.279 135.594 167.451 135.634C167.671 135.685 167.897 135.709 168.123 135.707C168.349 135.709 168.575 135.685 168.796 135.634C168.965 135.599 169.129 135.542 169.283 135.464H169.317C169.404 135.42 169.48 135.359 169.541 135.284C169.479 135.21 169.403 135.149 169.317 135.103L165.15 132.697H165.101C164.949 132.608 164.785 132.543 164.614 132.502C164.171 132.405 163.712 132.405 163.269 132.502C163.097 132.543 162.933 132.608 162.781 132.697C162.697 132.742 162.622 132.803 162.562 132.877L162.533 132.824Z" fill="#3C3C3C"/>
<path fill-rule="evenodd" clip-rule="evenodd" d="M177.997 91.3551C178.597 91.5877 179.112 91.9958 179.476 92.526C179.839 93.0562 180.034 93.6838 180.035 94.3265C180.035 94.4191 180.035 94.5068 180.035 94.5945L179.299 129.014C179.28 129.213 179.21 129.404 179.093 129.567C178.976 129.73 178.819 129.858 178.636 129.94C178.139 130.189 177.591 130.32 177.035 130.32C176.479 130.32 175.93 130.189 175.434 129.94C175.251 129.858 175.093 129.73 174.977 129.567C174.86 129.404 174.789 129.213 174.771 129.014L173.357 101.248L171.598 102.223C171.008 112.91 170.857 123.378 170.418 134.012C170.401 134.211 170.33 134.402 170.213 134.565C170.097 134.728 169.939 134.857 169.756 134.938C169.259 135.19 168.709 135.322 168.152 135.322C167.595 135.322 167.045 135.19 166.549 134.938C166.366 134.856 166.208 134.727 166.092 134.564C165.976 134.402 165.904 134.211 165.886 134.012L164.799 99.5922C164.799 99.5046 164.799 99.4169 164.799 99.3292C164.799 97.4295 165.973 96.8206 167.367 96.0314L171.89 93.4789L175.107 91.6571C175.535 91.3917 176.017 91.2266 176.518 91.1743C177.018 91.122 177.524 91.1838 177.997 91.3551Z" fill="white"/>
<path fill-rule="evenodd" clip-rule="evenodd" d="M178.304 90.5464C179.063 90.84 179.717 91.3562 180.178 92.0273C180.639 92.6983 180.886 93.4929 180.887 94.3069C180.887 94.4238 180.887 94.5456 180.887 94.6625L180.161 129.029C180.153 129.38 180.037 129.72 179.829 130.003C179.626 130.274 179.369 130.499 179.074 130.665L179.015 130.695C178.729 130.847 178.425 130.962 178.109 131.036C177.409 131.205 176.679 131.205 175.979 131.036C175.638 130.96 175.31 130.835 175.004 130.665C174.707 130.501 174.447 130.275 174.244 130.003L174.195 129.925C174.013 129.652 173.914 129.332 173.912 129.004L172.572 102.671L172.421 102.758C172.075 109.091 171.885 115.311 171.69 121.532C171.563 125.707 171.437 129.886 171.266 134.041C171.257 134.393 171.14 134.733 170.93 135.015C170.727 135.288 170.467 135.514 170.169 135.678L170.116 135.707C169.83 135.861 169.525 135.977 169.209 136.053C168.859 136.136 168.501 136.178 168.142 136.18C167.784 136.178 167.427 136.136 167.079 136.053C166.738 135.976 166.41 135.849 166.104 135.678C165.806 135.515 165.546 135.289 165.344 135.015C165.326 134.992 165.31 134.968 165.295 134.942C165.112 134.668 165.014 134.346 165.013 134.017V133.973L163.926 99.6701V99.334C163.926 96.9959 165.242 96.2506 166.821 95.364L166.928 95.3007C169.506 93.8393 172.085 92.3439 174.678 90.9166C175.225 90.6042 175.827 90.4007 176.452 90.3175C177.079 90.2425 177.716 90.3245 178.304 90.5562V90.5464ZM178.791 92.982C178.526 92.5915 178.149 92.2908 177.709 92.1198C177.378 91.9899 177.019 91.9447 176.666 91.9883C176.259 92.0462 175.867 92.1818 175.511 92.3877L167.781 96.7718L167.669 96.8351C166.563 97.4586 165.646 97.975 165.646 99.3292V99.524V99.5678L166.733 133.915C166.736 133.944 166.736 133.973 166.733 134.002C166.794 134.076 166.868 134.137 166.953 134.182C167.105 134.271 167.269 134.336 167.44 134.377C167.661 134.428 167.886 134.452 168.113 134.45C168.339 134.452 168.565 134.428 168.785 134.377C168.954 134.342 169.118 134.285 169.273 134.207H169.307C169.393 134.163 169.47 134.102 169.531 134.027V133.997C169.706 129.769 169.833 125.619 169.96 121.469C170.16 115.048 170.354 108.633 170.71 102.189C170.717 102.046 170.76 101.908 170.835 101.787C170.91 101.666 171.015 101.566 171.139 101.497L172.85 100.523C172.975 100.441 173.12 100.394 173.269 100.386C173.419 100.378 173.568 100.41 173.701 100.478C173.834 100.546 173.947 100.649 174.028 100.774C174.108 100.9 174.154 101.045 174.161 101.195L175.57 128.897C175.572 128.928 175.572 128.959 175.57 128.99C175.629 129.068 175.706 129.131 175.794 129.175C175.947 129.261 176.111 129.326 176.281 129.37C176.723 129.461 177.179 129.461 177.622 129.37C177.791 129.332 177.954 129.273 178.109 129.194H178.143C178.229 129.147 178.305 129.085 178.367 129.009L179.098 94.6382C179.096 94.5993 179.096 94.5602 179.098 94.5213V94.3216C179.125 93.8624 179.013 93.4059 178.777 93.0112L178.791 92.982Z" fill="#3C3C3C"/>
<path fill-rule="evenodd" clip-rule="evenodd" d="M171.022 67.9687C171.504 68.2126 172.037 68.3397 172.577 68.3397C173.117 68.3397 173.65 68.2126 174.132 67.9687C174.989 67.4816 174.989 66.6681 174.132 66.1712C173.65 65.925 173.117 65.7966 172.577 65.7966C172.036 65.7966 171.503 65.925 171.022 66.1712C170.159 66.6778 170.159 67.4718 171.022 67.9687Z" fill="white"/>
<path fill-rule="evenodd" clip-rule="evenodd" d="M171.448 67.2335C171.797 67.4116 172.186 67.4987 172.578 67.4868C172.969 67.4994 173.357 67.4122 173.704 67.2335C173.783 67.1926 173.854 67.1382 173.914 67.0728C173.857 67.005 173.787 66.9487 173.709 66.9071H173.675C173.333 66.7435 172.957 66.6634 172.578 66.6733C172.186 66.6608 171.797 66.748 171.448 66.9266C171.369 66.9657 171.299 67.0204 171.243 67.0874C171.298 67.1552 171.366 67.2115 171.443 67.253L171.448 67.2335ZM172.578 69.182C171.887 69.1898 171.204 69.0222 170.595 68.6949C170.248 68.5073 169.958 68.2296 169.756 67.8911C169.607 67.6407 169.528 67.3546 169.527 67.063C169.528 66.7974 169.595 66.5361 169.722 66.3031C169.732 66.2794 169.743 66.2566 169.756 66.2349C169.961 65.8986 170.25 65.6215 170.595 65.4311C171.196 65.1172 171.863 64.9508 172.541 64.9457C173.219 64.9406 173.888 65.097 174.494 65.4019L174.547 65.4311C174.894 65.6201 175.185 65.8974 175.391 66.2349C175.541 66.4842 175.62 66.7697 175.62 67.0606C175.62 67.3515 175.541 67.6369 175.391 67.8863C175.186 68.2253 174.895 68.5042 174.547 68.6949C173.945 69.0266 173.266 69.1977 172.578 69.1918V69.182Z" fill="#3C3C3C"/>
<path fill-rule="evenodd" clip-rule="evenodd" d="M179.675 94.1024C180.284 93.7468 180.542 93.2743 180.445 92.8164V70.3212C180.216 68.2704 177.189 66.5265 175.864 67.2962L169.406 71.0227L167.013 72.4012C165.999 72.9663 164.717 74.1695 164.688 75.587V98.7982C164.654 98.9374 164.654 99.0828 164.688 99.222V99.3194C164.785 99.6117 164.405 99.8747 165.131 100.294C165.857 100.713 167.885 100.898 168.938 100.294L179.66 94.1121L179.675 94.1024Z" fill="#2B7CFF" stroke="#F9FAFE" stroke-width="1.28" stroke-miterlimit="22.93"/>
<path fill-rule="evenodd" clip-rule="evenodd" d="M180.162 94.7894C180.117 94.8243 180.068 94.8538 180.016 94.8771L169.371 101.02C168.673 101.367 167.899 101.534 167.119 101.507C166.292 101.531 165.47 101.364 164.717 101.02C163.742 100.469 163.781 99.987 163.844 99.5584C163.837 99.4871 163.837 99.4153 163.844 99.3441C163.835 99.2485 163.835 99.1522 163.844 99.0566C163.837 98.9528 163.837 98.8486 163.844 98.7449V75.6164C163.88 74.8213 164.159 74.0563 164.644 73.4243C165.167 72.7226 165.831 72.1371 166.593 71.7048L175.439 66.6046C175.71 66.4492 176.011 66.3529 176.321 66.3221C177.202 66.2729 178.077 66.4957 178.827 66.9602C179.646 67.4286 180.33 68.0996 180.815 68.9087C181.063 69.3142 181.228 69.7644 181.302 70.2337C181.307 70.2856 181.307 70.3377 181.302 70.3896V92.7971C181.361 93.2124 181.271 93.6349 181.049 93.9906C180.832 94.3375 180.535 94.6267 180.182 94.8333L180.162 94.7894ZM179.294 93.3281C179.405 93.2641 179.5 93.1759 179.572 93.0699C179.582 93.0415 179.582 93.0107 179.572 92.9822C179.568 92.9255 179.568 92.8685 179.572 92.8118V70.3555C179.531 70.1204 179.449 69.8944 179.329 69.6882C178.99 69.1456 178.521 68.6966 177.964 68.3826C177.529 68.1003 177.02 67.9544 176.502 67.9637C176.426 67.9696 176.351 67.9895 176.282 68.0222C173.329 69.7271 170.385 71.4661 167.417 73.1418C166.864 73.4503 166.381 73.8699 165.998 74.3743C165.715 74.7243 165.545 75.1525 165.511 75.6017V98.7936C165.518 98.86 165.518 98.9269 165.511 98.9933V99.0274C165.511 99.0566 165.511 99.0858 165.511 99.1151C165.547 99.2565 165.559 99.4032 165.545 99.5486V99.6996C165.545 99.6509 165.545 99.6022 165.545 99.5535C166.04 99.7532 166.572 99.8445 167.105 99.8214C167.587 99.8452 168.069 99.7533 168.509 99.5535L179.153 93.4109C179.197 93.3792 179.244 93.353 179.294 93.333V93.3281Z" fill="#3C3C3C"/>
<path fill-rule="evenodd" clip-rule="evenodd" d="M170.374 67.0676H174.761L175.082 71.252C175.087 71.2941 175.087 71.3365 175.082 71.3786C175.061 71.6021 174.981 71.8159 174.85 71.9982C174.719 72.1805 174.542 72.3248 174.337 72.4162C173.781 72.6974 173.168 72.8438 172.545 72.8438C171.923 72.8438 171.309 72.6974 170.754 72.4162C170.55 72.3241 170.374 72.1796 170.244 71.9973C170.114 71.8151 170.034 71.6016 170.013 71.3786C170.011 71.3364 170.011 71.2942 170.013 71.252L170.374 67.0676Z" fill="white"/>
<path fill-rule="evenodd" clip-rule="evenodd" d="M170.372 66.2151H175.563L175.943 71.1544C175.946 71.1868 175.946 71.2195 175.943 71.2519C175.943 71.3055 175.943 71.3444 175.943 71.3785C175.941 71.7591 175.819 72.1292 175.593 72.4355C175.375 72.7294 175.098 72.9736 174.779 73.1517C174.094 73.5069 173.334 73.6923 172.563 73.6923C171.792 73.6923 171.032 73.5069 170.348 73.1517C170.029 72.9736 169.751 72.7294 169.534 72.4355C169.308 72.1292 169.185 71.7591 169.183 71.3785C169.179 71.3023 169.179 71.2258 169.183 71.1496L169.568 66.2151H170.372ZM173.984 67.92H171.162L170.899 71.3298V71.3932C170.904 71.4186 170.916 71.4421 170.933 71.4613C171.009 71.559 171.105 71.6389 171.216 71.6952C171.641 71.9002 172.108 72.0066 172.58 72.0066C173.053 72.0066 173.519 71.9002 173.945 71.6952C174.053 71.6358 174.149 71.5564 174.228 71.4613C174.242 71.441 174.252 71.4178 174.257 71.3932V71.3298L173.994 67.92H173.984Z" fill="#3C3C3C"/>
<path fill-rule="evenodd" clip-rule="evenodd" d="M172.989 57.3299H172.16C171.66 57.324 171.164 57.4182 170.7 57.6068C170.237 57.7954 169.816 58.0746 169.462 58.4282C169.109 58.7817 168.829 59.2025 168.641 59.6655C168.452 60.1285 168.358 60.6246 168.364 61.1245L168.558 65.7571C168.576 66.758 168.982 67.7131 169.69 68.4209C170.398 69.1288 171.354 69.5342 172.355 69.5518H172.769C173.771 69.533 174.725 69.1272 175.433 68.4196C176.141 67.712 176.547 66.7576 176.566 65.7571L176.785 61.1245C176.792 60.6244 176.698 60.128 176.51 59.6647C176.321 59.2013 176.042 58.7804 175.688 58.4267C175.334 58.073 174.913 57.7938 174.449 57.6054C173.986 57.417 173.489 57.3234 172.989 57.3299Z" fill="white"/>
<path fill-rule="evenodd" clip-rule="evenodd" d="M172.99 58.1823H172.015C171.264 58.2174 170.552 58.5298 170.017 59.0591C169.759 59.3084 169.554 59.6065 169.412 59.936C169.271 60.2655 169.196 60.6198 169.193 60.9783V61.0952L169.388 65.7277C169.418 66.5285 169.749 67.2885 170.314 67.8564C170.579 68.124 170.894 68.3362 171.241 68.4809C171.588 68.6255 171.961 68.6998 172.337 68.6992H172.751C173.126 68.6995 173.498 68.6256 173.844 68.4818C174.19 68.338 174.505 68.1271 174.769 67.8613C175.334 67.2887 175.666 66.5265 175.7 65.7229L175.914 61.0904V60.9637C175.911 60.6078 175.837 60.2562 175.696 59.9292C175.556 59.6022 175.352 59.3064 175.096 59.0591C174.564 58.5338 173.858 58.2218 173.112 58.1823H172.99ZM172.161 56.4822H173.204C174.371 56.5397 175.476 57.0234 176.309 57.8413C176.727 58.2466 177.06 58.7311 177.288 59.2663C177.517 59.8016 177.636 60.3769 177.64 60.9588C177.64 60.9881 177.64 61.0563 177.64 61.1586L177.42 65.7911C177.372 67.0202 176.864 68.1865 175.997 69.0596C175.576 69.4859 175.075 69.8239 174.521 70.0539C173.968 70.2839 173.375 70.4013 172.776 70.3992H172.361C171.761 70.4004 171.166 70.2827 170.611 70.0528C170.057 69.8228 169.553 69.4853 169.13 69.0596C168.267 68.1829 167.762 67.0154 167.716 65.7862L167.521 61.1537V60.9735C167.524 60.3884 167.645 59.8099 167.875 59.2719C168.105 58.734 168.441 58.2475 168.862 57.8413C169.696 57.0166 170.809 56.5321 171.981 56.4822H172.161Z" fill="#3C3C3C"/>
<path fill-rule="evenodd" clip-rule="evenodd" d="M175.17 99.1929C175.362 99.1063 175.579 99.094 175.779 99.1585C175.98 99.223 176.149 99.3596 176.254 99.5418C176.359 99.7241 176.393 99.9388 176.348 100.144C176.304 100.35 176.184 100.532 176.013 100.654L172.012 102.963C171.916 103.032 171.806 103.08 171.69 103.104C171.574 103.128 171.454 103.128 171.339 103.102C171.223 103.077 171.114 103.029 171.018 102.959C170.922 102.889 170.842 102.8 170.783 102.698C170.724 102.595 170.687 102.481 170.675 102.364C170.662 102.246 170.674 102.127 170.711 102.014C170.747 101.902 170.807 101.798 170.885 101.709C170.964 101.621 171.061 101.55 171.169 101.502L175.17 99.1929Z" fill="#3C3C3C"/>
<path fill-rule="evenodd" clip-rule="evenodd" d="M172.989 57.3297H172.161C171.425 57.3306 170.706 57.5415 170.087 57.9377C169.467 58.3338 168.975 58.8986 168.666 59.5656C169.051 62.2934 170.128 62.045 171.425 63.4138C172.784 64.8751 171.912 67.0428 173.667 67.1694C174.349 67.2181 175.845 66.9405 176.352 66.1952L176.547 66.0296C176.547 65.9468 176.547 65.864 176.547 65.7763L176.766 61.1438C176.775 60.6437 176.684 60.1468 176.498 59.6825C176.312 59.2182 176.035 58.7958 175.683 58.4403C175.331 58.0849 174.911 57.8034 174.448 57.6127C173.986 57.4219 173.49 57.3257 172.989 57.3297Z" fill="white"/>
<path fill-rule="evenodd" clip-rule="evenodd" d="M172.991 58.1823H172.162C171.584 58.1855 171.019 58.3545 170.534 58.6695C170.13 58.9307 169.795 59.2868 169.559 59.707C169.793 61.0563 170.261 61.3973 170.851 61.8211C171.285 62.1201 171.688 62.4611 172.055 62.8392C172.661 63.545 173.051 64.4112 173.176 65.3332C173.288 65.8691 173.385 66.3075 173.736 66.3075C174.172 66.3183 174.606 66.2439 175.013 66.0883H175.077C175.299 66.0186 175.498 65.8888 175.652 65.7132C175.675 65.6771 175.701 65.6429 175.73 65.6109L175.939 61.0953V60.9687C175.936 60.6128 175.862 60.2611 175.721 59.9341C175.581 59.6071 175.377 59.3114 175.121 59.064C174.589 58.5387 173.883 58.2267 173.137 58.1871L172.991 58.1823ZM172.162 56.4822H173.205C174.372 56.5398 175.476 57.0234 176.31 57.8413C176.727 58.2467 177.06 58.7312 177.289 59.2664C177.517 59.8017 177.637 60.377 177.64 60.9589C177.64 60.9881 177.64 61.0563 177.64 61.1586L177.416 65.9421V66.0932C177.393 66.3112 177.286 66.5118 177.119 66.6533L176.997 66.7557C176.652 67.1699 176.203 67.4844 175.696 67.6666L175.623 67.6958C174.985 67.9298 174.308 68.0374 173.629 68.0124C172.001 67.8955 171.787 66.892 171.524 65.6742C171.449 65.0618 171.21 64.481 170.832 63.9937C170.535 63.6916 170.208 63.4206 169.857 63.185C168.882 62.4982 168.156 61.9575 167.834 59.6826C167.809 59.5171 167.832 59.3478 167.902 59.1955C168.272 58.3769 168.874 57.6844 169.633 57.2032C170.39 56.7283 171.268 56.4783 172.162 56.4822Z" fill="#3C3C3C"/>
<path fill-rule="evenodd" clip-rule="evenodd" d="M153.843 64.0474L156.441 64.291L157.382 62.0843L156.831 59.7997C156.831 59.108 157.011 56.1317 156.738 56.0099C156.465 55.8881 156.392 58.012 155.993 59.3321L153.609 60.1553L153.843 64.0474Z" fill="white"/>
<path fill-rule="evenodd" clip-rule="evenodd" d="M154.635 63.268L155.888 63.3849L156.478 62.0063L156.044 60.2089L154.484 60.7496L154.635 63.268ZM156.351 65.1336L153.802 64.8949C153.59 64.888 153.389 64.8022 153.237 64.6543C153.086 64.5065 152.995 64.3073 152.983 64.096L152.749 60.1991C152.74 60.0146 152.79 59.8319 152.893 59.6783C152.996 59.5247 153.145 59.4084 153.319 59.3467L155.269 58.6696C155.376 58.1825 155.464 57.632 155.537 57.1498C155.585 56.6723 155.686 56.2018 155.839 55.7469C155.869 55.6209 155.928 55.5037 156.011 55.4045C156.094 55.3053 156.199 55.227 156.318 55.1759C156.437 55.1247 156.567 55.1021 156.696 55.1099C156.825 55.1177 156.951 55.1557 157.063 55.2208C157.808 55.552 157.73 57.8512 157.682 59.1811V59.7023L158.193 61.8261C158.252 62.0168 158.241 62.2219 158.164 62.4058L157.219 64.6124C157.149 64.7809 157.027 64.9227 156.871 65.0166C156.715 65.1105 156.533 65.1515 156.351 65.1336Z" fill="#3C3C3C"/>
<path fill-rule="evenodd" clip-rule="evenodd" d="M164.672 78.0328C166.845 78.364 167.825 73.5854 165.822 73.2882L156.649 71.9194L156.766 65.2167C156.766 65.0218 156.854 65.1144 156.678 64.6224C156.503 64.1304 155.44 63.468 154.758 63.7115C154.474 63.8041 154.227 63.984 154.052 64.2255C153.877 64.467 153.783 64.7577 153.783 65.056L153.023 73.337C152.77 76.0746 153.998 76.4155 156.371 76.7809L164.672 78.0328Z" fill="#2B7CFF"/>
<path fill-rule="evenodd" clip-rule="evenodd" d="M167.631 72.6985C167.854 72.7308 168.055 72.8503 168.19 73.0308C168.325 73.2112 168.382 73.4377 168.35 73.6606C168.318 73.8834 168.198 74.0844 168.018 74.2191C167.837 74.3538 167.611 74.4114 167.388 74.3791L155.788 72.6547C155.831 70.1656 155.914 67.652 155.914 65.1678C155.923 65.1211 155.923 65.0731 155.914 65.0265C155.853 64.8835 155.752 64.7615 155.622 64.6758C155.491 64.5773 155.336 64.5167 155.174 64.5004C155.136 64.4946 155.099 64.4946 155.061 64.5004C154.935 64.5356 154.823 64.6087 154.74 64.7098C154.669 64.8222 154.63 64.952 154.628 65.0849L153.828 73.775C153.775 74.2349 153.867 74.7001 154.092 75.1049C154.165 75.2352 154.267 75.3469 154.39 75.4314C154.514 75.5158 154.655 75.5708 154.803 75.592L164.829 77.1848C165.051 77.2204 165.25 77.3427 165.382 77.525C165.514 77.7072 165.569 77.9344 165.533 78.1566C165.497 78.3788 165.375 78.5779 165.193 78.7099C165.01 78.8419 164.783 78.8961 164.561 78.8606L154.54 77.2677C154.149 77.2112 153.776 77.0681 153.448 76.849C153.12 76.6299 152.846 76.3402 152.644 76.0012C152.236 75.2794 152.066 74.4479 152.157 73.6241L152.951 65.007C152.96 64.5378 153.115 64.0831 153.395 63.706C153.674 63.329 154.064 63.0482 154.511 62.9027C154.76 62.8134 155.026 62.7769 155.29 62.7955C155.772 62.8321 156.234 63.0007 156.626 63.2826C157.042 63.5686 157.36 63.9749 157.537 64.4468C157.634 64.7066 157.674 64.9839 157.654 65.2603L157.557 71.1787L167.631 72.6985Z" fill="#3C3C3C"/>
</svg>
