<svg width="166" height="141" viewBox="0 0 166 141" fill="none" xmlns="http://www.w3.org/2000/svg">
<path d="M152.717 108.434C153.21 123.184 120.658 136.242 80.0107 137.6C39.3631 138.958 6.01222 128.102 5.51936 113.353C5.24375 105.105 15.3013 97.3864 31.3293 91.9465C43.9638 87.6584 60.3083 84.7863 78.2259 84.1876C118.874 82.8293 152.224 93.685 152.717 108.434Z" fill="#EEEEEE"/>
<path fill-rule="evenodd" clip-rule="evenodd" d="M46.249 2.43725C41.3004 0.338111 37.1349 0.971704 32.2177 2.80628C24.6661 6.05073 19.2199 11.0706 14.1148 17.4098C8.7347 24.5009 5.19898 31.3414 2.75603 39.9051C1.12043 46.4566 0.462705 52.2388 1.96606 58.874C3.16318 63.0444 4.62485 65.8398 8.1292 68.4785L11.8354 70.6264L18.3325 74.3721L56.3653 8.29258L46.249 2.43725Z" fill="#2B7CFF"/>
<path fill-rule="evenodd" clip-rule="evenodd" d="M40.065 2.26323C37.6012 2.26323 35.1929 2.90029 32.6143 3.8611C26.138 6.65647 20.6884 11.0567 15.0055 18.1095C9.63588 25.1902 6.19066 32.0202 3.85211 40.2184C2.01119 47.5706 1.78151 52.9072 3.07607 58.6198C4.14443 62.3377 5.43552 65.0182 8.82156 67.5803L17.9217 72.823L54.8306 8.70687L45.7513 3.44684C43.7503 2.61136 41.8955 2.26323 40.065 2.26323ZM18.3358 75.5C18.1375 75.5 17.9391 75.4513 17.7686 75.3573L7.56872 69.4602C3.57716 66.4629 2.06686 63.3229 0.883656 59.1907C-0.835464 51.5914 0.243333 45.3079 1.66317 39.6336C4.09569 31.1151 7.65223 24.0553 13.2168 16.724C19.1641 9.33349 24.8817 4.72792 31.7756 1.76196C36.1709 0.122335 40.9802 -1.03342 46.6943 1.38599C46.7361 1.40688 46.7814 1.42429 46.8231 1.45214L56.9395 7.31092C57.4824 7.62771 57.6633 8.3135 57.3536 8.86004L19.3068 74.943C19.1606 75.1937 18.9135 75.3851 18.6212 75.4617C18.5272 75.493 18.4333 75.5 18.3358 75.5Z" fill="#414141"/>
<path fill-rule="evenodd" clip-rule="evenodd" d="M38.3399 73.0631C53.2413 64.4611 65.3203 43.5324 65.3203 26.318C65.3203 9.0932 53.2413 2.1065 38.3399 10.7189C23.4351 19.3209 11.3457 40.267 11.3457 57.4814C11.3457 74.7132 23.4351 81.6685 38.3399 73.0631Z" fill="white"/>
<path fill-rule="evenodd" clip-rule="evenodd" d="M38.3405 73.0631H38.3719H38.3405ZM50.3814 8.16024C46.8874 8.16024 42.9829 9.35429 38.9043 11.7041C24.3371 20.1146 12.4807 40.6569 12.4807 57.4849C12.4807 65.3836 15.0837 71.2424 19.813 73.9682C24.5424 76.7044 30.9247 76.0395 37.7733 72.0779C52.3371 63.6674 64.1865 43.1355 64.1865 26.3145C64.1865 18.3949 61.58 12.5361 56.8472 9.81033C54.9332 8.7068 52.7512 8.16024 50.3814 8.16024ZM26.2754 77.8915C23.5088 77.8915 20.9475 77.2474 18.6786 75.935C13.2254 72.7846 10.2188 66.2226 10.2188 57.4849C10.2188 39.9328 22.5762 18.5063 37.7768 9.73721C45.3458 5.36139 52.5285 4.69649 57.9782 7.85043C63.4453 11.0009 66.4554 17.5629 66.4554 26.318C66.4554 43.8631 54.098 65.2688 38.9043 74.0343C38.9043 74.0343 38.9043 74.0343 38.9043 74.0448C34.4673 76.5999 30.1765 77.8915 26.2754 77.8915Z" fill="#414141"/>
<path fill-rule="evenodd" clip-rule="evenodd" d="M50.4041 17.2808L49.6976 16.9849C46.9554 16.0798 44.9648 16.2016 42.1878 16.8979C36.7172 18.6036 32.7118 21.8968 28.9047 26.0777C23.6986 32.1663 20.1977 38.8536 18.5064 46.7141C17.6886 51.2709 17.5147 55.3091 19.0737 59.7197C20.0446 62.0034 20.9494 63.3506 22.9469 64.8649L25.6161 66.3966L26.6079 66.9745C30.1644 69.4496 32.7918 70.7794 41.0151 66.0311C49.2383 61.2828 60.4507 41.8787 60.4507 32.3612C60.4507 22.8437 57.9591 21.2041 54.0058 19.3765L50.4041 17.2808Z" fill="white"/>
<path fill-rule="evenodd" clip-rule="evenodd" d="M46.0164 17.4759C44.8784 17.4759 43.7613 17.6778 42.4598 17.9945C37.9045 19.4218 34.0835 22.071 29.7404 26.8402C24.5309 32.9288 21.2076 39.5186 19.6102 46.9544C18.9421 50.6827 18.5349 54.8079 20.1392 59.3439C21.0718 61.5405 21.9278 62.6684 23.6296 63.9599L27.1722 65.9929C30.2764 68.1512 32.4548 69.6725 40.4519 65.0495C48.3862 60.4648 59.3203 41.5238 59.3203 32.3613C59.3203 23.0736 56.8948 21.9561 53.5297 20.407L49.2528 18.0259C48.0696 17.6395 47.0395 17.4759 46.0164 17.4759ZM32.2217 70.3583C29.7892 70.3583 28.0005 69.3279 25.9612 67.9006L22.3803 65.8397C19.9687 64.0365 19.0082 62.456 18.0303 60.1654C16.2242 55.0585 16.6557 50.5887 17.39 46.5123C19.0743 38.6692 22.5578 31.7521 28.0457 25.3363C32.702 20.219 36.8222 17.3888 41.8543 15.8188C44.7392 15.0947 46.9734 14.8928 50.0497 15.9058L50.8431 16.2435C50.8884 16.2609 50.9266 16.2818 50.9684 16.3027L54.5702 18.4019C58.7671 20.3269 61.5823 22.3704 61.5823 32.3613C61.5823 42.2931 50.1749 62.0522 41.5794 67.0163C37.3964 69.4323 34.5185 70.3583 32.2217 70.3583Z" fill="#414141"/>
<path fill-rule="evenodd" clip-rule="evenodd" d="M67.5439 119.721L50.8295 106.455L29.4241 65.913C27.0229 64.1028 26.031 62.1951 25.2098 59.3406C23.9222 53.6384 24.9487 48.3192 26.8558 42.8851C28.7559 37.9732 30.9866 34.1091 34.2926 30.0048C47.5305 14.524 77.0269 19.7737 93.797 25.0546C96.6366 25.9492 98.7455 27.7908 99.9948 30.4956L103.924 38.9758C104.905 41.0958 105.135 43.1845 104.63 45.4681L101.349 60.3223L119.295 101.229L100.489 111.711C100.868 112.975 96.3478 118.301 91.2531 116.856C90.5431 117.925 91.0094 120.352 85.3127 120.17C85.5563 121.239 84.1574 122.242 81.61 122.242L69.7189 120.64C68.8907 120.533 68.2016 120.244 67.5439 119.721Z" fill="white"/>
<path fill-rule="evenodd" clip-rule="evenodd" d="M51.7233 105.713L68.2532 118.834C68.7439 119.23 69.245 119.439 69.8714 119.526L81.766 121.114C83.3668 121.114 84.1428 120.574 84.2194 120.383C84.1359 120.035 84.2228 119.707 84.4456 119.439C84.6683 119.161 85.0929 119.025 85.3539 119.046C89.161 119.15 89.509 118.169 89.8674 117.204C89.9892 116.888 90.111 116.55 90.3233 116.23C90.5948 115.826 91.1133 115.631 91.5692 115.767C93.6676 116.355 95.5189 115.554 96.7091 114.775C98.4386 113.647 99.3365 112.212 99.3922 111.854C99.2391 111.342 99.4826 110.987 99.949 110.726L117.854 100.735L100.325 60.7816C100.231 60.5623 100.203 60.3186 100.252 60.0784L103.537 45.2243C103.982 43.1809 103.787 41.3428 102.903 39.4456L98.978 30.9759C97.8575 28.5565 96.0062 26.9308 93.4658 26.1301C83.4155 22.9588 49.51 13.953 35.155 30.7461C31.943 34.7356 29.7714 38.5022 27.9166 43.2992C25.7416 49.4644 25.244 54.3415 26.3193 59.0898C27.0397 61.5962 27.8644 63.309 30.109 65.0043C30.2412 65.0983 30.3491 65.2341 30.4291 65.3803L51.7233 105.713ZM81.6581 123.373C81.6442 123.373 81.6268 123.373 81.6129 123.373L69.5756 121.765C68.5316 121.629 67.6616 121.263 66.8403 120.609L50.1329 107.342C50.0076 107.245 49.9032 107.119 49.8336 106.987L28.543 66.6578C25.9713 64.6457 24.9343 62.477 24.1234 59.6537C22.9367 54.4111 23.4588 49.1406 25.7973 42.5125C27.7496 37.4544 30.0255 33.5032 33.4115 29.3049C48.7026 11.4257 83.76 20.703 94.1443 23.9787C97.2763 24.9604 99.6567 27.0526 101.028 30.029L104.957 38.4987C106.042 40.8415 106.3 43.1913 105.743 45.7256L102.545 60.2142L120.342 100.784C120.571 101.323 120.37 101.939 119.861 102.228L101.588 112.411C101.32 113.511 100.339 114.628 99.8376 115.14C98.9432 116.045 95.9052 118.753 91.931 118.172C91.3394 119.686 90.2885 121.225 86.2865 121.312C86.2065 121.507 86.0986 121.678 85.9629 121.852C85.1834 122.826 83.6138 123.373 81.6581 123.373Z" fill="#414141"/>
<path fill-rule="evenodd" clip-rule="evenodd" d="M116.247 102.583L105.571 94.2007L97.4171 81.5606L90.2762 74.4033C86.8205 70.9361 85.0214 66.79 84.844 61.899L84.5203 52.9106L69.0656 51.3789L62.9513 58.6928C61.2948 60.6771 58.8171 61.7771 56.3497 61.0043L50.5939 59.2324C50.0441 59.0583 49.6473 58.6824 49.449 58.1428C49.2506 57.6032 49.3098 57.0532 49.6195 56.5728L61.6359 37.6213C62.4885 36.2811 63.7447 35.2228 65.3177 34.9826L90.9896 30.9932C91.5708 30.8957 92.0684 31.1951 92.5104 31.5815L108.01 45.2346C121.495 57.1124 115.089 56.9 128.514 60.1201C132.579 61.0948 134.775 62.1253 140.823 64.4855C150.243 83.148 136.115 96.8186 122.313 101.104C122.313 101.1 117.445 103.095 116.247 102.583Z" fill="white"/>
<path fill-rule="evenodd" clip-rule="evenodd" d="M116.752 101.532C117.441 101.609 119.769 100.916 121.882 100.049C128.901 97.8631 137.58 92.5648 141.143 84.1508C143.618 78.3024 143.242 71.9945 140.005 65.3734L137.166 64.2455C133.456 62.7799 131.417 61.9723 128.257 61.2203C119.658 59.1595 118.833 58.425 115.91 54.909C114.41 53.1057 112.141 50.38 107.266 46.0738L91.7657 32.4311C91.5813 32.2675 91.3342 32.0934 91.1637 32.1039L65.4917 36.0933C64.0023 36.323 63.0349 37.5275 62.5895 38.2238L50.573 57.1752C50.4512 57.3597 50.4338 57.5408 50.5138 57.7427C50.5869 57.955 50.7122 58.0699 50.928 58.1395L56.6873 59.9219C58.5317 60.4928 60.5919 59.7373 62.0813 57.9654L68.1957 50.6446C68.4358 50.3661 68.8117 50.2129 69.1771 50.2512L84.6317 51.7829C85.192 51.8316 85.6305 52.2946 85.6514 52.8621L85.9785 61.8609C86.1421 66.4838 87.8055 70.3201 91.0767 73.6063L98.2176 80.7566L106.42 93.4246L116.752 101.532ZM116.78 103.778C116.397 103.778 116.067 103.729 115.802 103.614C115.708 103.576 115.628 103.527 115.548 103.468L104.871 95.0851C104.77 95.0085 104.687 94.9111 104.621 94.8066L96.4637 82.1665L89.4724 75.2007C85.8358 71.549 83.894 67.0896 83.713 61.9444L83.4242 53.9273L69.5495 52.5592L63.8144 59.4101C61.7404 61.9061 58.7475 62.9365 56.0157 62.0767L50.2598 60.3048C49.3689 60.0333 48.7043 59.3997 48.3841 58.5224C48.0639 57.6452 48.1614 56.7401 48.6625 55.9603L60.6824 37.0088C61.796 35.2474 63.3828 34.1299 65.1437 33.8584L90.8157 29.869C92.0685 29.6671 92.9559 30.4677 93.2586 30.7253L108.759 44.3785C113.773 48.7891 116.105 51.6054 117.653 53.4539C120.187 56.5068 120.65 57.0569 128.786 59.0133C132.099 59.8035 134.197 60.632 138.004 62.1463L141.23 63.417C141.498 63.5214 141.711 63.7163 141.836 63.967C145.504 71.2391 145.988 78.5252 143.231 85.028C139.358 94.1626 130.056 99.8752 122.64 102.187C121.109 102.824 118.468 103.778 116.78 103.778Z" fill="#414141"/>
<path fill-rule="evenodd" clip-rule="evenodd" d="M91.2628 117.998C91.2524 117.998 91.2385 117.998 91.2246 117.998C84.9884 117.786 79.9807 116.052 75.9126 112.707C72.008 109.48 65.0445 101.752 63.5272 99.9623C63.1236 99.4923 63.1792 98.7787 63.6559 98.3714C64.1292 97.9676 64.8496 98.0232 65.2533 98.4967C66.7462 100.258 73.5636 107.833 77.3568 110.956C81.0247 113.981 85.5835 115.54 91.3046 115.732C91.931 115.76 92.4147 116.282 92.3973 116.905C92.3764 117.518 91.8718 117.998 91.2628 117.998Z" fill="#414141"/>
<path fill-rule="evenodd" clip-rule="evenodd" d="M100.486 112.961C100.479 112.961 100.479 112.961 100.472 112.961L99.9784 112.95C95.1934 112.884 90.2413 112.815 85.7208 108.874C81.9068 105.539 71.5085 96.0215 69.3788 93.6892C68.9542 93.2262 68.982 92.5125 69.4449 92.0913C69.9008 91.6771 70.6245 91.6945 71.0421 92.1575C73.1301 94.4411 83.424 103.854 87.2068 107.168C91.1009 110.559 95.4299 110.625 100.01 110.684L100.5 110.695C101.127 110.705 101.624 111.213 101.617 111.83C101.607 112.46 101.102 112.961 100.486 112.961Z" fill="#414141"/>
<path fill-rule="evenodd" clip-rule="evenodd" d="M112.014 107.189C111.969 107.189 111.931 107.189 111.889 107.189C105.183 106.458 98.2125 105.379 93.0934 100.947C88.9975 97.4034 79.9703 89.348 78.2025 87.0644C77.8197 86.5735 77.9137 85.8599 78.4079 85.4839C78.8985 85.0975 79.6154 85.1845 79.9948 85.6754C81.4285 87.5343 89.3803 94.7403 94.5724 99.2311C99.1973 103.238 105.52 104.213 112.132 104.933C112.752 104.999 113.201 105.56 113.138 106.186C113.076 106.764 112.585 107.189 112.014 107.189Z" fill="#414141"/>
<path fill-rule="evenodd" clip-rule="evenodd" d="M85.3127 121.34C85.2744 121.34 85.2361 121.34 85.1944 121.34C80.0405 120.811 73.6095 119.759 69.611 116.233C66.312 113.323 60.904 108.226 59.1431 106.27C58.7255 105.807 58.7638 105.086 59.2301 104.672C59.6965 104.258 60.4064 104.286 60.8275 104.759C62.4944 106.611 67.8745 111.676 71.1039 114.538C74.6222 117.629 80.6043 118.593 85.4275 119.084C86.0435 119.14 86.4994 119.7 86.4368 120.316C86.3811 120.908 85.8834 121.34 85.3127 121.34Z" fill="#414141"/>
<path fill-rule="evenodd" clip-rule="evenodd" d="M155.027 61.1751L144.788 55.2606C141.176 53.7393 138.49 53.701 134.676 54.4112C128.763 55.8872 124.514 58.6234 119.903 62.5153C119.12 63.2081 118.111 64.1549 117.373 64.8929C110.712 71.5489 105.311 80.4329 102.322 89.3446C100.787 93.9119 99.994 98.0371 99.6947 102.785C99.5416 109.894 100.669 116.776 106.669 121.312L116.868 127.209L155.027 61.1751Z" fill="#2B7CFF"/>
<path fill-rule="evenodd" clip-rule="evenodd" d="M138.838 55.0865C137.586 55.0865 136.315 55.2502 134.882 55.5217C129.084 56.9768 124.981 59.713 120.638 63.3821C119.886 64.047 118.898 64.973 118.174 65.6936C111.757 72.1094 106.37 80.868 103.395 89.7102C101.916 94.1139 101.122 98.159 100.823 102.852C100.701 108.613 101.331 115.857 107.358 120.407L116.462 125.657L153.479 61.5894L144.232 56.2423C142.259 55.4138 140.571 55.0865 138.838 55.0865ZM116.873 128.334C116.681 128.334 116.486 128.285 116.312 128.181L106.109 122.294C99.1491 117.044 98.4253 109.104 98.561 102.754C98.8776 97.8109 99.7024 93.5813 101.248 88.9896C104.331 79.8272 109.913 70.7518 116.57 64.0958C117.329 63.3334 118.355 62.3691 119.159 61.6694C123.14 58.3066 127.734 54.9821 134.398 53.3077C138.229 52.594 141.208 52.5174 145.235 54.2232L155.598 60.1969C155.859 60.3501 156.04 60.5903 156.127 60.8792C156.197 61.1786 156.155 61.4849 156.012 61.746L117.854 127.77C117.645 128.132 117.266 128.334 116.873 128.334Z" fill="#414141"/>
<path fill-rule="evenodd" clip-rule="evenodd" d="M136.871 125.89C151.779 117.288 163.858 96.3698 163.858 79.1449C163.858 61.9271 151.782 54.9439 136.871 63.5493C121.973 72.1617 109.887 93.1044 109.887 110.312C109.887 127.537 121.973 134.502 136.871 125.89Z" fill="white"/>
<path fill-rule="evenodd" clip-rule="evenodd" d="M148.924 60.9834C145.426 60.9834 141.518 62.1775 137.443 64.5272C122.873 72.9482 111.02 93.4766 111.02 110.308C111.02 118.217 113.626 124.076 118.352 126.802C123.085 129.538 129.471 128.863 136.309 124.915C150.88 116.494 162.726 95.9656 162.726 79.1447C162.726 71.2354 160.126 65.3766 155.386 62.6404C153.479 61.5404 151.294 60.9834 148.924 60.9834ZM124.818 130.725C122.055 130.725 119.49 130.071 117.228 128.769C111.765 125.618 108.758 119.056 108.758 110.308C108.758 92.7525 121.122 71.3364 136.312 62.5708C143.881 58.195 151.068 57.5231 156.528 60.6806C161.988 63.831 165.001 70.393 165.001 79.1412C165.001 96.6862 152.637 118.092 137.447 126.868C133.013 129.434 128.719 130.725 124.818 130.725Z" fill="#414141"/>
<path fill-rule="evenodd" clip-rule="evenodd" d="M57.5044 111.516L49.6118 111.283C48.4008 111.245 47.3707 110.841 46.4694 110.019L45.2444 108.912C44.183 107.948 43.6401 106.716 43.6401 105.281V102.19L42.965 102.006C41.9453 101.727 41.138 101.198 40.4699 100.376L38.2809 97.6785C37.5849 96.8222 37.2369 95.8857 37.1951 94.7787L37.1151 92.6204L36.3148 92.3419C35.1107 91.9102 34.2058 91.1757 33.5412 90.0757L32.1561 87.7746C31.2374 86.2533 30.8546 84.6903 30.9625 82.908L31.0182 81.9263C28.0115 80.4816 25.8087 77.5922 25.9096 73.8326L25.9653 71.434L26.2506 66.3968C26.5569 63.5945 27.5452 63.0061 29.8071 62.8147C30.8442 62.7276 32.0135 62.853 32.9565 63.2881L34.2233 63.8764C35.3021 64.3673 35.8797 64.9068 36.6836 65.9756C37.3587 66.8807 37.7171 67.8241 37.8076 68.952L37.8703 69.7039L37.8843 72.1511L39.3806 72.8265L41.0023 74.2433C42.3456 75.42 43.0276 76.9795 42.972 78.7619L42.8467 83.3187C43.5636 83.6773 44.1482 83.9836 44.8477 84.5337L46.4694 85.8147C47.8613 86.9043 48.6965 89.0905 48.6409 90.8137L48.4494 96.4601C50.3495 96.5472 51.2056 97.2016 52.9282 98.5976C54.094 99.541 54.783 100.745 54.9988 102.239L55.6948 106.938L57.5044 111.516Z" fill="white"/>
<path fill-rule="evenodd" clip-rule="evenodd" d="M30.4254 63.9215C30.2549 63.9215 30.0844 63.932 29.9139 63.9424C28.1913 64.0956 27.638 64.2522 27.3909 66.5254L27.0498 73.8568C26.9733 76.8923 28.6402 79.5206 31.5217 80.9096C31.9323 81.1115 32.1863 81.5467 32.1584 81.9992L32.0993 82.9809C32.0088 84.5335 32.3325 85.8633 33.1329 87.1931L34.5214 89.4976C35.0503 90.3749 35.7429 90.9423 36.7033 91.28L37.5003 91.5689C37.9318 91.7221 38.231 92.1294 38.2484 92.5889L38.3285 94.7368C38.3633 95.6036 38.6278 96.3068 39.1672 96.9717L41.3596 99.6696C41.8816 100.307 42.4697 100.69 43.2701 100.923L43.9487 101.107C44.4428 101.243 44.7804 101.696 44.7804 102.197L44.7769 105.288C44.7769 106.395 45.1945 107.342 46.0158 108.084L47.2407 109.191C47.9333 109.828 48.7058 110.134 49.6489 110.165L55.8293 110.339L54.6566 107.37L53.8945 102.399C53.717 101.205 53.1707 100.251 52.2276 99.4781C50.5328 98.1031 49.9239 97.6679 48.417 97.5983C47.7976 97.5705 47.3138 97.0483 47.3382 96.4217L47.5261 90.7752C47.5748 89.2922 46.8127 87.4995 45.7896 86.6988L44.1714 85.4177C43.5554 84.9478 43.0299 84.6658 42.3548 84.3316C41.9651 84.1297 41.718 83.7259 41.7354 83.2803L41.8642 78.7234C41.9059 77.2787 41.37 76.0534 40.2808 75.0995L38.7774 73.7906L37.4307 73.1849C37.027 72.9934 36.7694 72.5966 36.7625 72.1545L36.6964 69.0527C36.6163 68.1372 36.3345 67.3957 35.7847 66.6542C35.0434 65.6725 34.6084 65.2966 33.7628 64.9101L32.4961 64.3218C31.9323 64.0573 31.1806 63.9215 30.4254 63.9215ZM57.5067 112.64C57.4963 112.64 57.4893 112.64 57.4788 112.64L49.5828 112.418C48.1038 112.369 46.8058 111.85 45.7165 110.858L44.4916 109.751C43.197 108.574 42.5114 107.032 42.5114 105.281L42.5149 103.057C41.3387 102.702 40.3817 102.054 39.5987 101.093L37.4028 98.3955C36.5537 97.3442 36.1118 96.1815 36.0596 94.8203L35.9308 93.4139C34.4761 92.8848 33.38 91.9867 32.5796 90.6569L31.1911 88.3628C30.161 86.65 29.7155 84.8468 29.8373 82.8416L29.8547 82.591C26.5731 80.732 24.6939 77.4946 24.7844 73.7941L24.8435 71.406L25.1359 66.3374C25.5187 62.724 27.1125 61.9059 29.719 61.6831C31.0448 61.5682 32.3882 61.7806 33.4322 62.2505L34.7058 62.8389C36.0561 63.455 36.759 64.1687 37.5977 65.2861C38.4085 66.3757 38.84 67.5106 38.9514 68.8508L39.0106 69.5923L39.0211 71.413L39.8632 71.7889C39.9606 71.8377 40.0546 71.8934 40.1416 71.9734L41.7632 73.3903C43.3675 74.7862 44.1784 76.6556 44.1227 78.7861L44.0148 82.6293C44.5229 82.9078 45.01 83.2072 45.5634 83.6319L47.1851 84.9129C48.9738 86.3193 49.8473 88.9581 49.7881 90.8483L49.635 95.4539C51.2532 95.7637 52.2554 96.5714 53.6509 97.7167C55.0394 98.8341 55.8746 100.3 56.1286 102.061L56.8246 106.771L58.5577 111.095C58.6934 111.45 58.6516 111.847 58.4289 112.153C58.2235 112.466 57.8791 112.64 57.5067 112.64Z" fill="#414141"/>
<path fill-rule="evenodd" clip-rule="evenodd" d="M27.2593 65.9337L30.6801 68.5933L30.3043 74.4974C30.2939 74.6436 30.1059 74.6889 29.9633 74.6889C29.8241 74.7063 29.5282 74.4104 29.4273 74.3129L28.0144 72.8961C27.5794 72.4714 27.1061 71.9701 27.1235 71.3539L27.2593 65.9337Z" fill="white"/>
<path fill-rule="evenodd" clip-rule="evenodd" d="M28.3339 68.2106L28.2503 71.3889C28.2469 71.4864 28.4348 71.737 28.8107 72.1026L29.2909 72.5829L29.5136 69.1157L28.3339 68.2106ZM29.9626 75.8309C29.4197 75.8309 28.9986 75.4932 28.6227 75.1277L27.2063 73.7109C26.7365 73.2409 25.9501 72.4576 25.9814 71.3332L26.1241 65.9096C26.1346 65.4849 26.3885 65.1019 26.7713 64.9174C27.1541 64.7329 27.6066 64.7817 27.9476 65.0427L31.3684 67.7024C31.6642 67.9321 31.8313 68.2907 31.8069 68.6666L31.4311 74.5812C31.3928 75.159 30.9509 75.7752 30.0356 75.8344C30.0113 75.8309 29.9869 75.8309 29.9626 75.8309Z" fill="#414141"/>
<path fill-rule="evenodd" clip-rule="evenodd" d="M32.0177 75.058L35.9642 77.6863L35.9398 82.7827C35.9398 82.908 35.8945 83.0159 35.8075 83.0995C35.7205 83.1865 35.6127 83.2248 35.4909 83.2248H34.9967C34.2033 83.2143 33.5246 82.908 33.0061 82.3092L32.6407 81.895C32.1987 81.3832 31.9829 80.7984 31.9864 80.1231L32.0177 75.058Z" fill="white"/>
<path fill-rule="evenodd" clip-rule="evenodd" d="M33.1326 77.1675L33.1186 80.1334C33.1151 80.5373 33.237 80.8471 33.4945 81.1465L33.8599 81.5712C34.1174 81.8705 34.4341 82.0446 34.8065 82.0829L34.8308 78.2884L33.1326 77.1675ZM35.485 82.1003H35.4885C35.4851 82.1003 35.485 82.1003 35.485 82.1003ZM35.4885 84.3666C35.4851 84.3666 35.4781 84.3666 35.4676 84.3666H34.9874C33.8634 84.3561 32.882 83.8931 32.1478 83.0576L31.7823 82.6434C31.1594 81.9193 30.8462 81.0734 30.8496 80.13L30.881 75.0614C30.8845 74.6367 31.1176 74.2607 31.483 74.0588C31.8484 73.8674 32.2939 73.8848 32.6419 74.118L36.5882 76.7463C36.9049 76.9586 37.0963 77.3068 37.0963 77.6897L37.072 82.7965C37.072 83.2108 36.9014 83.6146 36.5952 83.914C36.3063 84.2029 35.9096 84.3666 35.4885 84.3666Z" fill="#414141"/>
<path fill-rule="evenodd" clip-rule="evenodd" d="M38.6294 86.1L42.5828 89.1042L42.5584 93.8247C42.5584 93.9396 42.5096 94.0544 42.4226 94.1415C42.3321 94.2285 42.2278 94.2668 42.1025 94.2668H41.6118C40.8254 94.2563 40.1433 93.9395 39.6248 93.3408L39.2593 92.9265C38.8139 92.4148 38.6016 91.8369 38.6016 91.1546L38.6294 86.1Z" fill="white"/>
<path fill-rule="evenodd" clip-rule="evenodd" d="M39.7525 88.3733L39.7386 91.1687C39.7351 91.5725 39.85 91.8823 40.1145 92.1887L40.4764 92.6029C40.7409 92.9128 41.0506 93.0764 41.4299 93.1251L41.4474 89.6648L39.7525 88.3733ZM42.1051 93.1321H42.112C42.1085 93.1321 42.1085 93.1321 42.1051 93.1321ZM41.423 93.8144V93.8248V93.8144ZM42.112 95.4053C42.1051 95.4053 42.1016 95.4053 42.0911 95.4053L41.6109 95.3948C40.4834 95.3844 39.502 94.9318 38.7746 94.0859L38.4128 93.6717C37.7864 92.958 37.4731 92.1121 37.4766 91.1548L37.501 86.0896C37.5045 85.6649 37.7481 85.2716 38.1344 85.0766C38.5137 84.8851 38.973 84.9339 39.321 85.1915L43.2674 88.2062C43.5528 88.4185 43.7164 88.7562 43.7164 89.1113L43.6885 93.8318C43.6885 94.2356 43.5214 94.6429 43.2256 94.9388C42.9298 95.2312 42.5331 95.4053 42.112 95.4053Z" fill="#414141"/>
<path fill-rule="evenodd" clip-rule="evenodd" d="M45.1465 98.8723L49.0929 101.723L48.7553 105.807C48.731 106.037 48.5361 106.221 48.3029 106.211H47.7739C46.9805 106.2 46.3054 105.894 45.7834 105.295L45.7659 105.267C45.3275 104.776 45.1709 103.38 45.1709 102.716L45.1465 98.8723Z" fill="white"/>
<path fill-rule="evenodd" clip-rule="evenodd" d="M46.2936 101.101L46.304 102.709C46.3075 103.45 46.485 104.338 46.6311 104.54C46.92 104.878 47.261 105.048 47.6717 105.08L47.9048 102.277L46.2936 101.101ZM48.3086 107.353C48.3051 107.353 48.3016 107.353 48.2981 107.353L47.7726 107.342C46.6555 107.342 45.6741 106.89 44.9398 106.04C44.0733 105.059 44.049 102.959 44.0455 102.719L44.0176 98.8865C44.0141 98.4514 44.2508 98.058 44.6301 97.8665C45.006 97.6751 45.4688 97.7029 45.8098 97.9536L49.7597 100.815C50.0799 101.048 50.2574 101.431 50.2226 101.828L49.885 105.912C49.8015 106.737 49.1264 107.353 48.3086 107.353Z" fill="#414141"/>
<path fill-rule="evenodd" clip-rule="evenodd" d="M37.8992 72.1478C37.0953 72.2244 36.4411 72.3114 35.9086 72.4263C34.5758 72.7153 32.9088 73.2061 32.0736 74.3061C31.2628 75.3749 31.1584 80.3669 31.0296 81.9264C30.873 75.3192 29.5645 71.744 37.8992 72.1478Z" fill="white"/>
<path fill-rule="evenodd" clip-rule="evenodd" d="M31.0289 83.0646C31.015 83.0646 31.0046 83.0646 30.9941 83.0646C30.3921 83.0367 29.9118 82.5529 29.8979 81.9576C29.8805 81.1674 29.8457 80.4258 29.8074 79.7226C29.6647 76.6279 29.5464 74.1911 31.1472 72.5932C32.4035 71.34 34.5124 70.8596 37.9506 71.0128C38.5457 71.0406 39.0119 71.5245 39.0293 72.1093C39.0502 72.7081 38.6048 73.2059 38.0167 73.2651C37.2615 73.3521 36.6491 73.4287 36.148 73.5366C35.539 73.6724 33.6841 74.0657 32.9812 75.0022C32.5253 75.6775 32.3199 79.378 32.2399 80.7635C32.2086 81.2822 32.1877 81.7174 32.1599 82.0237C32.1077 82.612 31.617 83.0646 31.0289 83.0646Z" fill="#414141"/>
<path fill-rule="evenodd" clip-rule="evenodd" d="M54.1453 48.9004L57.2703 49.2589C57.5522 49.2868 57.7784 49.433 57.928 49.6732C58.8606 51.1666 53.0247 57.015 51.9911 58.2195L48.1875 57.4501C49.4751 54.512 50.9262 51.7654 53.3066 49.2972C53.5467 49.0466 53.8077 48.8725 54.1453 48.9004Z" fill="white"/>
<path fill-rule="evenodd" clip-rule="evenodd" d="M49.8078 56.6182L51.5826 56.9733C51.6905 56.8584 51.8123 56.7331 51.948 56.5869C55.4767 52.7715 56.5973 51.0867 56.8409 50.3452L54.1612 50.0458C52.1324 52.1588 50.8379 54.4216 49.8078 56.6182ZM51.9932 59.3544C51.9132 59.3544 51.8436 59.344 51.7636 59.3266L47.9634 58.5572C47.6328 58.4911 47.344 58.2683 47.1839 57.9689C47.0273 57.6591 47.0133 57.304 47.1525 56.9942C48.381 54.1814 49.8774 51.2224 52.4909 48.5071C53.0338 47.9571 53.6323 47.7064 54.2657 47.783L57.3907 48.1311C58.0206 48.1973 58.553 48.5349 58.8836 49.0641C59.9381 50.7594 57.9336 53.4469 53.608 58.1221C53.2635 58.4876 53.0025 58.7766 52.8459 58.9611C52.6336 59.2117 52.3168 59.3544 51.9932 59.3544Z" fill="#414141"/>
<path fill-rule="evenodd" clip-rule="evenodd" d="M42.8637 83.3151C41.0402 83.5066 38.7712 84.0775 37.943 85.6858C37.3931 86.7754 37.2678 91.1582 37.1182 92.6238C36.9302 87.8337 35.6148 82.967 42.8637 83.3151Z" fill="white"/>
<path fill-rule="evenodd" clip-rule="evenodd" d="M37.1216 93.7589C37.1076 93.7589 37.0938 93.7589 37.0798 93.7589C36.4848 93.7415 36.0115 93.268 35.9836 92.6692C35.9593 92.1018 35.928 91.5309 35.8897 90.9739C35.7088 88.2969 35.5243 85.5294 37.2469 83.7679C38.4161 82.5738 40.2884 82.0447 42.9157 82.1805C43.5108 82.2083 43.9771 82.6887 43.9945 83.277C44.0084 83.8758 43.5699 84.3736 42.9818 84.4432C40.8486 84.666 39.4183 85.2926 38.952 86.2047C38.6423 86.793 38.4544 89.6824 38.3639 91.0818C38.3187 91.7572 38.2805 92.3525 38.2352 92.7493C38.1795 93.3237 37.6923 93.7589 37.1216 93.7589Z" fill="#414141"/>
<path fill-rule="evenodd" clip-rule="evenodd" d="M48.3423 96.474C43.9436 96.7629 43.9158 98.6219 43.6305 102.35C43.5365 97.7864 43.1328 96.2825 48.3423 96.474Z" fill="white"/>
<path fill-rule="evenodd" clip-rule="evenodd" d="M43.6381 103.346C43.6311 103.346 43.6242 103.346 43.6103 103.346C43.0083 103.336 42.5106 102.98 42.5002 102.371L42.4793 101.532C42.4167 99.2208 42.3749 97.5534 43.4954 96.4464C44.3863 95.5621 45.7888 95.2419 48.3919 95.3393C48.9904 95.3672 49.4706 95.8615 49.4811 96.4568C49.488 97.0625 49.0217 97.5638 48.4196 97.6021C45.1136 97.8145 45.0475 98.6534 44.7865 102.169C44.783 102.208 44.7761 102.256 44.7726 102.305L44.7656 102.323C44.6438 102.862 44.1775 103.346 43.6381 103.346Z" fill="#414141"/>
<path fill-rule="evenodd" clip-rule="evenodd" d="M67.7305 47.6577C68.068 48.6116 69.3522 51.0588 67.5391 53.245C68.9311 51.8003 70.1665 51.6262 71.6803 51.6367C69.3556 51.0518 68.6562 49.0467 67.7305 47.6577Z" fill="white"/>
<path fill-rule="evenodd" clip-rule="evenodd" d="M67.5414 54.3831C67.2734 54.3831 67.0019 54.2856 66.7896 54.0941C66.3337 53.6903 66.2816 52.9976 66.6714 52.5241C67.7745 51.1943 67.3499 49.767 66.8175 48.4198L66.6679 48.0438C66.4765 47.4938 66.7131 46.909 67.2211 46.6479C67.7362 46.3868 68.3557 46.5504 68.6793 47.0343C68.8673 47.3128 69.0482 47.6226 69.2326 47.9394C69.9077 49.0952 70.5446 50.1743 71.9645 50.5294C72.5178 50.6756 72.8832 51.2048 72.8066 51.7722C72.7335 52.3396 72.2568 52.7643 71.6861 52.7643C70.2697 52.8618 69.4101 52.9488 68.3591 54.028C68.1364 54.2682 67.8372 54.3831 67.5414 54.3831Z" fill="#414141"/>
<path fill-rule="evenodd" clip-rule="evenodd" d="M88.266 50.9646C86.6826 51.8036 86.1223 52.3605 82.082 52.6599C85.3463 52.9872 84.2674 54.0837 84.6363 56.0715C84.7372 52.9384 86.5991 52.3988 88.266 50.9646Z" fill="white"/>
<path fill-rule="evenodd" clip-rule="evenodd" d="M84.6346 57.1961C84.0917 57.1961 83.6184 56.8097 83.521 56.2701C83.4166 55.7027 83.4096 55.1909 83.4096 54.7488C83.4061 54.5086 83.4062 54.1814 83.3679 54.0944C83.354 54.0944 83.0964 53.9029 81.9724 53.7845C81.3843 53.7358 80.9423 53.2345 80.9493 52.6462C80.9563 52.0579 81.4156 51.5775 82.0003 51.5287C85.3202 51.2885 86.0301 50.8952 87.1993 50.2477L87.7388 49.9587C88.2468 49.6872 88.8802 49.8439 89.2038 50.3173C89.5309 50.7977 89.4474 51.4452 89.0124 51.8177C88.6366 52.1345 88.2503 52.4234 87.8675 52.7054C86.6008 53.6314 85.8352 54.1884 85.7725 56.1065C85.7551 56.6774 85.3027 57.1474 84.7216 57.1961C84.6868 57.1961 84.6624 57.1961 84.6346 57.1961Z" fill="#414141"/>
</svg>
