<svg width="208" height="201" viewBox="0 0 208 201" fill="none" xmlns="http://www.w3.org/2000/svg">
<g clip-path="url(#clip0_651_11549)">
<path opacity="0.2" fill-rule="evenodd" clip-rule="evenodd" d="M176.281 155.329L78.0643 98.4979C74.0515 96.1762 67.4953 96.1806 63.4911 98.4979L3.17661 133.454C-0.831909 135.78 -0.831909 139.574 3.17661 141.896L101.433 198.727C105.441 201.045 112.002 201.045 116.01 198.727L176.281 163.767C180.307 161.449 180.307 157.647 176.281 155.329Z" fill="black"/>
<path fill-rule="evenodd" clip-rule="evenodd" d="M185.413 146.26L189.709 143.333L189.869 143.063L190.013 142.776L190.143 142.466L190.256 142.144L190.356 141.804L190.439 141.443L190.5 141.068L190.548 140.676L190.578 140.267V139.831L190.548 70.2498C190.533 69.3479 190.424 68.45 190.222 67.571C189.406 64.2548 187.621 61.2579 185.096 58.9637C184.531 58.4781 183.926 58.041 183.287 57.657L85.4702 1.11299L85.1006 0.908279L84.7311 0.729698L84.3702 0.572866L84.0137 0.442194L83.6616 0.333297L83.3181 0.246173L82.9833 0.185211L82.6529 0.145996H82.3312H82.0181L81.7138 0.176491L81.4182 0.224399L81.1356 0.294108L80.8617 0.385565L80.5965 0.498823L80.3443 0.629495L76.0489 3.56103L76.288 3.41292L76.5488 3.30402L76.8227 3.20821L77.1097 3.14286L77.4053 3.09059L77.7053 3.06445H78.027H78.3488L78.6792 3.10364L79.0183 3.16463L79.3618 3.25175L79.7096 3.35629L80.0661 3.49132L80.4313 3.64813L80.7965 3.82674L81.1704 4.03145L178.992 60.5797C180.316 61.3758 181.493 62.3956 182.47 63.594C183.084 64.3581 183.643 65.1645 184.144 66.0072C185.404 68.2723 186.222 70.5243 186.278 73.177L186.304 142.758V143.194L186.278 143.603L186.231 143.995L186.165 144.37L186.087 144.727L185.987 145.071L185.874 145.393L185.744 145.698L185.596 145.986L185.413 146.26Z" fill="#2B7CFF"/>
<path fill-rule="evenodd" clip-rule="evenodd" d="M185.848 146.888L190.143 143.961C190.236 143.897 190.313 143.814 190.369 143.717L190.53 143.447C190.547 143.419 190.562 143.39 190.574 143.359L190.696 143.12L190.722 143.068L190.848 142.763V142.723L190.965 142.401C190.966 142.378 190.966 142.355 190.965 142.331L191.056 142.009C191.059 141.98 191.059 141.951 191.056 141.922L191.13 141.613V141.569L191.195 141.195L191.248 140.759L191.278 140.323V140.241C191.765 117.315 191.526 93.2273 191.278 70.2543C191.27 69.7766 191.236 69.2997 191.178 68.8256C191.122 68.39 191.039 67.9196 190.935 67.4273V67.3751C190.502 65.658 189.823 64.0131 188.917 62.4921C188.016 60.976 186.893 59.6033 185.587 58.4193C185.27 58.1449 184.97 57.9097 184.665 57.6875C184.361 57.4654 184.057 57.2519 183.683 57.0385C151.641 38.0337 118.034 18.1795 85.4266 0.268039H85.3962L85.031 0.0894323L84.6354 -0.0848144H84.5701L84.2397 -0.206766L84.1615 -0.2329L83.8485 -0.328744H83.8093L83.4659 -0.415841H83.3745L83.0789 -0.468109H83.0398L82.7094 -0.507324H82.605H82.3355H81.9007L81.5964 -0.48119H81.4877L81.2442 -0.437641H81.166L80.9008 -0.372292H80.8442L80.5703 -0.280809L80.4703 -0.241621L80.2486 -0.145777L80.1877 -0.119642L79.94 0.0153894L79.866 0.0589378L75.5706 2.99048C75.3976 3.09561 75.2734 3.26525 75.2253 3.46212C75.1772 3.65899 75.2092 3.86695 75.3141 4.04024C75.419 4.21353 75.5884 4.33796 75.7849 4.38615C75.9814 4.43435 76.1889 4.40238 76.3618 4.29725L76.5879 4.17963L76.7879 4.09251L76.9879 4.02716L77.214 3.97056L77.4835 3.92698H77.7096H78.027H78.2965L78.6052 3.9662L78.8922 4.01847L79.1791 4.08815L79.4748 4.17963L79.8052 4.30158L80.1356 4.44533L80.5138 4.62828C113.312 22.6269 146.163 42.5682 178.661 61.3421C179.277 61.7144 179.859 62.14 180.4 62.614C180.941 63.1018 181.447 63.6273 181.913 64.1866C182.226 64.5699 182.5 64.9401 182.757 65.3104C183.013 65.6806 183.265 66.077 183.518 66.4995C184.112 67.5403 184.599 68.6394 184.97 69.7795C185.33 70.919 185.526 72.1041 185.552 73.2991L185.578 142.85V143.242L185.552 143.625L185.509 143.987C185.47 144.209 185.435 144.422 185.387 144.623L185.291 144.949L185.196 145.224L185.083 145.481L184.961 145.725L184.818 145.969C184.73 146.117 184.695 146.29 184.719 146.461C184.743 146.631 184.824 146.789 184.949 146.907C185.074 147.025 185.235 147.097 185.407 147.111C185.578 147.125 185.749 147.08 185.891 146.984L185.848 146.888ZM189.148 142.798L186.935 144.309L186.965 144.13V144.087L187.009 143.69L187.039 143.255C188.017 120.791 187.039 95.9193 187.039 73.1815C187.01 71.8506 186.791 70.5306 186.391 69.2612C185.991 68.0173 185.462 66.8188 184.813 65.685V65.6589C184.539 65.2233 184.274 64.7877 183.991 64.3782C183.709 63.9688 183.405 63.5637 183.074 63.1542C182.559 62.5336 182 61.9513 181.4 61.4118C180.795 60.8754 180.141 60.3957 179.448 59.9787C147.393 40.5819 113.964 22.3829 81.5616 3.40863L81.2442 3.23005L81.1616 3.18647L80.7921 3.00353L80.3964 2.83365L80.0008 2.68556H79.966L79.6139 2.57666L79.2574 2.48518H79.1878H79.0835L80.7573 1.34393L80.9443 1.24376L81.1355 1.16535L81.3833 1.08259L81.592 1.03032L81.8138 0.995468L82.1051 0.969333H82.3268H82.5833L82.9094 1.00852L83.1615 1.05646L83.4876 1.13486L83.7745 1.22632L84.1006 1.34829L84.4354 1.48769L84.7875 1.66191L85.131 1.84921L182.952 58.3888C183.252 58.5657 183.542 58.7576 183.822 58.9638C184.105 59.1686 184.374 59.3994 184.657 59.6215C185.85 60.6999 186.876 61.9508 187.7 63.3328C188.53 64.7268 189.151 66.2355 189.543 67.8107C189.643 68.2463 189.713 68.6818 189.765 69.0739C189.818 69.4945 189.848 69.9176 189.856 70.3414L189.882 139.896C189.882 140.167 189.882 140.397 189.848 140.667L189.804 141.029L189.748 141.386C189.7 141.595 189.652 141.77 189.591 141.974L189.482 142.284L189.378 142.527C189.287 142.58 189.23 142.68 189.161 142.802L189.148 142.798Z" fill="#3C3C3C"/>
<path fill-rule="evenodd" clip-rule="evenodd" d="M179.022 60.5929L81.2001 4.0446C77.2047 1.73162 73.9396 3.609 73.944 8.24803L73.97 77.8292C73.97 82.4551 77.2395 88.1222 81.2349 90.4352L179.056 146.979C183.047 149.288 186.317 147.415 186.312 142.771L186.282 73.1901C186.282 68.5685 183.013 62.8972 179.022 60.5929Z" fill="white"/>
<path fill-rule="evenodd" clip-rule="evenodd" d="M179.399 59.9353L81.5772 3.38698C80.4925 2.71284 79.2489 2.33862 77.973 2.30237C77.1761 2.28904 76.3906 2.49372 75.7011 2.89437C75.0117 3.29502 74.4443 3.87646 74.0602 4.57614C73.4541 5.70263 73.1542 6.96895 73.1906 8.24816L73.2167 77.8293C73.2167 80.2817 74.0862 82.991 75.4514 85.3824C76.8166 87.7738 78.7425 89.869 80.8598 91.093L178.681 147.637C179.765 148.309 181.007 148.684 182.281 148.722C183.078 148.735 183.864 148.53 184.554 148.128C185.244 147.727 185.811 147.144 186.194 146.443C186.8 145.317 187.1 144.051 187.063 142.771L187.033 73.1903C187.033 70.7423 186.163 68.0329 184.798 65.6415C183.433 63.2501 181.507 61.1549 179.39 59.9353H179.399ZM80.799 4.71989L178.62 61.2638C180.498 62.3484 182.216 64.2433 183.472 66.4212C184.729 68.5992 185.507 71.0341 185.507 73.2077L185.533 142.789C185.572 143.803 185.344 144.809 184.872 145.707C184.615 146.175 184.236 146.565 183.777 146.835C183.312 147.096 182.787 147.23 182.255 147.223C181.248 147.185 180.268 146.885 179.412 146.352L81.5859 89.7775C79.7077 88.6929 77.9904 86.7981 76.7383 84.6202C75.4862 82.4422 74.7036 80.0073 74.7036 77.8293L74.6775 8.24816C74.64 7.23476 74.8662 6.22902 75.334 5.32973C75.594 4.86493 75.9719 4.47722 76.4296 4.2059C76.8931 3.94262 77.4186 3.80874 77.9513 3.81821C78.9629 3.86395 79.9448 4.17487 80.799 4.71989Z" fill="#3C3C3C"/>
<path fill-rule="evenodd" clip-rule="evenodd" d="M178.586 65.8113L152.805 50.9185L81.6041 9.76829C79.7694 8.70981 78.2825 9.57227 78.2825 11.6936L78.3086 79.4453C78.3711 80.6003 78.705 81.7243 79.2829 82.7257C79.8608 83.7271 80.6665 84.5777 81.6345 85.2082L161.978 131.642L178.608 141.256C180.443 142.314 181.93 141.456 181.93 139.335L181.904 71.5785C181.841 70.4239 181.508 69.3002 180.932 68.2984C180.356 67.2965 179.552 66.4445 178.586 65.8113Z" fill="white"/>
<path fill-rule="evenodd" clip-rule="evenodd" d="M178.964 65.1538L82.0124 9.1108C81.451 8.76682 80.8095 8.57609 80.1516 8.55759C79.7148 8.54902 79.2839 8.66011 78.9054 8.87889C78.5269 9.09766 78.2152 9.4158 78.0039 9.79901C77.6968 10.3819 77.547 11.0351 77.5692 11.6938L77.5952 79.4455C77.6573 80.734 78.0258 81.989 78.6701 83.1059C79.3145 84.2227 80.216 85.1691 81.2994 85.8661L178.238 141.931C178.801 142.275 179.444 142.466 180.103 142.484C180.539 142.49 180.968 142.378 181.347 142.162C181.722 141.939 182.032 141.622 182.247 141.243C182.554 140.661 182.704 140.01 182.681 139.352L182.655 71.5962C182.594 70.3068 182.226 69.0508 181.582 67.9331C180.938 66.8153 180.035 65.8683 178.951 65.1712L178.964 65.1538ZM152.444 51.5765L178.221 66.4693C179.072 67.0358 179.78 67.7918 180.291 68.6782C180.801 69.5646 181.1 70.5573 181.164 71.5787L181.182 139.317C181.2 139.71 181.114 140.101 180.934 140.45C180.853 140.6 180.733 140.725 180.586 140.811C180.439 140.894 180.272 140.936 180.103 140.933C179.71 140.914 179.328 140.792 178.995 140.581L82.0168 84.5506C81.1657 83.9855 80.4569 83.2304 79.9462 82.3446C79.4355 81.4588 79.1367 80.4665 79.0734 79.4455L79.0473 11.6895C79.0315 11.2955 79.1168 10.9041 79.2952 10.5526C79.3759 10.4025 79.4962 10.2774 79.643 10.1911C79.7921 10.109 79.9598 10.067 80.1299 10.0691C80.5223 10.0888 80.9029 10.2104 81.2342 10.4219L152.444 51.5765Z" fill="#3C3C3C"/>
<path fill-rule="evenodd" clip-rule="evenodd" d="M6.7516 132.187V137.505L6.83418 137.793L6.94287 138.071L7.06897 138.35L7.22113 138.625L7.39938 138.899L7.59937 139.165L7.82109 139.426L8.06889 139.683L8.33844 139.936L8.63409 140.18L8.95146 140.415L9.29059 140.646L9.65578 140.868L107.89 197.699L108.273 197.908L108.668 198.104L109.077 198.292L109.499 198.462L109.934 198.614L110.377 198.758L110.834 198.888L111.294 199.002L111.764 199.106L112.238 199.193L112.72 199.267L113.203 199.328L113.694 199.376L114.186 199.411L114.681 199.433L115.177 199.437L115.672 199.429L116.168 199.411L116.659 199.376L117.146 199.328L117.633 199.267L118.116 199.189L118.59 199.102L119.059 199.002L119.52 198.884L119.977 198.753L120.42 198.614L120.85 198.457L121.276 198.287L121.685 198.1L122.081 197.904L122.463 197.695L182.782 162.734L183.143 162.512L183.487 162.286L183.804 162.046L184.095 161.802L184.365 161.55L184.613 161.293L184.834 161.031L185.034 160.766L185.208 160.491L185.36 160.217L185.491 159.938L185.595 159.659L185.678 159.376V154.053L185.595 154.336L185.491 154.615L185.36 154.894L185.208 155.173L185.034 155.443L184.834 155.708L184.613 155.974L184.365 156.231L184.095 156.479L183.804 156.723L183.487 156.963L183.143 157.194L182.782 157.416L122.463 192.372L122.081 192.581L121.685 192.777L121.276 192.964L120.85 193.134L120.42 193.291L119.977 193.435L119.52 193.561L119.059 193.679L118.59 193.779L118.116 193.87L117.633 193.945L117.146 194.006L116.659 194.053L116.168 194.088L115.672 194.106L115.177 194.114L114.681 194.11L114.186 194.088L113.694 194.053L113.203 194.006L112.72 193.945L112.238 193.87L111.764 193.783L111.294 193.683L110.834 193.566L110.377 193.435L109.934 193.296L109.499 193.139L109.077 192.969L108.668 192.786L108.273 192.585L107.89 192.376L9.65578 135.545L9.29059 135.327L8.95146 135.096L8.63409 134.857L8.33844 134.613L8.06889 134.36L7.82109 134.103L7.59937 133.842L7.39938 133.576L7.22113 133.306L7.06897 133.027L6.94287 132.748L6.83418 132.47L6.7516 132.187Z" fill="#2B7CFF"/>
<path fill-rule="evenodd" clip-rule="evenodd" d="M5.9897 132.187V137.51C5.99146 137.603 6.00909 137.696 6.04187 137.784L6.10704 138.002V138.058L6.21138 138.337L6.23314 138.394L6.36359 138.673C6.36359 138.703 6.39401 138.729 6.40706 138.755L6.54181 138.991C6.55515 139.02 6.57115 139.047 6.58963 139.073L6.74619 139.313L6.79401 139.378L6.97656 139.622L7.00703 139.657L7.23312 139.918L7.26788 139.958L7.50702 140.21L7.53743 140.241L7.80698 140.493L7.84174 140.519L8.13306 140.763L8.48088 141.029L8.55911 141.077C37.436 160.509 76.5602 180.463 107.493 198.357C107.772 198.505 108.033 198.645 108.319 198.793C108.606 198.941 108.898 199.045 109.189 199.167L109.25 199.193C109.55 199.298 109.837 199.402 110.141 199.494L110.576 199.625H110.637C110.95 199.703 111.241 199.773 111.554 199.838L112.054 199.93L112.58 200.012L113.063 200.073H113.141L113.576 200.117L114.071 200.152H114.584C115.115 200.152 115.619 200.152 116.15 200.152L116.645 200.117H116.706L117.141 200.073C117.658 200.008 118.162 199.938 118.671 199.834L119.141 199.729C119.471 199.651 119.78 199.568 120.106 199.472L120.175 199.45C120.61 199.302 121.045 199.154 121.48 198.98C121.914 198.806 122.323 198.584 122.758 198.348C142.831 186.548 163.626 175.262 183.464 163.148L183.833 162.904L183.885 162.861L184.181 162.639L184.503 162.373L184.555 162.325L184.803 162.094L184.855 162.046L185.081 161.807L185.111 161.772L185.333 161.511L185.368 161.467L185.568 161.197C185.589 161.17 185.608 161.14 185.624 161.11L185.768 160.883L185.803 160.831L185.951 160.565L185.977 160.513L186.103 160.234C186.12 160.204 186.133 160.172 186.142 160.138L186.229 159.899V159.847L186.316 159.563C186.333 159.495 186.342 159.425 186.342 159.354V154.031C186.34 153.844 186.268 153.664 186.142 153.526C186.016 153.388 185.844 153.301 185.658 153.282C185.472 153.264 185.285 153.314 185.134 153.424C184.983 153.534 184.877 153.696 184.838 153.879L184.781 154.075L184.703 154.284L184.581 154.541L184.464 154.759L184.329 154.964L184.116 155.251L183.968 155.425C183.807 155.591 183.677 155.726 183.507 155.861L183.238 156.083L182.959 156.292L182.651 156.501L182.303 156.715L122.001 191.662L121.645 191.858L121.232 192.067L120.897 192.215L120.462 192.381L120.054 192.529L119.654 192.66L119.219 192.786L118.784 192.89L118.289 192.999C117.997 193.056 117.719 193.099 117.419 193.147L116.893 193.217L116.484 193.256C115.997 193.291 115.541 193.309 115.054 193.317H114.589H114.115L113.602 193.282L113.167 193.239L112.68 193.178H112.641L112.241 193.117L111.806 193.03L111.337 192.93L110.902 192.825L110.428 192.69C110.159 192.603 109.911 192.52 109.646 192.424L109.211 192.254L108.85 192.093L108.48 191.91C75.3515 173.663 42.9835 153.099 9.85469 134.848L9.55908 134.669L9.25041 134.46L8.91563 134.208L8.70261 134.029L8.44171 133.79L8.23303 133.567L8.05048 133.358L7.86786 133.11L7.7157 132.879L7.60265 132.67L7.48091 132.409L7.39833 132.191L7.32875 131.947C7.28078 131.768 7.16905 131.613 7.01468 131.511C6.86029 131.409 6.67392 131.367 6.49086 131.393C6.3078 131.42 6.1407 131.512 6.02112 131.654C5.90154 131.795 5.83774 131.975 5.84184 132.16L5.9897 132.187ZM7.51137 137.414V134.883L7.55049 134.922L7.82004 135.175L7.85045 135.205L8.09393 135.41L8.17216 135.475L8.48958 135.715L8.85912 135.968L9.21124 136.181C9.22844 136.195 9.24745 136.207 9.26778 136.216L107.524 193.056L107.911 193.269L108.346 193.478L108.811 193.688L109.246 193.857L109.728 194.036L110.124 194.162L110.198 194.188L110.632 194.315L111.141 194.441L111.611 194.546C111.924 194.611 112.228 194.659 112.545 194.707H112.632L113.115 194.768L113.58 194.816H113.641L114.137 194.851C114.667 194.877 115.171 194.877 115.702 194.851H116.215L116.71 194.816L117.145 194.772H117.223L117.706 194.711L118.232 194.628L118.667 194.55H118.741C119.076 194.476 119.389 194.402 119.719 194.319L120.175 194.193L120.671 194.036L121.106 193.87L121.541 193.701L121.932 193.526L122.01 193.492L122.406 193.296C142.505 182.123 163.921 169.843 183.525 157.869L183.894 157.625L184.242 157.364L184.564 157.094L184.829 156.85C184.854 156.83 184.877 156.808 184.898 156.784V159.311L184.859 159.455L184.781 159.664L184.664 159.921L184.542 160.134L184.407 160.343L184.207 160.609L184.016 160.835L183.82 161.04L183.585 161.262L183.316 161.484L183.038 161.693L182.729 161.903L182.381 162.116C162.295 173.755 141.983 186.117 121.701 197.272L121.332 197.455L120.971 197.617L120.536 197.782L120.132 197.93L119.749 198.052L119.275 198.187L118.841 198.292L118.371 198.392L117.936 198.475L117.502 198.544L117.067 198.601C116.741 198.631 116.432 198.658 116.106 198.679H115.632H115.167C114.68 198.679 114.224 198.649 113.737 198.618L113.328 198.579L112.802 198.51C112.506 198.466 112.228 198.418 111.932 198.361L111.441 198.257C111.145 198.183 110.872 198.104 110.572 198.022L110.167 197.891L109.346 197.577L108.989 197.416L108.593 197.22C75.6732 179.209 42.614 159.058 10.0242 140.201L9.67647 139.992L9.40257 139.809L9.08521 139.57L8.81566 139.343L8.58087 139.13L8.37219 138.908L8.16782 138.668L8.01131 138.459L7.86786 138.237L7.74176 138.01L7.62006 137.749L7.53743 137.531L7.49832 137.401L7.51137 137.414ZM184.298 162.621L184.511 162.312C184.466 162.429 184.393 162.534 184.298 162.617V162.621Z" fill="#3C3C3C"/>
<path fill-rule="evenodd" clip-rule="evenodd" d="M182.774 148.974L84.5482 92.1471C80.5353 89.8254 73.9791 89.8298 69.975 92.1471L9.65178 127.121C5.64763 129.442 5.64328 133.219 9.65178 135.558L107.908 192.389C111.912 194.711 118.473 194.707 122.481 192.389L182.8 157.433C186.787 155.094 186.782 151.296 182.774 148.974Z" fill="white"/>
<path fill-rule="evenodd" clip-rule="evenodd" d="M183.157 148.317L84.9223 91.4852C82.8007 90.2612 80.0225 89.647 77.2575 89.647C74.4924 89.647 71.7099 90.2655 69.5883 91.4895L9.27377 126.45C8.14413 127.064 7.1963 127.965 6.52612 129.064C6.11441 129.754 5.89516 130.542 5.89133 131.346C5.89774 132.151 6.11679 132.94 6.52612 133.633C7.20235 134.721 8.15111 135.613 9.27814 136.22L107.508 193.034C109.63 194.263 112.408 194.873 115.177 194.873C117.947 194.873 120.725 194.258 122.847 193.03L183.161 158.07C184.287 157.464 185.233 156.571 185.904 155.482C186.32 154.792 186.539 154.001 186.539 153.195C186.539 152.389 186.32 151.599 185.904 150.908C185.23 149.819 184.283 148.925 183.157 148.317ZM84.1615 92.8007L182.396 149.632C183.293 150.108 184.05 150.811 184.591 151.671C184.874 152.129 185.024 152.657 185.024 153.195C185.024 153.734 184.874 154.262 184.591 154.72C184.053 155.575 183.305 156.277 182.418 156.758L122.103 191.715C120.216 192.808 117.708 193.357 115.195 193.357C112.682 193.357 110.173 192.812 108.286 191.719L10.0564 134.887C9.16864 134.409 8.41974 133.708 7.88257 132.853C7.59914 132.395 7.44897 131.867 7.44897 131.329C7.44897 130.79 7.59914 130.262 7.88257 129.804C8.4185 128.948 9.16771 128.247 10.0564 127.77L70.3491 92.805C72.236 91.7117 74.7402 91.1672 77.2575 91.1628C79.7747 91.1585 82.2746 91.7117 84.1615 92.8007Z" fill="#3C3C3C"/>
<path fill-rule="evenodd" clip-rule="evenodd" d="M77.1693 168.846L50.3053 153.291L70.8739 141.377L97.7422 156.932L77.1693 168.846Z" fill="white"/>
<path fill-rule="evenodd" clip-rule="evenodd" d="M77.1576 167.97L51.8066 153.291L70.8622 142.253L96.2132 156.933L77.1576 167.97ZM49.911 153.949L76.7706 169.499C76.8873 169.568 77.0201 169.604 77.1554 169.604C77.2907 169.604 77.4235 169.568 77.5402 169.499L98.1131 157.612C98.2336 157.549 98.3333 157.452 98.4001 157.333C98.5009 157.158 98.5282 156.95 98.4761 156.755C98.4239 156.56 98.2965 156.393 98.1218 156.292L71.2666 140.742C71.1499 140.673 71.017 140.637 70.8818 140.637C70.7465 140.637 70.6137 140.673 70.497 140.742L49.9328 152.646C49.8213 152.715 49.7292 152.811 49.6653 152.925C49.6014 153.04 49.5678 153.169 49.5678 153.3C49.5678 153.431 49.6014 153.56 49.6653 153.674C49.7292 153.788 49.8213 153.885 49.9328 153.953L49.911 153.949Z" fill="#3C3C3C"/>
<path fill-rule="evenodd" clip-rule="evenodd" d="M170.472 150.947L162.729 146.47L150.991 139.683L138.778 132.618L132.692 129.085C132.583 129.011 132.466 128.937 132.344 128.867L124.601 124.385L112.862 117.603L100.632 110.533L84.7201 101.329L81.1594 99.2691C79.0203 98.032 75.5075 98.032 73.3815 99.2691L42.9482 116.91C40.8091 118.152 40.8135 120.177 42.9482 121.415L80.742 143.281C80.8507 143.355 80.9637 143.429 81.0854 143.499L132.244 173.093C134.383 174.334 137.896 174.334 140.022 173.093L170.455 155.451C172.616 154.214 172.611 152.189 170.472 150.947Z" fill="white"/>
<path fill-rule="evenodd" clip-rule="evenodd" d="M170.852 150.29L133.093 128.427L132.923 128.314L132.715 128.192H132.676L124.98 123.732L81.565 98.6157C80.2441 97.9386 78.7815 97.5856 77.2978 97.5856C75.814 97.5856 74.3515 97.9386 73.0306 98.6157L42.5973 116.253C41.9419 116.607 41.3915 117.128 41.0017 117.764C40.7511 118.187 40.6188 118.67 40.6188 119.162C40.6188 119.655 40.7511 120.138 41.0017 120.561C41.3945 121.196 41.946 121.717 42.6016 122.072L80.3737 143.926L80.5346 144.035L80.7389 144.152L131.897 173.746C133.219 174.425 134.682 174.779 136.167 174.779C137.651 174.779 139.115 174.425 140.436 173.746L170.869 156.105C171.524 155.749 172.074 155.228 172.465 154.593C172.718 154.172 172.852 153.689 172.852 153.197C172.852 152.705 172.718 152.223 172.465 151.801C172.073 151.165 171.522 150.644 170.865 150.29H170.852ZM162.348 147.127L170.091 151.605C170.516 151.831 170.875 152.162 171.135 152.568C171.25 152.759 171.313 152.976 171.317 153.199C171.314 153.425 171.251 153.646 171.135 153.84C170.877 154.244 170.517 154.573 170.091 154.794L139.658 172.435C138.568 172.979 137.367 173.263 136.149 173.263C134.932 173.263 133.731 172.979 132.641 172.435L81.5041 142.841L81.3563 142.75L81.2346 142.667L81.165 142.623L43.3712 120.757C42.9457 120.533 42.5849 120.203 42.3234 119.798C42.2042 119.608 42.141 119.387 42.141 119.162C42.141 118.938 42.2042 118.717 42.3234 118.527C42.582 118.122 42.9417 117.791 43.3668 117.568L73.8001 99.9268C74.8899 99.3826 76.091 99.0993 77.3086 99.0993C78.5263 99.0993 79.7274 99.3826 80.8172 99.9268L124.232 125.043L131.932 129.499L131.971 129.525L132.123 129.617C132.172 129.644 132.218 129.675 132.263 129.708L132.319 129.743L162.348 147.127Z" fill="#3C3C3C"/>
<path fill-rule="evenodd" clip-rule="evenodd" d="M131.275 145.999L126.884 143.46C126.387 143.207 125.837 143.076 125.28 143.076C124.722 143.076 124.173 143.207 123.675 143.46L119.289 146.003C118.419 146.513 118.419 147.349 119.289 147.859L123.68 150.403C124.177 150.654 124.727 150.785 125.284 150.785C125.841 150.785 126.391 150.654 126.888 150.403L131.279 147.855C132.158 147.345 132.158 146.509 131.275 145.999Z" fill="white"/>
<path fill-rule="evenodd" clip-rule="evenodd" d="M131.614 145.32L127.267 142.802C126.654 142.484 125.974 142.318 125.284 142.318C124.594 142.318 123.914 142.484 123.302 142.802L118.91 145.346C118.574 145.53 118.292 145.801 118.093 146.13C117.948 146.372 117.871 146.649 117.871 146.931C117.871 147.214 117.948 147.491 118.093 147.733C118.293 148.062 118.576 148.333 118.915 148.517L123.306 151.061L123.354 151.087C123.953 151.389 124.618 151.539 125.288 151.522C125.98 151.534 126.663 151.366 127.271 151.035L131.662 148.491C132 148.307 132.284 148.036 132.484 147.707C132.624 147.463 132.699 147.187 132.701 146.905C132.7 146.624 132.623 146.349 132.479 146.108C132.281 145.777 131.999 145.505 131.662 145.32H131.619H131.614ZM126.506 144.117L130.853 146.635H130.893C131 146.689 131.091 146.77 131.158 146.87C131.16 146.882 131.16 146.894 131.158 146.905C131.162 146.918 131.162 146.932 131.158 146.944C131.088 147.042 130.995 147.121 130.888 147.175L126.501 149.719C126.124 149.917 125.702 150.015 125.275 150.002C124.863 150.012 124.455 149.922 124.084 149.741H124.054L119.658 147.197C119.551 147.143 119.459 147.064 119.389 146.966V146.927V146.888C119.459 146.79 119.551 146.711 119.658 146.657L124.049 144.113C124.43 143.927 124.848 143.83 125.271 143.83C125.694 143.83 126.112 143.927 126.493 144.113L126.506 144.117Z" fill="#3C3C3C"/>
<path fill-rule="evenodd" clip-rule="evenodd" d="M148.51 155.97L152.901 158.509C153.77 159.023 153.77 159.855 152.901 160.369L148.51 162.913C148.013 163.164 147.464 163.295 146.907 163.295C146.351 163.295 145.802 163.164 145.305 162.913L140.914 160.373C140.045 159.86 140.045 159.028 140.914 158.514L145.305 155.97C145.802 155.719 146.351 155.588 146.907 155.588C147.464 155.588 148.013 155.719 148.51 155.97Z" fill="white"/>
<path fill-rule="evenodd" clip-rule="evenodd" d="M148.131 156.628L152.522 159.172C152.629 159.226 152.722 159.305 152.792 159.402C152.794 159.415 152.794 159.429 152.792 159.442C152.794 159.455 152.794 159.468 152.792 159.481C152.723 159.567 152.637 159.638 152.539 159.69L148.148 162.234C147.767 162.42 147.349 162.517 146.925 162.517C146.5 162.517 146.082 162.42 145.701 162.234L141.31 159.694H141.275C141.18 159.644 141.099 159.571 141.04 159.481C141.036 159.468 141.036 159.454 141.04 159.442C141.037 159.43 141.037 159.418 141.04 159.407C141.108 159.308 141.199 159.227 141.305 159.172L145.696 156.628C146.075 156.434 146.497 156.338 146.922 156.349C147.347 156.336 147.767 156.432 148.144 156.628H148.131ZM153.283 157.856L148.892 155.312C148.279 154.992 147.598 154.824 146.907 154.824C146.216 154.824 145.535 154.992 144.922 155.312L140.536 157.856C140.198 158.043 139.915 158.314 139.714 158.645C139.573 158.885 139.498 159.158 139.497 159.437C139.498 159.719 139.573 159.995 139.714 160.239C139.904 160.553 140.17 160.813 140.488 160.997L140.536 161.027L144.927 163.567C145.54 163.884 146.219 164.05 146.909 164.05C147.599 164.05 148.279 163.884 148.892 163.567L153.279 161.023C153.597 160.847 153.867 160.596 154.066 160.291L154.109 160.226C154.251 159.983 154.326 159.707 154.326 159.426C154.326 159.145 154.251 158.869 154.109 158.627C153.905 158.302 153.621 158.037 153.283 157.856Z" fill="#3C3C3C"/>
<path fill-rule="evenodd" clip-rule="evenodd" d="M137.707 162.234L142.098 164.773C142.967 165.283 142.967 166.119 142.098 166.633L137.707 169.172C137.21 169.426 136.66 169.558 136.102 169.558C135.545 169.558 134.995 169.426 134.498 169.172L130.107 166.633C129.238 166.123 129.238 165.287 130.107 164.777L134.494 162.234C134.991 161.98 135.542 161.847 136.1 161.847C136.659 161.847 137.209 161.98 137.707 162.234Z" fill="white"/>
<path fill-rule="evenodd" clip-rule="evenodd" d="M137.367 162.913L141.715 165.431C141.823 165.485 141.916 165.566 141.984 165.666C141.987 165.678 141.987 165.689 141.984 165.701C141.988 165.714 141.988 165.727 141.984 165.74C141.914 165.838 141.822 165.917 141.715 165.971L137.328 168.515C136.95 168.713 136.528 168.811 136.102 168.798C135.678 168.81 135.258 168.714 134.88 168.519L130.489 165.975C130.381 165.923 130.288 165.843 130.22 165.745C130.217 165.732 130.217 165.718 130.22 165.705C130.217 165.692 130.217 165.679 130.22 165.666C130.288 165.568 130.379 165.489 130.485 165.435L134.876 162.891C135.258 162.708 135.676 162.613 136.1 162.613C136.523 162.613 136.942 162.708 137.324 162.891L137.363 162.913H137.367ZM142.475 164.115L138.128 161.602L138.084 161.576C137.473 161.255 136.792 161.088 136.102 161.088C135.411 161.088 134.731 161.255 134.119 161.576L129.728 164.12C129.392 164.304 129.11 164.575 128.911 164.904C128.768 165.145 128.693 165.42 128.694 165.701C128.695 165.983 128.772 166.26 128.915 166.502C129.117 166.83 129.4 167.1 129.737 167.286L134.128 169.826C134.741 170.147 135.422 170.314 136.113 170.314C136.804 170.314 137.485 170.147 138.097 169.826L142.484 167.282C142.822 167.097 143.105 166.827 143.306 166.498C143.451 166.257 143.527 165.98 143.527 165.699C143.527 165.417 143.451 165.141 143.306 164.899C143.105 164.569 142.822 164.297 142.484 164.111L142.475 164.115Z" fill="#3C3C3C"/>
<path fill-rule="evenodd" clip-rule="evenodd" d="M145.3 150.394L140.904 147.855C140.035 147.345 140.035 146.509 140.904 145.999L145.296 143.455C145.792 143.203 146.341 143.072 146.898 143.072C147.454 143.072 148.003 143.203 148.5 143.455L152.891 145.999C153.76 146.509 153.76 147.345 152.891 147.855L148.5 150.399C148.004 150.651 147.455 150.782 146.899 150.781C146.343 150.78 145.795 150.648 145.3 150.394Z" fill="white"/>
<path fill-rule="evenodd" clip-rule="evenodd" d="M145.68 149.736L141.289 147.197C141.18 147.143 141.087 147.062 141.019 146.962C141.016 146.95 141.016 146.938 141.019 146.927C141.015 146.914 141.015 146.901 141.019 146.888C141.086 146.789 141.177 146.709 141.284 146.657L145.675 144.109C146.057 143.925 146.474 143.83 146.897 143.83C147.32 143.83 147.737 143.925 148.119 144.109L148.162 144.135L152.51 146.652C152.617 146.707 152.709 146.786 152.779 146.883V146.923C152.782 146.935 152.782 146.949 152.779 146.962C152.711 147.061 152.618 147.14 152.51 147.193L148.123 149.736C147.741 149.92 147.323 150.015 146.899 150.015C146.475 150.015 146.057 149.92 145.675 149.736H145.68ZM140.528 148.512L144.919 151.052C145.531 151.373 146.212 151.54 146.903 151.54C147.595 151.54 148.276 151.373 148.888 151.052L153.275 148.508C153.612 148.322 153.895 148.052 154.097 147.724C154.24 147.481 154.317 147.205 154.318 146.923C154.317 146.642 154.242 146.367 154.101 146.125C153.9 145.795 153.617 145.523 153.279 145.337L148.932 142.819L148.893 142.793C148.28 142.475 147.6 142.31 146.91 142.31C146.22 142.31 145.54 142.475 144.927 142.793L140.536 145.341C140.2 145.526 139.918 145.796 139.719 146.125C139.576 146.368 139.501 146.645 139.502 146.927C139.503 147.208 139.579 147.483 139.723 147.724C139.919 148.052 140.196 148.324 140.528 148.512Z" fill="#3C3C3C"/>
<path fill-rule="evenodd" clip-rule="evenodd" d="M134.485 144.139L130.094 141.6C129.224 141.086 129.224 140.254 130.094 139.74L134.481 137.196C134.978 136.945 135.528 136.814 136.085 136.814C136.642 136.814 137.192 136.945 137.689 137.196L142.08 139.74C142.95 140.249 142.95 141.086 142.08 141.595L137.694 144.139C137.196 144.39 136.646 144.521 136.089 144.521C135.532 144.521 134.983 144.39 134.485 144.139Z" fill="white"/>
<path fill-rule="evenodd" clip-rule="evenodd" d="M134.866 143.481L130.471 140.942L130.436 140.92C130.343 140.867 130.262 140.795 130.201 140.707C130.199 140.695 130.199 140.683 130.201 140.672C130.198 140.659 130.198 140.646 130.201 140.633C130.27 140.544 130.358 140.471 130.458 140.419L134.849 137.88C135.224 137.68 135.645 137.581 136.07 137.592C136.495 137.582 136.915 137.679 137.292 137.875L137.335 137.897L141.683 140.415C141.79 140.469 141.883 140.548 141.953 140.646C141.961 140.657 141.966 140.671 141.966 140.685C141.966 140.699 141.961 140.713 141.953 140.724C141.884 140.824 141.792 140.905 141.683 140.959L137.292 143.503C136.912 143.689 136.494 143.786 136.07 143.786C135.647 143.786 135.229 143.689 134.849 143.503L134.866 143.481ZM129.714 142.257L134.105 144.797C134.717 145.115 135.396 145.28 136.086 145.28C136.775 145.28 137.454 145.115 138.066 144.797L142.457 142.253C142.795 142.067 143.078 141.795 143.279 141.465C143.419 141.222 143.494 140.948 143.496 140.667C143.496 140.385 143.419 140.108 143.274 139.866C143.076 139.537 142.794 139.266 142.457 139.082L138.109 136.564L138.07 136.538C137.458 136.22 136.778 136.054 136.088 136.054C135.398 136.054 134.718 136.22 134.105 136.538L129.714 139.082C129.397 139.26 129.127 139.513 128.927 139.818L128.897 139.87C128.752 140.112 128.675 140.388 128.675 140.67C128.675 140.951 128.752 141.228 128.897 141.469C129.087 141.783 129.353 142.044 129.671 142.227L129.718 142.257H129.714ZM128.923 139.818L128.892 139.87L128.923 139.818Z" fill="#3C3C3C"/>
<path fill-rule="evenodd" clip-rule="evenodd" d="M151.723 154.127L156.114 156.667C156.61 156.92 157.159 157.052 157.716 157.052C158.273 157.052 158.822 156.92 159.318 156.667L163.709 154.123C164.579 153.613 164.579 152.777 163.709 152.267L159.314 149.728C158.818 149.474 158.269 149.342 157.712 149.342C157.155 149.342 156.606 149.474 156.11 149.728L151.718 152.272C150.836 152.764 150.836 153.6 151.723 154.127Z" fill="white"/>
<path fill-rule="evenodd" clip-rule="evenodd" d="M151.34 154.768L155.731 157.307C156.344 157.628 157.025 157.795 157.716 157.795C158.407 157.795 159.088 157.628 159.701 157.307L164.087 154.763C164.426 154.579 164.709 154.309 164.909 153.979C165.053 153.737 165.129 153.46 165.131 153.178C165.129 152.898 165.054 152.623 164.913 152.381C164.713 152.05 164.43 151.779 164.092 151.592L159.701 149.053C159.089 148.732 158.409 148.565 157.718 148.565C157.028 148.565 156.348 148.732 155.736 149.053L151.349 151.597C151.012 151.783 150.729 152.053 150.527 152.381C150.384 152.623 150.307 152.9 150.306 153.182C150.305 153.463 150.38 153.738 150.523 153.979C150.723 154.309 151.007 154.581 151.345 154.768H151.34ZM156.492 155.996L152.101 153.452C151.993 153.4 151.9 153.32 151.832 153.221V153.182C151.829 153.169 151.829 153.156 151.832 153.143C151.9 153.044 151.993 152.965 152.101 152.912L156.488 150.368C156.867 150.176 157.289 150.081 157.714 150.094C158.138 150.081 158.559 150.177 158.936 150.373L163.327 152.912C163.435 152.966 163.528 153.047 163.596 153.147C163.599 153.159 163.599 153.171 163.596 153.182C163.599 153.195 163.599 153.208 163.596 153.221C163.527 153.318 163.434 153.396 163.327 153.448L158.94 155.992C158.564 156.19 158.143 156.287 157.718 156.275C157.293 156.287 156.871 156.191 156.492 155.996Z" fill="#3C3C3C"/>
<path fill-rule="evenodd" clip-rule="evenodd" d="M142.088 152.254L137.697 149.715C137.199 149.463 136.65 149.333 136.093 149.333C135.536 149.333 134.986 149.463 134.489 149.715L130.102 152.258C129.232 152.772 129.232 153.604 130.102 154.114L134.497 156.658C134.994 156.909 135.543 157.04 136.099 157.04C136.656 157.04 137.205 156.909 137.701 156.658L142.093 154.114C142.975 153.6 142.975 152.768 142.088 152.254Z" fill="white"/>
<path fill-rule="evenodd" clip-rule="evenodd" d="M142.471 151.597L138.076 149.057L138.028 149.031C137.429 148.729 136.764 148.579 136.093 148.595C135.402 148.584 134.72 148.751 134.111 149.079L129.72 151.623C129.384 151.802 129.1 152.065 128.894 152.385C128.751 152.626 128.676 152.902 128.676 153.182C128.678 153.464 128.755 153.741 128.898 153.984C129.098 154.313 129.381 154.584 129.72 154.768L134.111 157.312C134.724 157.629 135.405 157.795 136.096 157.795C136.786 157.795 137.467 157.629 138.08 157.312L142.467 154.768C142.805 154.581 143.088 154.31 143.289 153.979C143.431 153.737 143.506 153.461 143.506 153.18C143.506 152.899 143.431 152.623 143.289 152.381C143.088 152.051 142.805 151.779 142.467 151.592L142.471 151.597ZM137.315 150.373L141.71 152.912C141.817 152.969 141.909 153.049 141.98 153.147C141.982 153.16 141.982 153.174 141.98 153.187V153.221C141.912 153.322 141.819 153.403 141.71 153.457L137.324 156.001C136.943 156.187 136.524 156.284 136.1 156.284C135.676 156.284 135.257 156.187 134.876 156.001L130.485 153.457C130.379 153.403 130.288 153.323 130.22 153.226C130.217 153.213 130.217 153.199 130.22 153.187C130.217 153.175 130.217 153.163 130.22 153.152C130.289 153.055 130.38 152.976 130.485 152.921L134.876 150.377C135.253 150.181 135.673 150.083 136.098 150.094C136.51 150.084 136.919 150.174 137.289 150.355L137.315 150.373Z" fill="#3C3C3C"/>
<path fill-rule="evenodd" clip-rule="evenodd" d="M109.647 133.489L105.256 130.945C104.76 130.693 104.211 130.562 103.654 130.562C103.097 130.562 102.549 130.693 102.052 130.945L97.6609 133.489C96.7914 133.999 96.7914 134.831 97.6609 135.345L102.052 137.884C102.549 138.135 103.098 138.266 103.654 138.266C104.211 138.266 104.759 138.135 105.256 137.884L109.647 135.34C110.534 134.835 110.534 133.999 109.647 133.489Z" fill="white"/>
<path fill-rule="evenodd" clip-rule="evenodd" d="M109.986 132.805L105.638 130.292C105.025 129.973 104.344 129.806 103.654 129.806C102.963 129.806 102.282 129.973 101.669 130.292L97.2821 132.836C96.9437 133.019 96.6602 133.29 96.4604 133.62C96.3155 133.861 96.2389 134.137 96.2389 134.419C96.2389 134.701 96.3155 134.977 96.4604 135.218C96.6609 135.548 96.9441 135.82 97.2821 136.007L101.673 138.546C102.287 138.864 102.967 139.03 103.658 139.03C104.348 139.03 105.029 138.864 105.643 138.546L110.029 136.002C110.366 135.816 110.649 135.546 110.851 135.218C110.994 134.975 111.069 134.699 111.068 134.417C111.067 134.135 110.992 133.859 110.851 133.615C110.65 133.286 110.367 133.016 110.029 132.831L109.986 132.805ZM104.877 131.603L109.225 134.121L109.264 134.147C109.372 134.199 109.465 134.279 109.534 134.378C109.537 134.39 109.537 134.404 109.534 134.417C109.536 134.43 109.536 134.443 109.534 134.456C109.466 134.554 109.374 134.633 109.268 134.687L104.877 137.231C104.496 137.417 104.078 137.514 103.654 137.514C103.229 137.514 102.811 137.417 102.43 137.231L98.0386 134.691C97.931 134.636 97.8384 134.555 97.769 134.456C97.766 134.445 97.766 134.433 97.769 134.421C97.7652 134.408 97.7652 134.395 97.769 134.382C97.8383 134.285 97.931 134.207 98.0386 134.155L102.425 131.612C102.803 131.413 103.225 131.316 103.651 131.328C104.075 131.317 104.496 131.413 104.873 131.607L104.877 131.603Z" fill="#3C3C3C"/>
<path fill-rule="evenodd" clip-rule="evenodd" d="M98.8421 139.753L94.451 137.213C93.9542 136.962 93.4054 136.831 92.8489 136.831C92.2924 136.831 91.7436 136.962 91.2468 137.213L86.8557 139.757C85.9862 140.271 85.9862 141.103 86.8557 141.613L91.2512 144.157C91.748 144.408 92.2967 144.539 92.8532 144.539C93.4098 144.539 93.9585 144.408 94.4553 144.157L98.8464 141.613C99.729 141.094 99.729 140.262 98.8421 139.753Z" fill="white"/>
<path fill-rule="evenodd" clip-rule="evenodd" d="M99.1807 139.069L94.833 136.551C94.2203 136.233 93.5405 136.068 92.8505 136.068C92.1606 136.068 91.4807 136.233 90.868 136.551L86.4813 139.095C86.1416 139.279 85.8577 139.551 85.6595 139.883C85.6469 139.901 85.6366 139.92 85.6291 139.94C85.5016 140.178 85.4374 140.445 85.4427 140.715C85.448 140.985 85.5227 141.249 85.6595 141.482C85.8603 141.811 86.1436 142.081 86.4813 142.266L90.8724 144.81L90.9245 144.836C91.5328 145.14 92.2042 145.297 92.8841 145.292C93.564 145.288 94.2332 145.122 94.8374 144.81L99.2242 142.266C99.5621 142.08 99.8454 141.808 100.046 141.478C100.189 141.236 100.265 140.961 100.268 140.681C100.266 140.399 100.191 140.123 100.05 139.879C99.8497 139.549 99.5664 139.277 99.2285 139.091L99.185 139.069H99.1807ZM94.0722 137.867L98.4198 140.384H98.459C98.5666 140.44 98.6591 140.52 98.7285 140.62C98.7304 140.633 98.7304 140.646 98.7285 140.659C98.7315 140.67 98.7315 140.682 98.7285 140.694C98.659 140.793 98.5665 140.873 98.459 140.929L94.0722 143.473C93.6949 143.667 93.2747 143.763 92.8505 143.751C92.4368 143.762 92.0267 143.672 91.6549 143.49H91.6245L87.2334 140.946C87.1254 140.894 87.0326 140.814 86.9638 140.715C86.9638 140.694 86.9638 140.685 86.9638 140.676C87.0302 140.576 87.1216 140.495 87.229 140.441L91.6202 137.897C92.0013 137.711 92.4199 137.614 92.844 137.614C93.2681 137.614 93.6867 137.711 94.0679 137.897L94.0722 137.867Z" fill="#3C3C3C"/>
<path fill-rule="evenodd" clip-rule="evenodd" d="M123.676 137.884L119.285 135.34C118.415 134.831 118.415 133.999 119.285 133.485L123.676 130.941C124.173 130.69 124.722 130.559 125.278 130.559C125.835 130.559 126.383 130.69 126.88 130.941L131.276 133.48C132.145 133.994 132.145 134.826 131.276 135.34L126.889 137.884C126.391 138.136 125.84 138.267 125.282 138.267C124.724 138.267 124.174 138.136 123.676 137.884Z" fill="white"/>
<path fill-rule="evenodd" clip-rule="evenodd" d="M124.049 137.226L119.658 134.683C119.551 134.629 119.458 134.549 119.388 134.452C119.385 134.439 119.385 134.425 119.388 134.413C119.385 134.401 119.385 134.389 119.388 134.378V134.352C119.459 134.266 119.546 134.194 119.645 134.142L124.036 131.599C124.413 131.403 124.833 131.307 125.257 131.32C125.682 131.31 126.102 131.407 126.479 131.603L130.87 134.142C130.979 134.197 131.071 134.278 131.14 134.378C131.143 134.39 131.143 134.404 131.14 134.417C131.143 134.428 131.143 134.44 131.14 134.452C131.073 134.552 130.982 134.633 130.875 134.687L126.483 137.231C126.107 137.428 125.686 137.525 125.262 137.514C124.836 137.524 124.414 137.427 124.036 137.231L124.049 137.226ZM118.897 135.998L123.292 138.542C123.905 138.86 124.585 139.026 125.275 139.026C125.965 139.026 126.645 138.86 127.257 138.542L131.648 135.998C131.986 135.812 132.268 135.54 132.466 135.21C132.61 134.969 132.686 134.693 132.687 134.413C132.688 134.131 132.613 133.854 132.47 133.611C132.27 133.281 131.986 133.009 131.648 132.823L127.257 130.283C126.649 129.955 125.966 129.788 125.275 129.8C124.583 129.791 123.901 129.959 123.292 130.287L118.892 132.827C118.574 133.004 118.304 133.257 118.106 133.563L118.071 133.615C117.926 133.857 117.849 134.133 117.849 134.415C117.849 134.696 117.926 134.973 118.071 135.214C118.272 135.543 118.555 135.813 118.892 135.998H118.897Z" fill="#3C3C3C"/>
<path fill-rule="evenodd" clip-rule="evenodd" d="M112.86 131.629L108.468 129.085C107.599 128.576 107.599 127.739 108.468 127.23L112.86 124.686C113.356 124.435 113.905 124.304 114.462 124.304C115.018 124.304 115.567 124.435 116.064 124.686L120.459 127.225C121.329 127.735 121.329 128.571 120.459 129.081L116.068 131.625C115.571 131.878 115.022 132.011 114.464 132.012C113.907 132.012 113.357 131.881 112.86 131.629Z" fill="white"/>
<path fill-rule="evenodd" clip-rule="evenodd" d="M113.243 130.971L108.852 128.427H108.817C108.723 128.376 108.643 128.303 108.583 128.214V128.175C108.58 128.163 108.58 128.151 108.583 128.14C108.651 128.04 108.744 127.959 108.852 127.905L113.243 125.343C113.625 125.159 114.043 125.063 114.467 125.063C114.891 125.063 115.309 125.159 115.691 125.343L120.082 127.883C120.19 127.937 120.283 128.018 120.352 128.118C120.354 128.13 120.354 128.142 120.352 128.153C120.355 128.166 120.355 128.179 120.352 128.192C120.284 128.281 120.198 128.354 120.099 128.406L115.708 130.95C115.326 131.133 114.908 131.228 114.484 131.228C114.061 131.228 113.643 131.133 113.261 130.95L113.243 130.971ZM108.087 129.734L112.478 132.278C113.092 132.596 113.772 132.762 114.463 132.762C115.153 132.762 115.834 132.596 116.447 132.278L120.834 129.734C121.153 129.56 121.424 129.308 121.621 129.002L121.656 128.95C121.798 128.708 121.873 128.432 121.873 128.151C121.873 127.87 121.798 127.594 121.656 127.352C121.455 127.021 121.172 126.75 120.834 126.563L116.443 124.024C115.83 123.706 115.15 123.54 114.461 123.54C113.771 123.54 113.091 123.706 112.478 124.024L108.091 126.567C107.753 126.754 107.47 127.026 107.27 127.356C107.127 127.598 107.052 127.874 107.052 128.155C107.052 128.436 107.127 128.712 107.27 128.955C107.452 129.274 107.712 129.543 108.026 129.734H108.087Z" fill="#3C3C3C"/>
<path fill-rule="evenodd" clip-rule="evenodd" d="M120.463 139.753L116.068 137.213C115.572 136.96 115.023 136.828 114.466 136.828C113.909 136.828 113.36 136.96 112.864 137.213L108.46 139.753C107.59 140.262 107.59 141.099 108.46 141.608L112.851 144.148C113.348 144.401 113.897 144.533 114.455 144.533C115.012 144.533 115.562 144.401 116.059 144.148L120.446 141.604C121.346 141.09 121.346 140.254 120.463 139.753Z" fill="white"/>
<path fill-rule="evenodd" clip-rule="evenodd" d="M120.842 139.086L116.451 136.542L116.399 136.516C115.791 136.211 115.119 136.054 114.438 136.059C113.758 136.065 113.089 136.232 112.486 136.547L108.095 139.091C107.758 139.277 107.475 139.547 107.273 139.875C107.129 140.117 107.053 140.394 107.051 140.676C107.052 140.956 107.127 141.231 107.269 141.473C107.469 141.804 107.752 142.075 108.09 142.262L112.481 144.801L112.533 144.827C113.132 145.132 113.797 145.281 114.468 145.263C115.16 145.274 115.843 145.106 116.451 144.775L120.842 142.231C121.179 142.047 121.461 141.776 121.659 141.447C121.803 141.204 121.879 140.928 121.881 140.646C121.88 140.365 121.803 140.089 121.659 139.849C121.46 139.517 121.176 139.245 120.837 139.06L120.842 139.086ZM115.69 137.862L120.081 140.402C120.189 140.454 120.282 140.534 120.35 140.633C120.359 140.644 120.364 140.658 120.364 140.672C120.364 140.686 120.359 140.7 120.35 140.711C120.284 140.81 120.192 140.889 120.085 140.942L115.694 143.486C115.317 143.681 114.897 143.777 114.473 143.765C114.06 143.774 113.652 143.685 113.281 143.503H113.247L108.855 140.964C108.748 140.91 108.656 140.83 108.586 140.733V140.694C108.583 140.681 108.583 140.667 108.586 140.654C108.655 140.556 108.747 140.476 108.855 140.424L113.242 137.862C113.621 137.666 114.042 137.569 114.468 137.579C114.88 137.569 115.289 137.659 115.659 137.84L115.69 137.862Z" fill="#3C3C3C"/>
<path fill-rule="evenodd" clip-rule="evenodd" d="M131.285 158.518L105.264 143.464C104.767 143.213 104.219 143.082 103.662 143.082C103.106 143.082 102.557 143.213 102.06 143.464L97.669 146.008C96.7995 146.522 96.7995 147.354 97.669 147.868L123.676 162.918C124.173 163.171 124.723 163.303 125.281 163.303C125.838 163.303 126.388 163.171 126.885 162.918L131.276 160.374C132.172 159.864 132.167 159.028 131.285 158.518Z" fill="white"/>
<path fill-rule="evenodd" clip-rule="evenodd" d="M131.662 157.86L105.646 142.802L105.593 142.776C104.985 142.471 104.314 142.315 103.634 142.32C102.954 142.324 102.285 142.489 101.681 142.802L97.2938 145.346C96.9544 145.532 96.6707 145.806 96.4721 146.138C96.3313 146.379 96.2564 146.652 96.2547 146.931C96.2559 147.213 96.3308 147.489 96.4721 147.733C96.6741 148.061 96.9571 148.331 97.2938 148.517L123.314 163.566L123.366 163.597C123.976 163.899 124.647 164.053 125.327 164.048C126.006 164.042 126.675 163.878 127.279 163.566L131.666 161.023C132.005 160.837 132.289 160.565 132.488 160.234C132.63 159.993 132.705 159.717 132.705 159.437C132.705 159.157 132.63 158.881 132.488 158.64C132.285 158.31 132.001 158.038 131.662 157.851V157.86ZM104.885 144.109L130.905 159.163C131.012 159.217 131.105 159.296 131.175 159.393V159.433C131.177 159.447 131.177 159.462 131.175 159.476C131.104 159.572 131.012 159.65 130.905 159.703L126.518 162.247C126.141 162.445 125.719 162.542 125.292 162.53C124.88 162.539 124.472 162.45 124.101 162.268H124.071L98.0503 147.219C97.9448 147.162 97.8539 147.082 97.7851 146.984C97.7832 146.971 97.7832 146.957 97.7851 146.944V146.905C97.8552 146.808 97.9476 146.728 98.0546 146.674L102.437 144.109C102.814 143.928 103.227 143.834 103.646 143.834C104.064 143.834 104.477 143.928 104.854 144.109H104.885Z" fill="#3C3C3C"/>
<path fill-rule="evenodd" clip-rule="evenodd" d="M73.7095 112.676L69.3314 110.133C68.8353 109.879 68.2863 109.747 67.7293 109.747C67.1724 109.747 66.6234 109.879 66.1272 110.133L61.7361 112.676C60.8666 113.186 60.8666 114.022 61.7361 114.532L66.1272 117.071C66.6242 117.325 67.1739 117.457 67.7315 117.457C68.2891 117.457 68.8388 117.325 69.3358 117.071L73.7225 114.528C74.592 114.022 74.5921 113.182 73.7095 112.676Z" fill="white"/>
<path fill-rule="evenodd" clip-rule="evenodd" d="M74.0879 112.019L69.6968 109.479L69.6446 109.453C69.0497 109.14 68.3861 108.981 67.7143 108.991C67.0229 108.984 66.3409 109.151 65.7317 109.479L61.3406 112.023C61.0017 112.208 60.7181 112.48 60.5189 112.811C60.3739 113.052 60.2973 113.327 60.2973 113.608C60.2973 113.889 60.3739 114.165 60.5189 114.406C60.7225 114.735 61.0069 115.006 61.345 115.194L65.7361 117.734L65.7882 117.764C66.3965 118.069 67.0682 118.225 67.7483 118.22C68.4285 118.215 69.0977 118.048 69.7011 117.734L74.0922 115.19C74.429 115.005 74.711 114.735 74.9096 114.406C75.0528 114.163 75.1279 113.886 75.1269 113.604C75.1258 113.323 75.0492 113.048 74.9052 112.807C74.7047 112.477 74.4214 112.205 74.0835 112.019H74.0879ZM68.9359 110.795L73.327 113.334C73.4351 113.387 73.5278 113.466 73.5966 113.565C73.5991 113.578 73.5991 113.591 73.5966 113.604C73.6003 113.617 73.6003 113.63 73.5966 113.643C73.5285 113.741 73.4374 113.82 73.3314 113.874L68.9403 116.418C68.5633 116.614 68.1431 116.711 67.7186 116.701C67.3063 116.711 66.8978 116.621 66.5273 116.44H66.4925L62.1015 113.896C61.993 113.842 61.9002 113.761 61.8319 113.661C61.829 113.649 61.829 113.637 61.8319 113.626C61.8293 113.613 61.8293 113.6 61.8319 113.587C61.9006 113.488 61.9934 113.408 62.1015 113.356L66.4882 110.812C66.8666 110.616 67.2883 110.518 67.7143 110.529C68.1265 110.519 68.535 110.609 68.9055 110.79L68.9359 110.795Z" fill="#3C3C3C"/>
<path fill-rule="evenodd" clip-rule="evenodd" d="M62.9045 118.936L58.509 116.396C58.0122 116.145 57.4635 116.014 56.9069 116.014C56.3504 116.014 55.8017 116.145 55.3049 116.396L50.9138 118.94C50.0442 119.454 50.0442 120.286 50.9138 120.8L55.3092 123.34C55.806 123.591 56.3548 123.722 56.9113 123.722C57.4678 123.722 58.0166 123.591 58.5134 123.34L62.9045 120.796C63.787 120.282 63.787 119.45 62.9045 118.936Z" fill="white"/>
<path fill-rule="evenodd" clip-rule="evenodd" d="M63.2832 118.283L58.8921 115.739C58.2786 115.421 57.5981 115.255 56.9074 115.255C56.2168 115.255 55.5362 115.421 54.9227 115.739L50.536 118.283C50.1981 118.469 49.9148 118.741 49.7143 119.071C49.5694 119.312 49.4929 119.589 49.4929 119.87C49.4929 120.152 49.5694 120.428 49.7143 120.67C49.9148 121 50.1981 121.272 50.536 121.458L54.9271 123.998L54.9793 124.024C55.5875 124.328 56.2589 124.484 56.9388 124.48C57.6187 124.475 58.2879 124.31 58.8921 123.998L63.2832 121.458C63.6211 121.272 63.9044 121 64.1049 120.67C64.2476 120.428 64.3227 120.153 64.3223 119.872C64.3211 119.591 64.2462 119.314 64.1049 119.071C63.9041 118.742 63.6208 118.472 63.2832 118.287V118.283ZM58.1313 117.054L62.5224 119.594C62.6299 119.649 62.7224 119.73 62.7919 119.829C62.7957 119.842 62.7957 119.855 62.7919 119.868C62.7943 119.881 62.7943 119.894 62.7919 119.907C62.7239 120.005 62.6327 120.084 62.5267 120.138L58.1356 122.682C57.759 122.863 57.3467 122.956 56.9292 122.956C56.5116 122.956 56.0994 122.863 55.7227 122.682H55.6879L51.2969 120.143C51.1894 120.087 51.0969 120.006 51.0273 119.907C51.0236 119.895 51.0236 119.881 51.0273 119.868C51.0244 119.857 51.0244 119.845 51.0273 119.833C51.0956 119.733 51.1884 119.652 51.2969 119.598L55.6836 117.054C56.0648 116.868 56.4833 116.771 56.9074 116.771C57.3316 116.771 57.7501 116.868 58.1313 117.054Z" fill="#3C3C3C"/>
<path fill-rule="evenodd" clip-rule="evenodd" d="M76.9167 110.817L72.5256 108.277C71.6561 107.763 71.6561 106.931 72.5256 106.417L76.9123 103.873C77.4099 103.622 77.9594 103.491 78.5166 103.491C79.0738 103.491 79.6233 103.622 80.1209 103.873L84.5119 106.413C85.3814 106.927 85.3814 107.759 84.5119 108.273L80.1252 110.817C79.6276 111.068 79.0782 111.199 78.5209 111.199C77.9637 111.199 77.4143 111.068 76.9167 110.817Z" fill="white"/>
<path fill-rule="evenodd" clip-rule="evenodd" d="M77.3016 110.159L72.9061 107.619C72.7994 107.563 72.7072 107.482 72.6365 107.384C72.6334 107.371 72.6334 107.358 72.6365 107.345V107.31C72.7072 107.212 72.7994 107.131 72.9061 107.075L77.2972 104.531C77.6776 104.345 78.0955 104.248 78.5189 104.248C78.9423 104.248 79.3601 104.345 79.7406 104.531L84.1143 107.083H84.1534C84.2464 107.135 84.3255 107.208 84.3838 107.297C84.3894 107.302 84.3938 107.308 84.3969 107.315C84.3999 107.321 84.4015 107.329 84.4015 107.336C84.4015 107.344 84.3999 107.351 84.3969 107.358C84.3938 107.364 84.3894 107.37 84.3838 107.375C84.3156 107.473 84.2246 107.552 84.1186 107.606L79.7275 110.15C79.3463 110.334 78.9288 110.429 78.5058 110.429C78.0829 110.429 77.6654 110.334 77.2842 110.15L77.3016 110.159ZM72.1453 108.93L76.5407 111.474C77.1526 111.795 77.8328 111.962 78.5232 111.962C79.2137 111.962 79.8939 111.795 80.5058 111.474L84.8968 108.93C85.2338 108.742 85.5157 108.469 85.7142 108.138C85.8588 107.899 85.9341 107.624 85.9316 107.345C85.9326 107.063 85.8574 106.786 85.7142 106.543C85.5253 106.226 85.259 105.962 84.9403 105.777L84.8925 105.746L80.5014 103.207C79.8895 102.889 79.2103 102.723 78.5211 102.723C77.8318 102.723 77.1527 102.889 76.5407 103.207L72.1496 105.751C71.8117 105.937 71.5284 106.209 71.3279 106.539C71.1872 106.781 71.1122 107.056 71.1106 107.336C71.1122 107.618 71.1887 107.895 71.3323 108.138C71.5294 108.469 71.8097 108.742 72.1453 108.93Z" fill="#3C3C3C"/>
<path fill-rule="evenodd" clip-rule="evenodd" d="M84.517 118.936L80.1259 116.392C79.6286 116.14 79.0791 116.009 78.5217 116.009C77.9643 116.009 77.4147 116.14 76.9174 116.392L72.5263 118.932C71.6568 119.446 71.6568 120.278 72.5263 120.792L76.9174 123.331C77.415 123.582 77.9645 123.713 78.5217 123.713C79.0789 123.713 79.6283 123.582 80.1259 123.331L84.5126 120.787C85.4169 120.282 85.4169 119.446 84.517 118.936Z" fill="white"/>
<path fill-rule="evenodd" clip-rule="evenodd" d="M84.8948 118.278L80.5037 115.734L80.4516 115.708C79.8436 115.402 79.1718 115.246 78.4915 115.251C77.8112 115.256 77.1419 115.424 76.5387 115.739L72.1476 118.283C71.81 118.467 71.5267 118.738 71.3259 119.067C71.1846 119.31 71.1097 119.586 71.1085 119.868C71.1109 120.149 71.1874 120.424 71.3302 120.665C71.5307 120.995 71.814 121.267 72.152 121.454H72.1954L76.5431 123.971C77.1558 124.289 77.8356 124.455 78.5256 124.455C79.2155 124.455 79.8954 124.289 80.5081 123.971L84.8992 121.458C85.2346 121.272 85.5162 121.002 85.7165 120.674C85.8587 120.431 85.9336 120.154 85.9336 119.872C85.9336 119.591 85.8587 119.314 85.7165 119.071C85.5158 118.742 85.2324 118.472 84.8948 118.287V118.278ZM79.7429 117.05L84.1123 119.594C84.2203 119.646 84.3131 119.726 84.3818 119.824C84.3842 119.837 84.3842 119.851 84.3818 119.864C84.3848 119.877 84.3848 119.89 84.3818 119.903C84.3137 120.001 84.2226 120.08 84.1166 120.134L79.7646 122.678C79.3835 122.864 78.9649 122.961 78.5408 122.961C78.1167 122.961 77.6981 122.864 77.3169 122.678L72.9693 120.164L72.9302 120.138C72.8226 120.083 72.73 120.002 72.6606 119.903C72.6577 119.891 72.6577 119.879 72.6606 119.868C72.6587 119.855 72.6587 119.842 72.6606 119.829C72.7306 119.731 72.8231 119.652 72.9302 119.598L77.3213 117.054C77.6971 116.855 78.1181 116.758 78.543 116.771C78.9552 116.761 79.3638 116.851 79.7342 117.032L79.7429 117.05Z" fill="#3C3C3C"/>
<path fill-rule="evenodd" clip-rule="evenodd" d="M73.712 125.195L69.3296 122.656C68.8328 122.405 68.284 122.274 67.7275 122.274C67.171 122.274 66.6223 122.405 66.1254 122.656L61.7343 125.2C60.8648 125.714 60.8648 126.546 61.7343 127.055L66.1254 129.599C66.623 129.85 67.1725 129.981 67.7297 129.981C68.2869 129.981 68.8363 129.85 69.334 129.599L73.7207 127.055C74.5945 126.541 74.5946 125.709 73.712 125.195Z" fill="white"/>
<path fill-rule="evenodd" clip-rule="evenodd" d="M74.0922 124.538L69.7011 121.998C69.0876 121.68 68.4071 121.515 67.7164 121.515C67.0258 121.515 66.3452 121.68 65.7317 121.998L61.345 124.542C61.0056 124.728 60.7219 125.002 60.5233 125.335C60.3799 125.574 60.3033 125.848 60.3016 126.128C60.3027 126.409 60.3777 126.686 60.519 126.929C60.7197 127.258 61.0031 127.528 61.3407 127.713L65.7317 130.257C66.3452 130.575 67.0258 130.741 67.7164 130.741C68.4071 130.741 69.0876 130.575 69.7011 130.257L74.0879 127.713C74.4261 127.525 74.7094 127.252 74.9096 126.92C75.0523 126.679 75.1274 126.404 75.127 126.123C75.1253 125.843 75.0503 125.568 74.9096 125.326C74.7091 124.996 74.4258 124.724 74.0879 124.538H74.0922ZM68.9403 123.314L73.3314 125.853C73.4398 125.907 73.5326 125.988 73.6009 126.088C73.6035 126.1 73.6035 126.112 73.6009 126.123C73.6048 126.138 73.6048 126.153 73.6009 126.167C73.5316 126.263 73.4408 126.342 73.3357 126.398L68.9446 128.942C68.5635 129.128 68.1449 129.225 67.7208 129.225C67.2967 129.225 66.8781 129.128 66.4969 128.942L62.1059 126.398C61.9989 126.345 61.9074 126.266 61.8407 126.167C61.8369 126.154 61.8369 126.14 61.8407 126.128C61.8375 126.115 61.8375 126.101 61.8407 126.088C61.9107 125.991 62.0032 125.912 62.1102 125.858L66.4969 123.314C66.8781 123.127 67.2967 123.031 67.7208 123.031C68.1449 123.031 68.5635 123.127 68.9446 123.314H68.9403Z" fill="#3C3C3C"/>
<path fill-rule="evenodd" clip-rule="evenodd" d="M98.5377 123.331L94.1466 120.787C93.2771 120.278 93.2771 119.446 94.1466 118.932L98.5333 116.388C99.0309 116.136 99.5804 116.006 100.138 116.006C100.695 116.006 101.244 116.136 101.742 116.388L106.133 118.927C107.003 119.441 107.003 120.273 106.133 120.787L101.742 123.331C101.245 123.582 100.696 123.712 100.14 123.712C99.5834 123.712 99.0347 123.582 98.5377 123.331Z" fill="white"/>
<path fill-rule="evenodd" clip-rule="evenodd" d="M98.8958 122.651L94.5482 120.134C94.4411 120.08 94.3486 120 94.2786 119.903C94.276 119.89 94.276 119.877 94.2786 119.864C94.2757 119.852 94.2757 119.84 94.2786 119.829C94.348 119.73 94.4406 119.649 94.5482 119.594L98.8958 117.045C99.277 116.862 99.6945 116.767 100.117 116.767C100.54 116.767 100.958 116.862 101.339 117.045H101.383L105.73 119.563C105.837 119.62 105.929 119.7 106 119.798C106.002 119.811 106.002 119.825 106 119.837C106.003 119.849 106.003 119.861 106 119.872C105.93 119.972 105.838 120.052 105.73 120.108L101.343 122.651C100.961 122.835 100.543 122.93 100.12 122.93C99.696 122.93 99.2778 122.835 98.8958 122.651H98.8523H98.8958ZM93.77 121.458L98.1176 123.976L98.1567 124.002C98.7685 124.322 99.4487 124.49 100.139 124.49C100.83 124.49 101.51 124.322 102.122 124.002L106.517 121.458C106.855 121.271 107.138 121 107.339 120.669C107.482 120.428 107.559 120.153 107.561 119.872C107.559 119.591 107.484 119.314 107.343 119.071C107.142 118.741 106.857 118.47 106.517 118.287L102.17 115.769L102.13 115.743C101.519 115.422 100.838 115.255 100.148 115.255C99.4574 115.255 98.7772 115.422 98.1654 115.743L93.7743 118.287C93.4364 118.473 93.1531 118.745 92.9526 119.075C92.813 119.318 92.7381 119.592 92.7352 119.872C92.7364 120.154 92.8113 120.43 92.9526 120.674C93.1534 121.003 93.4367 121.273 93.7743 121.458H93.77Z" fill="#3C3C3C"/>
<path fill-rule="evenodd" clip-rule="evenodd" d="M87.7252 117.076L83.3341 114.532C82.4646 114.022 82.4646 113.186 83.3341 112.676L87.7209 110.133C88.2174 109.88 88.7663 109.749 89.323 109.749C89.8797 109.749 90.4285 109.88 90.9251 110.133L95.3205 112.672C96.19 113.186 96.19 114.018 95.3205 114.532L90.9338 117.076C90.4362 117.327 89.8867 117.458 89.3295 117.458C88.7723 117.458 88.2228 117.327 87.7252 117.076Z" fill="white"/>
<path fill-rule="evenodd" clip-rule="evenodd" d="M88.108 116.418L83.7125 113.874H83.6777C83.5846 113.822 83.5044 113.749 83.443 113.661C83.443 113.661 83.443 113.63 83.443 113.622C83.4411 113.609 83.4411 113.595 83.443 113.582C83.5129 113.485 83.6054 113.406 83.7125 113.352L88.1036 110.808C88.484 110.621 88.9019 110.525 89.3253 110.525C89.7487 110.525 90.1665 110.621 90.547 110.808L94.9381 113.347C95.0465 113.401 95.1393 113.482 95.2076 113.582C95.2102 113.594 95.2102 113.606 95.2076 113.617C95.2102 113.63 95.2102 113.644 95.2076 113.657C95.1377 113.754 95.0452 113.833 94.9381 113.887L90.547 116.431C90.1708 116.629 89.75 116.727 89.3253 116.714C88.9011 116.726 88.4807 116.631 88.1036 116.436L88.108 116.418ZM82.9517 115.19L87.3471 117.734C87.9558 118.062 88.6384 118.228 89.3296 118.217C90.0215 118.229 90.7046 118.061 91.3121 117.729L95.7032 115.185C96.0415 115.003 96.324 114.732 96.5206 114.401C96.6656 114.161 96.7422 113.885 96.7422 113.604C96.7422 113.323 96.6656 113.048 96.5206 112.807C96.3214 112.476 96.0378 112.204 95.6989 112.019L91.3078 109.479C90.6951 109.161 90.0152 108.996 89.3253 108.996C88.6354 108.996 87.9555 109.161 87.3428 109.479L82.9517 112.023C82.6122 112.209 82.3286 112.483 82.13 112.816C81.9892 113.056 81.9142 113.33 81.9126 113.609C81.9137 113.89 81.9887 114.167 82.13 114.41C82.3223 114.724 82.5898 114.984 82.9082 115.168L82.9517 115.19Z" fill="#3C3C3C"/>
<path fill-rule="evenodd" clip-rule="evenodd" d="M95.3264 125.195L90.9353 122.652C90.4377 122.4 89.8882 122.27 89.331 122.27C88.7738 122.27 88.2244 122.4 87.7267 122.652L83.34 125.195C82.4705 125.709 82.4705 126.541 83.34 127.055L87.7311 129.595C88.2287 129.846 88.7782 129.977 89.3354 129.977C89.8926 129.977 90.442 129.846 90.9396 129.595L95.3264 127.051C96.2089 126.537 96.2089 125.705 95.3264 125.195Z" fill="white"/>
<path fill-rule="evenodd" clip-rule="evenodd" d="M95.7031 124.538L91.312 121.994C90.6993 121.676 90.0194 121.51 89.3295 121.51C88.6395 121.51 87.9597 121.676 87.347 121.994L82.9559 124.538C82.6186 124.723 82.3365 124.995 82.1385 125.326C81.9945 125.567 81.9179 125.842 81.9168 126.123C81.9184 126.405 81.9949 126.682 82.1385 126.925C82.3367 127.257 82.6205 127.529 82.9602 127.713H82.9993L87.347 130.231C87.9588 130.551 88.639 130.719 89.3295 130.719C90.0199 130.719 90.7001 130.551 91.312 130.231L95.7031 127.687C96.0404 127.501 96.3224 127.229 96.5204 126.899C96.5331 126.881 96.5433 126.862 96.5509 126.842C96.6813 126.605 96.7472 126.338 96.7419 126.067C96.7365 125.796 96.6602 125.532 96.5204 125.3C96.3206 124.97 96.0371 124.7 95.6987 124.516L95.7031 124.538ZM90.5511 123.309L94.9422 125.849C95.0487 125.904 95.1398 125.985 95.2075 126.084C95.2112 126.097 95.2112 126.11 95.2075 126.123C95.1375 126.221 95.045 126.3 94.9379 126.354L90.5468 128.898C90.1656 129.081 89.748 129.177 89.3251 129.177C88.9022 129.177 88.4847 129.081 88.1034 128.898L83.7558 126.38H83.7124C83.6047 126.325 83.5122 126.244 83.4428 126.145C83.4391 126.132 83.4391 126.119 83.4428 126.106C83.4411 126.094 83.4411 126.083 83.4428 126.071C83.5122 125.972 83.6047 125.891 83.7124 125.836L88.1034 123.292C88.4839 123.106 88.9017 123.009 89.3251 123.009C89.7485 123.009 90.1664 123.106 90.5468 123.292L90.5511 123.309Z" fill="#3C3C3C"/>
<path fill-rule="evenodd" clip-rule="evenodd" d="M84.5222 131.477L80.1311 128.937C79.6338 128.685 79.0842 128.553 78.5268 128.553C77.9694 128.553 77.4198 128.685 76.9225 128.937L72.5314 131.481C71.6619 131.991 71.6619 132.827 72.5314 133.337L76.9225 135.88C77.4201 136.132 77.9696 136.263 78.5268 136.263C79.084 136.263 79.6335 136.132 80.1311 135.88L84.5178 133.337C85.4178 132.783 85.4178 131.969 84.5222 131.477Z" fill="white"/>
<path fill-rule="evenodd" clip-rule="evenodd" d="M84.8984 130.797L80.5073 128.257L80.4552 128.231C79.8471 127.926 79.1756 127.77 78.4956 127.774C77.8156 127.779 77.1463 127.944 76.5423 128.257L72.1512 130.801C71.8133 130.988 71.53 131.26 71.3295 131.59C71.1855 131.831 71.1089 132.106 71.1078 132.387C71.1094 132.669 71.1859 132.946 71.3295 133.188C71.5315 133.516 71.8146 133.786 72.1512 133.972L76.5467 136.516C77.1554 136.845 77.8379 137.011 78.5292 137C79.221 137.012 79.9041 136.844 80.5117 136.512L84.9028 133.968C85.241 133.786 85.5235 133.515 85.7201 133.184C85.8628 132.943 85.9379 132.667 85.9375 132.387C85.9359 132.105 85.8593 131.828 85.7158 131.585C85.5153 131.255 85.232 130.983 84.8941 130.797H84.8984ZM79.7639 129.573L84.155 132.112C84.2634 132.166 84.3562 132.247 84.4245 132.348C84.4283 132.36 84.4283 132.374 84.4245 132.387C84.4271 132.398 84.4271 132.41 84.4245 132.422C84.3568 132.521 84.2657 132.602 84.1593 132.657L79.7682 135.201C79.3863 135.384 78.968 135.48 78.5444 135.48C78.1208 135.48 77.7025 135.384 77.3205 135.201L72.9295 132.657C72.8223 132.603 72.7298 132.524 72.6599 132.426C72.6514 132.415 72.6469 132.401 72.6469 132.387C72.6469 132.373 72.6514 132.359 72.6599 132.348C72.7298 132.25 72.8223 132.171 72.9295 132.117L77.3205 129.573C77.6971 129.376 78.1176 129.279 78.5422 129.29C78.9545 129.28 79.363 129.37 79.7335 129.551L79.7639 129.573Z" fill="#3C3C3C"/>
<path fill-rule="evenodd" clip-rule="evenodd" d="M114.603 199.429V194.106L114.681 194.11L115.177 194.114L115.672 194.11L116.168 194.088L116.659 194.053L117.146 194.006L117.633 193.945L118.116 193.871L118.59 193.779L119.059 193.679L119.52 193.561L119.977 193.435L120.42 193.291L120.85 193.134L121.277 192.965L121.685 192.782L122.081 192.581L122.463 192.372L182.782 157.416L183.143 157.194L183.487 156.963L183.804 156.723L184.095 156.479L184.365 156.227L184.613 155.974L184.834 155.708L185.034 155.443L185.208 155.173L185.36 154.894L185.491 154.615L185.595 154.336L185.678 154.053V159.376L185.595 159.659L185.491 159.938L185.36 160.217L185.208 160.491L185.034 160.766L184.834 161.031L184.613 161.293L184.365 161.55L184.095 161.802L183.804 162.046L183.487 162.286L183.143 162.512L182.782 162.735L122.463 197.695L122.081 197.904L121.685 198.1L121.277 198.287L120.85 198.457L120.42 198.614L119.977 198.753L119.52 198.884L119.059 199.002L118.59 199.102L118.116 199.189L117.633 199.267L117.146 199.328L116.659 199.376L116.168 199.411L115.672 199.429L115.177 199.437L114.681 199.429H114.603Z" fill="white"/>
<path fill-rule="evenodd" clip-rule="evenodd" d="M115.364 198.675V194.872C115.651 194.872 115.933 194.872 116.233 194.846L116.729 194.811H116.794L117.259 194.768L117.742 194.711H117.829C118.146 194.663 118.455 194.611 118.768 194.55L119.237 194.45L119.724 194.328L120.198 194.193L120.259 194.171L120.668 194.04H120.729L121.163 193.883L121.598 193.714C121.898 193.579 122.168 193.452 122.468 193.308C122.497 193.295 122.524 193.279 122.55 193.261L122.894 193.069C142.975 181.426 163.835 169.943 183.587 157.882L183.987 157.612L184.304 157.377L184.365 157.324L184.63 157.102L184.678 157.059L184.93 156.823L184.965 156.789V159.311L184.921 159.467L184.843 159.668L184.726 159.925L184.613 160.13L184.447 160.387L184.282 160.609L184.113 160.809L183.887 161.044L183.647 161.266L183.391 161.48L183.069 161.724L182.795 161.907L182.448 162.12L122.146 197.068L121.768 197.277C121.52 197.399 121.29 197.508 121.037 197.621L120.646 197.778L120.181 197.943L119.82 198.061L119.385 198.187L118.951 198.296L118.455 198.405L117.585 198.553L117.098 198.614H117.059L116.651 198.653L116.133 198.688H115.407L115.364 198.675ZM113.846 194.106V199.429C113.846 199.624 113.921 199.812 114.055 199.954C114.19 200.096 114.373 200.181 114.568 200.191H114.642C114.994 200.191 115.346 200.191 115.703 200.191H116.138H116.207L116.698 200.156L117.133 200.112H117.212L117.694 200.051L118.22 199.969L118.655 199.89H118.729C119.22 199.781 119.672 199.668 120.159 199.529L120.594 199.394H120.668L121.103 199.237L121.537 199.058L122.003 198.849L122.437 198.636C142.497 187.546 163.979 175.162 183.53 163.227L183.856 163.009L183.93 162.961L184.247 162.721L184.574 162.451L184.874 162.172L185.147 161.885L185.178 161.85L185.378 161.619L185.43 161.554L185.604 161.323L185.665 161.24L185.839 160.966L185.865 160.927L185.995 160.687C186.014 160.66 186.03 160.63 186.043 160.6L186.169 160.321V160.269L186.26 160.025C186.273 159.997 186.283 159.968 186.291 159.938L186.36 159.707C186.392 159.622 186.408 159.532 186.408 159.441V154.118C186.408 153.954 186.354 153.793 186.255 153.662C186.157 153.53 186.018 153.433 185.86 153.387C185.765 153.359 185.665 153.35 185.566 153.361C185.467 153.372 185.371 153.402 185.283 153.45C185.196 153.498 185.119 153.563 185.057 153.641C184.995 153.719 184.949 153.809 184.921 153.905L184.843 154.175L184.765 154.371L184.656 154.615L184.521 154.859L184.378 155.081L184.226 155.286L184.013 155.53L183.808 155.747L183.569 155.97L183.313 156.187L183 156.418L182.717 156.61L182.369 156.823L122.055 191.78L121.733 191.958L121.298 192.163L120.937 192.324L120.503 192.494C119.954 192.693 119.395 192.861 118.829 192.999L118.359 193.104L117.925 193.187L117.525 193.252H117.485L116.998 193.313C116.681 193.343 116.377 193.369 116.059 193.391H115.585H115.12C114.959 193.391 114.799 193.391 114.642 193.391H114.551C114.367 193.405 114.194 193.484 114.065 193.616C113.935 193.747 113.858 193.921 113.846 194.106Z" fill="#3C3C3C"/>
<path fill-rule="evenodd" clip-rule="evenodd" d="M158.418 70.1194L115.49 45.2864V36.3132L158.418 61.1419V70.1194Z" fill="white"/>
<path fill-rule="evenodd" clip-rule="evenodd" d="M157.656 68.8038L116.25 44.8463V37.6286L157.656 61.586V68.8081V68.8038ZM115.111 45.944L157.978 70.7378C158.104 70.8314 158.256 70.8819 158.413 70.8815C158.615 70.8815 158.808 70.8012 158.951 70.6583C159.094 70.5153 159.174 70.3214 159.174 70.1193V61.1418C159.172 61.0084 159.136 60.8778 159.069 60.7626C159.002 60.6474 158.906 60.5514 158.791 60.484L115.911 35.6815C115.796 35.604 115.663 35.5592 115.525 35.5519C115.387 35.5445 115.25 35.5749 115.128 35.6398C115.006 35.7047 114.904 35.8017 114.833 35.9203C114.761 36.039 114.724 36.1747 114.724 36.3131V45.2863C114.724 45.4204 114.761 45.552 114.829 45.6675C114.897 45.7831 114.994 45.8785 115.111 45.944Z" fill="#3C3C3C"/>
<path fill-rule="evenodd" clip-rule="evenodd" d="M115.49 45.2863L102.208 37.6025V28.6294L115.49 36.3132V45.2863Z" fill="white"/>
<path fill-rule="evenodd" clip-rule="evenodd" d="M114.728 43.9709L102.99 37.167V29.9449L114.728 36.7488V43.9709ZM101.825 38.2603L115.063 45.918C115.178 45.9955 115.311 46.0403 115.449 46.0476C115.587 46.055 115.724 46.0245 115.846 45.9596C115.968 45.8947 116.07 45.7978 116.141 45.6791C116.212 45.5605 116.25 45.4247 116.25 45.2864V36.3132C116.25 36.1763 116.212 36.042 116.142 35.9247C116.071 35.8073 115.971 35.7113 115.85 35.6467L102.629 28.0022C102.503 27.9085 102.351 27.8581 102.194 27.8584C101.992 27.8584 101.799 27.9387 101.656 28.0817C101.513 28.2246 101.433 28.4185 101.433 28.6207V37.5938C101.433 37.7299 101.469 37.8636 101.538 37.9808C101.607 38.0981 101.706 38.1946 101.825 38.2603Z" fill="#3C3C3C"/>
<path fill-rule="evenodd" clip-rule="evenodd" d="M153.983 63.6553C154.154 63.7284 154.345 63.7365 154.521 63.6781C154.697 63.6198 154.846 63.499 154.939 63.3385C155.033 63.178 155.065 62.9888 155.029 62.8065C154.993 62.6242 154.891 62.4613 154.744 62.3485L142.079 55.0219C141.904 54.922 141.697 54.8953 141.503 54.9475C141.308 54.9997 141.142 55.1266 141.04 55.3007C140.99 55.387 140.958 55.4824 140.945 55.5812C140.932 55.6801 140.939 55.7806 140.965 55.8769C140.99 55.9732 141.035 56.0635 141.096 56.1425C141.156 56.2215 141.232 56.2877 141.318 56.3374L153.983 63.6553Z" fill="#3C3C3C"/>
<path fill-rule="evenodd" clip-rule="evenodd" d="M119.942 86.8851C120.113 86.9581 120.304 86.9662 120.48 86.9079C120.656 86.8496 120.805 86.7288 120.898 86.5683C120.992 86.4077 121.023 86.2185 120.987 86.0362C120.951 85.8539 120.85 85.6911 120.703 85.5783L102.565 75.0849C102.479 75.0193 102.38 74.9727 102.275 74.9483C102.17 74.9238 102.061 74.922 101.955 74.943C101.849 74.9639 101.749 75.0072 101.661 75.0699C101.574 75.1326 101.5 75.2133 101.446 75.3067C101.391 75.4 101.357 75.5039 101.346 75.6113C101.335 75.7188 101.347 75.8275 101.381 75.9301C101.414 76.0327 101.47 76.1269 101.543 76.2065C101.616 76.2861 101.705 76.3492 101.804 76.3916L119.942 86.8851Z" fill="#3C3C3C"/>
<path fill-rule="evenodd" clip-rule="evenodd" d="M119.942 81.3837C120.113 81.4568 120.304 81.4649 120.48 81.4066C120.656 81.3482 120.805 81.2275 120.898 81.0669C120.992 80.9064 121.023 80.7172 120.987 80.5349C120.951 80.3526 120.85 80.1897 120.703 80.077L102.73 69.6794C102.559 69.6064 102.368 69.5982 102.192 69.6566C102.016 69.7149 101.867 69.8357 101.774 69.9962C101.68 70.1567 101.648 70.346 101.684 70.5283C101.72 70.7106 101.822 70.8734 101.969 70.9862L119.942 81.3837Z" fill="#3C3C3C"/>
<path fill-rule="evenodd" clip-rule="evenodd" d="M158.022 120.878C158.108 120.938 158.205 120.98 158.308 121C158.411 121.02 158.516 121.019 158.618 120.996C158.721 120.974 158.817 120.93 158.901 120.868C158.986 120.806 159.056 120.727 159.109 120.637C159.161 120.546 159.194 120.446 159.206 120.341C159.218 120.237 159.208 120.132 159.177 120.032C159.146 119.932 159.094 119.839 159.026 119.76C158.957 119.681 158.873 119.617 158.779 119.572L102.586 87.0462C102.415 86.9732 102.224 86.9651 102.048 87.0234C101.872 87.0817 101.723 87.2025 101.629 87.363C101.536 87.5236 101.504 87.7128 101.54 87.8951C101.576 88.0774 101.677 88.2402 101.825 88.353L158.022 120.878Z" fill="#3C3C3C"/>
<path fill-rule="evenodd" clip-rule="evenodd" d="M144.513 69.906C142.109 68.5164 139.818 67.8587 137.77 67.8587C136.329 67.8284 134.906 68.1944 133.658 68.917C132.409 69.6396 131.382 70.6912 130.688 71.9576C129.666 73.7348 129.088 76.0565 129.088 78.8399C129.088 83.5399 130.727 88.7321 133.379 93.3276C136.031 97.9231 139.705 101.948 143.766 104.3C146.187 105.698 148.487 106.36 150.535 106.36C151.969 106.392 153.385 106.03 154.628 105.313C155.871 104.596 156.894 103.551 157.587 102.292C158.617 100.506 159.195 98.1801 159.195 95.3879C159.195 90.6879 157.552 85.487 154.9 80.8871C152.248 76.2873 148.583 72.2755 144.513 69.9234V69.906ZM137.77 69.3745C139.557 69.3745 141.592 69.9669 143.761 71.2214C147.592 73.4342 151.065 77.2543 153.587 81.632C156.108 86.0097 157.678 90.9449 157.678 95.3705C157.678 97.8926 157.174 99.966 156.282 101.517C155.723 102.548 154.891 103.403 153.876 103.989C152.862 104.575 151.705 104.868 150.535 104.836C148.739 104.836 146.7 104.239 144.522 102.985C140.696 100.772 137.218 96.9517 134.692 92.5697C132.166 88.1876 130.61 83.2742 130.61 78.8399C130.61 76.3309 131.114 74.2662 132.005 72.7155C132.568 71.6815 133.404 70.8227 134.422 70.2333C135.439 69.644 136.599 69.3468 137.775 69.3745H137.77Z" fill="#3C3C3C"/>
<path fill-rule="evenodd" clip-rule="evenodd" d="M144.136 70.5637C136.258 66.0074 129.846 69.723 129.85 78.84C129.853 79.9559 129.942 81.0699 130.115 82.1722L130.307 83.148L144.171 87.0683L148.084 73.5127V73.4648C146.875 72.3596 145.552 71.3871 144.136 70.5637Z" fill="#2B7CFF" fill-opacity="0.63"/>
<path fill-rule="evenodd" clip-rule="evenodd" d="M144.515 69.906C142.111 68.5164 139.82 67.8587 137.772 67.8587C136.33 67.8284 134.908 68.1944 133.659 68.917C132.411 69.6397 131.384 70.6912 130.69 71.9576C129.668 73.7348 129.09 76.0565 129.09 78.8399C129.09 79.3931 129.09 79.955 129.159 80.5344C129.229 81.1137 129.272 81.7017 129.364 82.2767C129.451 82.7646 129.555 83.2568 129.65 83.7447L144.693 87.983C146.079 83.1537 147.464 78.3259 148.85 73.4996L148.724 73.0291L148.554 72.881C147.902 72.2886 147.25 71.7398 146.567 71.2432C145.908 70.7575 145.223 70.3081 144.515 69.8972V69.906ZM137.772 69.3745C139.559 69.3745 141.593 69.9669 143.763 71.2214C144.42 71.6048 145.055 72.0236 145.667 72.4759C146.198 72.868 146.712 73.2818 147.211 73.7174L143.654 86.1186L130.959 82.5424L130.863 82.0502C130.781 81.497 130.716 80.9525 130.672 80.4124C130.629 79.8723 130.611 79.3626 130.611 78.8399C130.611 76.3309 131.111 74.2662 132.007 72.7155C132.57 71.6815 133.406 70.8227 134.423 70.2333C135.441 69.644 136.601 69.3468 137.776 69.3745H137.772Z" fill="#3C3C3C"/>
<path fill-rule="evenodd" clip-rule="evenodd" d="M148.062 73.4995C153.749 78.6525 157.857 86.7632 158.379 93.9287C159.044 103.316 153.362 107.946 145.605 104.413C145.171 98.7115 144.566 92.77 144.171 87.0551C145.388 82.477 146.814 78.095 148.062 73.4995Z" fill="#2B7CFF"/>
<path fill-rule="evenodd" clip-rule="evenodd" d="M148.457 74.9196C150.899 77.379 152.935 80.2125 154.487 83.3135C156.213 86.6319 157.278 90.2551 157.622 93.981C157.813 96.7078 157.452 98.999 156.652 100.768C156.158 101.909 155.376 102.903 154.383 103.651C153.409 104.346 152.259 104.751 151.066 104.819C149.435 104.888 147.81 104.573 146.323 103.899C146.131 101.417 145.918 98.9642 145.701 96.4944C145.423 93.3233 145.144 90.1391 144.936 87.1161C145.562 84.764 146.24 82.4553 146.931 80.1467C147.449 78.4044 147.97 76.662 148.453 74.9196H148.457ZM155.848 82.6296C154.029 78.9855 151.566 75.7019 148.579 72.9377L147.662 72.1101L147.335 73.2993C146.727 75.5382 146.109 77.6334 145.488 79.7242C144.788 82.0895 144.088 84.446 143.449 86.8592L143.414 86.9811V87.1031C143.636 90.3047 143.914 93.4758 144.192 96.6338C144.423 99.2952 144.657 101.952 144.849 104.474L144.879 104.91L145.314 105.097C147.143 105.992 149.167 106.415 151.201 106.326C152.672 106.237 154.089 105.735 155.287 104.875C156.498 103.976 157.453 102.774 158.057 101.39C158.961 99.3998 159.361 96.8559 159.157 93.8678C158.792 89.942 157.669 86.1249 155.848 82.6296Z" fill="#3C3C3C"/>
<path fill-rule="evenodd" clip-rule="evenodd" d="M130.146 94.4122C130.317 94.4937 130.513 94.5076 130.694 94.4512C130.876 94.3948 131.029 94.2722 131.124 94.1077C131.22 93.9432 131.25 93.7488 131.209 93.5631C131.167 93.3775 131.058 93.2141 130.902 93.1054L128.268 91.5808C128.093 91.4815 127.886 91.4556 127.692 91.5086C127.498 91.5617 127.333 91.6894 127.233 91.864C127.184 91.9502 127.152 92.0455 127.139 92.1442C127.126 92.2429 127.133 92.3432 127.16 92.4392C127.186 92.5352 127.231 92.625 127.292 92.7034C127.353 92.7819 127.429 92.8475 127.516 92.8963L130.146 94.4122Z" fill="#3C3C3C"/>
<path fill-rule="evenodd" clip-rule="evenodd" d="M129.562 67.9329C129.733 68.0143 129.929 68.0283 130.111 67.9718C130.292 67.9154 130.445 67.7928 130.54 67.6283C130.636 67.4638 130.666 67.2694 130.625 67.0838C130.583 66.8981 130.474 66.7348 130.318 66.6261L127.223 64.8358C127.052 64.7583 126.858 64.7474 126.68 64.8051C126.501 64.8627 126.35 64.9849 126.256 65.1478C126.162 65.3108 126.132 65.5029 126.172 65.6867C126.212 65.8705 126.318 66.033 126.471 66.1426L129.562 67.9329Z" fill="#3C3C3C"/>
<path fill-rule="evenodd" clip-rule="evenodd" d="M164.322 101.465C164.493 101.546 164.689 101.56 164.87 101.503C165.052 101.447 165.205 101.324 165.3 101.16C165.395 100.995 165.425 100.801 165.384 100.615C165.343 100.43 165.234 100.266 165.078 100.158L162.104 98.4154C161.933 98.3339 161.737 98.32 161.556 98.3764C161.375 98.4328 161.221 98.5555 161.126 98.72C161.031 98.8845 161.001 99.0788 161.042 99.2645C161.083 99.4501 161.192 99.6135 161.348 99.7222L164.322 101.465Z" fill="#3C3C3C"/>
<path fill-rule="evenodd" clip-rule="evenodd" d="M141.267 82.011C141.59 81.8316 141.961 81.7599 142.328 81.8062C142.847 81.8732 143.347 82.0498 143.793 82.3246C144.392 82.6814 144.938 83.1213 145.415 83.6314C145.949 84.2002 146.411 84.8321 146.793 85.5131C147.192 86.1847 147.508 86.903 147.732 87.6519C147.938 88.321 148.048 89.0163 148.058 89.7166C148.071 90.2493 147.974 90.779 147.771 91.2717C147.636 91.6001 147.398 91.8754 147.093 92.0557L147.049 92.0775C146.741 92.2537 146.384 92.3241 146.032 92.2779C145.503 92.2087 144.995 92.0291 144.541 91.7508C143.946 91.3943 143.406 90.9543 142.936 90.444C142.398 89.8648 141.927 89.2262 141.532 88.5405C141.134 87.8688 140.82 87.1505 140.597 86.4018C140.388 85.7346 140.277 85.0406 140.267 84.3414C140.253 83.8082 140.352 83.278 140.558 82.7863C140.691 82.4558 140.93 82.1786 141.236 81.9979H141.258L141.267 82.011ZM142.471 80.2947C141.79 80.2167 141.102 80.357 140.506 80.6955C139.923 81.035 139.465 81.5546 139.202 82.1765C138.904 82.8633 138.756 83.6058 138.767 84.3545C138.774 85.2009 138.905 86.0417 139.154 86.8504C139.414 87.7181 139.779 88.5505 140.241 89.3289C140.692 90.1139 141.232 90.8447 141.849 91.5069C142.421 92.1208 143.077 92.6502 143.797 93.0794C144.44 93.4654 145.157 93.7118 145.901 93.8025C146.575 93.8762 147.255 93.7326 147.841 93.3926C148.427 93.0525 148.89 92.5338 149.162 91.912C149.461 91.2256 149.609 90.4828 149.597 89.734C149.589 88.8863 149.459 88.0441 149.21 87.2337C148.95 86.373 148.588 85.5467 148.132 84.7726C147.689 83.984 147.152 83.2526 146.532 82.5947C145.957 81.9718 145.293 81.4374 144.562 81.0091C143.925 80.6223 143.212 80.3785 142.471 80.2947Z" fill="#3C3C3C"/>
<path fill-rule="evenodd" clip-rule="evenodd" d="M141.267 82.011C141.59 81.8316 141.961 81.7599 142.328 81.8062C142.847 81.8732 143.347 82.0498 143.793 82.3246C144.392 82.6814 144.938 83.1213 145.415 83.6314C145.949 84.2002 146.411 84.8321 146.793 85.5131C147.192 86.1847 147.508 86.903 147.732 87.6519C147.938 88.321 148.048 89.0163 148.058 89.7166C148.071 90.2493 147.974 90.779 147.771 91.2717C147.636 91.6001 147.398 91.8754 147.093 92.0557L147.049 92.0775C146.741 92.2537 146.384 92.3241 146.032 92.2779C145.503 92.2087 144.995 92.0291 144.541 91.7508C143.946 91.3943 143.406 90.9543 142.936 90.444C142.398 89.8648 141.927 89.2262 141.532 88.5405C141.134 87.8688 140.82 87.1505 140.597 86.4018C140.388 85.7346 140.277 85.0406 140.267 84.3414C140.253 83.8082 140.352 83.278 140.558 82.7863C140.691 82.4558 140.93 82.1786 141.236 81.9979H141.258L141.267 82.011ZM142.471 80.2947C141.79 80.2167 141.102 80.357 140.506 80.6955C139.923 81.035 139.465 81.5546 139.202 82.1765C138.904 82.8633 138.756 83.6058 138.767 84.3545C138.774 85.2009 138.905 86.0417 139.154 86.8504C139.414 87.7181 139.779 88.5505 140.241 89.3289C140.692 90.1139 141.232 90.8447 141.849 91.5069C142.421 92.1208 143.077 92.6502 143.797 93.0794C144.44 93.4654 145.157 93.7118 145.901 93.8025C146.575 93.8762 147.255 93.7326 147.841 93.3926C148.427 93.0525 148.89 92.5338 149.162 91.912C149.461 91.2256 149.609 90.4828 149.597 89.734C149.589 88.8863 149.459 88.0441 149.21 87.2337C148.95 86.373 148.588 85.5467 148.132 84.7726C147.689 83.984 147.152 83.2526 146.532 82.5947C145.957 81.9718 145.293 81.4374 144.562 81.0091C143.925 80.6223 143.212 80.3785 142.471 80.2947Z" fill="#3C3C3C"/>
<path fill-rule="evenodd" clip-rule="evenodd" d="M121.172 59.3864L102.208 48.4182V55.8233L121.172 66.7914V59.3864Z" fill="white"/>
<path fill-rule="evenodd" clip-rule="evenodd" d="M121.502 58.7025L102.585 47.7605C102.499 47.7106 102.404 47.6782 102.305 47.6652C102.207 47.6522 102.106 47.6588 102.01 47.6847C101.914 47.7106 101.824 47.7552 101.745 47.8161C101.666 47.8769 101.6 47.9528 101.55 48.0393C101.482 48.1539 101.446 48.2848 101.446 48.4182V55.8233C101.445 55.9682 101.486 56.1103 101.563 56.233C101.64 56.3556 101.75 56.4537 101.881 56.5158L120.793 67.4448C120.967 67.5445 121.174 67.5711 121.368 67.5189C121.561 67.4667 121.727 67.3398 121.828 67.166C121.892 67.05 121.926 66.9198 121.928 66.7871V59.382C121.927 59.238 121.886 59.097 121.809 58.9753C121.732 58.8536 121.623 58.756 121.493 58.6938L121.502 58.7025ZM102.968 49.738L120.41 59.8263V65.489L102.968 55.4007V49.738Z" fill="#3C3C3C"/>
</g>
<defs>
<clipPath id="clip0_651_11549">
<rect width="208" height="201" fill="white" transform="matrix(-1 0 0 1 208 0)"/>
</clipPath>
</defs>
</svg>
