<svg width="26" height="26" viewBox="0 0 26 26" fill="none" xmlns="http://www.w3.org/2000/svg">
<path d="M17.0011 3C17.0477 3 17.0942 3 17.1434 3C17.2576 4.41044 16.7192 5.46432 16.0649 6.22751C15.4229 6.98542 14.5438 7.7205 13.122 7.60897C13.0271 6.21872 13.5663 5.24301 14.2197 4.48158C14.8257 3.77197 15.9367 3.14052 17.0011 3Z" fill="#2B7CFF"/>
<path d="M21.3053 17.6805C21.3053 17.6945 21.3053 17.7068 21.3053 17.72C20.9057 18.9302 20.3357 19.9674 19.6401 20.9299C19.0052 21.8038 18.2271 22.9797 16.8377 22.9797C15.6372 22.9797 14.8397 22.2078 13.6093 22.1867C12.3078 22.1656 11.592 22.8322 10.402 22.9999C10.2659 22.9999 10.1298 22.9999 9.99627 22.9999C9.12243 22.8735 8.4172 22.1814 7.90344 21.5579C6.38849 19.7153 5.2178 17.3353 5 14.2896C5 13.991 5 13.6933 5 13.3947C5.09221 11.2149 6.15136 9.44266 7.55917 8.58374C8.30216 8.12706 9.32354 7.73801 10.4609 7.9119C10.9483 7.98742 11.4462 8.15429 11.8827 8.3194C12.2964 8.47836 12.8136 8.76027 13.3037 8.74534C13.6357 8.73568 13.9659 8.56267 14.3005 8.44059C15.2806 8.08667 16.2414 7.68092 17.5078 7.8715C19.0298 8.10159 20.11 8.77783 20.7775 9.82118C19.49 10.6406 18.4721 11.8754 18.646 13.984C18.8006 15.8994 19.9142 17.0201 21.3053 17.6805Z" fill="#2B7CFF"/>
</svg>
