<svg width="26" height="26" viewBox="0 0 26 26" fill="none" xmlns="http://www.w3.org/2000/svg">
<path d="M3 3H23V23H3V3Z" fill="#2B7CFF"/>
<path d="M16.435 18.6251C16.8379 19.2828 17.362 19.7663 18.289 19.7663C19.0677 19.7663 19.5652 19.3771 19.5652 18.8393C19.5652 18.1949 19.0541 17.9666 18.1969 17.5917L17.7271 17.3901C16.3709 16.8123 15.4699 16.0885 15.4699 14.5583C15.4699 13.1488 16.5439 12.0758 18.2223 12.0758C19.4172 12.0758 20.2763 12.4917 20.8953 13.5806L19.4319 14.5203C19.1096 13.9425 18.762 13.7149 18.2223 13.7149C17.6719 13.7149 17.323 14.0641 17.323 14.5203C17.323 15.0841 17.6722 15.3123 18.4785 15.6615L18.9483 15.8628C20.5452 16.5476 21.4467 17.2456 21.4467 18.8152C21.4467 20.5072 20.1175 21.4342 18.3324 21.4342C16.5871 21.4342 15.4594 20.6025 14.9077 19.5123L16.435 18.6251ZM9.79596 18.7879C10.0912 19.3117 10.3598 19.7546 11.0055 19.7546C11.623 19.7546 12.0125 19.513 12.0125 18.5737V12.1831H13.8919V18.599C13.8919 20.545 12.7509 21.4308 11.0855 21.4308C9.58072 21.4308 8.70932 20.652 8.26611 19.7141L9.79596 18.7879Z" fill="#1B1B1B"/>
</svg>
