<svg width="24" height="24" viewBox="0 0 24 24" fill="none" xmlns="http://www.w3.org/2000/svg">
<path d="M11.7975 0.738281C7.48505 0.738281 3.97656 4.24677 3.97656 8.55917C3.97656 13.9794 11.8051 23.2383 11.8051 23.2383C11.8051 23.2383 19.6183 13.7129 19.6183 8.55917C19.6183 4.24677 16.11 0.738281 11.7975 0.738281ZM14.1572 10.8491C13.5065 11.4997 12.6521 11.825 11.7975 11.825C10.943 11.825 10.0883 11.4997 9.43787 10.8491C8.13667 9.54808 8.13667 7.43102 9.43787 6.12982C10.0679 5.49948 10.9061 5.15231 11.7975 5.15231C12.6889 5.15231 13.5268 5.49962 14.1572 6.12982C15.4584 7.43102 15.4584 9.54808 14.1572 10.8491Z" fill="#1B6DFF"/>
</svg>
