<svg width="21" height="21" viewBox="0 0 21 21" fill="none" xmlns="http://www.w3.org/2000/svg">
<path d="M20.8149 4.17236L14.446 10.5002L20.8149 16.8281C20.93 16.5874 20.9999 16.3214 20.9999 16.0373V4.9631C20.9999 4.67899 20.93 4.413 20.8149 4.17236Z" fill="#2B7CFF"/>
<path d="M19.1543 3.11719H1.84567C1.56156 3.11719 1.29557 3.18704 1.05493 3.30217L9.19501 11.4012C9.91476 12.121 11.0852 12.121 11.8049 11.4012L19.945 3.30217C19.7044 3.18704 19.4384 3.11719 19.1543 3.11719Z" fill="#2B7CFF"/>
<path d="M0.18498 4.17236C0.0698496 4.413 0 4.67899 0 4.9631V16.0373C0 16.3214 0.0698496 16.5875 0.18498 16.8281L6.55385 10.5002L0.18498 4.17236Z" fill="#2B7CFF"/>
<path d="M13.5761 11.3701L12.6749 12.2714C11.4756 13.4706 9.52425 13.4706 8.32499 12.2714L7.4238 11.3701L1.05493 17.698C1.29557 17.8131 1.56156 17.8829 1.84567 17.8829H19.1543C19.4384 17.8829 19.7044 17.8131 19.945 17.698L13.5761 11.3701Z" fill="#2B7CFF"/>
</svg>
