<svg width="26" height="26" viewBox="0 0 26 26" fill="none" xmlns="http://www.w3.org/2000/svg">
<path d="M17.2074 3H8.79259C7.98726 3 7.33716 3.65301 7.33716 4.45689V21.5446C7.33716 22.3477 7.98726 23 8.79259 23H17.2074C18.0113 23 18.6629 22.3477 18.6629 21.5446V4.45689C18.6629 3.65301 18.0113 3 17.2074 3ZM10.9236 3.88478H15.0778C15.1828 3.88478 15.2681 4.04147 15.2681 4.23533C15.2681 4.4292 15.1828 4.58662 15.0778 4.58662H10.9236C10.818 4.58662 10.7341 4.4292 10.7341 4.23533C10.7341 4.04147 10.818 3.88478 10.9236 3.88478ZM13.0007 21.5621C12.4884 21.5621 12.0715 21.1452 12.0715 20.6321C12.0715 20.119 12.4884 19.7036 13.0007 19.7036C13.5116 19.7036 13.9285 20.119 13.9285 20.6321C13.9285 21.1452 13.5116 21.5621 13.0007 21.5621ZM17.5726 18.3779H8.42819V5.45828H17.5726V18.3779Z" fill="#2B7CFF"/>
</svg>
