<svg width="26" height="26" viewBox="0 0 26 26" fill="none" xmlns="http://www.w3.org/2000/svg">
<path d="M17.3332 12.2348C17.3332 12.2348 17.1606 10.7403 15.5734 10.7403C13.9861 10.7403 12.8994 10.9488 12.8994 11.8351C12.8994 12.7214 15.9877 12.7214 17.1609 13.0689C18.3341 13.4164 19.3692 14.3201 18.8516 15.9189C18.334 17.5177 16.7467 17.6915 14.2968 17.6915C11.8469 17.6915 11.2947 15.6407 11.2947 14.8415H12.6749C12.6749 14.8415 12.5022 16.0926 14.124 16.3011C15.7458 16.5095 17.2965 16.6269 17.5056 15.3628C17.7816 13.6944 12.2607 14.5287 11.7775 12.8952C11.3694 11.515 11.6049 9.69773 14.3654 9.41954C17.126 9.14134 18.6442 10.369 18.6442 12.2001L17.3332 12.2348Z" fill="#2B7CFF"/>
<path d="M4.00015 18.7501L7.05153 20.5245C8.5847 21.4161 10.5011 20.3016 10.5011 18.5185V15.409V9.68647H9.25741V18.1701C9.25741 19.1438 8.2109 19.7526 7.37348 19.2655L5.2437 18.0271V8.9731L13.0282 4.44657L20.8126 8.9731V18.0271L13.0282 22.5536L10.7857 21.2496L9.32131 21.8443L13.028 24L22.0562 18.7497V8.25004L13.0282 3L4 8.25034V18.7501H4.00015Z" fill="#2B7CFF"/>
</svg>
