<svg width="145" height="193" viewBox="0 0 145 193" fill="none" xmlns="http://www.w3.org/2000/svg">
<path fill-rule="evenodd" clip-rule="evenodd" d="M38.7066 150.569L25.9826 143.667C25.71 143.429 25.71 143.277 25.71 142.884V140.615C25.7167 140.22 25.8194 139.832 26.0093 139.485C26.1993 139.137 26.4708 138.842 26.8004 138.623C61.1418 118.801 95.5682 98.9438 129.825 79.1575C129.961 79.0771 130.113 79.0281 130.27 79.014C130.428 78.9999 130.586 79.0211 130.734 79.0761L143.359 85.9677C143.005 85.8225 142.906 85.8792 142.542 86.0314L39.5173 145.514C39.1779 145.737 38.8946 146.034 38.6895 146.384C38.4843 146.734 38.363 147.127 38.3349 147.532V149.79C38.434 150.172 38.3419 150.325 38.7066 150.569Z" fill="white"/>
<path fill-rule="evenodd" clip-rule="evenodd" d="M26.7158 142.884L37.3368 148.579V147.517C37.3627 146.95 37.5147 146.395 37.7817 145.894C38.0487 145.392 38.424 144.956 38.8804 144.618L140.811 85.7724L130.363 80.1091L83.9491 106.911C65.0542 117.788 46.2479 128.662 27.353 139.553C27.1719 139.694 27.0218 139.871 26.9121 140.072C26.8025 140.274 26.7356 140.496 26.7158 140.725V142.894V142.884ZM38.6149 151.623C38.4574 151.616 38.3031 151.576 38.1617 151.506L25.5333 144.6C24.7155 144.031 24.627 143.457 24.627 143.093V140.615C24.6488 140.041 24.8089 139.481 25.0937 138.983C25.3784 138.484 25.7794 138.062 26.2626 137.751C45.1586 126.816 64.024 115.909 82.8587 105.028L129.361 78.226C129.616 78.0658 129.905 77.9684 130.205 77.9419C130.505 77.9155 130.806 77.9607 131.085 78.0738L143.894 85.0008C144.134 85.1298 144.316 85.3461 144.401 85.605C144.486 85.864 144.468 86.1457 144.351 86.3918C144.232 86.6363 144.028 86.8292 143.777 86.9347C143.527 87.0402 143.246 87.051 142.988 86.9652L40.0594 146.43C39.864 146.559 39.7036 146.734 39.5924 146.94C39.4812 147.145 39.4227 147.375 39.4221 147.609V149.818C39.5689 150.004 39.6562 150.231 39.6726 150.467C39.689 150.704 39.6338 150.94 39.5141 151.145C39.4084 151.286 39.2731 151.402 39.1177 151.484C38.9623 151.567 38.7906 151.614 38.6149 151.623Z" fill="#414141"/>
<path fill-rule="evenodd" clip-rule="evenodd" d="M39.3437 150.505C38.7985 150.689 38.3418 150.632 38.3418 149.797V147.539C38.365 147.133 38.4842 146.738 38.6898 146.387C38.8954 146.036 39.1814 145.74 39.5243 145.521L142.548 86.0381C143.186 85.6841 143.731 85.9744 143.731 86.746V88.983C143.737 89.2729 143.683 89.561 143.574 89.8295C143.464 90.0979 143.301 90.3411 143.094 90.544C142.549 91.0537 141.185 91.7793 140.732 92.0802L41.1599 149.464C40.7068 149.751 39.7048 150.352 39.3437 150.505Z" fill="white"/>
<path fill-rule="evenodd" clip-rule="evenodd" d="M142.633 87.2011L40.0693 146.44C39.884 146.558 39.7296 146.718 39.6187 146.908C39.5079 147.097 39.4439 147.311 39.4321 147.53V149.271C39.7047 149.091 40.0693 148.882 40.3419 148.701L40.6145 148.581L140.452 90.9459C140.998 90.6734 141.996 90.1 142.269 89.7637C142.387 89.6667 142.481 89.543 142.543 89.4027C142.604 89.2625 142.632 89.1096 142.623 88.9567V87.1869L142.633 87.2011ZM38.901 151.653C38.5778 151.66 38.2607 151.565 37.9947 151.381C37.5415 151.08 37.3574 150.507 37.3574 149.788V147.53C37.3835 146.944 37.5448 146.373 37.8285 145.86C38.1123 145.348 38.5108 144.907 38.9931 144.574L142.017 85.1092C142.296 84.92 142.622 84.8113 142.958 84.7951C143.295 84.7789 143.63 84.8557 143.926 85.0171C144.211 85.1951 144.445 85.4444 144.605 85.7405C144.764 86.0366 144.844 86.3693 144.835 86.7055V88.9425C144.833 89.3757 144.744 89.804 144.572 90.2018C144.401 90.5996 144.151 90.9586 143.837 91.2574C143.38 91.7671 142.474 92.2839 141.564 92.7936L141.21 92.9741L41.7262 150.404C41.0803 150.804 40.4125 151.168 39.7259 151.494C39.4586 151.599 39.174 151.653 38.8869 151.653H38.901Z" fill="#414141"/>
<path fill-rule="evenodd" clip-rule="evenodd" d="M27.8057 138.064V59.4814L31.8027 61.315V139.869L27.8057 138.064Z" fill="white"/>
<path fill-rule="evenodd" clip-rule="evenodd" d="M28.8959 137.373L30.7121 138.216V61.9798L28.8959 61.1338V137.373ZM31.8025 140.969C31.6466 140.975 31.4916 140.945 31.3493 140.881L27.3523 139.037C27.1702 138.947 27.0151 138.811 26.9032 138.642C26.7912 138.472 26.7262 138.277 26.715 138.074V59.495C26.7116 59.3075 26.7609 59.1229 26.8573 58.9621C26.9537 58.8013 27.0933 58.6707 27.2602 58.5853C27.4043 58.4825 27.5748 58.4228 27.7517 58.4134C27.9285 58.404 28.1044 58.4452 28.2586 58.5322L32.2556 60.341C32.4416 60.4322 32.5991 60.5723 32.7114 60.7463C32.8237 60.9203 32.8864 61.1215 32.8929 61.3285V139.869C32.8776 140.052 32.8204 140.229 32.7259 140.387C32.6314 140.544 32.502 140.678 32.3477 140.778C32.1885 140.894 31.999 140.96 31.8025 140.969Z" fill="#414141"/>
<path fill-rule="evenodd" clip-rule="evenodd" d="M31.8027 61.3141L27.8057 59.4806L129.007 1.08789L132.912 2.92494L31.8027 61.3141Z" fill="white"/>
<path fill-rule="evenodd" clip-rule="evenodd" d="M30.1671 59.364L31.7107 60.1179L130.642 3.01365L129.007 2.30573L30.1671 59.364ZM31.8028 62.3691C31.6475 62.3766 31.4926 62.3488 31.3496 62.2877L27.3526 60.4435C27.1831 60.3472 27.0377 60.2137 26.9273 60.0531C26.8169 59.8924 26.7445 59.7089 26.7153 59.5162C26.7096 59.3203 26.7573 59.1265 26.8533 58.9556C26.9494 58.7847 27.0901 58.6433 27.2605 58.5463L128.461 0.143048C128.612 0.0557368 128.782 0.00683979 128.956 0.000667139C129.13 -0.00550551 129.303 0.0312336 129.46 0.10765L133.354 1.95177C133.535 2.02463 133.691 2.14825 133.804 2.30775C133.916 2.46726 133.98 2.65585 133.988 2.85083C133.996 3.04709 133.949 3.24164 133.853 3.41286C133.756 3.58408 133.614 3.72525 133.443 3.82068L32.3551 62.224C32.1852 62.3158 31.9958 62.3656 31.8028 62.3691Z" fill="#414141"/>
<path fill-rule="evenodd" clip-rule="evenodd" d="M132.901 2.9248V81.5037L31.8027 139.868V61.3281L132.901 2.9248Z" fill="white"/>
<path fill-rule="evenodd" clip-rule="evenodd" d="M32.8936 61.9224V138.024L131.839 80.8699V4.76864L32.8936 61.9224ZM31.8032 140.969C31.6123 140.96 31.4259 140.908 31.258 140.816C31.0872 140.728 30.9451 140.593 30.8485 140.427C30.752 140.261 30.7048 140.07 30.7128 139.878V61.3278C30.7054 61.1377 30.7529 60.9496 30.8496 60.7857C30.9463 60.6219 31.088 60.4894 31.258 60.404L132.367 2.00069C132.535 1.91174 132.722 1.86523 132.912 1.86523C133.102 1.86523 133.289 1.91174 133.457 2.00069C133.628 2.08921 133.77 2.22441 133.866 2.3905C133.963 2.5566 134.01 2.74672 134.002 2.93868V81.5035C134.007 81.6911 133.958 81.876 133.861 82.037C133.765 82.198 133.625 82.3284 133.457 82.4131L32.3555 140.806C32.1863 140.902 31.9974 140.957 31.8032 140.969Z" fill="#414141"/>
<path fill-rule="evenodd" clip-rule="evenodd" d="M128.653 10.2686L35.9805 63.7589V132.523L128.653 79.0251V10.2686Z" fill="white"/>
<path fill-rule="evenodd" clip-rule="evenodd" d="M37.0705 64.3654V130.68L127.643 78.4353V12.1281L37.0705 64.3654ZM35.9801 133.603C35.7903 133.593 35.6046 133.544 35.4349 133.458C35.2775 133.356 35.1463 133.218 35.0517 133.055C34.957 132.893 34.9015 132.711 34.8896 132.524V63.7601C34.9047 63.573 34.9614 63.3916 35.0558 63.2293C35.1501 63.0669 35.2797 62.9278 35.4349 62.8221L128.192 9.34597C128.352 9.26445 128.531 9.22493 128.71 9.23109C128.89 9.23726 129.065 9.28891 129.219 9.38123C129.374 9.47355 129.502 9.6035 129.592 9.75891C129.682 9.91432 129.732 10.0901 129.736 10.2698V79.0264C129.742 79.2177 129.695 79.4071 129.598 79.5725C129.502 79.7379 129.36 79.8726 129.19 79.9608L36.5253 133.458C36.3558 133.544 36.17 133.594 35.9801 133.603Z" fill="#414141"/>
<path fill-rule="evenodd" clip-rule="evenodd" d="M129.052 84.7421C128.599 84.5332 128.234 84.3881 127.781 84.5863L113.266 92.9716C113.438 92.8931 113.625 92.8548 113.814 92.8597C114.003 92.8646 114.188 92.9126 114.356 92.9999C115.535 93.5698 116.625 95.4316 116.353 96.7307C116.329 96.876 116.276 97.0151 116.198 97.1397C116.12 97.2644 116.017 97.372 115.896 97.4563L130.341 89.1099C130.886 88.7559 130.886 88.0197 130.886 87.4852C130.777 86.9353 130.561 86.4122 130.249 85.9463C129.938 85.4803 129.537 85.0807 129.07 84.7704L129.052 84.7421Z" fill="white"/>
<path fill-rule="evenodd" clip-rule="evenodd" d="M115.79 92.7266C116.525 93.4622 117.057 94.3756 117.334 95.3778L129.778 88.1747V87.665C129.598 86.8757 129.144 86.0403 128.507 85.6758L129.052 84.7413L128.507 85.6758C128.428 85.6142 128.334 85.574 128.235 85.559L115.79 92.7266ZM115.879 98.5386C115.696 98.5417 115.516 98.4961 115.357 98.4065C115.197 98.3169 115.065 98.1866 114.972 98.0289C114.892 97.9173 114.836 97.7906 114.806 97.6564C114.776 97.5223 114.774 97.3836 114.8 97.2486C114.825 97.1136 114.878 96.9851 114.954 96.871C115.031 96.7569 115.13 96.6596 115.245 96.5848C115.426 95.7388 114.7 94.3513 113.882 93.9867C113.625 94.1144 113.329 94.1408 113.054 94.0607C112.778 93.9806 112.543 93.7998 112.394 93.5542C112.246 93.3087 112.195 93.0163 112.252 92.7351C112.31 92.4539 112.47 92.2045 112.703 92.0364L127.218 83.6617C127.577 83.486 127.976 83.4069 128.374 83.4324C128.773 83.4579 129.158 83.5869 129.491 83.8069C129.491 83.8069 129.58 83.8069 129.58 83.8422C130.762 84.5325 131.58 85.9129 131.853 87.304C132.033 88.2384 131.853 89.4277 130.851 90.0188L116.406 98.3935C116.243 98.4805 116.063 98.53 115.879 98.5386Z" fill="#414141"/>
<path fill-rule="evenodd" clip-rule="evenodd" d="M115.79 94.4818C115.528 93.9003 115.081 93.4213 114.519 93.1191C113.974 92.8182 113.517 92.7935 113.248 92.974C112.894 93.1828 112.703 93.5722 112.703 94.1739C112.714 94.8145 112.903 95.4396 113.248 95.9791C113.517 96.5638 113.961 97.05 114.519 97.3702C115.065 97.6427 115.518 97.671 115.79 97.487C116.144 97.2781 116.336 96.8888 116.336 96.28C116.322 95.642 116.133 95.02 115.79 94.4818Z" fill="white"/>
<path fill-rule="evenodd" clip-rule="evenodd" d="M113.701 93.9353C113.793 93.9601 113.701 94.0521 113.701 94.1724C113.737 94.6253 113.894 95.0604 114.154 95.4325C114.358 95.8439 114.673 96.1898 115.064 96.4307C115.12 96.4699 115.18 96.5009 115.245 96.5227V96.2785C115.247 95.8325 115.124 95.3949 114.891 95.0149C114.679 94.612 114.367 94.2707 113.984 94.0238C113.905 93.966 113.81 93.935 113.712 93.9353H113.701ZM115.333 98.6677C114.853 98.6618 114.383 98.526 113.974 98.2748C113.26 97.837 112.666 97.2289 112.246 96.505C111.872 95.7748 111.656 94.974 111.612 94.1547C111.612 93.1884 111.966 92.438 112.703 92.031C113.071 91.8374 113.484 91.7465 113.9 91.7677C114.315 91.7888 114.718 91.9214 115.064 92.1513C115.777 92.5894 116.369 93.1975 116.788 93.9211V93.9459C117.163 94.6647 117.38 95.455 117.426 96.2643C117.426 97.2342 117.072 97.9881 116.335 98.3881C116.035 98.5753 115.687 98.6723 115.333 98.6677Z" fill="#414141"/>
<path fill-rule="evenodd" clip-rule="evenodd" d="M110.669 98.0693L102.586 93.3936L88.2334 101.648L96.4081 106.327L110.669 98.0693Z" fill="white"/>
<path fill-rule="evenodd" clip-rule="evenodd" d="M90.4162 101.648L96.4135 105.081L108.585 98.0728L102.591 94.6288L90.4162 101.648ZM96.4135 107.407C96.2192 107.425 96.0251 107.371 95.8683 107.255L87.6936 102.586C87.5403 102.478 87.4122 102.339 87.3181 102.177C87.224 102.015 87.1661 101.834 87.1484 101.648C87.1598 101.46 87.215 101.278 87.3097 101.116C87.4044 100.953 87.5359 100.816 87.6936 100.713L102.039 92.4767C102.208 92.3912 102.394 92.3467 102.583 92.3467C102.771 92.3467 102.958 92.3912 103.126 92.4767L111.212 97.1525C111.379 97.2441 111.518 97.3788 111.615 97.5426C111.712 97.7063 111.763 97.8932 111.763 98.0835C111.763 98.2738 111.712 98.4606 111.615 98.6243C111.518 98.7881 111.379 98.9228 111.212 99.0143L96.8596 107.255C96.7308 107.356 96.5706 107.41 96.4064 107.407H96.4135Z" fill="#414141"/>
<path fill-rule="evenodd" clip-rule="evenodd" d="M96.4081 106.327L88.2334 101.647V108.008L96.4081 112.684V106.327Z" fill="white"/>
<path fill-rule="evenodd" clip-rule="evenodd" d="M89.3192 107.378L95.3165 110.84V106.947L89.3192 103.485V107.378ZM96.3999 113.75C96.2088 113.773 96.0155 113.728 95.8546 113.622L87.68 108.925C87.5256 108.826 87.396 108.693 87.3015 108.536C87.2069 108.379 87.1499 108.202 87.1348 108.019V101.648C87.1368 101.458 87.1885 101.272 87.2847 101.108C87.3809 100.944 87.5183 100.808 87.6833 100.713C87.8482 100.619 88.035 100.569 88.225 100.569C88.4151 100.569 88.6019 100.619 88.7669 100.713L96.853 105.418C97.0199 105.503 97.1595 105.634 97.2559 105.794C97.3523 105.955 97.4016 106.14 97.3982 106.327V112.698C97.4021 112.888 97.3531 113.076 97.2569 113.239C97.1606 113.403 97.0208 113.537 96.853 113.626C96.7211 113.712 96.5641 113.752 96.4069 113.739L96.3999 113.75Z" fill="#414141"/>
<path fill-rule="evenodd" clip-rule="evenodd" d="M110.668 104.43V98.0693L96.4072 106.327V112.684L110.668 104.43Z" fill="white"/>
<path fill-rule="evenodd" clip-rule="evenodd" d="M97.4054 106.954V110.847L109.577 103.804V99.91L97.4054 106.954ZM96.407 113.739C96.2159 113.763 96.0227 113.718 95.8618 113.612C95.694 113.523 95.5542 113.389 95.458 113.225C95.3617 113.061 95.3128 112.874 95.3166 112.684V106.313C95.3132 106.126 95.3625 105.941 95.4589 105.78C95.5553 105.619 95.6949 105.489 95.8618 105.403L110.122 97.1208C110.29 97.0319 110.477 96.9854 110.668 96.9854C110.858 96.9854 111.045 97.0319 111.213 97.1208C111.369 97.2259 111.498 97.3649 111.593 97.5274C111.687 97.6898 111.744 97.8715 111.758 98.0588V104.43C111.742 104.612 111.684 104.787 111.589 104.943C111.495 105.099 111.366 105.231 111.213 105.329L96.8602 113.612C96.7281 113.705 96.5682 113.75 96.407 113.739Z" fill="#414141"/>
<path fill-rule="evenodd" clip-rule="evenodd" d="M82.6072 43.733C69.7982 51.1201 59.4143 69.0977 59.4072 83.8861C59.4001 98.6745 69.7805 104.674 82.5859 97.287C95.3914 89.8999 105.782 71.9258 105.786 57.1374C105.789 42.349 95.4126 36.3459 82.6072 43.733Z" fill="white"/>
<path fill-rule="evenodd" clip-rule="evenodd" d="M38.374 157.99C42.2683 166.92 40.3778 176.615 49.2181 184.979C34.6814 191.729 18.4595 194.933 5.63987 187.542C1.68176 185.259 1.22507 184.296 1.22507 180.657C1.22507 177.019 1.13301 173.299 1.26755 169.685C1.9473 163.377 5.16194 159.108 9.25812 154.5C13.8287 149.544 19.557 145.506 23.7027 140.15C28.3052 145.361 35.7789 152.04 38.3633 157.983L38.374 157.99ZM24.1382 140.614L23.7452 140.2C23.8691 140.334 24.0037 140.48 24.1382 140.614ZM86.2218 155.353V143.24C86.2218 133.563 74.2908 130.048 66.0418 129.337C65.3337 130.753 64.6257 132.2 63.8893 133.563C70.361 145.184 64.8204 170.053 57.6866 180.565C73.8589 171.221 86.2112 158.889 86.2218 155.342V155.353Z" fill="white"/>
<path fill-rule="evenodd" clip-rule="evenodd" d="M65.2804 133.563C70.8636 144.582 66.9444 165.267 61.0922 177.1C75.1332 168.219 85.0143 157.873 85.0143 155.342V143.24C85.0143 133.439 71.2353 131.124 66.778 130.639C66.2823 131.62 65.7867 132.614 65.2804 133.563ZM57.6864 181.786C57.5178 181.784 57.3515 181.748 57.197 181.681C57.0426 181.613 56.9032 181.516 56.7871 181.393C56.6012 181.19 56.4897 180.93 56.4711 180.656C56.4524 180.381 56.5277 180.108 56.6844 179.882C63.5386 169.784 69.019 145.275 62.827 134.154C62.7294 133.973 62.6782 133.77 62.6782 133.565C62.6782 133.359 62.7294 133.156 62.827 132.975C63.5598 131.63 64.2431 130.215 64.9512 128.809C65.059 128.59 65.2298 128.408 65.4417 128.286C65.6536 128.165 65.897 128.109 66.1407 128.126C76.4396 129.015 87.4395 133.436 87.4395 143.24V155.342C87.4395 159.621 74.4322 172.297 58.2953 181.62C58.1116 181.724 57.9048 181.782 57.6935 181.786H57.6864ZM23.7627 142.03C21.4792 144.737 18.831 147.137 16.2572 149.463C14.1896 151.342 12.0406 153.275 10.1572 155.335C6.48935 159.459 3.13663 163.685 2.47459 169.815C2.39316 172.265 2.4038 174.859 2.42504 177.433V180.657C2.42504 183.708 2.53832 184.349 6.23798 186.49C19.2134 193.984 35.3432 189.796 47.1078 184.597C42.1513 179.241 40.9901 173.444 39.8395 167.819C39.181 164.563 38.5614 161.483 37.2444 158.475C35.4176 154.28 30.8718 149.512 26.8464 145.307C25.7595 144.171 24.7045 143.074 23.7521 142.03H23.7627ZM22.4422 193C16.4767 193 10.5218 191.772 5.05197 188.607C0.863739 186.19 0.0175843 184.855 0.0175843 180.668V177.454C-0.00365776 174.849 -0.0248843 172.212 0.0777859 169.667C0.810638 162.743 4.42179 158.184 8.36928 153.739C10.3448 151.576 12.5363 149.604 14.6463 147.693C17.4786 145.116 20.4242 142.462 22.7608 139.442C22.8727 139.301 23.0139 139.185 23.1746 139.103C23.3352 139.022 23.5117 138.975 23.6919 138.968C23.8669 138.957 24.042 138.987 24.2036 139.055C24.3651 139.123 24.5087 139.228 24.623 139.361C24.623 139.361 24.623 139.361 24.6443 139.361L25.0373 139.771C25.0974 139.846 25.1505 139.917 25.2036 139.991C26.2445 141.148 27.4164 142.377 28.6236 143.64C32.7906 147.99 37.5064 152.921 39.5102 157.522C40.9264 160.779 41.599 164.117 42.2611 167.352C43.4719 173.316 44.6083 178.948 50.0675 184.119C50.2097 184.253 50.3164 184.42 50.3782 184.605C50.44 184.791 50.4549 184.988 50.4216 185.181C50.387 185.379 50.3044 185.565 50.1809 185.724C50.0574 185.882 49.897 186.008 49.7135 186.091C42.0239 189.662 32.2206 193 22.4422 193Z" fill="#414141"/>
<path fill-rule="evenodd" clip-rule="evenodd" d="M23.7021 140.159C24.3323 139.356 26.1804 137.483 26.6583 136.62C27.6532 134.942 27.6107 134.301 27.816 132.337C36.2421 142.085 56.0433 147.805 63.6515 133.983C65.8005 139.108 59.6721 149.001 51.8019 151.939C46.0241 154.098 37.2051 152.764 32.7371 148.69L25.182 141.809L23.7021 140.159Z" fill="white"/>
<path fill-rule="evenodd" clip-rule="evenodd" d="M25.3131 140.141L26.092 141.019L33.5551 147.808C37.5663 151.468 45.9002 152.873 51.3807 150.816C55.6893 149.216 59.9094 145.072 61.8849 140.513C62.3254 139.53 62.6337 138.493 62.8019 137.43C59.9979 140.817 56.1213 142.835 51.4161 143.33C43.861 144.116 34.6986 140.704 28.6941 135.03C28.4793 135.819 28.1476 136.572 27.7099 137.263C27.1048 138.144 26.4274 138.973 25.6848 139.741C25.5609 139.886 25.4335 140.021 25.3308 140.155L25.3131 140.141ZM45.5993 154.186C40.5012 154.186 35.1164 152.522 31.923 149.609L24.3643 142.714L22.7959 140.969C22.6054 140.756 22.4958 140.484 22.4861 140.198C22.4763 139.913 22.5672 139.633 22.7428 139.408C22.98 139.1 23.4049 138.622 23.8616 138.116C24.4929 137.452 25.0829 136.75 25.6282 136.014C26.3717 134.754 26.4142 134.311 26.5593 132.828L26.623 132.23C26.6461 131.994 26.7375 131.771 26.8859 131.587C27.0343 131.402 27.2334 131.265 27.4586 131.193C27.6833 131.119 27.9248 131.113 28.1529 131.176C28.3809 131.239 28.5852 131.368 28.7402 131.547C34.125 137.784 43.5636 141.702 51.1612 140.902C56.2381 140.367 60.1891 137.784 62.5859 133.409C62.7038 133.215 62.8698 133.055 63.0677 132.945C63.2656 132.835 63.4887 132.777 63.7153 132.779C63.9439 132.793 64.164 132.871 64.3513 133.003C64.5387 133.134 64.6861 133.315 64.7774 133.525C65.6554 135.631 65.4182 138.453 64.1012 141.482C61.892 146.611 57.1125 151.273 52.2233 153.103C50.0963 153.851 47.8539 154.218 45.5993 154.186Z" fill="#414141"/>
<path fill-rule="evenodd" clip-rule="evenodd" d="M58.9894 140.615C62.1757 137.546 64.7708 131.964 67.2491 126.878C70.6407 119.929 70.4673 112.011 70.5062 105.615L69.3485 101.821C68.9343 100.249 68.906 98.5856 68.8635 96.9928C68.8316 94.9257 68.7927 93.0037 67.7164 92.0374C66.0099 90.4693 63.3016 92.855 60.1153 95.676C57.9556 97.591 55.5978 99.6581 53.0346 101.145C49.7031 103.056 42.8207 104.196 40.4309 106.199C38.0412 108.203 38.1474 109.849 38.1863 112.723C38.2288 115.441 38.374 118.117 36.71 123.908C36.4915 122.126 35.9883 120.391 35.2195 118.768C34.6518 117.542 33.7437 116.505 32.6032 115.781C31.7879 115.299 30.8322 115.11 29.8948 115.246C28.9535 115.413 28.0873 115.868 27.4166 116.549C26.5001 117.513 25.8924 118.728 25.6712 120.039C25.4665 121.311 25.511 122.61 25.8022 123.865C26.2483 125.798 27.3352 128.042 28.2238 129.695C28.5141 130.233 28.1388 131.691 27.8698 132.488C33.9521 139.379 42.7923 144.105 49.8199 144.094C53.0027 144.076 56.6953 142.795 58.9894 140.615Z" fill="white"/>
<path fill-rule="evenodd" clip-rule="evenodd" d="M29.2646 132.157C35.1593 138.588 43.3481 142.857 49.8412 142.857H49.8588C52.8681 142.857 56.189 141.593 58.1433 139.725C60.9756 137.006 63.344 132.104 65.6594 127.361L66.1551 126.338C69.2246 120.041 69.2564 112.972 69.2883 106.739V105.787L68.1695 102.169C67.7057 100.4 67.6739 98.6971 67.642 97.0229C67.6102 95.3487 67.5818 93.54 66.8986 92.917C65.9781 92.071 63.2803 94.4673 60.9118 96.5663C58.7522 98.4706 56.3094 100.63 53.6329 102.169C52.022 103.111 49.6854 103.844 47.4302 104.559C44.9271 105.355 42.3321 106.169 41.2169 107.111C39.344 108.693 39.3546 109.78 39.3971 112.402V113.11C39.4361 115.797 39.4892 118.568 37.8677 124.221C37.7878 124.487 37.6207 124.718 37.3933 124.877C37.1659 125.037 36.8916 125.115 36.6144 125.099C36.3366 125.08 36.0738 124.966 35.8706 124.776C35.6673 124.585 35.5361 124.331 35.4992 124.055C35.3014 122.406 34.8375 120.801 34.1255 119.301C33.7113 118.494 33.0068 117.411 32.0013 116.823C31.4244 116.476 30.7447 116.341 30.0789 116.441C29.3974 116.562 28.7717 116.895 28.291 117.393C27.544 118.181 27.0507 119.175 26.8749 120.246C26.6971 121.356 26.7392 122.49 26.9988 123.584C27.3316 125 28.0963 126.872 29.2965 129.113C29.431 129.364 29.8134 130.065 29.2434 132.164L29.2646 132.157ZM49.8412 145.285C42.5303 145.285 33.3502 140.457 26.9917 133.275C26.8532 133.116 26.7583 132.923 26.7162 132.716C26.674 132.509 26.686 132.294 26.751 132.093C27.0838 131.081 27.1758 130.323 27.1227 130.132C25.873 127.824 25.0268 125.757 24.6445 124.115C24.3031 122.703 24.2537 121.236 24.4993 119.804C24.7533 118.246 25.4772 116.804 26.574 115.67C27.4183 114.808 28.5118 114.234 29.7001 114.027C30.914 113.849 32.1523 114.089 33.2121 114.707C34.5548 115.55 35.6284 116.76 36.3064 118.193C36.4197 118.42 36.5223 118.646 36.625 118.901C36.9407 117.004 37.0594 115.078 36.9791 113.156V112.732C36.9366 109.62 36.9047 107.585 39.6556 105.256C41.146 104.007 43.8544 103.161 46.7079 102.251C48.8321 101.578 51.0484 100.885 52.4362 100.078C54.8968 98.6617 57.244 96.584 59.3116 94.7682C62.7634 91.71 66.0383 88.8358 68.5413 91.1401C69.9999 92.4639 70.0424 94.6549 70.0849 96.9804C70.1167 98.5308 70.1344 100.092 70.5274 101.518L71.6745 105.27C71.7073 105.385 71.7252 105.504 71.7276 105.624V106.76C71.6957 112.94 71.6639 120.621 68.3465 127.414L67.8509 128.426C65.4506 133.382 62.9688 138.472 59.8391 141.48C57.4281 143.795 53.5196 145.296 49.8801 145.296L49.8412 145.285Z" fill="#414141"/>
<path fill-rule="evenodd" clip-rule="evenodd" d="M20.1557 88.3421C14.5336 98.6069 18.0669 126.793 27.7674 132.902C27.9621 132.385 28.6029 130.339 28.2524 129.677C27.3638 128.024 26.2769 125.784 25.8309 123.848C23.7067 114.567 34.788 110.213 36.721 123.89C38.3849 118.099 38.2398 115.423 38.1973 112.705C38.1584 109.831 38.0522 108.199 40.4419 106.182C41.9713 104.9 43.8619 104.383 45.9507 103.824C48.1138 103.237 50.4717 102.596 53.0314 101.127C55.5911 99.6581 57.9418 97.5875 60.1121 95.6584C63.2984 92.8267 66.0068 90.4517 67.7132 92.0197C68.7753 92.9931 68.8284 94.9151 68.8603 96.9751C68.9028 98.5679 68.9311 100.232 69.3453 101.803L70.503 105.598C70.8632 100.403 70.7043 95.1861 70.0286 90.0234C68.6832 80.8204 64.5694 80.4665 53.2367 74.4845C51.4205 73.5253 49.0803 71.9431 45.5648 71.8405C37.029 71.5927 24.3651 81.539 20.1557 88.3421Z" fill="#2B7CFF"/>
<path fill-rule="evenodd" clip-rule="evenodd" d="M21.2107 88.9367C16.1232 98.3131 18.9342 123.388 27.0735 130.821C27.1229 130.588 27.1431 130.35 27.1337 130.113C26.0453 128.225 25.2119 126.202 24.6554 124.095C23.8588 120.613 24.7156 117.275 26.8858 115.37C27.6129 114.71 28.507 114.261 29.4712 114.071C30.4353 113.882 31.4328 113.961 32.3557 114.298C33.524 114.74 35.3331 115.887 36.636 118.899C36.9516 117.005 37.0703 115.084 36.99 113.165V112.74C36.9475 109.629 36.9157 107.594 39.6665 105.265C41.4154 103.799 43.4724 103.251 45.6532 102.66C47.8341 102.069 50.0149 101.481 52.4472 100.086C54.8794 98.6918 57.255 96.5928 59.3225 94.777C62.7744 91.7188 66.0492 88.8447 68.5522 91.1489C68.7245 91.3126 68.8842 91.4889 69.0302 91.6763C68.9665 91.1914 68.9063 90.7065 68.8425 90.2605C67.8088 83.2202 65.3022 81.9601 57.7931 78.2259C56.2707 77.4719 54.5749 76.6224 52.6844 75.6207L51.8878 75.1854C50.284 74.2969 48.2802 73.1926 45.5506 73.1076H45.2284C37.1245 73.1076 25.1617 82.6398 21.2213 88.9862L21.2107 88.9367ZM27.7532 134.113C27.523 134.114 27.2972 134.05 27.1018 133.928C16.9162 127.497 13.1741 98.5538 19.0758 87.7509C19.0892 87.7379 19.0968 87.72 19.0971 87.7014C23.4836 80.6222 36.5085 70.2087 45.586 70.6441C48.9174 70.7467 51.3036 72.0599 53.0419 73.0227L53.796 73.4368C55.6689 74.4279 57.3364 75.2668 58.8517 76.0207C66.513 79.8329 70.0073 81.5814 71.2181 89.8711C71.9044 95.11 72.0704 100.404 71.7138 105.675C71.6973 105.96 71.5813 106.23 71.3861 106.438C71.1908 106.646 70.9287 106.779 70.6454 106.814C70.3622 106.848 70.0758 106.782 69.8362 106.627C69.5967 106.472 69.4191 106.238 69.3346 105.966L68.1663 102.171C67.7025 100.401 67.6707 98.6989 67.6388 97.0246C67.6069 95.3504 67.5786 93.5417 66.8953 92.9187C65.9748 92.0728 63.2771 94.4691 60.9086 96.5681C58.749 98.4723 56.3062 100.632 53.6297 102.171C50.9532 103.711 48.4607 104.405 46.2693 105.003C44.2619 105.541 42.5377 106.008 41.2136 107.127C39.3408 108.709 39.3514 109.796 39.3939 112.418V113.126C39.4328 115.813 39.4859 118.584 37.8645 124.237C37.7846 124.503 37.6175 124.734 37.3901 124.893C37.1627 125.053 36.8884 125.131 36.6112 125.115C36.3334 125.096 36.0706 124.982 35.8673 124.792C35.6641 124.601 35.5329 124.347 35.496 124.071C34.926 120.06 33.4603 117.345 31.4847 116.599C30.9722 116.415 30.4189 116.377 29.886 116.488C29.353 116.599 28.8612 116.855 28.4648 117.229C27.2859 118.262 26.284 120.474 26.9956 123.6C27.3284 125.016 28.0931 126.888 29.2933 129.129C29.9553 130.371 29.0561 132.863 28.8684 133.348C28.8069 133.519 28.7068 133.673 28.5761 133.799C28.4453 133.925 28.2873 134.019 28.1143 134.074C27.9966 134.104 27.8749 134.117 27.7532 134.113Z" fill="#414141"/>
<path fill-rule="evenodd" clip-rule="evenodd" d="M52.8392 149.609C38.7663 148.335 31.0413 147.995 23.7021 140.159C28.3046 145.358 35.7783 152.048 38.3734 157.991C42.2677 166.922 40.3772 176.617 49.2175 184.981L57.686 180.567C64.2604 171.169 70.7853 145.96 63.8887 133.564L63.6515 134C64.3595 140.658 58.9888 143.829 53.8199 149.04L52.8392 149.609Z" fill="#2B7CFF"/>
<path fill-rule="evenodd" clip-rule="evenodd" d="M32.2409 147.478C35.2396 150.777 38.0507 154.228 39.488 157.506C40.9254 160.784 41.5768 164.1 42.2389 167.336C43.3966 173.073 44.5047 178.499 49.4364 183.494L56.8464 179.625C62.3587 171.534 68.1755 151.015 64.49 138.212C63.4279 141.751 60.5956 144.332 57.6536 147.061C56.6835 147.949 55.6816 148.88 54.6868 149.892C54.6107 149.971 54.5237 150.038 54.4283 150.091L53.437 150.671C53.2192 150.785 52.9744 150.838 52.7289 150.823L50.8667 150.661C43.1629 149.977 37.2789 149.45 32.2445 147.475L32.2409 147.478ZM49.2346 186.202C49.0787 186.202 48.9244 186.17 48.7808 186.11C48.6373 186.049 48.5075 185.96 48.3991 185.848C42.3805 180.163 41.1095 173.877 39.8668 167.796C39.2083 164.539 38.5888 161.46 37.2718 158.451C35.445 154.246 30.8991 149.478 26.8631 145.273C25.4151 143.755 24.0096 142.296 22.8201 140.941C22.6113 140.702 22.5041 140.392 22.5213 140.075C22.5386 139.759 22.6789 139.462 22.9123 139.247C23.1457 139.033 23.4537 138.918 23.7705 138.928C24.0874 138.937 24.3879 139.07 24.6079 139.298C31.2992 146.452 38.3268 147.086 51.0862 148.197L52.5767 148.331L53.0936 148.034C54.0743 147.05 55.0656 146.13 56.0179 145.252C59.9123 141.677 62.9641 138.845 62.4578 134.099C62.44 133.854 62.4902 133.609 62.603 133.391L62.8437 132.948C62.9467 132.757 63.1001 132.597 63.2872 132.486C63.4743 132.375 63.6882 132.317 63.9058 132.318C64.1232 132.318 64.3366 132.376 64.5236 132.487C64.7105 132.598 64.864 132.758 64.9679 132.948C72.4027 146.335 65.0281 172.174 58.6944 181.232C58.5824 181.393 58.4329 181.524 58.259 181.614L49.7905 186.028C49.6165 186.132 49.4195 186.192 49.2169 186.202H49.2346Z" fill="#414141"/>
<path fill-rule="evenodd" clip-rule="evenodd" d="M49.7028 160.437C49.5541 160.435 49.4068 160.408 49.2673 160.356L35.5414 155.057C35.3916 155.001 35.2544 154.915 35.1377 154.806C35.021 154.696 34.9271 154.564 34.8614 154.418C34.7956 154.272 34.7593 154.115 34.7545 153.955C34.7496 153.795 34.7764 153.635 34.8333 153.486C34.9507 153.186 35.1809 152.943 35.4748 152.811C35.7687 152.679 36.1027 152.667 36.4052 152.778L48.9169 157.627L51.4907 149.72C51.5868 149.418 51.7979 149.167 52.0782 149.019C52.3585 148.872 52.6854 148.842 52.9883 148.934C53.1043 148.722 53.2805 148.55 53.4945 148.438C53.7843 148.294 54.119 148.269 54.4269 148.369C54.7347 148.469 54.9911 148.686 55.1408 148.973L57.3712 153.326C58.2704 151.879 59.2759 150.328 60.2672 148.799C62.3135 145.614 64.4342 142.347 65.1883 140.704C65.2528 140.558 65.3459 140.427 65.462 140.318C65.5781 140.208 65.7148 140.123 65.8642 140.068C66.0136 140.012 66.1727 139.987 66.332 139.993C66.4914 140 66.6478 140.038 66.7921 140.106C66.9376 140.171 67.0688 140.264 67.1782 140.38C67.2876 140.496 67.373 140.632 67.4296 140.781C67.4861 140.93 67.5127 141.089 67.5078 141.248C67.5029 141.408 67.4666 141.564 67.401 141.71C66.5726 143.525 64.4979 146.732 62.3029 150.12C60.8868 152.293 59.4706 154.523 58.3129 156.427C58.2173 156.628 58.061 156.794 57.8659 156.901C57.6709 157.009 57.4471 157.052 57.226 157.025C57.0102 157.018 56.8003 156.952 56.6184 156.836C56.4365 156.72 56.2893 156.556 56.1923 156.363L53.5972 151.235L50.857 159.62C50.8082 159.774 50.728 159.917 50.6214 160.039C50.5147 160.161 50.384 160.259 50.2374 160.328C50.068 160.399 49.8864 160.436 49.7028 160.437Z" fill="#414141"/>
<path fill-rule="evenodd" clip-rule="evenodd" d="M49.2178 184.981L57.6863 180.567C57.5411 179.324 57.5093 179.087 57.3783 177.919C56.6702 171.955 56.4543 165.559 55.732 159.191C55.7108 158.911 56.0117 156.483 56.3516 153.981L53.8202 149.025L52.8395 149.595L50.7401 156.013C51.2783 157.821 51.8022 159.722 51.7527 160.14C51.0163 167.601 50.2515 174.971 49.5187 182.085C49.4054 183.172 49.3488 183.855 49.2178 184.981Z" fill="white"/>
<path fill-rule="evenodd" clip-rule="evenodd" d="M52.0107 156.046C53.0445 159.529 52.9914 159.986 52.9702 160.273C52.301 166.931 51.6178 173.514 50.9663 179.903L50.6548 182.852L56.3831 179.871L56.1671 178.063C55.8131 174.973 55.5652 171.861 55.328 168.566C55.1015 165.515 54.8749 162.425 54.5315 159.335C54.5315 159.147 54.4713 158.797 55.0908 154.185L53.5968 151.233L52.0249 156.05L52.0107 156.046ZM49.2174 186.2C48.9736 186.199 48.7361 186.122 48.5377 185.981C48.3547 185.86 48.2087 185.691 48.1157 185.492C48.0226 185.294 47.9861 185.073 48.0101 184.855L48.5483 179.656C49.2068 173.284 49.8794 166.683 50.5521 160.036C50.5309 159.89 50.3149 158.857 49.5714 156.376C49.5 156.145 49.5 155.898 49.5714 155.668L51.6709 149.24C51.7632 148.956 51.9574 148.716 52.2161 148.567L53.1967 147.997C53.3378 147.911 53.496 147.856 53.6605 147.836C53.8249 147.817 53.9916 147.833 54.1491 147.884C54.3082 147.929 54.4563 148.006 54.5843 148.111C54.7122 148.216 54.8171 148.346 54.8926 148.493L57.4275 153.448C57.5385 153.667 57.5782 153.914 57.5408 154.156C57.1265 157.186 56.9424 158.871 56.9424 159.151C57.2965 162.191 57.5195 165.313 57.739 168.393C57.9762 171.67 58.2134 174.764 58.5639 177.787L58.8861 180.445C58.9101 180.689 58.861 180.934 58.745 181.149C58.629 181.365 58.4513 181.541 58.2347 181.655L49.7661 186.069C49.5959 186.155 49.408 186.2 49.2174 186.2Z" fill="#414141"/>
<path fill-rule="evenodd" clip-rule="evenodd" d="M53.7068 161.06C52.8556 161.035 52.0159 160.857 51.2285 160.532C50.9271 160.416 50.6843 160.185 50.5535 159.889C50.4227 159.594 50.4146 159.259 50.5311 158.957C50.6475 158.656 50.8789 158.413 51.1743 158.282C51.4698 158.152 51.8051 158.144 52.1065 158.26C54.1351 159.035 54.5069 158.433 54.7441 158.041C54.8271 157.904 54.9365 157.785 55.0659 157.69C55.1953 157.596 55.3421 157.528 55.4979 157.491C55.6536 157.454 55.8152 157.448 55.9732 157.474C56.1313 157.499 56.2827 157.556 56.4186 157.641C56.6928 157.81 56.8889 158.081 56.9645 158.395C57.0401 158.708 56.9889 159.039 56.8223 159.315C56.5129 159.863 56.0587 160.316 55.5092 160.624C54.9597 160.932 54.3362 161.083 53.7068 161.06Z" fill="#414141"/>
<path fill-rule="evenodd" clip-rule="evenodd" d="M55.6329 109.184L70.5909 100.555C71.26 100.176 71.7273 99.9245 72.3292 100.084C73.009 100.268 73.3559 100.792 73.4798 101.956C73.5896 104.034 73.4798 106.374 73.4798 108.476C73.4742 109.002 73.3931 109.524 73.2391 110.027C73.09 110.519 72.8883 110.993 72.6372 111.442L72.5381 111.619C72.2686 112.077 71.9492 112.503 71.5857 112.89C71.2257 113.275 70.812 113.607 70.3573 113.874L62.1188 118.628C61.54 118.98 60.8912 119.203 60.2177 119.279C59.5833 119.358 58.9402 119.233 58.3819 118.922C57.8235 118.61 57.3789 118.129 57.1128 117.548C57.0555 117.884 56.9775 118.216 56.8791 118.543C56.6481 119.301 56.331 120.03 55.9338 120.716C55.538 121.405 55.0627 122.045 54.5177 122.624L54.5 122.642C54.0004 123.177 53.4256 123.638 52.7936 124.008L44.5516 128.769C44.119 129.027 43.6362 129.19 43.1355 129.247C42.6452 129.299 42.1506 129.199 41.7194 128.96L41.6733 128.931C41.2445 128.677 40.9064 128.295 40.7068 127.838L40.6785 127.767C40.4988 127.329 40.4097 126.86 40.4165 126.387V119.98C40.3713 119.334 40.5113 118.688 40.8201 118.118C41.1485 117.624 41.6033 117.227 42.1371 116.968L55.6258 109.181L55.6329 109.184ZM55.1939 116.362V111.761L43.1567 118.713C42.9279 118.817 42.7239 118.969 42.5584 119.159C42.4593 119.419 42.4218 119.699 42.4487 119.976V126.387C42.4424 126.583 42.4724 126.778 42.5372 126.963L42.5584 127.006C42.5867 127.081 42.6358 127.146 42.7 127.194C42.7798 127.23 42.8683 127.242 42.9549 127.229C43.1617 127.199 43.3597 127.126 43.5356 127.013L51.7775 122.256C52.2445 121.979 52.669 121.635 53.0378 121.236C53.9145 120.305 54.5661 119.185 54.9426 117.962C55.1032 117.442 55.1879 116.9 55.1939 116.355V116.362ZM70.6405 102.848L58.713 109.736V115.502C58.7014 115.891 58.7713 116.278 58.9184 116.638C58.9992 116.856 59.1533 117.039 59.3542 117.155C59.5552 117.271 59.7904 117.314 60.0194 117.276C60.4049 117.223 60.775 117.09 61.1063 116.886L69.3553 112.129C69.6391 111.957 69.8976 111.746 70.1236 111.503C70.3932 111.217 70.6307 110.902 70.8316 110.565V110.547C71.0268 110.205 71.1835 109.843 71.299 109.467C71.3946 109.15 71.4458 108.821 71.4512 108.49V102.388L70.6405 102.848Z" fill="#414141"/>
<path fill-rule="evenodd" clip-rule="evenodd" d="M28.712 115.427C28.6521 115.687 28.4926 115.912 28.2679 116.054C28.0431 116.197 27.7713 116.245 27.5112 116.189C27.2511 116.133 27.0236 115.976 26.878 115.754C26.7323 115.531 26.6802 115.26 26.733 114.999L26.8923 114.263C26.9323 114.085 26.9892 113.912 27.0622 113.746C27.1861 113.466 27.3663 113.214 27.5916 113.006C27.817 112.799 28.0827 112.64 28.3721 112.539C28.898 112.361 29.4632 112.333 30.0042 112.458C30.267 112.517 30.5232 112.602 30.769 112.712L41.39 117.512C41.5185 117.562 41.6355 117.637 41.734 117.733C41.8325 117.829 41.9103 117.944 41.9627 118.071C42.0152 118.199 42.0411 118.335 42.0389 118.473C42.0368 118.61 42.0066 118.746 41.9502 118.872C41.8938 118.997 41.8124 119.11 41.7109 119.203C41.6095 119.296 41.4901 119.367 41.3601 119.413C41.2302 119.458 41.0923 119.476 40.955 119.467C40.8177 119.457 40.6838 119.419 40.5616 119.356L29.9405 114.557C29.827 114.504 29.7083 114.464 29.5865 114.436C29.4171 114.391 29.239 114.391 29.0696 114.436C29.0361 114.449 29.0054 114.467 28.9792 114.492C28.9531 114.516 28.9321 114.545 28.9173 114.578L28.882 114.691L28.712 115.427Z" fill="#414141"/>
<path fill-rule="evenodd" clip-rule="evenodd" d="M88.7899 54.7895C88.6506 54.7906 88.5136 54.7546 88.3929 54.6851C88.2722 54.6157 88.1722 54.5153 88.1033 54.3944C88.0005 54.2121 87.9731 53.9969 88.0271 53.7947C88.0811 53.5926 88.2121 53.4196 88.3921 53.3128L107.821 42.105C107.91 42.0535 108.009 42.02 108.112 42.0066C108.214 41.9932 108.318 42.0002 108.418 42.027C108.518 42.0538 108.611 42.1 108.693 42.1629C108.775 42.2259 108.844 42.3043 108.895 42.3938C108.947 42.4832 108.98 42.582 108.994 42.6844C109.007 42.7868 109 42.8908 108.973 42.9905C108.947 43.0902 108.9 43.1837 108.837 43.2656C108.774 43.3475 108.696 43.4161 108.606 43.4677L89.1776 54.6831C89.0592 54.7502 88.926 54.7868 88.7899 54.7895Z" fill="#414141"/>
<path fill-rule="evenodd" clip-rule="evenodd" d="M81.2998 53.2389L77.9426 55.169C77.8427 55.2405 77.7596 55.3328 77.6988 55.4394C77.638 55.5461 77.601 55.6647 77.5904 55.787V62.3724L82.6857 59.4343C82.783 59.3598 82.8646 59.2669 82.9259 59.1608C82.9872 59.0548 83.027 58.9377 83.043 58.8163V57.6106L84.6012 54.3179V58.8087C84.5846 59.2056 84.4728 59.5927 84.2752 59.9374C84.0777 60.282 83.8002 60.5743 83.4661 60.7894L77.9476 63.9884C77.7231 64.1176 77.4693 64.1874 77.2103 64.191C77.0074 64.1919 76.8079 64.1386 76.6326 64.0365C76.4314 63.919 76.2666 63.7483 76.1562 63.5432C76.0457 63.3381 75.9941 63.1065 76.0068 62.8739V55.7819C76.0222 55.3847 76.1334 54.9972 76.3311 54.6523C76.5288 54.3074 76.8069 54.0154 77.1419 53.8013L82.4957 50.7314L81.2998 53.2389Z" fill="#414141"/>
<path fill-rule="evenodd" clip-rule="evenodd" d="M88.7897 70.8428C88.6501 70.8439 88.5128 70.8077 88.392 70.7377C88.2712 70.6678 88.1714 70.5667 88.103 70.4451C87.9997 70.2634 87.972 70.0484 88.0261 69.8464C88.0801 69.6445 88.2115 69.472 88.3919 69.3661L107.821 58.1558C108.001 58.0517 108.216 58.0236 108.418 58.0778C108.517 58.1046 108.611 58.1508 108.693 58.2137C108.775 58.2766 108.843 58.3551 108.895 58.4445C108.947 58.534 108.98 58.6328 108.993 58.7352C109.007 58.8376 109 58.9416 108.973 59.0413C108.946 59.141 108.9 59.2345 108.837 59.3164C108.774 59.3982 108.696 59.4669 108.606 59.5185L89.1773 70.7313C89.0599 70.8013 88.9263 70.8397 88.7897 70.8428Z" fill="#414141"/>
<path fill-rule="evenodd" clip-rule="evenodd" d="M81.2999 69.2895L77.9426 71.2196C77.8434 71.2892 77.7602 71.3792 77.6986 71.4836C77.6369 71.588 77.5983 71.7044 77.5854 71.8249V78.4103L82.6808 75.4722C82.7779 75.3982 82.8595 75.3057 82.9208 75.2001C82.9821 75.0944 83.0219 74.9778 83.038 74.8567V73.6511L84.5963 70.3584V74.8516C84.5792 75.2481 84.4672 75.6347 84.2697 75.9789C84.0722 76.3231 83.7949 76.6149 83.4611 76.8298L77.9426 80.0313C77.7173 80.1583 77.4639 80.2271 77.2053 80.2314C77.0024 80.2323 76.8029 80.179 76.6276 80.0769C76.4268 79.9596 76.2622 79.7893 76.1518 79.5847C76.0414 79.38 75.9895 79.149 76.0018 78.9168V71.8249C76.0172 71.4277 76.1284 71.0401 76.3261 70.6952C76.5237 70.3503 76.8019 70.0584 77.1369 69.8442L82.4907 66.7744L81.2999 69.2895Z" fill="#414141"/>
<path fill-rule="evenodd" clip-rule="evenodd" d="M88.7897 86.893C88.6501 86.8941 88.5128 86.8578 88.392 86.7879C88.2712 86.7179 88.1714 86.6169 88.103 86.4953C87.9997 86.3136 87.972 86.0985 88.0261 85.8966C88.0801 85.6947 88.2115 85.5221 88.3919 85.4163L107.821 74.2085C108.001 74.1044 108.216 74.0763 108.418 74.1305C108.517 74.1573 108.611 74.2035 108.693 74.2664C108.775 74.3294 108.843 74.4078 108.895 74.4973C108.947 74.5867 108.98 74.6855 108.993 74.7879C109.007 74.8903 109 74.9943 108.973 75.094C108.946 75.1937 108.9 75.2872 108.837 75.3691C108.774 75.451 108.696 75.5196 108.606 75.5712L89.1773 86.7866C89.059 86.8537 88.9257 86.8903 88.7897 86.893Z" fill="#414141"/>
<path fill-rule="evenodd" clip-rule="evenodd" d="M81.2999 85.3405L77.9426 87.2731C77.8435 87.3422 77.7602 87.4318 77.6986 87.5357C77.637 87.6397 77.5984 87.7557 77.5854 87.8758V94.4612L82.6808 91.5231C82.778 91.4486 82.8596 91.3557 82.9209 91.2497C82.9822 91.1436 83.022 91.0266 83.038 90.9051V89.6995L84.5963 86.4068V90.8975C84.5798 91.2941 84.4681 91.681 84.2705 92.0253C84.0729 92.3696 83.7953 92.6613 83.4611 92.8757L77.9426 96.0772C77.7179 96.2055 77.4641 96.2744 77.2053 96.2773C77.0022 96.2794 76.8024 96.226 76.6276 96.1228C76.4268 96.0055 76.2622 95.8352 76.1518 95.6305C76.0414 95.4259 75.9895 95.1949 76.0018 94.9627V87.8708C76.0169 87.4739 76.1281 87.0866 76.3258 86.7421C76.5235 86.3976 76.8018 86.1061 77.1369 85.8926L82.4907 82.8203L81.2999 85.3405Z" fill="#414141"/>
<path fill-rule="evenodd" clip-rule="evenodd" d="M84.8192 83.4281L81.2137 91.0266C81.1501 91.1623 81.04 91.2706 80.9033 91.332C80.7666 91.3933 80.6124 91.4036 80.4688 91.3609L78.7559 90.8544C77.9502 90.6213 78.3759 89.2511 79.1841 89.4841L80.3775 89.8311L83.6714 82.8683C84.0388 82.1287 85.1765 82.6758 84.8192 83.4281Z" fill="#2B7CFF"/>
<path fill-rule="evenodd" clip-rule="evenodd" d="M84.8192 67.3752L81.2137 74.9737C81.1506 75.1098 81.0406 75.2186 80.9039 75.2805C80.7671 75.3423 80.6127 75.353 80.4688 75.3105L78.7559 74.8039C77.9502 74.5709 78.3759 73.2007 79.1841 73.4337L80.3775 73.7807L83.6714 66.8179C84.0388 66.0733 85.1765 66.6254 84.8192 67.3752Z" fill="#2B7CFF"/>
<path fill-rule="evenodd" clip-rule="evenodd" d="M84.8192 51.3247L81.2137 58.9233C81.1501 59.059 81.0401 59.1676 80.9035 59.2294C80.7669 59.2911 80.6127 59.3021 80.4688 59.2601L78.7559 58.7536C77.9502 58.518 78.3759 57.1478 79.1841 57.3833L80.3775 57.7303L83.6714 50.765C84.0388 50.0228 85.1765 50.5725 84.8192 51.3247Z" fill="#2B7CFF"/>
</svg>
