<svg width="26" height="16" viewBox="0 0 26 16" fill="none" xmlns="http://www.w3.org/2000/svg">
<path d="M1 9C0.447715 9 0 8.55228 0 8C0 7.44772 0.447715 7 1 7L1 9ZM25.7071 7.29289C26.0976 7.68342 26.0976 8.31658 25.7071 8.70711L19.3431 15.0711C18.9526 15.4616 18.3195 15.4616 17.9289 15.0711C17.5384 14.6805 17.5384 14.0474 17.9289 13.6569L23.5858 8L17.9289 2.34315C17.5384 1.95262 17.5384 1.31946 17.9289 0.928932C18.3195 0.538408 18.9526 0.538408 19.3431 0.928932L25.7071 7.29289ZM1 7L25 7V9L1 9L1 7Z" fill="#1B6DFF"/>
</svg>
