<svg width="23" height="23" viewBox="0 0 23 23" fill="none" xmlns="http://www.w3.org/2000/svg">
<g clip-path="url(#clip0_280_4722)">
<path d="M8.3855 16.8779V21.3227C8.3855 21.6332 8.58483 21.9082 8.88 22.006C8.95379 22.0299 9.0295 22.0414 9.10425 22.0414C9.3285 22.0414 9.54508 21.936 9.68308 21.7482L12.283 18.21L8.3855 16.8779Z" fill="white"/>
<path d="M22.6982 0.133293C22.4778 -0.0229151 22.1883 -0.0439984 21.9488 0.0815433L0.386251 11.342C0.131334 11.4752 -0.019124 11.7473 0.00195929 12.0339C0.024001 12.3214 0.214709 12.5667 0.485918 12.6597L6.48029 14.7086L19.2463 3.79317L9.36775 15.6947L19.414 19.1284C19.4887 19.1533 19.5673 19.1668 19.6459 19.1668C19.7762 19.1668 19.9056 19.1313 20.0196 19.0623C20.2017 18.9511 20.3253 18.7643 20.357 18.5544L22.9924 0.82521C23.0317 0.556877 22.9186 0.29046 22.6982 0.133293Z" fill="white"/>
</g>
<defs>
<clipPath id="clip0_280_4722">
<rect width="23" height="23" fill="white"/>
</clipPath>
</defs>
</svg>
