<svg width="26" height="26" viewBox="0 0 26 26" fill="none" xmlns="http://www.w3.org/2000/svg">
<g clip-path="url(#clip0_280_4733)">
<path d="M21.4192 7.61404C20.6741 6.44707 19.0718 5.9623 16.9129 6.24054C16.8366 6.24948 16.7558 6.26298 16.6795 6.27192C16.6481 6.20021 16.6167 6.12833 16.5808 6.05662C15.6517 4.08614 14.3815 3 12.9991 3C11.6166 3 10.342 4.08614 9.41735 6.05662C9.38596 6.12833 9.35002 6.20021 9.31864 6.27192C9.23781 6.2586 9.16155 6.24948 9.08528 6.24054C6.92194 5.95774 5.32402 6.44707 4.57889 7.61404C3.83393 8.781 4.06273 10.4371 5.22076 12.2773C5.37346 12.5198 5.5395 12.7621 5.71903 13C5.5395 13.2423 5.37346 13.4803 5.22076 13.7226C4.06273 15.5628 3.83393 17.2234 4.57889 18.386C5.18481 19.3375 6.3609 19.8358 7.94514 19.8358C8.32489 19.8337 8.70412 19.8083 9.08072 19.7594C9.15699 19.7504 9.23781 19.7369 9.31408 19.728C9.34564 19.7999 9.37702 19.8716 9.41296 19.9434C10.342 21.9138 11.6122 23.0001 12.9945 23.0001C14.377 23.0001 15.6517 21.9138 16.5762 19.9434C16.6076 19.8716 16.6436 19.7999 16.6749 19.728C16.7558 19.7415 16.832 19.7504 16.9085 19.7594C17.2847 19.8104 17.6641 19.8358 18.0439 19.8358C19.6283 19.8358 20.8042 19.3375 21.4101 18.386C22.1553 17.2191 21.9263 15.5628 20.7684 13.7226C20.6157 13.4803 20.4497 13.238 20.2702 13C20.4497 12.7576 20.6157 12.5198 20.7684 12.2773C21.9398 10.4327 22.1688 8.77645 21.4192 7.61404ZM10.2298 6.43813C10.9883 4.82233 11.9981 3.89767 12.9991 3.89767C14 3.89767 15.0099 4.82233 15.7683 6.43813C15.7689 6.44146 15.7704 6.44462 15.7729 6.44707C14.8195 6.6764 13.8895 6.99339 12.9945 7.39401C12.1005 6.99146 11.1702 6.67429 10.2163 6.44707C10.2252 6.44707 10.2252 6.44251 10.2298 6.43813ZM17.0431 13C17.0433 13.7182 17.0044 14.436 16.9264 15.1499C16.3669 15.6013 15.7825 16.0209 15.1759 16.4066C14.4758 16.8561 13.7472 17.2596 12.9945 17.6141C12.2434 17.2568 11.5148 16.8535 10.8133 16.4066C10.2074 16.0198 9.623 15.6003 9.06284 15.1499C8.90715 13.7208 8.90715 12.2791 9.06284 10.85C10.2726 9.87784 11.5923 9.05083 12.9945 8.386C13.7458 8.74313 14.4743 9.14638 15.1759 9.59329C15.7818 9.98006 16.3662 10.3996 16.9264 10.85C17.0044 11.5641 17.0433 12.2817 17.0431 13ZM17.9003 11.6939C18.3398 12.1032 18.7536 12.5395 19.1391 13C18.7536 13.4604 18.3398 13.8967 17.9003 14.306C17.9273 13.8753 17.9408 13.4399 17.9408 13C17.9408 12.5601 17.9273 12.1248 17.9003 11.6939ZM16.7423 16.4247C16.6006 17.2017 16.3949 17.9658 16.1274 18.7092C15.4303 18.5517 14.7462 18.3417 14.0808 18.0808C14.6103 17.8025 15.14 17.4973 15.6651 17.1652C16.0333 16.9273 16.3923 16.6805 16.7423 16.4247ZM11.9173 18.0808C11.2532 18.345 10.5687 18.5552 9.87074 18.7092C9.60319 17.9658 9.39753 17.2017 9.25587 16.4247C9.60144 16.6805 9.9605 16.9273 10.3331 17.1607C10.8582 17.4973 11.3878 17.8025 11.9173 18.0808ZM8.09785 14.306C7.65831 13.8967 7.24471 13.4604 6.859 13C7.24471 12.5395 7.65831 12.1032 8.09785 11.6939C8.07085 12.1248 8.05735 12.5601 8.05735 13C8.05735 13.4399 8.07085 13.8753 8.09785 14.306ZM9.25587 9.5754C9.39753 8.79819 9.60319 8.03412 9.87074 7.29091C10.5678 7.44818 11.2521 7.65822 11.9173 7.91928C11.3878 8.19752 10.8582 8.50276 10.3331 8.83483C9.96489 9.07275 9.60582 9.3196 9.25587 9.5754ZM15.6607 8.83483C15.14 8.50276 14.6103 8.19296 14.0763 7.91928C14.7404 7.65507 15.4249 7.44485 16.123 7.29091C16.3904 8.03412 16.596 8.79819 16.7379 9.5754C16.3923 9.3196 16.0333 9.07275 15.6607 8.83483ZM5.97939 11.7971C5.02772 10.289 4.79437 8.9381 5.33296 8.09426C5.76391 7.42101 6.69752 7.05738 7.95864 7.05738C8.29632 7.05878 8.63364 7.0814 8.96851 7.12471H8.97745C8.61436 8.18052 8.36171 9.27104 8.22356 10.3787C7.5319 10.9557 6.88793 11.5878 6.29796 12.2684C6.18575 12.1159 6.0781 11.9588 5.97939 11.7971ZM8.96413 18.8708C8.62926 18.9143 8.29193 18.9367 7.95426 18.9381C6.69296 18.9381 5.75936 18.5791 5.32858 17.9013C4.78998 17.0574 5.02334 15.7065 5.97483 14.1984C6.07354 14.0413 6.18136 13.8796 6.29357 13.7226C6.88337 14.4033 7.52734 15.0352 8.219 15.6122C8.35733 16.7201 8.60997 17.8106 8.97307 18.8662C8.97307 18.8708 8.96851 18.8708 8.96413 18.8708ZM15.7683 19.5619C15.0099 21.1777 14 22.1024 12.9991 22.1024C11.9981 22.1024 10.9883 21.1777 10.2298 19.5619C10.2293 19.5586 10.2277 19.5555 10.2252 19.553C11.1787 19.3237 12.1086 19.0067 13.0036 18.6059C13.8976 19.0086 14.8279 19.3258 15.7818 19.553C15.7729 19.553 15.7729 19.5574 15.7683 19.5619ZM20.0187 14.2029C20.9704 15.7109 21.2038 17.062 20.6652 17.9058C20.1266 18.7495 18.8025 19.1042 17.034 18.8708H17.0251C17.3882 17.815 17.641 16.7245 17.7791 15.6168C18.4708 15.0398 19.1148 14.4077 19.7046 13.7271C19.8124 13.8842 19.92 14.0413 20.0187 14.2029ZM17.7746 10.3833C17.6364 9.27542 17.3838 8.1849 17.0207 7.12926H17.0296C18.798 6.90029 20.122 7.25041 20.6606 8.09426C21.1992 8.9381 20.9659 10.289 20.0144 11.7971C19.9157 11.9542 19.8078 12.1159 19.6956 12.273C19.1085 11.5911 18.4659 10.9591 17.7746 10.3833Z" fill="#2B7CFF"/>
<path d="M12.9991 11.2225C12.0175 11.2225 11.2217 12.0183 11.2217 13C11.2217 13.9816 12.0175 14.7773 12.9991 14.7773C13.9808 14.7773 14.7766 13.9816 14.7766 13C14.7759 12.0185 13.9804 11.2232 12.9991 11.2225ZM12.9991 13.8796C12.5133 13.8796 12.1193 13.4858 12.1193 13C12.1193 12.5142 12.5133 12.1202 12.9991 12.1202C13.485 12.1202 13.8789 12.5142 13.8789 13C13.878 13.4855 13.4846 13.8789 12.9991 13.8796Z" fill="#2B7CFF"/>
</g>
<defs>
<clipPath id="clip0_280_4733">
<rect width="20" height="20" fill="white" transform="translate(3 3)"/>
</clipPath>
</defs>
</svg>
