<svg width="147" height="169" viewBox="0 0 147 169" fill="none" xmlns="http://www.w3.org/2000/svg">
<path fill-rule="evenodd" clip-rule="evenodd" d="M118.89 117.086V100.479C118.89 87.196 102.399 82.3776 91.0067 81.4023C90.0382 83.3619 89.0517 85.3214 88.0337 87.2183C96.9706 103.177 89.322 137.298 79.475 151.727C101.827 138.905 118.894 121.976 118.894 117.108L118.89 117.086ZM33.1234 96.8594L32.5783 96.2958C32.7585 96.4881 32.9432 96.676 33.1234 96.8594ZM52.7947 120.723C58.1731 132.977 55.565 146.295 67.7768 157.762C47.7001 167.027 25.281 171.416 7.58269 161.283C2.10517 158.151 1.47003 156.809 1.47003 151.829C1.47003 146.85 1.35292 141.732 1.5331 136.779C2.47004 128.127 6.93854 122.262 12.5737 115.949C18.8801 109.113 26.8035 103.602 32.5378 96.2644C38.8937 103.414 49.2181 112.572 52.7947 120.723Z" fill="white"/>
<path fill-rule="evenodd" clip-rule="evenodd" d="M117.289 117.102V100.517C117.289 95.4608 114.589 91.7445 110.67 89.0735C105.41 85.5001 97.9983 83.7135 91.838 83.0747L90.857 85.0758L89.7141 87.2645C93.6379 94.8846 94.2139 106.025 92.702 117.263C91.2485 128.193 87.8466 139.297 83.7023 147.35C91.1096 142.757 98.1326 137.58 104.703 131.869C112.492 125.03 117.303 119.322 117.303 117.102H117.289ZM120.327 100.517V117.102C120.327 120.13 115.143 126.728 106.719 134.12C98.5078 141.245 89.616 147.558 80.1699 152.969C79.8731 153.137 79.528 153.2 79.1904 153.149C78.8529 153.098 78.5426 152.935 78.3099 152.687C78.0771 152.439 77.9355 152.12 77.9081 151.782C77.8806 151.444 77.9688 151.107 78.1585 150.825C83.3603 143.232 87.9411 129.957 89.6781 116.879C91.1405 105.877 90.578 95.0722 86.6857 88.0506C86.5461 87.8264 86.4684 87.5696 86.4605 87.3062C86.4526 87.0427 86.5147 86.7818 86.6407 86.5498C87.1597 85.5969 87.6561 84.6559 88.1301 83.7269L89.5251 80.9441C89.6433 80.6397 89.8574 80.3813 90.1355 80.2075C90.4136 80.0337 90.7409 79.9536 91.0685 79.9793C97.8183 80.5555 106.323 82.4583 112.389 86.6034C117.073 89.806 120.313 94.3129 120.313 100.522L120.327 100.517ZM33.6684 95.3045L34.2174 95.8673C35.7069 97.5155 37.4213 99.2932 39.1988 101.138C44.9811 107.141 51.4294 113.841 54.1833 120.112C56.1272 124.539 57.0496 129.046 57.9676 133.553C59.5921 141.503 61.221 149.472 68.7673 156.569C68.9234 156.709 69.0503 156.877 69.1407 157.065C69.3065 157.428 69.3215 157.841 69.1825 158.215C69.0435 158.589 68.7618 158.893 68.3983 159.062C57.4277 164.123 45.7415 167.754 34.4604 168.411C24.7272 168.978 15.2911 167.339 6.86734 162.51C3.90644 160.808 2.22801 159.567 1.23355 157.977C0.239081 156.386 0.00957476 154.546 0.00957476 151.772V147.444C0.00957476 143.871 -0.0399038 140.257 0.086092 136.755V136.586C0.532121 132.405 1.86972 128.367 4.00995 124.74C6.02588 121.278 8.5998 118.169 11.4707 114.962C14.1391 112.077 17.118 109.401 20.0924 106.73C24.0838 103.157 28.0841 99.5523 31.342 95.3938C31.427 95.288 31.5253 95.1934 31.6345 95.1124C31.9391 94.8857 32.3187 94.7813 32.6974 94.8202C33.0761 94.8591 33.4261 95.0385 33.6774 95.3224L33.6684 95.3045ZM51.3844 121.318C48.842 115.534 42.5872 109.04 36.9849 103.215C35.4549 101.629 33.9699 100.088 32.602 98.6009C29.4521 102.357 25.7892 105.645 22.1354 108.928C19.2464 111.519 16.362 114.114 13.7296 116.968C10.9622 120.063 8.4873 123.038 6.62886 126.236C4.696 129.498 3.48565 133.131 3.07847 136.894C2.95248 140.373 2.97498 143.929 2.99748 147.449V151.79C2.99748 153.997 3.12347 155.363 3.77595 156.404C4.42842 157.445 5.83689 158.49 8.3433 159.924C16.2135 164.431 25.0737 165.963 34.2489 165.427C44.4411 164.828 55.0382 161.688 65.1134 157.239C58.1881 149.914 56.5637 142.026 54.9662 134.16C54.0933 129.805 53.2068 125.486 51.3844 121.318Z" fill="#3C3C3C"/>
<path fill-rule="evenodd" clip-rule="evenodd" d="M32.9463 96.4924C33.8124 95.3812 36.3386 92.7793 37.0288 91.6139C38.3822 89.2967 38.3416 88.4068 38.6258 85.6875C50.2825 99.1846 77.6876 107.112 88.212 87.946C91.1848 95.0514 82.7039 108.761 71.8186 112.831C63.8114 115.826 51.6178 113.969 45.4376 108.314L34.9808 98.7916L32.9463 96.4924Z" fill="white"/>
<path fill-rule="evenodd" clip-rule="evenodd" d="M31.8026 95.5542C32.1942 95.0557 32.7253 94.4628 33.3059 93.8205C34.1789 92.8968 34.9922 91.9188 35.7409 90.8922C36.7851 89.1226 36.8661 88.3006 37.0506 86.4457L37.1316 85.6237C37.1601 85.3295 37.2746 85.0501 37.4609 84.8201C37.6471 84.5902 37.8969 84.42 38.1793 84.3305C38.4617 84.2411 38.7642 84.2363 39.0492 84.3169C39.3343 84.3975 39.5893 84.5599 39.7827 84.7839C42.7154 88.0549 46.1972 90.7907 50.0717 92.8684C55.3152 95.7473 61.2924 97.6113 67.0265 97.8089C72.6436 98.0065 78.0266 96.6052 82.2169 92.9896C84.0765 91.3808 85.6315 89.4518 86.8078 87.2946C86.9458 87.0411 87.1536 86.8323 87.4067 86.6931C87.6598 86.5538 87.9476 86.4898 88.236 86.5088C88.5244 86.5277 88.8013 86.6286 89.034 86.7997C89.2667 86.9708 89.4454 87.2049 89.5489 87.4742L89.7019 87.8829C91.1017 91.8174 89.7019 97.2205 86.5513 102.175C83.4502 107.043 78.6298 111.58 73.1432 113.852L72.324 114.176C68.0302 115.774 62.6291 116.066 57.5251 115.2C52.5111 114.351 47.7222 112.37 44.4726 109.401L34.0395 99.9109L31.8926 97.499C31.6547 97.229 31.5205 96.8836 31.5139 96.5242C31.5073 96.1648 31.6288 95.8147 31.8566 95.5362L31.8026 95.5542ZM35.5698 95.8327L34.9757 96.4974L36.0649 97.728L46.462 107.182C49.284 109.751 53.5149 111.476 57.9842 112.235C62.6066 113.017 67.4361 112.774 71.2303 111.337L71.9459 111.054C76.8249 109.015 81.1502 104.928 83.9543 100.531C85.7546 97.6697 86.9384 94.7188 87.1679 92.1722C86.2795 93.3005 85.2848 94.3413 84.1973 95.2802C79.3769 99.4437 73.2602 101.056 66.9185 100.832C60.6937 100.612 54.2395 98.6129 48.6089 95.5228C45.3918 93.771 42.4146 91.6123 39.7512 89.1001C39.4779 90.2753 39.0044 91.395 38.3514 92.4103C37.5125 93.6198 36.5826 94.7639 35.5698 95.8327Z" fill="#3C3C3C"/>
<path fill-rule="evenodd" clip-rule="evenodd" d="M81.6059 96.5807C85.9728 92.3294 89.5351 84.5949 92.9366 77.5562C97.5895 67.9288 97.3526 56.937 97.4063 48.0821L95.8106 42.8234C95.2429 40.6504 95.1983 38.3418 95.158 36.1416C95.1044 33.2638 95.0507 30.6028 93.5847 29.252C91.2381 27.0789 87.5238 30.395 83.1613 34.2893C80.1935 36.9413 76.9664 39.8191 73.4532 41.8702C69.94 43.9213 66.7218 44.7977 63.7539 45.6064C60.8844 46.388 58.3009 47.0928 56.1957 48.8863C52.9194 51.6738 53.0669 53.9327 53.1205 57.9219C53.1742 61.6943 53.3708 65.4034 51.0957 73.4179C50.8332 71.3712 50.3212 69.3651 49.5716 67.4454C45.455 57.3662 35.6038 60.8946 35.8139 70.4814C35.8383 71.4505 35.9596 72.4147 36.1759 73.3592C36.7748 76.0382 38.2633 79.151 39.479 81.446C39.8768 82.1915 39.3673 84.2019 39.032 85.3088C47.3546 94.8639 59.472 101.397 69.1131 101.397C73.4085 101.397 78.4726 99.6302 81.6059 96.5807Z" fill="white"/>
<path fill-rule="evenodd" clip-rule="evenodd" d="M80.0972 95.3851C84.047 91.6223 87.4319 84.7547 90.6345 78.261L91.327 76.8595C95.6413 68.1172 95.6914 58.0591 95.7278 49.6863V48.3343L94.1561 43.2512C93.8506 42.0695 93.6539 40.8629 93.5684 39.6461C93.4819 38.551 93.4591 37.3659 93.4409 36.2123C93.4494 34.9508 93.3672 33.6904 93.1948 32.4404C93.1323 31.6994 92.8304 30.9979 92.3338 30.4396L92.2791 30.3855C91.696 29.9349 90.7621 30.1963 89.6004 30.8677C87.9284 31.8321 85.924 33.5715 83.76 35.4777C80.6849 38.1815 77.3455 41.0746 73.6372 43.1926C69.9288 45.3106 66.5029 46.2434 63.3914 47.0726C61.9609 47.4601 60.5942 47.8251 59.4051 48.2803C58.2719 48.6903 57.2157 49.2843 56.2799 50.0378C53.6057 52.2639 53.6376 54.1971 53.6877 57.4822V58.4556C53.7515 62.1418 53.8153 65.9857 51.5602 73.7772C51.4635 74.1187 51.2491 74.4159 50.9541 74.6173C50.6591 74.8188 50.3021 74.9118 49.9451 74.8802C49.5881 74.8487 49.2534 74.6945 48.9993 74.4445C48.7451 74.1944 48.5873 73.8643 48.5534 73.5113C48.4191 72.567 48.2367 71.63 48.0067 70.7039C47.7663 69.7829 47.4618 68.8795 47.0956 68.0001C45.9885 65.3413 44.4669 63.8091 42.9134 63.2008C42.1222 62.8869 41.2533 62.8177 40.4215 63.0025C39.5567 63.209 38.7677 63.6507 38.1436 64.2778C36.8225 65.5711 35.9478 67.6936 36.007 70.42C36.016 70.842 36.048 71.2631 36.1026 71.6817C36.1573 72.1324 36.2393 72.547 36.3396 72.9931C36.6743 74.3337 37.1318 75.6415 37.7063 76.9001C38.3076 78.252 38.9728 79.5769 39.5696 80.6719C39.8935 81.3994 39.9903 82.206 39.8475 82.9882V83.0378C39.7613 83.6465 39.6334 84.2487 39.4648 84.8403C43.4546 89.151 48.1563 92.7594 53.3688 95.5113C58.5168 98.2151 63.7968 99.7608 68.4346 99.7563C70.6406 99.7281 72.8237 99.31 74.8809 98.5216C76.8154 97.8201 78.5911 96.7482 80.1063 95.3671L80.0972 95.3851ZM93.3999 79.5679C90.0833 86.3274 86.5663 93.4204 82.2247 97.5933C80.4134 99.2608 78.2837 100.554 75.9606 101.397C73.5546 102.312 71.003 102.795 68.4254 102.825C63.2729 102.825 57.4917 101.144 51.9292 98.2331C46.1613 95.1862 40.9849 91.1522 36.6402 86.3184C36.447 86.1202 36.3118 85.8738 36.2492 85.6055C36.1866 85.3372 36.199 85.0571 36.2849 84.7952C36.5127 84.1059 36.6819 83.3989 36.7906 82.6817L36.868 82.1275C36.2211 80.9243 35.5013 79.5273 34.8863 78.1168C34.2417 76.6839 33.7279 75.1969 33.351 73.6735C33.2371 73.1643 33.1369 72.6326 33.0686 72.0783C32.9995 71.5536 32.9599 71.0256 32.9501 70.4966C32.8681 66.8915 34.1164 63.9714 35.9979 62.1328C37.0223 61.1118 38.3145 60.3939 39.729 60.0599C41.1605 59.7374 42.6574 59.8537 44.0205 60.3933C46.2983 61.2946 48.4623 63.363 49.9429 66.8645L50.0295 67.0718C50.5363 64.2636 50.7349 61.4096 50.6217 58.5593V57.5859C50.5579 53.395 50.5215 50.93 54.3073 47.7711C55.503 46.8052 56.8533 46.0437 58.3027 45.5179C59.6877 45.0142 61.0989 44.5839 62.5303 44.2291L62.6215 44.202C65.5599 43.4179 68.7489 42.5617 72.1338 40.6285C75.5187 38.6953 78.7988 35.8517 81.7691 33.2561C84.047 31.2553 86.1654 29.4122 88.097 28.2991C90.4478 26.9472 92.5525 26.6137 94.3429 28.1549L94.4477 28.2405C95.4818 29.1733 96.0057 30.4712 96.27 31.9718C96.4652 33.3754 96.5581 34.791 96.5478 36.2078C96.5478 37.2487 96.5889 38.3167 96.68 39.4659C96.7487 40.4953 96.9118 41.5164 97.1674 42.5167L98.771 47.699C98.8169 47.8448 98.84 47.9968 98.8394 48.1496V49.7133C98.8029 58.4151 98.7528 68.8653 94.1379 78.2069L93.3999 79.5679Z" fill="#3C3C3C"/>
<path fill-rule="evenodd" clip-rule="evenodd" d="M28.0301 24.1774C20.3219 38.3837 25.1698 77.2765 38.4734 85.6868C38.7465 84.9803 39.6328 82.1634 39.1449 81.2454C37.9273 78.9594 36.4591 75.8455 35.8368 73.1905C32.9407 60.3838 48.1154 54.3719 50.7788 73.249C53.0573 65.2662 52.8603 61.5492 52.8066 57.8143C52.7484 53.8454 52.6052 51.5954 55.8863 48.8145C57.9947 47.0145 60.582 46.326 63.4558 45.5475C66.4281 44.742 69.6555 43.8645 73.1694 41.8261C76.6833 39.7876 79.9197 36.9167 82.892 34.2752C87.2609 30.3963 90.9807 27.0754 93.3307 29.2578C94.799 30.6078 94.8527 33.2537 94.9064 36.1202C94.9467 38.3116 94.9915 40.6201 95.56 42.7756L97.167 48.027C97.6146 41.1151 97.4624 33.1053 96.509 26.5489C94.6647 13.8276 89.0156 13.3776 73.4738 5.09776C70.9894 3.77928 67.7665 1.58784 62.9499 1.43484C51.2041 1.07035 33.8135 14.7996 28.0301 24.1774Z" fill="#2B7CFF"/>
<path fill-rule="evenodd" clip-rule="evenodd" d="M29.3844 24.9706C25.5593 32.0509 25.0052 45.6548 27.1501 58.2934C28.9375 68.786 32.5526 78.4973 37.6691 83.0634L37.754 82.574L37.8523 81.8691C37.2177 80.6748 36.5117 79.283 35.9085 77.8777L35.8682 77.7699C35.2553 76.3759 34.7649 74.9307 34.4026 73.4508C33.2497 68.337 34.7154 64.1256 37.2222 61.7775C38.2757 60.7687 39.5931 60.082 41.0205 59.7975C42.4855 59.5253 43.9988 59.7281 45.3416 60.3767C47.415 61.3599 49.3633 63.4477 50.7351 66.8823C51.2357 64.0819 51.432 61.2352 51.3205 58.3922V57.4224C51.2579 53.2425 51.2222 50.7911 54.9356 47.6438C56.1084 46.6815 57.4329 45.9227 58.8545 45.3989C60.2365 44.8898 61.6446 44.4552 63.0728 44.0969C65.9505 43.3112 69.0785 42.4581 72.3987 40.532C75.7188 38.6059 78.9362 35.7729 81.8497 33.1868V33.1644C84.0839 31.1844 86.1484 29.3526 88.0341 28.2256C90.3846 26.8428 92.4803 26.533 94.2588 28.1718C94.6627 28.5377 95.0013 28.9705 95.2598 29.4513C95.1615 28.5534 95.0498 27.6644 94.9246 26.7844C93.5528 17.0237 89.5579 15.0258 79.7226 10.0961C77.6805 9.07239 75.3926 7.92751 72.7249 6.50426L71.5586 5.86223C69.3779 4.65 66.6119 3.13246 62.8762 3.02021C57.858 2.86307 51.6244 5.52998 45.7884 9.33279C38.7773 13.9033 32.423 20.0543 29.3844 24.9616V24.9706ZM24.183 58.8008C21.9487 45.565 22.6011 31.1529 26.7613 23.4934L26.8015 23.4216C30.0412 18.1641 36.7709 11.6136 44.1485 6.80956C50.4447 2.70593 57.2771 -0.167513 62.9611 0.00758657C67.4296 0.146769 70.5576 1.86187 73.0153 3.22675L74.1235 3.83286C76.6304 5.17978 78.9764 6.33815 81.0632 7.38426C91.9084 12.8168 96.2831 15.0168 97.932 26.3489C98.4088 29.7933 98.6937 33.2618 98.7855 36.7382C98.9017 40.5993 98.8301 44.501 98.5978 48.0928C98.5745 48.4452 98.4293 48.7784 98.1872 49.0345C97.9452 49.2907 97.6216 49.4537 97.2725 49.4953C96.9233 49.5369 96.5707 49.4544 96.2758 49.2622C95.9808 49.07 95.7621 48.7802 95.6575 48.4429L94.0443 43.1585C93.7483 41.9806 93.5569 40.7786 93.4724 39.5667C93.3875 38.4757 93.3651 37.2949 93.3472 36.1455C93.3556 34.8887 93.275 33.6329 93.1059 32.3876C93.0446 31.6493 92.7485 30.9504 92.2614 30.3942C91.6983 29.8689 90.7599 30.1293 89.5802 30.8432C87.9403 31.804 85.9741 33.537 83.8516 35.4362C80.8263 38.13 77.5464 41.0304 73.9001 43.145C70.2538 45.2597 66.9515 46.1666 63.9218 46.9928L63.8324 47.0197C62.5082 47.3523 61.2017 47.7524 59.918 48.2184C58.8065 48.627 57.7705 49.2188 56.8526 49.9695C54.234 52.1829 54.2608 54.1135 54.31 57.3775V58.3563C54.3725 62.0289 54.4351 65.8587 52.2232 73.6214C52.1287 73.9555 51.9227 74.2467 51.6398 74.4462C51.357 74.6458 51.0143 74.7415 50.6695 74.7172C50.3248 74.693 49.9988 74.5504 49.7462 74.3132C49.4937 74.0761 49.3301 73.7589 49.2828 73.4149C48.4338 67.3941 46.3157 64.2199 44.0412 63.1423C43.2711 62.7685 42.403 62.6491 41.5612 62.8011C40.6953 62.9808 39.8976 63.4025 39.2599 64.0179C37.4725 65.7105 36.4313 68.8668 37.325 72.8223C37.6426 74.1194 38.0733 75.3859 38.6119 76.6071L38.6656 76.7149C39.2554 78.0887 39.9078 79.4087 40.4887 80.4773C40.8274 81.2919 40.9101 82.1912 40.7256 83.0544C40.5471 84.0942 40.2764 85.116 39.9167 86.1074C39.8799 86.2198 39.8289 86.3269 39.7648 86.4262C39.5488 86.7616 39.2092 86.9973 38.8205 87.0814C38.4318 87.1656 38.0257 87.0914 37.6914 86.8751C30.935 82.574 26.2787 71.1296 24.183 58.8008Z" fill="#3C3C3C"/>
<path fill-rule="evenodd" clip-rule="evenodd" d="M72.5908 108.956C53.4388 107.239 42.924 106.769 32.9463 96.0904C39.209 103.189 49.3687 112.279 52.9195 120.363C58.219 132.515 55.6447 145.722 67.6819 157.093L79.2219 151.086C88.1832 138.3 97.0646 103.987 87.655 87.1152L87.331 87.7053C88.2897 96.7647 80.9795 101.095 73.9445 108.171L72.613 108.948L72.5908 108.956Z" fill="#2B7CFF"/>
<path fill-rule="evenodd" clip-rule="evenodd" d="M72.4416 110.463L69.9095 110.237C58.9742 109.276 50.9035 108.563 44.0168 105.737C48.2694 110.348 52.2693 115.181 54.2737 119.779C56.1893 124.169 57.0984 128.639 58.003 133.109C59.5506 140.732 61.1071 148.369 67.9229 155.231L78.1531 149.916C82.9379 142.907 87.665 129.64 89.4166 116.373C90.5252 108.005 90.441 99.6766 88.4277 93.0097C87.1639 97.9091 83.3592 101.426 79.0179 105.413C77.6875 106.64 76.304 107.916 74.9736 109.254C74.8584 109.371 74.7252 109.468 74.579 109.542L73.3107 110.268C73.0425 110.424 72.7325 110.492 72.4238 110.463H72.4416ZM70.1667 107.269L72.2332 107.451L72.9914 107.008C74.3617 105.639 75.7053 104.399 76.9824 103.207C82.1619 98.4363 86.4855 94.445 85.7981 87.911C85.7658 87.6121 85.8261 87.3106 85.9711 87.0472L86.2904 86.458C86.432 86.2115 86.6392 86.0091 86.889 85.8732C87.2356 85.6825 87.6437 85.6365 88.0242 85.7452C88.4047 85.8539 88.7267 86.1086 88.92 86.4535C93.2613 94.2545 93.8644 105.502 92.3788 116.749C90.543 130.659 85.4833 144.657 80.4058 151.909C80.2653 152.096 80.0831 152.248 79.8737 152.352L68.4195 158.319C68.1415 158.481 67.8184 158.549 67.4987 158.512C67.1789 158.475 66.8797 158.336 66.6457 158.115C58.4908 150.416 56.7924 142.035 55.094 133.671C54.2071 129.365 53.3468 125.064 51.5465 120.949C49.041 115.212 42.8771 108.771 37.3562 102.995C35.4228 100.97 33.5603 99.0077 31.9196 97.1738L31.8797 97.1339C31.6257 96.8417 31.4952 96.4624 31.5158 96.076C31.5363 95.6896 31.7063 95.3262 31.9898 95.0625C32.2733 94.7988 32.6482 94.6554 33.0355 94.6625C33.4228 94.6696 33.7922 94.8267 34.0659 95.1006C43.1831 104.877 52.9876 105.746 70.1667 107.269Z" fill="#3C3C3C"/>
<path fill-rule="evenodd" clip-rule="evenodd" d="M88.7085 99.4896C88.787 99.2998 88.9033 99.1275 89.0505 98.9832C89.1976 98.8389 89.3726 98.7254 89.565 98.6495C89.7573 98.5736 89.9631 98.5368 90.1702 98.5414C90.3772 98.546 90.5812 98.5918 90.7699 98.6762C90.9587 98.7606 91.1283 98.8817 91.2688 99.0324C91.4093 99.1831 91.5177 99.3603 91.5876 99.5534C91.6574 99.7465 91.6873 99.9516 91.6755 100.156C91.6637 100.361 91.6103 100.562 91.5186 100.746C90.2554 103.502 87.6696 107.615 84.8686 112.081C83.4589 114.348 81.9852 116.674 80.7266 118.76C80.5164 119.106 80.1765 119.355 79.7812 119.454C79.3858 119.552 78.9671 119.492 78.6167 119.286C78.3464 119.127 78.1322 118.889 78.0034 118.605L74.1543 111.156L70.2 123.189C70.0731 123.575 69.7972 123.895 69.4326 124.08C69.068 124.264 68.6445 124.298 68.2548 124.173L51.1102 116.842C50.9186 116.766 50.7441 116.654 50.5972 116.51C50.4502 116.367 50.3337 116.196 50.2547 116.007C50.1756 115.819 50.1355 115.616 50.1367 115.412C50.138 115.208 50.1806 115.006 50.262 114.818C50.3434 114.63 50.462 114.461 50.6107 114.319C50.7595 114.178 50.9353 114.067 51.1279 113.994C51.3204 113.921 51.5258 113.887 51.7319 113.894C51.938 113.901 52.1406 113.949 52.3276 114.035L67.7789 120.678L71.4403 109.578C71.5025 109.387 71.6022 109.211 71.7335 109.058C71.8648 108.906 72.0251 108.78 72.2054 108.689C72.3857 108.598 72.5823 108.544 72.784 108.528C72.9857 108.512 73.1885 108.536 73.3808 108.599L73.4815 108.635C73.626 108.317 73.8742 108.057 74.1864 107.896C74.5501 107.714 74.9719 107.681 75.3595 107.806C75.7472 107.931 76.0691 108.203 76.2551 108.562L79.5137 114.865L82.2598 110.485C84.9967 106.087 87.5277 102.056 88.7085 99.4896Z" fill="#3C3C3C"/>
<path fill-rule="evenodd" clip-rule="evenodd" d="M67.3252 157.092L78.7849 151.13C78.5953 149.447 78.5557 149.13 78.3441 147.554C77.3833 139.495 77.1012 130.855 76.1403 122.263C76.1007 121.875 76.5062 118.603 76.9689 115.217L73.5443 108.536L72.222 109.307L69.3923 117.987C70.124 120.426 70.8248 122.998 70.7675 123.562C69.7714 133.642 68.7312 143.59 67.7351 153.212C67.5676 154.679 67.4883 155.56 67.3252 157.092Z" fill="white"/>
<path fill-rule="evenodd" clip-rule="evenodd" d="M69.4363 154.466L78.2884 150.24L77.9565 147.684C77.4177 143.541 77.0713 139.237 76.7201 134.866C76.3929 130.754 76.0562 126.577 75.5462 122.448C75.5563 121.635 75.6254 120.824 75.7531 120.019C75.9022 118.877 76.1331 117.247 76.3929 115.512L73.9346 111.12L71.4762 118.02C71.8659 119.228 72.2411 120.445 72.5057 121.425C72.7472 122.163 72.8767 122.929 72.8906 123.7C71.837 133.416 70.7642 142.83 69.7298 151.949L69.446 154.435L69.4363 154.466ZM80.7661 152.401L68.3058 158.336C68.0131 158.485 67.6765 158.546 67.3436 158.511C66.9181 158.47 66.5276 158.277 66.2572 157.974C65.9869 157.672 65.8586 157.284 65.9003 156.895L66.4824 151.676C67.536 142.452 68.6185 132.911 69.6432 123.445C69.5664 123.013 69.4636 122.585 69.3353 122.163C69.0611 121.148 68.6377 119.795 68.2047 118.473C68.1086 118.187 68.1086 117.881 68.2047 117.594L71.2934 108.936C71.414 108.574 71.6781 108.265 72.0342 108.071L73.5641 107.272C73.7529 107.183 73.959 107.129 74.1707 107.113C74.3823 107.097 74.5953 107.12 74.7974 107.18C74.9994 107.239 75.1866 107.335 75.3482 107.461C75.5097 107.586 75.6424 107.74 75.7386 107.913L79.4382 114.502C79.6188 114.784 79.6916 115.113 79.6451 115.438C79.3853 117.195 79.1303 118.952 78.9523 120.344C78.8224 121.372 78.7407 122.053 78.7455 122.101C79.2651 126.314 79.6018 130.508 79.9338 134.638C80.2801 138.955 80.6217 143.212 81.1557 147.315L81.6368 150.894C81.6786 151.197 81.6174 151.504 81.4617 151.773C81.3059 152.043 81.063 152.262 80.7661 152.401Z" fill="#3C3C3C"/>
<path fill-rule="evenodd" clip-rule="evenodd" d="M76.0181 120.629C76.2241 120.314 76.5559 120.088 76.9405 120.001C77.3251 119.914 77.731 119.973 78.0689 120.165C78.4068 120.357 78.649 120.666 78.7422 121.025C78.8354 121.383 78.7721 121.762 78.5661 122.076C78.2402 122.624 77.7868 123.097 77.2391 123.46C76.6914 123.823 76.0633 124.067 75.4011 124.174C74.2115 124.368 72.8177 124.174 71.1531 123.57C70.7822 123.438 70.4827 123.175 70.3204 122.837C70.158 122.5 70.1462 122.116 70.2875 121.77C70.4287 121.425 70.7115 121.146 71.0737 120.994C71.4358 120.843 71.8476 120.832 72.2184 120.964C73.3725 121.377 74.247 121.526 74.8817 121.423C75.1224 121.377 75.3492 121.282 75.5457 121.145C75.7422 121.007 75.9035 120.831 76.0181 120.629Z" fill="#3C3C3C"/>
<path fill-rule="evenodd" clip-rule="evenodd" d="M38.796 114.924C38.64 114.556 38.6357 114.14 38.784 113.769C38.9324 113.397 39.2214 113.1 39.5873 112.943C39.9532 112.786 40.3662 112.782 40.7353 112.931C41.1044 113.081 41.3994 113.371 41.5555 113.74L47.2037 127.069C47.3413 127.386 47.3634 127.742 47.2661 128.074L45.9555 132.847L61.38 156.231C61.5799 156.565 61.6436 156.964 61.558 157.344C61.4723 157.725 61.2439 158.057 60.9204 158.272C60.597 158.487 60.2035 158.568 59.8223 158.497C59.441 158.427 59.1015 158.211 58.8746 157.895L43.0757 133.946C42.9569 133.766 42.8778 133.562 42.844 133.349C42.8102 133.135 42.8223 132.917 42.8795 132.708L44.2392 127.773L38.796 114.924Z" fill="#3C3C3C"/>
<path fill-rule="evenodd" clip-rule="evenodd" d="M77.6587 53.8606C84.325 49.9659 90.9431 45.9195 97.64 42.1096C98.5379 41.5965 99.1773 41.2575 100.018 41.4895L100.119 41.5207C100.995 41.8151 101.472 42.578 101.639 44.1439C101.788 46.9724 101.639 50.1533 101.639 53.0219C101.63 53.7494 101.52 54.472 101.31 55.1677C101.11 55.8531 100.834 56.5132 100.487 57.1352L100.36 57.3671C99.9979 57.992 99.569 58.574 99.081 59.1026C98.5946 59.6379 98.0339 60.0979 97.4166 60.4677L86.4274 66.9411C85.6382 67.4226 84.7572 67.7268 83.8432 67.8333C82.9511 67.9408 82.0486 67.7548 81.2678 67.3024L81.1714 67.24C80.5819 66.8667 80.0928 66.3501 79.748 65.7365C79.6823 66.0711 79.599 66.4057 79.4983 66.7448V66.8072C79.1884 67.8249 78.7667 68.8036 78.2413 69.7249C77.7104 70.6706 77.0724 71.5495 76.3404 72.3437C75.6588 73.0877 74.8755 73.7278 74.0146 74.2442L62.9071 80.771C62.3439 81.0993 61.721 81.3072 61.0763 81.3822C60.3824 81.4597 59.6822 81.313 59.0747 80.9629L59.0221 80.9316C58.4377 80.5701 57.9784 80.0322 57.7081 79.3925L57.6643 79.2809C57.4217 78.6735 57.3011 78.0228 57.3096 77.3671V68.6497C57.2495 67.748 57.4424 66.8475 57.8658 66.0533L57.9359 65.9507C58.388 65.31 58.9903 64.7946 59.6879 64.4517L77.685 53.8606H77.6587ZM77.0017 63.7379V57.7151L61.1376 67.0481C60.8685 67.1798 60.6228 67.3562 60.4105 67.5701L60.3843 67.6103C60.2665 67.9428 60.2231 68.2979 60.2573 68.6497V77.3626C60.2502 77.6109 60.2858 77.8585 60.3624 78.0943L60.3887 78.1523C60.4201 78.2266 60.4663 78.2934 60.5244 78.3486H60.5595C60.6388 78.3668 60.7211 78.3668 60.8004 78.3486C61.0352 78.3143 61.2613 78.234 61.4661 78.1121L72.5211 71.6076C73.138 71.2337 73.6986 70.7708 74.1854 70.2335C75.3207 68.999 76.1655 67.5177 76.6557 65.9016V65.8436C76.8678 65.1484 76.9799 64.4256 76.9886 63.6977L77.0017 63.7379ZM97.802 45.4823L81.9511 54.8064V62.5645C81.9364 63.0759 82.0259 63.5847 82.2139 64.0591C82.3131 64.3047 82.4786 64.5166 82.6913 64.6703L82.7439 64.7015C82.9939 64.8351 83.2785 64.8866 83.5585 64.8487C84.0559 64.78 84.5335 64.6052 84.9601 64.3357L95.9493 57.8713C96.3196 57.6468 96.656 57.3688 96.948 57.0459C97.2828 56.677 97.5766 56.2716 97.824 55.8369L97.8677 55.7611C98.1275 55.3035 98.3347 54.817 98.4853 54.3112C98.6139 53.8937 98.6818 53.4593 98.6868 53.0219V44.9603L97.802 45.4823Z" fill="#3C3C3C"/>
<path fill-rule="evenodd" clip-rule="evenodd" d="M40.2855 62.9094C40.2427 63.105 40.1613 63.2903 40.0462 63.4548C39.931 63.6193 39.7843 63.7596 39.6144 63.8679C39.4444 63.9762 39.2547 64.0503 39.0558 64.0859C38.857 64.1216 38.653 64.1181 38.4556 64.0756C38.2581 64.0332 38.071 63.9526 37.905 63.8386C37.7389 63.7245 37.5972 63.5792 37.4878 63.4108C37.3785 63.2425 37.3037 63.0545 37.2677 62.8576C37.2318 62.6606 37.2353 62.4586 37.2782 62.263L37.5018 61.2505C37.557 60.9983 37.6396 60.7528 37.7482 60.5182L37.771 60.4685C37.9519 60.0777 38.2103 59.727 38.531 59.4373C38.8517 59.1476 39.228 58.9249 39.6375 58.7824C40.3922 58.5232 41.2059 58.4825 41.9831 58.6649L42.1292 58.701C42.4519 58.781 42.7665 58.8899 43.0693 59.0265L57.8231 65.6351C58.0073 65.7174 58.1735 65.8347 58.3119 65.9805C58.4504 66.1263 58.5586 66.2977 58.6302 66.4849C58.7018 66.6721 58.7355 66.8715 58.7293 67.0716C58.7232 67.2717 58.6773 67.4686 58.5943 67.6512C58.5113 67.8337 58.3928 67.9983 58.2456 68.1354C58.0984 68.2726 57.9254 68.3797 57.7364 68.4506C57.5474 68.5216 57.3461 68.555 57.1441 68.5489C56.9421 68.5428 56.7432 68.4973 56.559 68.4151L41.8052 61.8065L41.3488 61.6483C41.1385 61.5891 40.9157 61.5891 40.7054 61.6483C40.6481 61.6675 40.6006 61.708 40.573 61.7613L40.2855 62.9094Z" fill="#3C3C3C"/>
<path fill-rule="evenodd" clip-rule="evenodd" d="M94.5135 137.347C94.4707 137.547 94.3897 137.736 94.2754 137.903C94.161 138.069 94.0158 138.209 93.8484 138.314C93.6811 138.42 93.4952 138.488 93.3021 138.515C93.1089 138.542 92.9126 138.527 92.725 138.472C92.5374 138.416 92.3625 138.321 92.211 138.192C92.0595 138.063 91.9344 137.902 91.8435 137.721C91.7526 137.539 91.6978 137.339 91.6823 137.135C91.6668 136.93 91.691 136.724 91.7535 136.529L98.6834 110.569L96.7923 108.247C96.6077 108.018 96.4907 107.737 96.4558 107.439L94.4709 94.5035C94.4302 94.1159 94.5333 93.7266 94.7588 93.4174C94.9842 93.1082 95.3145 92.903 95.6802 92.845C96.046 92.7869 96.4189 92.8804 96.7207 93.1059C97.0225 93.3313 97.2298 93.6713 97.2991 94.0544L99.2286 106.63L101.333 109.213C101.496 109.403 101.611 109.634 101.666 109.884C101.722 110.133 101.717 110.394 101.652 110.641L94.5135 137.347Z" fill="#3C3C3C"/>
</svg>
