<svg width="132" height="168" viewBox="0 0 132 168" fill="none" xmlns="http://www.w3.org/2000/svg">
<path fill-rule="evenodd" clip-rule="evenodd" d="M27.8564 135.903C32.0885 133.584 36.5142 132.217 41.05 134.593C37.7516 132.695 32.9388 129.257 29.5683 128.835C26.0953 128.406 22.8614 129.674 19.8895 131.306C9.59579 137.55 2.18678 150.14 1.29102 162.107L9.26178 166.704C10.1537 154.736 17.5628 142.15 27.8564 135.903Z" fill="#2B7CFF"/>
<path fill-rule="evenodd" clip-rule="evenodd" d="M35.6287 108.281C33.2071 106.884 27.8022 103.274 25.5932 103.001C14.7795 101.657 3.00925 125.015 12.1491 130.557L20.1198 135.154C10.1032 128.8 25.1491 102.785 35.6363 108.281H35.6287ZM27.8781 135.905L19.9074 131.305L27.8781 135.905Z" fill="white"/>
<path fill-rule="evenodd" clip-rule="evenodd" d="M34.3258 106.023C35.0545 106.467 35.7111 106.87 36.2463 107.162C36.541 107.325 36.759 107.598 36.8525 107.922C36.946 108.245 36.9074 108.592 36.745 108.888C36.5827 109.183 36.3099 109.401 35.9865 109.495C35.6632 109.589 35.3157 109.552 35.0203 109.39C32.0256 107.818 28.4463 109.454 25.3605 112.506C22.1745 115.751 19.8631 119.751 18.6423 124.132C17.9363 126.831 17.8376 129.415 18.6195 131.397C18.6027 131.167 18.6485 130.936 18.7519 130.73C18.8554 130.524 19.0128 130.349 19.2073 130.225C19.4018 130.101 19.6263 130.032 19.8569 130.025C20.0875 130.018 20.3157 130.074 20.5173 130.186L28.4881 134.786C28.6872 134.901 28.8513 135.067 28.9625 135.268C29.0959 135.513 29.1458 135.794 29.1048 136.069C29.0638 136.345 28.934 136.599 28.7352 136.794C28.5364 136.989 28.2794 137.114 28.0033 137.149C27.7271 137.185 27.447 137.13 27.2052 136.991L19.2345 132.391C19.1496 132.341 19.0706 132.281 18.9991 132.213C19.4283 132.963 20.0342 133.598 20.7641 134.061C21.0456 134.239 21.2461 134.52 21.3225 134.845C21.3989 135.169 21.345 135.51 21.1725 135.795C21 136.08 20.7226 136.286 20.3999 136.368C20.0773 136.451 19.7351 136.403 19.447 136.236C17.257 134.965 13.3057 133.01 11.4763 131.624C9.09263 130.182 7.90457 127.772 7.64267 124.906C7.38077 122.041 8.02221 118.803 9.3241 115.626C10.6091 112.455 12.4354 109.532 14.7214 106.987C17.9135 103.491 21.8344 101.233 25.7287 101.719C27.7252 101.966 31.5436 104.304 34.3258 106.008V106.023ZM30.272 106.547C28.3287 105.408 26.4006 104.383 25.4213 104.27C22.4304 103.89 19.2686 105.788 16.6003 108.722C14.5099 111.043 12.8402 113.711 11.666 116.605C10.5274 119.433 9.93146 122.299 10.1478 124.701C10.3338 126.77 11.1422 128.497 12.7401 129.461L15.8601 131.26C15.2718 128.983 15.435 126.269 16.16 123.506C17.4966 118.684 20.04 114.283 23.55 110.718C25.6452 108.661 27.9415 107.143 30.272 106.547Z" fill="#414141"/>
<path fill-rule="evenodd" clip-rule="evenodd" d="M27.8516 134.383C30.8881 132.633 33.6171 129.635 35.6022 126.2C37.5873 122.761 38.8133 118.886 38.8133 115.386C38.8133 111.886 37.5911 109.419 35.6288 108.281C33.6665 107.142 30.8995 107.301 27.8706 109.04C24.8417 110.778 22.0975 113.792 20.1124 117.227C18.1273 120.662 16.8975 124.545 16.8975 128.041C16.8975 131.536 18.1273 133.996 20.1124 135.142C22.0975 136.288 24.8227 136.133 27.8516 134.383Z" fill="white"/>
<path fill-rule="evenodd" clip-rule="evenodd" d="M27.2274 133.276C28.6715 132.415 29.9852 131.353 31.1292 130.122C32.4293 128.74 33.5643 127.211 34.5112 125.567L34.5681 125.48C35.4968 123.863 36.2368 122.145 36.7733 120.359C37.2633 118.749 37.519 117.077 37.5325 115.395C37.5677 114.077 37.3233 112.766 36.8151 111.55C36.4604 110.639 35.8055 109.876 34.9588 109.388C34.112 108.899 33.1241 108.714 32.1579 108.862C30.8531 109.032 29.5985 109.474 28.4761 110.161L28.4078 110.198C26.9864 111.053 25.6921 112.103 24.5629 113.318C23.2629 114.7 22.1279 116.229 21.181 117.873C20.2247 119.519 19.4606 121.268 18.9036 123.088C18.4076 124.697 18.1455 126.369 18.1255 128.053C18.0921 129.37 18.3366 130.678 18.8429 131.894C19.2195 132.792 19.8705 133.548 20.7027 134.054L20.7597 134.092C21.6032 134.531 22.5603 134.703 23.5039 134.585C24.8088 134.416 26.0632 133.974 27.1857 133.287L27.2274 133.276ZM32.9739 131.875C31.6613 133.283 30.1545 134.496 28.4989 135.477C27.0629 136.346 25.4586 136.9 23.7924 137.102C22.328 137.275 20.8458 136.991 19.5489 136.289L19.4692 136.244C18.1731 135.476 17.1549 134.315 16.5618 132.93C15.9017 131.387 15.5783 129.72 15.6129 128.042C15.6352 126.111 15.9344 124.194 16.5011 122.348C17.726 118.322 19.8552 114.63 22.7258 111.553C24.021 110.164 25.5058 108.964 27.1364 107.989L27.2046 107.948C28.6416 107.077 30.2472 106.522 31.915 106.319C33.4092 106.122 34.9267 106.425 36.2311 107.18C37.5354 107.935 38.5534 109.101 39.1266 110.495C39.786 112.038 40.1082 113.705 40.0717 115.383C40.0509 117.314 39.7532 119.231 39.1874 121.077C38.585 123.08 37.7506 125.006 36.7013 126.816V126.842C35.6568 128.658 34.406 130.347 32.9739 131.875Z" fill="#414141"/>
<path fill-rule="evenodd" clip-rule="evenodd" d="M61.3105 34.2327C65.5426 31.9136 69.9645 30.5472 74.5041 32.9232C71.2057 31.0254 66.3929 27.5866 63.0224 27.1653C59.5494 26.7364 56.3155 28.0041 53.3436 29.6362C43.0499 35.8838 35.6409 48.47 34.7451 60.4376L42.7159 65.034C43.6003 53.0703 51.0169 40.4803 61.3105 34.2327Z" fill="#2B7CFF"/>
<path fill-rule="evenodd" clip-rule="evenodd" d="M60.6971 33.1284C62.929 31.9024 65.2291 30.9269 67.6013 30.5664L67.9999 30.5094C66.14 29.4694 64.3105 28.6116 62.8644 28.4408C61.3464 28.2658 59.8086 28.4066 58.3477 28.8545C56.8198 29.3271 55.3473 29.9634 53.9562 30.7523H53.922C49.0332 33.7395 44.8125 38.2297 41.6811 43.4107C38.6381 48.3738 36.7254 53.9461 36.0788 59.7318L41.6394 62.9428C42.4539 57.1873 44.4365 51.659 47.4656 46.6977C50.8096 41.1637 55.3567 36.3509 60.6478 33.1398L60.6971 33.1094V33.1284ZM67.9809 33.0866C65.9502 33.3941 63.9196 34.2633 61.9079 35.364C57.0078 38.3511 52.7681 42.8527 49.6367 48.0413C46.4408 53.3248 44.3988 59.318 43.9433 65.1443C43.929 65.336 43.8706 65.5218 43.7725 65.6871C43.6039 65.967 43.334 66.1713 43.0188 66.2575C42.7036 66.3437 42.3673 66.3053 42.0797 66.1501L34.1772 61.5954C33.9535 61.4813 33.7684 61.3038 33.6449 61.0851C33.5213 60.8664 33.4649 60.6162 33.4827 60.3656C33.9496 54.1371 36.1396 47.7529 39.5139 42.1468C42.8388 36.6431 47.3556 31.8531 52.6049 28.642L52.7454 28.5547C54.3003 27.6724 55.9473 26.9634 57.6569 26.4405C59.4463 25.8955 61.3286 25.7237 63.1871 25.9357C66.0907 26.2963 69.7383 28.5471 72.8317 30.4563C73.6591 30.9649 74.4524 31.4545 75.109 31.8379C75.3899 32.0041 75.5961 32.272 75.685 32.586C75.7738 32.9001 75.7384 33.2363 75.5863 33.525C75.4341 33.8137 75.1767 34.0329 74.8675 34.1371C74.5582 34.2413 74.2207 34.2226 73.9248 34.0849C72.1081 33.1046 70.0189 32.7511 67.9809 33.0791V33.0866Z" fill="#414141"/>
<path fill-rule="evenodd" clip-rule="evenodd" d="M61.3105 34.2327C65.5426 31.9136 69.9645 30.5472 74.5041 32.9232C71.2057 31.0254 66.3929 27.5866 63.0224 27.1653C59.5494 26.7364 56.3155 28.0041 53.3436 29.6362C43.0499 35.8838 35.6409 48.47 34.7451 60.4376L42.7159 65.034C43.6003 53.0703 51.0169 40.4803 61.3105 34.2327Z" fill="#2B7CFF"/>
<path fill-rule="evenodd" clip-rule="evenodd" d="M60.6971 33.1284C62.929 31.9024 65.2291 30.9269 67.6013 30.5664L67.9999 30.5094C66.14 29.4694 64.3105 28.6116 62.8644 28.4408C61.3464 28.2658 59.8086 28.4066 58.3477 28.8545C56.8198 29.3271 55.3473 29.9634 53.9562 30.7523H53.922C49.0332 33.7395 44.8125 38.2297 41.6811 43.4107C38.6381 48.3738 36.7254 53.9461 36.0788 59.7318L41.6394 62.9428C42.4539 57.1873 44.4365 51.659 47.4656 46.6977C50.8096 41.1637 55.3567 36.3509 60.6478 33.1398L60.6971 33.1094V33.1284ZM67.9809 33.0866C65.9502 33.3941 63.9196 34.2633 61.9079 35.364C57.0078 38.3511 52.7681 42.8527 49.6367 48.0413C46.4408 53.3248 44.3988 59.318 43.9433 65.1443C43.929 65.336 43.8706 65.5218 43.7725 65.6871C43.6039 65.967 43.334 66.1713 43.0188 66.2575C42.7036 66.3437 42.3673 66.3053 42.0797 66.1501L34.1772 61.5954C33.9535 61.4813 33.7684 61.3038 33.6449 61.0851C33.5213 60.8664 33.4649 60.6162 33.4827 60.3656C33.9496 54.1371 36.1396 47.7529 39.5139 42.1468C42.8388 36.6431 47.3556 31.8531 52.6049 28.642L52.7454 28.5547C54.3003 27.6724 55.9473 26.9634 57.6569 26.4405C59.4463 25.8955 61.3286 25.7237 63.1871 25.9357C66.0907 26.2963 69.7383 28.5471 72.8317 30.4563C73.6591 30.9649 74.4524 31.4545 75.109 31.8379C75.3899 32.0041 75.5961 32.272 75.685 32.586C75.7738 32.9001 75.7384 33.2363 75.5863 33.525C75.4341 33.8137 75.1767 34.0329 74.8675 34.1371C74.5582 34.2413 74.2207 34.2226 73.9248 34.0849C72.1081 33.1046 70.0189 32.7511 67.9809 33.0791V33.0866Z" fill="#414141"/>
<path fill-rule="evenodd" clip-rule="evenodd" d="M69.0662 6.61165C66.6446 5.21107 61.2396 1.60524 59.0306 1.32816C48.2169 -0.0154803 36.4468 23.3427 45.5866 28.8842L53.5573 33.4807C43.5408 27.1269 58.5866 1.11182 69.0738 6.61165H69.0662ZM61.3155 34.2322L53.3448 29.632L61.3155 34.2322Z" fill="white"/>
<path fill-rule="evenodd" clip-rule="evenodd" d="M67.7802 4.35377L69.678 5.49245C69.9755 5.64999 70.1982 5.91924 70.2971 6.24098C70.396 6.56272 70.3632 6.91059 70.2056 7.20806C70.0481 7.50553 69.7788 7.72823 69.4571 7.82717C69.1353 7.92611 68.7875 7.89319 68.49 7.73565C65.4953 6.16807 61.916 7.80397 58.8301 10.8518C57.2353 12.4603 55.8584 14.2711 54.7348 16.2378C53.5893 18.1926 52.7085 20.291 52.1157 22.4778C51.406 25.1764 51.3073 27.7613 52.0854 29.7426C52.066 29.4992 52.1168 29.2554 52.2318 29.0401C52.3469 28.8248 52.5214 28.6471 52.7345 28.528C52.9254 28.4216 53.1403 28.3658 53.3589 28.3658C53.5774 28.3658 53.7923 28.4216 53.9832 28.528L61.9046 33.1017C62.126 33.2152 62.3084 33.3923 62.4285 33.6103C62.5916 33.9048 62.6313 34.252 62.5388 34.5758C62.4463 34.8996 62.2292 35.1734 61.935 35.3373C61.7441 35.4436 61.5292 35.4995 61.3106 35.4995C61.0921 35.4995 60.8771 35.4436 60.6862 35.3373L52.7648 30.7636C52.6615 30.7092 52.5658 30.6416 52.4801 30.5624C52.9079 31.313 53.5142 31.9465 54.2451 32.4071C54.5267 32.585 54.7271 32.8662 54.8035 33.1904C54.8799 33.5146 54.826 33.8558 54.6535 34.1407C54.481 34.4255 54.2036 34.6313 53.8809 34.7139C53.5583 34.7964 53.2162 34.749 52.928 34.582C50.2711 33.0637 47.5572 31.5455 44.9383 29.9703C42.5584 28.528 41.3704 26.1178 41.1085 23.2559C40.8466 20.394 41.4881 17.1487 42.79 13.9756C44.074 10.8034 45.9003 7.87887 48.1873 5.33303C51.3756 1.83728 55.3003 -0.417299 59.1946 0.0647422C61.1911 0.311456 65.0132 2.64954 67.7954 4.35377H67.7802ZM63.7151 4.87756C61.7718 3.73888 59.8436 2.71787 58.8605 2.6002C55.8734 2.22064 52.7079 4.11844 50.0433 7.04865C47.9529 9.37114 46.2832 12.0402 45.1091 14.9359C43.9704 17.7598 43.3745 20.6293 43.5908 23.0281C43.7806 25.1005 44.5891 26.8237 46.1946 27.7954L49.3108 29.5907C48.7187 27.2906 48.8819 24.5957 49.6069 21.8363C50.9427 17.0117 53.4876 12.6078 57.0007 9.04134C59.0997 6.99551 61.396 5.49245 63.7151 4.87756Z" fill="#414141"/>
<path fill-rule="evenodd" clip-rule="evenodd" d="M69.0662 6.61165C66.6446 5.21107 61.2396 1.60524 59.0306 1.32816C48.2169 -0.0154803 36.4468 23.3427 45.5866 28.8842L53.5573 33.4807C43.5408 27.1269 58.5866 1.11182 69.0738 6.61165H69.0662ZM61.3155 34.2322L53.3448 29.632L61.3155 34.2322Z" fill="white"/>
<path fill-rule="evenodd" clip-rule="evenodd" d="M67.7802 4.35377L69.678 5.49245C69.9755 5.64999 70.1982 5.91924 70.2971 6.24098C70.396 6.56272 70.3632 6.91059 70.2056 7.20806C70.0481 7.50553 69.7788 7.72823 69.4571 7.82717C69.1353 7.92611 68.7875 7.89319 68.49 7.73565C65.4953 6.16807 61.916 7.80397 58.8301 10.8518C57.2353 12.4603 55.8584 14.2711 54.7348 16.2378C53.5893 18.1926 52.7085 20.291 52.1157 22.4778C51.406 25.1764 51.3073 27.7613 52.0854 29.7426C52.066 29.4992 52.1168 29.2554 52.2318 29.0401C52.3469 28.8248 52.5214 28.6471 52.7345 28.528C52.9254 28.4216 53.1403 28.3658 53.3589 28.3658C53.5774 28.3658 53.7923 28.4216 53.9832 28.528L61.9046 33.1017C62.126 33.2152 62.3084 33.3923 62.4285 33.6103C62.5916 33.9048 62.6313 34.252 62.5388 34.5758C62.4463 34.8996 62.2292 35.1734 61.935 35.3373C61.7441 35.4436 61.5292 35.4995 61.3106 35.4995C61.0921 35.4995 60.8771 35.4436 60.6862 35.3373L52.7648 30.7636C52.6615 30.7092 52.5658 30.6416 52.4801 30.5624C52.9079 31.313 53.5142 31.9465 54.2451 32.4071C54.5267 32.585 54.7271 32.8662 54.8035 33.1904C54.8799 33.5146 54.826 33.8558 54.6535 34.1407C54.481 34.4255 54.2036 34.6313 53.8809 34.7139C53.5583 34.7964 53.2162 34.749 52.928 34.582C50.2711 33.0637 47.5572 31.5455 44.9383 29.9703C42.5584 28.528 41.3704 26.1178 41.1085 23.2559C40.8466 20.394 41.4881 17.1487 42.79 13.9756C44.074 10.8034 45.9003 7.87887 48.1873 5.33303C51.3756 1.83728 55.3003 -0.417299 59.1946 0.0647422C61.1911 0.311456 65.0132 2.64954 67.7954 4.35377H67.7802ZM63.7151 4.87756C61.7718 3.73888 59.8436 2.71787 58.8605 2.6002C55.8734 2.22064 52.7079 4.11844 50.0433 7.04865C47.9529 9.37114 46.2832 12.0402 45.1091 14.9359C43.9704 17.7598 43.3745 20.6293 43.5908 23.0281C43.7806 25.1005 44.5891 26.8237 46.1946 27.7954L49.3108 29.5907C48.7187 27.2906 48.8819 24.5957 49.6069 21.8363C50.9427 17.0117 53.4876 12.6078 57.0007 9.04134C59.0997 6.99551 61.396 5.49245 63.7151 4.87756Z" fill="#414141"/>
<path fill-rule="evenodd" clip-rule="evenodd" d="M74.5027 32.923C70.988 30.8961 66.2738 31.3668 61.3054 34.2362C56.1585 37.212 51.4975 42.3133 48.1233 48.1509C45.0298 53.5141 43.0182 59.496 42.7031 65.0338L79.919 43.5469C79.6078 38.3697 77.5961 34.7107 74.5027 32.923Z" fill="#2B7CFF"/>
<path fill-rule="evenodd" clip-rule="evenodd" d="M73.8641 34.0251C72.2524 33.135 70.3995 32.7801 68.573 33.0117C66.2224 33.3096 63.9614 34.1012 61.9383 35.3346C59.4095 36.8421 57.1089 38.703 55.1062 40.861C52.8448 43.2669 50.8728 45.9293 49.2306 48.7938C47.7135 51.4088 46.478 54.1774 45.545 57.0531C44.9469 58.8939 44.5051 60.782 44.2242 62.6971L78.5972 42.8537C78.4492 41.0382 77.9653 39.2659 77.17 37.6271C76.4443 36.1312 75.2981 34.8794 73.8717 34.0251H73.8641ZM68.3263 30.4724C70.6823 30.188 73.0678 30.6585 75.1394 31.8161C76.9934 32.9139 78.4856 34.5302 79.4322 36.4657C80.4911 38.6551 81.0893 41.0386 81.1896 43.4686C81.201 43.7043 81.1476 43.9386 81.0352 44.146C80.9228 44.3535 80.7557 44.5261 80.552 44.6452L43.4006 66.0942C43.1749 66.2395 42.9096 66.3112 42.6414 66.2991C42.3044 66.2805 41.9885 66.129 41.763 65.8779C41.5374 65.6267 41.4207 65.2964 41.4383 64.9593C41.6338 62.0028 42.2 59.0827 43.1235 56.2674C45.208 49.874 48.6685 44.0153 53.2615 39.1036C55.4352 36.7677 57.9329 34.7557 60.6781 33.1294C63.0117 31.7145 65.6181 30.8091 68.3263 30.4724Z" fill="#414141"/>
<path fill-rule="evenodd" clip-rule="evenodd" d="M74.5027 32.923C70.988 30.8961 66.2738 31.3668 61.3054 34.2362C56.1585 37.212 51.4975 42.3133 48.1233 48.1509C45.0298 53.5141 43.0182 59.496 42.7031 65.0338L79.919 43.5469C79.6078 38.3697 77.5961 34.7107 74.5027 32.923Z" fill="white"/>
<path fill-rule="evenodd" clip-rule="evenodd" d="M73.8641 34.0251C72.2524 33.135 70.3995 32.7801 68.573 33.0117C66.2224 33.3096 63.9614 34.1012 61.9383 35.3346C59.4095 36.8421 57.1089 38.703 55.1062 40.861C52.8448 43.2669 50.8728 45.9293 49.2306 48.7938C47.7135 51.4088 46.478 54.1774 45.545 57.0531C44.9469 58.8939 44.5051 60.782 44.2242 62.6971L78.5972 42.8537C78.4492 41.0382 77.9653 39.2659 77.17 37.6271C76.4443 36.1312 75.2981 34.8794 73.8717 34.0251H73.8641ZM68.3263 30.4724C70.6823 30.188 73.0678 30.6585 75.1394 31.8161C76.9934 32.9139 78.4856 34.5302 79.4322 36.4657C80.4911 38.6551 81.0893 41.0386 81.1896 43.4686C81.201 43.7043 81.1476 43.9386 81.0352 44.146C80.9228 44.3535 80.7557 44.5261 80.552 44.6452L43.4006 66.0942C43.1749 66.2395 42.9096 66.3112 42.6414 66.2991C42.3044 66.2805 41.9885 66.129 41.763 65.8779C41.5374 65.6267 41.4207 65.2964 41.4383 64.9593C41.6338 62.0028 42.2 59.0827 43.1235 56.2674C45.208 49.874 48.6685 44.0153 53.2615 39.1036C55.4352 36.7677 57.9329 34.7557 60.6781 33.1294C63.0117 31.7145 65.6181 30.8091 68.3263 30.4724Z" fill="#414141"/>
<path fill-rule="evenodd" clip-rule="evenodd" d="M61.3049 32.7139C64.3414 30.9641 67.0705 27.9618 69.0556 24.5305C71.0407 21.0917 72.2666 17.2164 72.2666 13.7169C72.2666 10.2173 71.0369 7.75778 69.0556 6.61531C67.0743 5.47283 64.3262 5.63604 61.2973 7.37443C58.2684 9.11281 55.5242 12.1265 53.5391 15.5615C51.554 18.9966 50.3242 22.8795 50.3242 26.3752C50.3242 29.871 51.554 32.3305 53.5391 33.4768C55.5242 34.6231 58.276 34.4636 61.3049 32.7139Z" fill="white"/>
<path fill-rule="evenodd" clip-rule="evenodd" d="M61.9311 33.8191C60.499 34.6833 58.9001 35.2344 57.2397 35.436C55.7764 35.6112 54.2949 35.3274 53 34.6237L52.9165 34.5782C51.6215 33.8088 50.6035 32.6488 50.009 31.2646C49.3522 29.7214 49.0301 28.0565 49.0639 26.3797C49.086 24.4491 49.3852 22.5318 49.9521 20.6863C51.1794 16.6507 53.3153 12.9501 56.1959 9.86881C57.5089 8.4575 59.0187 7.24305 60.6785 6.26298C62.1154 5.39534 63.7192 4.84049 65.385 4.63467C66.8788 4.44162 68.3947 4.74595 69.6982 5.50062C71.0017 6.25529 72.0203 7.41827 72.5967 8.80983C73.2536 10.3543 73.5757 12.0205 73.5418 13.6986C73.5207 15.6289 73.2229 17.5462 72.6575 19.392C72.0527 21.3932 71.2184 23.3177 70.1713 25.1271V25.1575C69.1378 26.9457 67.9052 28.6111 66.4972 30.1222L66.4288 30.1981C65.1204 31.6086 63.6144 32.8219 61.9577 33.8001L61.9311 33.8191ZM60.6785 31.61C62.1237 30.7496 63.4389 29.6876 64.5842 28.4559L64.6449 28.3952C65.9198 27.0246 67.0341 25.513 67.9661 23.8898L68.0231 23.7987C68.9518 22.1833 69.6917 20.4666 70.2282 18.6822C70.7164 17.0706 70.972 15.3976 70.9873 13.7138C71.0226 12.397 70.7782 11.0878 70.27 9.87261C69.9147 8.96183 69.26 8.19913 68.4135 7.71001C67.5671 7.2209 66.5793 7.03451 65.6128 7.18152C64.3065 7.34945 63.0505 7.79183 61.9273 8.47961C60.4796 9.33957 59.163 10.4031 58.0178 11.6376C55.4118 14.4224 53.4808 17.769 52.3738 21.4188C51.8775 23.0278 51.6154 24.6998 51.5957 26.3835C51.5604 27.699 51.8048 29.007 52.313 30.2208C52.6896 31.1199 53.3405 31.8771 54.1729 32.3843L54.2298 32.4147C55.0723 32.8569 56.03 33.0304 56.974 32.9119C58.2871 32.7452 59.5498 32.3015 60.6785 31.61Z" fill="#414141"/>
<path fill-rule="evenodd" clip-rule="evenodd" d="M61.3049 32.7139C64.3414 30.9641 67.0705 27.9618 69.0556 24.5305C71.0407 21.0917 72.2666 17.2164 72.2666 13.7169C72.2666 10.2173 71.0369 7.75778 69.0556 6.61531C67.0743 5.47283 64.3262 5.63604 61.2973 7.37443C58.2684 9.11281 55.5242 12.1265 53.5391 15.5615C51.554 18.9966 50.3242 22.8795 50.3242 26.3752C50.3242 29.871 51.554 32.3305 53.5391 33.4768C55.5242 34.6231 58.276 34.4636 61.3049 32.7139Z" fill="white"/>
<path fill-rule="evenodd" clip-rule="evenodd" d="M61.9311 33.8191C60.499 34.6833 58.9001 35.2344 57.2397 35.436C55.7764 35.6112 54.2949 35.3274 53 34.6237L52.9165 34.5782C51.6215 33.8088 50.6035 32.6488 50.009 31.2646C49.3522 29.7214 49.0301 28.0565 49.0639 26.3797C49.086 24.4491 49.3852 22.5318 49.9521 20.6863C51.1794 16.6507 53.3153 12.9501 56.1959 9.86881C57.5089 8.4575 59.0187 7.24305 60.6785 6.26298C62.1154 5.39534 63.7192 4.84049 65.385 4.63467C66.8788 4.44162 68.3947 4.74595 69.6982 5.50062C71.0017 6.25529 72.0203 7.41827 72.5967 8.80983C73.2536 10.3543 73.5757 12.0205 73.5418 13.6986C73.5207 15.6289 73.2229 17.5462 72.6575 19.392C72.0527 21.3932 71.2184 23.3177 70.1713 25.1271V25.1575C69.1378 26.9457 67.9052 28.6111 66.4972 30.1222L66.4288 30.1981C65.1204 31.6086 63.6144 32.8219 61.9577 33.8001L61.9311 33.8191ZM60.6785 31.61C62.1237 30.7496 63.4389 29.6876 64.5842 28.4559L64.6449 28.3952C65.9198 27.0246 67.0341 25.513 67.9661 23.8898L68.0231 23.7987C68.9518 22.1833 69.6917 20.4666 70.2282 18.6822C70.7164 17.0706 70.972 15.3976 70.9873 13.7138C71.0226 12.397 70.7782 11.0878 70.27 9.87261C69.9147 8.96183 69.26 8.19913 68.4135 7.71001C67.5671 7.2209 66.5793 7.03451 65.6128 7.18152C64.3065 7.34945 63.0505 7.79183 61.9273 8.47961C60.4796 9.33957 59.163 10.4031 58.0178 11.6376C55.4118 14.4224 53.4808 17.769 52.3738 21.4188C51.8775 23.0278 51.6154 24.6998 51.5957 26.3835C51.5604 27.699 51.8048 29.007 52.313 30.2208C52.6896 31.1199 53.3405 31.8771 54.1729 32.3843L54.2298 32.4147C55.0723 32.8569 56.03 33.0304 56.974 32.9119C58.2871 32.7452 59.5498 32.3015 60.6785 31.61Z" fill="#414141"/>
<path fill-rule="evenodd" clip-rule="evenodd" d="M27.2442 134.791C29.4761 133.565 31.7763 132.589 34.1485 132.228L34.547 132.172C32.6871 131.132 30.8577 130.274 29.4116 130.099C27.8933 129.929 26.3562 130.071 24.8948 130.517C23.3663 130.988 21.8937 131.624 20.5033 132.414H20.4692C15.5804 135.398 11.3597 139.892 8.22833 145.069C5.18644 150.033 3.2738 155.605 2.62602 161.39L8.18654 164.605C9.001 158.849 10.9837 153.321 14.0128 148.36C17.3568 142.826 21.9039 138.009 27.1987 134.798L27.2442 134.772V134.791ZM34.5281 134.749C32.4974 135.056 30.4668 135.925 28.4551 137.026C23.5512 140.013 19.3191 144.515 16.1801 149.703C12.988 154.991 10.946 160.98 10.5095 166.806C10.4952 166.998 10.4368 167.184 10.3387 167.349C10.2554 167.494 10.1443 167.62 10.012 167.722C9.87963 167.823 9.72858 167.898 9.56745 167.941C9.40631 167.984 9.2383 167.994 9.07298 167.972C8.90767 167.95 8.74833 167.896 8.60409 167.812L0.69782 163.258C0.474092 163.143 0.288974 162.966 0.165453 162.747C0.0419325 162.528 -0.0145534 162.278 0.00319493 162.028C0.470054 155.799 2.66017 149.415 6.03826 143.809C9.35941 138.305 13.8724 133.515 19.1255 130.304L19.2659 130.217C20.8208 129.335 22.4679 128.626 24.1775 128.103C25.9669 127.558 27.8491 127.386 29.7076 127.598C32.6112 127.958 36.2589 130.209 39.3523 132.118C40.1797 132.627 40.9692 133.113 41.6296 133.5C41.9105 133.666 42.1167 133.934 42.2056 134.248C42.2944 134.562 42.259 134.898 42.1069 135.187C41.9547 135.476 41.6973 135.695 41.3881 135.799C41.0788 135.903 40.7412 135.885 40.4454 135.747C38.6356 134.775 36.5566 134.424 34.5281 134.749Z" fill="#414141"/>
<path fill-rule="evenodd" clip-rule="evenodd" d="M40.4137 135.692C38.8014 134.804 36.9494 134.448 35.1226 134.675C32.7722 134.976 30.5116 135.769 28.4879 137.002C25.9598 138.51 23.6594 140.371 21.6558 142.528C19.3976 144.935 17.4271 147.595 15.784 150.457L15.7461 150.522C14.2447 153.118 13.022 155.867 12.0985 158.72C11.5 160.561 11.0581 162.449 10.7776 164.364L45.1506 144.517C45.0027 142.704 44.5187 140.934 43.7235 139.298C43 137.8 41.8532 136.546 40.425 135.692H40.4137ZM34.8721 132.147C37.2281 131.863 39.6136 132.333 41.6852 133.491C43.5391 134.589 45.0314 136.205 45.978 138.14C47.0387 140.329 47.6369 142.713 47.7354 145.143C47.7478 145.379 47.6948 145.613 47.5823 145.82C47.4697 146.027 47.302 146.199 47.0977 146.316L9.94641 167.765C9.74958 167.896 9.52008 167.969 9.28394 167.976C9.0478 167.983 8.81442 167.924 8.60998 167.806C8.40554 167.688 8.23827 167.514 8.127 167.306C8.01574 167.098 7.96486 166.862 7.98022 166.626C8.17223 163.67 8.73726 160.749 9.66174 157.935C10.6452 154.92 11.9428 152.017 13.5332 149.273L13.5711 149.197C15.3146 146.163 17.4063 143.343 19.8036 140.794C21.9761 138.458 24.4725 136.446 27.2164 134.819C29.5511 133.398 32.1602 132.487 34.8721 132.147Z" fill="#414141"/>
<path d="M45.7571 144.792L10.6562 164.222C12.5367 156.074 15.955 145.704 26.3263 138.524C34.4747 132.882 42.6231 131.629 45.7571 144.792Z" fill="white"/>
<path fill-rule="evenodd" clip-rule="evenodd" d="M111.69 87.4995C115.922 85.1804 120.347 83.8139 124.883 86.19C121.585 84.2922 116.772 80.8496 113.401 80.4321C109.932 79.9994 106.698 81.2709 103.726 82.903C93.4327 89.1468 86.0199 101.733 85.1279 113.701L93.0987 118.301C93.9869 106.333 101.396 93.747 111.69 87.4995Z" fill="#2B7CFF"/>
<path fill-rule="evenodd" clip-rule="evenodd" d="M111.078 86.3876C113.31 85.1616 115.61 84.1862 117.982 83.8256L118.385 83.7686C116.525 82.7286 114.695 81.8708 113.249 81.6962C111.73 81.5244 110.191 81.6665 108.729 82.1138C107.2 82.5854 105.728 83.2217 104.337 84.0116H104.303C99.4143 86.9987 95.1935 91.4927 92.066 96.6699C89.0207 101.632 87.1066 107.205 86.4599 112.991L92.0205 116.202C92.8384 110.449 94.8209 104.922 97.8467 99.9607C101.191 94.4267 105.742 89.6101 111.033 86.399L111.078 86.3724V86.3876ZM118.362 86.3459C116.331 86.6533 114.301 87.5225 112.289 88.6232C107.385 91.6104 103.149 96.1081 100.014 101.301C96.8218 106.588 94.7798 112.577 94.3205 118.404C94.3059 118.595 94.2488 118.78 94.1536 118.946C94.0699 119.091 93.9586 119.218 93.8259 119.319C93.6932 119.421 93.5418 119.495 93.3803 119.538C93.2189 119.581 93.0506 119.592 92.885 119.57C92.7193 119.548 92.5598 119.493 92.4152 119.409L84.509 114.855C84.2853 114.741 84.1004 114.563 83.9774 114.344C83.8545 114.125 83.799 113.875 83.8181 113.625C84.285 107.396 86.4561 101.012 89.8494 95.406C93.1743 89.9061 97.6873 85.1161 102.94 81.905L103.077 81.8177C104.632 80.9361 106.279 80.2271 107.989 79.7036C109.779 79.158 111.663 78.9862 113.523 79.1987C116.426 79.5783 120.07 81.8063 123.163 83.7155C123.968 84.2127 124.739 84.6872 125.486 85.1199C125.781 85.2828 125.999 85.5561 126.092 85.8796C126.186 86.2031 126.147 86.5505 125.985 86.8456C125.823 87.1406 125.55 87.3592 125.227 87.4534C124.903 87.5476 124.556 87.5096 124.26 87.3479L124.211 87.3213C122.422 86.3738 120.373 86.0316 118.373 86.3459H118.362Z" fill="#414141"/>
<path fill-rule="evenodd" clip-rule="evenodd" d="M119.443 59.8764C117.022 58.4796 111.617 54.87 109.411 54.5967C98.5938 53.2531 86.8237 76.6112 95.9635 82.149L103.934 86.7493C93.9176 80.3954 108.96 54.3804 119.447 59.8764H119.443ZM111.696 87.497L103.725 82.8967L111.696 87.497Z" fill="white"/>
<path fill-rule="evenodd" clip-rule="evenodd" d="M118.161 57.6184C118.889 58.0663 119.55 58.4686 120.081 58.7761C120.363 58.9451 120.569 59.2168 120.655 59.5342C120.741 59.8516 120.701 60.1901 120.543 60.4784C120.384 60.7667 120.121 60.9826 119.807 61.0806C119.493 61.1786 119.153 61.1512 118.859 61.0041C115.864 59.4327 112.281 61.0686 109.199 64.1203C106.01 67.3627 103.698 71.3636 102.481 75.7462C101.771 78.4449 101.673 81.0259 102.455 83.011C102.438 82.7809 102.483 82.5505 102.587 82.3443C102.69 82.138 102.848 81.9636 103.042 81.8395C103.237 81.7154 103.461 81.6462 103.692 81.6393C103.923 81.6324 104.151 81.688 104.352 81.8002L112.323 86.3967C112.52 86.5138 112.683 86.6815 112.794 86.8825C112.927 87.1269 112.977 87.4082 112.936 87.6836C112.895 87.9589 112.765 88.2134 112.566 88.4083C112.368 88.6033 112.111 88.728 111.834 88.7636C111.558 88.7993 111.278 88.7438 111.036 88.6057L103.066 84.0054C102.979 83.9559 102.899 83.896 102.826 83.8271C103.256 84.5776 103.861 85.2121 104.591 85.6755C104.873 85.8534 105.074 86.1347 105.15 86.4588C105.226 86.783 105.172 87.1242 105 87.4091C104.827 87.694 104.55 87.8998 104.227 87.9823C103.905 88.0648 103.562 88.0175 103.274 87.8504C101.088 86.5789 97.1368 84.6203 95.3036 83.2349C92.9237 81.7926 91.7357 79.3862 91.4701 76.5205C91.2044 73.6548 91.8496 70.4172 93.1553 67.2403C94.4375 64.0691 96.2626 61.1458 98.5488 58.6015C101.741 55.1057 105.662 52.8473 109.556 53.3332C111.553 53.5799 115.375 55.918 118.153 57.6184H118.161ZM114.107 58.146C112.164 57.0073 110.239 55.9825 109.256 55.8686C106.265 55.4891 103.104 57.3869 100.435 60.3209C98.3508 62.6443 96.6875 65.3134 95.5199 68.2081C94.3813 71.0321 93.7853 73.9015 94.0017 76.3004C94.1915 78.369 94.9961 80.096 96.5978 81.0601L99.7179 82.8592C99.1258 80.559 99.2927 77.8642 100.018 75.1085C101.349 70.2822 103.895 65.8774 107.412 62.3136C109.48 60.264 111.78 58.7571 114.107 58.146Z" fill="#414141"/>
<path fill-rule="evenodd" clip-rule="evenodd" d="M124.884 86.1896C121.373 84.1627 116.655 84.6334 111.686 87.5028C106.54 90.4748 101.879 95.5761 98.5042 101.418C95.4108 106.777 93.3991 112.763 93.0879 118.3L130.285 96.8134C129.993 91.6362 127.977 87.9773 124.884 86.1896Z" fill="white"/>
<path fill-rule="evenodd" clip-rule="evenodd" d="M124.246 87.2922C122.635 86.403 120.784 86.0469 118.959 86.275C116.608 86.5764 114.347 87.3705 112.324 88.6054C109.795 90.1105 107.494 91.9703 105.492 94.1281C101.162 98.762 97.8987 104.287 95.9309 110.316C95.3363 112.158 94.8944 114.046 94.6099 115.96L128.972 96.1359C128.825 94.3214 128.341 92.5502 127.544 90.9132C126.821 89.4158 125.674 88.1634 124.246 87.3112V87.2922ZM118.708 83.7471C121.064 83.46 123.451 83.9306 125.521 85.0907C127.376 86.1883 128.87 87.8046 129.818 89.7404C130.878 91.9293 131.475 94.3132 131.572 96.7432C131.586 96.9779 131.534 97.2119 131.423 97.419C131.312 97.6261 131.145 97.7982 130.941 97.9161L93.7256 119.403C93.5111 119.529 93.2641 119.588 93.0158 119.574C92.849 119.565 92.6858 119.523 92.5353 119.45C92.3848 119.378 92.25 119.277 92.1386 119.152C92.0272 119.028 91.9415 118.883 91.8862 118.725C91.8309 118.568 91.8072 118.401 91.8164 118.234C92.0103 115.278 92.5751 112.357 93.4978 109.542C94.4885 106.493 95.7976 103.557 97.4035 100.782C99.1496 97.7472 101.242 94.9259 103.64 92.3745C105.81 90.0392 108.305 88.0284 111.049 86.404C113.385 84.9869 115.996 84.0814 118.708 83.7471Z" fill="#414141"/>
<path fill-rule="evenodd" clip-rule="evenodd" d="M111.688 85.9821C114.725 84.2323 117.454 81.2338 119.435 77.7988C121.417 74.3827 122.646 70.4884 122.646 66.9889C122.646 63.4894 121.417 61.0298 119.432 59.8835C117.446 58.7372 114.702 58.9043 111.677 60.6426C108.652 62.381 105.912 65.3909 103.949 68.8336C101.987 72.2762 100.734 76.1477 100.734 79.6472C100.734 83.1468 101.964 85.6025 103.949 86.7488C105.934 87.8951 108.656 87.7281 111.688 85.9821Z" fill="white"/>
<path fill-rule="evenodd" clip-rule="evenodd" d="M111.065 84.8734C112.507 84.0104 113.818 82.9457 114.959 81.7116C116.257 80.3286 117.39 78.8003 118.337 77.1569L118.398 77.0658C119.323 75.4485 120.062 73.7322 120.603 71.9493C121.091 70.3378 121.347 68.6647 121.362 66.9809C121.395 65.6643 121.151 64.3556 120.645 63.1397C120.29 62.2288 119.635 61.4661 118.788 60.9775C117.942 60.489 116.954 60.3037 115.987 60.4524C114.682 60.6187 113.427 61.0612 112.306 61.7505L112.234 61.7885C110.811 62.6418 109.517 63.6922 108.389 64.9085L108.328 64.9692C105.758 67.7458 103.849 71.0675 102.745 74.6859C102.248 76.2949 101.986 77.9669 101.966 79.6506C101.934 80.9671 102.178 82.2759 102.684 83.4917C103.061 84.3908 103.713 85.147 104.548 85.6514L104.601 85.6856C105.444 86.1281 106.403 86.3016 107.349 86.1828C108.653 86.0136 109.908 85.5713 111.03 84.8847L111.065 84.8734ZM116.807 83.469C115.497 84.8782 113.991 86.0925 112.336 87.0748C110.899 87.9437 109.293 88.4974 107.626 88.6993C106.161 88.8726 104.679 88.5889 103.382 87.8871L103.303 87.8415C102.006 87.0734 100.988 85.9129 100.395 84.5279C99.7363 82.984 99.4142 81.3174 99.45 79.6392C99.4707 77.7089 99.7686 75.7915 100.334 73.9458C100.941 71.9314 101.782 69.9951 102.839 68.1765C103.87 66.3865 105.102 64.7196 106.51 63.208L106.578 63.1321C107.874 61.7415 109.36 60.5416 110.992 59.5681L111.061 59.5263C112.497 58.6576 114.101 58.1027 115.767 57.898C117.261 57.7056 118.777 58.0102 120.08 58.7648C121.383 59.5194 122.402 60.682 122.979 62.0732C123.636 63.6162 123.958 65.2812 123.924 66.9581C123.903 68.8884 123.605 70.8058 123.04 72.6515C122.445 74.6236 121.626 76.5212 120.599 78.307L120.47 78.5271C119.443 80.3094 118.214 81.9675 116.807 83.469Z" fill="#414141"/>
<path fill-rule="evenodd" clip-rule="evenodd" d="M87.4121 76.2229L79.0391 71.3911L74.3059 72.3817L82.6562 77.2136L87.3931 76.2229H87.4121ZM63.0519 111.199L54.6826 106.383L56.2008 110.979L64.5512 115.811L63.0329 111.215L63.0519 111.199ZM39.7432 94.0812L44.4801 89.5986L45.5201 86.099L43.2427 82.3034L47.7746 74.4997L52.1927 74.5794L54.7016 71.9225L56.2198 65.58L62.6117 61.8869L67.7926 64.8816L71.0531 61.0557L79.4223 65.8875L74.9815 71.0836L72.4726 71.3341L67.7357 68.5975L64.5664 70.4308L63.0481 76.7694L60.5392 79.4264L56.125 79.3467L51.6082 87.1656L53.8856 90.9612L52.8456 94.4608L48.1124 98.9396V102.587L52.8456 105.32L53.8856 107.62L51.6082 114.031L43.2389 109.203L44.9203 104.466L39.7432 101.448V94.0812Z" fill="#2B7CFF"/>
<path fill-rule="evenodd" clip-rule="evenodd" d="M83.8912 75.6579L78.828 72.7353L77.8259 72.944L82.8892 75.8666L83.8912 75.6579ZM79.6554 70.2909L87.9601 75.0847C88.1969 75.2024 88.3911 75.391 88.5157 75.6243C88.6403 75.8575 88.6891 76.1238 88.6553 76.386C88.6215 76.6483 88.5068 76.8935 88.3271 77.0875C88.1474 77.2815 87.9117 77.4146 87.6527 77.4684L82.9158 78.459C82.6097 78.5231 82.2906 78.4717 82.02 78.3148L73.6507 73.483C73.4963 73.3926 73.3626 73.271 73.258 73.1259C73.1534 72.9808 73.0804 72.8154 73.0435 72.6404V72.5417L72.5955 72.5872C72.3317 72.6118 72.0668 72.5548 71.8364 72.424L67.7334 70.0556L65.6761 71.2398L64.2908 77.0547C64.2335 77.2702 64.1239 77.4684 63.9719 77.6316L61.5124 80.2316C61.3908 80.375 61.2388 80.4897 61.0675 80.5671C60.8961 80.6446 60.7098 80.683 60.5218 80.6795L56.8514 80.6149L53.0862 87.1358L54.984 90.2747C55.0754 90.4265 55.1342 90.5958 55.1564 90.7716C55.1786 90.9475 55.1639 91.126 55.113 91.2958L54.0693 94.7953C54.007 95.0083 53.889 95.2009 53.7276 95.3533L49.393 99.4563V101.829L53.4391 104.167C53.6926 104.298 53.8946 104.51 54.0123 104.77L54.1944 105.18C54.3767 105.103 54.5747 105.069 54.7724 105.081C54.9701 105.094 55.1621 105.152 55.3331 105.252L63.6569 110.061C63.9492 110.215 64.1698 110.476 64.2718 110.79L65.79 115.39C65.8684 115.635 65.871 115.898 65.7973 116.144C65.7237 116.391 65.5774 116.609 65.3776 116.771C65.1777 116.932 64.9336 117.03 64.6774 117.05C64.4211 117.071 64.1647 117.013 63.9416 116.886L55.6406 112.088C55.4884 112.011 55.3533 111.904 55.2431 111.773C55.133 111.643 55.05 111.492 54.9992 111.329L54.4829 109.754L52.8243 114.411L52.7256 114.62C52.5579 114.911 52.2816 115.124 51.9573 115.212C51.633 115.3 51.2869 115.257 50.9948 115.09L42.7051 110.304C42.4232 110.167 42.2014 109.932 42.0818 109.642C41.9621 109.352 41.953 109.029 42.0561 108.733L43.3808 104.994L39.2056 102.576C38.9915 102.473 38.8108 102.311 38.684 102.11C38.5572 101.908 38.4894 101.676 38.4883 101.438V94.0817C38.4911 93.9087 38.5284 93.7379 38.5982 93.5795C38.6679 93.4211 38.7687 93.2783 38.8944 93.1594L43.3543 88.9235L44.1399 86.2666L42.1472 82.9606C42.0317 82.7645 41.9709 82.5411 41.9709 82.3135C41.9709 82.0859 42.0317 81.8624 42.1472 81.6663L46.6602 73.8512C46.7761 73.6534 46.9428 73.4904 47.143 73.3789C47.3433 73.2674 47.5698 73.2116 47.7989 73.2173L51.6552 73.2894L53.553 71.2929L54.9878 65.2807C55.0294 65.113 55.1042 64.9554 55.2078 64.8171C55.3115 64.6789 55.442 64.5629 55.5913 64.476L61.983 60.7791C62.1769 60.6672 62.3969 60.6083 62.6208 60.6083C62.8446 60.6083 63.0645 60.6672 63.2584 60.7791L67.5208 63.2425L70.0829 60.2363C70.2752 60.0055 70.5429 59.8499 70.8388 59.7972C71.1346 59.7444 71.4395 59.7978 71.6998 59.9479L80.0349 64.7911L80.2247 64.9277C80.4807 65.1468 80.6393 65.4585 80.6656 65.7944C80.692 66.1303 80.5839 66.4629 80.3652 66.7192L77.154 70.4845L78.7786 70.1467C79.0836 70.0867 79.4 70.1379 79.6706 70.2909H79.6554ZM61.9792 112.043L56.9235 109.124L57.2385 110.092L62.2981 113.014L61.9792 112.043ZM41.0009 94.5827V100.697L45.5556 103.32C45.8095 103.47 46.004 103.703 46.1063 103.98C46.2086 104.256 46.2125 104.559 46.1174 104.838L44.7889 108.581L50.9189 112.118L52.513 107.624L51.8526 106.163L47.4724 103.635C47.2798 103.523 47.12 103.363 47.0087 103.169C46.8975 102.976 46.8389 102.757 46.8386 102.535V98.8718C46.8387 98.6827 46.881 98.4959 46.9624 98.3252C47.0438 98.1545 47.1623 98.0041 47.3093 97.8849L51.7235 93.7098L52.5092 91.0528L50.5203 87.7507C50.3966 87.5463 50.3327 87.3112 50.3361 87.0723C50.3395 86.8334 50.4099 86.6003 50.5393 86.3994L55.0257 78.6374C55.1452 78.4309 55.3202 78.2619 55.5309 78.1499C55.7416 78.0378 55.9795 77.9871 56.2175 78.0036L60.0131 78.0757L61.9109 76.0868L63.3457 70.067C63.3901 69.8797 63.4763 69.7048 63.5979 69.5556C63.7195 69.4064 63.8733 69.2867 64.0478 69.2054L67.1223 67.429C67.315 67.3199 67.5328 67.2626 67.7543 67.2626C67.9758 67.2626 68.1935 67.3199 68.3863 67.429L72.7702 69.9607L74.3681 69.8013L77.4615 66.1727L71.305 62.6921L68.7316 65.7286C68.537 65.9529 68.2706 66.1028 67.9778 66.1527C67.685 66.2025 67.384 66.1492 67.1261 66.0019L62.5714 63.3791L57.2955 66.4156L55.9063 72.2229C55.8501 72.4733 55.7175 72.7002 55.5267 72.8719L53.0748 75.4605C52.947 75.5907 52.7928 75.6919 52.6225 75.7574C52.4523 75.8229 52.27 75.8511 52.088 75.8401L48.4669 75.7755L44.7358 82.3002L46.6336 85.443C46.7298 85.6043 46.7896 85.7847 46.8086 85.9716C46.8276 86.1585 46.8054 86.3473 46.7437 86.5247L45.7227 89.9597C45.6498 90.2067 45.5027 90.4253 45.3014 90.586L41.0009 94.5827Z" fill="#414141"/>
<path fill-rule="evenodd" clip-rule="evenodd" d="M81.6367 91.5802L82.6767 88.0807L87.4136 83.6019V76.2232L82.6957 77.2139L81.6557 74.9138L83.9331 68.4992L79.4202 65.8916L74.983 71.084L72.4742 71.3345L70.956 66.738L64.5641 70.4312L63.0459 76.7698L60.5332 79.4267L56.1151 79.3432L51.6022 87.1621L53.8795 90.9578L52.8396 94.4611L48.1064 98.9399V106.322L52.8396 105.335L53.8795 107.636L51.6022 114.05C53.1204 114.916 54.6247 115.784 56.1151 116.654L60.5332 111.473L63.0459 111.226L64.5641 115.823L70.956 112.13L72.4742 105.787L74.9868 103.13L79.4012 103.21L83.9141 95.391L81.6367 91.5802Z" fill="white"/>
<path fill-rule="evenodd" clip-rule="evenodd" d="M80.4172 91.2009L81.4496 87.7317C81.5248 87.4817 81.6745 87.2606 81.8786 87.0978L86.1297 83.0783V77.791L82.93 78.459C82.6467 78.5177 82.3517 78.4783 82.0938 78.3472C81.8358 78.2162 81.6301 78.0013 81.5103 77.7379L80.4665 75.4377C80.3314 75.1383 80.3179 74.7981 80.4286 74.4888L82.353 69.0725L79.6733 67.5239L75.9422 71.9002C75.8334 72.0281 75.7001 72.1329 75.5501 72.2085C75.4002 72.2841 75.2367 72.329 75.0692 72.3405L72.5907 72.5873C72.303 72.6148 72.0145 72.5437 71.7724 72.3858C71.5304 72.2279 71.3492 71.9924 71.2585 71.718L70.2298 68.6094L65.6751 71.2398L64.2897 77.0547C64.2317 77.3033 64.0993 77.5284 63.9102 77.6999L61.4582 80.2885C61.3304 80.4187 61.1762 80.5199 61.0059 80.5854C60.8357 80.6509 60.6534 80.6791 60.4713 80.6681L56.8465 80.5998L53.0889 87.132L54.9867 90.2748C55.0829 90.4361 55.1426 90.6166 55.1617 90.8034C55.1807 90.9903 55.1585 91.1791 55.0968 91.3565L54.072 94.7915C54.001 95.0395 53.8552 95.2596 53.6544 95.4216L49.392 99.4525V104.732L52.5955 104.064C52.8788 104.006 53.1736 104.045 53.4316 104.176C53.6895 104.307 53.8953 104.522 54.015 104.785L55.055 107.085C55.1892 107.384 55.2042 107.722 55.0968 108.031L53.1686 113.451L55.8483 114.999L59.5794 110.619C59.8018 110.362 60.1171 110.204 60.4561 110.179L62.9347 109.936C63.223 109.908 63.5122 109.979 63.7545 110.138C63.9968 110.297 64.1775 110.533 64.2669 110.809L65.2917 113.914L69.8465 111.28L71.2319 105.469C71.2906 105.22 71.4229 104.995 71.6115 104.823L74.0634 102.235C74.1913 102.105 74.3456 102.004 74.5158 101.938C74.686 101.873 74.8683 101.844 75.0503 101.855L78.675 101.923L82.4403 95.4064L80.5425 92.2598C80.4455 92.1032 80.3839 91.9272 80.3623 91.7443C80.3407 91.5613 80.3594 91.3758 80.4172 91.2009ZM83.7953 88.7755L83.0097 91.4324L84.9986 94.7346C85.1122 94.9306 85.172 95.1532 85.172 95.3798C85.172 95.6065 85.1122 95.829 84.9986 96.0251L80.5083 103.806C80.3986 104.012 80.2343 104.184 80.0335 104.303C79.8327 104.422 79.6031 104.484 79.3697 104.482L75.5134 104.41L73.6156 106.402L72.1808 112.415C72.139 112.583 72.0637 112.742 71.9593 112.881C71.855 113.019 71.7238 113.136 71.5735 113.223L65.269 116.863C65.167 116.932 65.0558 116.987 64.9388 117.026C64.7798 117.078 64.6122 117.097 64.4456 117.084C64.279 117.07 64.1168 117.024 63.968 116.948C63.8192 116.872 63.6869 116.767 63.5786 116.64C63.4704 116.513 63.3883 116.365 63.337 116.206L62.1453 112.585L61.1622 112.68L57.0857 117.459C56.8938 117.69 56.626 117.846 56.33 117.899C56.034 117.952 55.7289 117.898 55.4688 117.747L51.0051 115.17C50.7348 115.022 50.5277 114.78 50.4223 114.49C50.3168 114.201 50.3203 113.882 50.432 113.595L52.5386 107.662L52.1286 106.759L48.4811 107.518C48.3691 107.552 48.2526 107.568 48.1356 107.568C47.968 107.568 47.802 107.535 47.647 107.471C47.492 107.408 47.3513 107.314 47.2328 107.195C47.1143 107.077 47.0203 106.936 46.9564 106.781C46.8924 106.626 46.8599 106.46 46.8604 106.292V98.9135C46.8633 98.7409 46.9003 98.5705 46.9693 98.4122C47.0384 98.2539 47.1381 98.1108 47.2626 97.9912L51.7453 93.7515L52.531 91.0946L50.5421 87.7924C50.4284 87.5964 50.3686 87.3738 50.3686 87.1472C50.3686 86.9206 50.4284 86.698 50.5421 86.5019L55.036 78.7171C55.146 78.5115 55.3104 78.3401 55.5112 78.2216C55.712 78.1031 55.9415 78.0421 56.1747 78.0453L60.0311 78.1174L61.9289 76.121L63.3636 70.1087C63.4055 69.9406 63.4808 69.7827 63.5852 69.6444C63.6896 69.5062 63.8207 69.3904 63.9709 69.304L70.2564 65.6717C70.3613 65.5983 70.4764 65.5408 70.598 65.5008C70.9191 65.3953 71.269 65.4216 71.5708 65.5739C71.8726 65.7262 72.1016 65.9921 72.2074 66.3131L73.403 69.9417L74.3861 69.843L78.4588 65.0644C78.6515 64.8341 78.9191 64.6791 79.2147 64.6263C79.5103 64.5736 79.8152 64.6265 80.0757 64.7759L84.5393 67.3569C84.8119 67.4979 85.0242 67.7327 85.1372 68.018C85.2502 68.3033 85.2563 68.6199 85.1542 68.9093L83.0438 74.838L83.4537 75.7452L87.1013 74.9861C87.215 74.954 87.3324 74.9374 87.4505 74.9367C87.7884 74.9377 88.1123 75.0724 88.3512 75.3114C88.5902 75.5503 88.7248 75.8741 88.7258 76.212V83.6097C88.7229 83.7822 88.6855 83.9523 88.6158 84.1101C88.546 84.2678 88.4454 84.41 88.3197 84.5282L83.7953 88.7755Z" fill="#414141"/>
<path fill-rule="evenodd" clip-rule="evenodd" d="M71.4204 93.3717C73.4397 89.8721 73.4397 86.0917 71.4204 84.9227C69.4012 83.7536 66.1066 85.6476 64.1025 89.1472C62.0984 92.6467 62.0832 96.4309 64.1025 97.5962C66.1218 98.7614 69.4088 96.8712 71.4204 93.3717Z" fill="#2B7CFF"/>
<path fill-rule="evenodd" clip-rule="evenodd" d="M72.484 94.0779C71.5152 95.7921 70.1368 97.2396 68.472 98.291L68.3999 98.3365C66.6843 99.3272 64.9004 99.5246 63.4656 98.7161C62.0309 97.9076 61.3135 96.249 61.3135 94.2677C61.3748 92.2746 61.9417 90.3299 62.9608 88.616L63.0026 88.5287C63.972 86.7855 65.3648 85.3144 67.0525 84.2511L67.1246 84.2055C68.825 83.2225 70.59 83.0175 72.0134 83.826L72.0589 83.8487C73.4898 84.68 74.2071 86.3197 74.2071 88.301C74.1502 90.282 73.5913 92.2162 72.5827 93.9223L72.484 94.1045V94.0779ZM70.3774 92.6393C71.1631 91.3144 71.6042 89.8137 71.6603 88.2744C71.6603 87.2344 71.3908 86.4184 70.8405 86.0616L70.7304 85.997C70.1459 85.6972 69.2995 85.868 68.3999 86.3766L68.3353 86.4108C67.0533 87.2347 65.9947 88.3625 65.2534 89.694L65.1509 89.8686C64.3614 91.1934 63.9188 92.696 63.8641 94.2373C63.8641 95.3115 64.1602 96.1351 64.7409 96.4843C65.3216 96.8335 66.1946 96.6589 67.1246 96.1047L67.1891 96.0668C68.4719 95.2455 69.531 94.1187 70.2711 92.7874L70.3774 92.6393Z" fill="#414141"/>
<path fill-rule="evenodd" clip-rule="evenodd" d="M65.2043 69.3199C65.3488 69.4036 65.4755 69.515 65.577 69.6477C65.6785 69.7804 65.7529 69.9318 65.7959 70.0932C65.8389 70.2546 65.8497 70.4229 65.8276 70.5885C65.8056 70.7541 65.7511 70.9137 65.6673 71.0583C65.5836 71.2028 65.4723 71.3295 65.3396 71.431C65.2069 71.5325 65.0556 71.6068 64.8941 71.6498C64.7327 71.6928 64.5643 71.7036 64.3987 71.6816C64.2331 71.6595 64.0736 71.6051 63.929 71.5213L55.5787 66.6857C55.427 66.6059 55.2931 66.4962 55.1849 66.3633C55.0767 66.2304 54.9964 66.077 54.949 65.9122C54.9016 65.7475 54.888 65.5749 54.909 65.4048C54.93 65.2347 54.9852 65.0706 55.0712 64.9224C55.1573 64.7741 55.2724 64.6448 55.4097 64.5422C55.5469 64.4396 55.7035 64.3658 55.87 64.3252C56.0365 64.2846 56.2096 64.2781 56.3787 64.3061C56.5478 64.3341 56.7094 64.396 56.854 64.4881L65.2043 69.3199Z" fill="#414141"/>
<path fill-rule="evenodd" clip-rule="evenodd" d="M56.7652 78.2316C57.0572 78.4007 57.27 78.6788 57.3568 79.0048C57.4436 79.3309 57.3974 79.678 57.2283 79.9699C57.0592 80.2619 56.781 80.4747 56.455 80.5615C56.129 80.6484 55.7819 80.6021 55.49 80.433L47.1168 75.5974C46.9723 75.5137 46.8456 75.4023 46.7441 75.2696C46.6426 75.1369 46.5683 74.9856 46.5253 74.8241C46.4823 74.6627 46.4715 74.4944 46.4936 74.3288C46.5156 74.1632 46.57 74.0036 46.6538 73.859C46.7375 73.7145 46.8489 73.5879 46.9815 73.4864C47.1142 73.3849 47.2657 73.3105 47.4271 73.2675C47.5885 73.2245 47.7568 73.2137 47.9224 73.2357C48.088 73.2578 48.2476 73.3122 48.3921 73.396L56.7652 78.2316Z" fill="#414141"/>
<path fill-rule="evenodd" clip-rule="evenodd" d="M52.2468 86.0489C52.5387 86.2166 52.7521 86.4933 52.84 86.8182C52.9279 87.1432 52.8831 87.4897 52.7155 87.7816C52.5479 88.0736 52.2712 88.287 51.9463 88.3749C51.6213 88.4628 51.2747 88.418 50.9828 88.2504L42.6097 83.4148C42.4628 83.3331 42.3337 83.2231 42.2298 83.0911C42.1258 82.9591 42.0492 82.8077 42.0042 82.6458C41.9593 82.4839 41.9469 82.3147 41.968 82.148C41.989 81.9813 42.043 81.8204 42.1268 81.6748C42.2106 81.5291 42.3225 81.4016 42.456 81.2995C42.5895 81.1975 42.7419 81.123 42.9045 81.0804C43.067 81.0379 43.2364 81.028 43.4028 81.0515C43.5692 81.075 43.7292 81.1313 43.8737 81.2172L52.2468 86.0489Z" fill="#414141"/>
<path fill-rule="evenodd" clip-rule="evenodd" d="M48.7452 97.8118C49.0371 97.9795 49.2505 98.2562 49.3384 98.5811C49.4263 98.9061 49.3815 99.2526 49.2139 99.5445C49.0463 99.8365 48.7696 100.05 48.4446 100.138C48.1197 100.226 47.7731 100.181 47.4812 100.013L39.1119 95.1815C38.9673 95.0985 38.8406 94.9879 38.7388 94.8559C38.637 94.7239 38.5622 94.5731 38.5186 94.4122C38.4751 94.2513 38.4637 94.0834 38.4851 93.9181C38.5064 93.7528 38.5602 93.5933 38.6432 93.4488C38.7262 93.3043 38.8368 93.1775 38.9688 93.0757C39.1008 92.9739 39.2515 92.8991 39.4124 92.8556C39.5733 92.812 39.7412 92.8006 39.9065 92.822C40.0718 92.8433 40.2313 92.8971 40.3758 92.98L48.7452 97.8118Z" fill="#414141"/>
<path fill-rule="evenodd" clip-rule="evenodd" d="M48.7526 105.195C49.0446 105.364 49.2574 105.642 49.3442 105.968C49.4311 106.294 49.3848 106.641 49.2157 106.933C49.0466 107.225 48.7684 107.438 48.4424 107.525C48.1164 107.611 47.7692 107.565 47.4773 107.396L39.5065 102.803C39.2146 102.634 39.0018 102.356 38.9149 102.03C38.8281 101.704 38.8743 101.357 39.0435 101.065C39.2126 100.773 39.4907 100.56 39.8168 100.474C40.1428 100.387 40.4899 100.433 40.7819 100.602L48.7526 105.195Z" fill="#414141"/>
<path fill-rule="evenodd" clip-rule="evenodd" d="M71.5953 65.6255C71.8872 65.7946 72.1 66.0728 72.1869 66.3988C72.2737 66.7248 72.2274 67.072 72.0583 67.3639C71.8892 67.6558 71.611 67.8686 71.285 67.9555C70.959 68.0423 70.6118 67.9961 70.3199 67.827L62.4137 63.2722C62.1218 63.1031 61.909 62.825 61.8222 62.499C61.7353 62.1729 61.7816 61.8258 61.9507 61.5339C62.1198 61.2419 62.398 61.0291 62.724 60.9423C63.05 60.8554 63.3971 60.9017 63.689 61.0708L71.5953 65.6255Z" fill="#414141"/>
<path fill-rule="evenodd" clip-rule="evenodd" d="M30.4034 49.1711C30.4954 49.0188 30.6183 48.8874 30.7641 48.7854C30.91 48.6834 31.0755 48.6131 31.2502 48.579C31.4248 48.5448 31.6047 48.5476 31.7783 48.5871C31.9518 48.6267 32.1151 48.7021 32.2577 48.8085C32.4003 48.9149 32.519 49.05 32.6063 49.2051C32.6936 49.3602 32.7474 49.5319 32.7644 49.709C32.7814 49.8862 32.7611 50.0649 32.7048 50.2337C32.6486 50.4026 32.5577 50.5577 32.4379 50.6893C30.7944 52.8604 29.2115 55.096 27.7085 57.3696C26.2054 59.6431 24.7479 61.9888 23.3777 64.3649C19.3164 71.3929 15.9198 78.7846 13.2321 86.4439C10.7099 93.5523 8.95897 100.911 8.00932 108.394C7.95894 108.72 7.78402 109.014 7.52134 109.214C7.25865 109.414 6.92867 109.504 6.60079 109.466C6.27291 109.428 5.97264 109.264 5.76318 109.008C5.55372 108.753 5.45142 108.427 5.47768 108.098C6.4504 100.431 8.2459 92.8912 10.8332 85.6089C13.5797 77.8015 17.0488 70.2675 21.1952 63.1047C22.592 60.6869 24.0648 58.3033 25.6058 55.9804C27.1468 53.6575 28.7637 51.3649 30.4224 49.1711H30.4034ZM38.8106 158.716C38.4739 158.736 38.1431 158.621 37.8912 158.396C37.6392 158.172 37.4867 157.857 37.467 157.52C37.4474 157.184 37.5623 156.853 37.7865 156.601C38.0108 156.349 38.3259 156.196 38.6626 156.177C46.603 155.706 55.2494 152.461 63.8047 146.946C72.4245 141.389 80.9304 133.544 88.533 123.914C88.6331 123.774 88.7607 123.656 88.9078 123.566C89.055 123.477 89.2188 123.419 89.3892 123.394C89.5597 123.37 89.7333 123.381 89.8994 123.426C90.0656 123.471 90.221 123.549 90.356 123.656C90.4911 123.763 90.6031 123.896 90.6852 124.047C90.7673 124.198 90.8177 124.365 90.8336 124.536C90.8495 124.708 90.8304 124.881 90.7775 125.044C90.7245 125.208 90.6388 125.36 90.5257 125.489C82.7409 135.358 74.0187 143.389 65.1787 149.09C56.2667 154.837 47.1989 158.223 38.8106 158.716ZM117.611 50.0706C117.631 50.4074 117.516 50.7381 117.292 50.9901C117.067 51.242 116.752 51.3946 116.416 51.4143C116.079 51.4339 115.748 51.319 115.496 51.0947C115.244 50.8705 115.092 50.5554 115.072 50.2187C114.94 48.0289 114.687 45.8481 114.313 43.6864C112.741 34.6567 109.113 27.5551 103.882 22.8524C98.6521 18.1496 91.8922 15.8684 83.9328 16.3505C82.533 16.4377 81.1391 16.6024 79.7576 16.8439C79.4249 16.9008 79.0833 16.8232 78.8078 16.6281C78.5323 16.4331 78.3455 16.1366 78.2887 15.8039C78.2318 15.4712 78.3094 15.1296 78.5045 14.8541C78.6995 14.5786 78.996 14.3919 79.3287 14.335C80.807 14.0779 82.2984 13.9031 83.7961 13.8112C92.4652 13.2836 99.9009 15.8381 105.598 20.9584C111.295 26.0786 115.163 33.6433 116.833 43.2613C117.221 45.5146 117.48 47.788 117.611 50.0706Z" fill="#414141"/>
</svg>
