<svg width="158" height="80" viewBox="0 0 158 80" fill="none" xmlns="http://www.w3.org/2000/svg">
<path d="M68.3402 32.974C68.3402 39.6158 54.7301 45 37.9411 45C21.1521 45 7.54199 39.6158 7.54199 32.974C7.54199 29.26 11.7979 25.9391 18.4857 23.7331C23.7575 21.9942 30.5405 20.948 37.9411 20.948C54.7301 20.948 68.3402 26.3322 68.3402 32.974Z" fill="#E8E8E8"/>
<path fill-rule="evenodd" clip-rule="evenodd" d="M6.08162 7.62231V17.0222L9.21973 20.53V11.1302L6.08162 7.62231Z" fill="#2B7CFF"/>
<path fill-rule="evenodd" clip-rule="evenodd" d="M5.80939 7.62223V17.0221C5.80964 17.0594 5.81748 17.0963 5.83245 17.1305C5.84742 17.1647 5.8692 17.1955 5.89646 17.221L9.01748 20.718C9.04115 20.7446 9.06982 20.7662 9.10186 20.7817C9.13391 20.7972 9.1687 20.8062 9.20424 20.8082C9.23977 20.8102 9.27537 20.8052 9.30896 20.7935C9.34256 20.7817 9.3735 20.7635 9.40002 20.7397C9.42831 20.7142 9.45095 20.683 9.46648 20.6482C9.48201 20.6134 9.4901 20.5758 9.49023 20.5377V11.1378C9.49045 11.1006 9.48297 11.0637 9.46825 11.0295C9.45353 10.9952 9.43189 10.9644 9.40469 10.9389L6.28369 7.44972C6.24676 7.41094 6.19915 7.38399 6.14688 7.37228C6.09462 7.36056 6.04004 7.36462 5.99008 7.38392C5.94013 7.40323 5.89702 7.43691 5.86624 7.48072C5.83546 7.52453 5.81839 7.57649 5.81717 7.63001L5.80939 7.62223ZM6.35366 16.9195V8.33252L8.94751 11.2373V19.8243L6.35366 16.9195Z" fill="#3C3C3C"/>
<path fill-rule="evenodd" clip-rule="evenodd" d="M1.27235 19.3955V28.7953L7.78809 29.9952V20.5953L1.27235 19.3955Z" fill="#2B7CFF"/>
<path fill-rule="evenodd" clip-rule="evenodd" d="M1.00015 19.3956V28.8C1.00022 28.8675 1.02541 28.9326 1.07082 28.9826C1.11623 29.0326 1.17863 29.0639 1.24586 29.0705L7.73826 30.2672C7.77742 30.2742 7.81764 30.2726 7.8561 30.2624C7.89457 30.2523 7.93033 30.2338 7.96087 30.2083C7.99141 30.1828 8.01601 30.1509 8.03289 30.1149C8.04977 30.0789 8.05854 30.0396 8.05859 29.9999V20.6001C8.05818 20.5327 8.03289 20.4678 7.98754 20.4179C7.9422 20.368 7.88 20.3365 7.8129 20.3296L1.3205 19.1329C1.25052 19.1215 1.17885 19.1379 1.12077 19.1786C1.06268 19.2192 1.02275 19.2809 1.00949 19.3505C1.00803 19.367 1.00803 19.3837 1.00949 19.4002L1.00015 19.3956ZM1.54442 28.5653V19.7157L7.51588 20.8161V29.6657L1.54442 28.5653Z" fill="#3C3C3C"/>
<path fill-rule="evenodd" clip-rule="evenodd" d="M7.7875 20.5955V29.9953L9.21973 31.9909V22.5895L7.7875 20.5955Z" fill="#4B7BE7"/>
<path fill-rule="evenodd" clip-rule="evenodd" d="M7.51525 20.5953V29.9952C7.51501 30.0601 7.5382 30.123 7.58057 30.1723L8.99881 32.1477C9.01952 32.1766 9.04573 32.2012 9.07593 32.22C9.10614 32.2387 9.13976 32.2514 9.17485 32.2571C9.20995 32.2629 9.24584 32.2617 9.28048 32.2536C9.31511 32.2455 9.34779 32.2306 9.37668 32.2099C9.41183 32.1852 9.4405 32.1523 9.46026 32.1142C9.48002 32.0761 9.49031 32.0337 9.49022 31.9908V22.5832C9.49094 22.5186 9.46766 22.456 9.4249 22.4075L8.00666 20.4306C7.9733 20.3845 7.92624 20.3501 7.87217 20.3322C7.81809 20.3144 7.75976 20.3141 7.70549 20.3313C7.65122 20.3485 7.60378 20.3824 7.5699 20.4281C7.53602 20.4738 7.51744 20.5291 7.5168 20.586L7.51525 20.5953ZM8.05953 29.9097V21.4393L8.94749 22.6826V31.1531L8.05953 29.9097Z" fill="#3C3C3C"/>
<path fill-rule="evenodd" clip-rule="evenodd" d="M6.08229 26.0989V35.4987L12.3057 39.0905V29.6906L6.08229 26.0989Z" fill="#2B7CFF"/>
<path fill-rule="evenodd" clip-rule="evenodd" d="M5.80987 26.0989V35.4987C5.80923 35.5505 5.82355 35.6014 5.85114 35.6452C5.87872 35.6891 5.9184 35.724 5.96538 35.7458L12.167 39.3205C12.1978 39.3382 12.2318 39.3497 12.267 39.3542C12.3023 39.3587 12.338 39.3562 12.3723 39.3468C12.4066 39.3374 12.4386 39.3213 12.4667 39.2995C12.4947 39.2776 12.5181 39.2505 12.5355 39.2195C12.5593 39.179 12.5716 39.1328 12.5713 39.0859V29.686C12.5715 29.6341 12.557 29.5832 12.5294 29.5392C12.5019 29.4952 12.4625 29.4599 12.4158 29.4373L6.21418 25.8626C6.17301 25.8389 6.12632 25.8264 6.07878 25.8264C6.03124 25.8264 5.98454 25.839 5.94339 25.8628C5.90225 25.8866 5.86809 25.9208 5.84438 25.9619C5.82067 26.0031 5.80823 26.0498 5.80831 26.0973L5.80987 26.0989ZM6.35414 35.3433V26.5683L12.0332 29.8461V38.6211L6.35414 35.3433Z" fill="#3C3C3C"/>
<path fill-rule="evenodd" clip-rule="evenodd" d="M12.3045 29.6908V39.0906L18.3848 37.28V27.8801L12.3045 29.6908Z" fill="white"/>
<path fill-rule="evenodd" clip-rule="evenodd" d="M12.0326 29.6906V39.0904C12.0331 39.1624 12.0618 39.2314 12.1128 39.2823C12.1637 39.3332 12.2327 39.362 12.3048 39.3624C12.3367 39.3623 12.3682 39.3565 12.3981 39.3453L18.4628 37.5393C18.519 37.5229 18.5682 37.4887 18.6033 37.4419C18.6383 37.3951 18.6572 37.3382 18.6572 37.2798V27.8799C18.6572 27.8078 18.6286 27.7386 18.5775 27.6876C18.5265 27.6366 18.4573 27.6079 18.3851 27.6079C18.3538 27.6074 18.3227 27.6127 18.2933 27.6235L12.2286 29.4295C12.1726 29.4465 12.1237 29.4811 12.0889 29.5281C12.0542 29.5752 12.0356 29.6321 12.0358 29.6906H12.0326ZM12.5769 38.7252V29.888L18.113 28.239V37.0731L12.5769 38.7252Z" fill="#3C3C3C"/>
<path fill-rule="evenodd" clip-rule="evenodd" d="M18.3849 27.8799V37.2797L21.8418 38.105V28.7052L18.3849 27.8799Z" fill="#2B7CFF"/>
<path fill-rule="evenodd" clip-rule="evenodd" d="M18.1129 27.88V37.2798C18.113 37.3452 18.1366 37.4083 18.1794 37.4577C18.2223 37.5071 18.2815 37.5394 18.3462 37.5487L21.7782 38.3693C21.848 38.3857 21.9216 38.3738 21.9828 38.3363C22.0439 38.2987 22.0878 38.2385 22.1047 38.1688C22.107 38.1477 22.107 38.1263 22.1047 38.1051V28.7053C22.1043 28.6398 22.0803 28.5767 22.0372 28.5273C21.9941 28.478 21.9348 28.4457 21.8699 28.4364L18.4379 27.6158C18.3682 27.5995 18.2949 27.6114 18.234 27.6489C18.1731 27.6865 18.1295 27.7467 18.1129 27.8163C18.11 27.8374 18.11 27.8589 18.1129 27.88ZM18.6572 37.0669V28.2235L21.5698 28.9182V37.7632L18.6572 37.0669Z" fill="#3C3C3C"/>
<path fill-rule="evenodd" clip-rule="evenodd" d="M21.8422 28.7053V38.1051L23.9229 41.8648V32.4649L21.8422 28.7053Z" fill="#2B7CFF"/>
<path fill-rule="evenodd" clip-rule="evenodd" d="M21.5739 28.7053V38.1052C21.5737 38.1569 21.5882 38.2076 21.6158 38.2513L23.6887 41.9954C23.7175 42.0484 23.7631 42.0903 23.8185 42.1144C23.8738 42.1386 23.9356 42.1435 23.994 42.1285C24.0525 42.1135 24.1042 42.0794 24.141 42.0316C24.1779 41.9839 24.1977 41.9251 24.1973 41.8648V32.465C24.1976 32.413 24.1824 32.3622 24.1537 32.3189L22.0824 28.5748C22.0532 28.5222 22.0073 28.4808 21.9521 28.457C21.8968 28.4332 21.8352 28.4284 21.7769 28.4433C21.7186 28.4582 21.6669 28.492 21.6299 28.5394C21.5929 28.5869 21.5726 28.6452 21.5723 28.7053H21.5739ZM22.1181 38.0306V29.7513L23.6545 32.5271V40.8064L22.1181 38.0306Z" fill="#3C3C3C"/>
<path d="M23.9238 32.4648H32.71V41.8647H23.9238V32.4648Z" fill="white"/>
<path fill-rule="evenodd" clip-rule="evenodd" d="M23.6511 32.4649V41.8647C23.6511 41.9369 23.6797 42.006 23.7308 42.057C23.7818 42.1081 23.851 42.1367 23.9232 42.1367H32.7093C32.7815 42.1367 32.8507 42.1081 32.9017 42.057C32.9528 42.006 32.9814 41.9369 32.9814 41.8647V32.4649C32.9814 32.3927 32.9528 32.3235 32.9017 32.2725C32.8507 32.2215 32.7815 32.1929 32.7093 32.1929H23.9232C23.851 32.1929 23.7818 32.2215 23.7308 32.2725C23.6797 32.3235 23.6511 32.3927 23.6511 32.4649ZM24.1953 41.5927V32.7338H32.4372V41.5927H24.1953Z" fill="#3C3C3C"/>
<path fill-rule="evenodd" clip-rule="evenodd" d="M32.7091 32.4648V41.8646L34.7898 38.105L38.2451 37.2797V27.8799L34.7898 28.7052L32.7091 32.4648Z" fill="white"/>
<path fill-rule="evenodd" clip-rule="evenodd" d="M32.4384 32.4819V41.8647C32.438 41.925 32.4578 41.9838 32.4946 42.0315C32.5315 42.0793 32.5832 42.1134 32.6417 42.1284C32.7001 42.1434 32.7619 42.1385 32.8172 42.1143C32.8725 42.0902 32.9182 42.0483 32.9469 41.9953L34.9685 38.3413L38.3088 37.5425C38.3679 37.5284 38.4205 37.4948 38.458 37.4471C38.4956 37.3995 38.5159 37.3405 38.5156 37.2798V27.8799C38.5156 27.8082 38.4871 27.7394 38.4364 27.6887C38.3856 27.638 38.3168 27.6095 38.245 27.6095C38.2214 27.6093 38.1978 27.6125 38.1751 27.6188L34.7259 28.4426C34.6893 28.4513 34.6549 28.4675 34.6249 28.4903C34.5949 28.513 34.57 28.5418 34.5517 28.5747L32.4711 32.3343C32.4445 32.3815 32.4331 32.4358 32.4384 32.4897V32.4819ZM32.9796 40.8141V32.5301L34.9685 28.9337L37.9745 28.2156V37.0591L34.7446 37.8362C34.7042 37.843 34.6659 37.8589 34.6325 37.8826C34.5991 37.9062 34.5715 37.9372 34.5517 37.973L32.9796 40.8141Z" fill="#3C3C3C"/>
<path fill-rule="evenodd" clip-rule="evenodd" d="M38.2458 27.8799V37.2797L44.3262 39.0904V29.6905L38.2458 27.8799Z" fill="#2B7CFF"/>
<path fill-rule="evenodd" clip-rule="evenodd" d="M37.9736 27.8798V37.2796C37.9738 37.3409 37.9946 37.4003 38.0327 37.4482C38.0708 37.4962 38.1239 37.5299 38.1836 37.5439L44.2483 39.3498C44.2824 39.3601 44.3182 39.3636 44.3537 39.36C44.3891 39.3564 44.4235 39.3458 44.4548 39.329C44.4862 39.3121 44.5139 39.2891 44.5364 39.2615C44.5588 39.2339 44.5756 39.2021 44.5858 39.168C44.5931 39.1427 44.5968 39.1166 44.5967 39.0903V29.6904C44.5969 29.6293 44.5764 29.57 44.5386 29.522C44.5008 29.474 44.4478 29.4403 44.3883 29.4262L38.3235 27.6187C38.2544 27.5984 38.1801 27.6063 38.1169 27.6407C38.0536 27.6751 38.0066 27.7331 37.9861 27.8021C37.9786 27.8273 37.9749 27.8535 37.9752 27.8798H37.9736ZM38.5179 37.0776V28.2435L44.0555 29.8878V38.7204L38.5179 37.0776Z" fill="#3C3C3C"/>
<path fill-rule="evenodd" clip-rule="evenodd" d="M44.326 29.6906V39.0904L50.5463 35.4986V29.6812L55.3545 28.7953V19.3955L48.8403 20.5953L47.4081 22.5894V27.9094L44.326 29.6906Z" fill="white"/>
<path fill-rule="evenodd" clip-rule="evenodd" d="M44.0546 29.6906V39.0905C44.0546 39.1622 44.0831 39.231 44.1338 39.2817C44.1846 39.3324 44.2534 39.3609 44.3252 39.3609C44.3757 39.3606 44.4251 39.3467 44.4682 39.3205L50.6885 35.7334C50.7299 35.7097 50.7643 35.6755 50.7883 35.6343C50.8124 35.5932 50.8251 35.5464 50.8254 35.4987V29.9036L55.4112 29.0581C55.4753 29.0462 55.533 29.0118 55.5738 28.961C55.6146 28.9102 55.6358 28.8465 55.6336 28.7814V19.3925C55.6336 19.3208 55.6051 19.252 55.5544 19.2013C55.5036 19.1506 55.4348 19.1221 55.3631 19.1221H55.3148L48.7991 20.3235C48.7648 20.3294 48.732 20.3421 48.7027 20.3607C48.6733 20.3794 48.6479 20.4037 48.628 20.4323L47.1974 22.4279C47.1596 22.4794 47.1419 22.543 47.1476 22.6066V27.7494L44.193 29.4591C44.1516 29.4828 44.1172 29.5169 44.0932 29.5581C44.0691 29.5993 44.0564 29.6461 44.0561 29.6938L44.0546 29.6906ZM44.5973 38.6211V29.8461L47.5426 28.1489C47.586 28.1257 47.6222 28.0912 47.6474 28.0491C47.6726 28.0069 47.6858 27.9587 47.6857 27.9095V22.6796L49.0044 20.8426L55.0909 19.7204V28.5701L50.5252 29.4109C50.4583 29.4178 50.3963 29.4493 50.3512 29.4992C50.3061 29.5492 50.2811 29.6141 50.2811 29.6813V35.3433L44.5973 38.6211Z" fill="#3C3C3C"/>
<path fill-rule="evenodd" clip-rule="evenodd" d="M47.4126 11.1302V20.53L50.5508 17.0222V7.62231L47.4126 11.1302Z" fill="white"/>
<path fill-rule="evenodd" clip-rule="evenodd" d="M47.1405 11.1305V20.5303C47.1421 20.5867 47.1611 20.6413 47.1951 20.6863C47.2291 20.7314 47.2763 20.7648 47.3301 20.7819C47.384 20.799 47.4418 20.7989 47.4956 20.7817C47.5494 20.7644 47.5965 20.7309 47.6303 20.6857L50.7513 17.1965C50.7962 17.1472 50.8211 17.0829 50.8213 17.0162V7.61641C50.8197 7.55998 50.8006 7.50544 50.7666 7.46036C50.7326 7.41528 50.6854 7.38188 50.6316 7.3648C50.5778 7.34772 50.52 7.34781 50.4662 7.36504C50.4124 7.38228 50.3653 7.4158 50.3315 7.46099L47.2104 10.9502C47.166 10.9997 47.1416 11.064 47.142 11.1305H47.1405ZM47.6847 19.82V11.2377L50.2786 8.33756V16.9245L47.6847 19.82Z" fill="#3C3C3C"/>
<path fill-rule="evenodd" clip-rule="evenodd" d="M33.877 16.8607V26.2606C33.866 25.744 33.6714 25.2481 33.328 24.8618C32.1633 23.463 29.7716 22.9967 28.0299 23.048C26.411 23.0946 24.1951 23.6324 23.1905 25.0032C22.9164 25.3607 22.7633 25.7962 22.7535 26.2466V16.8467C22.7924 15.0796 24.9306 14.1424 26.4033 13.8316C28.4451 13.401 31.2987 13.6606 32.9346 15.0516C33.4198 15.4682 33.8194 16.0292 33.877 16.6804V16.8607Z" fill="#2B7CFF"/>
<path fill-rule="evenodd" clip-rule="evenodd" d="M33.6049 16.8606V24.787L33.5365 24.7015C32.9783 24.0332 32.1665 23.567 31.277 23.2623C30.2273 22.9198 29.126 22.762 28.0222 22.7961C26.9845 22.8241 25.9593 23.0302 24.9914 23.4053C24.2139 23.7162 23.5063 24.1715 23.0258 24.7901V16.8559C23.0476 16.2032 23.4037 15.6747 23.9091 15.2582C24.6322 14.6598 25.6508 14.293 26.4594 14.1221C27.6333 13.8861 28.8414 13.8761 30.019 14.0925C31.0562 14.2868 32.0405 14.6692 32.7512 15.2831C32.9911 15.4839 33.1955 15.7234 33.3561 15.9918C33.49 16.2172 33.5728 16.4692 33.5987 16.73V16.8637L33.6049 16.8606ZM33.6049 26.2495V26.2604C33.6021 26.2978 33.607 26.3353 33.6194 26.3706C33.6317 26.406 33.6513 26.4384 33.6767 26.4659C33.7022 26.4933 33.7331 26.5152 33.7674 26.5302C33.8018 26.5452 33.8388 26.5529 33.8763 26.5529C33.9138 26.5529 33.9508 26.5452 33.9852 26.5302C34.0195 26.5152 34.0504 26.4933 34.0759 26.4659C34.1013 26.4384 34.1209 26.406 34.1332 26.3706C34.1456 26.3353 34.1505 26.2978 34.1477 26.2604V16.8606V16.7052C34.1485 16.6948 34.1485 16.6844 34.1477 16.6741C34.1165 16.3343 34.0102 16.0058 33.8366 15.712C33.646 15.3894 33.4014 15.1018 33.1135 14.8619C32.3189 14.1827 31.2475 13.7599 30.1294 13.5501C28.8822 13.3214 27.6029 13.3325 26.3599 13.5828C25.4828 13.7677 24.3725 14.1687 23.5732 14.8261C22.9512 15.3343 22.522 15.9949 22.4956 16.8264C22.4948 16.8373 22.4948 16.8482 22.4956 16.859V26.2589C22.4992 26.3275 22.5287 26.3921 22.5781 26.4399C22.6275 26.4877 22.6931 26.515 22.7618 26.5164C22.8306 26.5178 22.8973 26.4931 22.9486 26.4474C22.9998 26.4016 23.0319 26.3381 23.0383 26.2697V26.2589V26.248C23.0451 26.0581 23.0792 25.8702 23.1393 25.69C23.208 25.5037 23.3033 25.3283 23.4224 25.1694C23.8376 24.6036 24.4814 24.1886 25.206 23.8949C26.1141 23.5441 27.0755 23.3512 28.0487 23.3245C29.089 23.2934 30.1267 23.4438 31.1153 23.769C31.9192 24.0441 32.6455 24.456 33.1369 25.0404C33.2852 25.2126 33.4054 25.4072 33.493 25.617C33.5645 25.8203 33.6023 26.034 33.6049 26.2495Z" fill="#3C3C3C"/>
<path fill-rule="evenodd" clip-rule="evenodd" d="M21.8406 5.02084L18.3853 5.84767L12.305 4.03704L6.08469 7.6288L9.22125 11.1366L7.78904 13.1307L1.27485 14.3321V19.4019L7.79059 20.6017L9.22125 22.5958L6.08469 26.1052L12.305 29.6969L18.3853 27.8863L21.8422 28.7116L23.9229 32.4712H32.709L34.7912 28.7054L38.2466 27.8801L44.3269 29.6907L50.5472 26.099L47.4091 22.5896L48.8413 20.5955L55.3555 19.3957V14.3259L48.8397 13.1245L47.4091 11.1304L50.5472 7.62258L44.3269 4.03081L38.2466 5.84147L34.7912 5.02084L32.7121 1.26123H23.9244L21.8437 5.02084H21.8406ZM28.3159 13.6575C31.3856 13.6575 33.8769 15.0952 33.8769 16.867C33.8769 18.6388 31.3888 20.0749 28.3159 20.0749C25.2431 20.0749 22.7535 18.6388 22.7535 16.867C22.7535 15.0952 25.2447 13.6513 28.3159 13.6513V13.6575Z" fill="#F9FAFE"/>
<path fill-rule="evenodd" clip-rule="evenodd" d="M21.662 4.77982L18.3964 5.55692L12.383 3.77736C12.3444 3.76548 12.3036 3.76252 12.2638 3.76871C12.2239 3.77491 12.186 3.79009 12.1528 3.81311L9.05823 5.59889L5.9481 7.39556C5.91722 7.41327 5.89015 7.4369 5.86843 7.46509C5.84671 7.49329 5.83076 7.52549 5.82152 7.55986C5.81227 7.59422 5.80989 7.63006 5.81453 7.66534C5.81918 7.70062 5.83075 7.73465 5.84857 7.76546C5.86093 7.78617 5.87553 7.80545 5.89212 7.82296L8.87472 11.1567L7.63067 12.8866L1.2238 14.0662C1.16135 14.0778 1.10492 14.1109 1.06431 14.1597C1.02369 14.2086 1.00143 14.27 1.00142 14.3335V19.4033C1.00148 19.4709 1.02668 19.5359 1.07209 19.5859C1.1175 19.6359 1.1799 19.6672 1.24713 19.6738L7.63223 20.8503L8.87628 22.5801L5.88277 25.9263C5.85904 25.9529 5.84079 25.9838 5.82903 26.0174C5.81728 26.0509 5.81226 26.0865 5.81429 26.122C5.81631 26.1575 5.82531 26.1923 5.84081 26.2243C5.85629 26.2564 5.87796 26.285 5.90455 26.3087C5.92025 26.3225 5.93746 26.3345 5.95586 26.3444L12.1761 29.9331C12.2079 29.9512 12.2431 29.9627 12.2795 29.9667C12.3158 29.9707 12.3527 29.9672 12.3876 29.9564L18.3995 28.166L21.6652 28.9431L23.6867 32.597C23.7099 32.6399 23.7442 32.6757 23.7861 32.7006C23.828 32.7256 23.8759 32.7386 23.9247 32.7384H32.7108C32.7623 32.7384 32.8127 32.7238 32.8562 32.6963C32.8997 32.6687 32.9344 32.6295 32.9565 32.583L34.9781 28.9415L38.2437 28.1644L44.2572 29.9548C44.2943 29.9659 44.3334 29.9688 44.3717 29.9634C44.4101 29.9581 44.4469 29.9445 44.4796 29.9238L47.5897 28.1333H47.6037L50.6998 26.346C50.7621 26.3102 50.8077 26.2512 50.8267 26.1819C50.8456 26.1126 50.8363 26.0386 50.8009 25.9761C50.7904 25.9604 50.7789 25.9454 50.7667 25.931L47.7747 22.5848L49.0188 20.855L55.4241 19.6738C55.4864 19.6625 55.5428 19.6297 55.5835 19.5812C55.6241 19.5326 55.6464 19.4713 55.6465 19.408V14.3382C55.6468 14.2706 55.6217 14.2053 55.5762 14.1552C55.5307 14.1052 55.4682 14.074 55.4008 14.0677L49.025 12.8912L47.781 11.1598L50.7729 7.81519C50.8206 7.76166 50.8453 7.69147 50.8415 7.61987C50.8377 7.54827 50.8058 7.48106 50.7527 7.43286C50.7361 7.41904 50.7184 7.40657 50.6998 7.39556L44.4796 3.80844C44.4479 3.79004 44.4128 3.77834 44.3764 3.77406C44.34 3.76979 44.3031 3.77304 44.268 3.78359L38.2546 5.57248L34.989 4.79538L32.9674 1.13988C32.9437 1.09759 32.9092 1.06235 32.8674 1.03777C32.8256 1.0132 32.778 1.00015 32.7295 1H23.9418C23.8903 0.999848 23.8398 1.0144 23.7963 1.04193C23.7527 1.06946 23.718 1.10883 23.6961 1.15542L21.6745 4.79538L21.662 4.77982ZM18.4477 6.104L21.886 5.28184C21.9267 5.27545 21.9654 5.25978 21.9991 5.23606C22.0328 5.21235 22.0606 5.18123 22.0804 5.14507L24.0817 1.52688H32.5491L34.5504 5.14507C34.5682 5.17836 34.593 5.2074 34.623 5.2302C34.6531 5.25301 34.6877 5.26904 34.7246 5.27718L38.1613 6.09934C38.2121 6.11402 38.266 6.11402 38.3168 6.09934L44.2867 4.32289L50.1198 7.68775L47.232 10.9267C47.184 10.9717 47.154 11.0327 47.1477 11.0982C47.1414 11.1637 47.1592 11.2293 47.1978 11.2826L48.6285 13.2767C48.6696 13.3334 48.7307 13.3723 48.7995 13.3855L55.0913 14.5449V19.164L48.8182 20.3188C48.7805 20.3233 48.7442 20.3355 48.7116 20.3548C48.6789 20.3741 48.6506 20.3999 48.6285 20.4307L47.1963 22.4263C47.1608 22.4766 47.1433 22.5374 47.1467 22.5989C47.1501 22.6604 47.1741 22.719 47.2149 22.7651L50.1307 26.0289L47.3222 27.65L47.3067 27.6577L44.2976 29.3953L38.3277 27.6173C38.2819 27.6048 38.2336 27.6048 38.1877 27.6173L34.7495 28.4395C34.709 28.446 34.6706 28.4617 34.6371 28.4854C34.6037 28.5091 34.5762 28.5402 34.5567 28.5763L32.5537 32.1944H24.0864L22.085 28.5763C22.067 28.543 22.0422 28.5139 22.0122 28.4909C21.9822 28.4678 21.9477 28.4514 21.9109 28.4426L18.4742 27.622C18.4235 27.6066 18.3693 27.6066 18.3186 27.622L12.3503 29.4L6.51725 26.0336L9.42678 22.7791C9.47053 22.7337 9.49687 22.6744 9.50113 22.6116C9.5054 22.5487 9.48733 22.4864 9.45011 22.4356L8.02255 20.4478C8.00254 20.4177 7.97667 20.3921 7.94646 20.3723C7.91626 20.3525 7.88237 20.3391 7.84683 20.3328L1.55503 19.1733V14.5542L7.84683 13.3948C7.91586 13.3822 7.97724 13.3432 8.01788 13.286L9.45011 11.2919C9.48616 11.2418 9.50396 11.1809 9.50057 11.1193C9.49717 11.0576 9.47278 10.999 9.43145 10.9531L6.51725 7.68931L9.34124 6.05895L12.3519 4.32289L18.3078 6.10867C18.3537 6.12038 18.4018 6.12038 18.4477 6.10867V6.104ZM28.3162 13.3792C29.8992 13.3792 31.3377 13.7522 32.3842 14.3568C33.4728 14.9785 34.1477 15.8706 34.1477 16.8607C34.1477 17.8507 33.4743 18.735 32.3842 19.3645C31.3377 19.9675 29.8961 20.3405 28.3162 20.3405C26.7362 20.3405 25.2947 19.9675 24.2481 19.3645C23.1596 18.7335 22.4831 17.8507 22.4831 16.8607C22.4831 15.8706 23.158 14.9863 24.2481 14.3568C25.2947 13.7522 26.7362 13.3792 28.3162 13.3792ZM24.5187 14.8262C25.4844 14.2682 26.8264 13.9232 28.3162 13.9232C29.8059 13.9232 31.1448 14.2682 32.1121 14.8262C33.0343 15.3577 33.605 16.0789 33.605 16.8607C33.605 17.6424 33.0343 18.362 32.1121 18.8951C31.1448 19.4531 29.8028 19.7965 28.3162 19.7965C26.8295 19.7965 25.4844 19.4531 24.5187 18.8951C23.5965 18.362 23.0258 17.6424 23.0258 16.8607C23.0258 16.0789 23.595 15.3577 24.5187 14.8262Z" fill="#3C3C3C"/>
<path fill-rule="evenodd" clip-rule="evenodd" d="M28.3155 7.88818C19.7269 7.88818 12.7648 11.9043 12.7648 16.8606C12.7648 21.817 19.7269 25.833 28.3155 25.833C36.9042 25.833 43.8662 21.8154 43.8662 16.8606C43.8662 11.9058 36.9042 7.88818 28.3155 7.88818ZM28.3155 13.6512C31.3852 13.6512 33.8764 15.0888 33.8764 16.8606C33.8764 18.6324 31.3883 20.0685 28.3155 20.0685C25.2427 20.0685 22.753 18.6324 22.753 16.8606C22.753 15.0888 25.2442 13.6512 28.3155 13.6512Z" fill="white"/>
<path fill-rule="evenodd" clip-rule="evenodd" d="M28.316 7.61621C23.9743 7.61621 20.0384 8.63422 17.1833 10.2817L17.1693 10.291C14.28 11.9618 12.4932 14.2838 12.4932 16.8606C12.4932 19.4375 14.2862 21.7672 17.1849 23.4396C20.0384 25.0855 23.9743 26.105 28.316 26.105C32.6578 26.105 36.5921 25.0855 39.4457 23.4396C42.3428 21.7672 44.1357 19.4422 44.1357 16.8606C44.1357 14.2791 42.3428 11.9524 39.4457 10.2801C36.5921 8.63422 32.6562 7.61621 28.3145 7.61621H28.316ZM17.4554 10.7495C20.2297 9.14866 24.0691 8.15863 28.316 8.15863C32.5629 8.15863 36.4024 9.14866 39.1751 10.7495C41.9042 12.3255 43.593 14.4874 43.593 16.8606C43.593 19.2339 41.9042 21.3958 39.1751 22.9702C36.4008 24.571 32.5614 25.5611 28.316 25.5611C24.0707 25.5611 20.2297 24.571 17.4554 22.9702C14.7263 21.3958 13.0375 19.2401 13.0375 16.8606C13.0375 14.4811 14.7201 12.3317 17.4415 10.7573L17.4554 10.7495ZM28.316 13.3792C29.8991 13.3792 31.3375 13.7522 32.3841 14.3568C33.4726 14.9785 34.1475 15.8706 34.1475 16.8606C34.1475 17.8507 33.4742 18.735 32.3841 19.3645C31.3375 19.9675 29.896 20.3405 28.316 20.3405C26.7361 20.3405 25.2945 19.9675 24.248 19.3645C23.1594 18.7334 22.483 17.8507 22.483 16.8606C22.483 15.8706 23.1579 14.9862 24.248 14.3568C25.2945 13.7522 26.7361 13.3792 28.316 13.3792ZM24.5186 14.8262C25.4842 14.2682 26.8263 13.9232 28.316 13.9232C29.8058 13.9232 31.1447 14.2682 32.112 14.8262C33.0341 15.3577 33.6048 16.0789 33.6048 16.8606C33.6048 17.6424 33.0341 18.362 32.112 18.8951C31.1447 19.453 29.8027 19.7965 28.316 19.7965C26.8294 19.7965 25.4842 19.453 24.5186 18.8951C23.5964 18.362 23.0257 17.6424 23.0257 16.8606C23.0257 16.0789 23.5948 15.3577 24.5186 14.8262Z" fill="#3C3C3C"/>
<path fill-rule="evenodd" clip-rule="evenodd" d="M50.2786 35.4987C50.2838 35.5671 50.3146 35.631 50.3649 35.6776C50.4152 35.7242 50.4813 35.7501 50.5499 35.7501C50.6185 35.7501 50.6846 35.7242 50.735 35.6776C50.7853 35.631 50.8161 35.5671 50.8213 35.4987V26.0989C50.8161 26.0305 50.7853 25.9666 50.735 25.9199C50.6846 25.8733 50.6185 25.8474 50.5499 25.8474C50.4813 25.8474 50.4152 25.8733 50.3649 25.9199C50.3146 25.9666 50.2838 26.0305 50.2786 26.0989V35.4987Z" fill="#3C3C3C"/>
<path fill-rule="evenodd" clip-rule="evenodd" d="M34.5178 38.1051C34.523 38.1735 34.5538 38.2374 34.6042 38.284C34.6545 38.3306 34.7206 38.3566 34.7892 38.3566C34.8578 38.3566 34.9239 38.3306 34.9742 38.284C35.0245 38.2374 35.0554 38.1735 35.0605 38.1051V28.7053C35.0554 28.6369 35.0245 28.573 34.9742 28.5264C34.9239 28.4798 34.8578 28.4539 34.7892 28.4539C34.7206 28.4539 34.6545 28.4798 34.6042 28.5264C34.5538 28.573 34.523 28.6369 34.5178 28.7053V38.1051Z" fill="#3C3C3C"/>
<path d="M6.20518 7.58584L12.2182 3.91122L18.2312 5.91556L21.9058 4.91339L23.9102 1.23877H32.5956L34.6 4.91339L38.2746 5.91556L44.6216 3.91122L50.6347 7.58584M6.20518 7.58584L9.21169 10.9264L7.87546 12.9307L6.20518 13.2648M6.20518 7.58584V13.2648M50.6347 7.58584L47.6282 10.9264L49.2984 13.2648L55.3114 14.267V19.2778M50.6347 7.58584V12.9307M55.3114 19.2778L48.9644 20.614L47.6282 22.6184L50.6347 25.9589M55.3114 19.2778V28.6314L50.6347 29.6335M50.6347 25.9589L44.6216 29.6335M50.6347 25.9589V29.6335M44.6216 29.6335L38.2746 27.9633M44.6216 29.6335V38.9871M38.2746 27.9633L34.934 28.9654M38.2746 27.9633V37.3168M34.934 28.9654L32.5956 32.306M34.934 28.9654V37.985M32.5956 32.306H23.9102M32.5956 32.306V41.6596M23.9102 32.306L21.9058 28.9654M23.9102 32.306V41.6596M21.9058 28.9654L18.2312 27.9633M21.9058 28.9654V37.985M18.2312 27.9633L12.2182 29.6335M18.2312 27.9633V37.3168M12.2182 29.6335L6.20518 25.9589M12.2182 29.6335V38.9871M6.20518 25.9589L7.87546 24.1031M6.20518 25.9589V29.9676M7.87546 20.614L9.21169 22.6184L7.87546 24.1031M7.87546 20.614L1.19434 19.2778M7.87546 20.614V24.1031M1.19434 19.2778V14.267L6.20518 13.2648M1.19434 19.2778V28.9654L6.20518 29.9676M12.2182 38.9871L6.20518 35.6466V29.9676M12.2182 38.9871L18.2312 37.3168M18.2312 37.3168L21.9058 37.985M21.9058 37.985L23.9102 41.6596M23.9102 41.6596H32.5956M32.5956 41.6596L34.934 37.985M34.934 37.985L38.2746 37.3168M38.2746 37.3168L44.6216 38.9871M44.6216 38.9871L50.6347 35.6466V29.6335" stroke="#3B3B3B"/>
<path d="M43.7881 16.9393C43.7881 19.2705 42.1646 21.4735 39.3398 23.1214C36.5272 24.762 32.6087 25.7928 28.2534 25.7928C23.8982 25.7928 19.9797 24.762 17.1671 23.1214C14.3423 21.4735 12.7188 19.2705 12.7188 16.9393C12.7188 14.608 14.3423 12.405 17.1671 10.7572C19.9797 9.11651 23.8982 8.08569 28.2534 8.08569C32.6087 8.08569 36.5272 9.11651 39.3398 10.7572C42.1646 12.405 43.7881 14.608 43.7881 16.9393Z" stroke="#3C3C3C"/>
<path d="M39.7786 16.6053C39.7786 18.2908 38.6038 19.9092 36.5043 21.1339C34.4172 22.3514 31.5009 23.1204 28.2526 23.1204C25.0043 23.1204 22.088 22.3514 20.0008 21.1339C17.9014 19.9092 16.7266 18.2908 16.7266 16.6053C16.7266 14.9197 17.9014 13.3013 20.0008 12.0767C22.088 10.8592 25.0043 10.0901 28.2526 10.0901C31.5009 10.0901 34.4172 10.8592 36.5043 12.0767C38.6038 13.3013 39.7786 14.9197 39.7786 16.6053Z" stroke="#3C3C3C"/>
<path d="M158 62C158 71.9411 137.629 80 112.5 80C87.371 80 67 71.9411 67 62C67 56.441 73.37 51.4705 83.38 48.1687C91.2706 45.5659 101.423 44 112.5 44C137.629 44 158 52.0589 158 62Z" fill="#E8E8E8"/>
<path fill-rule="evenodd" clip-rule="evenodd" d="M64.8138 24.0549V38.1242L69.5107 43.3746V29.3053L64.8138 24.0549Z" fill="#2B7CFF"/>
<path fill-rule="evenodd" clip-rule="evenodd" d="M64.4067 24.0548V38.1241C64.4071 38.18 64.4188 38.2352 64.4412 38.2864C64.4636 38.3376 64.4962 38.3837 64.537 38.4218L69.2084 43.6559C69.2438 43.6957 69.2868 43.7281 69.3347 43.7513C69.3827 43.7745 69.4348 43.7879 69.4879 43.791C69.5411 43.794 69.5944 43.7865 69.6447 43.7689C69.695 43.7513 69.7413 43.724 69.781 43.6885C69.8233 43.6503 69.8572 43.6036 69.8805 43.5516C69.9037 43.4995 69.9158 43.4431 69.916 43.3861V29.3168C69.9163 29.2611 69.9051 29.2059 69.8831 29.1546C69.8611 29.1034 69.8287 29.0572 69.788 29.0191L65.1166 23.7966C65.0613 23.7386 64.9901 23.6982 64.9118 23.6807C64.8336 23.6632 64.7519 23.6692 64.6772 23.6981C64.6024 23.727 64.5379 23.7775 64.4918 23.843C64.4457 23.9086 64.4202 23.9864 64.4183 24.0665L64.4067 24.0548ZM65.2213 37.9706V25.118L69.1037 29.4657V42.3183L65.2213 37.9706Z" fill="#3C3C3C"/>
<path fill-rule="evenodd" clip-rule="evenodd" d="M57.6147 41.6765V55.7457L67.3672 57.5416V43.4724L57.6147 41.6765Z" fill="#2B7CFF"/>
<path fill-rule="evenodd" clip-rule="evenodd" d="M57.2077 41.6765V55.7526C57.2078 55.8537 57.2455 55.9511 57.3135 56.0259C57.3815 56.1007 57.4748 56.1476 57.5755 56.1574L67.293 57.9486C67.3516 57.9592 67.4118 57.9567 67.4694 57.9415C67.527 57.9263 67.5805 57.8986 67.6262 57.8605C67.6719 57.8223 67.7087 57.7746 67.734 57.7207C67.7593 57.6668 67.7724 57.608 67.7725 57.5485V43.4793C67.7718 43.3784 67.734 43.2813 67.6661 43.2066C67.5982 43.1319 67.5052 43.0849 67.4047 43.0746L57.6872 41.2834C57.5824 41.2663 57.4752 41.2908 57.3882 41.3517C57.3013 41.4125 57.2415 41.5048 57.2217 41.609C57.2195 41.6338 57.2195 41.6587 57.2217 41.6835L57.2077 41.6765ZM58.0223 55.4014V42.1557L66.9601 43.8027V57.0484L58.0223 55.4014Z" fill="#3C3C3C"/>
<path fill-rule="evenodd" clip-rule="evenodd" d="M67.367 43.4724V57.5416L69.5107 60.5286V46.457L67.367 43.4724Z" fill="#4B7BE7"/>
<path fill-rule="evenodd" clip-rule="evenodd" d="M66.9599 43.4723V57.5415C66.9596 57.6388 66.9943 57.7329 67.0577 57.8067L69.1805 60.7634C69.2115 60.8067 69.2507 60.8434 69.2959 60.8715C69.3411 60.8996 69.3914 60.9185 69.444 60.9272C69.4965 60.9358 69.5502 60.934 69.6021 60.9219C69.6539 60.9097 69.7028 60.8875 69.7461 60.8564C69.7987 60.8194 69.8416 60.7703 69.8712 60.7132C69.9007 60.6561 69.9161 60.5928 69.916 60.5285V46.4476C69.9171 46.3509 69.8822 46.2572 69.8182 46.1847L67.6955 43.2257C67.6455 43.1567 67.5751 43.1052 67.4942 43.0785C67.4132 43.0518 67.3259 43.0513 67.2447 43.0771C67.1635 43.1028 67.0925 43.1536 67.0417 43.222C66.991 43.2905 66.9632 43.3732 66.9623 43.4584L66.9599 43.4723ZM67.7746 57.4136V44.7355L69.1037 46.5965V59.2746L67.7746 57.4136Z" fill="#3C3C3C"/>
<path fill-rule="evenodd" clip-rule="evenodd" d="M64.814 51.7095V65.7787L74.1289 71.1547V57.0855L64.814 51.7095Z" fill="#2B7CFF"/>
<path fill-rule="evenodd" clip-rule="evenodd" d="M64.4062 51.7096V65.7788C64.4052 65.8563 64.4267 65.9325 64.468 65.9981C64.5092 66.0637 64.5686 66.116 64.6389 66.1487L73.9212 71.4991C73.9673 71.5256 74.0182 71.5428 74.0709 71.5495C74.1237 71.5563 74.1773 71.5525 74.2285 71.5385C74.2798 71.5244 74.3278 71.5003 74.3697 71.4676C74.4117 71.4349 74.4467 71.3943 74.4728 71.3479C74.5083 71.2873 74.5268 71.2182 74.5264 71.1479V57.0786C74.5266 57.0009 74.5049 56.9248 74.4637 56.8589C74.4226 56.793 74.3636 56.7402 74.2936 56.7064L65.0113 51.356C64.9497 51.3204 64.8798 51.3017 64.8087 51.3018C64.7375 51.3018 64.6676 51.3206 64.606 51.3562C64.5444 51.3918 64.4933 51.443 64.4578 51.5046C64.4223 51.5662 64.4037 51.6361 64.4039 51.7072L64.4062 51.7096ZM65.2208 65.5462V52.4121L73.721 57.3182V70.4523L65.2208 65.5462Z" fill="#3C3C3C"/>
<path fill-rule="evenodd" clip-rule="evenodd" d="M74.1278 57.0856V71.1548L83.2285 68.4447V54.3755L74.1278 57.0856Z" fill="white"/>
<path fill-rule="evenodd" clip-rule="evenodd" d="M73.7214 57.0855V71.1548C73.722 71.2626 73.7651 71.3658 73.8413 71.442C73.9176 71.5182 74.0208 71.5613 74.1287 71.5619C74.1764 71.5617 74.2237 71.553 74.2683 71.5363L83.3458 68.8332C83.4298 68.8085 83.5035 68.7574 83.5559 68.6873C83.6084 68.6173 83.6367 68.5322 83.6367 68.4447V54.3754C83.6367 54.2674 83.5938 54.1639 83.5174 54.0876C83.441 54.0112 83.3374 53.9683 83.2294 53.9683C83.1826 53.9675 83.136 53.9754 83.0921 53.9916L74.0146 56.6947C73.9309 56.7202 73.8576 56.772 73.8056 56.8424C73.7536 56.9128 73.7257 56.998 73.726 57.0855H73.7214ZM74.536 70.6081V57.381L82.8221 54.9128V68.1353L74.536 70.6081Z" fill="#3C3C3C"/>
<path fill-rule="evenodd" clip-rule="evenodd" d="M83.2292 54.3755V68.4447L88.4033 69.68V55.6107L83.2292 54.3755Z" fill="#2B7CFF"/>
<path fill-rule="evenodd" clip-rule="evenodd" d="M82.8215 54.3754V68.4446C82.8216 68.5424 82.8569 68.6369 82.9211 68.7108C82.9852 68.7847 83.0738 68.8331 83.1706 68.8471L88.3075 70.0753C88.4121 70.0998 88.5221 70.0821 88.6137 70.0259C88.7052 69.9697 88.7709 69.8796 88.7963 69.7753C88.7997 69.7436 88.7997 69.7116 88.7963 69.6799V55.6107C88.7956 55.5126 88.7597 55.4181 88.6952 55.3443C88.6307 55.2704 88.5419 55.2221 88.4448 55.2082L83.3079 53.9799C83.2036 53.9555 83.0939 53.9733 83.0027 54.0296C82.9115 54.0858 82.8464 54.1759 82.8215 54.28C82.8171 54.3117 82.8171 54.3438 82.8215 54.3754ZM83.6361 68.1259V54.8895L87.9956 55.9294V69.1681L83.6361 68.1259Z" fill="#3C3C3C"/>
<path fill-rule="evenodd" clip-rule="evenodd" d="M88.4033 55.6108V69.6801L91.5176 75.3073V61.2381L88.4033 55.6108Z" fill="#2B7CFF"/>
<path fill-rule="evenodd" clip-rule="evenodd" d="M88.0011 55.6107V69.68C88.0009 69.7574 88.0227 69.8332 88.064 69.8987L91.1666 75.5026C91.2096 75.582 91.278 75.6447 91.3608 75.6809C91.4435 75.717 91.536 75.7244 91.6235 75.7019C91.711 75.6795 91.7884 75.6284 91.8436 75.5569C91.8987 75.4854 91.9283 75.3975 91.9277 75.3072V61.238C91.9282 61.1602 91.9056 61.0841 91.8625 61.0193L88.7622 55.4153C88.7185 55.3366 88.6499 55.2746 88.5672 55.239C88.4845 55.2034 88.3923 55.1962 88.3051 55.2185C88.2178 55.2409 88.1404 55.2915 88.085 55.3624C88.0296 55.4334 87.9993 55.5207 87.9988 55.6107H88.0011ZM88.8158 69.5683V57.1763L91.1154 61.331V73.723L88.8158 69.5683Z" fill="#3C3C3C"/>
<path d="M91.5183 61.238H104.669V75.3073H91.5183V61.238Z" fill="white"/>
<path fill-rule="evenodd" clip-rule="evenodd" d="M91.1109 61.2382V75.3074C91.1109 75.4154 91.1538 75.519 91.2302 75.5953C91.3066 75.6716 91.4102 75.7145 91.5182 75.7145H104.669C104.777 75.7145 104.88 75.6716 104.957 75.5953C105.033 75.519 105.076 75.4154 105.076 75.3074V61.2382C105.076 61.1302 105.033 61.0266 104.957 60.9503C104.88 60.8739 104.777 60.8311 104.669 60.8311H91.5182C91.4102 60.8311 91.3066 60.8739 91.2302 60.9503C91.1538 61.0266 91.1109 61.1302 91.1109 61.2382ZM91.9255 74.9003V61.6406H104.262V74.9003H91.9255Z" fill="#3C3C3C"/>
<path fill-rule="evenodd" clip-rule="evenodd" d="M104.669 61.238V75.3072L107.783 69.68L112.955 68.4447V54.3755L107.783 55.6107L104.669 61.238Z" fill="white"/>
<path fill-rule="evenodd" clip-rule="evenodd" d="M104.263 61.2636V75.3073C104.263 75.3976 104.292 75.4854 104.347 75.5569C104.403 75.6285 104.48 75.6795 104.567 75.702C104.655 75.7244 104.747 75.717 104.83 75.6809C104.913 75.6448 104.981 75.5821 105.024 75.5027L108.05 70.0336L113.05 68.8379C113.138 68.8169 113.217 68.7666 113.273 68.6952C113.329 68.6239 113.36 68.5356 113.359 68.4448V54.3755C113.359 54.2681 113.317 54.1652 113.241 54.0893C113.165 54.0134 113.062 53.9707 112.954 53.9707C112.919 53.9705 112.884 53.9752 112.85 53.9847L107.687 55.2176C107.632 55.2306 107.581 55.2549 107.536 55.289C107.491 55.323 107.454 55.3661 107.426 55.4153L104.312 61.0426C104.272 61.1133 104.255 61.1945 104.263 61.2752V61.2636ZM105.073 73.7347V61.3357L108.05 55.9527L112.549 54.878V68.1144L107.715 69.2776C107.655 69.2878 107.597 69.3115 107.547 69.347C107.497 69.3824 107.456 69.4287 107.426 69.4823L105.073 73.7347Z" fill="#3C3C3C"/>
<path fill-rule="evenodd" clip-rule="evenodd" d="M112.955 54.3755V68.4447L122.056 71.1548V57.0856L112.955 54.3755Z" fill="#2B7CFF"/>
<path fill-rule="evenodd" clip-rule="evenodd" d="M112.548 54.3753V68.4446C112.548 68.5362 112.579 68.6251 112.636 68.6969C112.693 68.7687 112.773 68.8191 112.862 68.84L121.94 71.5432C121.991 71.5585 122.044 71.5637 122.097 71.5583C122.15 71.553 122.202 71.5372 122.249 71.5119C122.296 71.4866 122.337 71.4523 122.371 71.411C122.404 71.3696 122.429 71.3221 122.445 71.271C122.456 71.2332 122.461 71.194 122.461 71.1547V57.0854C122.461 56.994 122.431 56.9051 122.374 56.8333C122.317 56.7615 122.238 56.711 122.149 56.6899L113.072 53.9845C112.968 53.9542 112.857 53.966 112.762 54.0175C112.668 54.0689 112.597 54.1558 112.567 54.259C112.555 54.2967 112.55 54.3359 112.55 54.3753H112.548ZM113.363 68.1422V54.9197L121.651 57.3808V70.601L113.363 68.1422Z" fill="#3C3C3C"/>
<path fill-rule="evenodd" clip-rule="evenodd" d="M122.056 57.0857V71.1549L131.366 65.7789V57.0717L138.562 55.7457V41.6765L128.812 43.4724L126.669 46.457V54.4198L122.056 57.0857Z" fill="white"/>
<path fill-rule="evenodd" clip-rule="evenodd" d="M121.65 57.0856V71.1548C121.65 71.2622 121.693 71.3651 121.769 71.4411C121.845 71.517 121.948 71.5596 122.055 71.5596C122.131 71.5592 122.205 71.5383 122.269 71.4991L131.58 66.1301C131.642 66.0947 131.693 66.0436 131.729 65.9819C131.765 65.9203 131.784 65.8502 131.784 65.7789V57.4043L138.648 56.1389C138.744 56.1211 138.831 56.0695 138.892 55.9935C138.953 55.9176 138.985 55.8222 138.981 55.7248V41.6719C138.981 41.5645 138.939 41.4616 138.863 41.3856C138.787 41.3097 138.684 41.2671 138.576 41.2671H138.504L128.752 43.0653C128.7 43.0741 128.651 43.0931 128.607 43.1211C128.563 43.149 128.525 43.1854 128.496 43.2281L126.354 46.215C126.298 46.2922 126.271 46.3873 126.28 46.4826V54.1802L121.857 56.739C121.795 56.7745 121.744 56.8256 121.708 56.8873C121.672 56.9489 121.653 57.0189 121.653 57.0903L121.65 57.0856ZM122.463 70.4523V57.3183L126.871 54.778C126.936 54.7434 126.99 54.6917 127.028 54.6286C127.065 54.5655 127.085 54.4933 127.085 54.4198V46.5919L129.059 43.8423L138.169 42.1627V55.4084L131.335 56.6669C131.235 56.6773 131.142 56.7244 131.075 56.7991C131.007 56.8739 130.97 56.971 130.97 57.0717V65.5462L122.463 70.4523Z" fill="#3C3C3C"/>
<path fill-rule="evenodd" clip-rule="evenodd" d="M126.676 29.3053V43.3746L131.373 38.1242V24.0549L126.676 29.3053Z" fill="white"/>
<path fill-rule="evenodd" clip-rule="evenodd" d="M126.268 29.3054V43.3746C126.27 43.4591 126.299 43.5407 126.35 43.6082C126.401 43.6757 126.471 43.7257 126.552 43.7512C126.633 43.7768 126.719 43.7766 126.8 43.7508C126.88 43.7251 126.951 43.6749 127.001 43.6072L131.673 38.3848C131.74 38.3109 131.777 38.2148 131.777 38.1149V24.0457C131.775 23.9612 131.746 23.8796 131.696 23.8121C131.645 23.7447 131.574 23.6947 131.493 23.6691C131.413 23.6435 131.326 23.6437 131.246 23.6695C131.165 23.6953 131.095 23.7454 131.044 23.8131L126.373 29.0355C126.306 29.1096 126.27 29.2058 126.27 29.3054H126.268ZM127.083 42.3115V29.4659L130.965 25.1251V37.9777L127.083 42.3115Z" fill="#3C3C3C"/>
<path fill-rule="evenodd" clip-rule="evenodd" d="M106.416 37.8823V51.9516C106.4 51.1783 106.108 50.4362 105.594 49.8579C103.851 47.7643 100.271 47.0664 97.6644 47.1432C95.2414 47.213 91.9246 48.0178 90.421 50.0696C90.0107 50.6047 89.7816 51.2566 89.767 51.9306V37.8614C89.8251 35.2164 93.0256 33.8137 95.2298 33.3484C98.2859 32.704 102.557 33.0925 105.006 35.1746C105.732 35.798 106.33 36.6378 106.416 37.6125V37.8823Z" fill="#2B7CFF"/>
<path fill-rule="evenodd" clip-rule="evenodd" d="M106.009 37.8823V49.7462L105.906 49.6182C105.071 48.618 103.856 47.9201 102.524 47.4641C100.953 46.9514 99.3049 46.7153 97.6529 46.7662C96.0996 46.8082 94.5651 47.1166 93.1165 47.6782C91.9527 48.1434 90.8937 48.825 90.1744 49.7508V37.8753C90.207 36.8983 90.74 36.1073 91.4965 35.4839C92.5788 34.5883 94.1034 34.0393 95.3137 33.7834C97.0707 33.4302 98.8789 33.4152 100.641 33.7392C102.194 34.03 103.667 34.6022 104.731 35.5211C105.09 35.8216 105.396 36.1802 105.636 36.5819C105.837 36.9193 105.961 37.2964 105.999 37.6868V37.8869L106.009 37.8823ZM106.009 51.9352V51.9515C106.005 52.0074 106.012 52.0635 106.03 52.1164C106.049 52.1694 106.078 52.2179 106.116 52.259C106.154 52.3001 106.201 52.3329 106.252 52.3553C106.303 52.3777 106.359 52.3893 106.415 52.3893C106.471 52.3893 106.527 52.3777 106.578 52.3553C106.629 52.3329 106.676 52.3001 106.714 52.259C106.752 52.2179 106.781 52.1694 106.799 52.1164C106.818 52.0635 106.825 52.0074 106.821 51.9515V37.8823V37.6496C106.822 37.6342 106.822 37.6186 106.821 37.6031C106.774 37.0946 106.615 36.6028 106.356 36.1632C106.07 35.6803 105.704 35.2499 105.273 34.8907C104.084 33.8741 102.48 33.2414 100.807 32.9273C98.94 32.585 97.0252 32.6016 95.1647 32.9762C93.852 33.253 92.1901 33.8532 90.9937 34.8372C90.0627 35.5979 89.4203 36.5865 89.3808 37.8311C89.3796 37.8473 89.3796 37.8637 89.3808 37.8799V51.9492C89.3862 52.0519 89.4303 52.1487 89.5042 52.2202C89.5782 52.2917 89.6765 52.3326 89.7793 52.3347C89.8822 52.3367 89.982 52.2998 90.0588 52.2313C90.1355 52.1628 90.1835 52.0678 90.1931 51.9654V51.9492V51.9329C90.2034 51.6487 90.2543 51.3675 90.3443 51.0977C90.4471 50.8189 90.5898 50.5564 90.768 50.3185C91.3894 49.4717 92.353 48.8506 93.4377 48.4109C94.7968 47.8858 96.2358 47.5971 97.6924 47.5572C99.2495 47.5106 100.803 47.7357 102.282 48.2225C103.486 48.6342 104.573 49.2507 105.308 50.1254C105.53 50.3832 105.71 50.6745 105.841 50.9884C105.948 51.2928 106.005 51.6126 106.009 51.9352Z" fill="#3C3C3C"/>
<path fill-rule="evenodd" clip-rule="evenodd" d="M88.401 20.1609L83.2292 21.3985L74.1284 18.6884L64.8182 24.0644L69.5129 29.3147L67.3692 32.2994L57.6191 34.0975V41.6858L67.3715 43.4817L69.5129 46.4663L64.8182 51.719L74.1284 57.095L83.2292 54.3849L88.4033 55.6201L91.5176 61.2473H104.668L107.785 55.6108L112.957 54.3756L122.057 57.0857L131.368 51.7097L126.671 46.457L128.814 43.4724L138.564 41.6765V34.0882L128.812 32.29L126.671 29.3055L131.368 24.0551L122.057 18.6791L112.957 21.3892L107.785 20.1609L104.673 14.5337H91.5199L88.4056 20.1609H88.401ZM98.0929 33.0879C102.688 33.0879 106.416 35.2397 106.416 37.8917C106.416 40.5436 102.692 42.6931 98.0929 42.6931C93.4937 42.6931 89.7673 40.5436 89.7673 37.8917C89.7673 35.2397 93.496 33.0786 98.0929 33.0786V33.0879Z" fill="#F9FAFE"/>
<path fill-rule="evenodd" clip-rule="evenodd" d="M88.1336 19.8003L83.2458 20.9634L74.2452 18.2999C74.1874 18.2821 74.1264 18.2776 74.0667 18.2869C74.007 18.2962 73.9503 18.3189 73.9007 18.3534L69.2688 21.0262L64.6137 23.7154C64.5675 23.7419 64.527 23.7773 64.4945 23.8195C64.462 23.8617 64.4381 23.9099 64.4243 23.9613C64.4104 24.0127 64.4069 24.0664 64.4138 24.1192C64.4208 24.172 64.4381 24.2229 64.4648 24.2691C64.4833 24.3 64.5051 24.3289 64.53 24.3551L68.9942 29.3449L67.1321 31.9341L57.5426 33.6997C57.4492 33.7171 57.3647 33.7666 57.3039 33.8397C57.2431 33.9128 57.2098 34.0048 57.2098 34.0998V41.6881C57.2099 41.7892 57.2476 41.8866 57.3156 41.9614C57.3835 42.0362 57.4769 42.0831 57.5776 42.0929L67.1345 43.8538L68.9965 46.443L64.516 51.4514C64.4804 51.4911 64.4531 51.5374 64.4355 51.5877C64.4179 51.6379 64.4104 51.6912 64.4135 51.7443C64.4165 51.7975 64.43 51.8495 64.4531 51.8975C64.4763 51.9454 64.5088 51.9883 64.5486 52.0237C64.5721 52.0444 64.5978 52.0623 64.6254 52.0772L73.9356 57.4485C73.9831 57.4757 74.0358 57.4928 74.0902 57.4988C74.1447 57.5048 74.1998 57.4995 74.2521 57.4834L83.2504 54.8036L88.1383 55.9667L91.1641 61.4358C91.1987 61.5 91.2501 61.5536 91.3129 61.5909C91.3756 61.6282 91.4473 61.6477 91.5202 61.6474H104.671C104.748 61.6474 104.823 61.6255 104.889 61.5843C104.954 61.5431 105.006 61.4844 105.039 61.4148L108.064 55.9644L112.952 54.8012L121.953 57.4811C122.009 57.4976 122.067 57.502 122.124 57.494C122.182 57.4859 122.237 57.4657 122.286 57.4346L126.941 54.7547H126.962L131.596 52.0795C131.689 52.0259 131.758 51.9376 131.786 51.8339C131.814 51.7301 131.8 51.6194 131.747 51.5259C131.732 51.5024 131.714 51.4799 131.696 51.4584L127.218 46.45L129.08 43.8608L138.667 42.0929C138.76 42.076 138.845 42.0269 138.906 41.9542C138.967 41.8816 139 41.7898 139 41.6951V34.1068C139 34.0056 138.963 33.9079 138.895 33.833C138.827 33.7581 138.733 33.7113 138.632 33.702L129.089 31.9411L127.227 29.3496L131.705 24.3435C131.777 24.2634 131.814 24.1583 131.808 24.0511C131.802 23.944 131.755 23.8434 131.675 23.7712C131.65 23.7506 131.624 23.7319 131.596 23.7154L122.286 18.3464C122.238 18.3188 122.186 18.3013 122.131 18.2949C122.077 18.2885 122.022 18.2934 121.969 18.3092L112.969 20.9867L108.081 19.8236L105.055 14.3522C105.02 14.2889 104.968 14.2361 104.905 14.1994C104.843 14.1626 104.771 14.1431 104.699 14.1428H91.5458C91.4688 14.1426 91.3932 14.1644 91.3281 14.2056C91.2629 14.2468 91.2109 14.3057 91.1781 14.3755L88.1523 19.8236L88.1336 19.8003ZM83.3226 21.7823L88.4688 20.5517C88.5298 20.5421 88.5877 20.5187 88.6381 20.4832C88.6886 20.4477 88.7302 20.4011 88.7598 20.347L91.7553 14.9314H104.429L107.424 20.347C107.451 20.3968 107.488 20.4403 107.533 20.4744C107.578 20.5085 107.63 20.5325 107.685 20.5447L112.829 21.7753C112.905 21.7972 112.986 21.7972 113.062 21.7753L121.997 19.1164L130.728 24.1527L126.406 29.0007C126.334 29.068 126.289 29.1593 126.279 29.2573C126.27 29.3554 126.297 29.4536 126.354 29.5334L128.496 32.518C128.557 32.6028 128.649 32.6611 128.752 32.6808L138.169 34.4162V41.3299L128.78 43.0583C128.723 43.065 128.669 43.0834 128.62 43.1122C128.571 43.141 128.529 43.1797 128.496 43.2258L126.352 46.2127C126.299 46.288 126.273 46.3791 126.278 46.4711C126.283 46.5631 126.319 46.6508 126.38 46.7198L130.744 51.605L126.541 54.0312L126.517 54.0429L122.014 56.6436L113.078 53.9824C113.009 53.9637 112.937 53.9637 112.869 53.9824L107.722 55.213C107.662 55.2227 107.604 55.2463 107.554 55.2817C107.504 55.3172 107.463 55.3638 107.434 55.4177L104.436 60.8332H91.7623L88.7668 55.4177C88.7398 55.3679 88.7027 55.3243 88.6578 55.2899C88.6129 55.2554 88.5612 55.2308 88.5061 55.2176L83.3622 53.9894C83.2863 53.9663 83.2053 53.9663 83.1294 53.9894L74.1963 56.6506L65.4656 51.6119L69.8205 46.7407C69.886 46.6729 69.9254 46.5841 69.9318 46.4901C69.9381 46.396 69.9111 46.3027 69.8554 46.2266L67.7187 43.2513C67.6887 43.2064 67.65 43.168 67.6048 43.1384C67.5596 43.1088 67.5089 43.0887 67.4557 43.0792L58.0384 41.3438V34.4301L67.4557 32.6948C67.559 32.6759 67.6509 32.6175 67.7117 32.5319L69.8554 29.5473C69.9093 29.4723 69.936 29.3811 69.9309 29.2889C69.9258 29.1966 69.8893 29.1089 69.8275 29.0402L65.4656 24.1551L69.6924 21.7148L74.1986 19.1164L83.1131 21.7892C83.1819 21.8068 83.2539 21.8068 83.3226 21.7892V21.7823ZM98.0933 32.6715C100.463 32.6715 102.616 33.2298 104.182 34.1347C105.811 35.0652 106.822 36.4005 106.822 37.8823C106.822 39.3642 105.814 40.6878 104.182 41.6299C102.616 42.5325 100.458 43.0908 98.0933 43.0908C95.7285 43.0908 93.5708 42.5325 92.0044 41.6299C90.3751 40.6855 89.3626 39.3642 89.3626 37.8823C89.3626 36.4005 90.3728 35.0768 92.0044 34.1347C93.5708 33.2298 95.7285 32.6715 98.0933 32.6715ZM92.4094 34.8372C93.8548 34.0021 95.8635 33.4857 98.0933 33.4857C100.323 33.4857 102.327 34.0021 103.775 34.8372C105.155 35.6328 106.009 36.7122 106.009 37.8823C106.009 39.0525 105.155 40.1295 103.775 40.9274C102.327 41.7625 100.318 42.2766 98.0933 42.2766C95.8681 42.2766 93.8548 41.7625 92.4094 40.9274C91.0291 40.1295 90.1749 39.0525 90.1749 37.8823C90.1749 36.7122 91.0268 35.6328 92.4094 34.8372Z" fill="#3C3C3C"/>
<path fill-rule="evenodd" clip-rule="evenodd" d="M98.0926 24.4528C85.2375 24.4528 74.817 30.4638 74.817 37.8823C74.817 45.3007 85.2375 51.3118 98.0926 51.3118C110.948 51.3118 121.368 45.2984 121.368 37.8823C121.368 30.4662 110.948 24.4528 98.0926 24.4528ZM98.0926 33.0786C102.687 33.0786 106.416 35.2304 106.416 37.8823C106.416 40.5342 102.692 42.6837 98.0926 42.6837C93.4933 42.6837 89.7669 40.5342 89.7669 37.8823C89.7669 35.2304 93.4957 33.0786 98.0926 33.0786Z" fill="white"/>
<path fill-rule="evenodd" clip-rule="evenodd" d="M98.0933 24.0457C91.5947 24.0457 85.7037 25.5694 81.4303 28.0352L81.4094 28.0492C77.0848 30.5499 74.4104 34.0253 74.4104 37.8823C74.4104 41.7392 77.0941 45.2263 81.4326 47.7293C85.7037 50.1928 91.5947 51.7189 98.0933 51.7189C104.592 51.7189 110.481 50.1928 114.752 47.7293C119.088 45.2263 121.771 41.7462 121.771 37.8823C121.771 34.0184 119.088 30.5359 114.752 28.0329C110.481 25.5694 104.589 24.0457 98.0909 24.0457H98.0933ZM81.8376 28.7354C85.99 26.3394 91.7367 24.8575 98.0933 24.8575C104.45 24.8575 110.197 26.3394 114.347 28.7354C118.431 31.0942 120.959 34.3301 120.959 37.8823C120.959 41.4345 118.431 44.6703 114.347 47.0268C110.194 49.4229 104.447 50.9047 98.0933 50.9047C91.739 50.9047 85.99 49.4229 81.8376 47.0268C77.7528 44.6703 75.225 41.4438 75.225 37.8823C75.225 34.3208 77.7435 31.1036 81.8167 28.747L81.8376 28.7354ZM98.0933 32.6715C100.463 32.6715 102.616 33.2297 104.182 34.1346C105.811 35.0652 106.822 36.4005 106.822 37.8823C106.822 39.3641 105.814 40.6877 104.182 41.6299C102.616 42.5325 100.458 43.0908 98.0933 43.0908C95.7285 43.0908 93.5708 42.5325 92.0044 41.6299C90.3751 40.6854 89.3626 39.3641 89.3626 37.8823C89.3626 36.4005 90.3728 35.0768 92.0044 34.1346C93.5708 33.2297 95.7285 32.6715 98.0933 32.6715ZM92.4094 34.8372C93.8548 34.0021 95.8635 33.4856 98.0933 33.4856C100.323 33.4856 102.327 34.0021 103.775 34.8372C105.155 35.6328 106.009 36.7122 106.009 37.8823C106.009 39.0524 105.155 40.1294 103.775 40.9274C102.327 41.7625 100.318 42.2766 98.0933 42.2766C95.8681 42.2766 93.8548 41.7625 92.4094 40.9274C91.0291 40.1294 90.1749 39.0524 90.1749 37.8823C90.1749 36.7122 91.0268 35.6328 92.4094 34.8372Z" fill="#3C3C3C"/>
<path fill-rule="evenodd" clip-rule="evenodd" d="M130.965 65.7788C130.973 65.8812 131.019 65.9768 131.094 66.0466C131.17 66.1164 131.268 66.1552 131.371 66.1552C131.474 66.1552 131.573 66.1164 131.648 66.0466C131.723 65.9768 131.77 65.8812 131.777 65.7788V51.7096C131.77 51.6072 131.723 51.5116 131.648 51.4418C131.573 51.372 131.474 51.3333 131.371 51.3333C131.268 51.3333 131.17 51.372 131.094 51.4418C131.019 51.5116 130.973 51.6072 130.965 51.7096V65.7788Z" fill="#3C3C3C"/>
<path fill-rule="evenodd" clip-rule="evenodd" d="M107.376 69.6802C107.384 69.7825 107.43 69.8782 107.505 69.948C107.581 70.0177 107.68 70.0565 107.782 70.0565C107.885 70.0565 107.984 70.0177 108.059 69.948C108.135 69.8782 108.181 69.7825 108.188 69.6802V55.611C108.181 55.5086 108.135 55.413 108.059 55.3432C107.984 55.2734 107.885 55.2346 107.782 55.2346C107.68 55.2346 107.581 55.2734 107.505 55.3432C107.43 55.413 107.384 55.5086 107.376 55.611V69.6802Z" fill="#3C3C3C"/>
<path d="M65 24L74 18.5L83 21.5L88.5 20L91.5 14.5H104.5L107.5 20L113 21.5L122.5 18.5L131.5 24M65 24L69.5 29L67.5 32L65 32.5M65 24V32.5M131.5 24L127 29L129.5 32.5L138.5 34V41.5M131.5 24V32M138.5 41.5L129 43.5L127 46.5L131.5 51.5M138.5 41.5V55.5L131.5 57M131.5 51.5L122.5 57M131.5 51.5V57M122.5 57L113 54.5M122.5 57V71M113 54.5L108 56M113 54.5V68.5M108 56L104.5 61M108 56V69.5M104.5 61H91.5M104.5 61V75M91.5 61L88.5 56M91.5 61V75M88.5 56L83 54.5M88.5 56V69.5M83 54.5L74 57M83 54.5V68.5M74 57L65 51.5M74 57V71M65 51.5L67.5 48.7222M65 51.5V57.5M67.5 43.5L69.5 46.5L67.5 48.7222M67.5 43.5L57.5 41.5M67.5 43.5V48.7222M57.5 41.5V34L65 32.5M57.5 41.5V56L65 57.5M74 71L65 66V57.5M74 71L83 68.5M83 68.5L88.5 69.5M88.5 69.5L91.5 75M91.5 75H104.5M104.5 75L108 69.5M108 69.5L113 68.5M113 68.5L122.5 71M122.5 71L131.5 66V57" stroke="#3B3B3B" stroke-width="1.5"/>
<path d="M121.5 38C121.5 41.6143 118.985 44.9789 114.719 47.4676C110.465 49.9491 104.555 51.5 98 51.5C91.4452 51.5 85.5354 49.9491 81.2814 47.4676C77.0151 44.9789 74.5 41.6143 74.5 38C74.5 34.3857 77.0151 31.0211 81.2814 28.5324C85.5354 26.0509 91.4452 24.5 98 24.5C104.555 24.5 110.465 26.0509 114.719 28.5324C118.985 31.0211 121.5 34.3857 121.5 38Z" stroke="#3C3C3C"/>
<path d="M115.5 37.5C115.5 40.1478 113.656 42.6374 110.476 44.4927C107.308 46.3409 102.898 47.5 98 47.5C93.102 47.5 88.6922 46.3409 85.524 44.4927C82.3435 42.6374 80.5 40.1478 80.5 37.5C80.5 34.8522 82.3435 32.3626 85.524 30.5073C88.6922 28.6591 93.102 27.5 98 27.5C102.898 27.5 107.308 28.6591 110.476 30.5073C113.656 32.3626 115.5 34.8522 115.5 37.5Z" stroke="#3C3C3C"/>
</svg>
