<svg width="87" height="138" viewBox="0 0 87 138" fill="none" xmlns="http://www.w3.org/2000/svg">
<path d="M68 123.5C68 131.508 55.2401 138 39.5 138C23.7599 138 11 131.508 11 123.5C11 119.022 14.99 115.018 21.26 112.358C26.2025 110.261 32.5617 109 39.5 109C55.2401 109 68 115.492 68 123.5Z" fill="#E8E8E8"/>
<path d="M87 104C87 108.418 78.9411 112 69 112C59.0589 112 51 108.418 51 104C51 101.529 53.52 99.3202 57.48 97.8527C60.6016 96.696 64.6179 96 69 96C78.9411 96 87 99.5817 87 104Z" fill="#E8E8E8"/>
<path fill-rule="evenodd" clip-rule="evenodd" d="M44.8994 107.259L50.8573 110.699C51.5299 101.749 57.0722 92.3356 64.7699 87.6811C67.9356 85.9443 71.2419 84.9249 74.6348 86.7006C72.1686 85.2777 68.5694 82.7098 66.0493 82.3959C63.4545 82.073 61.0361 83.0237 58.815 84.2403C51.1144 88.8978 45.575 98.3114 44.8994 107.259Z" fill="#2B7CFF"/>
<path fill-rule="evenodd" clip-rule="evenodd" d="M45.761 106.813L50.1704 109.36C50.758 105.004 52.2443 100.817 54.5349 97.0647C57.025 92.9424 60.412 89.3581 64.349 86.9696L64.3789 86.9516C66.035 86.0548 67.742 85.3164 69.4967 85.0504C69.7359 85.0145 69.975 84.9876 70.2142 84.9667C68.6866 84.0908 67.1531 83.3404 65.9513 83.191C64.7978 83.0606 63.6297 83.1684 62.5195 83.5078C61.3666 83.8645 60.256 84.3456 59.2073 84.9427H59.1834C55.5064 87.1878 52.3287 90.5658 49.9791 94.4579C47.6764 98.2092 46.2357 102.425 45.761 106.801V106.813ZM50.4484 111.405L44.5324 107.988C44.389 107.914 44.2703 107.801 44.1911 107.66C44.1119 107.52 44.0757 107.359 44.087 107.199C44.4367 102.562 46.054 97.8091 48.571 93.6269C51.0463 89.5255 54.4093 85.9562 58.3224 83.5676L58.4121 83.5108C59.5662 82.8577 60.7881 82.3325 62.0562 81.9444C63.3773 81.5413 64.7671 81.4131 66.1397 81.5677C68.283 81.8338 70.9944 83.5078 73.2933 84.9278C73.8911 85.3015 74.489 85.6572 75.036 85.9801C75.2251 86.0843 75.3651 86.2594 75.4251 86.4669C75.4851 86.6743 75.4602 86.8971 75.3559 87.0861C75.2517 87.2752 75.0766 87.4152 74.8691 87.4751C74.6617 87.5351 74.4389 87.5103 74.2498 87.406H74.217C72.8404 86.6846 71.2668 86.4297 69.7329 86.6796C68.1963 86.9158 66.6628 87.5764 65.1591 88.3955C61.4672 90.6405 58.2836 94.0215 55.9279 97.9227C53.5364 101.896 51.9969 106.395 51.6651 110.777C51.6569 110.9 51.62 111.02 51.5574 111.127C51.4453 111.309 51.2666 111.439 51.0594 111.491C50.8523 111.543 50.633 111.512 50.4484 111.405Z" fill="#414141"/>
<path fill-rule="evenodd" clip-rule="evenodd" d="M70.5684 67.0096C68.7569 65.9633 64.7152 63.2639 63.0621 63.0607C54.9907 62.0532 46.175 79.5262 53.0088 83.6635L58.9666 87.1042C51.4752 82.3511 62.7243 62.8962 70.5684 67.0096Z" fill="white"/>
<path fill-rule="evenodd" clip-rule="evenodd" d="M69.538 65.4372C70.085 65.772 70.5783 66.0709 70.9759 66.3011C71.1525 66.4116 71.2801 66.5854 71.3327 66.7869C71.3853 66.9885 71.3588 67.2026 71.2587 67.3852C71.1586 67.5679 70.9924 67.7054 70.7942 67.7695C70.596 67.8336 70.3808 67.8195 70.1926 67.73C67.8938 66.5343 65.1585 67.7659 62.8148 70.0857C60.4094 72.5247 58.6663 75.5375 57.7508 78.8386C56.9138 82.0312 57.2038 85.0176 59.4039 86.4137C59.5796 86.5299 59.7036 86.7095 59.7499 86.915C59.7962 87.1205 59.7612 87.3359 59.6524 87.5162C59.5435 87.6966 59.3691 87.8278 59.1657 87.8825C58.9623 87.9372 58.7456 87.9111 58.5609 87.8097C56.579 86.6707 54.5462 85.5348 52.5822 84.36C50.8423 83.3077 49.9754 81.541 49.7811 79.4394C49.5868 77.3379 50.0801 74.9225 51.0307 72.5638C51.9854 70.2076 53.3418 68.035 55.0395 66.1427C57.4011 63.5598 60.2918 61.8918 63.1586 62.2565C64.6204 62.4388 67.4633 64.1786 69.532 65.4461L69.538 65.4372ZM66.9372 65.766C65.3767 64.8423 63.7714 63.9724 62.9673 63.8707C60.6834 63.5718 58.277 65.0276 56.2531 67.2428C54.6844 68.992 53.4321 71.001 52.5523 73.1797C51.6883 75.3111 51.2429 77.4754 51.4103 79.2959C51.5538 80.8863 52.1816 82.2076 53.4222 82.9639L56.0409 84.4586C55.4998 82.6979 55.6044 80.5724 56.1754 78.4081C57.166 74.8256 59.0552 71.5555 61.6639 68.9078C63.2901 67.3145 65.1077 66.1576 66.9372 65.775V65.766Z" fill="#414141"/>
<path fill-rule="evenodd" clip-rule="evenodd" d="M74.6351 86.7007C69.1884 83.5559 60.3578 88.6588 54.9052 98.0903C52.5914 102.096 51.0877 106.571 50.8516 110.714L78.6827 94.6465C78.4436 90.7603 76.9489 88.0221 74.6351 86.7007Z" fill="white"/>
<path fill-rule="evenodd" clip-rule="evenodd" d="M74.2276 87.3914C71.7793 85.9774 68.5 86.4527 65.1818 88.3689L65.1399 88.3928C61.7021 90.3867 58.2643 93.9082 55.6157 98.482L55.5888 98.5238C54.4611 100.477 53.5423 102.543 52.8476 104.688C52.3682 106.159 52.023 107.671 51.8162 109.205L77.8448 94.1743C77.7395 92.7706 77.3704 91.3994 76.7567 90.1326C76.2036 88.9892 75.3274 88.0331 74.2366 87.3824L74.2276 87.3914ZM64.3627 86.9579C68.1831 84.7517 72.0424 84.2674 75.0378 85.9804C76.4032 86.7841 77.5037 87.9698 78.2035 89.3913C78.9872 91.0117 79.4289 92.7762 79.5009 94.5748C79.5092 94.7257 79.4756 94.8759 79.4039 95.0088C79.3321 95.1418 79.225 95.2523 79.0944 95.3282L51.2931 111.372C51.1475 111.469 50.9742 111.515 50.7998 111.504C50.693 111.498 50.5884 111.471 50.4919 111.425C50.3954 111.379 50.309 111.314 50.2376 111.234C50.1663 111.154 50.1113 111.062 50.076 110.961C50.0406 110.86 50.0255 110.753 50.0316 110.646C50.1746 108.446 50.5954 106.274 51.2841 104.18C52.0142 101.926 52.9802 99.7557 54.1659 97.7048L54.1898 97.6569C56.9729 92.838 60.6349 89.1103 64.3059 86.9788L64.3627 86.9579Z" fill="#414141"/>
<path fill-rule="evenodd" clip-rule="evenodd" d="M72.9701 72.3187C72.9701 69.7029 72.0523 67.8645 70.5786 67.0095C69.1048 66.1545 67.0391 66.2771 64.7762 67.5835C62.5132 68.8898 60.4595 71.1349 58.9768 73.7057C57.494 76.2766 56.5703 79.1763 56.5703 81.7771C56.5703 84.3778 57.491 86.2313 58.9768 87.0892C64.1155 90.0756 72.9701 80.7218 72.9701 72.3187Z" fill="white"/>
<path fill-rule="evenodd" clip-rule="evenodd" d="M72.1663 72.3185C72.1928 71.3153 72.0064 70.3178 71.6192 69.3919C71.3405 68.6851 70.8306 68.0936 70.1727 67.7136C69.5148 67.3336 68.7476 67.1876 67.9961 67.2993C67.0009 67.4266 66.0441 67.7639 65.1891 68.2888C64.0932 68.939 63.0974 69.7446 62.2326 70.6804C60.2691 72.7736 58.81 75.2879 57.9667 78.0312V78.0611C57.5993 79.2671 57.405 80.5193 57.3898 81.7799C57.3636 82.7841 57.5501 83.7824 57.9368 84.7095C58.2302 85.4072 58.7366 85.9942 59.3837 86.3866C59.9193 86.69 60.5259 86.8458 61.1415 86.8379C62.5644 86.8379 64.1637 86.1086 65.6883 84.9068C67.4009 83.512 68.8393 81.8111 69.9302 79.8906C71.2844 77.544 72.1633 74.8744 72.1633 72.3066L72.1663 72.3185ZM73.108 68.7313C73.5887 69.865 73.8251 71.0873 73.8015 72.3185C73.8015 75.1824 72.8329 78.1389 71.3442 80.7187C70.1503 82.8167 68.576 84.674 66.7017 86.1953C64.9081 87.6212 62.947 88.4851 61.1444 88.4851C60.2417 88.4925 59.3533 88.2593 58.5706 87.8095C57.6264 87.2483 56.8852 86.4013 56.4541 85.3911C55.9706 84.2581 55.7331 83.0354 55.7576 81.8038C55.7724 80.3849 55.9909 78.9755 56.4063 77.6187V77.5858C57.321 74.5915 58.9067 71.8453 61.0428 69.5563C62.0164 68.5125 63.1337 67.6126 64.361 66.8838C65.4196 66.2451 66.6014 65.8376 67.8287 65.6881C68.9195 65.5422 70.028 65.7613 70.9813 66.3112C71.9346 66.8611 72.6792 67.711 73.099 68.7283L73.108 68.7313Z" fill="#414141"/>
<path fill-rule="evenodd" clip-rule="evenodd" d="M29.2913 108.15C32.4541 106.416 35.7634 105.393 39.1563 107.169C36.6901 105.746 33.0908 103.178 30.5708 102.864C27.976 102.541 25.5576 103.492 23.3335 104.712C15.6358 109.384 10.0935 118.795 9.4209 127.73L15.3668 131.183C16.0514 122.235 21.5937 112.822 29.2913 108.15Z" fill="#2B7CFF"/>
<path fill-rule="evenodd" clip-rule="evenodd" d="M28.9008 107.435C30.5569 106.538 32.2609 105.803 34.0186 105.537C34.2548 105.501 34.4939 105.471 34.7361 105.453C33.2055 104.574 31.672 103.824 30.4732 103.677C29.3209 103.54 28.1526 103.641 27.0414 103.976C25.8883 104.332 24.7776 104.814 23.7292 105.411H23.7053C20.0253 107.659 16.8506 111.034 14.498 114.926C12.1983 118.68 10.7579 122.896 10.2799 127.273L14.6923 129.819C15.2767 125.462 16.7632 121.275 19.0568 117.524C21.5469 113.402 24.9309 109.817 28.8709 107.429L28.9008 107.408V107.435ZM34.2608 107.151C32.7242 107.384 31.1907 108.048 29.684 108.867C25.9951 111.109 22.8085 114.493 20.4558 118.394C18.0643 122.364 16.5218 126.866 16.193 131.248C16.1819 131.369 16.1452 131.487 16.0853 131.592C15.9772 131.779 15.7994 131.915 15.591 131.971C15.3826 132.027 15.1605 131.998 14.9733 131.891L9.07224 128.486C8.92321 128.416 8.7991 128.302 8.71635 128.159C8.63361 128.017 8.59612 127.852 8.60889 127.688C8.95566 123.052 10.5729 118.298 13.093 114.113C15.5771 110.018 18.9551 106.431 22.8413 104.054L22.931 103.997C24.0841 103.341 25.3063 102.815 26.5751 102.428C27.8961 102.024 29.2862 101.897 30.6586 102.054C32.799 102.32 35.5104 103.994 37.8122 105.414C38.4101 105.785 39.0079 106.144 39.552 106.463C39.7286 106.574 39.8563 106.748 39.9089 106.949C39.9614 107.151 39.935 107.365 39.8348 107.548C39.7347 107.73 39.5685 107.868 39.3703 107.932C39.1721 107.996 38.9569 107.982 38.7688 107.892L38.7359 107.874C37.3622 107.154 35.7915 106.9 34.2608 107.151Z" fill="#414141"/>
<path fill-rule="evenodd" clip-rule="evenodd" d="M35.0967 87.4928C33.2881 86.4465 29.2465 83.7501 27.5933 83.5438C19.522 82.5394 10.7063 100.009 17.54 104.15L23.4949 107.587C15.9975 102.843 27.2466 83.3824 35.0967 87.4928Z" fill="white"/>
<path fill-rule="evenodd" clip-rule="evenodd" d="M34.0595 85.9203C34.6066 86.2551 35.0968 86.5571 35.4974 86.7872C35.678 86.8961 35.8095 87.0706 35.8642 87.2743C35.919 87.4779 35.8928 87.6949 35.7911 87.8796C35.6895 88.0644 35.5202 88.2026 35.3189 88.2653C35.1176 88.3281 34.8998 88.3104 34.7112 88.2161C32.4124 87.0204 29.6801 88.249 27.3334 90.5688C24.9309 93.0108 23.1892 96.024 22.2724 99.3247C21.4353 102.517 21.7253 105.504 23.9255 106.9C24.0978 107.018 24.2185 107.197 24.2625 107.401C24.3066 107.605 24.2707 107.819 24.1623 107.997C24.054 108.176 23.8813 108.306 23.6798 108.361C23.4784 108.416 23.2636 108.391 23.0795 108.293C21.4473 107.345 18.4878 105.877 17.1007 104.846C15.3609 103.791 14.494 102.027 14.2997 99.9256C14.1054 97.824 14.5986 95.4056 15.5492 93.05C16.5033 90.6932 17.8586 88.5197 19.555 86.6258C21.9166 84.043 24.8103 82.3749 27.6742 82.7396C29.139 82.919 31.9819 84.6618 34.0505 85.9263L34.0595 85.9203ZM31.4557 86.2521C29.8953 85.3284 28.29 84.4585 27.4858 84.3539C25.2019 84.0729 22.7985 85.5108 20.7717 87.7289C19.2023 89.4777 17.95 91.4868 17.0708 93.6658C16.2069 95.7973 15.7615 97.9616 15.9289 99.7821C16.0754 101.369 16.7001 102.688 17.9377 103.444L20.5624 104.957C20.0214 103.196 20.126 101.071 20.694 98.9092C21.6868 95.3261 23.5768 92.0553 26.1855 89.406C27.8087 87.7977 29.6262 86.6408 31.4557 86.2521Z" fill="#414141"/>
<path fill-rule="evenodd" clip-rule="evenodd" d="M39.1577 107.169C33.711 104.024 24.8804 109.127 19.4278 118.558C17.117 122.573 15.6133 127.057 15.3682 131.183L43.1993 115.115C42.9751 111.243 41.4715 108.505 39.1577 107.169Z" fill="white"/>
<path fill-rule="evenodd" clip-rule="evenodd" d="M38.7504 107.874C36.2991 106.46 33.0228 106.939 29.7045 108.852L29.6627 108.876C26.2249 110.873 22.7871 114.394 20.1355 118.968L20.1116 119.01C18.9827 120.961 18.0638 123.026 17.3703 125.171C16.8895 126.643 16.5443 128.156 16.339 129.691L42.3466 114.669C42.2419 113.265 41.8716 111.894 41.2555 110.628C40.7027 109.484 39.8278 108.527 38.7384 107.874H38.7504ZM28.8854 107.441C32.7029 105.238 36.5652 104.736 39.5575 106.463C40.924 107.27 42.0236 108.46 42.7203 109.886C43.5041 111.506 43.9467 113.269 44.0207 115.067C44.0283 115.218 43.9942 115.368 43.9219 115.501C43.8497 115.634 43.7421 115.744 43.6111 115.82L15.8099 131.864C15.6839 131.948 15.5371 131.995 15.3859 132C15.2348 132.004 15.0853 131.967 14.9542 131.892C14.8232 131.816 14.7158 131.706 14.6441 131.572C14.5724 131.439 14.5392 131.289 14.5484 131.138C14.6963 128.936 15.1222 126.761 15.8159 124.666C16.5483 122.412 17.5152 120.242 18.7006 118.191L18.7245 118.143C21.5076 113.327 25.1696 109.599 28.8406 107.465L28.8854 107.441Z" fill="#414141"/>
<path fill-rule="evenodd" clip-rule="evenodd" d="M37.4893 92.8049C37.4893 90.1892 36.5716 88.3507 35.0978 87.4927C33.624 86.6348 31.5613 86.7603 29.2984 88.0667C27.0354 89.373 24.9787 91.6211 23.496 94.1919C22.0133 96.7628 21.1045 99.6625 21.1045 102.263C21.1045 104.864 22.0252 106.717 23.496 107.572C28.6377 110.562 37.4893 101.217 37.4893 92.8049Z" fill="white"/>
<path fill-rule="evenodd" clip-rule="evenodd" d="M36.6751 92.8051C36.7004 91.8007 36.5129 90.8023 36.1251 89.8755C35.8478 89.1683 35.3386 88.5761 34.681 88.196C34.0233 87.8159 33.2561 87.6702 32.5049 87.7829C31.5091 87.9098 30.5515 88.246 29.6949 88.7694C28.6009 89.4223 27.6054 90.2275 26.7384 91.1609C24.777 93.2589 23.3227 95.7788 22.4875 98.5267C22.1104 99.7424 21.9091 101.006 21.8896 102.278C21.8634 103.282 22.0499 104.279 22.4367 105.205C22.73 105.903 23.2364 106.49 23.8835 106.882C24.4174 107.187 25.0233 107.344 25.6383 107.336C27.0642 107.336 28.6606 106.607 30.1881 105.402C31.9006 104.007 33.339 102.307 34.4301 100.386L34.454 100.347C35.7932 98.0126 36.6631 95.358 36.6631 92.8051H36.6751ZM37.6138 89.2178C38.0965 90.3509 38.333 91.5737 38.3073 92.8051C38.3073 95.648 37.3537 98.5865 35.8769 101.157L35.853 101.205C34.6578 103.302 33.0836 105.159 31.2105 106.682C29.4169 108.108 27.4558 108.972 25.6532 108.972C24.7511 108.979 23.8634 108.745 23.0824 108.293C22.1375 107.733 21.3951 106.887 20.9629 105.878C20.4807 104.744 20.2444 103.522 20.2694 102.29C20.2849 100.861 20.5064 99.4415 20.927 98.0753C21.8381 95.081 23.4232 92.3352 25.5606 90.0488C26.5333 88.9978 27.6518 88.0918 28.8818 87.3584C29.9406 86.7201 31.1223 86.3126 32.3495 86.1626C33.4402 86.0176 34.5482 86.2375 35.5009 86.7879C36.4537 87.3384 37.1976 88.1885 37.6168 89.2058L37.6138 89.2178Z" fill="#414141"/>
<path fill-rule="evenodd" clip-rule="evenodd" d="M30.5804 37.8659C30.5804 36.8017 30.5624 36.2846 30.9421 35.2622C31.4265 33.895 32.3492 32.7263 33.5668 31.938L69.553 11.1797C69.9147 10.9734 70.7487 10.4533 71.1672 10.2829C71.5862 10.0966 72.0551 10.0545 72.5005 10.1633L66.5725 6.74048C66.2301 6.65482 65.871 6.66203 65.5322 6.76139C65.2722 6.83909 65.0223 6.94749 64.7879 7.08426L28.8017 27.8395C28.3742 28.0877 27.6059 28.5032 27.1874 28.8111C25.7704 29.8813 24.6733 31.8991 24.6524 33.6838V64.4745C24.6502 64.7442 24.7019 65.0117 24.8046 65.2612C24.9073 65.5107 25.0588 65.7372 25.2503 65.9273L25.3011 65.9751L31.2111 69.398C31.0061 69.2073 30.8432 68.9758 30.733 68.7183C30.6228 68.4609 30.5678 68.1833 30.5714 67.9033L30.5804 37.8659Z" fill="#2B7CFF"/>
<path fill-rule="evenodd" clip-rule="evenodd" d="M29.7639 37.866V37.7315C29.7639 36.6643 29.7639 36.0963 30.1795 34.9813C30.47 34.196 30.8826 33.4616 31.4021 32.805C31.8856 32.1785 32.4805 31.6464 33.1569 31.2356C45.0636 24.8861 57.7326 17.2273 69.4181 10.3099C69.6662 10.1604 69.9801 9.97508 70.2761 9.81366L66.2524 7.4909H66.1358C66.0066 7.49452 65.8783 7.51255 65.7531 7.54469C65.6603 7.57141 65.5695 7.60439 65.4811 7.64336C53.5804 13.661 40.6692 21.9924 28.8881 28.7275C28.4767 28.9502 28.0776 29.1947 27.6923 29.4599C27.0332 29.9803 26.4955 30.6383 26.1169 31.388C25.7312 32.0952 25.5143 32.882 25.4832 33.6869V64.4775C25.4825 64.6486 25.515 64.8181 25.5788 64.9767L25.5967 65.0246C25.6517 65.1345 25.7233 65.2354 25.809 65.3235L29.7819 67.6164V37.863L29.7639 37.866ZM31.3961 37.7315V67.8974C31.3965 68.0695 31.43 68.2401 31.4948 68.3996C31.5661 68.5556 31.6678 68.6958 31.7937 68.8121C31.937 68.9497 32.025 69.1348 32.0412 69.3328C32.0573 69.5307 32.0004 69.7277 31.8812 69.8866C31.762 70.0455 31.5889 70.1553 31.3943 70.1953C31.1998 70.2352 30.9973 70.2026 30.8252 70.1035L24.9361 66.7046C24.8637 66.6678 24.7972 66.6205 24.7388 66.5641L24.679 66.5103C24.4285 66.2671 24.2257 65.9791 24.0811 65.6613L24.0453 65.5836C23.9044 65.234 23.8323 64.8604 23.833 64.4835V33.6929C23.8654 32.6279 24.1447 31.5851 24.6491 30.6467C25.1411 29.6817 25.8379 28.8359 26.6909 28.1684C27.1361 27.8583 27.5992 27.5749 28.0779 27.3195C39.9966 20.6053 52.7792 13.5205 64.378 6.39378C64.5305 6.31008 64.677 6.23535 64.8145 6.17257C64.9761 6.10451 65.1419 6.04661 65.3107 5.9992C65.5671 5.92958 65.8313 5.89242 66.0969 5.88859C66.3592 5.87574 66.6214 5.91538 66.8682 6.00518L66.9728 6.05598L72.8529 9.45192C73.0358 9.53867 73.1797 9.69052 73.2566 9.87774C73.3334 10.065 73.3377 10.2741 73.2686 10.4643C73.1994 10.6545 73.0619 10.8121 72.8827 10.9062C72.7036 11.0004 72.4958 11.0244 72.2999 10.9735C72.1699 10.942 72.0356 10.9319 71.9023 10.9436C71.7522 10.9625 71.6054 11.0018 71.4658 11.0602C71.2028 11.1678 70.6288 11.5056 70.2372 11.7358C58.5009 18.5576 45.2609 25.4272 33.976 32.6615C33.4736 32.9703 33.031 33.3673 32.6696 33.8334C32.2602 34.3585 31.9336 34.9432 31.7011 35.5672C31.4483 36.2591 31.3444 36.9966 31.3961 37.7315Z" fill="#414141"/>
<path fill-rule="evenodd" clip-rule="evenodd" d="M56.7166 56.3853C63.8912 52.6665 66.6802 55.8981 71.242 58.457C71.2839 54.6844 71.3796 51.1719 70.5545 47.9463L70.701 47.8626C72.3451 46.915 73.6903 44.5892 73.6903 42.688C73.6903 35.2833 73.6903 19.6428 73.6903 12.2381C73.6903 10.3399 72.3511 9.54769 70.701 10.5103L33.5519 31.9382C31.9077 32.8858 30.5625 35.2265 30.5625 37.1128V37.8661V67.9005C30.5609 68.2626 30.6549 68.6188 30.8349 68.9331C31.0148 69.2474 31.2745 69.5086 31.5877 69.6905C31.9009 69.8724 32.2565 69.9686 32.6187 69.9692C32.9808 69.9698 33.3367 69.8749 33.6505 69.6941L56.7166 56.3853Z" fill="white"/>
<path fill-rule="evenodd" clip-rule="evenodd" d="M56.3435 55.6618C62.8155 52.3047 65.9304 54.2388 69.6612 56.5586L70.4444 57.0429C70.4773 53.8621 70.4623 50.8817 69.7658 48.1494C69.719 47.9685 69.736 47.777 69.8139 47.6071C69.8917 47.4373 70.0257 47.2994 70.1933 47.2167L70.3338 47.136C71.0687 46.6387 71.6797 45.9792 72.1197 45.2086C72.5598 44.4379 72.817 43.5766 72.8718 42.6908V12.241C72.8851 11.9126 72.8141 11.5864 72.6655 11.2933L72.6476 11.2604C72.5871 11.1589 72.5017 11.0745 72.3995 11.0153C72.2864 10.9521 72.1582 10.9211 72.0288 10.9256C71.7 10.943 71.3816 11.046 71.105 11.2246L33.959 32.6524C33.216 33.1507 32.5972 33.8126 32.1499 34.5874C31.7027 35.3621 31.439 36.229 31.3791 37.1216V67.9123C31.3785 68.1309 31.4341 68.346 31.5405 68.537L31.5615 68.5729C31.672 68.7469 31.824 68.8907 32.0039 68.9914L32.0368 69.0093C32.2197 69.1109 32.4254 69.1643 32.6347 69.1648C32.8545 69.1623 33.0698 69.1025 33.2594 68.9914L56.3494 55.6737L56.3435 55.6618ZM68.7972 57.9427C65.5089 55.8919 62.7378 54.179 57.0878 57.1086L34.0696 70.3904C33.6441 70.6436 33.1592 70.7797 32.6641 70.7849C32.169 70.7902 31.6813 70.6644 31.2506 70.4203L31.1968 70.3904C30.7766 70.1503 30.4239 69.8079 30.1714 69.395L30.1385 69.3412C29.8859 68.9031 29.7538 68.406 29.7559 67.9003V37.1096C29.7975 35.9256 30.139 34.7715 30.7484 33.7555C31.3219 32.7211 32.1516 31.8512 33.1578 31.2295L70.3039 9.80161C70.8268 9.48158 71.4249 9.30525 72.0377 9.29043C72.4562 9.27799 72.8701 9.38144 73.2335 9.58937C73.5744 9.78921 73.8592 10.072 74.0615 10.4115L74.0914 10.4622C74.388 11.0018 74.5355 11.6106 74.5189 12.226V42.6759C74.4831 43.86 74.1434 45.015 73.5324 46.0299C73.0255 46.9266 72.3336 47.7052 71.5026 48.3138C72.1573 51.2733 72.1184 54.4241 72.0796 57.7842V58.4C72.086 58.5543 72.0498 58.7074 71.9749 58.8425C71.9229 58.9361 71.8529 59.0185 71.769 59.085C71.685 59.1514 71.5887 59.2007 71.4856 59.2299C71.3826 59.259 71.2748 59.2675 71.1684 59.2549C71.0621 59.2423 70.9593 59.2088 70.8659 59.1563C70.1215 58.7647 69.4489 58.3462 68.7972 57.9427Z" fill="#414141"/>
<path fill-rule="evenodd" clip-rule="evenodd" d="M7.36523 33.1546C7.38615 31.0979 8.75529 28.7273 10.525 27.678L48.6068 5.71203C49.6561 5.11415 50.7681 4.21736 51.9579 4.73154C51.1179 4.24427 45.5725 0.976851 45.1779 0.863254C44.0928 0.564316 42.9568 1.41628 42.06 1.93344L5.20391 23.191C3.53583 24.1536 2.62706 24.6199 1.63757 26.4464C1.12922 27.3416 0.846067 28.347 0.8125 29.376V61.5986C0.8125 62.31 1.00382 63.159 1.63458 63.5746L3.85569 64.857C3.28771 68.4443 3.35049 71.7087 3.38935 75.3019L9.93611 79.0835C9.89127 74.6652 9.82549 71.5323 10.6715 67.1259L7.35926 65.2157L7.36523 33.1546Z" fill="white"/>
<path fill-rule="evenodd" clip-rule="evenodd" d="M6.54775 33.1518C6.60784 31.9139 6.96217 30.7082 7.58135 29.6347C8.20053 28.5611 9.06672 27.6506 10.1081 26.9787L48.1988 5.00674L48.6353 4.74666C48.9342 4.57328 49.2063 4.39692 49.5022 4.24447C47.6159 3.14138 45.1317 1.70048 44.9524 1.64667H44.9015C44.3306 1.52112 43.5593 1.99045 42.9016 2.39103C30.6123 9.77779 17.8476 16.8746 5.39684 24.0342C3.99482 24.8413 3.19365 25.3017 2.35663 26.8472C2.13062 27.2644 1.94926 27.7043 1.81555 28.1595C1.69984 28.5622 1.63752 28.9783 1.63021 29.3972L1.61527 61.5898C1.61188 61.896 1.66562 62.2001 1.77371 62.4866C1.83387 62.6447 1.93751 62.7825 2.07265 62.8842L4.2519 64.1398C4.3947 64.2223 4.50912 64.3462 4.58009 64.4951C4.65107 64.644 4.67527 64.8109 4.6495 64.9738C4.12038 68.3309 4.15325 71.4428 4.18912 74.8178L9.0977 77.6518C9.06482 74.0645 9.09769 71.2306 9.75535 67.5207L6.94534 65.9005C6.82078 65.8297 6.71724 65.727 6.64529 65.6031C6.57334 65.4791 6.53556 65.3383 6.5358 65.195V33.1398L6.54775 33.1518ZM8.99306 30.4614C8.4978 31.2834 8.21717 32.2168 8.17697 33.1757V64.7526L11.0228 66.3967C11.1876 66.4741 11.3217 66.6046 11.4035 66.7672C11.4854 66.9297 11.5103 67.1151 11.4742 67.2935C10.6701 71.4787 10.703 74.5219 10.7478 78.6532V79.0508C10.7591 79.2116 10.7216 79.372 10.6402 79.5112C10.5866 79.604 10.5153 79.6854 10.4303 79.7507C10.3452 79.816 10.2482 79.8639 10.1446 79.8916C10.0411 79.9194 9.93307 79.9265 9.82678 79.9125C9.7205 79.8985 9.61802 79.8637 9.52518 79.8101L2.97842 76.0285C2.85605 75.9572 2.75445 75.8551 2.68366 75.7324C2.61288 75.6097 2.57537 75.4707 2.57486 75.329V74.8896C2.53899 71.6192 2.5061 68.591 2.97244 65.3056L1.17881 64.2773C0.774087 63.9969 0.461908 63.6025 0.281994 63.1443C0.0949299 62.6599 -0.000360296 62.1449 0.000990729 61.6257V29.3972C0.00887321 28.8318 0.091296 28.2699 0.246122 27.7261C0.409149 27.1549 0.634719 26.6035 0.918734 26.0819C1.97399 24.1328 2.92462 23.5858 4.58671 22.6292C17.0345 15.4726 29.7514 8.37577 42.0527 1.00694C42.9883 0.435967 44.0854 -0.233648 45.3171 0.0802377L45.3978 0.0981916C45.8223 0.217767 49.55 2.39702 51.4244 3.49413L52.369 4.04416C52.5394 4.145 52.6674 4.30411 52.7295 4.49206C52.7916 4.68001 52.7836 4.88408 52.7068 5.06655C52.6657 5.16546 52.6053 5.2552 52.5293 5.33064C52.4532 5.40607 52.3629 5.46567 52.2637 5.50598C52.1644 5.54629 52.0582 5.56652 51.951 5.5655C51.8439 5.56447 51.7381 5.5422 51.6396 5.49999C51.0059 5.23394 50.2256 5.70625 49.4843 6.15764L49.0119 6.43866L10.9392 28.4017C10.1304 28.9107 9.46153 29.6135 8.99306 30.4464V30.4614Z" fill="#414141"/>
<path fill-rule="evenodd" clip-rule="evenodd" d="M10.6624 67.1172L8.40542 67.4879L2.72559 64.2175L3.83464 64.8573L3.81969 64.9559C3.29954 68.4804 3.32943 71.7627 3.36829 75.3022L9.91505 79.0837C9.8732 75.075 9.85228 71.5086 10.5727 67.5298L10.6624 67.1172Z" fill="white"/>
<path fill-rule="evenodd" clip-rule="evenodd" d="M9.65798 68.1097L8.53696 68.2921C8.33875 68.3263 8.13492 68.2846 7.96597 68.1755L4.4953 66.1726C4.33388 67.5208 4.25017 68.8331 4.19636 70.1455C4.14853 71.691 4.1575 73.2365 4.17544 74.8299L9.084 77.6638C9.084 76.1691 9.084 74.7073 9.1408 73.2634C9.20638 71.5371 9.37407 69.8162 9.64301 68.1097H9.65798ZM8.56086 66.6389L10.483 66.322C10.5925 66.2996 10.7054 66.2996 10.8149 66.322C10.9203 66.3421 11.0208 66.3828 11.1105 66.4418C11.2003 66.5008 11.2775 66.5769 11.3377 66.6657C11.398 66.7546 11.4401 66.8545 11.4617 66.9597C11.4833 67.0648 11.4839 67.1733 11.4636 67.2787L11.3858 67.6882C11.0558 69.5534 10.856 71.4393 10.788 73.3322C10.7072 75.2005 10.7222 77.0659 10.7431 79.0389C10.7544 79.1997 10.7169 79.3601 10.6355 79.4993C10.5819 79.5921 10.5106 79.6735 10.4256 79.7388C10.3405 79.8041 10.2435 79.852 10.1399 79.8797C10.0364 79.9075 9.92837 79.9146 9.82208 79.9006C9.71579 79.8866 9.61329 79.8518 9.52046 79.7982L2.9737 76.0166C2.85133 75.9453 2.74972 75.8432 2.67894 75.7205C2.60815 75.5978 2.57065 75.4588 2.57014 75.3171C2.54921 73.5235 2.53426 71.8195 2.58508 70.1096C2.62656 68.4997 2.75329 66.8932 2.96474 65.2967L2.33398 64.932L3.1441 63.521L8.56385 66.6479L8.56086 66.6389ZM4.2711 64.1637L4.65076 64.9858C4.67652 64.8265 4.65415 64.6632 4.58651 64.5168C4.51888 64.3703 4.40904 64.2474 4.2711 64.1637Z" fill="#414141"/>
<path fill-rule="evenodd" clip-rule="evenodd" d="M8.41646 29.8336L1.86672 26.052L0.814453 29.3762L0.993809 62.7407C1.37944 63.7242 2.48851 64.083 3.84569 64.8572C3.27771 68.4744 3.34049 71.679 3.37935 75.3021L9.92609 79.0837C9.88125 74.6504 9.8125 71.5534 10.6615 67.1261L7.34924 65.2159C7.34924 60.9321 7.07422 33.5942 7.55551 31.8006L8.41646 29.8336Z" fill="#2B7CFF"/>
<path fill-rule="evenodd" clip-rule="evenodd" d="M7.37664 30.1715L2.34251 27.2658L1.63103 29.5078L1.80741 62.5585C2.04058 62.971 2.62053 63.2759 3.34097 63.6556L3.38281 63.6795C3.65185 63.82 3.93884 63.9784 4.25273 64.1518C4.39498 64.2342 4.50906 64.3576 4.58 64.5059C4.65094 64.6542 4.67545 64.8204 4.65032 64.9828C4.1212 68.3579 4.15407 71.4011 4.18994 74.7821V74.8299L9.09852 77.6638C9.06564 74.0766 9.09851 71.2606 9.75617 67.5328L6.94616 65.9125C6.8216 65.8417 6.71806 65.739 6.64611 65.6151C6.57416 65.4912 6.53638 65.3504 6.53662 65.2071L6.51569 60.6333C6.45889 51.4589 6.35127 33.131 6.76679 31.5795L6.80865 31.4629L7.37664 30.1715ZM2.27376 25.3466L8.7637 29.0923C8.95673 29.1834 9.10662 29.3461 9.18143 29.546C9.25625 29.7459 9.2501 29.9671 9.16428 30.1625L8.33322 32.0518C7.98347 33.7288 8.0911 51.6233 8.14192 60.6273L8.16582 64.7377L11.0117 66.3819C11.1765 66.4593 11.3105 66.5897 11.3924 66.7523C11.4742 66.9149 11.4991 67.1003 11.4631 67.2787C10.662 71.4638 10.6919 74.4532 10.7367 78.5786V79.0838C10.7362 79.2264 10.6984 79.3665 10.6271 79.49C10.5559 79.6136 10.4536 79.7164 10.3303 79.7883C10.2071 79.8602 10.0672 79.8986 9.9246 79.8998C9.78195 79.9011 9.64146 79.865 9.51703 79.7953L2.98523 76.0227C2.85725 75.9545 2.75017 75.8529 2.67542 75.7286C2.60066 75.6044 2.56101 75.4622 2.56072 75.3172V74.8C2.52485 71.5386 2.49197 68.5851 2.95832 65.3027L2.58165 65.1054C1.49651 64.5344 0.64155 64.086 0.234994 63.0397C0.19917 62.9442 0.180942 62.8429 0.181187 62.7408L0.00181297 29.4391C-0.00494333 29.3381 0.00722127 29.2367 0.0376841 29.1401L1.08995 25.8189L1.1617 25.6575C1.21426 25.5641 1.28474 25.4818 1.36909 25.4156C1.45345 25.3494 1.55001 25.3005 1.65329 25.2716C1.75657 25.2427 1.86452 25.2345 1.97099 25.2474C2.07745 25.2602 2.18034 25.294 2.27376 25.3466Z" fill="#414141"/>
<path fill-rule="evenodd" clip-rule="evenodd" d="M66.0676 22.3572C66.1605 22.2968 66.2646 22.256 66.3738 22.2372C66.4829 22.2184 66.5947 22.222 66.7024 22.2478C66.8101 22.2736 66.9114 22.321 67.0002 22.3872C67.089 22.4534 67.1633 22.537 67.2188 22.6329C67.2742 22.7287 67.3096 22.8349 67.3227 22.9448C67.3358 23.0548 67.3264 23.1662 67.2951 23.2724C67.2637 23.3787 67.2111 23.4774 67.1404 23.5626C67.0697 23.6478 66.9824 23.7178 66.8837 23.7681L53.5302 31.4808C53.3435 31.5819 53.1248 31.6064 52.9204 31.5489C52.716 31.4914 52.5421 31.3566 52.4355 31.173C52.3289 30.9894 52.2981 30.7715 52.3495 30.5655C52.401 30.3595 52.5307 30.1817 52.7111 30.0698L66.0676 22.3572Z" fill="#414141"/>
<path fill-rule="evenodd" clip-rule="evenodd" d="M63.8967 31.2207C63.9895 31.1603 64.0937 31.1195 64.2028 31.1007C64.3119 31.0819 64.4237 31.0855 64.5314 31.1113C64.6391 31.1371 64.7404 31.1845 64.8292 31.2507C64.918 31.3169 64.9924 31.4005 65.0478 31.4964C65.1033 31.5922 65.1386 31.6984 65.1517 31.8083C65.1648 31.9183 65.1554 32.0298 65.1241 32.136C65.0927 32.2422 65.0401 32.3409 64.9694 32.4261C64.8987 32.5113 64.8114 32.5813 64.7128 32.6317L53.5205 39.0947C53.3343 39.1899 53.1187 39.2099 52.9181 39.1507C52.7176 39.0915 52.5474 38.9576 52.4427 38.7766C52.338 38.5956 52.3067 38.3813 52.3555 38.1779C52.4042 37.9746 52.5291 37.7977 52.7044 37.6837L63.8967 31.2207Z" fill="#414141"/>
<path fill-rule="evenodd" clip-rule="evenodd" d="M38.1981 56.0116C38.0109 56.119 37.7888 56.1477 37.5806 56.0914C37.3723 56.0351 37.1949 55.8983 37.0875 55.7112C36.9801 55.524 36.9514 55.302 37.0077 55.0937C37.0641 54.8854 37.2008 54.708 37.3879 54.6006L66.0651 38.0544C66.252 37.9559 66.4698 37.9336 66.6727 37.9924C66.8756 38.0512 67.0478 38.1864 67.1531 38.3695C67.2584 38.5526 67.2886 38.7694 67.2373 38.9744C67.1861 39.1793 67.0573 39.3564 66.8782 39.4683L38.1981 56.0116Z" fill="#414141"/>
<path fill-rule="evenodd" clip-rule="evenodd" d="M52.9828 39.3699C52.9828 31.4301 52.9828 14.7732 52.9828 6.83341C52.9828 4.82155 51.5628 4.00246 49.823 5.00391L10.5126 27.6784C8.77279 28.6858 7.35283 31.1431 7.35283 33.155L7.33789 65.3805C7.33789 67.3864 8.75785 68.2115 10.4977 67.207L10.6501 67.1173C9.7802 71.5267 9.87588 75.1319 9.91474 79.0749C11.1852 76.9016 12.4467 74.7373 13.6963 72.5551C21.669 58.6335 37.3124 51.6293 49.7184 44.8853C50.6837 44.3245 51.4767 43.5098 52.0112 42.5297C52.6129 41.5827 52.9485 40.4913 52.9828 39.3699Z" fill="white"/>
<path fill-rule="evenodd" clip-rule="evenodd" d="M52.1662 39.3696V6.83308C52.1794 6.47817 52.1033 6.12564 51.9449 5.80774C51.8735 5.67949 51.7706 5.57147 51.646 5.49384C51.5214 5.42536 51.3816 5.38939 51.2395 5.38922C50.8866 5.40215 50.5429 5.50505 50.241 5.68816L10.9306 28.3656C10.1333 28.896 9.46984 29.6039 8.99215 30.4337C8.51445 31.2636 8.23558 32.1929 8.17738 33.1486V65.3742C8.16287 65.7292 8.239 66.0821 8.39859 66.3995C8.46662 66.5294 8.57023 66.6371 8.69729 66.7102C8.82436 66.7833 8.96963 66.8186 9.11605 66.8121C9.47072 66.7948 9.81478 66.6856 10.1145 66.4952L10.264 66.4055C10.3995 66.3269 10.5547 66.289 10.7112 66.2963C10.8676 66.3035 11.0187 66.3556 11.1464 66.4464C11.274 66.5372 11.3729 66.6628 11.4311 66.8082C11.4893 66.9536 11.5044 67.1127 11.4747 67.2665C10.9265 70.179 10.6761 73.1398 10.7273 76.1031L13.0112 72.1511C20.1499 59.6824 33.2553 52.7201 44.8183 46.5979C46.4086 45.7549 47.9691 44.9268 49.3532 44.1735C49.7403 43.9583 50.093 43.6862 50.3994 43.3664C51.1189 42.5989 51.6563 41.6794 51.9719 40.6759C52.1031 40.2455 52.1726 39.7986 52.1781 39.3486L52.1662 39.3696ZM53.8103 6.83308L53.7954 39.3696C53.7941 39.9776 53.7025 40.5821 53.5233 41.1632C53.3313 41.7913 53.0632 42.3936 52.7252 42.9568C52.4007 43.5218 52.0081 44.0448 51.5563 44.5143C51.1366 44.9516 50.6527 45.3225 50.1214 45.6144C48.555 46.4664 47.0723 47.2555 45.5656 48.0537C34.2059 54.0833 21.3217 60.908 14.4192 72.9762L10.6317 79.502C10.5593 79.6233 10.4569 79.7238 10.3344 79.7939C10.2119 79.8641 10.0733 79.9015 9.93215 79.9026C9.82537 79.9034 9.71948 79.8831 9.62053 79.843C9.52158 79.8029 9.4315 79.7436 9.35544 79.6687C9.27938 79.5937 9.21882 79.5045 9.17723 79.4062C9.13564 79.3078 9.11384 79.2023 9.11306 79.0955V78.4199C9.0742 75.1136 9.04131 72.0076 9.60929 68.4144C9.44449 68.4437 9.27746 68.4587 9.11007 68.4592C8.67751 68.4633 8.2518 68.3512 7.87739 68.1346C7.50297 67.9179 7.19361 67.6047 6.98163 67.2276C6.67602 66.6629 6.52348 66.028 6.53919 65.3861V33.1606C6.59936 31.9188 6.95653 30.7096 7.58073 29.6344C8.20492 28.5593 9.07791 27.6495 10.1264 26.9815L49.4339 4.30707C49.9798 3.97086 50.6046 3.78423 51.2454 3.76597C51.6793 3.76203 52.1064 3.87347 52.483 4.08885C52.8545 4.30515 53.1635 4.61416 53.3798 4.98566C53.683 5.55303 53.8314 6.19016 53.8103 6.83308Z" fill="#414141"/>
<path fill-rule="evenodd" clip-rule="evenodd" d="M15.4051 36.4998C15.3125 36.553 15.2102 36.5874 15.1043 36.6011C14.9983 36.6148 14.8907 36.6075 14.7876 36.5796C14.6845 36.5517 14.5878 36.5038 14.5032 36.4385C14.4186 36.3733 14.3477 36.292 14.2945 36.1994C14.2413 36.1067 14.2069 36.0045 14.1932 35.8986C14.1795 35.7926 14.1868 35.685 14.2147 35.5819C14.2426 35.4788 14.2906 35.3821 14.3558 35.2976C14.4211 35.213 14.5023 35.142 14.595 35.0888L41.1646 19.7772C41.2573 19.724 41.3595 19.6896 41.4654 19.6759C41.5714 19.6622 41.679 19.6695 41.7821 19.6974C41.8852 19.7253 41.9819 19.7732 42.0665 19.8385C42.1511 19.9037 42.222 19.985 42.2752 20.0776C42.3284 20.1703 42.3628 20.2725 42.3765 20.3784C42.3902 20.4844 42.3829 20.592 42.355 20.6951C42.3271 20.7983 42.2791 20.8949 42.2139 20.9795C42.1486 21.0641 42.0674 21.135 41.9747 21.1882L15.4051 36.4998Z" fill="#414141"/>
<path fill-rule="evenodd" clip-rule="evenodd" d="M15.4031 44.5502C15.216 44.6576 14.9939 44.6863 14.7856 44.63C14.5774 44.5736 14.4 44.4369 14.2926 44.2498C14.1852 44.0627 14.1565 43.8405 14.2128 43.6323C14.2691 43.424 14.4059 43.2467 14.593 43.1392L44.9412 25.6334C45.1286 25.5269 45.3505 25.4985 45.5587 25.5545C45.7668 25.6104 45.9446 25.7462 46.0533 25.9323C46.1068 26.0247 46.1414 26.1267 46.1554 26.2326C46.1693 26.3384 46.1621 26.4459 46.1344 26.549C46.1066 26.6521 46.0587 26.7486 45.9935 26.8331C45.9283 26.9176 45.847 26.9884 45.7544 27.0414L15.4031 44.5502Z" fill="#414141"/>
<path fill-rule="evenodd" clip-rule="evenodd" d="M15.3992 53.1118C15.2121 53.2192 14.99 53.2479 14.7817 53.1916C14.5735 53.1352 14.3961 52.9985 14.2887 52.8114C14.1813 52.6243 14.1526 52.4021 14.2089 52.1939C14.2652 51.9856 14.402 51.8082 14.5891 51.7008L34.1307 40.4278C34.3178 40.3204 34.5399 40.2917 34.7482 40.3481C34.9565 40.4044 35.1338 40.5412 35.2413 40.7283C35.3487 40.9154 35.3774 41.1375 35.321 41.3458C35.2647 41.554 35.1279 41.7314 34.9408 41.8388L15.3992 53.1118Z" fill="#414141"/>
<path fill-rule="evenodd" clip-rule="evenodd" d="M8.56416 66.6388C8.7433 66.7508 8.87203 66.9279 8.92329 67.1328C8.97456 67.3377 8.94438 67.5546 8.83907 67.7377C8.73376 67.9208 8.56153 68.0559 8.35862 68.1147C8.15572 68.1735 7.93794 68.1513 7.75106 68.0528L1.41356 64.3938C1.22645 64.286 1.08984 64.1082 1.03378 63.8996C0.977715 63.6911 1.0068 63.4688 1.11462 63.2817C1.22245 63.0946 1.40019 62.958 1.60874 62.9019C1.81729 62.8459 2.03956 62.875 2.22667 62.9828L8.56416 66.6388Z" fill="#414141"/>
</svg>
