<svg width="212" height="198" viewBox="0 0 212 198" fill="none" xmlns="http://www.w3.org/2000/svg">
<path fill-rule="evenodd" clip-rule="evenodd" d="M8.80594 163.514L2.7043 159.993C1.46208 159.151 1.23052 158.069 1.17578 156.625V50.7407C1.25158 48.7236 1.74842 47.3719 2.7043 45.5991C3.58483 44.0136 4.85055 42.6755 6.38465 41.7082L17.5605 35.2528L24.2011 31.4167L57.5686 12.1559L63.3713 8.78711L75.3977 1.8475C76.661 1.18639 77.7137 0.841053 79.0781 1.49375L85.1839 5.00992C83.8196 4.36986 82.7837 4.70673 81.4994 5.37627L69.4771 12.3243L63.6744 15.6931L30.3154 34.937L23.6621 38.7816L12.4863 45.2369C10.9463 46.1984 9.67789 47.5378 8.80173 49.1278C7.86996 50.6865 7.34577 52.4548 7.27742 54.2694V160.141C7.34059 161.585 7.57635 162.655 8.80594 163.514Z" fill="white"/>
<path fill-rule="evenodd" clip-rule="evenodd" d="M77.6714 2.31053C77.0529 2.37182 76.4559 2.57035 75.9239 2.89165L6.96562 42.7144C5.59652 43.5798 4.47046 44.7798 3.69372 46.2011C2.86193 47.5928 2.39281 49.171 2.32938 50.791V156.624C2.40096 157.989 2.6157 158.511 3.36525 159.037L6.13608 160.637C6.13608 160.49 6.13608 160.338 6.13608 160.191V54.2693C6.20951 52.26 6.78886 50.3018 7.82045 48.5761C8.90687 46.8075 9.92589 45.4937 11.9008 44.2556L80.9602 4.3865L81.4065 4.15914L78.5473 2.50844C78.2853 2.37912 77.9973 2.31143 77.7051 2.31053H77.6714ZM8.80575 164.68C8.60231 164.681 8.4026 164.626 8.2289 164.52L2.12305 160.991C0.282867 159.728 0.0765312 158.107 0.0175781 156.671V50.7405C0.0940664 48.7318 0.673196 46.7743 1.70195 45.0473C2.68519 43.2915 4.08862 41.807 5.78654 40.7269L74.8459 0.857731C76.1723 0.17556 77.6841 -0.447658 79.6 0.436638L85.7985 4.00334C86.0509 4.15911 86.2347 4.40483 86.3129 4.6909C86.391 4.97698 86.3577 5.28205 86.2196 5.5445C86.0832 5.81141 85.848 6.01454 85.564 6.1105C85.28 6.20647 84.9698 6.18773 84.6994 6.05828C83.8572 5.67508 83.3057 5.74243 82.0424 6.40355L13.0757 46.2516C11.5219 47.2286 10.7218 48.2392 9.80379 49.7425C8.96316 51.1287 8.49332 52.7079 8.43945 54.3282V160.149C8.4984 161.526 8.72577 162.057 9.47532 162.574C9.72026 162.745 9.8898 163.004 9.94864 163.296C10.0075 163.589 9.95109 163.893 9.79114 164.145C9.68364 164.309 9.53742 164.443 9.36552 164.536C9.19362 164.629 9.00133 164.679 8.80575 164.68Z" fill="#414141"/>
<path fill-rule="evenodd" clip-rule="evenodd" d="M81.499 123.311L12.4901 163.151C9.62248 164.835 7.28125 163.458 7.28125 160.135V54.2515C7.28125 50.9291 9.62248 46.8656 12.4901 45.2191L23.666 38.7637L30.3193 34.9191L63.6783 15.6667L69.4809 12.298L81.499 5.36681C84.375 3.70771 86.7163 5.06363 86.7163 8.37343V114.257C86.7163 117.601 84.375 121.656 81.499 123.311Z" fill="white"/>
<path fill-rule="evenodd" clip-rule="evenodd" d="M83.8171 5.82609C83.2013 5.86048 82.6037 6.04715 82.0779 6.36932L13.0734 46.2511C10.5468 47.6954 8.44132 51.3716 8.44132 54.2771V160.148C8.44132 161.306 8.78662 162.165 9.38878 162.511C9.99095 162.856 10.9089 162.738 11.9153 162.157L80.9241 122.317C83.4507 120.86 85.5561 117.184 85.5561 114.291V8.39897C85.5561 7.24096 85.2108 6.38194 84.6087 6.03664C84.3692 5.90475 84.0988 5.83934 83.8255 5.84717L83.8171 5.82609ZM10.1635 164.999C9.48423 165.008 8.81528 164.833 8.22656 164.494C6.86222 163.715 6.12109 162.153 6.12109 160.115V54.2518C6.12109 50.4957 8.67292 46.0868 11.9111 44.2088L80.9199 4.36913C82.6885 3.35008 84.4108 3.22375 85.7751 4.00278C87.1394 4.7818 87.8806 6.34402 87.8806 8.38211V114.266C87.8806 118.022 85.354 122.427 82.0863 124.305L13.0734 164.157C12.1952 164.694 11.1923 164.993 10.1635 165.025V164.999Z" fill="#414141"/>
<path fill-rule="evenodd" clip-rule="evenodd" d="M16.8398 52.7069V153.521L79.6417 117.256V16.4424L16.8398 52.7069Z" fill="white"/>
<path fill-rule="evenodd" clip-rule="evenodd" d="M17.9828 53.3776V151.492L78.4518 116.575V18.4605L17.9828 53.3776ZM16.8374 154.676C16.6357 154.678 16.4373 154.625 16.2647 154.52C16.0881 154.42 15.9413 154.275 15.8392 154.1C15.7371 153.924 15.6834 153.725 15.6836 153.522V52.708C15.6819 52.5037 15.7348 52.3027 15.837 52.1257C15.9392 51.9487 16.0869 51.8023 16.2647 51.7016L79.054 15.4455C79.2302 15.3443 79.4298 15.291 79.633 15.291C79.8362 15.291 80.0358 15.3443 80.212 15.4455C80.3889 15.5451 80.536 15.6901 80.6381 15.8655C80.7403 16.041 80.7937 16.2405 80.793 16.4435V117.257C80.7948 117.462 80.7418 117.663 80.6397 117.84C80.5375 118.017 80.3898 118.163 80.212 118.264L17.4185 154.52C17.2433 154.626 17.0419 154.68 16.8374 154.676Z" fill="#414141"/>
<path fill-rule="evenodd" clip-rule="evenodd" d="M38.7903 44.5675V34.2381C46.4683 29.7913 54.1574 25.3516 61.8578 20.9189V31.2568C54.1602 35.6951 46.4711 40.132 38.7903 44.5675ZM65.2687 32.638V15.5879L35.3711 32.8527V49.8986L65.2687 32.6337V32.638Z" fill="white"/>
<path fill-rule="evenodd" clip-rule="evenodd" d="M39.944 34.9159V42.5672L60.6912 30.5787V22.9358L39.944 34.9159ZM38.7901 45.738C38.5851 45.7357 38.3839 45.6822 38.2049 45.5822C38.0273 45.4802 37.88 45.3329 37.7779 45.1554C37.6758 44.9778 37.6227 44.7764 37.6238 44.5716V34.2422C37.6225 34.0379 37.6757 33.837 37.7778 33.6601C37.8799 33.4832 38.0273 33.3367 38.2049 33.2357L61.2724 19.9123C61.4496 19.8115 61.6501 19.7589 61.854 19.7597C62.0578 19.7605 62.2579 19.8148 62.4343 19.917C62.6107 20.0193 62.7572 20.1659 62.8592 20.3424C62.9612 20.5189 63.0151 20.7191 63.0157 20.923V31.2608C63.0172 31.4645 62.9637 31.6649 62.8606 31.8406C62.7576 32.0163 62.6089 32.1608 62.4304 32.2588L39.3713 45.5822C39.193 45.6802 38.9936 45.7336 38.7901 45.738ZM36.5374 33.5221L64.1021 17.609V31.9725L36.5374 47.894V33.5221ZM35.3793 51.0649C35.1736 51.0681 34.9709 51.0142 34.794 50.9091C34.6164 50.807 34.4691 50.6597 34.367 50.4822C34.2649 50.3046 34.2118 50.1032 34.2129 49.8984V32.8526C34.2126 32.648 34.2661 32.4469 34.3681 32.2695C34.4701 32.0921 34.617 31.9446 34.794 31.8419L64.6916 14.5771C64.8682 14.4762 65.0681 14.4233 65.2715 14.4238C65.4749 14.4244 65.6746 14.4782 65.8506 14.5801C66.0267 14.682 66.1729 14.8282 66.2747 15.0043C66.3765 15.1804 66.4303 15.3801 66.4308 15.5835V32.6336C66.4319 32.8384 66.3787 33.0398 66.2767 33.2173C66.1746 33.3949 66.0272 33.5422 65.8496 33.6442L35.952 50.9091C35.7758 51.0159 35.5727 51.0699 35.3667 51.0649H35.3793Z" fill="#414141"/>
<path fill-rule="evenodd" clip-rule="evenodd" d="M35.3797 32.853L65.2689 15.5923L61.1675 13.2342L58.7167 11.8193L28.8359 29.0757L35.3797 32.853Z" fill="white"/>
<path fill-rule="evenodd" clip-rule="evenodd" d="M31.1556 29.0754L35.3665 31.5052L62.9228 15.592L58.7119 13.1539L31.1556 29.0754ZM35.3665 34.0191C35.1613 34.0141 34.9604 33.9592 34.7812 33.8591L28.2416 30.0692C28.0642 29.9678 27.9166 29.8213 27.8139 29.6446C27.7111 29.4679 27.6567 29.2673 27.6563 29.0628C27.6554 28.8582 27.7092 28.657 27.8121 28.48C27.915 28.3031 28.0633 28.1569 28.2416 28.0564L58.1393 10.7916C58.3147 10.6883 58.5147 10.6338 58.7183 10.6338C58.9219 10.6338 59.1218 10.6883 59.2973 10.7916L65.8411 14.5814C66.0176 14.684 66.1641 14.8312 66.266 15.0081C66.3678 15.1851 66.4214 15.3858 66.4214 15.59C66.4214 15.7942 66.3678 15.9948 66.266 16.1717C66.1641 16.3487 66.0176 16.4958 65.8411 16.5984L35.9435 33.8633C35.7692 33.9701 35.5707 34.0309 35.3665 34.0401V34.0191Z" fill="#414141"/>
<path fill-rule="evenodd" clip-rule="evenodd" d="M26.5452 97.9504C25.8925 98.3758 25.3492 98.949 24.9593 99.6235C24.5693 100.298 24.3437 101.055 24.3008 101.833C24.3008 103.26 25.3072 103.841 26.5452 103.121C27.1948 102.698 27.7354 102.127 28.1231 101.455C28.5109 100.784 28.7349 100.03 28.7771 99.2557C28.7771 97.824 27.7875 97.2387 26.5452 97.9504Z" fill="white"/>
<path fill-rule="evenodd" clip-rule="evenodd" d="M27.1252 98.9595C26.6509 99.2831 26.2556 99.7092 25.9684 100.206C25.6812 100.703 25.5095 101.259 25.4661 101.831C25.4512 101.986 25.482 102.141 25.5545 102.278C25.7012 102.245 25.8428 102.192 25.9756 102.122C26.4486 101.798 26.8432 101.372 27.1303 100.876C27.4174 100.38 27.5897 99.8257 27.6347 99.2542C27.647 99.0947 27.6165 98.9348 27.5463 98.791C27.3974 98.8229 27.255 98.8799 27.1252 98.9595ZM25.5334 104.589C25.1285 104.59 24.7304 104.484 24.3796 104.282C23.9679 104.025 23.6332 103.662 23.4109 103.23C23.1885 102.799 23.0867 102.316 23.1163 101.831C23.1645 100.85 23.446 99.8951 23.9375 99.0448C24.4289 98.1946 25.1161 97.4738 25.942 96.9424C26.3374 96.6595 26.8061 96.4967 27.2918 96.4736C27.7775 96.4504 28.2596 96.5679 28.6802 96.812C29.1008 97.0561 29.4419 97.4163 29.6628 97.8495C29.8837 98.2827 29.975 98.7705 29.9255 99.2542C29.8798 100.232 29.6 101.185 29.1098 102.033C28.6197 102.881 27.9333 103.599 27.1083 104.126C26.6323 104.414 26.0896 104.574 25.5334 104.589Z" fill="#414141"/>
<path fill-rule="evenodd" clip-rule="evenodd" d="M26.5452 114.889C25.8922 115.313 25.3485 115.884 24.9584 116.557C24.5684 117.231 24.343 117.987 24.3008 118.764C24.3008 120.187 25.3072 120.759 26.5452 120.027C27.1962 119.603 27.7375 119.031 28.1254 118.357C28.5132 117.684 28.7366 116.929 28.7771 116.153C28.7771 114.746 27.7875 114.157 26.5452 114.889Z" fill="white"/>
<path fill-rule="evenodd" clip-rule="evenodd" d="M27.1268 115.874C26.6536 116.2 26.2591 116.627 25.972 117.124C25.685 117.622 25.5127 118.177 25.4677 118.75C25.4536 118.904 25.4843 119.059 25.5562 119.196C25.7034 119.159 25.845 119.102 25.9773 119.028C26.4529 118.707 26.8494 118.282 27.1368 117.785C27.4242 117.288 27.595 116.733 27.6363 116.16C27.648 116.003 27.6175 115.846 27.5479 115.705C27.4025 115.748 27.2614 115.804 27.1268 115.874ZM25.5351 121.508C25.1304 121.507 24.7329 121.401 24.3813 121.201C23.9702 120.943 23.6361 120.58 23.4138 120.149C23.1915 119.717 23.0893 119.234 23.118 118.75C23.1647 117.77 23.4457 116.815 23.9373 115.966C24.4289 115.117 25.1169 114.398 25.9436 113.869C26.3385 113.587 26.8063 113.425 27.2911 113.401C27.7759 113.378 28.2573 113.495 28.6775 113.738C29.0977 113.981 29.439 114.34 29.6606 114.771C29.8822 115.203 29.9748 115.69 29.9272 116.173C29.8869 117.154 29.6096 118.111 29.119 118.962C28.6284 119.812 27.9391 120.531 27.11 121.058C26.6319 121.339 26.0898 121.494 25.5351 121.508Z" fill="#414141"/>
<path fill-rule="evenodd" clip-rule="evenodd" d="M8.80309 163.514L2.70145 159.986C2.25087 159.697 1.88127 159.299 1.62764 158.828C1.05074 157.712 1.17293 156.01 1.17293 154.785V53.5584C1.17293 51.6004 1.05074 49.9287 1.62764 48.0127C1.89303 47.1589 2.2577 46.3391 2.71409 45.5703L8.81995 49.0991C8.23796 50.0681 7.81168 51.1224 7.55667 52.2236C7.21979 53.6764 7.27878 54.9228 7.27878 56.384V158.108C7.27878 159.173 7.19871 160.44 7.4261 161.476C7.50626 161.891 7.66956 162.286 7.90621 162.636C8.14285 162.986 8.44794 163.285 8.80309 163.514Z" fill="#2B7CFF"/>
<path fill-rule="evenodd" clip-rule="evenodd" d="M3.17841 47.1818C3.01129 47.5605 2.87059 47.9502 2.75732 48.3483C2.31096 49.8095 2.33623 51.1569 2.33623 52.7066V155.348C2.33623 156.346 2.30677 157.593 2.67312 158.296C2.83835 158.602 3.07888 158.862 3.3721 159.05L6.14293 160.65C6.10082 160.005 6.11342 159.353 6.11342 158.751V158.119V55.8395C6.05895 54.5405 6.16216 53.2396 6.42081 51.9654C6.61581 51.131 6.8981 50.3195 7.263 49.5442L3.16998 47.1818H3.17841ZM8.80416 164.667C8.60073 164.668 8.40102 164.613 8.22732 164.507L2.12146 160.978C1.48103 160.576 0.95578 160.014 0.597056 159.348C-0.0345839 158.144 -0.0134881 156.573 0.00756657 155.306V52.7276C0.00756657 51.0433 -0.0219223 49.4852 0.521288 47.6745C0.805027 46.7241 1.20983 45.8141 1.72566 44.9669C1.8845 44.7095 2.13733 44.5242 2.4306 44.4503C2.72388 44.3764 3.03449 44.4197 3.29633 44.5711L9.40219 48.0914C9.53695 48.1685 9.65489 48.2717 9.74926 48.3949C9.84363 48.5182 9.91246 48.6591 9.95168 48.8093C9.9909 48.9595 9.99975 49.116 9.97769 49.2697C9.95564 49.4234 9.90317 49.5711 9.82328 49.7042C9.29926 50.5659 8.91541 51.5055 8.68624 52.4876C8.47567 53.5847 8.39377 54.7025 8.44208 55.8185V158.767C8.38919 159.586 8.43161 160.409 8.56843 161.218C8.61667 161.491 8.72181 161.751 8.87705 161.981C9.0323 162.211 9.23414 162.406 9.46952 162.553C9.71757 162.724 9.88991 162.984 9.95035 163.279C10.0108 163.575 9.95465 163.882 9.79377 164.136C9.68686 164.302 9.5404 164.438 9.36764 164.533C9.19489 164.628 9.00123 164.678 8.80416 164.68V164.667Z" fill="#414141"/>
<path fill-rule="evenodd" clip-rule="evenodd" d="M28.8359 32.4271L31.7414 34.1157V47.8054L35.3797 49.8983V32.8524L28.8359 29.0752V32.4271Z" fill="white"/>
<path fill-rule="evenodd" clip-rule="evenodd" d="M32.9064 47.1318L34.2118 47.894V33.5221L30.0009 31.0839V31.7535L32.3337 33.1094C32.5116 33.2101 32.6592 33.3565 32.7614 33.5334C32.8636 33.7104 32.9165 33.9115 32.9148 34.1158V47.1318H32.9064ZM35.3782 51.0648C35.1725 51.0681 34.9698 51.0142 34.7929 50.909L31.1673 48.8036C30.9889 48.7036 30.8407 48.5573 30.7384 48.3802C30.6361 48.2031 30.5835 48.0017 30.5861 47.7972V34.7811L28.2534 33.4252C28.0748 33.3251 27.9262 33.1789 27.8232 33.0019C27.7203 32.8249 27.6667 32.6236 27.668 32.4188V29.0501C27.6671 28.8454 27.7209 28.6442 27.8238 28.4673C27.9267 28.2903 28.075 28.1441 28.2534 28.0437C28.428 27.9403 28.6272 27.8857 28.8302 27.8857C29.0332 27.8857 29.2325 27.9403 29.4072 28.0437L35.9509 31.8335C36.1289 31.9353 36.277 32.0824 36.3798 32.2599C36.4826 32.4374 36.5365 32.639 36.5362 32.8441V49.89C36.5374 50.0953 36.4838 50.2971 36.3809 50.4748C36.278 50.6524 36.1295 50.7995 35.9509 50.9006C35.7756 51.0104 35.5724 51.0674 35.3656 51.0648H35.3782Z" fill="#414141"/>
<path fill-rule="evenodd" clip-rule="evenodd" d="M52.9558 64.1573C52.6992 64.1601 52.4489 64.0776 52.2443 63.9227C52.0396 63.7678 51.8923 63.5494 51.8253 63.3017C51.7583 63.0539 51.7755 62.791 51.8742 62.5541C51.9728 62.3172 52.1474 62.1198 52.3704 61.9929L71.0881 51.1876C71.2197 51.111 71.3651 51.0611 71.516 51.0407C71.6669 51.0203 71.8203 51.0299 71.9675 51.0688C72.1147 51.1077 72.2529 51.1752 72.374 51.2675C72.4951 51.3598 72.5969 51.475 72.6735 51.6066C72.75 51.7382 72.8 51.8836 72.8204 52.0345C72.8408 52.1854 72.8312 52.3389 72.7923 52.4861C72.7534 52.6333 72.6859 52.7714 72.5936 52.8926C72.5013 53.0137 72.3861 53.1154 72.2545 53.192L53.5368 64.0015C53.3608 64.1051 53.16 64.1589 52.9558 64.1573Z" fill="#414141"/>
<path fill-rule="evenodd" clip-rule="evenodd" d="M35.284 98.2562C35.0292 98.2555 34.7816 98.1711 34.5795 98.0159C34.3774 97.8607 34.2318 97.6434 34.1653 97.3974C34.0988 97.1514 34.115 96.8903 34.2113 96.6544C34.3077 96.4185 34.4789 96.2208 34.6986 96.0918L71.0896 75.0792C71.2212 75.0026 71.3666 74.9527 71.5175 74.9323C71.6684 74.9119 71.8218 74.9214 71.969 74.9603C72.1162 74.9992 72.2544 75.0668 72.3755 75.1591C72.4966 75.2514 72.5984 75.3666 72.675 75.4982C72.7516 75.6298 72.8015 75.7752 72.8219 75.9261C72.8423 76.077 72.8327 76.2305 72.7938 76.3777C72.7549 76.5249 72.6874 76.663 72.5951 76.7841C72.5028 76.9052 72.3877 77.007 72.2561 77.0836L35.8651 98.0962C35.689 98.2001 35.4885 98.2553 35.284 98.2562Z" fill="#414141"/>
<path fill-rule="evenodd" clip-rule="evenodd" d="M35.282 114.305C35.0253 114.307 34.7751 114.225 34.5704 114.07C34.3658 113.915 34.2185 113.697 34.1515 113.449C34.0845 113.201 34.1017 112.938 34.2003 112.701C34.299 112.464 34.4735 112.267 34.6966 112.14L50.496 103.019C50.6279 102.943 50.7735 102.894 50.9244 102.874C51.0753 102.854 51.2288 102.864 51.3758 102.904C51.5228 102.943 51.6606 103.012 51.7813 103.104C51.902 103.197 52.0033 103.313 52.0793 103.445C52.1554 103.576 52.2047 103.722 52.2245 103.873C52.2443 104.024 52.2341 104.177 52.1946 104.324C52.1551 104.471 52.0871 104.609 51.9943 104.73C51.9016 104.851 51.7859 104.952 51.654 105.028L35.863 114.144C35.6869 114.248 35.4864 114.304 35.282 114.305Z" fill="#414141"/>
<path fill-rule="evenodd" clip-rule="evenodd" d="M58.2188 23.0157V28.7973L61.857 31.2607V20.9229L58.2188 23.0157Z" fill="white"/>
<path fill-rule="evenodd" clip-rule="evenodd" d="M59.3691 28.1868L60.6745 29.0669V22.9358L59.3691 23.6895V28.1868ZM61.841 32.3977C61.6087 32.397 61.3818 32.3282 61.1883 32.1998L57.5626 29.7491C57.4031 29.6432 57.2725 29.4991 57.1828 29.33C57.0931 29.1609 57.0471 28.972 57.0489 28.7805V22.9989C57.0493 22.795 57.1032 22.5948 57.2051 22.4182C57.3071 22.2416 57.4537 22.0948 57.63 21.9925L61.2556 19.8871C61.4328 19.7862 61.6333 19.7336 61.8372 19.7344C62.041 19.7352 62.2411 19.7894 62.4175 19.8917C62.5939 19.9939 62.7404 20.1406 62.8424 20.3171C62.9444 20.4936 62.9984 20.6938 62.999 20.8977V31.2355C62.9985 31.4446 62.9409 31.6496 62.8325 31.8284C62.7242 32.0072 62.5692 32.1531 62.3841 32.2503C62.2261 32.3503 62.0446 32.407 61.8577 32.4146L61.841 32.3977Z" fill="#414141"/>
<path fill-rule="evenodd" clip-rule="evenodd" d="M38.7891 40.0242L58.2184 28.7979L61.8566 31.2612L38.7891 44.572V40.0242Z" fill="white"/>
<path fill-rule="evenodd" clip-rule="evenodd" d="M39.9452 40.697V42.5666L59.665 31.1971L58.1827 30.1865L39.9452 40.7138V40.697ZM38.7914 45.7501C38.5863 45.7478 38.3851 45.6942 38.2061 45.5943C38.0285 45.4922 37.8812 45.3449 37.7791 45.1674C37.677 44.9899 37.6239 44.7885 37.625 44.5837V40.0401C37.6239 39.8353 37.677 39.6338 37.7791 39.4563C37.8812 39.2787 38.0285 39.1315 38.2061 39.0294L57.6479 27.8115C57.835 27.7012 58.0498 27.6465 58.2668 27.654C58.4839 27.6615 58.6943 27.7307 58.8734 27.8536L62.5116 30.3044C62.6736 30.4161 62.8049 30.5669 62.8932 30.7429C62.9815 30.9188 63.024 31.1141 63.0169 31.3108C63.0113 31.5079 62.9544 31.7002 62.8518 31.8686C62.7491 32.037 62.6043 32.1757 62.4316 32.2709L39.3641 45.5943C39.188 45.6888 38.9912 45.738 38.7914 45.7375V45.7501Z" fill="#414141"/>
<path fill-rule="evenodd" clip-rule="evenodd" d="M81.0434 141.708L71.9395 136.449C82.6142 142.458 95.9081 132.398 102.679 124.629C112.171 113.807 120.529 95.325 116.933 80.9321C115.876 76.7211 113.733 72.9566 109.884 70.6953L119.456 76.2284C129.048 82.3259 127.549 97.7548 124.563 107.225C120.155 121.26 108.234 138.239 93.7353 142.597C89.4738 143.902 85.0565 143.944 81.0434 141.708Z" fill="#2B7CFF"/>
<path fill-rule="evenodd" clip-rule="evenodd" d="M81.6249 140.711C84.9641 142.581 88.9308 142.846 93.4155 141.49C107.312 137.279 119.043 120.903 123.46 106.868C126.694 96.6016 127.423 82.6635 118.828 77.2103L116.159 75.6691C116.998 77.2417 117.634 78.9141 118.054 80.6464C121.844 95.7216 113.182 114.401 103.555 125.4C97.3484 132.487 88.1687 139.237 79.4099 139.448L81.6038 140.711H81.6249ZM88.0591 144.674C85.4063 144.696 82.7936 144.025 80.4794 142.728C80.4794 142.728 80.4795 142.728 80.4584 142.728L71.3586 137.473C71.0911 137.321 70.8949 137.069 70.8132 136.773C70.7314 136.476 70.7709 136.159 70.9228 135.892C71.0747 135.624 71.3265 135.428 71.6231 135.346C71.9196 135.265 72.2364 135.304 72.5039 135.456C82.6523 141.179 95.7104 130.858 101.829 123.88C111.354 112.991 119.233 94.8246 115.822 81.2233C114.727 76.8145 112.533 73.6141 109.308 71.7066C109.06 71.5414 108.884 71.2877 108.817 70.9974C108.751 70.7071 108.797 70.4022 108.948 70.1453C109.099 69.8884 109.342 69.6989 109.628 69.6157C109.914 69.5325 110.221 69.562 110.487 69.698L120.054 75.2353C129.79 81.4212 129.175 96.5216 125.696 107.584C121.094 122.2 108.764 139.309 94.1145 143.726C92.1544 144.341 90.1134 144.661 88.0591 144.674Z" fill="#414141"/>
<path fill-rule="evenodd" clip-rule="evenodd" d="M97.1641 76.5696C82.5269 85.0294 70.6562 105.579 70.6562 122.469C70.6562 139.359 82.5269 146.218 97.1641 137.767C111.801 129.316 123.672 108.758 123.672 91.8679C123.672 74.9778 111.801 68.114 97.1641 76.5696Z" fill="white"/>
<path fill-rule="evenodd" clip-rule="evenodd" d="M109.003 74.1069C105.575 74.1069 101.739 75.2607 97.7472 77.5725C83.43 85.826 71.8205 105.971 71.8205 122.486C71.8205 130.226 74.3724 135.961 78.9791 138.635C83.5859 141.309 89.8728 140.652 96.5724 136.787C110.864 128.525 122.495 108.38 122.495 91.8771C122.495 84.1247 119.939 78.4021 115.311 75.7239C113.387 74.6319 111.207 74.0737 108.995 74.1069H109.003ZM85.3207 142.581C82.6993 142.615 80.1163 141.949 77.838 140.652C72.4606 137.536 69.4961 131.085 69.4961 122.486C69.4961 105.222 81.6446 84.1669 96.5892 75.5681C104.03 71.2603 111.1 70.595 116.482 73.7111C121.863 76.8272 124.836 83.2657 124.836 91.8771C124.836 109.142 112.679 130.167 97.7472 138.795C93.3847 141.305 89.1569 142.581 85.3207 142.581Z" fill="#414141"/>
<path fill-rule="evenodd" clip-rule="evenodd" d="M90.9189 65.6924C97.5974 61.9278 106.297 59.1907 113.553 63.0858L122.661 68.341C109.262 61.6709 93.3697 74.0553 85.0952 83.7194C74.0163 96.668 64.4995 117.828 67.8978 135.025C68.9968 140.609 71.456 145.473 76.2901 148.677C74.1131 147.414 67.7799 143.94 66.1165 142.689C55.6692 134.79 57.383 117.234 60.6928 106.286C65.4848 90.4105 76.5049 74.2237 90.9189 65.6924Z" fill="#2B7CFF"/>
<path fill-rule="evenodd" clip-rule="evenodd" d="M91.5002 66.7043C78.2568 74.5493 66.8789 89.8392 61.8089 106.611C58.2422 118.402 57.4211 134.66 66.8199 141.76C67.3757 142.181 68.5422 142.897 69.8939 143.689C68.356 141.082 67.2924 138.224 66.7525 135.246C63.2448 117.455 73.3426 95.663 84.2153 82.9628C92.0055 73.8588 103.855 64.9526 115.103 65.3274L112.997 64.0936C105.872 60.2701 97.3913 63.403 91.5213 66.7043H91.5002ZM76.2903 149.841C76.0844 149.84 75.8824 149.785 75.705 149.681L73.6921 148.535C70.7445 146.885 66.761 144.632 65.4177 143.604C55.0799 135.793 55.623 119.034 59.5855 105.938C64.8155 88.6181 76.5935 72.8144 90.3253 64.6705C96.7007 61.0828 106.003 57.7225 114.088 62.0639L123.23 67.3402C123.49 67.492 123.68 67.7388 123.762 68.0286C123.844 68.3184 123.81 68.6285 123.667 68.8938C123.525 69.159 123.285 69.3586 122.999 69.4506C122.712 69.5425 122.401 69.5196 122.131 69.3867C110.096 63.3861 95.13 73.7661 85.967 84.4703C75.4396 96.7662 65.6576 117.737 69.018 134.795C70.1928 140.737 72.7741 144.969 76.9135 147.706C77.1176 147.846 77.272 148.048 77.3543 148.282C77.4366 148.515 77.4426 148.769 77.3715 149.007C77.3003 149.244 77.1556 149.453 76.9583 149.603C76.761 149.752 76.5212 149.836 76.2734 149.841H76.2903Z" fill="#414141"/>
<path fill-rule="evenodd" clip-rule="evenodd" d="M80.587 141.431L71.4746 136.176L81.0418 141.709L80.587 141.431Z" fill="#2B7CFF"/>
<path fill-rule="evenodd" clip-rule="evenodd" d="M81.0434 142.876C80.8376 142.876 80.6356 142.821 80.4582 142.716L70.8909 137.183C70.6395 137.021 70.46 136.768 70.3899 136.477C70.3197 136.186 70.3643 135.879 70.5142 135.62C70.664 135.36 70.9079 135.169 71.1951 135.084C71.4824 135 71.791 135.029 72.0573 135.166L81.1614 140.426C81.1824 140.426 81.1824 140.426 81.1909 140.426L81.654 140.699C81.8715 140.831 82.0398 141.031 82.133 141.268C82.2261 141.504 82.239 141.765 82.1697 142.01C82.1004 142.255 81.9527 142.47 81.7492 142.623C81.5458 142.775 81.2978 142.857 81.0434 142.855V142.876Z" fill="#414141"/>
<path fill-rule="evenodd" clip-rule="evenodd" d="M119.013 75.9514C116.359 74.4805 113.307 73.8907 110.296 74.267C107.134 74.5828 103.677 75.7493 100.03 77.8421C96.2308 80.0982 92.7725 82.8844 89.7596 86.1166C86.4126 89.6928 83.4879 93.6419 81.043 97.8861C78.5871 102.123 76.6327 106.631 75.2192 111.319C73.9183 115.541 73.2333 119.93 73.1854 124.348C73.1854 128.559 73.9054 132.134 75.2192 135.031C76.3603 137.852 78.41 140.213 81.0436 141.738C83.6772 143.263 86.7444 143.867 89.7596 143.453C92.922 143.137 96.3919 141.97 100.03 139.865C103.831 137.615 107.289 134.83 110.296 131.595C113.647 128.025 116.572 124.078 119.013 119.834C121.478 115.601 123.436 111.092 124.845 106.401C126.139 102.177 126.821 97.7893 126.871 93.372C126.871 89.1611 126.151 85.5818 124.845 82.6889C123.663 79.8914 121.62 77.5432 119.013 75.9851V75.9514ZM76.832 95.4438C82.7695 85.1649 90.9766 76.1788 100.03 70.953C109.084 65.7272 117.295 65.2303 123.228 68.658C129.161 72.0857 132.833 79.4338 132.833 89.898C132.833 100.362 129.166 111.942 123.228 122.23C117.291 132.517 109.092 141.482 100.03 146.712C90.9682 151.942 82.7652 152.435 76.832 149.011C70.8988 145.588 67.2227 138.24 67.2227 127.775C67.2227 117.311 70.8904 105.723 76.832 95.4438Z" fill="white"/>
<path fill-rule="evenodd" clip-rule="evenodd" d="M112.029 75.3317C111.492 75.328 110.955 75.3533 110.421 75.4074C107.325 75.7148 104.024 76.8728 100.613 78.8394C96.9092 81.038 93.5375 83.7533 90.5996 86.9033C84.0236 93.9542 79.1429 102.412 76.3288 111.634C75.0656 115.751 74.4005 120.028 74.3539 124.334C74.3539 128.276 74.9939 131.708 76.2824 134.542C77.3225 137.139 79.2051 139.312 81.6281 140.712C84.051 142.112 86.8738 142.657 89.6437 142.26C92.7346 141.957 96.036 140.799 99.4552 138.833C103.159 136.632 106.529 133.913 109.46 130.756C116.04 123.712 120.921 115.257 123.731 106.038C125 101.922 125.67 97.6444 125.719 93.3376C125.719 89.3835 125.066 85.9558 123.79 83.1261C122.527 80.3595 120.737 78.2877 118.434 76.9613C116.481 75.8594 114.271 75.2969 112.029 75.3317ZM88.0268 144.665C85.372 144.699 82.7558 144.026 80.4471 142.715C77.7184 141.144 75.6046 138.715 74.1518 135.502C72.7285 132.36 72.0084 128.613 72.0084 124.334C72.0558 119.802 72.7579 115.3 74.0928 110.969C75.5271 106.191 77.5215 101.6 80.0345 97.2916C82.5192 92.9652 85.4979 88.9421 88.911 85.3031C91.9973 81.9904 95.5424 79.1373 99.4384 76.8307C103.127 74.7 106.744 73.462 110.164 73.0956C113.418 72.6931 116.715 73.3408 119.575 74.9442C122.397 76.6174 124.611 79.1494 125.891 82.1702C127.306 85.2905 128.026 89.0508 128.026 93.3376C127.975 97.8698 127.266 102.371 125.921 106.699C123.009 116.272 117.941 125.051 111.107 132.36C108.023 135.677 104.478 138.531 100.58 140.837C96.874 142.972 93.2652 144.227 89.846 144.576C89.2143 144.635 88.5826 144.665 87.9973 144.665H88.0268ZM114.674 67.6046C117.462 67.5673 120.211 68.269 122.641 69.6385C128.46 73.0072 131.673 80.1868 131.673 89.8804C131.673 99.7972 128.304 111.07 122.215 121.627C116.126 132.183 108.033 140.732 99.451 145.696C91.0628 150.539 83.2348 151.347 77.4111 147.987C71.5873 144.627 68.3869 137.46 68.3869 127.775C68.3869 117.858 71.7558 106.581 77.8364 96.0158C83.9169 85.4505 92.0229 76.9234 100.609 71.9587C105.599 69.0826 110.383 67.6214 114.674 67.6214V67.6046ZM85.3823 152.366C82.1879 152.411 79.0395 151.603 76.2615 150.025C69.6756 146.235 66.0625 138.331 66.0625 127.779C66.0625 117.458 69.5408 105.768 75.8362 94.8661C82.1315 83.964 90.5238 75.1085 99.4552 69.9501C108.58 64.678 117.238 63.861 123.811 67.6551C130.385 71.4491 134.002 79.3447 134.002 89.9015C134.002 100.222 130.532 111.904 124.237 122.814C117.941 133.725 109.549 142.563 100.613 147.722C95.2569 150.813 90.0775 152.366 85.3823 152.366Z" fill="#414141"/>
<path fill-rule="evenodd" clip-rule="evenodd" d="M116.508 87.5724L99.1841 124.127L80.875 118.902L84.1637 111.941L95.6637 115.226L109.69 85.627L116.508 87.5724Z" fill="white"/>
<path fill-rule="evenodd" clip-rule="evenodd" d="M114.739 88.3607L110.377 87.0974L96.35 116.696L84.8457 113.412L82.6518 118.073L98.4975 122.591C103.913 111.18 109.327 99.7653 114.739 88.3481V88.3607ZM94.9899 113.702L108.553 85.0678C108.676 84.7922 108.895 84.5713 109.17 84.447C109.445 84.3228 109.756 84.3039 110.044 84.394L116.849 86.3311C117.025 86.3818 117.188 86.4701 117.326 86.5901C117.465 86.7101 117.576 86.8588 117.651 87.0258C117.726 87.1929 117.764 87.3743 117.763 87.5576C117.761 87.7408 117.719 87.9215 117.64 88.087L100.317 124.638C100.189 124.908 99.969 125.124 99.6969 125.247C99.4247 125.37 99.1176 125.393 98.8302 125.312L80.5295 120.09C80.3545 120.039 80.1926 119.951 80.0549 119.832C79.9171 119.712 79.8069 119.564 79.7317 119.398C79.6565 119.232 79.6181 119.052 79.6192 118.87C79.6202 118.688 79.6608 118.508 79.7379 118.343L83.0266 111.382C83.1476 111.106 83.3663 110.885 83.6407 110.76C83.9151 110.636 84.2258 110.617 84.513 110.708L94.9899 113.702Z" fill="#414141"/>
<path fill-rule="evenodd" clip-rule="evenodd" d="M34.8195 71.8412C35.9648 71.1759 37.0934 69.6052 37.9819 67.8114C39.0009 65.7522 39.6662 63.453 39.6662 61.916V61.4108V60.2191C39.6915 58.5979 39.7125 57.1409 39.3209 56.4671C38.9925 55.9029 38.0198 55.9997 35.6743 57.3598C30.7222 60.2275 30.7601 62.9014 30.8106 66.346V67.5293V68.0388C30.8114 68.7567 30.9368 69.4691 31.1813 70.1442C31.3497 70.6644 31.6382 71.1375 32.0234 71.5254C32.4178 71.8631 32.9023 72.0782 33.4173 72.1444C33.8955 72.1833 34.3735 72.0682 34.7816 71.816L34.8195 71.8412ZM39.5315 68.5778C38.5082 70.6411 37.1481 72.4939 35.6869 73.3361C34.9656 73.774 34.1228 73.9689 33.2825 73.892C32.4309 73.7926 31.6271 73.4456 30.9707 72.894C30.3477 72.3167 29.8787 71.593 29.6064 70.7885C29.2902 69.9165 29.1291 68.9958 29.1305 68.0683V67.5587C29.1305 67.5587 29.1305 66.5355 29.1305 66.3965C29.0715 62.3835 29.0295 59.2674 34.8532 55.8692C38.323 53.8563 39.9989 54.1174 40.8622 55.6081C41.4938 56.6903 41.4685 58.3747 41.439 60.2401C41.439 60.5096 41.439 60.7749 41.439 61.4108V61.916C41.4011 63.7099 40.66 66.2997 39.5315 68.5693V68.5778Z" fill="#414141"/>
<path fill-rule="evenodd" clip-rule="evenodd" d="M25.502 90.5762L44.9059 79.2067V71.8333L42.6573 71.3701L39.3517 72.3681L37.4989 74.5957L35.2544 76.5453L33.2964 76.9917L31.4351 76.4064L29.0728 78.6213L26.382 81.569L25.502 84.5419V90.5762Z" fill="#2B7CFF"/>
<path fill-rule="evenodd" clip-rule="evenodd" d="M37.4727 69.0286C37.4727 68.7985 37.564 68.5778 37.7267 68.4152C37.8894 68.2525 38.1101 68.1611 38.3401 68.1611C38.5702 68.1611 38.7908 68.2525 38.9535 68.4152C39.1162 68.5778 39.2076 68.7985 39.2076 69.0286C39.2076 69.5339 39.2075 70.5234 39.2454 71.0877C39.3869 71.0982 39.5276 71.1179 39.6665 71.1467C40.733 70.7743 41.8552 70.5864 42.9848 70.5908C43.5639 70.5938 44.1335 70.7383 44.6439 71.0119C45.164 71.3149 45.5538 71.7993 45.7387 72.3721C45.8673 72.7801 45.9202 73.2083 45.8945 73.6353V78.92C45.8945 79.149 45.8036 79.3686 45.6417 79.5304C45.4798 79.6923 45.2602 79.7833 45.0313 79.7833C44.8023 79.7833 44.5828 79.6923 44.4209 79.5304C44.259 79.3686 44.168 79.149 44.168 78.92V73.5595C44.1845 73.3439 44.1617 73.127 44.1007 72.9195C44.047 72.7421 43.9281 72.5916 43.768 72.4984C43.5066 72.367 43.2183 72.2979 42.9258 72.2962C41.9277 72.3081 40.9391 72.4919 40.0034 72.8395C39.882 72.891 39.7501 72.9133 39.6184 72.9045C39.4868 72.8957 39.359 72.8562 39.2454 72.7889C39.2454 72.7889 38.9296 72.7889 38.6264 72.7889H38.576C38.4252 72.7899 38.2768 72.7516 38.1453 72.6778C38.0139 72.6039 37.904 72.4971 37.8264 72.3679C37.4895 71.7825 37.4895 69.8413 37.4895 69.0243L37.4727 69.0286Z" fill="#414141"/>
<path fill-rule="evenodd" clip-rule="evenodd" d="M31.311 72.9325C31.311 72.7036 31.4019 72.484 31.5638 72.3221C31.7257 72.1602 31.9452 72.0693 32.1742 72.0693C32.4031 72.0693 32.6227 72.1602 32.7846 72.3221C32.9465 72.484 33.0374 72.7036 33.0374 72.9325C33.0374 73.4042 32.97 74.0864 32.9069 74.697C32.8605 75.1475 32.8184 75.5391 32.8184 75.7707C32.8197 75.9551 32.7622 76.135 32.6543 76.2844C32.5026 76.5203 32.3366 76.7468 32.1573 76.9624C31.9636 77.2067 31.7363 77.4719 31.5047 77.733C31.4742 77.7698 31.4404 77.8036 31.4036 77.8341C29.9153 79.0207 28.5912 80.3999 27.4664 81.9355C26.6873 83.0683 26.2031 84.1758 26.2031 85.1738V90.1468C26.2031 90.3758 26.1122 90.5954 25.9503 90.7573C25.7884 90.9191 25.5688 91.0101 25.3398 91.0101C25.1109 91.0101 24.8914 90.9191 24.7295 90.7573C24.5676 90.5954 24.4766 90.3758 24.4766 90.1468V85.1738C24.4766 83.8052 25.062 82.3735 26.0347 80.9628C27.2335 79.3079 28.6499 77.822 30.2456 76.5455C30.4393 76.3223 30.6287 76.0992 30.8014 75.8844C30.9151 75.7455 31.012 75.6191 31.0878 75.5096C31.0878 75.2528 31.1383 74.9075 31.1762 74.5327C31.2436 73.9474 31.311 73.3031 31.311 72.9325Z" fill="#414141"/>
<path fill-rule="evenodd" clip-rule="evenodd" d="M37.7494 72.3851C37.8349 72.1724 38.0013 72.0022 38.2122 71.9122C38.423 71.8222 38.6611 71.8196 38.8738 71.905C39.0866 71.9905 39.2566 72.1569 39.3466 72.3678C39.4366 72.5786 39.4393 72.8166 39.3538 73.0293C39.0046 73.8665 38.5115 74.6362 37.8969 75.3033C37.2567 76.0243 36.5114 76.6447 35.6861 77.1434C34.9663 77.5711 34.1583 77.8289 33.3237 77.8972C32.3973 77.9519 31.6099 77.6571 31.2183 76.9665C31.1613 76.8684 31.1242 76.76 31.1092 76.6475C31.0941 76.5351 31.1014 76.4207 31.1306 76.311C31.1597 76.2013 31.2101 76.0985 31.279 76.0083C31.3479 75.9181 31.4339 75.8424 31.532 75.7854C31.6302 75.7285 31.7386 75.6914 31.851 75.6763C31.9635 75.6613 32.0779 75.6685 32.1876 75.6976C32.2973 75.7267 32.4001 75.7772 32.4903 75.8461C32.5805 75.915 32.6562 76.001 32.7132 76.0991C32.7511 76.1623 32.9532 76.1876 33.2395 76.1707C33.8032 76.1184 34.3476 75.9384 34.8313 75.6444C35.5017 75.2417 36.1066 74.739 36.6251 74.1537C37.0982 73.6327 37.4784 73.0345 37.7494 72.3851Z" fill="#414141"/>
<path fill-rule="evenodd" clip-rule="evenodd" d="M30.8978 69.1085C30.8701 69.2191 30.821 69.3231 30.7531 69.4147C30.6853 69.5063 30.6 69.5837 30.5023 69.6423C30.3049 69.7608 30.0684 69.796 29.845 69.7401C29.6217 69.6843 29.4297 69.542 29.3113 69.3446C29.1928 69.1472 29.1576 68.9108 29.2134 68.6874C29.3507 67.9923 29.4422 67.289 29.4872 66.5819C29.5967 65.3186 29.7146 64.0553 30.1104 63.3437C30.3513 62.7824 30.7641 62.3121 31.2895 62.0004L31.3442 61.9667C31.8051 61.7044 32.2956 61.498 32.8053 61.3519H32.8433C34.6203 60.8003 34.8561 60.6024 35.7909 59.836C36.0815 59.5918 36.4268 59.3054 36.7637 59.0359L36.8142 59.0022C37.2545 58.6388 37.7299 58.32 38.2333 58.0506C38.9407 57.7011 39.5934 57.6295 40.1114 58.0842C40.2333 58.1895 40.3236 58.3266 40.3724 58.4801C40.5758 59.1478 40.7168 59.8329 40.7935 60.5266C40.8899 61.2365 41.0305 61.9397 41.2146 62.6321C41.29 62.8487 41.2762 63.0864 41.1763 63.293C41.0764 63.4995 40.8986 63.6578 40.6819 63.7332C40.4653 63.8086 40.2275 63.7948 40.021 63.6949C39.8145 63.595 39.6562 63.4172 39.5808 63.2005C39.3633 62.4087 39.2029 61.6024 39.1008 60.7877C39.0292 60.316 38.9828 59.895 38.9533 59.6255C38.5775 59.8364 38.2209 60.0802 37.888 60.3539L37.8458 60.3876C37.3952 60.7455 37.1257 60.9687 36.8984 61.1582C35.7656 62.1015 35.4751 62.3457 33.3781 62.9984H33.3359C32.963 63.0969 32.6026 63.2382 32.2621 63.4195L32.2285 63.4447C32.0045 63.5732 31.8252 63.7672 31.7148 64.0006C31.6977 64.0534 31.675 64.1042 31.6473 64.1522C31.4199 64.5438 31.3189 65.6387 31.2262 66.7209C31.1741 67.5236 31.0643 68.3215 30.8978 69.1085Z" fill="#414141"/>
<path fill-rule="evenodd" clip-rule="evenodd" d="M25.8161 91.031C25.6174 91.1455 25.3812 91.1763 25.1597 91.1167C24.9382 91.0571 24.7494 90.9119 24.6349 90.7131C24.5204 90.5143 24.4896 90.2782 24.5493 90.0567C24.6089 89.8352 24.7541 89.6464 24.9529 89.532L26.0225 88.9171L44.5042 78.2551C44.703 78.1406 44.9391 78.1097 45.1606 78.1694C45.3822 78.229 45.5709 78.3742 45.6854 78.573C45.7998 78.7718 45.8307 79.0079 45.7711 79.2294C45.7115 79.4509 45.5663 79.6397 45.3675 79.7542L25.8161 91.031Z" fill="#414141"/>
<path opacity="0.2" fill-rule="evenodd" clip-rule="evenodd" d="M189.998 187C181.717 187 175 189.46 175 192.5C175 195.54 181.717 198 189.998 198C198.278 198 205 195.54 205 192.5C205 189.46 198.283 187 189.998 187Z" fill="black"/>
<path fill-rule="evenodd" clip-rule="evenodd" d="M184.212 121L178 124.474L180.788 135L187 131.529L184.212 121Z" fill="white"/>
<path fill-rule="evenodd" clip-rule="evenodd" d="M183.662 122.216L178.958 124.838L181.332 133.779L186.033 131.157L183.662 122.216ZM177.458 123.65L183.793 120.116C183.914 120.049 184.05 120.01 184.19 120.002C184.33 119.993 184.471 120.016 184.6 120.069C184.729 120.121 184.844 120.202 184.936 120.304C185.028 120.406 185.094 120.528 185.13 120.659L187.966 131.353C188.021 131.542 188.009 131.742 187.932 131.923C187.855 132.104 187.718 132.255 187.542 132.352L181.229 135.872C181.151 135.916 181.067 135.95 180.98 135.972C180.865 136.001 180.745 136.008 180.627 135.991C180.509 135.975 180.395 135.937 180.293 135.878C180.19 135.819 180.101 135.741 180.029 135.649C179.958 135.557 179.907 135.451 179.878 135.34L177.048 124.692C176.981 124.5 176.984 124.291 177.058 124.102C177.131 123.912 177.27 123.752 177.452 123.65H177.458Z" fill="#414141"/>
<path fill-rule="evenodd" clip-rule="evenodd" d="M179.79 138L183 137.544L182.132 133.713L180.371 133.424L179.252 130C178.202 130.384 177.859 130.877 178.05 133.261C178.202 135.28 178.471 135.365 179.79 138Z" fill="white"/>
<path fill-rule="evenodd" clip-rule="evenodd" d="M180.006 137.068L180.964 136.898L180.538 134.469L179.694 134.306C179.52 134.268 179.362 134.183 179.236 134.06C179.11 133.937 179.023 133.782 178.985 133.612L178.953 133.49C179.048 134.712 179.219 135.114 179.733 136.339L180.024 137.033L180.006 137.068ZM182.216 138.515L179.609 138.98C179.393 139.025 179.167 138.993 178.972 138.891C178.778 138.789 178.626 138.623 178.545 138.422C178.328 137.884 178.137 137.429 177.977 137.033C177.335 135.503 177.154 135.083 177.041 133.303C176.956 131.97 177.002 131.134 177.197 130.527C177.294 130.203 177.466 129.904 177.699 129.656C177.933 129.407 178.222 129.215 178.545 129.094C178.605 129.066 178.668 129.044 178.733 129.028C178.973 128.969 179.227 129.005 179.439 129.128C179.652 129.252 179.806 129.453 179.868 129.687L180.634 132.623L181.478 132.786C181.674 132.812 181.857 132.898 182 133.032C182.143 133.166 182.238 133.341 182.273 133.532L182.982 137.439C183.007 137.56 183.006 137.683 182.98 137.803C182.955 137.923 182.905 138.036 182.833 138.137C182.762 138.237 182.67 138.323 182.564 138.388C182.458 138.453 182.34 138.496 182.216 138.515Z" fill="#414141"/>
<path fill-rule="evenodd" clip-rule="evenodd" d="M196.071 188.362C195.823 188.177 196.272 187.71 196.673 187.463C197.075 187.216 197.651 186.843 198.133 187.071L203.399 189.818C203.575 189.882 203.727 190.004 203.834 190.166C203.942 190.327 204 190.521 204 190.72C204 190.919 203.942 191.114 203.834 191.275C203.727 191.437 203.575 191.559 203.399 191.623C202.947 191.871 202.447 192 201.94 192C201.432 192 200.932 191.871 200.48 191.623L196.071 188.362Z" fill="white"/>
<path fill-rule="evenodd" clip-rule="evenodd" d="M195.501 188.749C195.357 188.664 195.237 188.549 195.151 188.415C195.003 188.187 194.962 187.915 195.036 187.659C195.077 187.505 195.149 187.359 195.25 187.229C195.498 186.931 195.813 186.683 196.173 186.5C196.76 186.193 197.594 185.757 198.528 186.167L203.921 188.525C204.211 188.675 204.462 188.878 204.659 189.122C204.88 189.39 205 189.715 205 190.049C205 190.384 204.88 190.709 204.659 190.977L204.604 191.044C204.409 191.259 204.171 191.44 203.902 191.577C203.611 191.729 203.296 191.841 202.968 191.91H202.876C202.57 191.969 202.259 191.999 201.946 192C201.265 192.006 200.593 191.856 199.993 191.563L195.464 188.752L195.501 188.749ZM197.716 187.749L197.494 187.862L201.053 190.074C201.348 190.199 201.672 190.26 201.998 190.251C202.167 190.252 202.337 190.238 202.503 190.211H202.57C202.714 190.183 202.852 190.136 202.98 190.071L197.716 187.749Z" fill="#414141"/>
<path fill-rule="evenodd" clip-rule="evenodd" d="M188.062 193.094C187.845 192.946 188.238 192.572 188.589 192.371C188.94 192.17 189.445 191.875 189.866 192.057L194.473 194.256C194.626 194.306 194.76 194.403 194.854 194.533C194.949 194.662 195 194.817 195 194.977C195 195.136 194.949 195.291 194.854 195.421C194.76 195.55 194.626 195.647 194.473 195.698C194.077 195.896 193.64 196 193.196 196C192.752 196 192.314 195.896 191.919 195.698L188.062 193.094Z" fill="white"/>
<path fill-rule="evenodd" clip-rule="evenodd" d="M187.447 194.744C187.321 194.657 187.215 194.544 187.137 194.412C187.004 194.185 186.966 193.915 187.031 193.661C187.07 193.505 187.137 193.358 187.229 193.226C187.455 192.934 187.737 192.691 188.059 192.511L188.142 192.462C188.668 192.159 189.389 191.777 190.189 192.163L194.962 194.488L195.071 194.551C195.315 194.695 195.528 194.887 195.696 195.116L195.749 195.199C195.921 195.463 196.009 195.774 195.999 196.09C195.99 196.405 195.884 196.71 195.696 196.963C195.52 197.209 195.295 197.414 195.034 197.565L194.975 197.598C194.728 197.728 194.466 197.826 194.194 197.89C193.895 197.963 193.589 198 193.282 198C192.974 197.999 192.668 197.962 192.369 197.89C192.077 197.82 191.796 197.708 191.535 197.558L187.471 194.754L187.447 194.744ZM189.432 193.747L189.23 193.857L192.422 196.066C192.527 196.119 192.638 196.16 192.752 196.189C193.089 196.26 193.437 196.26 193.774 196.189C193.889 196.161 194 196.12 194.105 196.066L194.145 196.043L189.432 193.747Z" fill="#414141"/>
<path fill-rule="evenodd" clip-rule="evenodd" d="M210.817 152.334L207.726 152L207 155.427L207.892 155.967L207.863 159C208.962 158.915 209.804 158.782 210.564 156.725C211.202 154.997 211.003 154.863 210.817 152.334Z" fill="white"/>
<path fill-rule="evenodd" clip-rule="evenodd" d="M210.123 152.901L209.212 152.777L208.829 155.094L209.165 155.355C209.267 155.431 209.351 155.528 209.409 155.638C209.467 155.748 209.498 155.869 209.501 155.992V157.724C209.687 157.35 209.833 156.96 209.938 156.559C210.308 155.25 210.274 154.891 210.194 153.582L210.15 152.888L210.123 152.901ZM208.59 151.01L211.091 151.357C211.295 151.385 211.482 151.479 211.621 151.623C211.76 151.767 211.843 151.952 211.854 152.146C211.874 152.589 211.908 153.101 211.938 153.503C212.039 155.018 212.069 155.435 211.602 157.004C211.266 158.252 210.839 158.946 210.365 159.363C209.903 159.759 209.307 159.985 208.684 160H208.567C208.333 159.997 208.11 159.906 207.945 159.748C207.781 159.591 207.689 159.378 207.689 159.156L207.709 156.364L207.373 156.094C207.239 156.004 207.134 155.881 207.07 155.738C207.006 155.596 206.985 155.439 207.01 155.285L207.599 151.688C207.639 151.473 207.766 151.282 207.953 151.156C208.141 151.029 208.373 150.976 208.6 151.01H208.59Z" fill="#414141"/>
<path fill-rule="evenodd" clip-rule="evenodd" d="M208.021 142.692L208.261 151.621C208.261 151.987 208.403 152.337 208.657 152.596C208.911 152.855 209.255 153 209.613 153C209.972 153 210.316 152.855 210.57 152.596C210.824 152.337 210.966 151.987 210.966 151.621L211 142.099C211 141.795 210.92 141.497 210.77 141.234L204.507 130.427C204.365 130.12 204.162 129.846 203.913 129.621C203.663 129.397 203.37 129.227 203.053 129.122C202.737 129.017 202.402 128.979 202.071 129.011C201.739 129.043 201.417 129.143 201.125 129.306C199.979 129.979 199.688 130.871 200.347 132.037C202.387 135.653 205.748 139.107 208.021 142.692Z" fill="white"/>
<path fill-rule="evenodd" clip-rule="evenodd" d="M208.983 142.275L209.227 151.646C209.227 151.738 209.255 151.827 209.306 151.902C209.355 151.982 209.426 152.045 209.509 152.082C209.567 152.106 209.629 152.119 209.691 152.122C209.783 152.12 209.871 152.09 209.946 152.035C210.021 151.982 210.079 151.907 210.115 151.819V151.78C210.129 151.732 210.136 151.682 210.135 151.632L210.166 141.673C210.169 141.599 210.16 141.524 210.139 141.453C210.121 141.381 210.094 141.311 210.056 141.248L203.684 129.951C203.66 129.906 203.638 129.859 203.619 129.811L203.55 129.681C203.346 129.356 203.041 129.115 202.686 129C202.331 128.885 201.95 128.903 201.606 129.05L201.479 129.119C201.185 129.255 200.949 129.499 200.815 129.804C200.792 129.957 200.799 130.113 200.834 130.263C200.87 130.414 200.933 130.555 201.021 130.68C202.139 132.709 203.67 134.713 205.198 136.713C206.481 138.393 207.765 140.073 208.817 141.759C208.91 141.911 208.962 142.087 208.965 142.268L208.983 142.275ZM207.414 151.646L207.176 142.578C206.179 141.003 204.992 139.445 203.801 137.892C202.229 135.83 200.65 133.765 199.469 131.617C199.251 131.273 199.104 130.884 199.038 130.477C198.973 130.069 198.991 129.652 199.091 129.252C199.345 128.468 199.884 127.82 200.591 127.45C200.685 127.391 200.783 127.338 200.884 127.291C201.633 126.953 202.473 126.908 203.252 127.164C204.03 127.42 204.695 127.96 205.126 128.686L205.164 128.744L205.277 128.978L211.646 140.26C211.763 140.471 211.853 140.698 211.914 140.934C211.972 141.17 212 141.412 212 141.655L211.966 151.607C211.967 151.891 211.919 152.173 211.825 152.439L211.794 152.537C211.558 153.12 211.112 153.582 210.552 153.822C209.993 154.061 209.365 154.059 208.807 153.816C208.394 153.631 208.042 153.324 207.792 152.933C207.552 152.552 207.42 152.107 207.414 151.65V151.646Z" fill="#414141"/>
<path fill-rule="evenodd" clip-rule="evenodd" d="M195.726 128.412C196.275 128.799 196.881 129 197.496 129C198.111 129 198.718 128.799 199.266 128.412C200.245 127.633 200.245 126.367 199.266 125.588C198.718 125.201 198.111 125 197.496 125C196.881 125 196.275 125.201 195.726 125.588C194.758 126.367 194.758 127.633 195.726 128.412Z" fill="white"/>
<path fill-rule="evenodd" clip-rule="evenodd" d="M196.836 127.313C197.199 127.567 197.597 127.699 198 127.699C198.403 127.699 198.801 127.567 199.165 127.313C199.262 127.243 199.346 127.14 199.41 127.013L199.392 126.97C199.329 126.857 199.251 126.765 199.162 126.699C198.798 126.448 198.4 126.317 197.997 126.317C197.594 126.317 197.196 126.448 196.833 126.699L196.794 126.729C196.711 126.795 196.639 126.887 196.584 127V127.03C196.649 127.156 196.733 127.259 196.83 127.33L196.836 127.313ZM198 130C197.318 130.012 196.646 129.771 196.046 129.3C195.708 129.028 195.424 128.633 195.222 128.154C195.08 127.802 195.003 127.403 195 126.995C195.004 126.588 195.081 126.19 195.225 125.841C195.413 125.383 195.68 125.003 195.999 124.738L196.046 124.695C196.65 124.238 197.321 124 198.002 124C198.682 124 199.353 124.238 199.957 124.695C200.273 124.952 200.543 125.316 200.743 125.755L200.779 125.837C200.923 126.187 201 126.587 201 126.995C201 127.404 200.923 127.804 200.779 128.154C200.578 128.634 200.295 129.029 199.957 129.3C199.356 129.771 198.683 130.012 198 130Z" fill="#3D6680"/>
<path fill-rule="evenodd" clip-rule="evenodd" d="M206 153.903L205.453 172.696C205.453 172.779 205.453 172.861 205.453 172.94L204.666 188.355C204.666 188.823 204.473 189.271 204.129 189.602C203.785 189.932 203.319 190.118 202.832 190.118C202.346 190.118 201.879 189.932 201.535 189.602C201.191 189.271 200.998 188.823 200.998 188.355L200.215 172.947C200.215 172.864 200.215 172.782 200.215 172.696L199.411 160.899L197.895 161.741L196.822 177.5C196.822 177.587 196.822 177.67 196.822 177.747L196.036 193.159C196.047 193.397 196.007 193.635 195.92 193.857C195.833 194.08 195.7 194.284 195.529 194.456C195.357 194.628 195.152 194.765 194.924 194.858C194.696 194.952 194.451 195 194.203 195C193.956 195 193.711 194.952 193.483 194.858C193.255 194.765 193.049 194.628 192.878 194.456C192.707 194.284 192.574 194.08 192.486 193.857C192.399 193.635 192.36 193.397 192.371 193.159L191.584 177.754C191.584 177.672 191.584 177.586 191.584 177.503L191.016 159.92C190.473 156.284 203.976 148.377 206 153.903Z" fill="#2B7CFF"/>
<path fill-rule="evenodd" clip-rule="evenodd" d="M206.992 153.905C206.633 165.768 206.245 176.686 205.646 188.48C205.646 189.192 205.352 189.876 204.829 190.38C204.306 190.883 203.596 191.166 202.857 191.166C202.117 191.166 201.407 190.883 200.884 190.38C200.361 189.876 200.067 189.192 200.067 188.48C200.175 181.489 199.184 171.5 198.678 164.046C198.003 173.955 197.461 183.377 196.955 193.31C196.955 193.663 196.884 194.013 196.744 194.339C196.604 194.666 196.398 194.962 196.139 195.212C195.88 195.462 195.573 195.66 195.234 195.795C194.895 195.93 194.532 196 194.166 196C193.426 195.997 192.718 195.713 192.195 195.209C191.673 194.705 191.378 194.022 191.376 193.31L190.597 177.876C190.088 172.23 190.195 165.681 190.012 159.924C189.8 157.985 192.381 155.291 195.591 153.397C196.858 152.638 198.211 152.02 199.622 151.554C200.885 151.11 202.231 150.929 203.571 151.025C205.151 151.201 206.378 151.958 206.949 153.511C206.993 153.634 207.008 153.765 206.996 153.895L206.992 153.905ZM204.551 172.707L205.1 153.988C204.947 153.661 204.702 153.381 204.394 153.18C204.085 152.98 203.724 152.865 203.352 152.85C202.286 152.788 201.219 152.941 200.218 153.3C198.944 153.721 197.723 154.279 196.578 154.963C193.911 156.543 191.732 158.559 191.911 159.755V159.845C192.27 171.013 192.565 182.167 193.286 193.317C193.286 193.546 193.381 193.766 193.549 193.928C193.717 194.09 193.946 194.181 194.184 194.181C194.422 194.181 194.65 194.09 194.818 193.928C194.986 193.766 195.081 193.546 195.081 193.317C195.497 188.4 195.799 182.436 195.885 177.506L196.962 161.646C196.973 161.496 197.022 161.351 197.105 161.223C197.189 161.096 197.304 160.991 197.44 160.917L198.904 160.101C199.042 160.012 199.201 159.96 199.367 159.949C199.532 159.938 199.698 159.969 199.846 160.039C199.995 160.109 200.123 160.216 200.216 160.348C200.308 160.48 200.364 160.633 200.376 160.792C201.008 170.079 201.388 179.193 201.988 188.473C201.987 188.587 202.01 188.699 202.055 188.804C202.1 188.91 202.166 189.005 202.25 189.085C202.332 189.165 202.43 189.228 202.538 189.271C202.646 189.314 202.762 189.335 202.878 189.334C202.995 189.334 203.112 189.313 203.22 189.27C203.328 189.227 203.427 189.164 203.51 189.084C203.593 189.004 203.659 188.91 203.704 188.805C203.749 188.701 203.772 188.589 203.772 188.476C204.171 183.539 204.458 177.679 204.551 172.707Z" fill="#414141"/>
<path fill-rule="evenodd" clip-rule="evenodd" d="M205.977 152.407L204.226 144.104L205.08 131.082C205.185 130.583 204.485 128.916 203.809 128.53C203.228 128.191 202.566 128.008 201.89 128C201.214 127.992 200.547 128.16 199.958 128.485L192.384 132.753C191.866 133.038 191.099 133.696 191.25 134.326L192.3 148.426L190.031 158.069C189.877 158.713 190.318 159.185 190.878 159.502C191.534 159.829 192.258 160 192.993 160C193.728 160 194.453 159.829 195.108 159.502L204.131 154.381C204.881 153.96 206.19 153.409 205.977 152.407Z" fill="white"/>
<path fill-rule="evenodd" clip-rule="evenodd" d="M205.117 152.614L203.348 144.297C203.335 144.217 203.335 144.137 203.348 144.058L204.207 130.955L204.229 130.82C204.164 130.521 204.053 130.233 203.899 129.967C203.785 129.692 203.613 129.444 203.394 129.239C202.932 128.981 202.411 128.841 201.879 128.831C201.384 128.82 200.895 128.939 200.464 129.177C197.92 130.601 195.337 132.137 192.768 133.495C192.535 133.623 192.329 133.795 192.163 134.001C192.128 134.049 192.092 134.036 192.096 134.056C192.112 134.118 192.122 134.18 192.124 134.244L193.186 148.389C193.193 148.494 193.182 148.6 193.154 148.701L190.872 158.352C190.864 158.369 190.86 158.388 190.86 158.406C190.86 158.425 190.864 158.443 190.872 158.46C190.975 158.606 191.114 158.725 191.275 158.806L191.314 158.831C191.82 159.073 192.378 159.191 192.942 159.177C193.522 159.193 194.096 159.064 194.612 158.803L203.726 153.65L204.045 153.477C204.519 153.224 205.166 152.877 205.106 152.659V152.624L205.117 152.614ZM205.209 144.044L206.949 152.278C207.279 153.82 205.93 154.541 204.94 155.071L204.667 155.22L195.549 160.373C194.756 160.779 193.875 160.994 192.979 161C192.084 161.005 191.2 160.801 190.401 160.404L190.341 160.373C189.906 160.136 189.54 159.794 189.279 159.378C189.146 159.163 189.059 158.924 189.021 158.676C188.983 158.427 188.997 158.173 189.06 157.93L191.321 148.386L190.26 134.403C190.219 134.147 190.232 133.886 190.298 133.636C190.365 133.386 190.483 133.151 190.645 132.947C190.968 132.524 191.377 132.17 191.845 131.908L199.523 127.6C200.246 127.193 201.069 126.985 201.904 127.001C202.755 127.009 203.59 127.232 204.328 127.649C204.876 128.032 205.308 128.555 205.577 129.16C205.897 129.753 206.068 130.412 206.076 131.083L205.209 144.044Z" fill="#414141"/>
<path fill-rule="evenodd" clip-rule="evenodd" d="M199.65 126H195.319L195.003 130.345C194.999 130.39 194.999 130.436 195.003 130.481C195.024 130.713 195.104 130.935 195.233 131.123C195.362 131.312 195.537 131.46 195.739 131.554C196.285 131.847 196.889 132 197.501 132C198.114 132 198.718 131.847 199.263 131.554C199.466 131.461 199.641 131.312 199.77 131.124C199.9 130.935 199.979 130.713 200 130.481C200 130.435 200 130.392 200 130.345L199.65 126Z" fill="white"/>
<path fill-rule="evenodd" clip-rule="evenodd" d="M199.09 127.046H196.897L196.676 130.466L196.696 130.501C196.749 130.567 196.81 130.623 196.878 130.667C197.224 130.866 197.602 130.969 197.986 130.969C198.369 130.969 198.747 130.866 199.094 130.667L199.129 130.64C199.196 130.597 199.254 130.538 199.301 130.466C199.349 130.017 199.122 127.681 199.084 127.046H199.09ZM196.118 125H199.87C200.083 125.001 200.288 125.099 200.444 125.275C200.6 125.45 200.696 125.69 200.713 125.948C200.808 127.453 200.927 128.973 201 130.482C200.997 130.899 200.885 131.306 200.681 131.642C200.499 131.941 200.268 132.193 200.004 132.381L199.953 132.42C199.351 132.801 198.682 133 198.003 133C197.324 133 196.655 132.801 196.054 132.42C195.795 132.243 195.567 132.01 195.38 131.731L195.319 131.642C195.116 131.305 195.004 130.899 195 130.482C195.147 129.042 195.192 127.453 195.284 125.99C195.292 125.724 195.384 125.473 195.542 125.288C195.7 125.103 195.911 125 196.13 125H196.118ZM199.311 130.466C199.311 130.466 199.308 130.47 199.308 130.466H199.311Z" fill="#414141"/>
<path fill-rule="evenodd" clip-rule="evenodd" d="M199.268 126.561C198.72 126.85 198.114 127 197.5 127C196.886 127 196.28 126.85 195.732 126.561C194.756 125.977 194.756 125.042 195.732 124.439C196.28 124.15 196.886 124 197.5 124C198.114 124 198.72 124.15 199.268 124.439C200.244 125.027 200.244 125.977 199.268 126.561Z" fill="white"/>
<path fill-rule="evenodd" clip-rule="evenodd" d="M199.944 127.426C199.345 127.803 198.678 128 198.002 128C197.325 128 196.658 127.803 196.059 127.426C195.717 127.202 195.43 126.874 195.227 126.475C195.08 126.179 195.002 125.842 195 125.498C195.002 125.156 195.08 124.821 195.227 124.528C195.428 124.13 195.713 123.801 196.053 123.574L196.112 123.536C196.708 123.177 197.367 122.994 198.034 123C198.701 123.007 199.357 123.203 199.947 123.574L200.004 123.615C200.321 123.836 200.585 124.148 200.773 124.525C200.919 124.819 200.998 125.155 201 125.498C200.998 125.841 200.92 126.177 200.773 126.472C200.573 126.873 200.287 127.203 199.944 127.426ZM198 125.977C198.384 125.992 198.764 125.889 199.106 125.679C199.179 125.634 199.244 125.572 199.298 125.498C199.253 125.437 199.2 125.386 199.141 125.347L199.103 125.321C198.762 125.111 198.383 125.009 198 125.023C197.632 125.011 197.267 125.104 196.935 125.294L196.9 125.321C196.827 125.368 196.761 125.429 196.705 125.502C196.759 125.575 196.824 125.635 196.897 125.679C197.238 125.887 197.617 125.99 198 125.977Z" fill="#414141"/>
<path fill-rule="evenodd" clip-rule="evenodd" d="M198.001 116C200.146 116 202.18 117.789 201.987 120.033L201.565 124.964C201.389 127.038 200.301 129 198.014 129C195.821 129 194.659 127.176 194.46 124.964L194.014 120.033C193.814 117.824 195.808 116 198.001 116Z" fill="white"/>
<path fill-rule="evenodd" clip-rule="evenodd" d="M197.972 115C198.101 115 198.253 115 198.427 115.025H198.455C199.622 115.143 200.72 115.651 201.577 116.471C202.019 116.883 202.372 117.383 202.617 117.94C202.862 118.498 202.992 119.101 203 119.712C203 119.836 203 119.961 203 120.089L202.563 125.064C202.488 126.371 202.001 127.618 201.175 128.617C200.766 129.054 200.275 129.402 199.732 129.64C199.188 129.877 198.603 130 198.012 130C197.421 130 196.836 129.877 196.293 129.64C195.749 129.402 195.258 129.054 194.849 128.617C194.023 127.618 193.536 126.371 193.462 125.064L193 120.067C193 119.925 193 119.801 193 119.712C193.009 119.111 193.136 118.517 193.375 117.968C193.613 117.418 193.958 116.923 194.388 116.514C195.249 115.679 196.358 115.164 197.539 115.05C197.719 115.05 197.885 115.021 198.021 115.021L197.972 115ZM198.264 116.89C198.19 116.89 198.093 116.89 197.972 116.89C197.868 116.884 197.764 116.884 197.66 116.89C196.892 116.965 196.171 117.298 195.609 117.839C195.355 118.076 195.151 118.363 195.009 118.683C194.867 119.003 194.791 119.35 194.783 119.701C194.829 121.35 195.092 123.219 195.245 124.889C195.292 125.784 195.617 126.641 196.171 127.334C196.653 127.827 197.306 128.103 197.986 128.103C198.667 128.103 199.319 127.827 199.801 127.334C200.355 126.642 200.679 125.787 200.724 124.893C200.873 123.191 201.071 121.407 201.164 119.708C201.158 119.352 201.079 119.001 200.934 118.677C200.789 118.353 200.58 118.063 200.321 117.825C199.761 117.291 199.046 116.96 198.285 116.883L198.264 116.89Z" fill="#414141"/>
<path fill-rule="evenodd" clip-rule="evenodd" d="M199.16 125.998C196.499 125.903 197.48 120.877 194 119.412C193.975 115.098 201.431 114.244 201.941 120.57C202.172 123.424 201.824 126.089 199.16 125.998Z" fill="white"/>
<path fill-rule="evenodd" clip-rule="evenodd" d="M199.174 126.997C197.264 126.932 196.721 125.44 196.089 123.714C195.602 122.38 195.046 120.847 193.551 120.228C193.38 120.157 193.235 120.031 193.136 119.868C193.037 119.705 192.99 119.513 193.002 119.32C193.011 118.496 193.251 117.692 193.693 117.01C194.134 116.328 194.757 115.798 195.484 115.487C196.126 115.184 196.819 115.019 197.522 115.003C198.248 114.98 198.972 115.112 199.648 115.391C201.316 116.079 202.71 117.722 202.939 120.486V120.51C203.066 122.084 203.02 123.604 202.559 124.804C202.016 126.179 200.983 127.059 199.174 126.997ZM197.705 123.068C198.114 124.192 198.467 125.161 199.229 125.185C200.171 125.216 200.698 124.79 200.963 124.113C201.29 123.25 201.323 121.992 201.215 120.675V120.654C201.051 118.688 200.122 117.56 199.014 117.089C198.101 116.718 197.086 116.741 196.191 117.155C195.848 117.303 195.542 117.532 195.298 117.826C195.054 118.119 194.878 118.469 194.784 118.846C196.524 119.829 197.149 121.548 197.705 123.068Z" fill="#414141"/>
<path fill-rule="evenodd" clip-rule="evenodd" d="M201.502 121C200.839 121.002 200.204 121.237 199.735 121.655C199.266 122.073 199.002 122.639 199 123.23V131.773C199.003 132.363 199.267 132.929 199.736 133.346C200.205 133.763 200.839 133.998 201.502 134C202.164 133.999 202.799 133.764 203.267 133.347C203.736 132.929 203.999 132.363 204 131.773V123.23C203.999 122.64 203.736 122.073 203.267 121.655C202.799 121.237 202.164 121.002 201.502 121Z" fill="white"/>
<path fill-rule="evenodd" clip-rule="evenodd" d="M201.504 121.744C201.091 121.745 200.695 121.893 200.404 122.155C200.112 122.417 199.947 122.773 199.946 123.144V131.854C199.946 132.226 200.111 132.582 200.403 132.844C200.695 133.106 201.091 133.254 201.504 133.254C201.917 133.254 202.313 133.106 202.605 132.844C202.897 132.582 203.061 132.226 203.061 131.854V123.144C203.062 122.96 203.023 122.777 202.945 122.607C202.866 122.437 202.751 122.283 202.605 122.153C202.461 122.023 202.289 121.92 202.1 121.85C201.911 121.78 201.708 121.744 201.504 121.744ZM199.032 120.922C199.356 120.63 199.741 120.398 200.165 120.24C200.588 120.081 201.043 120 201.502 120C201.961 120 202.415 120.081 202.839 120.24C203.263 120.398 203.648 120.63 203.972 120.922C204.628 121.511 204.998 122.31 205 123.144V131.854C205 132.689 204.631 133.489 203.975 134.079C203.318 134.669 202.428 135 201.5 135C200.572 135 199.682 134.669 199.025 134.079C198.369 133.489 198 132.689 198 131.854V123.144C198.002 122.73 198.095 122.32 198.274 121.939C198.453 121.558 198.715 121.212 199.043 120.922H199.032Z" fill="#414141"/>
<path fill-rule="evenodd" clip-rule="evenodd" d="M200.452 159.106C200.696 158.993 200.977 158.969 201.239 159.041C201.5 159.112 201.722 159.273 201.858 159.49C201.994 159.706 202.034 159.963 201.97 160.206C201.906 160.449 201.743 160.661 201.514 160.797L197.607 162.861C197.486 162.928 197.352 162.972 197.212 162.99C197.073 163.008 196.931 163.001 196.794 162.969C196.658 162.936 196.53 162.879 196.417 162.8C196.305 162.722 196.211 162.624 196.141 162.512C196.071 162.4 196.026 162.276 196.008 162.147C195.991 162.019 196.001 161.889 196.039 161.764C196.077 161.64 196.142 161.523 196.23 161.422C196.317 161.321 196.426 161.236 196.55 161.174L200.452 159.106Z" fill="#414141"/>
<path fill-rule="evenodd" clip-rule="evenodd" d="M195 136.788L186.408 147.281C186.217 147.542 185.956 147.746 185.654 147.869C185.353 147.992 185.022 148.029 184.7 147.977C184.378 147.924 184.078 147.783 183.832 147.57C183.587 147.357 183.407 147.08 183.312 146.771L180.159 137.942C180.068 137.769 180.015 137.58 180.003 137.386C179.99 137.192 180.02 136.998 180.088 136.815C180.157 136.633 180.263 136.467 180.401 136.329C180.539 136.19 180.704 136.081 180.887 136.01C181.07 135.939 181.265 135.906 181.462 135.915C181.658 135.923 181.85 135.972 182.026 136.059C182.202 136.146 182.357 136.268 182.482 136.418C182.607 136.568 182.699 136.742 182.751 136.93L185.28 142.623L191.284 133.811L192.047 133L195 136.788Z" fill="white"/>
<path fill-rule="evenodd" clip-rule="evenodd" d="M193.298 138.112C193.374 138.016 193.47 137.936 193.58 137.876C193.69 137.815 193.812 137.777 193.938 137.762C194.065 137.747 194.194 137.756 194.316 137.789C194.439 137.822 194.553 137.877 194.652 137.952C194.751 138.028 194.833 138.121 194.892 138.226C194.951 138.331 194.987 138.447 194.997 138.566C195.007 138.684 194.991 138.803 194.95 138.916C194.91 139.029 194.845 139.133 194.759 139.221L187.166 147.952C187.013 148.147 186.831 148.321 186.626 148.468C186.421 148.616 186.195 148.736 185.954 148.825L185.761 148.888C185.102 149.076 184.391 149.026 183.769 148.747C183.148 148.469 182.661 147.983 182.406 147.385L179.154 138.768C178.961 138.295 178.949 137.775 179.119 137.295C179.289 136.814 179.631 136.403 180.087 136.129C180.544 135.856 181.087 135.737 181.626 135.793C182.166 135.849 182.668 136.076 183.049 136.436L183.07 136.456C183.274 136.655 183.435 136.888 183.546 137.142L185.411 141.101L185.768 140.584C187.734 137.585 190.857 132.84 192.78 132.07C193.01 131.979 193.27 131.977 193.502 132.064C193.734 132.151 193.92 132.32 194.018 132.535C194.116 132.75 194.119 132.992 194.025 133.209C193.932 133.425 193.75 133.598 193.519 133.69C192.151 134.236 189.231 138.688 187.38 141.501C186.823 142.344 186.362 143.05 186.062 143.463C185.959 143.601 185.818 143.709 185.654 143.777C185.425 143.869 185.166 143.874 184.934 143.789C184.701 143.704 184.514 143.537 184.414 143.323L181.82 137.812C181.799 137.761 181.768 137.714 181.73 137.672C181.666 137.61 181.582 137.567 181.491 137.549C181.413 137.53 181.332 137.532 181.254 137.552C181.177 137.573 181.107 137.612 181.051 137.665C180.985 137.726 180.939 137.804 180.919 137.889C180.901 137.977 180.909 138.068 180.944 138.152C182.063 141.001 183.11 143.903 184.196 146.769C184.275 146.954 184.425 147.104 184.617 147.19C184.809 147.275 185.029 147.291 185.232 147.232L185.297 147.209C185.372 147.184 185.442 147.148 185.504 147.102C185.567 147.057 185.622 147.003 185.668 146.942L193.298 138.112Z" fill="#414141"/>
</svg>
