<svg width="181" height="115" viewBox="0 0 181 115" fill="none" xmlns="http://www.w3.org/2000/svg">
<path fill-rule="evenodd" clip-rule="evenodd" d="M33.1121 1.28604C27.4033 0.778342 23.3838 2.77658 18.9947 6.2334C12.394 11.9736 8.51108 18.8214 5.40618 26.8911C2.26851 35.8102 0.920319 43.8747 1.24521 53.3241C1.73057 60.4772 2.95634 66.5342 6.6543 72.7483C9.23454 76.572 11.633 78.92 16.053 80.4437L20.5171 81.4057L28.3364 83.0723L45.2948 3.90428L33.1121 1.28604Z" fill="#2B7CFF"/>
<path fill-rule="evenodd" clip-rule="evenodd" d="M26.7799 3.12631C24.2798 3.92957 22.0446 5.35841 19.7425 7.16993C14.0859 12.1059 9.99662 18.3286 6.53917 27.3077C3.40866 36.2129 2.1489 44.2373 2.46004 53.2834C2.9992 61.3124 4.51343 66.7796 7.69748 72.1297C9.99889 75.538 12.1866 77.8255 16.4615 79.3105L27.4124 81.6409L43.8731 4.82324L32.9376 2.46842C30.6335 2.27659 28.6374 2.52954 26.7799 3.12631ZM28.7091 84.2109C28.5078 84.2755 28.2906 84.2909 28.0868 84.2516L15.8057 81.6184C10.7739 79.8912 8.21323 77.2108 5.65965 73.4213C1.42702 66.3032 0.464412 59.6024 0.0473407 53.4061C-0.273321 44.0058 1.02419 35.7129 4.27039 26.4909C7.88566 17.0844 12.1797 10.5668 18.2042 5.32233C22.1274 2.23266 26.6292 -0.503078 33.2198 0.0786243C33.2691 0.0861144 33.3207 0.08894 33.3722 0.103465L45.556 2.72519C46.2106 2.86829 46.6188 3.50224 46.4835 4.15546L29.512 83.3315C29.4458 83.6324 29.2577 83.9064 28.9862 84.0791C28.9011 84.1414 28.808 84.1791 28.7091 84.2109Z" fill="#414141"/>
<path fill-rule="evenodd" clip-rule="evenodd" d="M48.2104 75.2268C60.5151 61.677 65.9199 36.592 60.2837 19.1981C54.644 1.79373 40.0993 -1.32779 27.798 12.2326C15.4897 25.7835 10.0801 50.8895 15.7163 68.2833C21.3583 85.6948 35.9033 88.7812 48.2104 75.2268Z" fill="white"/>
<path fill-rule="evenodd" clip-rule="evenodd" d="M39.1792 5.72146C35.6338 6.86054 32.0626 9.34002 28.6932 13.044C16.6649 26.2914 11.3595 50.9134 16.8693 67.9168C19.4554 75.8979 24.0151 80.9692 29.7066 82.1815C35.4015 83.4044 41.6603 80.6517 47.3129 74.4161C59.3378 61.1698 64.6394 36.5607 59.132 19.5643C56.5389 11.562 51.9758 6.49193 46.2807 5.28075C43.9772 4.78971 41.5841 4.94883 39.1792 5.72146ZM37.5488 84.0388C34.7414 84.9408 31.9315 85.1251 29.1994 84.5387C22.6343 83.1332 17.4348 77.4831 14.5739 68.6542C8.8271 50.9192 14.3514 25.2404 26.9051 11.4242C33.153 4.53512 40.224 1.52157 46.7867 2.93168C53.3659 4.33261 58.569 9.98165 61.4355 18.8281C67.1801 36.5561 61.6489 62.2137 49.1011 76.0242C49.1011 76.0242 49.1011 76.0241 49.1045 76.0347C45.4387 80.0631 41.5074 82.767 37.5488 84.0388Z" fill="#414141"/>
<path fill-rule="evenodd" clip-rule="evenodd" d="M42.1885 14.9298L41.3748 14.8612C38.2958 14.8407 36.3157 15.6127 33.7257 17.2216C28.7329 20.7287 25.7467 25.362 23.2523 30.8277C19.9629 38.6771 18.5999 46.5755 19.4573 55.0693C20.1195 59.9403 21.2651 64.0773 24.2912 68.0256C26.0242 70.0165 27.3834 71.0828 29.9062 71.9617L33.1162 72.6391L34.3118 72.8997C38.7312 74.2411 41.8328 74.7282 48.6226 67.2494C55.4125 59.7707 60.4371 36.5088 57.3209 26.8921C54.2048 17.2753 51.1395 16.4309 46.5295 15.8731L42.1885 14.9298Z" fill="white"/>
<path fill-rule="evenodd" clip-rule="evenodd" d="M37.7999 16.5573C36.6452 16.9283 35.5777 17.4965 34.3608 18.2409C30.2056 21.1682 27.1956 25.0907 24.35 31.3256C21.0571 39.176 19.8423 46.918 20.6561 54.9521C21.1988 58.9371 22.1363 63.2381 25.2493 67.2983C26.9149 69.2138 28.1529 70.0744 30.3025 70.8246L34.5631 71.7238C38.4197 72.8926 41.1284 73.7195 47.7297 66.4411C54.28 59.2218 59.1738 36.5186 56.1739 27.2606C53.1329 17.876 50.3058 17.5377 46.3838 17.0695L41.2642 16.0579C39.937 16.0532 38.8381 16.2237 37.7999 16.5573ZM41.1163 74.4884C38.648 75.2815 36.4955 74.8235 33.9588 74.0462L29.6503 73.1313C26.6127 72.0955 25.1206 70.8117 23.3783 68.816C19.8735 64.2447 18.8479 59.5876 18.2583 55.2293C17.3995 46.7553 18.6696 38.6304 22.1379 30.3585C25.1873 23.6698 28.4417 19.4668 33.0339 16.2399C35.7243 14.5677 37.9253 13.6353 41.3787 13.656L42.2944 13.7385C42.346 13.7413 42.3917 13.75 42.4409 13.7574L46.7831 14.7042C51.6722 15.2811 55.198 16.428 58.4692 26.5231C61.721 36.5585 56.6148 60.2426 49.5178 68.0609C46.0642 71.8657 43.447 73.7396 41.1163 74.4884Z" fill="#414141"/>
<path fill-rule="evenodd" clip-rule="evenodd" d="M93.1217 112.85L71.8171 104.895L36.8219 70.9088C33.7926 69.8626 32.1616 68.2584 30.3936 65.6418C27.22 60.3 26.5201 54.5906 26.6761 48.4781C26.9959 42.8955 27.9944 38.2638 30.0053 33.0389C38.3699 13.0809 70.0201 8.76885 88.7666 8.63745C91.9411 8.61564 94.684 9.78884 96.8374 12.1146L103.601 19.4023C105.291 21.2245 106.208 23.2601 106.443 25.732L107.977 41.8109L139.581 77.2938L123.93 94.0159C124.729 95.1691 121.885 102.025 116.243 102.226C115.872 103.537 117.14 105.837 111.3 107.511C111.897 108.512 110.805 109.981 108.22 110.811L95.6297 113.07C94.7539 113.231 93.9601 113.164 93.1217 112.85Z" fill="white"/>
<path fill-rule="evenodd" clip-rule="evenodd" d="M72.4813 103.854L93.5509 111.722C94.1788 111.963 94.7556 112.011 95.4198 111.895L108.01 109.621C109.634 109.099 110.245 108.301 110.26 108.082C110.061 107.758 110.042 107.399 110.18 107.055C110.315 106.701 110.702 106.426 110.973 106.362C114.871 105.226 114.902 104.121 114.95 103.029C114.97 102.67 114.983 102.289 115.094 101.896C115.237 101.399 115.7 101.033 116.207 101.022C118.529 100.932 120.145 99.5196 121.097 98.3437C122.483 96.6402 122.925 94.8983 122.864 94.5178C122.541 94.0507 122.672 93.6125 123.06 93.1966L137.957 77.2643L107.088 42.6091C106.921 42.4181 106.813 42.1809 106.784 41.9223L105.254 25.8423C105.037 23.6324 104.237 21.8387 102.719 20.2098L95.9629 12.9316C94.0337 10.8523 91.6228 9.81322 88.7828 9.83243C77.546 9.9046 40.1917 11.8588 31.1233 33.5071C29.1701 38.5853 28.1998 43.0991 27.8882 48.5509C27.6997 55.4894 28.7916 60.5797 31.4375 65.0269C32.9891 67.3246 34.3868 68.7863 37.2195 69.7675C37.3845 69.8194 37.5384 69.9214 37.6675 70.0431L72.4813 103.854ZM108.64 111.939C108.626 111.943 108.608 111.949 108.594 111.954L95.8524 114.253C94.7486 114.456 93.7461 114.37 92.6984 113.977L71.4009 106.019C71.2418 105.961 71.0948 105.868 70.9809 105.758L36.1718 71.9489C32.9034 70.7542 31.141 68.9009 29.3938 66.3126C26.4731 61.4022 25.2772 55.9066 25.4801 48.4469C25.8051 42.6996 26.8208 37.9653 28.8822 32.6193C38.5449 9.56838 77.157 7.51295 88.767 7.43739C92.2666 7.40822 95.367 8.74618 97.7329 11.3066L104.493 18.5837C106.362 20.597 107.392 22.8873 107.657 25.6295L109.156 41.3119L140.498 76.5023C140.908 76.9726 140.905 77.661 140.484 78.1186L125.274 94.3647C125.363 95.5636 124.733 97.0126 124.392 97.6931C123.781 98.8992 121.584 102.626 117.361 103.334C117.257 105.057 116.694 106.955 112.662 108.347C112.644 108.571 112.591 108.778 112.51 108.998C112.038 110.237 110.624 111.301 108.64 111.939Z" fill="#414141"/>
<path fill-rule="evenodd" clip-rule="evenodd" d="M136.932 79.6554L123.354 74.6662L110.941 64.5525L101.351 59.6487C96.7096 57.2719 93.5265 53.6692 91.745 48.785L88.4737 39.8084L72.2896 43.2993L68.4797 52.6829C67.4485 55.2279 65.2943 57.1472 62.5376 57.1707L56.1167 57.2569C55.5018 57.2602 54.9761 57.0097 54.5982 56.5292C54.2202 56.0486 54.1001 55.4736 54.2571 54.8872L60.2458 31.8205C60.6721 30.1883 61.6004 28.7095 63.1179 27.9539L87.8623 15.5534C88.4201 15.2654 89.0231 15.4056 89.5981 15.652L109.797 24.3942C127.37 31.9994 120.799 33.8736 135.477 32.7501C139.921 32.4099 142.486 32.7351 149.397 33.1481C165.066 48.934 155.205 67.3534 142.603 76.183C142.602 76.1795 138.315 79.7822 136.932 79.6554Z" fill="white"/>
<path fill-rule="evenodd" clip-rule="evenodd" d="M137.1 78.4288C137.825 78.2815 139.96 76.8225 141.82 75.258C148.227 70.7607 155.299 62.5775 156.16 52.914C156.756 46.198 154.31 39.9469 148.858 34.3118L145.607 34.098C141.363 33.8266 139.029 33.6753 135.576 33.9457C126.175 34.6669 125.098 34.1936 120.981 31.594C118.868 30.2609 115.673 28.2465 109.316 25.4849L89.1206 16.7532C88.8799 16.648 88.5722 16.5527 88.4025 16.6189L63.6582 29.0195C62.222 29.7372 61.6347 31.2696 61.4107 32.1184L55.422 55.185C55.3588 55.4112 55.4004 55.5998 55.5477 55.7777C55.6914 55.9684 55.8562 56.0436 56.0979 56.0436L62.5257 55.9669C64.5843 55.9425 66.4275 54.5075 67.3587 52.2315L71.1663 42.8409C71.3188 42.4812 71.6501 42.2039 72.0334 42.1235L88.2175 38.6326C88.802 38.4992 89.3986 38.8241 89.6055 39.3906L92.8838 48.3766C94.5634 52.9945 97.5074 56.3284 101.903 58.5824L111.49 63.4792L123.961 73.6051L137.1 78.4288ZM137.864 80.6885C137.475 80.8133 137.124 80.8718 136.818 80.842C136.71 80.8339 136.613 80.8108 136.512 80.7771L122.934 75.7878C122.806 75.7433 122.689 75.6721 122.588 75.5881L110.172 65.4756L100.797 60.7164C95.9111 58.2122 92.4805 54.3394 90.6123 49.1996L87.6942 41.1931L73.1669 44.3342L69.5904 53.1263C68.303 56.3245 65.6034 58.3414 62.5498 58.3632L56.1288 58.4494C55.1359 58.4654 54.254 58.0419 53.6419 57.2599C53.0298 56.4779 52.8323 55.5316 53.0855 54.5803L59.0777 31.5125C59.631 29.3696 60.8753 27.7231 62.5733 26.8747L87.3177 14.4741C88.5228 13.8617 89.6855 14.3814 90.0771 14.5429L110.276 23.2851C116.809 26.1069 120.097 28.1924 122.273 29.5553C125.844 31.8141 126.493 32.219 135.39 31.5432C139.011 31.2616 141.411 31.4146 145.771 31.7035L149.46 31.9357C149.766 31.9538 150.045 32.0816 150.255 32.294C156.358 38.4462 159.234 45.6505 158.566 53.1197C157.627 63.6123 150.058 72.4171 143.29 77.1704C141.944 78.3133 139.576 80.1382 137.864 80.6885Z" fill="#414141"/>
<path fill-rule="evenodd" clip-rule="evenodd" d="M116.626 103.376C116.616 103.38 116.602 103.384 116.588 103.389C110.19 105.207 104.541 105.088 99.3172 103.034C94.2985 101.047 84.7019 95.5082 82.5764 94.1949C82.0129 93.8516 81.8357 93.1124 82.1861 92.5454C82.5342 91.9831 83.2834 91.8045 83.8481 92.1513C85.9398 93.4444 95.3378 98.8758 100.209 100.794C104.922 102.655 110.059 102.745 115.927 101.073C116.572 100.897 117.233 101.267 117.42 101.902C117.599 102.528 117.244 103.178 116.626 103.376Z" fill="#414141"/>
<path fill-rule="evenodd" clip-rule="evenodd" d="M124.337 95.2796C124.33 95.2818 124.33 95.2819 124.323 95.2841L123.818 95.4347C118.94 96.9278 113.893 98.4719 108.015 95.964C103.053 93.8377 89.3852 87.611 86.4603 85.9486C85.8779 85.6192 85.6725 84.8891 86.0043 84.3126C86.3312 83.7454 87.0714 83.527 87.6467 83.8587C90.5132 85.4854 104.041 91.6406 108.965 93.756C114.026 95.9124 118.441 94.5679 123.107 93.1346L123.609 92.9852C124.248 92.7915 124.919 93.1428 125.114 93.7677C125.31 94.4077 124.962 95.0788 124.337 95.2796Z" fill="#414141"/>
<path fill-rule="evenodd" clip-rule="evenodd" d="M134.145 85.6892C134.099 85.7039 134.06 85.7164 134.017 85.73C126.973 87.1777 119.547 88.3597 112.901 85.5509C107.584 83.3055 95.7868 78.1091 93.2452 76.378C92.696 76.0069 92.5577 75.2551 92.9361 74.7142C93.3075 74.1637 94.0634 74.018 94.6091 74.3903C96.6726 75.8011 107.101 80.4899 113.84 83.3346C119.845 85.8754 126.581 84.7989 133.526 83.3713C134.176 83.2362 134.815 83.6561 134.957 84.3097C135.083 84.914 134.724 85.5031 134.145 85.6892Z" fill="#414141"/>
<path fill-rule="evenodd" clip-rule="evenodd" d="M111.683 108.693C111.644 108.705 111.605 108.718 111.563 108.731C106.159 109.877 99.2893 110.911 94.0772 108.652C89.7766 106.787 82.6203 103.4 80.1929 101.998C79.6175 101.666 79.4204 100.925 79.758 100.355C80.0956 99.7841 80.8251 99.5808 81.4074 99.9219C83.7053 101.25 90.8231 104.614 95.0371 106.452C99.6193 108.429 106.005 107.453 111.06 106.376C111.704 106.232 112.35 106.649 112.488 107.292C112.625 107.908 112.262 108.507 111.683 108.693Z" fill="#414141"/>
<path fill-rule="evenodd" clip-rule="evenodd" d="M162.726 25.1726L150.4 22.5342C146.236 22.1748 143.498 23.012 139.86 24.973C134.344 28.392 130.928 32.542 127.523 37.9778C126.955 38.933 126.241 40.2188 125.734 41.205C121.154 50.1019 118.583 60.8393 118.467 70.8186C118.405 75.9338 118.951 80.3607 120.202 85.2561C122.374 92.4887 125.771 99.0751 133.344 101.702L145.625 104.336L162.726 25.1726Z" fill="#2B7CFF"/>
<path fill-rule="evenodd" clip-rule="evenodd" d="M144.305 24.2982C143.034 24.7066 141.799 25.2861 140.433 26.0279C135.026 29.3883 131.758 33.4907 128.553 38.614C128.008 39.5309 127.308 40.7888 126.809 41.7529C122.398 50.3277 119.799 60.9339 119.675 70.8383C119.616 75.77 120.135 80.116 121.368 84.9551C123.131 90.8163 126.142 97.9307 133.748 100.563L144.705 102.899L161.291 26.0958L150.157 23.7075C147.884 23.5136 146.064 23.7332 144.305 24.2982ZM145.998 105.47C145.804 105.533 145.59 105.547 145.379 105.498L133.098 102.877C124.317 99.8416 120.982 92.0542 119.041 85.5941C117.744 80.4961 117.196 75.9535 117.26 70.8102C117.389 60.547 120.082 49.5572 124.658 40.6614C125.178 39.6437 125.904 38.3347 126.491 37.3656C129.43 32.6698 133.003 27.813 139.217 23.9485C142.871 21.9782 145.869 20.9297 150.513 21.3405L162.986 23.9978C163.301 24.0675 163.563 24.2512 163.746 24.5148C163.914 24.7946 163.972 25.1178 163.913 25.4281L146.809 104.581C146.716 105.015 146.397 105.342 145.998 105.47Z" fill="#414141"/>
<path fill-rule="evenodd" clip-rule="evenodd" d="M165.491 96.4815C177.802 82.9295 183.211 57.855 177.571 40.4506C171.934 23.0532 157.394 19.934 145.079 33.4908C132.782 47.05 127.374 72.1513 133.008 89.5382C138.648 106.943 153.193 110.041 165.491 96.4815Z" fill="white"/>
<path fill-rule="evenodd" clip-rule="evenodd" d="M156.47 26.9685C152.921 28.1087 149.347 30.5893 145.981 34.2922C133.952 47.5513 128.646 72.158 134.157 89.165C136.746 97.1566 141.31 102.227 146.998 103.44C152.696 104.662 158.955 101.898 164.601 95.6795C176.63 82.4203 181.929 57.8158 176.422 40.8195C173.832 32.8278 169.276 27.7554 163.571 26.5359C161.275 26.0462 158.875 26.1959 156.47 26.9685ZM154.843 105.296C152.039 106.197 149.223 106.372 146.501 105.794C139.925 104.392 134.726 98.7418 131.861 89.9024C126.114 72.1638 131.648 46.4934 144.193 32.6841C150.44 25.795 157.513 22.7733 164.087 24.1835C170.659 25.5867 175.866 31.2346 178.73 40.074C184.475 57.802 178.936 83.4619 166.396 97.2817C162.737 101.32 158.802 104.025 154.843 105.296Z" fill="#414141"/>
<path fill-rule="evenodd" clip-rule="evenodd" d="M80.2476 107.833L72.1623 110.17C70.9208 110.526 69.7433 110.454 68.5597 109.918L66.9543 109.199C65.5615 108.57 64.6071 107.502 64.1375 106.053L63.1254 102.93L62.3799 102.963C61.254 103.014 60.2616 102.743 59.3145 102.131L56.21 100.118C55.2234 99.4797 54.5636 98.647 54.1588 97.5421L53.3709 95.3874L52.4676 95.3669C51.1044 95.3233 49.9457 94.8761 48.911 93.9813L46.7522 92.1078C45.3218 90.8702 44.4216 89.4156 43.9475 87.5795L43.6826 86.5694C40.1585 86.0899 36.9772 83.8886 35.8486 80.0568L35.1199 77.6151L33.7601 72.4324C33.1533 69.501 33.9636 68.5843 36.1963 67.6534C37.2201 67.2273 38.4477 66.9728 39.5471 67.105L41.0252 67.2865C42.2806 67.4307 43.0434 67.7876 44.2091 68.6054C45.1905 69.2998 45.8631 70.1362 46.3242 71.2463L46.634 71.9857L47.4494 74.4539L49.1889 74.6485L51.2985 75.5514C53.0468 76.3023 54.2495 77.6558 54.7766 79.4749L56.1415 84.1201C56.9864 84.2487 57.6799 84.3676 58.5698 84.6953L60.6348 85.461C62.4041 86.1082 63.9674 88.0449 64.4751 89.8042L66.1296 95.5719C68.0862 95.0404 69.1692 95.4225 71.3742 96.2714C72.8661 96.8446 73.9596 97.837 74.6676 99.2756L76.9125 103.797L80.2476 107.833Z" fill="white"/>
<path fill-rule="evenodd" clip-rule="evenodd" d="M37.1861 68.5702C37.013 68.6258 36.8434 68.6919 36.6738 68.7581C34.976 69.4744 34.4658 69.8131 34.9593 72.1906L37.0137 79.7095C37.9299 82.8017 40.4819 84.9139 43.8606 85.378C44.3434 85.4482 44.7436 85.805 44.8636 86.2714L45.125 87.2826C45.5415 88.8809 46.3053 90.119 47.5529 91.2017L49.7164 93.0776C50.5404 93.7916 51.429 94.1391 52.5142 94.1672L53.4174 94.1993C53.9055 94.2134 54.3425 94.5274 54.5106 94.986L55.2951 97.1302C55.6142 97.9947 56.1129 98.619 56.8779 99.115L59.986 101.126C60.7243 101.6 61.4464 101.795 62.335 101.77L63.084 101.735C63.6299 101.711 64.1206 102.058 64.2847 102.565L65.2933 105.689C65.6557 106.808 66.3895 107.628 67.4657 108.11L69.0712 108.829C69.9825 109.247 70.8667 109.305 71.834 109.029L78.1626 107.19L76.0003 104.572L73.5994 99.7973C73.0283 98.6487 72.1616 97.863 70.9516 97.3896C68.7816 96.5527 68.0212 96.3116 66.4693 96.7325C65.8316 96.9063 65.1698 96.5364 64.9893 95.8953L63.3313 90.1287C62.8952 88.6144 61.5349 87.0514 60.2345 86.5759L58.1729 85.8091C57.394 85.535 56.7685 85.4214 55.974 85.3038C55.5124 85.2269 55.1294 84.8994 55.0012 84.4435L53.6399 79.7972C53.2093 78.3238 52.2642 77.2604 50.8466 76.6517L48.8925 75.8193L47.3276 75.6463C46.8553 75.5844 46.464 75.2674 46.3122 74.823L45.2295 71.7105C44.8486 70.8115 44.3198 70.1541 43.5191 69.5842C42.4455 68.8339 41.8809 68.5958 40.8963 68.4811L39.4183 68.2996C38.7596 68.2161 37.9524 68.324 37.1861 68.5702ZM80.6181 108.968C80.6075 108.971 80.6004 108.974 80.5898 108.977L72.5043 111.326C70.9876 111.759 69.5006 111.658 68.0705 111.011L66.465 110.292C64.7661 109.525 63.5654 108.19 62.9921 106.421L62.2673 104.172C60.9575 104.197 59.7744 103.855 58.6653 103.139L55.5537 101.129C54.3478 100.343 53.5187 99.3126 53.0201 97.9543L52.4289 96.5753C50.7796 96.5149 49.3732 95.9647 48.1256 94.882L45.9655 93.0167C44.3594 91.6219 43.317 89.9451 42.784 87.8793L42.7196 87.6204C38.781 86.8119 35.814 84.1534 34.6942 80.3848L33.9724 77.9526L32.6095 72.7358C31.8148 68.9599 33.1643 67.6137 35.7363 66.5388C37.0441 65.9904 38.4768 65.767 39.6901 65.9015L41.1751 66.0807C42.747 66.2631 43.694 66.755 44.9109 67.6107C46.0905 68.4473 46.8999 69.4534 47.4517 70.7713L47.7546 71.5012L48.3613 73.3374L49.3389 73.4427C49.4538 73.4602 49.5674 73.4859 49.6819 73.5384L51.7913 74.4413C53.8763 75.3288 55.3112 76.9533 55.9522 79.1242L57.1011 83.0426C57.7078 83.1584 58.3002 83.302 59.0008 83.5508L61.0658 84.3165C63.3414 85.1544 65.0917 87.5359 65.6506 89.4651L67.0032 94.1686C68.7467 93.9541 70.0281 94.4435 71.8191 95.1457C73.594 95.8222 74.9214 97.0307 75.7559 98.7278L78.0043 103.26L81.1785 107.064C81.4325 107.378 81.52 107.793 81.3943 108.175C81.2885 108.558 80.9959 108.847 80.6181 108.968Z" fill="#414141"/>
<path fill-rule="evenodd" clip-rule="evenodd" d="M34.632 71.6356L38.9741 73.2077L40.5259 79.2958C40.5631 79.447 40.3873 79.554 40.2425 79.6005C40.1069 79.6635 39.7099 79.4609 39.5755 79.3953L37.6779 78.4244C37.0974 78.137 36.453 77.7849 36.2689 77.1566L34.632 71.6356Z" fill="white"/>
<path fill-rule="evenodd" clip-rule="evenodd" d="M36.468 73.5859L37.4238 76.8246C37.4522 76.9242 37.725 77.1162 38.2261 77.363L38.8707 77.6918L37.9615 74.1158L36.468 73.5859ZM40.6157 80.7546C40.0648 80.9316 39.5269 80.7277 39.0259 80.4809L37.1247 79.5111C36.4941 79.1894 35.4395 78.6544 35.1032 77.508L33.4722 71.9813C33.3438 71.5488 33.4761 71.079 33.8042 70.7678C34.1322 70.4566 34.6073 70.3583 35.0388 70.5109L39.3809 72.083C39.7563 72.2188 40.0432 72.5266 40.1415 72.9144L41.6967 79.0131C41.8471 79.6095 41.6003 80.3762 40.691 80.7343C40.6651 80.7388 40.6404 80.7467 40.6157 80.7546Z" fill="#414141"/>
<path fill-rule="evenodd" clip-rule="evenodd" d="M42.4481 79.3037L47.3133 80.6727L48.9572 85.8302C48.9982 85.9568 48.9876 86.0806 48.9267 86.1934C48.8669 86.3097 48.77 86.3836 48.6464 86.4233L48.145 86.5844C47.3364 86.8325 46.5474 86.7442 45.8252 86.3083L45.3188 86.0088C44.7027 85.6359 44.2922 85.1153 44.0747 84.4318L42.4481 79.3037Z" fill="white"/>
<path fill-rule="evenodd" clip-rule="evenodd" d="M44.2701 81.0717L45.227 84.0731C45.3557 84.4823 45.5808 84.7556 45.9401 84.9742L46.45 85.2842C46.8093 85.5027 47.1876 85.5753 47.578 85.4926L46.3604 81.6507L44.2701 81.0717ZM48.2723 85.289L48.2759 85.2879C48.2723 85.289 48.2723 85.289 48.2723 85.289ZM49.0179 87.5777C49.0143 87.5789 49.0072 87.5811 48.9966 87.5845L48.5094 87.7411C47.3653 88.097 46.2179 87.9491 45.1993 87.3443L44.6928 87.0449C43.8236 86.5163 43.2288 85.7637 42.9234 84.8094L41.2957 79.6777C41.1602 79.2475 41.2737 78.7915 41.5784 78.4684C41.8865 78.1558 42.3442 78.0282 42.7737 78.1504L47.6387 79.5195C48.0296 79.6308 48.3379 79.9201 48.4633 80.3071L50.1106 85.4751C50.2462 85.8937 50.2054 86.3573 49.9926 86.7597C49.7941 87.1458 49.4452 87.4405 49.0179 87.5777Z" fill="#414141"/>
<path fill-rule="evenodd" clip-rule="evenodd" d="M52.7726 88.3052L57.7679 90.0519L59.2887 94.8296C59.3264 94.9456 59.3145 95.0776 59.2547 95.1939C59.1914 95.3113 59.098 95.3841 58.9709 95.4249L58.473 95.5849C57.6715 95.8307 56.8756 95.733 56.1534 95.297L55.6469 94.9976C55.0274 94.6258 54.6227 94.1111 54.3993 93.4217L52.7726 88.3052Z" fill="white"/>
<path fill-rule="evenodd" clip-rule="evenodd" d="M54.6566 90.2361L55.5578 93.0652C55.6864 93.4743 55.9044 93.7499 56.2731 93.9733L56.776 94.2738C57.1459 94.5007 57.5137 94.565 57.9146 94.4906L56.7993 90.9885L54.6566 90.2361ZM58.6019 94.2775L58.609 94.2753C58.6055 94.2764 58.6055 94.2764 58.6019 94.2775ZM59.3533 96.5722C59.3462 96.5745 59.3427 96.5756 59.3321 96.579L58.8414 96.725C57.6938 97.082 56.5497 96.9447 55.5347 96.3271L55.0319 96.0265C54.1626 95.5096 53.5677 94.757 53.2578 93.7886L51.6242 88.6627C51.4886 88.2324 51.6071 87.7555 51.9352 87.4326C52.2574 87.1155 52.7395 87.015 53.177 87.1618L58.1686 88.9213C58.5277 89.0429 58.8043 89.3307 58.9205 89.6895L60.4378 94.4683C60.57 94.8764 60.5339 95.3424 60.3306 95.7378C60.1262 96.1297 59.7806 96.4349 59.3533 96.5722Z" fill="#414141"/>
<path fill-rule="evenodd" clip-rule="evenodd" d="M63.5677 99.0861L68.5058 100.68L69.5002 104.916C69.5507 105.156 69.4133 105.406 69.1733 105.472L68.6365 105.644C67.828 105.892 67.0426 105.803 66.3168 105.368L66.29 105.346C65.6844 104.993 65.0684 103.633 64.8507 102.961L63.5677 99.0861Z" fill="white"/>
<path fill-rule="evenodd" clip-rule="evenodd" d="M65.4613 100.964L65.9984 102.585C66.2447 103.333 66.7155 104.172 66.9299 104.329C67.3336 104.576 67.7355 104.637 68.1624 104.535L67.4815 101.627L65.4613 100.964ZM69.553 106.624C69.5495 106.625 69.5459 106.626 69.5424 106.627L69.0057 106.788C67.8721 107.152 66.7281 107.015 65.7048 106.396C64.5041 105.687 63.7922 103.574 63.71 103.332L62.4268 99.4685C62.2808 99.0299 62.3921 98.5553 62.7144 98.2381C63.0331 97.9221 63.5118 97.7994 63.94 97.9415L68.885 99.5451C69.2863 99.6764 69.5918 100.005 69.6864 100.418L70.6809 104.654C70.8662 105.515 70.3829 106.357 69.553 106.624Z" fill="#414141"/>
<path fill-rule="evenodd" clip-rule="evenodd" d="M47.4635 74.4457C46.6728 74.7851 46.0374 75.0864 45.5347 75.376C44.2768 76.1025 42.746 77.1419 42.2586 78.5258C41.7857 79.87 43.3143 84.9481 43.6942 86.5659C41.372 79.9408 38.8736 76.7549 47.4635 74.4457Z" fill="white"/>
<path fill-rule="evenodd" clip-rule="evenodd" d="M44.0661 87.7161C44.052 87.7207 44.0415 87.7241 44.0309 87.7275C43.4109 87.8956 42.765 87.5633 42.556 86.9663C42.2796 86.1735 42.0015 85.4356 41.7324 84.7376C40.5744 81.6571 39.6565 79.2334 40.7578 77.097C41.6222 75.4211 43.6049 74.2482 47.144 73.282C47.757 73.1162 48.3885 73.4531 48.5977 74.0383C48.8149 74.6365 48.5259 75.2847 47.9485 75.5363C47.2107 75.8704 46.6143 76.1475 46.1412 76.4199C45.5676 76.7556 43.8142 77.7578 43.4075 78.9332C43.166 79.7642 44.1692 83.5702 44.5416 84.9963C44.6797 85.5306 44.801 85.9771 44.873 86.2957C45.0127 86.9072 44.6629 87.5244 44.0661 87.7161Z" fill="#414141"/>
<path fill-rule="evenodd" clip-rule="evenodd" d="M56.3376 45.6593L59.6261 45.0027C59.9213 44.939 60.1987 45.013 60.4292 45.2069C61.8645 46.4118 57.8573 54.2238 57.2029 55.7778L53.0913 56.2405C53.4359 52.852 54.0092 49.6036 55.6165 46.3337C55.7781 46.0022 55.986 45.7412 56.3376 45.6593Z" fill="white"/>
<path fill-rule="evenodd" clip-rule="evenodd" d="M54.4631 54.8717L56.3803 54.6519C56.4522 54.5006 56.5348 54.3343 56.6246 54.1423C58.9562 49.1367 59.5416 47.0689 59.5461 46.2403L56.7288 46.8114C55.3619 49.608 54.7892 52.3163 54.4631 54.8717ZM57.5766 56.9239C57.4954 56.95 57.4214 56.9622 57.3345 56.9707L53.2264 57.4322C52.8692 57.4732 52.5032 57.3422 52.2427 57.0919C51.9824 56.8299 51.852 56.4757 51.8918 56.1173C52.2174 52.8746 52.7671 49.3969 54.5301 45.8013C54.9009 45.0685 55.4262 44.6201 56.0939 44.491L59.379 43.8239C60.0399 43.6854 60.6907 43.853 61.1995 44.2799C62.8245 45.6491 61.6704 49.0181 58.8117 55.1523C58.5818 55.634 58.4116 56.011 58.3131 56.2485C58.1797 56.571 57.905 56.8184 57.5766 56.9239Z" fill="#414141"/>
<path fill-rule="evenodd" clip-rule="evenodd" d="M56.1575 84.1109C54.3698 84.8989 52.2543 86.2154 51.9404 88.1105C51.7392 89.3908 53.0471 93.8601 53.3751 95.3898C51.616 90.611 48.6877 86.1224 56.1575 84.1109Z" fill="white"/>
<path fill-rule="evenodd" clip-rule="evenodd" d="M53.7502 96.5356C53.736 96.5401 53.722 96.5446 53.7078 96.5492C53.0983 96.7256 52.463 96.4015 52.2387 95.8056C52.0282 95.2402 51.8095 94.6735 51.5883 94.1232C50.5282 91.4772 49.4349 88.741 50.6061 86.3996C51.4017 84.8119 53.1283 83.6668 55.8388 82.9474C56.4518 82.7816 57.0822 83.115 57.2925 83.7038C57.5027 84.3042 57.2208 84.9501 56.6468 85.2122C54.5551 86.1328 53.3088 87.2323 53.1343 88.3059C53.0126 89.0013 53.768 91.9821 54.1344 93.4256C54.3096 94.1227 54.4657 94.7367 54.5497 95.1524C54.6813 95.751 54.3293 96.3495 53.7502 96.5356Z" fill="#414141"/>
<path fill-rule="evenodd" clip-rule="evenodd" d="M66.0254 95.6208C61.6564 97.3468 62.2369 99.2342 63.168 103.094C61.5784 98.5137 60.6763 97.1258 66.0254 95.6208Z" fill="white"/>
<path fill-rule="evenodd" clip-rule="evenodd" d="M63.5018 104.098C63.4947 104.1 63.4877 104.103 63.4736 104.107C62.8593 104.293 62.238 104.096 62.028 103.484L61.7321 102.643C60.9117 100.328 60.3233 98.657 61.098 97.1731C61.7125 95.9892 63.0308 95.2083 65.7042 94.4582C66.3207 94.2912 66.9698 94.6341 67.1753 95.2322C67.3807 95.8419 67.0716 96.5005 66.4732 96.7355C63.188 98.0279 63.3956 98.8971 64.2819 102.535C64.2909 102.575 64.2998 102.626 64.3122 102.677L64.3108 102.696C64.3639 103.281 64.0491 103.922 63.5018 104.098Z" fill="#414141"/>
<path fill-rule="evenodd" clip-rule="evenodd" d="M69.7163 39.9746C70.3712 40.8283 72.4755 42.8824 71.3514 45.6825C72.291 43.7689 73.4876 43.1903 75.0272 42.7073C72.4767 42.8743 71.1105 41.0763 69.7163 39.9746Z" fill="white"/>
<path fill-rule="evenodd" clip-rule="evenodd" d="M71.7264 46.8317C71.4545 46.9191 71.1471 46.9091 70.869 46.7849C70.2742 46.5255 69.9945 45.8425 70.235 45.237C70.919 43.5337 70.0208 42.23 69.0394 41.0423L68.7645 40.7112C68.3902 40.2178 68.4388 39.5497 68.8689 39.1203C69.306 38.6886 69.9883 38.6519 70.4751 39.0353C70.757 39.2555 71.042 39.5095 71.3329 39.7695C72.3964 40.7172 73.396 41.6 74.953 41.4959C75.5624 41.4632 76.1064 41.8787 76.2145 42.477C76.3261 43.0742 75.9814 43.6588 75.4023 43.8448C73.9969 44.4051 73.1531 44.7733 72.44 46.2063C72.2926 46.5217 72.0266 46.7353 71.7264 46.8317Z" fill="#414141"/>
<path fill-rule="evenodd" clip-rule="evenodd" d="M91.6374 36.621C90.3054 37.9849 89.9192 38.7303 85.9174 40.3501C89.3369 39.6165 88.6011 41.0762 89.6263 42.9644C88.7029 39.7658 90.4155 38.6136 91.6374 36.621Z" fill="white"/>
<path fill-rule="evenodd" clip-rule="evenodd" d="M89.9927 44.1014C89.4419 44.2784 88.8351 44.0422 88.5595 43.5288C88.2678 42.9894 88.0932 42.4747 87.9484 42.0279C87.8663 41.7864 87.7592 41.4557 87.6918 41.3802C87.6777 41.3848 87.3537 41.2753 86.1743 41.5221C85.5616 41.6646 84.949 41.3022 84.7634 40.7055C84.5779 40.1088 84.8867 39.4736 85.464 39.2337C88.7542 37.9087 89.3458 37.2798 90.3203 36.2443L90.7731 35.7765C91.1998 35.3365 91.8938 35.2883 92.3772 35.6612C92.8664 36.0399 92.9937 36.7214 92.6742 37.2396C92.3965 37.6822 92.0991 38.1001 91.803 38.5098C90.8208 39.8584 90.2263 40.6708 90.7907 42.6294C90.96 43.2119 90.6548 43.8343 90.081 44.073C90.0457 44.0843 90.021 44.0923 89.9927 44.1014Z" fill="#414141"/>
</svg>
