<svg width="264" height="180" viewBox="0 0 264 180" fill="none" xmlns="http://www.w3.org/2000/svg">
    <g clip-path="url(#clip0_280_3098)">
        <path fill-rule="evenodd" clip-rule="evenodd"
            d="M13.8116 150.074L3.27455 144.029C1.42741 142.528 1.34345 141.611 1.13354 139.318L1.17553 77.8716L11.7126 83.9162L11.6706 145.363C11.8805 147.656 11.9645 148.573 13.8116 150.074Z"
            fill="white" />
        <path fill-rule="evenodd" clip-rule="evenodd"
            d="M2.26694 79.831V139.319C2.47684 141.361 2.51882 141.945 3.98814 143.154L10.663 146.989C10.5791 146.53 10.5791 146.03 10.4951 145.488L10.5371 84.5833L2.26694 79.831ZM13.8116 151.199C13.6016 151.199 13.4337 151.158 13.2238 151.074L2.68675 145.03C0.419804 143.195 0.209902 141.945 0 139.444L0.0419804 77.8717C0.0419804 77.4548 0.251882 77.0796 0.587726 76.8712C0.923569 76.6627 1.38535 76.6627 1.76318 76.8712L12.2583 82.9158C12.6361 83.1242 12.846 83.4994 12.846 83.9163L12.804 145.363C13.0139 147.406 13.0139 147.989 14.5252 149.198C14.987 149.574 15.071 150.241 14.7351 150.741C14.5252 151.033 14.1474 151.199 13.8116 151.199Z"
            fill="#414141" />
        <path fill-rule="evenodd" clip-rule="evenodd"
            d="M11.6706 83.9163L1.17554 77.8717V57.9452C1.38544 52.9427 4.24011 48.0653 8.52211 45.3557L84.0449 2.08439C86.1439 1.12558 87.0255 0.750396 89.2084 1.58414L99.7035 7.62878C97.5206 6.79504 96.639 7.17022 94.54 8.12903L18.9752 51.4003C14.7352 54.11 11.8805 58.9457 11.6706 63.9898V83.9163Z"
            fill="#2B7CFF" />
        <path fill-rule="evenodd" clip-rule="evenodd"
            d="M2.26695 77.2047L10.5371 81.9153V63.9482C10.747 58.4871 13.7696 53.3179 18.3874 50.3998L93.9941 7.12855C94.5399 6.87843 95.0436 6.66999 95.4634 6.46156L88.6206 2.54296C87.0254 1.95934 86.4796 2.16778 84.5066 3.0849L9.06778 46.3562C5.12162 48.8574 2.51884 53.3179 2.30893 58.0286L2.26695 77.2047ZM11.6706 85.0419C11.4607 85.0419 11.2927 85.0002 11.0828 84.8751L0.587737 78.8305C0.209914 78.622 0.0419922 78.2469 0.0419922 77.83V57.9452C0.251894 52.4842 3.27448 47.315 7.89233 44.3969L83.457 1.08391C85.8079 4.52623e-05 87.0254 -0.458514 89.6282 0.500291L100.333 6.6283C100.837 6.92012 101.047 7.54542 100.795 8.08736C100.543 8.62929 99.9134 8.87941 99.3676 8.67098C97.6044 8.00398 97.0587 8.2541 95.0856 9.12953L19.6049 52.4008C15.6587 54.902 13.0559 59.3626 12.846 64.0315V83.9163C12.846 84.3332 12.6361 84.7084 12.2583 84.9168C12.0904 85.0002 11.8805 85.0419 11.6706 85.0419Z"
            fill="#414141" />
        <path fill-rule="evenodd" clip-rule="evenodd"
            d="M19.0172 51.4002L94.5819 8.12891C98.6121 5.83611 101.887 7.71203 101.887 12.3393L101.845 32.2241L11.6707 83.9162V63.9897C11.6707 59.3624 14.9871 53.693 19.0172 51.4002Z"
            fill="#2B7CFF" />
        <path fill-rule="evenodd" clip-rule="evenodd"
            d="M19.6049 52.4008C15.9526 54.4852 12.846 59.8211 12.846 63.9898V81.957L100.753 31.5572V12.3394C100.753 10.5052 100.207 9.21289 99.1577 8.62927C98.1502 8.04565 96.7649 8.21239 95.1696 9.12951L19.6049 52.4008ZM11.6706 85.0419C11.4607 85.0419 11.2928 85.0002 11.0829 84.8751C10.747 84.6667 10.5371 84.2915 10.5371 83.9163V63.9898C10.5371 58.9874 14.1054 52.9011 18.4294 50.3998L93.9942 7.12853C96.3031 5.79454 98.57 5.62779 100.333 6.62828C102.054 7.62877 103.062 9.67145 103.062 12.2977V32.1825C103.062 32.5994 102.81 32.9746 102.474 33.1413L12.2583 84.8334C12.0904 85.0002 11.8805 85.0419 11.6706 85.0419Z"
            fill="#414141" />
        <path fill-rule="evenodd" clip-rule="evenodd"
            d="M101.887 32.2241V93.7127C101.887 98.34 98.6121 104.009 94.582 106.302C66.8749 122.185 46.7243 133.691 19.0172 149.574C14.9871 151.866 11.7126 149.99 11.7126 145.363L11.7546 83.9162L101.887 32.2241Z"
            fill="white" />
        <path fill-rule="evenodd" clip-rule="evenodd"
            d="M12.846 84.5833L12.8041 145.405C12.8041 147.197 13.3498 148.531 14.3993 149.115C15.4068 149.699 16.7922 149.532 18.3874 148.615L93.9522 105.344C97.6045 103.259 100.711 97.9232 100.711 93.7545L100.753 34.1835L12.846 84.5833ZM15.7007 151.7C14.7771 151.7 13.9375 151.491 13.2239 151.033C11.5027 150.032 10.5371 147.99 10.5371 145.363L10.5791 83.9163C10.5791 83.4994 10.789 83.1242 11.1248 82.9158L101.341 31.2237C101.677 31.0153 102.096 31.0153 102.474 31.2237C102.81 31.4321 103.062 31.8073 103.062 32.2242L103.02 93.7128C103.02 98.7152 99.4936 104.802 95.1696 107.303L19.6049 150.574C18.2195 151.324 16.9181 151.7 15.7007 151.7Z"
            fill="#414141" />
        <path fill-rule="evenodd" clip-rule="evenodd"
            d="M67.0847 34.1C69.0578 32.9745 70.653 33.8916 70.653 36.1427C70.653 38.3938 69.0578 41.1035 67.0847 42.2291C65.1536 43.3546 63.5583 42.4375 63.5583 40.1864C63.5583 37.9353 65.1536 35.1839 67.0847 34.1Z"
            fill="white" />
        <path fill-rule="evenodd" clip-rule="evenodd"
            d="M68.6799 34.7255C68.428 34.7255 68.0502 34.8506 67.6724 35.059C66.0771 35.9762 64.6918 38.3106 64.6918 40.1449C64.6918 40.7702 64.9017 41.2704 65.1955 41.4372C65.4894 41.6039 65.9931 41.5206 66.5389 41.1871C68.1341 40.2699 69.4775 37.9355 69.4775 36.1012C69.4775 35.4342 69.3096 34.9757 69.0157 34.8089C68.9318 34.7672 68.8058 34.7255 68.6799 34.7255ZM65.4894 43.8133C64.9856 43.8133 64.4399 43.6883 64.0201 43.4382C63.0125 42.8545 62.4248 41.6456 62.4248 40.1866C62.4248 37.5603 64.23 34.4337 66.5389 33.1414C67.8403 32.3911 69.1417 32.3077 70.1912 32.8913C71.1987 33.4749 71.7864 34.6838 71.7864 36.1429C71.7864 38.7692 70.0233 41.8957 67.6724 43.188C66.9587 43.6049 66.203 43.8133 65.4894 43.8133Z"
            fill="#414141" />
        <path fill-rule="evenodd" clip-rule="evenodd"
            d="M79.301 27.0966C81.2321 25.9711 82.8274 26.8882 82.8274 29.1393C82.8274 31.3904 81.2321 34.1001 79.301 35.2256C77.3279 36.3512 75.7327 35.4341 75.7327 33.183C75.7327 30.9318 77.3279 28.2222 79.301 27.0966Z"
            fill="white" />
        <path fill-rule="evenodd" clip-rule="evenodd"
            d="M80.8122 27.7638C80.5603 27.7638 80.1825 27.8889 79.8047 28.0973C78.2094 29.0144 76.8241 31.3489 76.8241 33.1831C76.8241 33.8501 77.034 34.3087 77.3279 34.4754C77.6217 34.6422 78.1255 34.5588 78.6712 34.2253C80.2665 33.3082 81.6518 30.9737 81.6518 29.1395C81.6518 28.5142 81.4419 28.0139 81.19 27.8472C81.1061 27.8055 80.9802 27.7638 80.8122 27.7638ZM77.6637 36.8099C77.1599 36.8099 76.6142 36.6849 76.1944 36.4347C75.1868 35.8511 74.5991 34.6839 74.5991 33.1831C74.5991 30.5568 76.4043 27.4303 78.7132 26.138C80.0146 25.3876 81.316 25.3043 82.3655 25.8879C83.373 26.4715 83.9608 27.6804 83.9608 29.1395C83.9608 31.7658 82.1556 34.8923 79.8467 36.1846C79.133 36.6015 78.3774 36.8099 77.6637 36.8099Z"
            fill="#414141" />
        <path fill-rule="evenodd" clip-rule="evenodd"
            d="M91.4333 20.135C93.3644 19.0094 94.9597 19.9265 94.9597 22.1776C94.9597 24.4287 93.3644 27.1384 91.4333 28.264C89.4602 29.3895 87.865 28.4724 87.865 26.2213C87.907 23.9702 89.5022 21.2605 91.4333 20.135Z"
            fill="white" />
        <path fill-rule="evenodd" clip-rule="evenodd"
            d="M92.9865 20.8019C92.7347 20.8019 92.3568 20.927 91.979 21.1354C90.3838 22.0525 89.0404 24.387 89.0404 26.2212C89.0404 26.8465 89.2083 27.3468 89.5022 27.5135C89.796 27.6803 90.2998 27.5969 90.8455 27.2634C92.4408 26.3463 93.8262 24.0118 93.8262 22.1776C93.8262 21.5523 93.6163 21.052 93.3644 20.8853C93.2384 20.8019 93.1545 20.8019 92.9865 20.8019ZM89.88 29.848C89.3343 29.848 88.8305 29.7229 88.4107 29.4728C87.3612 28.8892 86.8154 27.722 86.8154 26.2212C86.8154 23.5949 88.6206 20.4684 90.9295 19.1761C92.2309 18.4257 93.5323 18.3423 94.5818 18.926C95.6313 19.5096 96.1771 20.6768 96.1771 22.1776C96.1771 24.8039 94.3719 27.9304 92.063 29.2227C91.3073 29.6396 90.5517 29.848 89.88 29.848Z"
            fill="#414141" />
        <g class='code1'>
            <path fill-rule="evenodd" clip-rule="evenodd"
                d="M39.9653 99.5073V96.2557L54.9943 87.6265V90.8364L39.9653 99.5073Z" fill="white" />
            <path fill-rule="evenodd" clip-rule="evenodd"
                d="M41.0987 96.8811V97.5064L53.8608 90.1695V89.5442L41.0987 96.8811ZM39.9652 100.633C39.7553 100.633 39.5454 100.591 39.3775 100.508C39.0417 100.299 38.7898 99.9243 38.7898 99.5074V96.2558C38.7898 95.8389 39.0417 95.4637 39.3775 95.2553L54.4485 86.6261C54.8263 86.4176 55.2461 86.4176 55.582 86.6261C55.9178 86.8345 56.1697 87.2097 56.1697 87.5849V90.8365C56.1697 91.2533 55.9598 91.6285 55.582 91.837L40.511 100.466C40.3431 100.55 40.1332 100.633 39.9652 100.633Z"
                fill="#414141" />
        
            <path fill-rule="evenodd" clip-rule="evenodd"
                d="M23.1311 105.427V100.424L34.004 89.2522L23.1311 90.6279V85.6254L38.7058 84.4165V88.7103L23.1311 105.427Z"
                fill="white" />
            <path fill-rule="evenodd" clip-rule="evenodd"
                d="M24.2647 100.883V102.55L37.5725 88.2517V85.6671L24.2647 86.6676V89.3356L33.8782 88.1267C34.34 88.0433 34.8018 88.2934 35.0537 88.752C35.2636 89.1688 35.1796 89.7108 34.8438 90.0443L24.2647 100.883ZM23.1313 106.594C22.9633 106.594 22.8374 106.552 22.7115 106.511C22.2497 106.344 21.9558 105.927 21.9558 105.469V100.424C21.9558 100.133 22.0818 99.8408 22.2917 99.6323L30.8976 90.7946L23.2572 91.7534C22.9214 91.7951 22.5855 91.7118 22.3336 91.5033C22.1237 91.2949 21.9558 90.9614 21.9558 90.6279V85.6254C21.9558 85.0418 22.4596 84.5416 23.0053 84.4999L38.622 83.2909C38.9159 83.2493 39.2517 83.3743 39.4616 83.5828C39.7135 83.7912 39.8395 84.083 39.8395 84.4165V88.6686C39.8395 88.9604 39.7135 89.2522 39.5036 89.4607L23.9289 106.219C23.761 106.469 23.4251 106.594 23.1313 106.594Z"
                fill="#414141" />
        </g>

    </g>
    <circle cx="87.7367" cy="145.473" r="3.9623" fill="#414141" />
    <path fill-rule="evenodd" clip-rule="evenodd"
        d="M229.827 75.8357L228.343 73.6843L225.02 75.8999L225.084 76.8632L222.503 79.2072C223.213 79.8173 223.794 80.2347 225.988 79.1109C227.794 78.1155 227.794 77.8907 229.827 75.8357Z"
        fill="white" />
    <path fill-rule="evenodd" clip-rule="evenodd"
        d="M228.73 75.7072L228.117 74.8081L225.891 76.2851L225.923 76.7668C225.923 77.0237 225.826 77.2806 225.633 77.4411L224.052 78.886C224.407 78.8218 224.858 78.6613 225.568 78.3081C226.891 77.6017 227.181 77.3127 228.182 76.2851L228.73 75.7072ZM229.053 73.1705L230.537 75.3218C230.795 75.6429 230.763 76.1246 230.472 76.4136C230.053 76.831 229.73 77.1842 229.44 77.4732C228.311 78.6613 227.988 79.0145 226.407 79.8172C225.149 80.4594 224.31 80.6521 223.665 80.62C222.923 80.5558 222.471 80.2347 222.019 79.8493C221.987 79.8172 221.955 79.7851 221.923 79.753C221.6 79.3998 221.632 78.8539 221.987 78.5328L224.278 76.4457L224.246 75.9319C224.213 75.6108 224.342 75.2897 224.6 75.1292L227.923 72.9136C228.246 72.6888 228.795 72.7852 229.053 73.1705Z"
        fill="#414141" />
    <path fill-rule="evenodd" clip-rule="evenodd"
        d="M208.727 118.092C208.275 117.835 208.049 117.514 208.049 117.161C208.049 116.84 208.275 116.487 208.727 116.23C209.179 115.973 209.759 115.844 210.34 115.844C210.921 115.844 211.501 115.973 211.953 116.23L216.212 118.67C216.664 118.927 216.889 119.248 216.889 119.601C216.889 119.922 216.664 120.276 216.212 120.533C215.76 120.789 215.179 120.918 214.599 120.918C214.018 120.918 213.437 120.789 212.986 120.533L208.727 118.092Z"
        fill="white" />
    <path fill-rule="evenodd" clip-rule="evenodd"
        d="M208.307 118.831C207.985 118.638 207.727 118.413 207.533 118.156L207.501 118.092C207.307 117.803 207.21 117.482 207.21 117.161C207.21 116.808 207.307 116.455 207.533 116.166C207.727 115.909 207.985 115.684 208.307 115.491C208.598 115.331 208.92 115.202 209.275 115.106C209.63 115.01 209.985 114.978 210.34 114.978C210.695 114.978 211.082 115.01 211.405 115.106L211.501 115.138C211.824 115.234 212.114 115.331 212.405 115.491L216.728 117.964C217.018 118.156 217.277 118.349 217.438 118.606C217.664 118.927 217.76 119.248 217.76 119.601C217.76 119.955 217.664 120.276 217.438 120.597C217.244 120.854 217.018 121.078 216.664 121.271C216.373 121.432 216.051 121.56 215.696 121.656C215.341 121.753 214.986 121.785 214.631 121.785C214.276 121.785 213.889 121.753 213.566 121.656L213.469 121.624C213.147 121.528 212.856 121.432 212.566 121.271L208.307 118.831ZM208.92 117.161C208.953 117.225 209.049 117.289 209.146 117.354L213.405 119.794C213.534 119.858 213.695 119.922 213.857 119.987H213.921C214.147 120.051 214.373 120.051 214.599 120.051C214.825 120.051 215.05 120.019 215.276 119.987C215.47 119.955 215.631 119.89 215.792 119.794C215.889 119.73 215.986 119.666 216.018 119.601C215.986 119.537 215.921 119.505 215.825 119.441L211.534 116.968C211.405 116.904 211.243 116.84 211.082 116.776H211.017C210.792 116.711 210.566 116.711 210.34 116.711C210.114 116.711 209.888 116.744 209.662 116.776C209.469 116.808 209.308 116.872 209.146 116.968C209.049 117.033 208.953 117.097 208.92 117.161Z"
        fill="#414141" />
    <path fill-rule="evenodd" clip-rule="evenodd"
        d="M199.758 123.133C199.306 122.877 199.08 122.555 199.08 122.202C199.08 121.881 199.306 121.528 199.758 121.271C200.21 121.014 200.79 120.886 201.371 120.886C201.952 120.886 202.532 121.014 202.984 121.271L207.243 123.711C207.695 123.968 207.92 124.289 207.92 124.643C207.92 124.964 207.695 125.317 207.243 125.574C206.791 125.831 206.21 125.959 205.63 125.959C205.049 125.959 204.468 125.831 204.017 125.574L199.758 123.133Z"
        fill="white" />
    <path fill-rule="evenodd" clip-rule="evenodd"
        d="M199.338 123.872C199.016 123.679 198.758 123.455 198.564 123.198C198.338 122.877 198.241 122.555 198.241 122.202C198.241 121.849 198.338 121.528 198.564 121.207C198.725 120.95 198.984 120.725 199.338 120.533C199.629 120.372 199.951 120.244 200.306 120.147C200.661 120.051 201.016 120.019 201.371 120.019C201.726 120.019 202.081 120.051 202.436 120.147C202.791 120.244 203.113 120.372 203.404 120.533L207.662 122.973C207.985 123.166 208.243 123.39 208.437 123.647C208.662 123.968 208.759 124.289 208.759 124.643C208.759 124.996 208.662 125.317 208.437 125.638C208.243 125.895 208.017 126.12 207.662 126.312C207.372 126.473 207.049 126.601 206.694 126.698C206.339 126.794 205.985 126.826 205.63 126.826C205.275 126.826 204.92 126.794 204.565 126.698C204.21 126.601 203.887 126.473 203.597 126.312L199.338 123.872ZM199.951 122.202C199.984 122.266 200.08 122.331 200.177 122.395L204.436 124.835C204.597 124.932 204.759 124.996 204.952 125.028C205.146 125.092 205.404 125.092 205.63 125.092C205.856 125.092 206.114 125.06 206.307 125.028C206.501 124.996 206.662 124.932 206.823 124.835C206.92 124.771 207.017 124.707 207.049 124.643C207.017 124.578 206.92 124.514 206.823 124.45L202.565 122.01C202.403 121.913 202.242 121.849 202.048 121.817C201.855 121.753 201.597 121.753 201.371 121.753C201.113 121.753 200.887 121.785 200.693 121.817C200.5 121.849 200.339 121.913 200.177 122.01C200.08 122.074 200.016 122.138 199.951 122.202Z"
        fill="#414141" />
    <path fill-rule="evenodd" clip-rule="evenodd"
        d="M211.308 78.0832C212.502 78.5328 213.373 79.7208 213.373 81.0695C213.373 81.1658 213.373 81.2621 213.373 81.3263L213.341 98.9546C213.341 104.413 212.857 110.418 212.631 115.909C212.631 116.23 212.405 116.583 211.953 116.84C211.502 117.097 210.921 117.225 210.34 117.225C209.759 117.225 209.179 117.097 208.727 116.84C208.275 116.583 208.049 116.262 208.049 115.909C208.049 110.225 207.985 104.574 207.985 98.8904L206.598 88.0052L204.823 89.0006L204.339 103.996C204.146 109.647 203.855 115.299 203.629 120.95C203.629 121.271 203.404 121.624 202.952 121.881C202.5 122.138 201.919 122.266 201.339 122.266C200.758 122.266 200.177 122.138 199.726 121.881C199.274 121.624 199.048 121.303 199.048 120.95C199.048 115.266 198.984 109.615 198.984 103.932L197.983 86.3676C197.983 86.2712 197.983 86.207 197.983 86.1107C197.983 84.2162 199.177 83.574 200.564 82.8034L205.146 80.2346L208.404 78.4043C209.372 77.8585 210.34 77.6979 211.308 78.0832Z"
        fill="#2B7CFF" />
    <path fill-rule="evenodd" clip-rule="evenodd"
        d="M211.631 77.2805C212.405 77.5695 213.05 78.1153 213.534 78.7896C213.986 79.4318 214.244 80.2346 214.244 81.0694V81.3905L214.212 98.9546C214.212 102.583 213.986 106.5 213.792 110.354C213.696 112.248 213.599 114.143 213.502 115.909C213.502 116.551 213.147 117.161 212.405 117.578L212.34 117.61C212.05 117.771 211.76 117.867 211.437 117.964C211.082 118.06 210.727 118.092 210.372 118.092C210.018 118.092 209.63 118.06 209.308 117.964L209.211 117.931C208.888 117.835 208.598 117.739 208.308 117.578L208.275 117.546C207.953 117.353 207.727 117.129 207.566 116.904C207.34 116.583 207.243 116.262 207.243 115.909C207.243 113.725 207.243 111.542 207.211 109.358C207.178 105.505 207.178 101.684 207.178 98.9546L205.985 89.3859L205.759 89.5143L205.21 104.028C205.081 107.817 204.92 111.542 204.759 115.266L204.501 120.982C204.501 121.335 204.404 121.688 204.178 121.977L204.113 122.042C203.952 122.266 203.694 122.459 203.404 122.652C203.113 122.812 202.791 122.941 202.436 123.037C202.081 123.133 201.726 123.165 201.371 123.165C201.016 123.165 200.661 123.133 200.306 123.037C199.951 122.941 199.629 122.812 199.338 122.652L199.274 122.619C198.984 122.427 198.725 122.234 198.564 121.977C198.338 121.656 198.242 121.335 198.242 120.982C198.242 118.863 198.242 116.743 198.209 114.624C198.177 110.675 198.177 106.725 198.177 103.964C198.177 98.1839 197.112 91.8904 197.112 86.1107C197.112 83.7666 198.435 83.0281 200.016 82.129C202.597 80.6841 205.339 79.0144 207.953 77.6658C208.533 77.3447 209.146 77.1199 209.727 77.0557C210.372 76.9594 211.018 77.0236 211.631 77.2805ZM212.115 79.7208C211.857 79.3355 211.469 79.0144 211.018 78.8538C210.663 78.7254 210.308 78.6933 209.953 78.7254C209.566 78.7575 209.179 78.9181 208.792 79.1428C206.146 80.6199 203.533 82.1612 200.887 83.6061C199.758 84.2162 198.855 84.7621 198.855 86.1107C198.725 91.2803 199.564 98.5372 199.887 103.932C199.887 108.266 199.887 111.413 199.919 114.592L199.951 120.95V120.982C199.984 121.046 200.048 121.078 200.145 121.142L200.177 121.175C200.339 121.271 200.5 121.335 200.694 121.367C200.887 121.431 201.145 121.431 201.371 121.431C201.597 121.431 201.855 121.399 202.049 121.367C202.242 121.335 202.403 121.271 202.565 121.175C202.662 121.11 202.726 121.078 202.758 121.014L202.791 120.982L203.049 115.202C203.21 111.445 203.371 107.688 203.5 103.964L203.984 88.9684C203.984 88.6794 204.146 88.3905 204.436 88.262L206.146 87.2987C206.243 87.2345 206.404 87.1703 206.533 87.1382C207.017 87.074 207.436 87.4272 207.501 87.8767L208.856 98.7298V98.8582C208.856 103.097 208.856 106.211 208.888 109.326L208.921 115.909C208.953 115.973 209.017 116.005 209.114 116.069H209.146C209.275 116.133 209.437 116.198 209.598 116.262H209.663C209.888 116.326 210.114 116.326 210.34 116.326C210.566 116.326 210.792 116.294 211.018 116.262C211.179 116.23 211.34 116.165 211.502 116.101L211.534 116.069C211.695 115.973 211.76 115.909 211.76 115.876V115.844C211.824 113.982 211.953 112.12 212.05 110.225C212.244 106.436 212.47 102.583 212.47 98.8904C212.47 92.9179 212.534 86.9455 212.534 81.0052C212.534 80.5557 212.373 80.1061 212.115 79.7208Z"
        fill="#414141" />
    <path fill-rule="evenodd" clip-rule="evenodd"
        d="M204.275 54.579C205.146 55.0927 206.533 55.0927 207.404 54.579C208.275 54.0652 208.275 53.2625 207.404 52.7808C206.533 52.2671 205.146 52.2671 204.275 52.7808C203.404 53.2625 203.404 54.0652 204.275 54.579Z"
        fill="white" />
    <path fill-rule="evenodd" clip-rule="evenodd"
        d="M204.726 53.8082C205.017 53.9688 205.436 54.0651 205.856 54.0651C206.275 54.0651 206.694 53.9688 206.985 53.8082C207.082 53.744 207.146 53.7119 207.178 53.6477C207.146 53.6156 207.082 53.5514 206.985 53.4871C206.694 53.3266 206.275 53.2303 205.856 53.2303C205.436 53.2303 205.017 53.3266 204.726 53.4871C204.63 53.5514 204.565 53.5835 204.533 53.6477C204.565 53.7119 204.63 53.7761 204.726 53.8082ZM205.856 55.799C205.146 55.799 204.436 55.6385 203.855 55.3174C203.468 55.0926 203.178 54.8036 202.984 54.5146C202.823 54.2578 202.758 53.9688 202.758 53.6798C202.758 53.3908 202.823 53.1018 202.984 52.8449C203.178 52.5238 203.436 52.2349 203.823 52.0422C204.404 51.7211 205.114 51.5605 205.823 51.5605C206.533 51.5605 207.243 51.7211 207.824 52.0422C208.211 52.267 208.501 52.556 208.662 52.8449C208.824 53.1018 208.888 53.3908 208.888 53.6798C208.888 53.9367 208.824 54.1936 208.695 54.4504L208.662 54.5146C208.469 54.8357 208.211 55.0926 207.824 55.3174C207.275 55.6385 206.565 55.799 205.856 55.799Z"
        fill="#1A87C7" />
    <path fill-rule="evenodd" clip-rule="evenodd"
        d="M212.986 80.8448C213.599 80.4916 213.857 80.01 213.76 79.5604V56.923C213.534 54.868 210.469 53.102 209.146 53.8726L202.629 57.6295L200.209 59.0102C199.177 59.5882 197.887 60.7762 197.854 62.2212V85.565C197.822 85.6934 197.822 85.8539 197.854 85.9824V86.0787H197.887C197.983 86.3677 197.596 86.6246 198.338 87.042C199.08 87.4594 201.113 87.6521 202.178 87.042L212.986 80.8448Z"
        fill="white" />
    <path fill-rule="evenodd" clip-rule="evenodd"
        d="M212.566 80.1063C212.728 80.01 212.857 79.9137 212.921 79.8173C212.953 79.7852 212.953 79.7531 212.953 79.721C212.953 79.6568 212.921 79.5926 212.921 79.5283V56.9552C212.889 56.7304 212.792 56.5056 212.663 56.2809C212.373 55.7671 211.856 55.2855 211.276 54.9644C210.759 54.6754 210.211 54.4827 209.792 54.5469C209.695 54.5469 209.63 54.579 209.566 54.6112C206.565 56.2166 203.597 58.0469 200.629 59.7487C200.145 60.0377 199.596 60.4872 199.209 61.001C198.951 61.3863 198.758 61.8037 198.725 62.2212V85.565C198.725 85.6292 198.725 85.6934 198.693 85.7576V85.7897C198.758 86.0145 198.758 86.1751 198.758 86.3035C199.048 86.4641 199.661 86.5604 200.339 86.5604C200.887 86.5604 201.435 86.4962 201.758 86.3035L212.566 80.1063ZM214.373 80.6843C214.179 81.0375 213.857 81.3265 213.405 81.5834L202.597 87.7805C201.984 88.1338 201.113 88.2943 200.339 88.2943C199.403 88.2943 198.435 88.0695 197.919 87.7805C196.951 87.2347 196.983 86.753 197.048 86.3035C197.015 86.2393 197.015 86.1751 197.015 86.0787V86.0466C196.983 85.9503 196.983 85.854 196.983 85.7576C196.983 85.6613 196.983 85.565 197.015 85.4686V62.1891C197.048 61.3542 197.37 60.6157 197.822 59.9735C198.37 59.2029 199.145 58.6249 199.79 58.2396C202.726 56.5377 205.855 54.868 208.727 53.102C208.985 52.9414 209.308 52.8451 209.63 52.813C210.405 52.7167 211.34 52.9736 212.147 53.4552C212.953 53.9047 213.695 54.6112 214.147 55.3818C214.373 55.7992 214.567 56.2488 214.631 56.7304C214.631 56.7946 214.631 56.8267 214.631 56.891V79.432C214.696 79.8815 214.599 80.299 214.373 80.6843ZM198.758 86.3035C198.758 86.3035 198.725 86.5283 198.725 86.4319L198.758 86.3035Z"
        fill="#414141" />
    <path fill-rule="evenodd" clip-rule="evenodd"
        d="M203.629 53.6477H208.082L208.404 57.8541C208.404 57.8862 208.404 57.9504 208.404 57.9825C208.404 58.3678 208.146 58.7211 207.662 59.01C206.662 59.588 205.049 59.588 204.049 59.01C203.565 58.7211 203.307 58.3357 203.307 57.9825C203.307 57.9504 203.307 57.8862 203.307 57.8541L203.629 53.6477Z"
        fill="white" />
    <path fill-rule="evenodd" clip-rule="evenodd"
        d="M203.629 52.813H208.856C208.985 54.5148 209.082 56.313 209.243 58.0148C209.243 58.368 209.114 58.7533 208.888 59.0744C208.695 59.3313 208.404 59.5882 208.082 59.7808C207.436 60.134 206.63 60.3267 205.855 60.3267C205.049 60.3267 204.242 60.134 203.629 59.7808C203.274 59.5882 202.984 59.3313 202.79 59.0744C202.565 58.7533 202.436 58.368 202.436 58.0148C202.436 57.9506 202.436 57.8863 202.436 57.8221L202.823 52.813H203.629ZM207.275 54.5148H204.436L204.178 57.9184V57.9827C204.178 57.9827 204.178 58.0148 204.21 58.0469C204.275 58.1111 204.371 58.2074 204.5 58.2717C204.855 58.4964 205.371 58.5928 205.888 58.5928C206.404 58.5928 206.888 58.4964 207.275 58.2717C207.404 58.2074 207.501 58.1111 207.565 58.0469C207.598 58.0148 207.598 57.9827 207.598 57.9827C207.436 56.8267 207.372 55.6708 207.275 54.5148Z"
        fill="#414141" />
    <path fill-rule="evenodd" clip-rule="evenodd"
        d="M206.275 43.8865H205.436C203.339 43.8865 201.5 45.5883 201.597 47.6754L201.79 52.3313C201.887 54.4185 203.5 56.1524 205.63 56.1524H206.049C208.146 56.1524 209.791 54.4185 209.888 52.3313L210.114 47.6754C210.211 45.5883 208.372 43.8865 206.275 43.8865Z"
        fill="white" />
    <path fill-rule="evenodd" clip-rule="evenodd"
        d="M206.275 44.7214C205.952 44.7214 205.63 44.7214 205.307 44.7214C204.533 44.7535 203.823 45.0746 203.307 45.5883C202.79 46.1021 202.468 46.7764 202.468 47.5149L202.661 52.2993C202.694 53.1341 203.048 53.9047 203.597 54.4506L203.629 54.4827C204.145 54.9965 204.855 55.2855 205.63 55.2855H206.049C206.856 55.2855 207.565 54.9644 208.082 54.4506C208.63 53.9047 208.985 53.1341 209.017 52.2993L209.243 47.6433V47.5149C209.243 46.7764 208.92 46.1021 208.404 45.5883C207.888 45.0746 207.178 44.7535 206.404 44.7214H206.275ZM205.436 43.0195H206.275H206.501C207.694 43.0838 208.824 43.5975 209.63 44.4003C210.469 45.203 210.985 46.3268 210.985 47.547L210.759 52.3956C210.695 53.68 210.179 54.8359 209.308 55.6708C208.469 56.5056 207.339 57.0194 206.049 57.0194H205.63C204.371 57.0194 203.242 56.5378 202.435 55.735L202.371 55.6708C201.532 54.8359 200.984 53.68 200.951 52.3956C200.887 50.8222 200.758 49.1204 200.758 47.547C200.758 46.3268 201.274 45.203 202.113 44.4003C202.919 43.5975 204.016 43.0838 205.242 43.0195H205.436Z"
        fill="#414141" />
    <path fill-rule="evenodd" clip-rule="evenodd"
        d="M206.275 43.8865H205.436C203.339 43.8865 201.5 45.5883 201.597 47.6754L201.79 52.3313C203.016 51.4644 203.823 50.4048 203.887 48.6708C207.081 49.0561 208.146 48.8635 209.985 46.6158C209.533 45.0424 207.985 43.8865 206.275 43.8865Z"
        fill="white" />
    <path fill-rule="evenodd" clip-rule="evenodd"
        d="M206.275 44.7212C205.952 44.7212 205.63 44.7212 205.307 44.7212C204.533 44.7533 203.823 45.0744 203.307 45.5882C202.79 46.102 202.468 46.7763 202.468 47.5148L202.597 50.3404C202.887 49.8909 203.049 49.3129 203.049 48.6065C203.049 48.1249 203.468 47.7717 203.92 47.7717H203.984C205.468 47.9322 206.436 47.9964 207.178 47.7717C207.791 47.579 208.34 47.1616 208.985 46.3909C208.791 45.9414 208.469 45.5561 208.082 45.2671C207.565 44.946 206.952 44.7212 206.275 44.7212ZM205.436 43.0194H206.275C207.34 43.0194 208.307 43.3726 209.114 43.9506C209.921 44.5286 210.534 45.3955 210.792 46.3588C210.888 46.6157 210.824 46.9047 210.63 47.1616C209.598 48.4139 208.759 49.1203 207.694 49.4414C206.856 49.6982 205.888 49.7304 204.629 49.6019C204.5 50.2441 204.307 50.79 203.984 51.2716C203.565 51.978 202.952 52.5239 202.242 53.0377C202.113 53.134 201.952 53.1982 201.79 53.1982C201.306 53.2303 200.919 52.845 200.887 52.3634C200.822 50.79 200.693 49.0882 200.693 47.5148C200.693 46.2946 201.21 45.1708 202.048 44.368C202.855 43.5653 203.952 43.0515 205.178 42.9873L205.436 43.0194Z"
        fill="#414141" />
    <path fill-rule="evenodd" clip-rule="evenodd"
        d="M208.34 86.0145C208.759 85.7897 209.275 85.9181 209.501 86.3356C209.727 86.753 209.598 87.2668 209.179 87.4915L205.275 89.7392C204.855 89.964 204.339 89.8355 204.113 89.4181C203.888 89.0007 204.017 88.4869 204.436 88.2622L208.34 86.0145Z"
        fill="#414141" />
    <path fill-rule="evenodd" clip-rule="evenodd"
        d="M219.6 77.0558L220.18 74.2622L224.471 75.0971L224.826 76.0925L228.44 77.3769L227.472 78.9823C222.439 78.5007 223.374 78.6291 219.6 77.0558Z"
        fill="white" />
    <path fill-rule="evenodd" clip-rule="evenodd"
        d="M218.761 76.8952L219.341 74.1017C219.438 73.6521 219.89 73.3631 220.342 73.4274L224.633 74.2622C224.955 74.3264 225.213 74.5833 225.278 74.8723L225.471 75.4503L228.698 76.6062C229.149 76.7668 229.375 77.2484 229.214 77.698C229.182 77.7622 229.149 77.8585 229.117 77.9227L228.182 79.4961C228.02 79.7851 227.698 79.9457 227.375 79.9135L226.762 79.8493C224.729 79.6567 223.794 79.5603 222.955 79.3356C222.213 79.1429 221.632 78.9181 220.567 78.4365L219.309 77.8906C218.89 77.698 218.696 77.2805 218.761 76.8952ZM220.826 75.2576L220.567 76.542L221.18 76.7989C222.181 77.2163 222.729 77.4732 223.342 77.6016C224.052 77.7943 224.955 77.8585 226.891 78.0833H226.988L227.149 77.8264L224.536 76.8952C224.31 76.7989 224.116 76.6383 224.02 76.3815L223.826 75.8356L220.826 75.2576Z"
        fill="#414141" />
    <path fill-rule="evenodd" clip-rule="evenodd"
        d="M211.34 70.7943L203.307 60.4871L199.241 64.0512L208.759 73.5879C208.985 73.8447 209.243 74.0053 209.566 74.1337C209.598 74.1337 209.662 74.1658 209.695 74.1658L218.728 76.8309C218.922 76.8952 219.115 76.9273 219.341 76.8952C220.18 76.8309 220.825 76.1245 220.761 75.2897C220.729 74.6475 220.277 74.1337 219.728 73.9732L211.34 70.7943Z"
        fill="white" />
    <path fill-rule="evenodd" clip-rule="evenodd"
        d="M197.015 63.2486C196.983 62.767 197.37 62.3816 197.822 62.3495C198.306 62.3174 198.693 62.7027 198.725 63.1523C198.725 63.4092 198.822 63.6981 198.951 63.955C199.08 64.2119 199.241 64.4046 199.5 64.5972L209.34 72.9136L209.437 73.01C209.501 73.0742 209.566 73.1384 209.63 73.1705C209.695 73.2026 209.759 73.2669 209.856 73.2669C212.856 74.1659 216.147 75.0008 219.083 75.9962L219.18 76.0283C219.212 76.0283 219.277 76.0283 219.309 76.0283C219.47 76.0283 219.632 75.932 219.761 75.8035C219.858 75.6751 219.922 75.5145 219.922 75.3219C219.922 75.1934 219.858 75.065 219.793 74.9687L219.761 74.9366C219.696 74.8402 219.567 74.776 219.47 74.7439L211.017 71.5971C210.888 71.5329 210.759 71.4687 210.695 71.3724L205.146 65.9137C204.823 65.5926 204.791 65.0468 205.146 64.6935C205.468 64.3724 206.017 64.3403 206.372 64.6935L211.824 70.0559L220.051 73.1705C220.471 73.3311 220.825 73.5558 221.084 73.909L221.116 73.9733C221.406 74.3265 221.567 74.776 221.6 75.2577C221.632 75.8999 221.406 76.5099 221.019 76.9595C220.632 77.409 220.051 77.7301 219.406 77.7622H219.374C219.212 77.7622 219.051 77.7622 218.89 77.7301C218.761 77.698 218.632 77.698 218.502 77.6338C215.792 76.8953 211.792 75.8677 209.275 74.9045C209.049 74.8402 208.824 74.7118 208.63 74.5834C208.436 74.4549 208.275 74.3265 208.114 74.1659L198.403 65.9458C197.983 65.6247 197.661 65.2073 197.402 64.7578C197.177 64.2761 197.048 63.7624 197.015 63.2486Z"
        fill="#414141" />
    <path fill-rule="evenodd" clip-rule="evenodd"
        d="M229.795 76.0283C229.633 76.1247 229.472 76.221 229.278 76.2531C228.504 76.4136 227.762 75.9641 227.568 75.1935C227.439 74.6155 227.665 74.0375 228.117 73.7485L234.763 68.5789L240.054 58.5285C240.409 57.6936 242.377 56.5698 243.668 57.3083C244.894 58.0147 244.765 59.7808 244.41 60.423C244.023 61.0652 244.313 60.6156 244.248 60.6799L237.473 70.2165C237.344 70.4412 237.086 70.666 236.989 70.7623C236.86 70.8587 236.925 70.8265 236.86 70.8265L229.795 76.0283Z"
        fill="#2B7CFF" />
    <path fill-rule="evenodd" clip-rule="evenodd"
        d="M230.279 76.7025C230.15 76.7988 230.021 76.863 229.891 76.9272C229.762 76.9915 229.601 77.0236 229.472 77.0878C228.859 77.2162 228.246 77.1199 227.762 76.7988C227.278 76.4777 226.891 75.9961 226.762 75.386V75.3539C226.665 74.9043 226.697 74.4869 226.859 74.1016C227.02 73.6842 227.31 73.3309 227.665 73.0741L234.086 68.0328L239.248 58.2072C239.28 58.143 239.312 58.0788 239.345 58.0146C239.667 57.4687 240.345 56.8907 241.151 56.5696C241.958 56.2164 242.958 56.088 243.797 56.4412L243.861 56.4733C243.958 56.5054 244.023 56.5375 244.087 56.5696C244.829 56.9871 245.249 57.6935 245.41 58.3999C245.636 59.299 245.442 60.3265 245.152 60.8402C245.087 60.9366 245.055 61.0329 244.991 61.0971L244.862 61.2898L238.183 70.6658C238.086 70.8264 237.99 70.9548 237.86 71.0833L237.828 71.1154C237.699 71.2759 237.538 71.4044 237.441 71.4686L237.28 71.5649L230.279 76.7025ZM229.182 75.386C229.214 75.386 229.246 75.3539 229.278 75.3218L236.344 70.1521L236.473 70.0557C236.505 70.0236 236.538 69.9915 236.602 69.9273C236.667 69.8631 236.699 69.831 236.699 69.7989C238.861 66.5558 241.409 63.4411 243.539 60.198L243.636 60.0696C243.636 60.0375 243.636 60.0375 243.668 60.0054C243.797 59.7806 243.861 59.2669 243.765 58.7852C243.7 58.4962 243.539 58.2072 243.248 58.0467L243.152 58.0146C242.764 57.854 242.28 57.9504 241.829 58.143C241.345 58.3357 240.99 58.6247 240.861 58.8494C239.28 62.1888 237.28 65.6567 235.538 68.964C235.473 69.0925 235.408 69.1888 235.279 69.253L228.633 74.4227C228.536 74.4869 228.472 74.5832 228.44 74.6796C228.407 74.7759 228.407 74.8722 228.407 74.9685V75.0007C228.44 75.1612 228.536 75.2575 228.665 75.3539C228.795 75.4181 228.924 75.4502 229.085 75.4181H229.117L229.182 75.386ZM236.505 70.0557H236.473H236.505Z"
        fill="#414141" />
    <path fill-rule="evenodd" clip-rule="evenodd"
        d="M241.248 78.4685C240.119 78.886 239.345 79.9777 239.345 81.23C239.345 81.3263 239.345 81.3905 239.345 81.4869L239.377 97.895L240.28 113.886L235.989 116.454C235.989 116.776 236.183 117.065 236.602 117.321C237.022 117.546 237.57 117.675 238.119 117.675L243.055 115.363C243.474 115.138 243.668 114.817 243.668 114.496C243.668 114.464 243.668 114.464 243.668 114.432V98.2803L244.313 87.3951L246.281 88.1015L247.12 102.262L248.701 118.477L244.378 121.11C244.378 121.431 244.571 121.72 244.991 121.977C245.41 122.202 245.959 122.331 246.507 122.331L251.411 120.051C251.669 119.89 251.863 119.698 251.959 119.505C252.088 119.248 252.024 118.959 252.024 118.67L251.411 102.198L251.992 85.2437C251.992 85.1474 251.992 85.0832 251.992 84.9868C251.992 83.2208 250.895 82.6428 249.572 81.9043L246.41 80.1383L243.99 78.7896C243.055 78.2438 242.151 78.1153 241.248 78.4685Z"
        fill="white" />
    <path fill-rule="evenodd" clip-rule="evenodd"
        d="M241.571 79.2392C241.184 79.3998 240.829 79.6567 240.571 80.0099C240.345 80.3631 240.216 80.7484 240.216 81.1979C240.409 86.6245 240.248 92.34 240.248 97.7987L241.151 113.789C241.184 114.11 240.99 114.399 240.732 114.56L237.28 116.615C237.344 116.647 237.441 116.679 237.506 116.679C237.635 116.711 237.796 116.743 237.957 116.743L242.668 114.528C242.732 114.496 242.797 114.432 242.829 114.399V114.432C242.958 104.863 242.926 96.8354 243.474 87.2988C243.506 86.8171 243.894 86.4639 244.378 86.496C244.474 86.496 244.571 86.5282 244.668 86.5603L246.604 87.2667C246.926 87.3951 247.152 87.6841 247.152 88.0373L247.991 102.198L249.572 118.381C249.604 118.702 249.443 119.023 249.153 119.184L245.668 121.335C245.733 121.367 245.829 121.399 245.894 121.399C246.023 121.431 246.184 121.464 246.346 121.464L251.024 119.28C251.088 119.248 251.121 119.216 251.153 119.184L251.185 119.152C250.411 106.629 250.895 97.4134 251.121 85.019C251.121 83.7988 250.282 83.3172 249.249 82.7392C247.346 81.7117 245.475 80.62 243.571 79.5282C243.216 79.3356 242.861 79.2071 242.506 79.175C242.184 79.0787 241.893 79.1429 241.571 79.2392ZM239.151 79.0787C239.57 78.4365 240.216 77.9548 240.925 77.6659C241.506 77.4411 242.119 77.3769 242.7 77.4411C243.281 77.5053 243.829 77.698 244.378 78.0191C245.991 79.1108 248.346 80.2346 250.088 81.23C251.572 82.0649 252.83 82.7713 252.83 84.9869C252.153 88.3905 252.379 98.1198 252.25 102.198C252.443 107.592 252.443 113.468 252.863 118.766C252.895 119.087 252.895 119.441 252.701 119.858C252.605 120.051 252.476 120.211 252.314 120.372C252.185 120.5 252.024 120.629 251.83 120.725L251.734 120.789L246.926 123.037C246.797 123.101 246.636 123.165 246.507 123.165C246.184 123.165 245.829 123.133 245.507 123.037C245.184 122.973 244.862 122.844 244.571 122.684C244.249 122.491 244.023 122.298 243.829 122.042C243.603 121.753 243.506 121.399 243.506 121.078C243.506 120.789 243.668 120.5 243.926 120.34L247.797 117.996C246.83 107.945 246.055 98.762 245.475 88.7116L245.12 88.5832L244.571 98.3124V114.367V114.464C244.571 114.817 244.474 115.138 244.249 115.427C244.087 115.652 243.829 115.876 243.506 116.069L238.57 118.381C238.441 118.445 238.312 118.477 238.151 118.477C237.796 118.477 237.473 118.445 237.151 118.349C236.828 118.253 236.505 118.156 236.247 117.996C235.957 117.835 235.731 117.643 235.57 117.418L235.505 117.354C235.279 117.065 235.183 116.711 235.183 116.39C235.183 116.101 235.344 115.812 235.602 115.652L239.441 113.34C238.796 102.101 238.57 92.7896 238.538 81.519C238.538 81.4227 238.538 81.2943 238.538 81.1979C238.506 80.4273 238.732 79.6888 239.151 79.0787Z"
        fill="#414141" />
    <path fill-rule="evenodd" clip-rule="evenodd"
        d="M240.28 113.854L235.989 116.422C235.989 116.743 236.183 117.032 236.602 117.289C237.022 117.514 237.57 117.642 238.119 117.642L243.055 115.331C243.41 115.138 243.603 114.881 243.668 114.624C241.99 114.881 241.055 114.849 240.28 113.854Z"
        fill="white" />
    <path fill-rule="evenodd" clip-rule="evenodd"
        d="M240.151 114.945L237.312 116.647C237.377 116.679 237.473 116.711 237.538 116.711C237.667 116.743 237.828 116.776 237.989 116.776L240.958 115.395C240.635 115.266 240.377 115.138 240.151 114.945ZM235.57 115.684L239.861 113.115C240.216 112.89 240.7 112.987 240.99 113.34C241.248 113.661 241.506 113.821 241.829 113.886C242.248 113.95 242.829 113.918 243.603 113.789C243.7 113.789 243.829 113.789 243.926 113.821C244.378 113.918 244.668 114.399 244.571 114.849C244.507 115.106 244.378 115.331 244.216 115.555L244.184 115.588C244.023 115.78 243.829 115.941 243.571 116.101L238.635 118.413C238.506 118.477 238.377 118.51 238.215 118.51C237.86 118.51 237.538 118.477 237.215 118.381C236.893 118.285 236.57 118.188 236.312 118.028C236.021 117.867 235.796 117.675 235.634 117.45L235.57 117.386C235.344 117.097 235.247 116.743 235.247 116.422C235.15 116.133 235.312 115.844 235.57 115.684Z"
        fill="#414141" />
    <path fill-rule="evenodd" clip-rule="evenodd"
        d="M239.022 88.7438C237.28 86.5283 239.796 75.7073 240.732 73.2669L239.828 68.6752C239.441 66.7165 239.345 65.0147 239.538 63.056L239.893 59.2992C240.119 57.3726 242.958 55.7671 244.184 56.4735L247.475 58.368L249.733 59.6524C250.669 60.1661 251.895 61.29 251.927 62.6386L251.379 76.51L253.218 85.0833C253.25 85.1796 252.96 91.0878 252.863 92.9181C252.83 93.464 252.895 94.1383 252.379 94.4594C251.701 94.8447 249.798 95.0373 248.798 94.4594L239.667 89.2255C239.377 89.0649 239.183 88.9686 239.022 88.7438Z"
        fill="#2B7CFF" />
    <path fill-rule="evenodd" clip-rule="evenodd"
        d="M238.28 89.1932C237.473 88.1015 237.441 85.7254 237.731 83.1245C238.151 79.3676 239.248 74.9365 239.828 73.2026L238.957 68.8356C238.764 67.8402 238.635 66.8769 238.57 65.9136C238.506 64.9503 238.538 63.9871 238.635 62.9595L238.99 59.2027C239.054 58.7532 239.215 58.3036 239.441 57.8862C239.861 57.1477 240.57 56.5055 241.345 56.0559C242.119 55.6064 242.99 55.3816 243.732 55.4459C244.023 55.478 244.313 55.5743 244.571 55.7027C246.41 56.7624 248.346 57.7899 250.153 58.9137C250.766 59.2669 251.475 59.8128 251.959 60.5192C252.411 61.1293 252.701 61.8357 252.734 62.6063L252.185 76.4135L254.024 84.8905C254.056 84.9868 254.056 85.1153 254.024 85.2116C254.024 85.6933 253.992 86.6887 253.927 87.7804C253.831 89.6428 253.734 91.9226 253.669 92.9501V93.1748C253.637 93.8813 253.637 94.6519 252.766 95.1656L252.701 95.1978C252.185 95.4546 251.346 95.6473 250.475 95.6473C249.701 95.6473 248.927 95.5189 248.314 95.1656C245.249 93.3996 242.087 91.6657 239.054 89.8354C238.796 89.6749 238.57 89.5464 238.312 89.2575L238.28 89.1932ZM239.409 83.285C239.151 85.5327 239.151 87.4593 239.635 88.1657L239.667 88.1978C239.699 88.262 239.796 88.2942 239.893 88.3584C242.958 89.9318 246.152 91.9547 249.185 93.6886C249.475 93.8492 249.959 93.9455 250.475 93.9455C251.056 93.9455 251.604 93.8491 251.863 93.7207L251.895 93.6886C251.927 93.6886 251.927 93.3996 251.927 93.1427V92.8537C251.992 91.8262 252.121 89.5143 252.185 87.7162C252.25 86.3355 252.314 85.308 252.314 85.2758L250.475 76.7025C250.475 76.6383 250.443 76.5741 250.443 76.4778L250.991 62.6063C250.991 62.221 250.798 61.8678 250.572 61.5146C250.217 61.033 249.733 60.6476 249.281 60.3908C247.41 59.3954 245.539 58.2394 243.7 57.1798C243.668 57.1477 243.603 57.1477 243.506 57.1156C243.151 57.0835 242.635 57.2119 242.151 57.5009C241.635 57.7899 241.183 58.2073 240.893 58.6889C240.764 58.9137 240.699 59.1064 240.667 59.3311L240.312 63.0559C240.216 63.9871 240.216 64.8861 240.248 65.7531C240.28 66.6201 240.409 67.487 240.603 68.4182L241.506 73.0099C241.538 73.1705 241.538 73.331 241.474 73.4594C240.958 75.0007 239.828 79.4961 239.409 83.285Z"
        fill="#414141" />
    <path fill-rule="evenodd" clip-rule="evenodd"
        d="M258.089 82.8997L255.444 83.3171L256.025 87.2987L256.928 87.684L257.96 91.0555L259.509 90.2207C259.283 85.5969 259.38 86.4317 258.089 82.8997Z"
        fill="white" />
    <path fill-rule="evenodd" clip-rule="evenodd"
        d="M257.541 83.831L256.444 83.9916L256.831 86.6888L257.283 86.8814C257.541 86.9778 257.702 87.1704 257.767 87.4273L258.476 89.8034L258.638 89.7392V89.7071C258.541 87.909 258.509 87.0741 258.38 86.3998C258.283 85.8218 258.089 85.3402 257.734 84.3769L257.541 83.831ZM255.315 82.4503L257.96 82.0329C258.347 81.9686 258.767 82.1934 258.896 82.5787L259.347 83.7668C259.735 84.7943 259.928 85.3402 260.09 86.0466C260.251 86.8172 260.283 87.7163 260.38 89.6108L260.412 90.1888C260.412 90.5099 260.251 90.7989 259.96 90.9594L258.476 91.7621C258.412 91.7943 258.347 91.8264 258.251 91.8585C257.799 91.9869 257.315 91.73 257.186 91.2805L256.283 88.2943L255.799 88.1016C255.508 88.0053 255.282 87.7484 255.218 87.4273L254.637 83.4136C254.54 82.964 254.863 82.5466 255.315 82.4503Z"
        fill="#414141" />
    <path fill-rule="evenodd" clip-rule="evenodd"
        d="M258.154 82.8033L256.637 74.23C256.637 74.1979 256.637 74.1337 256.605 74.1016C256.573 73.9731 256.541 73.8447 256.476 73.7163L251.83 62.0925L247.313 64.2118L253.282 75.0649L255.412 83.3813C255.444 83.574 255.508 83.7345 255.637 83.8951C256.089 84.5373 256.96 84.6978 257.605 84.2483C258.057 83.9272 258.283 83.3171 258.154 82.8033Z"
        fill="#2B7CFF" />
    <path fill-rule="evenodd" clip-rule="evenodd"
        d="M248.83 68.8035C248.604 68.3861 248.765 67.8723 249.185 67.6475C249.604 67.4228 250.12 67.5833 250.346 68.0008L254.024 74.6796C254.056 74.7438 254.089 74.808 254.089 74.8722L256.218 83.2529L256.25 83.3171L256.315 83.4456C256.412 83.5419 256.508 83.6061 256.637 83.6382C256.767 83.6703 256.928 83.6382 257.057 83.5419C257.154 83.4777 257.218 83.3813 257.25 83.285C257.283 83.1887 257.283 83.0602 257.283 82.9639C254.669 69.7347 256.96 77.2163 250.991 62.3815C250.83 61.932 251.024 61.4504 251.475 61.2898C251.927 61.1293 252.411 61.3219 252.572 61.7715L257.218 73.331C257.25 73.3952 257.283 73.4915 257.315 73.5557C258.154 75.8998 258.509 80.0419 258.96 82.6107C259.057 83.0281 259.025 83.4777 258.864 83.8951C258.702 84.2804 258.444 84.6657 258.057 84.9226C257.541 85.2758 256.928 85.4042 256.379 85.3079C255.831 85.2116 255.315 84.9226 254.96 84.441L254.895 84.3767C254.798 84.2483 254.734 84.1199 254.669 83.9914C254.605 83.863 254.573 83.7345 254.54 83.6382L252.443 75.386L248.83 68.8035Z"
        fill="#414141" />
    <path fill-rule="evenodd" clip-rule="evenodd"
        d="M247.572 55.7991H243.764L243.474 59.4275C243.474 59.4596 243.474 59.4917 243.474 59.5238C243.474 59.8449 243.7 60.166 244.119 60.4229C244.99 60.9045 246.378 60.9045 247.249 60.4229C247.668 60.166 247.894 59.8449 247.894 59.5238C247.894 59.4917 247.894 59.4596 247.894 59.4275L247.572 55.7991Z"
        fill="white" />
    <path fill-rule="evenodd" clip-rule="evenodd"
        d="M246.797 56.6662H244.571L244.345 59.5239C244.377 59.5882 244.442 59.6203 244.539 59.6845L244.571 59.7166C244.861 59.8772 245.249 59.9414 245.668 59.9414C246.087 59.9414 246.507 59.845 246.797 59.6845C246.894 59.6203 246.959 59.5561 246.991 59.5239C247.023 59.5239 246.797 56.9231 246.797 56.6662ZM243.764 54.9644H247.604C248.055 54.9644 248.443 55.3176 248.475 55.7671C248.572 57.0194 248.701 58.3038 248.765 59.5561C248.765 59.8772 248.668 60.1661 248.475 60.4551L248.443 60.5193C248.281 60.7762 248.023 61.001 247.701 61.1615C247.12 61.4826 246.41 61.6432 245.7 61.6432C245.023 61.6432 244.345 61.4826 243.764 61.1937L243.7 61.1615C243.377 60.9689 243.119 60.7441 242.958 60.5193C242.732 60.2304 242.635 59.8772 242.635 59.5239C242.635 59.4597 242.635 59.3955 242.635 59.3313L242.926 55.7671C242.893 55.3176 243.281 54.9644 243.764 54.9644Z"
        fill="#414141" />
    <path fill-rule="evenodd" clip-rule="evenodd"
        d="M245.668 45.9736C247.733 45.9736 249.701 47.6112 249.507 49.6663L249.088 54.1937C248.927 56.0882 247.862 57.8864 245.668 57.8864C243.571 57.8864 242.442 56.2167 242.248 54.1937L241.829 49.6663C241.635 47.6433 243.539 45.9736 245.668 45.9736Z"
        fill="white" />
    <path fill-rule="evenodd" clip-rule="evenodd"
        d="M245.668 45.1064C245.797 45.1064 245.926 45.1064 246.087 45.1386H246.12C247.217 45.2349 248.281 45.7165 249.056 46.4551C249.862 47.2257 250.378 48.2532 250.378 49.4092C250.378 49.5376 250.378 49.6339 250.378 49.7624L249.959 54.2577C249.862 55.4458 249.443 56.6339 248.636 57.5008C247.926 58.2715 246.958 58.7531 245.668 58.7531C244.41 58.7531 243.41 58.2715 242.7 57.5008C241.925 56.666 241.506 55.5421 241.377 54.2898L240.958 49.7624C240.958 49.6339 240.925 49.5055 240.925 49.4092C240.925 48.2853 241.442 47.2578 242.216 46.4872C242.99 45.7486 244.055 45.267 245.152 45.1386H245.184C245.41 45.1064 245.539 45.1064 245.668 45.1064ZM245.926 46.8404C245.862 46.8404 245.765 46.8404 245.668 46.8404C245.571 46.8404 245.474 46.8404 245.378 46.8404C244.636 46.9046 243.958 47.2257 243.442 47.7073C242.958 48.1569 242.667 48.767 242.667 49.4092V49.6018L243.087 54.1293C243.184 55.0284 243.474 55.8311 243.958 56.3449C244.345 56.7944 244.926 57.0513 245.668 57.0513C246.41 57.0513 246.991 56.7623 247.378 56.3449C247.894 55.799 248.152 54.9641 248.249 54.1293C248.378 52.588 248.604 50.9504 248.668 49.4092C248.668 48.7348 248.346 48.1569 247.894 47.7073C247.346 47.2257 246.668 46.9046 245.926 46.8404Z"
        fill="#414141" />
    <path fill-rule="evenodd" clip-rule="evenodd"
        d="M248.701 118.445L244.377 121.078C244.377 121.399 244.571 121.688 244.99 121.945C245.41 122.17 245.958 122.298 246.507 122.298L251.411 120.019C251.669 119.858 251.862 119.665 251.959 119.473C251.992 119.409 251.992 119.344 252.024 119.28C250.346 119.537 249.475 119.409 248.701 118.445Z"
        fill="white" />
    <path fill-rule="evenodd" clip-rule="evenodd"
        d="M248.572 119.537L245.668 121.303C245.733 121.335 245.829 121.367 245.894 121.367C246.023 121.399 246.184 121.431 246.346 121.431L249.378 120.019C249.088 119.89 248.83 119.73 248.572 119.537ZM243.958 120.34L248.281 117.707C248.636 117.482 249.152 117.578 249.411 117.899C249.669 118.22 249.927 118.413 250.249 118.477C250.637 118.574 251.185 118.542 251.927 118.445C252.024 118.445 252.121 118.445 252.217 118.445C252.669 118.542 252.992 118.991 252.895 119.441L252.83 119.633C252.798 119.698 252.798 119.762 252.766 119.826C252.669 120.019 252.54 120.179 252.379 120.34C252.25 120.468 252.088 120.597 251.895 120.693L251.798 120.757L246.991 123.005C246.862 123.069 246.7 123.133 246.571 123.133C246.249 123.133 245.894 123.101 245.571 123.005C245.249 122.941 244.926 122.812 244.636 122.652C244.313 122.459 244.087 122.266 243.894 122.009C243.668 121.72 243.571 121.367 243.571 121.046C243.539 120.789 243.7 120.5 243.958 120.34Z"
        fill="#414141" />
    <path fill-rule="evenodd" clip-rule="evenodd"
        d="M244.055 60.6156C244.119 60.1339 244.539 59.8128 245.023 59.8771C245.507 59.9413 245.829 60.3587 245.765 60.8404C245.571 62.3174 245.442 63.2807 245.41 64.1477C245.378 64.9825 245.378 65.7531 245.507 66.8449C245.539 67.3265 245.216 67.7439 244.732 67.7761C244.249 67.8082 243.829 67.4871 243.797 67.0054C243.668 65.8174 243.668 64.9825 243.7 64.0513C243.732 63.1523 243.861 62.1569 244.055 60.6156Z"
        fill="#414141" />
    <path fill-rule="evenodd" clip-rule="evenodd"
        d="M246.475 51.9138L246.507 55.2211C246.507 55.9917 247.733 57.1477 248.281 57.1156L250.669 57.1477L250.572 51.0789C250.54 47.6111 248.83 44.7854 245.636 44.7854C242.442 44.7854 240.474 47.1936 240.732 50.6615C240.732 50.822 240.764 50.9826 240.764 51.1431C240.893 52.4275 241.022 53.3908 242.248 54.2257L241.829 49.6661V49.2165L242.732 49.7303L246.475 51.9138Z"
        fill="white" />
    <path fill-rule="evenodd" clip-rule="evenodd"
        d="M247.346 51.9138C247.346 53.0376 247.378 54.1615 247.378 55.2532C247.41 55.4138 247.604 55.6385 247.83 55.8633C248.055 56.0881 248.249 56.2486 248.281 56.2486C248.797 56.2486 249.314 56.2486 249.798 56.2807L249.733 51.0789C249.701 49.4413 249.314 47.9964 248.507 47.001C247.862 46.1661 246.894 45.6203 245.668 45.6203C245.539 45.6203 245.41 45.6203 245.313 45.6203C244.184 45.6845 243.248 46.1661 242.635 46.9047C242.28 47.3221 242.022 47.8037 241.861 48.3817C242.022 48.3817 242.184 48.4138 242.313 48.5102L246.959 51.1753C247.184 51.3358 247.313 51.5927 247.346 51.9138ZM245.636 55.2211L245.603 52.3954L242.764 50.79L243.087 54.1294C243.119 54.322 243.055 54.5147 242.926 54.7073C242.668 55.0927 242.119 55.189 241.732 54.9321C240.958 54.4184 240.538 53.8404 240.28 53.1661C240.022 52.556 239.957 51.9459 239.893 51.2395L239.861 50.7578C239.861 50.5331 239.828 50.3083 239.828 50.1156C239.828 48.4138 240.345 46.9368 241.248 45.845C242.184 44.7533 243.506 44.079 245.152 43.9506C245.313 43.9506 245.474 43.9185 245.636 43.9185C247.442 43.9185 248.862 44.6891 249.862 45.9414C250.862 47.2258 251.411 49.056 251.443 51.0789L251.54 57.1798C251.54 57.6614 251.153 58.0147 250.669 58.0147C250.475 58.0147 248.281 57.9825 248.281 57.9825C247.765 57.9825 247.088 57.5972 246.571 57.0514C246.12 56.5697 245.733 55.9275 245.668 55.3495C245.636 55.3174 245.636 55.2853 245.636 55.2211Z"
        fill="#414141" />
    <path opacity="0.2" fill-rule="evenodd" clip-rule="evenodd"
        d="M226.978 109.812C209.791 109.812 195.851 114.876 195.851 121.133C195.851 127.391 209.791 132.454 226.978 132.454C244.165 132.454 258.116 127.391 258.116 121.133C258.116 114.876 244.176 109.812 226.978 109.812Z"
        fill="black" />
    <path class="line" d="M87.1707 145.839L131.566 171.47C139.717 176.176 152.94 176.163 161.062 171.44L203.776 146.605"
        stroke="#414141" stroke-width="2" stroke-linecap="round" />
    <defs>
        <clipPath id="clip0_280_3098">
            <rect width="103.02" height="151.7" fill="white" />
        </clipPath>
    </defs>


    <style>
        .line {
            animation: dash 5s linear alternate infinite;
            stroke-dasharray: 500;
            stroke-dashoffset: 500;
        }

        @keyframes dash {
            from {
                stroke-dashoffset: 1100;
            }

            to {
                stroke-dashoffset: 0;
            }
        }

        @keyframes code {
            0% {
                opacity: 1;
            }

            50% {
                opacity: 0;
            }

            100% {
                opacity: 1;
            }
        }

        .code1 {
            animation: code 2s infinite;
        }

    </style>


</svg>