<svg width="228" height="165" viewBox="0 0 228 165" fill="none" xmlns="http://www.w3.org/2000/svg">
<path opacity="0.2" fill-rule="evenodd" clip-rule="evenodd" d="M26.2898 108.532C17.9113 108.532 11.1155 110.964 11.1155 113.969C11.1155 116.975 17.9113 119.407 26.2898 119.407C34.6683 119.407 41.469 116.975 41.469 113.969C41.469 110.964 34.6732 108.532 26.2898 108.532Z" fill="black"/>
<path fill-rule="evenodd" clip-rule="evenodd" d="M3.37019 77.9973L5.64034 78.6499L4.47311 82.8763L3.43944 83.1531L1.88642 86.6678L0.837891 85.7088C1.71826 80.7507 1.51053 81.6553 3.37019 77.9973Z" fill="white"/>
<path fill-rule="evenodd" clip-rule="evenodd" d="M3.62314 77.1716L5.87851 77.8142C6.09794 77.8786 6.28321 78.0267 6.39427 78.2265C6.50534 78.4263 6.53327 78.6618 6.47204 78.882V78.9314L5.31961 83.1035C5.27974 83.2484 5.20259 83.3803 5.09586 83.4861C4.98912 83.5919 4.8565 83.6679 4.71123 83.7066L4.07816 83.8796L2.69328 87.0135C2.60008 87.2233 2.42769 87.3879 2.21369 87.4712C1.99968 87.5545 1.76141 87.5499 1.55076 87.4585C1.4437 87.4112 1.34767 87.3422 1.26883 87.2558L0.279632 86.3462C0.173121 86.2478 0.0928924 86.1244 0.0462487 85.9871C-0.000394895 85.8499 -0.0119942 85.7031 0.0125287 85.5603L0.121357 84.9473C0.301126 83.6723 0.565484 82.4107 0.912705 81.1707C1.20604 80.3601 1.56843 79.5762 1.99588 78.8276C2.17394 78.4766 2.38663 78.0762 2.62403 77.6066C2.71707 77.4261 2.87037 77.2838 3.05735 77.2044C3.24434 77.1249 3.45323 77.1133 3.64786 77.1716H3.62314ZM4.58266 79.2428L3.81601 79.0254L3.50444 79.6235C3.11881 80.2892 2.78799 80.9852 2.51524 81.7045C2.2635 82.5839 2.07017 83.4789 1.93653 84.3838L2.63393 82.8069C2.68372 82.6859 2.76106 82.5783 2.8598 82.4925C2.95855 82.4067 3.07595 82.345 3.20271 82.3125L3.75666 82.1593L4.58266 79.2428Z" fill="#3C3C3C"/>
<path fill-rule="evenodd" clip-rule="evenodd" d="M39.9606 73.0146L38.0911 74.463L40.752 77.9528L41.8154 77.8293L44.5653 80.5085L45.1836 79.2281C42.5177 74.9523 43.0568 75.7185 39.9606 73.0146Z" fill="white"/>
<path fill-rule="evenodd" clip-rule="evenodd" d="M39.9303 74.1317L39.2973 74.626L41.1372 77.0433L41.7158 76.9741C41.8513 76.9596 41.9883 76.9767 42.1162 77.0238C42.244 77.071 42.3592 77.147 42.4528 77.2459L43.6596 78.4273C43.1974 77.6349 42.6836 76.8736 42.1214 76.1485C41.604 75.5802 41.0417 75.0546 40.4398 74.5766L39.9452 74.1366L39.9303 74.1317ZM37.5662 73.7807L39.4308 72.3323C39.5888 72.2106 39.7842 72.1474 39.9835 72.1538C40.1829 72.1601 40.3739 72.2354 40.5239 72.3669L41.5625 73.2616C42.2385 73.7985 42.8673 74.3922 43.442 75.0363C44.2246 76.0582 44.94 77.1298 45.5836 78.2445L45.915 78.7734C45.9916 78.897 46.0359 79.0378 46.0437 79.1829C46.0515 79.328 46.0225 79.4728 45.9595 79.6039L45.3413 80.8841C45.3024 80.9687 45.2488 81.0457 45.183 81.1116C45.0208 81.2731 44.8011 81.3637 44.5722 81.3637C44.3432 81.3637 44.1236 81.2731 43.9613 81.1116L41.4883 78.719L40.8305 78.7931C40.682 78.8101 40.5316 78.7885 40.3939 78.7305C40.2562 78.6725 40.1357 78.58 40.0441 78.462L37.3881 74.972C37.2645 74.7911 37.2142 74.5702 37.2472 74.3537C37.2803 74.1372 37.3942 73.9412 37.5662 73.8054V73.7807Z" fill="#3C3C3C"/>
<path fill-rule="evenodd" clip-rule="evenodd" d="M40.2173 72.3224C40.3756 72.4707 40.3706 72.3224 40.6031 72.8662C40.8355 73.4099 40.4943 74.7397 39.7524 75.066C39.4542 75.2146 39.1162 75.264 38.7879 75.2071C38.4596 75.1502 38.158 74.9899 37.9273 74.7496L30.1423 67.9427L30.0236 67.8438C29.8327 67.6591 29.6769 67.4414 29.5636 67.2012L22.6145 54.5268L28.0551 52.0156L33.2039 65.214L40.2173 72.3224Z" fill="white"/>
<path fill-rule="evenodd" clip-rule="evenodd" d="M39.8424 73.1332C39.7666 73.0855 39.6954 73.0309 39.6297 72.97L32.5867 65.8122C32.5045 65.729 32.4405 65.6297 32.3987 65.5206L27.5863 53.1625L23.8125 54.9025L30.3165 66.7663C30.3165 66.7663 30.3165 66.8058 30.3511 66.8305C30.3812 66.8991 30.4194 66.9638 30.4648 67.0233C30.5101 67.0874 30.5615 67.147 30.6182 67.2013H30.6528C33.2939 69.3714 35.945 71.8133 38.5268 74.0823C38.6376 74.1987 38.7804 74.2795 38.9373 74.3146C39.1069 74.3375 39.2794 74.3082 39.4319 74.2305C39.5913 74.1063 39.7045 73.9322 39.7534 73.7362C39.8289 73.5638 39.8579 73.3746 39.8375 73.1875C39.7633 73.0195 39.9314 73.1282 39.8671 73.0887L39.8424 73.1332ZM40.8019 71.7046C41.0097 71.838 41.1284 71.927 41.3955 72.535C41.5891 73.1196 41.5768 73.7528 41.3608 74.3294C41.2667 74.6588 41.1063 74.9654 40.8894 75.2306C40.6726 75.4958 40.4038 75.714 40.0996 75.8717C39.6466 76.0848 39.1396 76.1555 38.6455 76.0744C38.1501 75.9834 37.6934 75.7457 37.3348 75.3922L29.5944 68.62L29.5202 68.5607L29.441 68.4865C29.3043 68.3567 29.1801 68.2144 29.0701 68.0614C28.9691 67.9172 28.8798 67.7651 28.803 67.6066L21.8786 54.9322C21.7693 54.7322 21.7438 54.4971 21.8078 54.2784C21.8718 54.0596 22.02 53.8752 22.2199 53.7656H22.2743L27.7149 51.2594C27.8175 51.212 27.9284 51.1852 28.0414 51.1806C28.1544 51.1761 28.2671 51.1939 28.3732 51.2329C28.4793 51.2719 28.5767 51.3314 28.6598 51.4081C28.7429 51.4847 28.81 51.5769 28.8574 51.6795C28.8711 51.7083 28.8826 51.7381 28.892 51.7685L33.9616 64.7593L40.8019 71.7046Z" fill="#3C3C3C"/>
<path fill-rule="evenodd" clip-rule="evenodd" d="M20.2514 117.306C20.0741 117.228 19.9257 117.097 19.827 116.931C19.7284 116.764 19.6844 116.571 19.7013 116.379C19.7182 116.186 19.7952 116.003 19.9214 115.857C20.0476 115.71 20.2166 115.607 20.4047 115.561C20.894 115.366 21.422 115.288 21.9467 115.334C22.4714 115.379 22.9782 115.547 23.4266 115.823L27.2004 118.453C27.3777 118.53 27.5261 118.662 27.6247 118.828C27.7234 118.995 27.7674 119.188 27.7504 119.38C27.7335 119.573 27.6566 119.755 27.5304 119.902C27.4042 120.049 27.2352 120.152 27.0471 120.198C26.5587 120.393 26.0314 120.47 25.5075 120.425C24.9836 120.379 24.4776 120.212 24.0301 119.936L20.2514 117.306Z" fill="white"/>
<path fill-rule="evenodd" clip-rule="evenodd" d="M19.7615 117.998C19.4885 117.815 19.2576 117.575 19.0839 117.296C18.9027 117 18.8196 116.654 18.8465 116.308C18.8795 115.956 19.0232 115.623 19.257 115.358C19.4739 115.111 19.7423 114.913 20.0434 114.78C20.345 114.642 20.6648 114.547 20.9931 114.498C21.3333 114.445 21.6788 114.433 22.0218 114.464C22.3583 114.496 22.6901 114.565 23.011 114.671C23.3277 114.774 23.6277 114.922 23.9013 115.111L27.6751 117.741C27.9483 117.926 28.1793 118.167 28.3527 118.448C28.5369 118.747 28.6201 119.097 28.5898 119.447C28.5595 119.797 28.4174 120.128 28.1845 120.391C27.9648 120.637 27.695 120.834 27.3932 120.969C27.0912 121.107 26.7717 121.204 26.4435 121.256C26.1029 121.305 25.7577 121.315 25.4148 121.285C25.078 121.255 24.746 121.186 24.4256 121.078L24.3464 121.048C24.0588 120.948 23.786 120.81 23.5353 120.638L19.7615 118.008V117.998ZM20.5875 116.441C20.6334 116.496 20.6866 116.544 20.7458 116.584L24.5196 119.219C24.6409 119.297 24.7702 119.362 24.9053 119.412H24.9696C25.1665 119.478 25.3708 119.52 25.578 119.535C25.7866 119.56 25.9975 119.56 26.2061 119.535C26.3761 119.513 26.5423 119.468 26.7007 119.402C26.7653 119.37 26.8266 119.332 26.8837 119.288C26.8371 119.232 26.7821 119.184 26.7205 119.145L22.9467 116.51C22.8087 116.421 22.6589 116.351 22.5016 116.303C22.302 116.241 22.0964 116.201 21.8883 116.184C21.6797 116.159 21.4688 116.159 21.2601 116.184C21.0899 116.206 20.9235 116.25 20.7655 116.317C20.6996 116.347 20.6381 116.385 20.5825 116.431L20.5875 116.441Z" fill="#3C3C3C"/>
<path fill-rule="evenodd" clip-rule="evenodd" d="M19.7165 87.4194L20.0084 85.9957L19.4099 86.3368C19.5137 86.6927 19.6127 87.0536 19.7165 87.4194ZM27.8032 79.6485C27.8019 79.9291 27.7636 80.2084 27.6895 80.479C27.6634 80.5811 27.632 80.6817 27.5955 80.7805L22.9908 95.6103C22.9136 95.9067 22.7829 96.1865 22.605 96.4359L22.5407 96.5248L22.2637 96.8906C22.4962 97.9336 22.6792 98.8679 22.7583 99.6885V99.8516L24.0295 115.289C24.0446 115.502 23.9932 115.713 23.8823 115.895C23.7715 116.076 23.6069 116.219 23.4112 116.303C22.9461 116.551 22.4248 116.675 21.8977 116.664C21.3691 116.674 20.8465 116.55 20.3793 116.303C20.2074 116.225 20.0591 116.103 19.9496 115.949C19.8401 115.796 19.7734 115.616 19.7561 115.428L17.7381 100.43V100.326L12.5201 86.055C12.4716 85.9458 12.4303 85.8335 12.3965 85.7189C12.3079 85.4337 12.2596 85.1375 12.253 84.8389C12.248 84.7533 12.248 84.6675 12.253 84.5819L12.2975 82.0114L27.8972 73.0098L27.8032 79.6485Z" fill="white"/>
<path fill-rule="evenodd" clip-rule="evenodd" d="M20.8538 86.1635L20.5719 87.5476C20.541 87.7419 20.4448 87.92 20.299 88.0523C20.1533 88.1846 19.9668 88.2633 19.7702 88.2754C19.5737 88.2875 19.379 88.2322 19.2181 88.1188C19.0572 88.0053 18.9398 87.8405 18.8853 87.6514L18.5787 86.5688C18.5253 86.3829 18.5357 86.1846 18.6084 86.0054C18.681 85.8262 18.8116 85.6765 18.9793 85.5801L19.5778 85.2391C19.7594 85.1316 19.9747 85.0963 20.1812 85.1402C20.3997 85.1857 20.5919 85.3141 20.7174 85.4986C20.8429 85.6831 20.8918 85.9091 20.8538 86.1289V86.1635ZM26.9423 79.6384L27.0363 74.4777L13.1875 82.4758L13.148 84.5866C13.148 84.636 13.148 84.6854 13.148 84.7349C13.1529 84.7726 13.1529 84.8108 13.148 84.8485C13.148 84.9326 13.148 85.0265 13.1776 85.1204C13.1966 85.2288 13.2213 85.3361 13.2518 85.4418L13.3112 85.5999L13.3458 85.6889L18.5836 100.024C18.6036 100.08 18.6185 100.138 18.6281 100.197C19.3502 105.22 19.9833 110.272 20.656 115.299C20.656 115.328 20.656 115.358 20.656 115.388C20.7087 115.453 20.7743 115.507 20.8489 115.546C20.9943 115.624 21.1488 115.684 21.3089 115.724C21.7199 115.81 22.1442 115.81 22.5552 115.724C22.7152 115.684 22.8697 115.624 23.0152 115.546C23.0879 115.506 23.1532 115.455 23.2081 115.393V115.328L21.937 99.8859C21.937 99.8463 21.937 99.8068 21.937 99.7672C21.8875 99.3965 21.8183 98.9713 21.7342 98.5067C21.6501 98.042 21.5463 97.5526 21.4325 97.0237C21.4037 96.8966 21.4043 96.7647 21.4343 96.6379C21.4643 96.5111 21.5229 96.3928 21.6056 96.2921L21.8628 95.9461L21.9271 95.8621C21.9806 95.7858 22.027 95.7047 22.0656 95.6198C22.1061 95.5282 22.1408 95.4341 22.1695 95.3381L26.7791 80.5084L26.8088 80.4293V80.3502L26.8434 80.2365C26.8689 80.1372 26.8888 80.0366 26.9028 79.935C26.9095 79.833 26.9095 79.7306 26.9028 79.6285L26.9423 79.6384ZM28.7872 72.9848C28.7892 72.8718 28.7688 72.7596 28.7274 72.6545C28.686 72.5494 28.6242 72.4535 28.5457 72.3723C28.4671 72.291 28.3733 72.226 28.2697 72.181C28.166 72.136 28.0544 72.1118 27.9414 72.1098C27.7839 72.1063 27.6283 72.1457 27.4914 72.2236L11.8966 81.2202C11.7611 81.2983 11.6494 81.4118 11.5736 81.5485C11.4978 81.6853 11.4607 81.8401 11.4663 81.9963L11.4218 84.4679V84.7793C11.4193 84.8023 11.4193 84.8255 11.4218 84.8485C11.4258 85.0242 11.4423 85.1993 11.4713 85.3725C11.5035 85.5562 11.5464 85.7377 11.5999 85.9163C11.6295 86.0152 11.6543 86.0893 11.6691 86.1338V86.1783C11.6889 86.2343 11.7087 86.2837 11.7284 86.3266L16.9217 100.499L18.9298 115.427C18.9426 115.764 19.0564 116.09 19.2563 116.362C19.453 116.627 19.7043 116.848 19.9932 117.009C20.2846 117.172 20.5977 117.291 20.9231 117.365C21.5923 117.53 22.2916 117.53 22.9608 117.365C23.2862 117.291 23.5993 117.172 23.8907 117.009C24.2198 116.824 24.4983 116.561 24.7018 116.243C24.9048 115.923 24.9872 115.541 24.9342 115.165L23.6631 99.7425V99.5398C23.6038 99.1098 23.5345 98.655 23.4455 98.1805C23.3763 97.8246 23.3021 97.4489 23.2131 97.0534L23.2477 97.004L23.3515 96.8705C23.4617 96.7137 23.5593 96.5484 23.6434 96.3762C23.7299 96.1935 23.7994 96.0032 23.8511 95.8077L28.441 81.0373C28.441 80.9928 28.4756 80.9434 28.4904 80.889L28.5498 80.6962C28.5943 80.5337 28.629 80.3686 28.6536 80.2019C28.6778 80.03 28.6894 79.8565 28.6883 79.6829L28.7872 72.9848Z" fill="#3C3C3C"/>
<path fill-rule="evenodd" clip-rule="evenodd" d="M10.2953 107.667C10.1545 107.536 10.0579 107.364 10.0188 107.176C9.9798 106.987 10.0002 106.791 10.0773 106.615C10.1544 106.439 10.2843 106.291 10.4491 106.191C10.614 106.092 10.8056 106.046 10.9976 106.06C11.5238 106.024 12.0507 106.119 12.5309 106.337C13.0171 106.541 13.4441 106.864 13.7723 107.276L16.5025 110.984C16.6443 111.114 16.7419 111.286 16.7815 111.474C16.8211 111.663 16.8009 111.859 16.7235 112.035C16.6461 112.212 16.5155 112.359 16.35 112.458C16.1845 112.557 15.9922 112.601 15.8002 112.585C15.274 112.614 14.7483 112.519 14.2656 112.308C13.7828 112.097 13.3564 111.775 13.0205 111.369L10.2953 107.667Z" fill="white"/>
<path fill-rule="evenodd" clip-rule="evenodd" d="M9.59737 108.176C9.39944 107.913 9.25802 107.611 9.18193 107.291C9.10453 106.948 9.13912 106.589 9.28064 106.267C9.42217 105.945 9.66316 105.677 9.96832 105.502C10.2551 105.337 10.5739 105.236 10.9031 105.205C11.2332 105.171 11.5666 105.186 11.8923 105.249C12.2321 105.311 12.5639 105.41 12.8815 105.546C13.1954 105.678 13.494 105.844 13.7718 106.04C14.0381 106.24 14.2746 106.476 14.4741 106.742L17.1993 110.45C17.3991 110.712 17.5408 111.014 17.6148 111.335C17.6918 111.677 17.6589 112.035 17.5208 112.358C17.3756 112.679 17.1335 112.947 16.8284 113.124C16.5424 113.286 16.2257 113.387 15.8985 113.421C15.5683 113.452 15.2354 113.437 14.9094 113.376C14.2314 113.25 13.5917 112.969 13.0398 112.556C12.7708 112.358 12.5325 112.121 12.3325 111.854L9.60728 108.151L9.59737 108.176ZM10.8833 106.97C10.9109 107.035 10.9475 107.097 10.9921 107.153L13.7174 110.86C13.8179 110.991 13.9361 111.107 14.0685 111.206C14.2353 111.331 14.4163 111.435 14.6076 111.518C14.7986 111.605 14.9996 111.668 15.2061 111.705C15.3703 111.727 15.5365 111.727 15.7007 111.705C15.7718 111.698 15.8417 111.682 15.9084 111.656C15.8852 111.588 15.8501 111.524 15.8046 111.468L13.0793 107.766C12.9782 107.633 12.8582 107.517 12.7232 107.42C12.5566 107.293 12.3756 107.187 12.1841 107.103C11.9945 107.018 11.7952 106.957 11.5906 106.92C11.4268 106.894 11.2598 106.894 11.096 106.92C11.0245 106.925 10.9543 106.942 10.8883 106.97H10.8833Z" fill="#3C3C3C"/>
<path fill-rule="evenodd" clip-rule="evenodd" d="M12.0016 107.548C11.5119 107.348 11.0825 107.024 10.7552 106.609C10.6272 106.469 10.5391 106.298 10.4999 106.113C10.4608 105.927 10.4721 105.735 10.5326 105.556C10.5666 105.482 10.6116 105.413 10.6662 105.353L16.4183 96.6184L17.7636 100.301V100.405L18.0703 102.442L14.4449 107.276C14.3535 107.441 14.2195 107.579 14.057 107.676C13.8944 107.772 13.7091 107.824 13.52 107.825C12.9985 107.864 12.4757 107.768 12.0016 107.548Z" fill="white"/>
<path fill-rule="evenodd" clip-rule="evenodd" d="M11.6546 108.339C11.3393 108.21 11.0404 108.044 10.7644 107.845C10.4969 107.647 10.2602 107.41 10.062 107.143C9.86219 106.881 9.72057 106.579 9.64657 106.258C9.56714 105.916 9.60009 105.557 9.74055 105.235C9.77873 105.155 9.82168 105.077 9.86915 105.002C9.90515 104.947 9.9448 104.894 9.98785 104.844L15.6955 96.1687C15.7835 96.0354 15.9069 95.9292 16.0518 95.8621C16.1968 95.7949 16.3576 95.7693 16.5162 95.7883C16.6748 95.8073 16.8251 95.8701 16.95 95.9696C17.075 96.0691 17.1698 96.2013 17.2238 96.3516L18.5691 100.034C18.5892 100.091 18.6041 100.148 18.6137 100.207V100.306L18.9203 102.343C18.9373 102.466 18.9281 102.591 18.8931 102.711C18.8582 102.83 18.7983 102.94 18.7175 103.035L15.1811 107.746C15.0343 108.025 14.8113 108.256 14.5382 108.413C14.2531 108.578 13.936 108.679 13.6083 108.71C13.2781 108.741 12.9451 108.726 12.6191 108.665C12.2784 108.605 11.9462 108.504 11.6299 108.364L11.6546 108.339ZM11.803 106.446C12.1413 106.692 12.5297 106.861 12.9406 106.94C13.1048 106.961 13.271 106.961 13.4352 106.94C13.5199 106.934 13.6024 106.91 13.6775 106.871C13.7025 106.82 13.7323 106.772 13.7666 106.727L17.1694 102.185L16.9172 100.499L16.1901 98.5217L11.4024 105.773C11.3777 105.815 11.3496 105.855 11.3183 105.892C11.3469 105.966 11.3852 106.036 11.4321 106.1C11.5326 106.231 11.6508 106.347 11.7832 106.446H11.803ZM13.6677 106.94C13.6677 106.94 13.6627 106.95 13.6677 106.925V106.94Z" fill="#3C3C3C"/>
<path fill-rule="evenodd" clip-rule="evenodd" d="M28.4816 75.6493V52.9647C28.2492 50.8786 25.1827 49.1139 23.8374 49.89L14.3856 55.3276C13.3618 55.901 12.061 57.122 12.0264 58.5605V82.8912C12.0709 84.8389 15.4886 84.908 16.6706 84.2209L20.2317 82.1695L27.072 78.2149C27.9722 77.7156 28.4816 77.2658 28.4816 75.6493Z" fill="#F9FAFE"/>
<path fill-rule="evenodd" clip-rule="evenodd" d="M27.6148 75.6492V53.0043C27.5776 52.7645 27.4936 52.5344 27.3675 52.3271C27.0268 51.7744 26.5499 51.3183 25.9826 51.0023C25.5413 50.7157 25.025 50.566 24.4988 50.5722C24.4212 50.5795 24.3458 50.6013 24.2762 50.6365H24.2268L14.8294 56.074C14.2672 56.3875 13.7769 56.8152 13.3901 57.3296C13.1037 57.6838 12.9312 58.1163 12.8956 58.5704V81.8035V82.896C12.902 82.9743 12.9256 83.0502 12.9648 83.1184C13.1232 83.3325 13.3501 83.486 13.6078 83.5534C14.0247 83.686 14.4614 83.7462 14.8987 83.7313C15.3621 83.7404 15.8218 83.6458 16.244 83.4546L26.6305 77.4485C26.9199 77.3101 27.1725 77.1051 27.3675 76.8504C27.5578 76.4661 27.6382 76.0367 27.5999 75.6097L27.6148 75.6492ZM29.3459 52.9647V75.6492C29.3958 76.4021 29.2238 77.1531 28.8513 77.8094C28.5129 78.3088 28.0512 78.7123 27.5109 78.9809L17.1244 84.982C16.4498 85.3158 15.7057 85.4851 14.9531 85.4763C14.3145 85.498 13.677 85.4093 13.0686 85.2143C12.4131 85.0181 11.8519 84.5892 11.4909 84.0082C11.3187 83.7052 11.2173 83.3672 11.1941 83.0195C11.1915 82.9817 11.1915 82.9437 11.1941 82.9059V81.848V58.5605C11.2309 57.7536 11.5139 56.9773 12.0053 56.336C12.5369 55.6239 13.2106 55.0298 13.9836 54.5911L23.381 49.1535L23.4255 49.1238C23.704 48.9704 24.0098 48.873 24.3257 48.8371C25.2197 48.7921 26.1062 49.0197 26.8679 49.4897C27.6992 49.9648 28.3941 50.6457 28.8859 51.467C29.1388 51.8759 29.307 52.3314 29.3805 52.8066C29.3736 52.8602 29.3621 52.9131 29.3459 52.9647Z" fill="#3C3C3C"/>
<path fill-rule="evenodd" clip-rule="evenodd" d="M22.0264 83.8353C22.124 83.7654 22.2353 83.7166 22.353 83.6922C22.4706 83.6679 22.5921 83.6684 22.7095 83.6937C22.827 83.7191 22.9378 83.7689 23.0349 83.8396C23.132 83.9104 23.2131 84.0008 23.2732 84.1048C23.3332 84.2088 23.3708 84.3242 23.3834 84.4437C23.3961 84.5631 23.3836 84.6839 23.3468 84.7982C23.3099 84.9125 23.2495 85.0178 23.1695 85.1074C23.0894 85.197 22.9915 85.2688 22.882 85.3183L20.409 86.737L20.9036 88.388C22.0214 92.3081 23.2926 96.7471 23.6487 99.545C23.6775 99.7718 23.6151 100.001 23.475 100.182C23.3349 100.362 23.1288 100.48 22.9018 100.509C22.6749 100.538 22.4458 100.475 22.2649 100.335C22.084 100.195 21.9662 99.9893 21.9373 99.7625C21.601 97.1278 20.3497 92.7381 19.2418 88.8873C19.0439 88.1953 18.8511 87.518 18.5889 86.5837C18.5347 86.3979 18.5447 86.1992 18.6174 86.0198C18.6901 85.8404 18.8212 85.6908 18.9896 85.5951L22.0264 83.8353Z" fill="#3C3C3C"/>
<path fill-rule="evenodd" clip-rule="evenodd" d="M18.5601 50.6612C19.0484 50.9111 19.5892 51.0414 20.1378 51.0414C20.6865 51.0414 21.2273 50.9111 21.7156 50.6612C22.591 50.1669 22.591 49.3414 21.7156 48.8421C21.2273 48.5922 20.6865 48.4619 20.1378 48.4619C19.5892 48.4619 19.0484 48.5922 18.5601 48.8421C17.6896 49.3463 17.6896 50.157 18.5601 50.6612Z" fill="white"/>
<path fill-rule="evenodd" clip-rule="evenodd" d="M18.9895 49.9148C19.3474 50.0873 19.7396 50.1769 20.1369 50.1769C20.5343 50.1769 20.9265 50.0873 21.2844 49.9148C21.3092 49.9209 21.3351 49.9213 21.36 49.916C21.385 49.9106 21.4084 49.8997 21.4285 49.884C21.4486 49.8683 21.4649 49.8482 21.4761 49.8253C21.4873 49.8023 21.4931 49.7771 21.4931 49.7516C21.4931 49.7261 21.4873 49.7009 21.4761 49.678C21.4649 49.655 21.4486 49.6349 21.4285 49.6192C21.4084 49.6035 21.385 49.5925 21.36 49.5872C21.3351 49.5819 21.3092 49.5823 21.2844 49.5885H21.2498C20.8953 49.4256 20.5098 49.3413 20.1196 49.3413C19.7295 49.3413 19.344 49.4256 18.9895 49.5885C18.9116 49.6308 18.8414 49.686 18.7817 49.7516C18.84 49.8186 18.9106 49.874 18.9895 49.9148ZM20.1369 51.892C19.4362 51.9028 18.7445 51.7325 18.1289 51.3977C17.7778 51.2045 17.483 50.9234 17.2732 50.5821C17.1233 50.329 17.0431 50.0407 17.0408 49.7466C17.0413 49.4762 17.1074 49.2099 17.2336 48.9706C17.2433 48.9482 17.2548 48.9267 17.2683 48.9063C17.4747 48.564 17.7682 48.2826 18.119 48.0907C18.735 47.7569 19.4264 47.5867 20.1271 47.5963C20.8144 47.5843 21.494 47.7422 22.1055 48.0561L22.1648 48.0907C22.5156 48.2826 22.8091 48.564 23.0155 48.9063C23.1676 49.1603 23.2479 49.4507 23.2479 49.7466C23.2479 50.0426 23.1676 50.3331 23.0155 50.587C22.8078 50.9283 22.5146 51.2095 22.1648 51.4027C21.5433 51.7412 20.8447 51.9132 20.1369 51.9019V51.892Z" fill="#3C3C3C"/>
<path fill-rule="evenodd" clip-rule="evenodd" d="M17.9063 49.7515H22.3577L22.6841 53.9929C22.6865 54.0373 22.6865 54.0818 22.6841 54.1263C22.6633 54.352 22.5826 54.5681 22.4505 54.7523C22.3183 54.9365 22.1395 55.0822 21.9323 55.1743C21.3689 55.4597 20.7463 55.6083 20.1147 55.6083C19.4831 55.6083 18.8604 55.4597 18.2971 55.1743C18.0886 55.0833 17.9085 54.938 17.7754 54.7537C17.6423 54.5694 17.5611 54.3527 17.5403 54.1263C17.5377 54.0835 17.5377 54.0406 17.5403 53.9978L17.9063 49.7515Z" fill="white"/>
<path fill-rule="evenodd" clip-rule="evenodd" d="M17.9058 48.8865H23.1682L23.554 53.894V53.9979C23.554 54.0473 23.554 54.0917 23.554 54.1263C23.5519 54.511 23.4272 54.8851 23.1979 55.1941C22.9772 55.4907 22.6956 55.7368 22.3719 55.9159C21.6785 56.2796 20.9071 56.4696 20.124 56.4696C19.3409 56.4696 18.5695 56.2796 17.8761 55.9159C17.5525 55.7368 17.2708 55.4907 17.0501 55.1941C16.8208 54.8851 16.6961 54.511 16.694 54.1263C16.6892 54.049 16.6892 53.9714 16.694 53.894L17.0798 48.8865H17.9058ZM21.5707 50.6166H18.7021L18.4399 54.0769V54.1461C18.4476 54.1694 18.4593 54.1912 18.4745 54.2104C18.5543 54.3069 18.6516 54.3874 18.7614 54.4477C19.1898 54.6654 19.6659 54.7724 20.1463 54.7591C20.6273 54.7733 21.104 54.6644 21.5311 54.4427C21.643 54.3856 21.741 54.3046 21.818 54.2054C21.8332 54.1862 21.845 54.1645 21.8526 54.1412V54.072L21.5856 50.6117L21.5707 50.6166Z" fill="#3C3C3C"/>
<path fill-rule="evenodd" clip-rule="evenodd" d="M20.558 39.8702H19.7172C19.2096 39.8642 18.7059 39.9597 18.2357 40.1512C17.7656 40.3426 17.3384 40.626 16.9794 40.9848C16.6205 41.3436 16.3369 41.7704 16.1454 42.2403C15.9539 42.7102 15.8583 43.2137 15.8643 43.721L16.0621 48.4221C16.0811 49.4374 16.4932 50.4059 17.2117 51.124C17.9301 51.8421 18.8991 52.2538 19.915 52.2728H20.3354C21.3499 52.2478 22.3159 51.8343 23.0339 51.1176C23.7519 50.4009 24.167 49.4359 24.1933 48.4221L24.4109 43.721C24.4176 43.2135 24.3224 42.7098 24.1312 42.2396C23.9399 41.7693 23.6564 41.3422 23.2973 40.9833C22.9381 40.6244 22.5108 40.341 22.0403 40.1498C21.5698 39.9587 21.0658 39.8636 20.558 39.8702Z" fill="white"/>
<path fill-rule="evenodd" clip-rule="evenodd" d="M20.5569 40.7351H19.5677C18.8068 40.7683 18.0855 41.0838 17.5448 41.6199C17.2826 41.8736 17.0737 42.1768 16.9302 42.5121C16.7866 42.8474 16.7114 43.2079 16.7089 43.5725V43.6862L16.9018 48.3872C16.9342 49.2008 17.2694 49.9729 17.8416 50.5524C18.1099 50.8238 18.4295 51.0393 18.7819 51.1861C19.1343 51.3329 19.5124 51.4082 19.8941 51.4075H20.3146C20.6957 51.4086 21.0731 51.3336 21.4248 51.1867C21.7764 51.0398 22.0951 50.8241 22.3622 50.5524C22.9369 49.9721 23.2739 49.1981 23.3069 48.3823L23.5294 43.6813V43.5577C23.5269 43.1953 23.4516 42.837 23.308 42.5041C23.1645 42.1713 22.9555 41.8706 22.6936 41.6199C22.1538 41.0884 21.4374 40.7735 20.6806 40.7351H20.5569ZM19.7161 39.0049H20.5569H20.7745C21.9589 39.0611 23.0808 39.5522 23.9251 40.3841C24.3499 40.7951 24.6885 41.2865 24.9212 41.8297C25.1538 42.3729 25.2759 42.957 25.2803 43.5478C25.2803 43.5775 25.2803 43.6466 25.2803 43.7505L25.0627 48.4465C25.01 49.6945 24.4953 50.8784 23.6185 51.7685C23.1895 52.1998 22.6793 52.542 22.1173 52.7753C21.5554 53.0086 20.9528 53.1285 20.3442 53.1278H19.9238C19.3149 53.1281 18.712 53.0076 18.15 52.7735C17.5879 52.5393 17.078 52.196 16.6496 51.7635C15.768 50.8792 15.2538 49.6942 15.2103 48.4465L15.0125 43.7455V43.5626C15.0148 42.9693 15.136 42.3824 15.3687 41.8365C15.6015 41.2906 15.9411 40.7968 16.3676 40.3841C17.2173 39.5475 18.3465 39.0545 19.538 39L19.7161 39.0049Z" fill="#3C3C3C"/>
<path fill-rule="evenodd" clip-rule="evenodd" d="M20.558 39.8701H19.7172C19.2096 39.8642 18.7059 39.9597 18.2357 40.1511C17.7656 40.3425 17.3384 40.6259 16.9794 40.9847C16.6205 41.3435 16.3369 41.7704 16.1454 42.2403C15.9539 42.7102 15.8583 43.2136 15.8643 43.721L16.0621 48.422C16.7006 48.0334 17.2295 47.4886 17.599 46.8391C17.9685 46.1896 18.1664 45.4567 18.174 44.7096C21.3939 45.0902 22.4572 44.9123 24.2873 42.6334C24.0464 41.8328 23.5533 41.1313 22.8813 40.6333C22.2094 40.1354 21.3945 39.8678 20.558 39.8701Z" fill="white"/>
<path fill-rule="evenodd" clip-rule="evenodd" d="M20.5582 40.735H19.569C18.8081 40.7682 18.0868 41.0837 17.5461 41.6199C17.2839 41.8735 17.075 42.1768 16.9315 42.512C16.7879 42.8473 16.7127 43.2078 16.7102 43.5724V43.6861L16.824 46.4247C17.1299 45.8959 17.2903 45.2955 17.2889 44.6847C17.2921 44.5717 17.3176 44.4605 17.3638 44.3574C17.41 44.2542 17.4761 44.1612 17.5584 44.0836C17.6406 44.006 17.7373 43.9454 17.843 43.9052C17.9486 43.8649 18.0612 43.846 18.1742 43.8493H18.2484C19.7323 44.0223 20.7214 44.0717 21.4782 43.8493C22.202 43.5687 22.8314 43.0888 23.2934 42.4651C23.083 42.0202 22.7651 41.6346 22.3685 41.343C21.8377 40.9535 21.1969 40.7424 20.5384 40.74L20.5582 40.735ZM19.7174 39.0049H20.5582C21.5879 39.0091 22.5894 39.3416 23.417 39.954C24.2326 40.554 24.8286 41.4049 25.1135 42.3762C25.1558 42.512 25.1639 42.6561 25.1372 42.7958C25.1104 42.9354 25.0496 43.0664 24.9602 43.177C23.9314 44.4524 23.0955 45.1543 21.9926 45.4904C20.9923 45.7534 19.9491 45.8106 18.9261 45.6585C18.8185 46.2547 18.6022 46.8261 18.288 47.3441C17.838 48.052 17.245 48.6581 16.547 49.1237C16.4111 49.2212 16.2493 49.2763 16.0821 49.2819C15.9691 49.2865 15.8562 49.2688 15.75 49.2298C15.6438 49.1908 15.5464 49.1313 15.4632 49.0546C15.3801 48.978 15.3129 48.8856 15.2654 48.783C15.218 48.6803 15.1913 48.5693 15.1869 48.4563L14.989 43.7553V43.5724C14.9914 42.9791 15.1126 42.3922 15.3453 41.8463C15.578 41.3005 15.9177 40.8067 16.3442 40.394C17.1939 39.5573 18.3231 39.0643 19.5146 39.0098L19.7174 39.0049Z" fill="#3C3C3C"/>
<path fill-rule="evenodd" clip-rule="evenodd" d="M14.8651 62.6682V58.5999L12.2982 57.5371C10.3841 60.9974 8.28699 64.3242 6.00689 67.735C5.84428 67.945 5.72947 68.188 5.67054 68.4469L3.19755 77.498C3.13812 77.6879 3.11669 77.8876 3.13449 78.0858C3.15228 78.2839 3.20896 78.4766 3.30128 78.6529C3.39359 78.8291 3.51975 78.9855 3.67253 79.113C3.8253 79.2406 4.00171 79.3368 4.1917 79.3962C4.38168 79.4556 4.58152 79.477 4.77979 79.4592C4.97805 79.4414 5.17086 79.3848 5.34723 79.2926C5.52359 79.2003 5.68004 79.0742 5.80765 78.9215C5.93526 78.7688 6.03153 78.5925 6.09096 78.4026L9.14262 69.8211L14.8651 62.6682Z" fill="#F9FAFE"/>
<path fill-rule="evenodd" clip-rule="evenodd" d="M11.5112 57.122C11.5556 57.0068 11.6243 56.9025 11.7127 56.8162C11.801 56.7298 11.9069 56.6635 12.0232 56.6217C12.1395 56.58 12.2634 56.5637 12.3865 56.5741C12.5096 56.5844 12.6291 56.6212 12.7367 56.6818C12.8444 56.7424 12.9377 56.8255 13.0104 56.9253C13.083 57.0252 13.1333 57.1395 13.1578 57.2605C13.1824 57.3816 13.1805 57.5065 13.1524 57.6267C13.1243 57.747 13.0706 57.8598 12.995 57.9574C12.0355 59.6876 11.0166 61.4177 9.96806 63.1034C8.91951 64.789 7.81161 66.5092 6.66909 68.2147L6.63941 68.2592C6.59406 68.3152 6.55586 68.3766 6.52567 68.4421C6.49375 68.5046 6.47045 68.5711 6.45642 68.6398C5.56119 71.6058 4.78467 74.7497 3.98342 77.7601C3.98017 77.8029 3.98017 77.8458 3.98342 77.8886C3.97847 77.9313 3.97847 77.9745 3.98342 78.0171C3.99899 78.1903 4.08256 78.3503 4.21586 78.4621C4.28433 78.5184 4.36333 78.5604 4.44825 78.5859C4.53317 78.6113 4.6223 78.6197 4.71046 78.6103C4.83713 78.5963 4.9572 78.5466 5.05669 78.467C5.15581 78.3835 5.2295 78.2739 5.26936 78.1506V78.116L8.37051 69.3961L14.2068 62.1296C14.3498 61.9513 14.5578 61.837 14.785 61.812C15.0123 61.7869 15.2402 61.8532 15.4186 61.9961C15.597 62.139 15.7112 62.3469 15.7363 62.574C15.7613 62.8011 15.6951 63.0289 15.5521 63.2072L9.90376 70.2464L6.89662 78.6894C6.73022 79.2098 6.38921 79.6569 5.9312 79.9552C5.4732 80.2534 4.92625 80.3846 4.38271 80.3265C3.83917 80.2684 3.33235 80.0246 2.94782 79.6363C2.56329 79.2479 2.32461 78.7389 2.27209 78.1951C2.25598 78.0307 2.25598 77.8652 2.27209 77.7008C2.28551 77.5327 2.31872 77.3668 2.37102 77.2064L4.84401 68.2246C4.88889 68.0376 4.95183 67.8555 5.03197 67.6808C5.11375 67.5063 5.21317 67.3407 5.32871 67.1865C6.4564 65.4959 7.53795 63.8218 8.57332 62.1641C9.56746 60.523 10.5616 58.8374 11.5112 57.122Z" fill="#3C3C3C"/>
<path fill-rule="evenodd" clip-rule="evenodd" d="M113.51 111.454C113.51 111.682 113.419 111.901 113.258 112.062C113.097 112.223 112.878 112.314 112.649 112.314C112.421 112.314 112.202 112.223 112.041 112.062C111.88 111.901 111.789 111.682 111.789 111.454C111.789 104.632 110.8 96.352 109.346 87.7804C107.575 77.4589 105.057 66.7568 102.545 57.6958C102.496 57.479 102.533 57.2517 102.647 57.0611C102.761 56.8705 102.945 56.7312 103.159 56.672C103.373 56.6129 103.602 56.6385 103.798 56.7435C103.994 56.8486 104.142 57.0249 104.212 57.2361C106.739 66.3613 109.271 77.1277 111.047 87.4937C112.531 96.1295 113.495 104.508 113.52 111.454H113.51ZM122.7 116.753C122.7 116.982 122.608 117.202 122.446 117.364C122.284 117.527 122.064 117.618 121.834 117.618C121.605 117.618 121.384 117.527 121.222 117.364C121.06 117.202 120.969 116.982 120.969 116.753C121.023 109.022 121.814 101.313 123.333 93.732C124.76 86.2412 126.913 78.9071 129.763 71.8335C129.859 71.6357 130.027 71.482 130.233 71.4038C130.439 71.3256 130.667 71.3287 130.87 71.4125C131.074 71.4963 131.238 71.6544 131.329 71.8548C131.42 72.0551 131.431 72.2826 131.36 72.4909C128.544 79.4574 126.417 86.6826 125.009 94.0632C123.527 101.537 122.761 109.134 122.719 116.753H122.7Z" fill="#3C3C3C"/>
<path fill-rule="evenodd" clip-rule="evenodd" d="M125.993 69.4113C126.177 70.4102 126.557 71.3628 127.111 72.2141C127.546 72.9645 128.159 73.5961 128.897 74.0529C129.068 74.1607 129.268 74.2157 129.47 74.2111C129.502 74.2057 129.532 74.194 129.559 74.1765C129.602 74.138 129.636 74.0908 129.658 74.0381C129.84 73.5646 129.871 73.0469 129.747 72.5551L128.946 67.6515C128.762 66.6529 128.382 65.7004 127.828 64.8487C127.392 64.0992 126.777 63.4693 126.038 63.0148C125.868 62.9027 125.668 62.8457 125.464 62.8516C125.433 62.8576 125.404 62.8712 125.38 62.8912C125.333 62.9249 125.297 62.9712 125.276 63.0246C125.095 63.4981 125.064 64.0159 125.187 64.5076L125.993 69.4162V69.4113ZM125.657 73.1385C124.976 72.0875 124.512 70.9111 124.292 69.6782L123.486 64.7647C123.298 63.9083 123.39 63.0144 123.748 62.214C123.888 61.9398 124.088 61.7001 124.332 61.5121C124.583 61.3222 124.876 61.1966 125.187 61.1463C125.761 61.0738 126.344 61.1919 126.844 61.4824C127.847 62.0799 128.685 62.9174 129.282 63.9194C129.958 64.9733 130.422 66.1486 130.648 67.3796L131.454 72.2833C131.641 73.1434 131.547 74.0407 131.187 74.8438C131.046 75.118 130.847 75.3577 130.603 75.5458C130.353 75.7377 130.059 75.8635 129.747 75.9116C129.175 75.9862 128.594 75.8698 128.095 75.5804C127.092 74.9823 126.253 74.1429 125.657 73.1385Z" fill="#3C3C3C"/>
<path fill-rule="evenodd" clip-rule="evenodd" d="M120.702 67.5427C120.886 68.5414 121.266 69.4939 121.82 70.3456C122.256 71.0951 122.871 71.7251 123.61 72.1795C123.778 72.292 123.977 72.3475 124.179 72.3378C124.211 72.3345 124.242 72.3225 124.268 72.3031C124.311 72.2657 124.346 72.2204 124.372 72.1696C124.551 71.6956 124.581 71.1779 124.456 70.6867L123.16 62.7774C122.975 61.7772 122.596 60.8232 122.042 59.9697C121.608 59.2233 120.996 58.5951 120.262 58.1406C120.091 58.0303 119.891 57.9751 119.688 57.9825C119.657 57.9858 119.628 57.9978 119.604 58.0171C119.562 58.0556 119.527 58.1007 119.5 58.1505C119.321 58.6245 119.29 59.1416 119.411 59.6335L120.707 67.5427H120.702ZM120.37 71.27C119.691 70.2177 119.225 69.0419 119 67.8097L117.705 59.9005C117.517 59.0425 117.609 58.1468 117.967 57.3448C118.107 57.0708 118.307 56.8312 118.55 56.6429C118.8 56.4499 119.094 56.3239 119.406 56.2771C119.978 56.202 120.559 56.3185 121.058 56.6082C122.063 57.2007 122.901 58.0373 123.496 59.0404C124.175 60.0928 124.641 61.2686 124.866 62.5006L126.162 70.4099C126.348 71.2701 126.255 72.1671 125.895 72.9704C125.755 73.2432 125.555 73.4813 125.311 73.6675C125.062 73.8609 124.768 73.9884 124.456 74.0382C123.883 74.1084 123.303 73.9905 122.804 73.7021C121.802 73.107 120.966 72.2709 120.37 71.27Z" fill="#3C3C3C"/>
<path fill-rule="evenodd" clip-rule="evenodd" d="M115.424 65.7633C115.609 66.762 115.989 67.7145 116.542 68.5662C116.978 69.3142 117.591 69.9439 118.328 70.4001C118.497 70.5126 118.698 70.568 118.902 70.5583C118.932 70.5549 118.961 70.5429 118.986 70.5237C119.031 70.4889 119.067 70.4429 119.089 70.3902C119.268 69.9162 119.299 69.3992 119.178 68.9072L117.393 57.9976C117.204 57.0003 116.824 56.0487 116.275 55.1947C115.837 54.4451 115.223 53.8138 114.485 53.3559C114.312 53.2474 114.11 53.1924 113.906 53.1977C113.877 53.2008 113.849 53.2129 113.827 53.2323C113.781 53.2671 113.746 53.3131 113.723 53.3658C113.542 53.8393 113.511 54.357 113.634 54.8487L115.424 65.7683V65.7633ZM115.088 69.4906C114.408 68.4391 113.944 67.2628 113.723 66.0303L111.933 55.1107C111.745 54.2527 111.837 53.3571 112.195 52.5551C112.337 52.2834 112.536 52.0456 112.778 51.8581C113.027 51.6643 113.322 51.5383 113.634 51.4923C114.208 51.4176 114.791 51.5359 115.291 51.8284C116.293 52.426 117.131 53.2634 117.729 54.2654C118.406 55.3189 118.869 56.4944 119.094 57.7257L120.88 68.6354C121.067 69.4951 120.975 70.392 120.618 71.1959C120.475 71.4682 120.276 71.7074 120.034 71.8979C119.784 72.0884 119.49 72.2125 119.178 72.2588C118.606 72.3334 118.026 72.217 117.527 71.9275C116.522 71.3327 115.683 70.4946 115.088 69.4906Z" fill="#3C3C3C"/>
<path fill-rule="evenodd" clip-rule="evenodd" d="M109.607 60.7013C109.793 61.6982 110.172 62.6488 110.725 63.4993C111.159 64.2455 111.768 64.8749 112.5 65.3332C112.674 65.4446 112.878 65.5014 113.084 65.4963C113.114 65.4899 113.142 65.4782 113.168 65.4617C113.21 65.4242 113.243 65.3788 113.267 65.3282C113.448 64.8547 113.479 64.337 113.356 63.8453L112.06 55.936C111.877 54.9378 111.499 53.9854 110.947 53.1332C110.51 52.3834 109.895 51.7521 109.157 51.2943C108.985 51.183 108.783 51.1277 108.578 51.1361C108.548 51.1402 108.519 51.1521 108.494 51.1707C108.451 51.2062 108.417 51.2521 108.395 51.3042C108.214 51.7777 108.183 52.2954 108.306 52.7872L109.602 60.6964L109.607 60.7013ZM109.266 64.4286C108.59 63.3752 108.128 62.1996 107.906 60.9683L106.61 53.0591C106.422 52.2011 106.514 51.3055 106.872 50.5034C107.012 50.2292 107.212 49.9895 107.456 49.8014C107.705 49.6124 107.997 49.4869 108.306 49.4356C108.882 49.3657 109.465 49.4837 109.968 49.7718C110.97 50.3702 111.807 51.2096 112.402 52.2137C113.083 53.2647 113.547 54.4412 113.767 55.674L115.062 63.5832C115.253 64.4428 115.161 65.3406 114.8 66.1439C114.66 66.4166 114.461 66.6547 114.217 66.8409C113.968 67.0318 113.676 67.1576 113.366 67.2067C112.788 67.2821 112.202 67.1639 111.699 66.8705C110.698 66.2691 109.861 65.4283 109.266 64.4236V64.4286Z" fill="#3C3C3C"/>
<path fill-rule="evenodd" clip-rule="evenodd" d="M103.925 56.3364C104.112 57.3344 104.492 58.2864 105.043 59.1392C105.479 59.8887 106.094 60.5187 106.833 60.9731C107.001 61.0856 107.2 61.141 107.402 61.1313C107.433 61.1272 107.462 61.1153 107.486 61.0967C107.529 61.0593 107.564 61.014 107.59 60.9632C107.771 60.4899 107.804 59.9727 107.684 59.4803L106.878 54.5766C106.693 53.578 106.313 52.6255 105.76 51.7738C105.324 51.0245 104.711 50.3932 103.975 49.9349C103.801 49.8266 103.6 49.77 103.396 49.7718L103.312 49.8064C103.272 49.8431 103.238 49.8866 103.213 49.9349C103.037 50.4095 103.006 50.9257 103.124 51.4179L103.925 56.3216V56.3364ZM103.589 60.0636C102.912 59.0101 102.449 57.8346 102.224 56.6033L101.422 51.6948C101.234 50.8335 101.326 49.9347 101.685 49.1292C101.825 48.8566 102.025 48.6187 102.268 48.4323C102.518 48.2433 102.81 48.1177 103.119 48.0664C103.693 47.9962 104.274 48.1142 104.776 48.4026C105.778 49.0021 106.616 49.8413 107.214 50.8445C107.895 51.896 108.359 53.0722 108.579 54.3048L109.366 59.2183C109.549 60.0753 109.456 60.9685 109.099 61.769C108.957 62.0436 108.758 62.2846 108.515 62.4758C108.261 62.6648 107.966 62.7902 107.654 62.8416C107.083 62.9118 106.505 62.7938 106.007 62.5055C105.004 61.9066 104.166 61.0673 103.569 60.0636H103.589Z" fill="#3C3C3C"/>
<path fill-rule="evenodd" clip-rule="evenodd" d="M98.2761 111.572C87.85 117.588 87.85 127.341 98.2761 133.357C108.702 139.373 125.608 139.378 136.039 133.357C146.47 127.336 146.465 117.588 136.039 111.572C125.613 105.556 108.702 105.552 98.2761 111.572Z" fill="white"/>
<path fill-rule="evenodd" clip-rule="evenodd" d="M98.7069 112.314C95.8135 113.99 93.761 115.942 92.5739 118.008C91.7543 119.348 91.3206 120.887 91.3206 122.457C91.3206 124.027 91.7543 125.567 92.5739 126.906C93.7708 128.977 95.8135 130.935 98.7069 132.606C103.786 135.532 110.463 137 117.155 137C123.847 137 130.51 135.517 135.609 132.606C138.502 130.935 140.555 128.977 141.742 126.906C142.546 125.56 142.978 124.025 142.993 122.457C142.974 120.89 142.54 119.355 141.737 118.008C140.545 115.942 138.497 113.99 135.599 112.314L135.559 112.289C130.485 109.378 123.828 107.924 117.15 107.924C110.473 107.924 103.796 109.407 98.7019 112.314H98.7069ZM91.0654 117.153C92.4107 114.825 94.6661 112.65 97.8315 110.826C103.183 107.736 110.196 106.194 117.121 106.194C124.045 106.194 131.039 107.726 136.38 110.796L136.435 110.826C139.6 112.65 141.875 114.825 143.201 117.153C144.158 118.762 144.67 120.596 144.685 122.467C144.668 124.338 144.156 126.172 143.201 127.781C141.856 130.104 139.6 132.275 136.43 134.104C131.083 137.193 124.095 138.735 117.141 138.735C110.187 138.735 103.178 137.193 97.8512 134.104C94.6809 132.275 92.4107 130.104 91.0852 127.781C90.1145 126.178 89.6013 124.341 89.6013 122.467C89.6013 120.594 90.1145 118.756 91.0852 117.153H91.0654Z" fill="#3C3C3C"/>
<path fill-rule="evenodd" clip-rule="evenodd" d="M107.722 111.849V119.912L107.727 119.971L107.742 120.03L107.767 120.089L107.802 120.149L107.846 120.203L107.905 120.258L107.97 120.312L108.044 120.356L121.635 128.201L121.72 128.246L121.804 128.28L121.898 128.315L121.997 128.34L122.095 128.359L122.199 128.374L122.303 128.384H122.407H122.511L122.615 128.374L122.719 128.359L122.818 128.34L122.916 128.315L123.01 128.28L123.099 128.246L123.183 128.201L123.268 128.152L124.257 127.583L126.774 126.13L126.848 126.081L126.913 126.031L126.967 125.977L127.012 125.918L127.046 125.863L127.071 125.804L127.086 125.744L127.091 125.68V117.623L127.086 117.682L127.071 117.741L127.046 117.801L127.012 117.86L126.967 117.914L126.913 117.969L126.848 118.018L126.774 118.068L124.257 119.521L123.268 120.089L123.183 120.139L123.099 120.183L123.01 120.223L122.916 120.253L122.818 120.277L122.719 120.297L122.615 120.312L122.511 120.322L122.407 120.327L122.303 120.322L122.199 120.312L122.095 120.297L121.997 120.277L121.898 120.253L121.804 120.223L121.72 120.183L121.635 120.139L108.044 112.299L107.97 112.25L107.905 112.2L107.846 112.146L107.802 112.086L107.767 112.032L107.742 111.973L107.727 111.913L107.722 111.849Z" fill="#3C3C3C"/>
<path fill-rule="evenodd" clip-rule="evenodd" d="M108.589 113.594V119.659L122.081 127.45H122.136H122.195H122.274H122.447H122.576H122.635C122.701 127.432 122.763 127.404 122.818 127.366L123.808 126.792H123.857L126.216 125.433V119.378L123.694 120.831L123.605 120.885L123.486 120.945L123.417 120.979L123.328 121.019H123.264H123.179C123.146 121.033 123.111 121.043 123.076 121.048L122.878 121.093H122.828H122.724H122.566H122.22H122.116H122.017H121.963H121.874C121.804 121.093 121.74 121.063 121.671 121.048H121.612L121.523 121.019H121.463L121.374 120.979L121.255 120.92C117.056 118.695 112.724 115.977 108.579 113.609L108.589 113.594ZM106.858 119.897V111.834C106.858 111.629 106.932 111.43 107.066 111.274C107.2 111.119 107.385 111.016 107.588 110.985C107.791 110.954 107.999 110.996 108.173 111.105C108.348 111.214 108.478 111.381 108.539 111.577L122.067 119.383H122.126H122.161H122.225H122.269H122.363H122.532H122.591H122.65H122.7H122.729L122.823 119.328C123.951 118.651 125.118 118.003 126.256 117.351C126.318 117.154 126.448 116.985 126.623 116.876C126.799 116.766 127.008 116.723 127.212 116.754C127.416 116.785 127.603 116.888 127.738 117.045C127.873 117.202 127.947 117.401 127.947 117.608V125.769C127.952 125.827 127.952 125.885 127.947 125.942V126.002C127.936 126.042 127.923 126.081 127.908 126.12L127.883 126.184C127.867 126.223 127.847 126.259 127.824 126.293C127.797 126.344 127.766 126.392 127.73 126.437L127.685 126.491L127.616 126.565C127.585 126.602 127.55 126.635 127.512 126.664L127.448 126.713L127.379 126.763L127.304 126.812L124.797 128.261H124.752L123.679 128.884L123.595 128.928L123.491 128.977H123.447L123.362 129.012L123.268 129.042H123.204H123.135H123.046L122.843 129.081H122.749H122.645H122.502H122.225H122.121H122.072L121.923 129.057H121.849H121.765H121.666H121.607L121.513 129.027L121.379 128.972L121.305 128.933H121.26L121.196 128.898C116.794 126.357 111.744 123.723 107.53 120.989C107.496 120.971 107.462 120.949 107.431 120.925L107.362 120.87C107.333 120.85 107.307 120.827 107.283 120.801L107.248 120.767L107.164 120.678L107.115 120.618C107.092 120.588 107.07 120.557 107.051 120.524C107.017 120.477 106.989 120.425 106.966 120.371V120.342C106.966 120.292 106.932 120.243 106.917 120.193V120.134C106.914 120.098 106.914 120.061 106.917 120.025C106.894 119.989 106.875 119.951 106.858 119.912V119.897Z" fill="#3C3C3C"/>
<path fill-rule="evenodd" clip-rule="evenodd" d="M111.636 109.333L108.045 111.404C107.96 111.444 107.888 111.507 107.838 111.587C107.788 111.666 107.761 111.758 107.761 111.852C107.761 111.945 107.788 112.037 107.838 112.117C107.888 112.196 107.96 112.259 108.045 112.299L121.637 120.139C121.877 120.261 122.142 120.325 122.411 120.325C122.68 120.325 122.945 120.261 123.185 120.139L123.269 120.09L124.258 119.521L126.781 118.068C126.866 118.028 126.937 117.965 126.988 117.885C127.038 117.806 127.065 117.714 127.065 117.62C127.065 117.527 127.038 117.435 126.988 117.355C126.937 117.276 126.866 117.213 126.781 117.173L113.189 109.333C112.949 109.21 112.683 109.146 112.413 109.146C112.143 109.146 111.876 109.21 111.636 109.333Z" fill="white"/>
<path fill-rule="evenodd" clip-rule="evenodd" d="M93.2233 157.635C84.0534 152.346 81.1848 144.783 84.6222 138.085L91.1756 125.336H143.603L150.157 138.085C153.619 144.793 150.73 152.346 141.555 157.635C128.196 165.337 106.568 165.337 93.2233 157.635Z" fill="#2B7CFF"/>
<path fill-rule="evenodd" clip-rule="evenodd" d="M92.7731 158.381C88.0992 155.687 84.9931 152.4 83.4598 148.91C82.6574 147.137 82.274 145.203 82.3391 143.258C82.4043 141.313 82.9164 139.41 83.8357 137.694L90.3892 124.945C90.4617 124.804 90.5715 124.686 90.7067 124.603C90.8419 124.521 90.9972 124.476 91.1558 124.476H143.583C143.757 124.475 143.926 124.527 144.07 124.624C144.214 124.721 144.325 124.859 144.389 125.02L150.903 137.694C151.823 139.409 152.336 141.313 152.402 143.258C152.468 145.203 152.086 147.137 151.284 148.91C149.746 152.4 146.645 155.687 141.971 158.381L141.916 158.411C135.116 162.321 126.243 164.274 117.379 164.274C108.516 164.274 99.6036 162.297 92.7929 158.381H92.7731ZM85.0426 148.218C86.4324 151.377 89.2961 154.387 93.6387 156.889C100.172 160.655 108.764 162.539 117.379 162.539C125.995 162.539 134.537 160.665 141.066 156.913L141.105 156.884C145.448 154.382 148.312 151.372 149.701 148.213C150.397 146.673 150.729 144.993 150.672 143.303C150.615 141.614 150.169 139.96 149.37 138.47L143.059 126.196H91.6998L85.3888 138.47C84.5898 139.961 84.1447 141.616 84.0881 143.306C84.0315 144.996 84.3649 146.677 85.0623 148.218H85.0426Z" fill="#3C3C3C"/>
<path fill-rule="evenodd" clip-rule="evenodd" d="M98.5 111.505C88.0739 117.521 88.0739 127.274 98.5 133.29C108.926 139.305 125.832 139.31 136.263 133.29C146.694 127.269 146.689 117.521 136.263 111.505C125.836 105.489 108.926 105.484 98.5 111.505Z" fill="white"/>
<path fill-rule="evenodd" clip-rule="evenodd" d="M98.931 112.246C96.0376 113.922 93.9851 115.875 92.798 117.941C91.9784 119.28 91.5448 120.82 91.5448 122.39C91.5448 123.96 91.9784 125.499 92.798 126.839C93.995 128.91 96.0376 130.867 98.931 132.538C104.011 135.465 110.688 136.933 117.38 136.933C124.071 136.933 130.734 135.45 135.833 132.538C138.726 130.867 140.779 128.91 141.966 126.839C142.77 125.493 143.202 123.957 143.217 122.39C143.198 120.822 142.765 119.287 141.961 117.941C140.769 115.875 138.721 113.922 135.823 112.246L135.783 112.221C130.709 109.31 124.052 107.857 117.375 107.857C110.697 107.857 104.02 109.34 98.926 112.246H98.931ZM91.2895 117.086C92.6348 114.757 94.8902 112.582 98.0556 110.758C103.407 107.669 110.421 106.126 117.345 106.126C124.269 106.126 131.263 107.659 136.605 110.729L136.659 110.758C139.824 112.582 142.1 114.757 143.425 117.086C144.382 118.694 144.894 120.528 144.909 122.4C144.892 124.271 144.38 126.104 143.425 127.714C142.08 130.037 139.824 132.207 136.654 134.036C131.307 137.125 124.319 138.668 117.365 138.668C110.411 138.668 103.402 137.125 98.0754 134.036C94.905 132.207 92.6348 130.037 91.3093 127.714C90.3386 126.111 89.8254 124.273 89.8254 122.4C89.8254 120.526 90.3386 118.688 91.3093 117.086H91.2895Z" fill="#3C3C3C"/>
<path fill-rule="evenodd" clip-rule="evenodd" d="M90.7102 123.136V132.415C90.8983 134.239 91.5617 135.983 92.6342 137.472C96.2794 142.662 103.768 145.42 109.777 146.449C118.556 147.932 129.591 146.864 137.207 142C140.353 139.988 143.326 136.977 143.959 133.156L144.053 132.42V123.141C143.96 124.15 143.711 125.139 143.316 126.073C140.976 131.614 134.096 134.916 128.621 136.379C118.981 138.964 106.082 138.174 97.5555 132.721C94.4049 130.714 91.4373 127.699 90.7993 123.878L90.7102 123.136Z" fill="white"/>
<path fill-rule="evenodd" clip-rule="evenodd" d="M91.5764 128.154V132.415C91.6423 133.175 91.8172 133.923 92.0957 134.634C92.4151 135.463 92.8336 136.249 93.3421 136.977C94.8902 139.182 97.1852 140.932 99.7719 142.281C102.968 143.897 106.392 145.016 109.926 145.598C114.772 146.403 119.716 146.418 124.566 145.643C129.018 144.921 133.251 143.507 136.748 141.268C138.431 140.227 139.919 138.9 141.145 137.348C142.146 136.097 142.825 134.621 143.124 133.047L143.208 132.365V128.168C141.989 130.013 140.419 131.6 138.588 132.84C135.619 134.835 132.333 136.312 128.869 137.21C123.319 138.632 117.554 139.014 111.865 138.337C106.503 137.704 101.305 136.122 97.111 133.443C95.2594 132.291 93.6212 130.828 92.2688 129.117C92.0314 128.806 91.8039 128.485 91.5962 128.129L91.5764 128.154ZM89.8453 132.415V123.136C89.8421 122.914 89.9249 122.698 90.0764 122.535C90.2279 122.372 90.4365 122.274 90.6588 122.26C90.8811 122.247 91.0999 122.32 91.2699 122.464C91.4399 122.607 91.5479 122.811 91.5714 123.032L91.6605 123.769C91.9587 125.342 92.638 126.819 93.6389 128.07C94.8667 129.62 96.3545 130.947 98.0359 131.989C101.993 134.52 106.939 136.018 112.063 136.621C117.535 137.275 123.08 136.91 128.419 135.544C131.689 134.703 134.792 133.31 137.594 131.426C139.765 129.903 141.58 128.01 142.54 125.731C142.723 125.308 142.868 124.87 142.975 124.421C143.076 123.971 143.152 123.516 143.203 123.057C143.226 122.838 143.332 122.636 143.5 122.492C143.667 122.349 143.883 122.274 144.103 122.284C144.323 122.294 144.531 122.388 144.685 122.547C144.838 122.705 144.926 122.916 144.929 123.136V132.415C144.931 132.449 144.931 132.484 144.929 132.518L144.84 133.255V133.29C144.506 135.154 143.718 136.908 142.545 138.396C141.191 140.105 139.553 141.568 137.703 142.721C133.988 145.094 129.507 146.587 124.843 147.343C119.806 148.15 114.671 148.135 109.639 147.299C105.927 146.687 102.331 145.51 98.9756 143.809C96.1613 142.326 93.6488 140.413 91.9325 137.971C91.3425 137.123 90.8575 136.207 90.4883 135.242C90.1493 134.374 89.9377 133.462 89.8601 132.533C89.8527 132.494 89.8478 132.454 89.8453 132.415Z" fill="#3C3C3C"/>
<path fill-rule="evenodd" clip-rule="evenodd" d="M107.947 111.781V119.844L107.951 119.903L107.966 119.963L107.991 120.022L108.026 120.081L108.07 120.136L108.13 120.19L108.194 120.244L108.268 120.289L121.86 128.134L121.944 128.178L122.028 128.213L122.122 128.247L122.221 128.272L122.32 128.292L122.423 128.307L122.527 128.317H122.631H122.735L122.839 128.307L122.943 128.292L123.042 128.272L123.141 128.247L123.235 128.213L123.324 128.178L123.408 128.134L123.492 128.084L124.481 127.516L126.998 126.062L127.073 126.013L127.137 125.964L127.191 125.909L127.236 125.85L127.27 125.795L127.295 125.736L127.31 125.677L127.315 125.613V117.555L127.31 117.615L127.295 117.674L127.27 117.733L127.236 117.792L127.191 117.847L127.137 117.901L127.073 117.951L126.998 118L124.481 119.453L123.492 120.022L123.408 120.071L123.324 120.116L123.235 120.155L123.141 120.185L123.042 120.21L122.943 120.229L122.839 120.244L122.735 120.254L122.631 120.259L122.527 120.254L122.423 120.244L122.32 120.229L122.221 120.21L122.122 120.185L122.028 120.155L121.944 120.116L121.86 120.071L108.268 112.231L108.194 112.182L108.13 112.133L108.07 112.078L108.026 112.019L107.991 111.964L107.966 111.905L107.951 111.846L107.947 111.781Z" fill="#3C3C3C"/>
<path fill-rule="evenodd" clip-rule="evenodd" d="M108.813 113.527V119.592L122.305 127.383H122.36H122.419H122.498H122.671H122.8H122.859C122.925 127.365 122.986 127.337 123.042 127.299L124.031 126.725H124.081L126.44 125.366V119.31L123.918 120.764L123.829 120.818L123.71 120.877L123.641 120.912L123.552 120.951H123.487H123.403C123.37 120.966 123.335 120.976 123.299 120.981L123.102 121.026H123.052H122.948H122.79H122.444H122.34H122.241H122.187H122.098C122.028 121.026 121.964 120.996 121.895 120.981H121.835L121.746 120.951H121.687L121.598 120.912L121.479 120.853C117.28 118.628 112.947 115.909 108.803 113.541L108.813 113.527ZM107.082 119.829V111.767C107.082 111.561 107.155 111.363 107.289 111.207C107.423 111.051 107.609 110.948 107.812 110.917C108.015 110.886 108.223 110.929 108.397 111.038C108.572 111.146 108.702 111.314 108.763 111.51L122.291 119.315H122.35H122.384H122.449H122.493H122.587H122.755H122.815H122.874H122.924H122.953L123.047 119.261C124.175 118.584 125.342 117.936 126.48 117.283C126.542 117.086 126.672 116.918 126.847 116.808C127.023 116.699 127.231 116.656 127.436 116.687C127.64 116.718 127.827 116.821 127.962 116.978C128.097 117.134 128.171 117.334 128.171 117.541V125.702C128.176 125.759 128.176 125.817 128.171 125.875V125.934C128.16 125.974 128.147 126.014 128.132 126.053L128.107 126.117C128.091 126.155 128.071 126.192 128.048 126.226C128.021 126.277 127.99 126.325 127.954 126.369L127.909 126.424L127.84 126.498C127.809 126.534 127.774 126.567 127.736 126.597L127.672 126.646L127.603 126.695L127.528 126.745L125.021 128.193H124.976L123.903 128.816L123.819 128.861L123.715 128.91H123.67L123.586 128.945L123.492 128.974H123.428H123.359H123.27L123.067 129.014H122.973H122.869H122.726H122.449H122.345H122.295L122.147 128.989H122.073H121.989H121.89H121.831L121.737 128.959L121.603 128.905L121.529 128.866H121.484L121.42 128.831C117.018 126.29 111.968 123.655 107.754 120.922C107.719 120.903 107.686 120.882 107.655 120.857L107.586 120.803C107.557 120.783 107.531 120.76 107.507 120.734L107.472 120.699L107.388 120.61L107.339 120.551C107.316 120.521 107.294 120.49 107.274 120.457C107.241 120.409 107.212 120.358 107.19 120.304V120.274C107.19 120.225 107.156 120.175 107.141 120.126V120.067C107.138 120.03 107.138 119.994 107.141 119.958C107.118 119.921 107.098 119.883 107.082 119.844V119.829Z" fill="#3C3C3C"/>
<path class="lamp" opacity="0.72" fill-rule="evenodd" clip-rule="evenodd" d="M63.5921 37.0842C56.1435 60.5794 64.2598 76.6301 72.6729 91.0149C77.975 100.091 81.7439 101.396 84.662 111.697C86.4178 117.906 85.8046 122.711 90.6912 127.778C104.085 141.658 132.059 142.059 144.034 127.778C148.554 122.385 148.307 117.891 150.063 111.697C152.976 101.381 156.745 100.091 162.047 91.0149C170.455 76.6152 178.576 60.5794 171.128 37.0842C163.471 12.9365 140.418 0.860107 117.36 0.860107C94.3017 0.860107 71.2732 12.9365 63.5921 37.0842Z" fill="white"/>
<path opacity="0.72" fill-rule="evenodd" clip-rule="evenodd" d="M64.4376 37.3412C60.7676 48.9233 60.9259 58.6516 63.0428 67.2528C65.1597 75.854 69.2648 83.432 73.4294 90.5799C74.9728 93.1923 76.6862 95.7006 78.5584 98.0887C81.3429 101.762 83.5983 104.732 85.4827 111.465C85.9773 113.225 86.2889 114.866 86.5857 116.433C87.3127 120.309 87.9557 123.71 91.3042 127.18C91.9972 127.898 92.7286 128.577 93.4952 129.216C100.024 134.684 109.13 137.476 118.087 137.476C127.044 137.476 135.783 134.713 141.644 129.073C142.248 128.492 142.821 127.88 143.361 127.239C146.556 123.428 147.278 120.047 148.114 116.122C148.425 114.668 148.752 113.156 149.222 111.48C151.126 104.747 153.376 101.776 156.146 98.1036C158.015 95.714 159.726 93.2058 161.27 90.5947C165.449 83.4468 169.55 75.8985 171.657 67.2676C173.764 58.6367 173.932 48.9381 170.257 37.3561C166.952 26.799 160.122 17.6955 150.908 11.5672C141.179 5.0174 129.25 1.74003 117.315 1.74003C105.38 1.74003 93.4507 5.0174 83.722 11.5672C74.5094 17.697 67.6797 26.8 64.3733 37.3561L64.4376 37.3412ZM61.3661 67.6631C59.18 58.7652 59.0118 48.7403 62.7905 36.8222C66.2103 25.8934 73.2818 16.4699 82.8218 10.1287C92.8424 3.37623 105.113 0 117.379 0C129.645 0 141.916 3.37623 151.937 10.1287C161.477 16.4712 168.55 25.8939 171.973 36.8222C175.752 48.7403 175.579 58.7751 173.393 67.6631C171.207 76.551 167.052 84.1982 162.813 91.4499C161.234 94.121 159.481 96.6855 157.566 99.1268C154.89 102.656 152.728 105.504 150.913 111.93C150.458 113.536 150.137 115.034 149.835 116.463C148.945 120.615 148.183 124.194 144.716 128.326C144.136 129.017 143.52 129.677 142.871 130.304C136.674 136.275 127.469 139.202 118.141 139.202C108.813 139.202 99.287 136.27 92.422 130.541C91.6077 129.861 90.8301 129.138 90.0924 128.376C86.3878 124.535 85.7053 120.897 84.9238 116.749C84.637 115.227 84.3352 113.63 83.8555 111.93C82.0354 105.504 79.874 102.656 77.2032 99.1317C75.2887 96.6868 73.5342 94.1208 71.9505 91.4499C67.7069 84.1982 63.5423 76.5263 61.3661 67.6631Z" fill="#3C3C3C"/>
<path fill-rule="evenodd" clip-rule="evenodd" d="M64.4376 37.3412C60.7676 48.9233 60.9259 58.6516 63.0428 67.2528C65.1597 75.854 69.2648 83.432 73.4294 90.5799C74.9728 93.1923 76.6862 95.7006 78.5584 98.0887C81.3429 101.762 83.5983 104.732 85.4827 111.465C85.9773 113.225 86.2889 114.866 86.5857 116.433C87.3127 120.309 87.9557 123.71 91.3042 127.18C91.9972 127.898 92.7286 128.577 93.4952 129.216C100.024 134.684 109.13 137.476 118.087 137.476C127.044 137.476 135.783 134.713 141.644 129.073C142.248 128.492 142.821 127.88 143.361 127.239C146.556 123.428 147.278 120.047 148.114 116.122C148.425 114.668 148.752 113.156 149.222 111.48C151.126 104.747 153.376 101.776 156.146 98.1036C158.015 95.714 159.726 93.2058 161.27 90.5947C165.449 83.4468 169.55 75.8985 171.657 67.2676C173.764 58.6367 173.932 48.9381 170.257 37.3561C166.952 26.799 160.122 17.6955 150.908 11.5672C141.179 5.0174 129.25 1.74003 117.315 1.74003C105.38 1.74003 93.4507 5.0174 83.722 11.5672C74.5094 17.697 67.6797 26.8 64.3733 37.3561L64.4376 37.3412ZM61.3661 67.6631C59.18 58.7652 59.0118 48.7403 62.7905 36.8222C66.2103 25.8934 73.2818 16.4699 82.8218 10.1287C92.8424 3.37623 105.113 0 117.379 0C129.645 0 141.916 3.37623 151.937 10.1287C161.477 16.4712 168.55 25.8939 171.973 36.8222C175.752 48.7403 175.579 58.7751 173.393 67.6631C171.207 76.551 167.052 84.1982 162.813 91.4499C161.234 94.121 159.481 96.6855 157.566 99.1268C154.89 102.656 152.728 105.504 150.913 111.93C150.458 113.536 150.137 115.034 149.835 116.463C148.945 120.615 148.183 124.194 144.716 128.326C144.136 129.017 143.52 129.677 142.871 130.304C136.674 136.275 127.469 139.202 118.141 139.202C108.813 139.202 99.287 136.27 92.422 130.541C91.6077 129.861 90.8301 129.138 90.0924 128.376C86.3878 124.535 85.7053 120.897 84.9238 116.749C84.637 115.227 84.3352 113.63 83.8555 111.93C82.0354 105.504 79.874 102.656 77.2032 99.1317C75.2887 96.6868 73.5342 94.1208 71.9505 91.4499C67.7069 84.1982 63.5423 76.5263 61.3661 67.6631Z" fill="#3C3C3C"/>
<path opacity="0.2" d="M212.28 154.101C220.661 154.101 227.455 151.669 227.455 148.669C227.455 145.668 220.661 143.236 212.28 143.236C203.9 143.236 197.106 145.668 197.106 148.669C197.106 151.669 203.9 154.101 212.28 154.101Z" fill="black"/>
<path fill-rule="evenodd" clip-rule="evenodd" d="M212.76 88.5339L217.494 85.6421L223.681 98.4253C223.929 98.9673 223.968 99.5817 223.79 100.15C223.652 100.462 223.75 100.235 223.726 100.279L218.567 109.928C218.488 110.116 218.602 110.067 218.221 110.423C217.971 110.626 217.659 110.738 217.337 110.738C217.014 110.739 216.702 110.628 216.452 110.424C216.202 110.221 216.029 109.937 215.964 109.622C215.899 109.306 215.945 108.978 216.094 108.692L219.937 99.6117L212.76 88.5339Z" fill="#2B7CFF"/>
<path fill-rule="evenodd" clip-rule="evenodd" d="M216.772 86.1267C216.675 85.9195 216.664 85.6823 216.742 85.4673C216.82 85.2522 216.98 85.0769 217.188 84.9799C217.395 84.8829 217.632 84.8721 217.847 84.9499C218.062 85.0278 218.238 85.1879 218.335 85.3951L224.369 98.3118C224.575 98.7035 224.682 99.1396 224.681 99.5822C224.704 100.059 224.614 100.535 224.419 100.971C224.407 100.997 224.394 101.022 224.379 101.045L218.444 110.932C218.268 111.34 217.979 111.689 217.613 111.941C217.246 112.192 216.816 112.334 216.371 112.351C216.069 112.366 215.768 112.317 215.486 112.207C215.19 112.089 214.927 111.901 214.719 111.659C214.461 111.327 214.305 110.927 214.273 110.507C214.24 110.088 214.332 109.668 214.536 109.301V109.261L219.181 99.9975L213.246 90.7882C213.184 90.6928 213.143 90.5862 213.123 90.4747C213.103 90.3632 213.105 90.2489 213.13 90.1382C213.154 90.0276 213.2 89.9229 213.265 89.83C213.33 89.7371 213.412 89.6579 213.508 89.5968C213.603 89.5358 213.71 89.4942 213.821 89.4744C213.933 89.4545 214.047 89.4568 214.158 89.4811C214.269 89.5054 214.373 89.5513 214.466 89.6162C214.559 89.681 214.639 89.7634 214.7 89.8589L220.907 99.4982C220.987 99.624 221.033 99.7685 221.041 99.9174C221.049 100.066 221.018 100.215 220.951 100.348L216.09 110.042C215.966 110.329 215.966 110.497 216.025 110.571C216.049 110.592 216.075 110.609 216.104 110.62C216.167 110.641 216.232 110.651 216.297 110.65C216.422 110.641 216.542 110.597 216.643 110.523C216.744 110.449 216.821 110.347 216.866 110.23C216.88 110.194 216.897 110.16 216.916 110.126L222.9 100.161C222.956 99.9868 222.978 99.8038 222.964 99.6218C222.97 99.4622 222.94 99.3033 222.875 99.1571C222.86 99.1334 222.847 99.1087 222.836 99.083L216.772 86.1267Z" fill="#3C3C3C"/>
<path fill-rule="evenodd" clip-rule="evenodd" d="M208.363 145.708C208.165 145.643 207.993 145.517 207.871 145.348C207.749 145.18 207.683 144.977 207.683 144.768C207.683 144.56 207.749 144.357 207.871 144.189C207.993 144.02 208.165 143.894 208.363 143.829C208.867 143.576 209.424 143.444 209.988 143.444C210.552 143.444 211.109 143.576 211.613 143.829L215.886 146.301C216.084 146.366 216.256 146.492 216.378 146.66C216.5 146.829 216.566 147.032 216.566 147.24C216.566 147.448 216.5 147.651 216.378 147.82C216.256 147.989 216.084 148.114 215.886 148.179C215.382 148.433 214.825 148.565 214.261 148.565C213.697 148.565 213.141 148.433 212.636 148.179L208.363 145.708Z" fill="white"/>
<path fill-rule="evenodd" clip-rule="evenodd" d="M207.933 146.454C207.631 146.287 207.368 146.058 207.161 145.782L207.112 145.702C206.927 145.426 206.827 145.101 206.825 144.768C206.833 144.412 206.95 144.067 207.161 143.78C207.366 143.505 207.628 143.277 207.928 143.112C208.239 142.941 208.572 142.813 208.917 142.732C209.628 142.567 210.368 142.567 211.079 142.732C211.424 142.813 211.757 142.941 212.068 143.112L212.113 143.142L216.336 145.579C216.639 145.746 216.902 145.975 217.108 146.251C217.126 146.276 217.143 146.303 217.158 146.33C217.343 146.607 217.443 146.932 217.444 147.265C217.436 147.621 217.319 147.966 217.108 148.253C216.902 148.528 216.641 148.757 216.341 148.926L216.282 148.955C215.992 149.11 215.682 149.226 215.362 149.301C214.652 149.473 213.911 149.473 213.201 149.301C212.854 149.225 212.521 149.098 212.211 148.926L207.938 146.454H207.933ZM208.566 144.773C208.628 144.851 208.706 144.915 208.794 144.961L213.067 147.433C213.222 147.52 213.388 147.585 213.562 147.625C214.01 147.724 214.474 147.724 214.922 147.625C215.094 147.591 215.26 147.533 215.416 147.452H215.451C215.538 147.405 215.616 147.341 215.679 147.265C215.619 147.186 215.543 147.122 215.456 147.077L211.227 144.635L211.178 144.61C211.022 144.522 210.856 144.456 210.683 144.412C210.235 144.313 209.771 144.313 209.323 144.412C209.15 144.456 208.984 144.522 208.828 144.61C208.739 144.654 208.661 144.719 208.601 144.798L208.566 144.773Z" fill="#3C3C3C"/>
<path fill-rule="evenodd" clip-rule="evenodd" d="M199.347 150.794C199.151 150.728 198.98 150.602 198.859 150.434C198.739 150.266 198.674 150.064 198.674 149.857C198.674 149.65 198.739 149.449 198.859 149.281C198.98 149.113 199.151 148.987 199.347 148.921C199.851 148.664 200.408 148.53 200.974 148.53C201.54 148.53 202.097 148.664 202.601 148.921L206.875 151.392C207.071 151.458 207.241 151.584 207.362 151.752C207.483 151.921 207.548 152.122 207.548 152.329C207.548 152.536 207.483 152.738 207.362 152.906C207.241 153.074 207.071 153.2 206.875 153.266C206.371 153.522 205.813 153.656 205.247 153.656C204.682 153.656 204.124 153.522 203.62 153.266L199.347 150.794Z" fill="white"/>
<path fill-rule="evenodd" clip-rule="evenodd" d="M198.921 151.541C198.618 151.375 198.355 151.146 198.15 150.868L198.1 150.794C197.902 150.506 197.8 150.162 197.809 149.812C197.818 149.463 197.937 149.125 198.15 148.846C198.354 148.57 198.615 148.341 198.916 148.174C199.226 148 199.559 147.871 199.905 147.794C200.259 147.709 200.62 147.666 200.984 147.665C201.348 147.667 201.712 147.71 202.067 147.794C202.413 147.872 202.746 148 203.056 148.174L203.101 148.199L207.329 150.641C207.633 150.806 207.896 151.036 208.101 151.313L208.15 151.387C208.336 151.664 208.435 151.989 208.437 152.322C208.429 152.679 208.309 153.024 208.096 153.31C207.89 153.587 207.627 153.816 207.324 153.983L207.27 154.012C206.98 154.169 206.671 154.287 206.35 154.363C205.995 154.447 205.632 154.49 205.267 154.492C204.904 154.49 204.542 154.447 204.189 154.363C203.842 154.285 203.509 154.157 203.199 153.983L198.926 151.511L198.921 151.541ZM199.554 149.865C199.616 149.94 199.691 150.002 199.777 150.048L204.05 152.519C204.204 152.609 204.371 152.676 204.545 152.717C204.769 152.768 204.998 152.793 205.227 152.791C205.457 152.793 205.686 152.768 205.91 152.717C206.082 152.682 206.248 152.623 206.404 152.544H206.439C206.527 152.5 206.604 152.437 206.667 152.361C206.603 152.286 206.526 152.224 206.439 152.178L202.21 149.736H202.161C202.007 149.646 201.84 149.579 201.666 149.539C201.217 149.44 200.751 149.44 200.301 149.539C200.127 149.579 199.961 149.646 199.806 149.736C199.721 149.782 199.645 149.844 199.584 149.919L199.554 149.865Z" fill="#3C3C3C"/>
<path fill-rule="evenodd" clip-rule="evenodd" d="M215.248 107.783C215.856 108.019 216.379 108.433 216.748 108.971C217.117 109.509 217.315 110.146 217.315 110.798C217.315 110.892 217.315 110.981 217.315 111.07L216.569 145.999C216.55 146.201 216.478 146.395 216.36 146.56C216.242 146.725 216.081 146.856 215.896 146.938C215.392 147.192 214.835 147.324 214.271 147.324C213.707 147.324 213.151 147.192 212.646 146.938C212.461 146.856 212.301 146.725 212.183 146.56C212.064 146.395 211.992 146.201 211.974 145.999L210.539 117.823L208.754 118.811C208.155 129.657 208.002 140.28 207.557 151.071C207.539 151.273 207.467 151.467 207.349 151.632C207.231 151.797 207.07 151.928 206.884 152.01C206.38 152.267 205.823 152.4 205.257 152.4C204.691 152.4 204.134 152.267 203.63 152.01C203.445 151.927 203.285 151.796 203.167 151.631C203.048 151.466 202.976 151.273 202.957 151.071L201.854 116.142C201.854 116.053 201.854 115.964 201.854 115.875C201.854 113.947 203.046 113.329 204.461 112.528L209.051 109.938L212.315 108.089C212.749 107.82 213.238 107.652 213.746 107.599C214.254 107.546 214.768 107.609 215.248 107.783Z" fill="white"/>
<path fill-rule="evenodd" clip-rule="evenodd" d="M215.56 106.963C216.331 107.26 216.994 107.784 217.461 108.465C217.929 109.146 218.18 109.953 218.181 110.779C218.181 110.897 218.181 111.021 218.181 111.14L217.444 146.014C217.437 146.37 217.319 146.716 217.108 147.003C216.902 147.278 216.641 147.507 216.341 147.675L216.282 147.705C215.992 147.859 215.683 147.976 215.362 148.051C214.652 148.222 213.911 148.222 213.201 148.051C212.855 147.974 212.521 147.847 212.212 147.675C211.91 147.508 211.646 147.279 211.44 147.003L211.391 146.924C211.205 146.647 211.105 146.322 211.104 145.989L209.744 119.266L209.59 119.355C209.239 125.781 209.046 132.094 208.848 138.406C208.72 142.643 208.591 146.884 208.418 151.101C208.409 151.458 208.29 151.803 208.077 152.089C207.871 152.366 207.607 152.595 207.305 152.762L207.251 152.791C206.961 152.948 206.651 153.066 206.331 153.142C205.976 153.226 205.612 153.269 205.248 153.271C204.884 153.269 204.523 153.226 204.169 153.142C203.823 153.064 203.49 152.936 203.18 152.762C202.877 152.596 202.614 152.367 202.409 152.089C202.39 152.066 202.374 152.041 202.359 152.015C202.173 151.737 202.073 151.41 202.072 151.076V151.031L200.969 116.221V115.88C200.969 113.507 202.305 112.751 203.907 111.851L204.016 111.787C206.632 110.304 209.249 108.787 211.88 107.338C212.435 107.021 213.047 106.815 213.681 106.73C214.317 106.654 214.963 106.737 215.56 106.972V106.963ZM216.055 109.434C215.786 109.038 215.403 108.733 214.957 108.559C214.62 108.427 214.257 108.382 213.898 108.426C213.485 108.484 213.087 108.622 212.726 108.831L204.882 113.28L204.768 113.344C203.645 113.977 202.715 114.501 202.715 115.875V116.073V116.117L203.818 150.972C203.821 151.002 203.821 151.031 203.818 151.061C203.879 151.136 203.955 151.198 204.041 151.244C204.195 151.334 204.362 151.4 204.535 151.442C204.759 151.493 204.988 151.518 205.218 151.516C205.448 151.518 205.677 151.493 205.9 151.442C206.072 151.406 206.239 151.348 206.395 151.269H206.43C206.517 151.224 206.595 151.162 206.657 151.086V151.056C206.835 146.765 206.964 142.554 207.092 138.342C207.295 131.827 207.493 125.317 207.854 118.777C207.861 118.633 207.905 118.492 207.981 118.37C208.057 118.247 208.163 118.145 208.289 118.075L210.025 117.086C210.153 117.003 210.299 116.955 210.451 116.947C210.603 116.939 210.754 116.972 210.889 117.041C211.024 117.11 211.138 117.214 211.22 117.342C211.302 117.47 211.349 117.617 211.356 117.768L212.785 145.881C212.788 145.912 212.788 145.943 212.785 145.975C212.846 146.054 212.924 146.118 213.013 146.162C213.168 146.25 213.335 146.316 213.507 146.36C213.956 146.452 214.419 146.452 214.868 146.36C215.039 146.322 215.205 146.262 215.362 146.182H215.397C215.484 146.135 215.561 146.071 215.624 145.994L216.366 111.115C216.364 111.075 216.364 111.036 216.366 110.996V110.794C216.393 110.328 216.279 109.864 216.04 109.464L216.055 109.434Z" fill="#3C3C3C"/>
<path fill-rule="evenodd" clip-rule="evenodd" d="M208.17 84.0504C208.659 84.2979 209.2 84.4269 209.748 84.4269C210.296 84.4269 210.837 84.2979 211.326 84.0504C212.196 83.5561 212.196 82.7305 211.326 82.2263C210.837 81.9765 210.297 81.8462 209.748 81.8462C209.199 81.8462 208.659 81.9765 208.17 82.2263C207.295 82.7404 207.295 83.5462 208.17 84.0504Z" fill="white"/>
<path fill-rule="evenodd" clip-rule="evenodd" d="M208.601 83.304C208.956 83.4847 209.35 83.5731 209.748 83.561C210.145 83.5738 210.538 83.4853 210.891 83.304C210.971 83.2624 211.043 83.2072 211.104 83.1409C211.046 83.0721 210.975 83.015 210.896 82.9728H210.861C210.514 82.8067 210.133 82.7254 209.748 82.7355C209.35 82.7228 208.955 82.8112 208.601 82.9926C208.521 83.0322 208.45 83.0877 208.393 83.1557C208.449 83.2245 208.518 83.2817 208.596 83.3238L208.601 83.304ZM209.748 85.2813C209.046 85.2892 208.354 85.1191 207.735 84.787C207.383 84.5967 207.089 84.3148 206.885 83.9713C206.733 83.7172 206.653 83.4269 206.652 83.131C206.652 82.8614 206.72 82.5963 206.85 82.3598C206.859 82.3358 206.871 82.3126 206.885 82.2906C207.092 81.9493 207.385 81.6681 207.735 81.4749C208.345 81.1563 209.022 80.9875 209.71 80.9823C210.398 80.9771 211.078 81.1359 211.692 81.4453L211.746 81.4749C212.099 81.6667 212.394 81.9481 212.602 82.2906C212.754 82.5436 212.835 82.8333 212.835 83.1285C212.835 83.4237 212.754 83.7134 212.602 83.9664C212.394 84.3104 212.099 84.5935 211.746 84.787C211.135 85.1236 210.447 85.2972 209.748 85.2912V85.2813Z" fill="#3C3C3C"/>
<path fill-rule="evenodd" clip-rule="evenodd" d="M216.949 110.571C217.568 110.21 217.83 109.731 217.731 109.266V86.4383C217.498 84.3571 214.427 82.5875 213.082 83.3685L206.528 87.1501L204.1 88.549C203.071 89.1224 201.77 90.3435 201.741 91.7819V115.336C201.706 115.478 201.706 115.625 201.741 115.767V115.865C201.839 116.162 201.454 116.429 202.191 116.854C202.928 117.279 204.985 117.467 206.053 116.854L216.935 110.581L216.949 110.571Z" fill="#2B7CFF" stroke="#F9FAFE" stroke-width="1.28" stroke-miterlimit="22.93"/>
<path fill-rule="evenodd" clip-rule="evenodd" d="M217.444 111.268C217.398 111.304 217.348 111.334 217.296 111.357L206.494 117.591C205.785 117.943 205 118.113 204.209 118.085C203.369 118.109 202.534 117.94 201.77 117.591C200.781 117.032 200.821 116.543 200.885 116.108C200.877 116.035 200.877 115.963 200.885 115.89C200.875 115.793 200.875 115.696 200.885 115.599C200.877 115.493 200.877 115.387 200.885 115.282V91.8116C200.922 91.0047 201.205 90.2284 201.696 89.5871C202.228 88.875 202.901 88.2808 203.674 87.8421L212.651 82.6665C212.926 82.5088 213.231 82.4111 213.547 82.3799C214.44 82.3299 215.328 82.5559 216.089 83.0274C216.92 83.5027 217.615 84.1836 218.107 85.0047C218.358 85.4161 218.526 85.873 218.601 86.3493C218.607 86.4019 218.607 86.4549 218.601 86.5075V109.246C218.661 109.668 218.57 110.097 218.344 110.458C218.124 110.81 217.822 111.103 217.464 111.313L217.444 111.268ZM216.564 109.785C216.676 109.72 216.773 109.631 216.846 109.523C216.855 109.494 216.855 109.463 216.846 109.434C216.841 109.377 216.841 109.319 216.846 109.261V86.4729C216.804 86.2343 216.72 86.005 216.598 85.7957C216.255 85.245 215.779 84.7895 215.213 84.4708C214.772 84.1843 214.256 84.0363 213.73 84.0457C213.652 84.0517 213.577 84.0718 213.507 84.105C210.51 85.8352 207.522 87.5999 204.51 89.3004C203.949 89.6134 203.459 90.0393 203.071 90.5511C202.783 90.9063 202.61 91.3408 202.576 91.7967V115.332C202.584 115.399 202.584 115.467 202.576 115.534V115.569C202.576 115.599 202.576 115.628 202.576 115.658C202.613 115.801 202.625 115.95 202.611 116.098V116.251C202.611 116.202 202.611 116.152 202.611 116.103C203.113 116.305 203.653 116.398 204.194 116.375C204.683 116.399 205.172 116.306 205.618 116.103L216.42 109.869C216.465 109.837 216.513 109.811 216.564 109.79V109.785Z" fill="#3C3C3C"/>
<path fill-rule="evenodd" clip-rule="evenodd" d="M207.512 83.136H211.964L212.29 87.3822C212.295 87.4249 212.295 87.468 212.29 87.5107C212.269 87.7375 212.187 87.9545 212.054 88.1395C211.921 88.3245 211.742 88.4709 211.533 88.5637C210.97 88.849 210.347 88.9976 209.716 88.9976C209.084 88.9976 208.461 88.849 207.898 88.5637C207.691 88.4702 207.512 88.3236 207.38 88.1386C207.248 87.9536 207.167 87.737 207.146 87.5107C207.144 87.4679 207.144 87.425 207.146 87.3822L207.512 83.136Z" fill="white"/>
<path fill-rule="evenodd" clip-rule="evenodd" d="M207.512 82.271H212.78L213.166 87.2834C213.168 87.3163 213.168 87.3494 213.166 87.3823C213.166 87.4367 213.166 87.4762 213.166 87.5108C213.163 87.897 213.039 88.2726 212.809 88.5835C212.589 88.8817 212.307 89.1295 211.983 89.3102C211.289 89.6707 210.518 89.8589 209.735 89.8589C208.953 89.8589 208.182 89.6707 207.487 89.3102C207.164 89.1295 206.882 88.8817 206.661 88.5835C206.432 88.2726 206.307 87.897 206.305 87.5108C206.301 87.4335 206.301 87.3559 206.305 87.2785L206.696 82.271H207.512ZM211.177 84.0011H208.313L208.046 87.4614V87.5257C208.051 87.5515 208.063 87.5754 208.081 87.5948C208.158 87.694 208.256 87.7751 208.368 87.8321C208.8 88.0402 209.273 88.1482 209.753 88.1482C210.232 88.1482 210.706 88.0402 211.138 87.8321C211.247 87.7719 211.345 87.6913 211.425 87.5948C211.439 87.5742 211.45 87.5506 211.454 87.5257V87.4614L211.187 84.0011H211.177Z" fill="#3C3C3C"/>
<path fill-rule="evenodd" clip-rule="evenodd" d="M210.168 73.2545H209.327C208.819 73.2485 208.316 73.344 207.846 73.5354C207.375 73.7268 206.948 74.0102 206.589 74.369C206.23 74.7278 205.947 75.1547 205.755 75.6246C205.564 76.0945 205.468 76.5979 205.474 77.1052L205.672 81.8063C205.69 82.822 206.101 83.7912 206.82 84.5096C207.539 85.2279 208.509 85.6393 209.525 85.6571H209.945C210.961 85.6381 211.93 85.2263 212.649 84.5082C213.367 83.7901 213.779 82.8216 213.798 81.8063L214.021 77.1052C214.027 76.5977 213.932 76.094 213.741 75.6238C213.55 75.1536 213.266 74.7264 212.907 74.3675C212.548 74.0086 212.121 73.7252 211.65 73.534C211.18 73.3429 210.676 73.2478 210.168 73.2545Z" fill="white"/>
<path fill-rule="evenodd" clip-rule="evenodd" d="M210.168 74.1195H209.179C208.416 74.1552 207.694 74.4722 207.151 75.0093C206.89 75.2623 206.681 75.5648 206.538 75.8992C206.394 76.2336 206.319 76.5931 206.315 76.9569V77.0756L206.513 81.7766C206.544 82.5892 206.879 83.3605 207.453 83.9368C207.721 84.2083 208.041 84.4236 208.393 84.5705C208.746 84.7173 209.124 84.7926 209.506 84.792H209.926C210.307 84.7923 210.683 84.7173 211.035 84.5714C211.386 84.4255 211.705 84.2115 211.974 83.9417C212.547 83.3607 212.884 82.5872 212.918 81.7717L213.136 77.0706V76.9421C213.133 76.581 213.057 76.2241 212.915 75.8923C212.772 75.5605 212.565 75.2603 212.305 75.0093C211.766 74.4763 211.049 74.1597 210.292 74.1195H210.168ZM209.327 72.3943H210.386C211.57 72.4527 212.691 72.9435 213.537 73.7735C213.96 74.1849 214.298 74.6765 214.53 75.2196C214.762 75.7628 214.883 76.3467 214.887 76.9372C214.887 76.9668 214.887 77.036 214.887 77.1398L214.664 81.8409C214.615 83.0882 214.1 84.2717 213.22 85.1578C212.793 85.5903 212.284 85.9333 211.722 86.1667C211.161 86.4002 210.559 86.5193 209.951 86.5172H209.53C208.921 86.5184 208.317 86.3989 207.755 86.1656C207.192 85.9323 206.681 85.5897 206.251 85.1578C205.375 84.2681 204.863 83.0833 204.817 81.8359L204.619 77.1349V76.952C204.622 76.3583 204.744 75.7712 204.977 75.2253C205.211 74.6794 205.552 74.1858 205.979 73.7735C206.826 72.9366 207.955 72.4449 209.144 72.3943H209.327Z" fill="#3C3C3C"/>
<path fill-rule="evenodd" clip-rule="evenodd" d="M212.38 115.737C212.574 115.649 212.795 115.636 212.998 115.702C213.201 115.767 213.373 115.906 213.48 116.091C213.586 116.276 213.62 116.494 213.575 116.702C213.53 116.911 213.409 117.095 213.235 117.22L209.175 119.563C209.077 119.633 208.966 119.681 208.848 119.706C208.73 119.73 208.609 119.73 208.491 119.704C208.374 119.679 208.263 119.629 208.166 119.558C208.069 119.488 207.988 119.397 207.928 119.293C207.868 119.189 207.83 119.074 207.818 118.954C207.805 118.835 207.817 118.714 207.854 118.6C207.891 118.485 207.951 118.38 208.031 118.291C208.112 118.201 208.209 118.129 208.319 118.08L212.38 115.737Z" fill="#3C3C3C"/>
<path fill-rule="evenodd" clip-rule="evenodd" d="M210.168 73.2545H209.327C208.581 73.2554 207.851 73.4694 207.223 73.8715C206.594 74.2735 206.094 74.8467 205.781 75.5234C206.172 78.2916 207.265 78.0395 208.58 79.4286C209.96 80.9115 209.075 83.1112 210.856 83.2398C211.548 83.2892 213.066 83.0074 213.581 82.2511L213.779 82.0831C213.779 81.999 213.779 81.915 213.779 81.826L214.001 77.125C214.01 76.6175 213.918 76.1133 213.729 75.6421C213.54 75.1709 213.259 74.7423 212.902 74.3816C212.544 74.0208 212.118 73.7353 211.649 73.5417C211.179 73.3481 210.676 73.2505 210.168 73.2545Z" fill="white"/>
<path fill-rule="evenodd" clip-rule="evenodd" d="M210.169 74.1196H209.328C208.741 74.1228 208.168 74.2944 207.676 74.6139C207.265 74.879 206.926 75.2404 206.687 75.6668C206.924 77.0361 207.399 77.3821 207.997 77.8122C208.438 78.1156 208.847 78.4617 209.219 78.8453C209.835 79.5616 210.23 80.4406 210.357 81.3763C210.47 81.92 210.569 82.3649 210.925 82.3649C211.368 82.3759 211.808 82.3004 212.221 82.1425H212.285C212.511 82.0717 212.713 81.94 212.869 81.7619C212.893 81.7252 212.919 81.6905 212.948 81.6581L213.161 77.0757V76.9471C213.158 76.586 213.082 76.2291 212.94 75.8973C212.797 75.5655 212.59 75.2653 212.33 75.0143C211.791 74.4813 211.074 74.1646 210.317 74.1245L210.169 74.1196ZM209.328 72.3943H210.386C211.57 72.4528 212.691 72.9436 213.537 73.7735C213.961 74.1849 214.298 74.6765 214.53 75.2197C214.762 75.7629 214.883 76.3467 214.887 76.9372C214.887 76.9669 214.887 77.0361 214.887 77.1399L214.66 81.9942V82.1475C214.636 82.3687 214.528 82.5722 214.358 82.7159L214.234 82.8197C213.884 83.2401 213.428 83.5592 212.914 83.7441L212.839 83.7738C212.192 84.0113 211.505 84.1204 210.817 84.0951C209.165 83.9764 208.947 82.9581 208.68 81.7223C208.604 81.1008 208.362 80.5114 207.978 80.0169C207.677 79.7103 207.345 79.4353 206.988 79.1963C205.999 78.4993 205.262 77.9506 204.936 75.6421C204.91 75.4741 204.934 75.3022 205.005 75.1478C205.38 74.3171 205.991 73.6143 206.761 73.126C207.53 72.6441 208.42 72.3903 209.328 72.3943Z" fill="#3C3C3C"/>
<path fill-rule="evenodd" clip-rule="evenodd" d="M190.736 80.0712L193.372 80.3183L194.327 78.079L193.768 75.7606C193.768 75.0587 193.951 72.0383 193.674 71.9148C193.397 71.7912 193.323 73.9465 192.917 75.2861L190.499 76.1215L190.736 80.0712Z" fill="white"/>
<path fill-rule="evenodd" clip-rule="evenodd" d="M191.542 79.2803L192.813 79.3989L193.411 78L192.971 76.1759L191.388 76.7246L191.542 79.2803ZM193.283 81.1735L190.696 80.9313C190.481 80.9242 190.277 80.8371 190.123 80.6871C189.969 80.5371 189.877 80.335 189.865 80.1206L189.627 76.166C189.618 75.9788 189.669 75.7934 189.773 75.6375C189.877 75.4816 190.029 75.3636 190.206 75.301L192.185 74.6139C192.293 74.1196 192.382 73.5609 192.457 73.0716C192.505 72.587 192.608 72.1096 192.763 71.648C192.793 71.5201 192.853 71.4011 192.937 71.3005C193.022 71.1998 193.129 71.1204 193.249 71.0684C193.37 71.0165 193.501 70.9936 193.632 71.0015C193.764 71.0095 193.891 71.048 194.005 71.1141C194.761 71.4502 194.682 73.7834 194.633 75.1329V75.6619L195.152 77.8171C195.211 78.0106 195.201 78.2187 195.122 78.4053L194.163 80.6446C194.093 80.8156 193.969 80.9595 193.81 81.0547C193.652 81.15 193.467 81.1916 193.283 81.1735Z" fill="#3C3C3C"/>
<path fill-rule="evenodd" clip-rule="evenodd" d="M201.725 94.2632C203.931 94.5994 204.925 89.75 202.893 89.4485L193.584 88.0594L193.703 81.2576C193.703 81.0598 193.792 81.1538 193.614 80.6545C193.436 80.1552 192.358 79.4829 191.665 79.7301C191.377 79.824 191.127 80.0066 190.949 80.2517C190.771 80.4968 190.676 80.7918 190.676 81.0944L189.904 89.4979C189.647 92.276 190.894 92.622 193.302 92.9928L201.725 94.2632Z" fill="#2B7CFF"/>
<path fill-rule="evenodd" clip-rule="evenodd" d="M204.728 88.8502C204.954 88.883 205.158 89.0043 205.295 89.1873C205.432 89.3704 205.49 89.6003 205.457 89.8265C205.424 90.0526 205.303 90.2565 205.12 90.3933C204.937 90.53 204.707 90.5884 204.48 90.5557L192.709 88.8057C192.753 86.2798 192.837 83.7291 192.837 81.208C192.847 81.1607 192.847 81.112 192.837 81.0647C192.776 80.9196 192.672 80.7958 192.541 80.7088C192.408 80.6089 192.251 80.5473 192.086 80.5308C192.048 80.525 192.01 80.525 191.972 80.5308C191.844 80.5665 191.73 80.6407 191.645 80.7433C191.573 80.8574 191.534 80.9891 191.532 81.124L190.721 89.9426C190.666 90.4093 190.759 90.8814 190.988 91.2922C191.062 91.4244 191.166 91.5378 191.291 91.6235C191.416 91.7092 191.56 91.765 191.71 91.7865L201.884 93.4029C202.109 93.4389 202.311 93.5631 202.445 93.748C202.579 93.933 202.634 94.1636 202.598 94.3891C202.562 94.6146 202.438 94.8165 202.253 94.9505C202.068 95.0844 201.837 95.1394 201.612 95.1034L191.443 93.4869C191.046 93.4296 190.668 93.2845 190.335 93.0621C190.002 92.8397 189.723 92.5457 189.519 92.2017C189.105 91.4693 188.932 90.6255 189.024 89.7894L189.83 81.0449C189.84 80.5688 189.997 80.1074 190.281 79.7247C190.564 79.3421 190.96 79.0571 191.413 78.9094C191.666 78.8188 191.936 78.7818 192.204 78.8007C192.693 78.8379 193.162 79.0089 193.56 79.295C193.981 79.5852 194.304 79.9975 194.484 80.4765C194.582 80.7401 194.623 81.0215 194.603 81.3019L194.504 87.3079L204.728 88.8502Z" fill="#3C3C3C"/>


<style>
.lamp {
 animation: lamp 3s infinite;
}

@keyframes lamp {
    0% {
       fill: #fff;
    }
    50% {
      fill: #e4d734;
    }
    100% {
        fill: #fff;
    }
}

</style>

</svg>
