<svg width="205" height="126" viewBox="0 0 205 126" fill="none" xmlns="http://www.w3.org/2000/svg">
<g clip-path="url(#clip0_280_3317)">
<path opacity="0.2" fill-rule="evenodd" clip-rule="evenodd" d="M24.5665 96.9746C16.7371 96.9746 10.3867 99.2473 10.3867 102.056C10.3867 104.864 16.7371 107.137 24.5665 107.137C32.3959 107.137 38.7509 104.864 38.7509 102.056C38.7509 99.2473 32.4005 96.9746 24.5665 96.9746Z" fill="black"/>
<path fill-rule="evenodd" clip-rule="evenodd" d="M3.14905 68.4414L5.27041 69.0512L4.17969 73.0006L3.21376 73.2593L1.76252 76.5436L0.782715 75.6475C1.60539 71.0143 1.41127 71.8597 3.14905 68.4414Z" fill="white"/>
<path fill-rule="evenodd" clip-rule="evenodd" d="M3.38568 67.6697L5.49324 68.2702C5.69829 68.3304 5.87142 68.4687 5.9752 68.6554C6.07898 68.8421 6.10509 69.0622 6.04787 69.268V69.3142L4.97097 73.2128C4.93372 73.3482 4.86162 73.4714 4.76188 73.5703C4.66214 73.6692 4.53822 73.7402 4.40246 73.7764L3.81088 73.938L2.51677 76.8666C2.42968 77.0627 2.26858 77.2164 2.0686 77.2942C1.86862 77.3721 1.64597 77.3678 1.44912 77.2824C1.34908 77.2382 1.25935 77.1737 1.18568 77.0929L0.261305 76.243C0.161775 76.1511 0.0868043 76.0357 0.0432176 75.9075C-0.000369014 75.7792 -0.0112081 75.6421 0.0117076 75.5086L0.113403 74.9358C0.28139 73.7444 0.528422 72.5654 0.852887 71.4067C1.127 70.6493 1.46564 69.9167 1.86507 69.2172C2.03146 68.8892 2.23021 68.515 2.45206 68.0762C2.53899 67.9075 2.68225 67.7745 2.85698 67.7003C3.03171 67.6261 3.22691 67.6152 3.40878 67.6697H3.38568ZM4.28232 69.6052L3.56591 69.402L3.27476 69.9609C2.91441 70.583 2.60527 71.2333 2.35039 71.9055C2.11515 72.7273 1.93449 73.5637 1.80961 74.4092L2.46131 72.9356C2.50783 72.8226 2.5801 72.722 2.67237 72.6418C2.76465 72.5617 2.87436 72.5041 2.99281 72.4737L3.51045 72.3305L4.28232 69.6052Z" fill="#3C3C3C"/>
<path fill-rule="evenodd" clip-rule="evenodd" d="M37.3415 63.7852L35.5945 65.1385L38.081 68.3997L39.0747 68.2842L41.6444 70.7878L42.2222 69.5914C39.731 65.5958 40.2348 66.3118 37.3415 63.7852Z" fill="white"/>
<path fill-rule="evenodd" clip-rule="evenodd" d="M37.3132 64.8292L36.7216 65.2911L38.4409 67.5499L38.9816 67.4853C39.1083 67.4718 39.2363 67.4877 39.3557 67.5318C39.4752 67.5758 39.5828 67.6468 39.6703 67.7393L40.798 68.8433C40.3661 68.1028 39.8859 67.3914 39.3606 66.7138C38.8772 66.1828 38.3517 65.6916 37.7892 65.2449L37.327 64.8338L37.3132 64.8292ZM35.1039 64.5011L36.8464 63.1477C36.994 63.034 37.1766 62.975 37.3629 62.9809C37.5492 62.9868 37.7277 63.0572 37.8678 63.18L38.8384 64.0162C39.47 64.5179 40.0576 65.0726 40.5947 65.6745C41.326 66.6294 41.9945 67.6308 42.5959 68.6724L42.9056 69.1667C42.9772 69.2821 43.0186 69.4137 43.0258 69.5493C43.0331 69.685 43.0061 69.8203 42.9472 69.9427L42.3695 71.1391C42.3331 71.2181 42.2831 71.2901 42.2216 71.3516C42.07 71.5025 41.8647 71.5873 41.6508 71.5873C41.4368 71.5873 41.2316 71.5025 41.08 71.3516L38.7691 69.1158L38.1543 69.1851C38.0156 69.2009 37.8751 69.1808 37.7464 69.1266C37.6176 69.0724 37.5051 68.986 37.4195 68.8757L34.9375 65.6144C34.822 65.4454 34.775 65.2389 34.8059 65.0366C34.8368 64.8343 34.9433 64.6512 35.1039 64.5243V64.5011Z" fill="#3C3C3C"/>
<path fill-rule="evenodd" clip-rule="evenodd" d="M37.5815 63.1383C37.7294 63.2769 37.7247 63.1383 37.942 63.6464C38.1592 64.1546 37.8403 65.3972 37.147 65.702C36.8683 65.8409 36.5526 65.8871 36.2457 65.8339C35.9389 65.7808 35.6572 65.631 35.4416 65.4064L28.1668 59.0457L28.0559 58.9533C27.8775 58.7807 27.7318 58.5772 27.626 58.3528L21.1323 46.509L26.2163 44.1624L31.0277 56.4958L37.5815 63.1383Z" fill="white"/>
<path fill-rule="evenodd" clip-rule="evenodd" d="M37.2312 63.896C37.1604 63.8515 37.0938 63.8004 37.0324 63.7436L30.451 57.0549C30.3742 56.9771 30.3144 56.8844 30.2753 56.7824L25.7783 45.2342L22.2519 46.8602L28.3295 57.9464C28.3295 57.9464 28.3295 57.9834 28.3619 58.0065C28.39 58.0705 28.4257 58.131 28.4682 58.1866C28.5105 58.2465 28.5585 58.3022 28.6115 58.3529H28.6438C31.1119 60.3808 33.5892 62.6627 36.0018 64.7829C36.1053 64.8917 36.2388 64.9672 36.3854 65C36.5438 65.0215 36.7051 64.9941 36.8476 64.9215C36.9965 64.8054 37.1023 64.6427 37.148 64.4596C37.2185 64.2984 37.2456 64.1217 37.2266 63.9468C37.1572 63.7898 37.3144 63.8914 37.2543 63.8545L37.2312 63.896ZM38.1278 62.5611C38.3219 62.6858 38.4329 62.7689 38.6824 63.3371C38.8633 63.8834 38.8519 64.475 38.6501 65.0139C38.5621 65.3216 38.4122 65.6082 38.2096 65.856C38.0069 66.1038 37.7558 66.3077 37.4715 66.4551C37.0482 66.6543 36.5744 66.7203 36.1127 66.6445C35.6497 66.5595 35.223 66.3374 34.8879 66.007L27.6548 59.6786L27.5854 59.6232L27.5115 59.5539C27.3837 59.4326 27.2677 59.2996 27.1648 59.1567C27.0705 59.0219 26.987 58.8797 26.9153 58.7317L20.4447 46.8879C20.3425 46.701 20.3187 46.4813 20.3785 46.2769C20.4383 46.0726 20.5768 45.9002 20.7636 45.7978H20.8145L25.8985 43.4558C25.9943 43.4115 26.098 43.3865 26.2036 43.3822C26.3092 43.378 26.4145 43.3946 26.5137 43.4311C26.6128 43.4675 26.7038 43.5231 26.7814 43.5948C26.8591 43.6664 26.9218 43.7526 26.9661 43.8485C26.9789 43.8754 26.9897 43.9032 26.9985 43.9316L31.7358 56.071L38.1278 62.5611Z" fill="#3C3C3C"/>
<path fill-rule="evenodd" clip-rule="evenodd" d="M18.9241 105.174C18.7584 105.101 18.6197 104.979 18.5275 104.823C18.4353 104.668 18.3942 104.487 18.4101 104.307C18.4259 104.127 18.4978 103.956 18.6157 103.819C18.7336 103.682 18.8916 103.586 19.0673 103.543C19.5245 103.361 20.018 103.288 20.5083 103.331C20.9986 103.373 21.4722 103.53 21.8912 103.788L25.4177 106.245C25.5833 106.318 25.722 106.441 25.8142 106.596C25.9064 106.752 25.9475 106.932 25.9317 107.112C25.9158 107.292 25.8439 107.463 25.726 107.6C25.6081 107.737 25.4502 107.833 25.2744 107.876C24.818 108.058 24.3253 108.131 23.8357 108.088C23.3461 108.046 22.8733 107.889 22.4551 107.631L18.9241 105.174Z" fill="white"/>
<path fill-rule="evenodd" clip-rule="evenodd" d="M18.4661 105.821C18.211 105.649 17.9952 105.426 17.8329 105.165C17.6636 104.888 17.5859 104.564 17.6111 104.241C17.6419 103.912 17.7762 103.602 17.9947 103.354C18.1973 103.122 18.4481 102.938 18.7295 102.813C19.0114 102.684 19.3102 102.596 19.617 102.55C19.9349 102.5 20.2577 102.489 20.5783 102.518C20.8927 102.548 21.2027 102.613 21.5026 102.712C21.7986 102.807 22.0789 102.946 22.3346 103.123L25.861 105.58C26.1164 105.753 26.3322 105.979 26.4942 106.241C26.6664 106.52 26.7441 106.848 26.7158 107.175C26.6875 107.501 26.5547 107.811 26.3371 108.056C26.1317 108.287 25.8797 108.471 25.5976 108.597C25.3154 108.726 25.0168 108.816 24.7102 108.865C24.3919 108.911 24.0693 108.92 23.7489 108.892C23.4342 108.864 23.1239 108.799 22.8245 108.698L22.7505 108.671C22.4817 108.578 22.2268 108.449 21.9926 108.287L18.4661 105.83V105.821ZM19.238 104.366C19.2808 104.417 19.3306 104.462 19.3859 104.5L22.9123 106.962C23.0257 107.034 23.1465 107.095 23.2728 107.142H23.3329C23.5169 107.204 23.7078 107.242 23.9014 107.257C24.0963 107.28 24.2934 107.28 24.4883 107.257C24.6472 107.236 24.8025 107.194 24.9505 107.132C25.0109 107.103 25.0682 107.067 25.1215 107.026C25.078 106.974 25.0265 106.929 24.969 106.892L21.4426 104.43C21.3136 104.347 21.1736 104.281 21.0266 104.236C20.8401 104.179 20.6479 104.142 20.4535 104.125C20.2585 104.102 20.0615 104.102 19.8665 104.125C19.7075 104.146 19.552 104.188 19.4043 104.25C19.3428 104.278 19.2852 104.313 19.2333 104.356L19.238 104.366Z" fill="#3C3C3C"/>
<path fill-rule="evenodd" clip-rule="evenodd" d="M18.4242 77.246L18.6969 75.9157L18.1376 76.2344C18.2347 76.567 18.3271 76.9042 18.4242 77.246ZM25.9809 69.9845C25.9796 70.2467 25.9439 70.5076 25.8746 70.7605C25.8502 70.8559 25.8209 70.95 25.7867 71.0423L21.4838 84.9001C21.4117 85.1771 21.2896 85.4386 21.1233 85.6716L21.0632 85.7547L20.8044 86.0965C21.0216 87.0712 21.1926 87.9443 21.2666 88.7111V88.8635L22.4544 103.29C22.4685 103.488 22.4205 103.686 22.317 103.855C22.2134 104.025 22.0595 104.158 21.8767 104.236C21.442 104.468 20.9549 104.584 20.4624 104.574C19.9684 104.584 19.48 104.468 19.0435 104.236C18.8828 104.164 18.7443 104.05 18.642 103.906C18.5397 103.763 18.4773 103.594 18.4611 103.419L16.5754 89.4039V89.307L11.6994 75.9711C11.6541 75.869 11.6155 75.7641 11.5838 75.657C11.5011 75.3905 11.456 75.1137 11.4498 74.8347C11.4451 74.7547 11.4451 74.6746 11.4498 74.5946L11.4914 72.1925L26.0687 63.7808L25.9809 69.9845Z" fill="white"/>
<path fill-rule="evenodd" clip-rule="evenodd" d="M19.487 76.0722L19.2235 77.3656C19.1947 77.5472 19.1048 77.7135 18.9686 77.8372C18.8324 77.9608 18.6581 78.0343 18.4744 78.0457C18.2908 78.057 18.1088 78.0053 17.9585 77.8993C17.8081 77.7933 17.6984 77.6393 17.6475 77.4625L17.3609 76.4509C17.3111 76.2772 17.3208 76.0919 17.3887 75.9245C17.4566 75.757 17.5786 75.6171 17.7353 75.5271L18.2946 75.2084C18.4643 75.1079 18.6655 75.075 18.8584 75.116C19.0626 75.1585 19.2423 75.2785 19.3596 75.4509C19.4768 75.6232 19.5225 75.8344 19.487 76.0398V76.0722ZM25.1765 69.9748L25.2643 65.1522L12.3231 72.6262L12.2862 74.5986C12.2862 74.6448 12.2862 74.691 12.2862 74.7372C12.2908 74.7724 12.2908 74.8082 12.2862 74.8434C12.2862 74.9219 12.2862 75.0097 12.3139 75.0975C12.3316 75.1988 12.3547 75.299 12.3832 75.3978L12.4387 75.5455L12.471 75.6287L17.3656 89.0245C17.3843 89.0771 17.3982 89.1312 17.4072 89.1862C18.0819 93.8794 18.6736 98.6002 19.3021 103.298C19.3021 103.326 19.3021 103.353 19.3021 103.381C19.3513 103.442 19.4127 103.493 19.4824 103.529C19.6183 103.602 19.7627 103.658 19.9122 103.695C20.2963 103.775 20.6928 103.775 21.0769 103.695C21.2264 103.658 21.3708 103.602 21.5067 103.529C21.5747 103.492 21.6357 103.444 21.687 103.386V103.326L20.4992 88.8952C20.4992 88.8582 20.4992 88.8213 20.4992 88.7843C20.4529 88.4379 20.3883 88.0406 20.3097 87.6064C20.2311 87.1722 20.1341 86.7149 20.0278 86.2206C20.0008 86.1019 20.0014 85.9786 20.0294 85.8601C20.0575 85.7416 20.1122 85.6311 20.1895 85.537L20.4299 85.2137L20.4899 85.1351C20.54 85.0638 20.5833 84.9881 20.6193 84.9088C20.6572 84.8232 20.6897 84.7352 20.7164 84.6455L25.024 70.7878L25.0517 70.7138V70.6399L25.084 70.5337C25.1079 70.4409 25.1264 70.3468 25.1395 70.2519C25.1458 70.1565 25.1458 70.0609 25.1395 69.9655L25.1765 69.9748ZM26.9004 63.7572C26.9023 63.6517 26.8833 63.5468 26.8445 63.4485C26.8058 63.3503 26.7481 63.2607 26.6747 63.1848C26.6013 63.1089 26.5137 63.0481 26.4168 63.0061C26.3199 62.964 26.2157 62.9414 26.1101 62.9396C25.9629 62.9363 25.8175 62.9731 25.6895 63.0459L11.1168 71.4529C10.9902 71.5258 10.8858 71.6319 10.815 71.7597C10.7442 71.8875 10.7095 72.0321 10.7147 72.1781L10.6731 74.4877V74.7787C10.6708 74.8002 10.6708 74.8219 10.6731 74.8434C10.6769 75.0075 10.6923 75.1712 10.7194 75.3331C10.7495 75.5047 10.7896 75.6743 10.8395 75.8412C10.8673 75.9336 10.8904 76.0028 10.9042 76.0444V76.086C10.9227 76.1384 10.9412 76.1845 10.9597 76.2246L15.8126 89.468L17.6891 103.418C17.7011 103.733 17.8074 104.037 17.9941 104.291C18.178 104.54 18.4128 104.746 18.6828 104.896C18.955 105.048 19.2477 105.16 19.5517 105.229C20.1771 105.383 20.8305 105.383 21.4559 105.229C21.7599 105.16 22.0525 105.048 22.3248 104.896C22.6323 104.723 22.8926 104.477 23.0828 104.18C23.2725 103.881 23.3495 103.524 23.3 103.173L22.1122 88.7612V88.5719C22.0567 88.17 21.992 87.745 21.9088 87.3016C21.8441 86.969 21.7748 86.6179 21.6916 86.2484L21.724 86.2022L21.821 86.0775C21.924 85.9309 22.0152 85.7765 22.0937 85.6155C22.1746 85.4448 22.2396 85.267 22.2878 85.0843L26.5769 71.282C26.5769 71.2404 26.6092 71.1942 26.6231 71.1434L26.6786 70.9632C26.7202 70.8113 26.7526 70.6571 26.7756 70.5013C26.7982 70.3406 26.809 70.1786 26.808 70.0163L26.9004 63.7572Z" fill="#3C3C3C"/>
<path fill-rule="evenodd" clip-rule="evenodd" d="M9.62037 96.1664C9.4888 96.0438 9.39854 95.8834 9.36206 95.7073C9.32557 95.5313 9.34465 95.3482 9.41667 95.1835C9.48869 95.0187 9.61011 94.8804 9.76415 94.7875C9.91819 94.6947 10.0973 94.6519 10.2767 94.6651C10.7683 94.6311 11.2608 94.72 11.7095 94.9238C12.1638 95.1142 12.5628 95.416 12.8695 95.8014L15.4208 99.2658C15.5533 99.3877 15.6445 99.5479 15.6815 99.724C15.7185 99.9002 15.6996 100.084 15.6273 100.248C15.555 100.413 15.433 100.551 15.2783 100.644C15.1236 100.736 14.944 100.777 14.7645 100.762C14.2728 100.789 13.7816 100.701 13.3305 100.503C12.8793 100.306 12.4808 100.005 12.167 99.6261L9.62037 96.1664Z" fill="white"/>
<path fill-rule="evenodd" clip-rule="evenodd" d="M8.96838 96.6421C8.78342 96.3962 8.65127 96.1146 8.58017 95.8153C8.50784 95.4946 8.54017 95.1593 8.67241 94.8584C8.80466 94.5574 9.02985 94.3068 9.31502 94.1431C9.58304 93.9894 9.88091 93.8949 10.1885 93.8659C10.497 93.8341 10.8085 93.8481 11.1129 93.9075C11.4305 93.965 11.7405 94.0579 12.0373 94.1846C12.3306 94.3078 12.6096 94.4627 12.8692 94.6466C13.118 94.8329 13.339 95.0538 13.5255 95.3025L16.0721 98.767C16.2588 99.0119 16.3912 99.2938 16.4603 99.5939C16.5323 99.9139 16.5016 100.248 16.3725 100.55C16.2368 100.85 16.0106 101.101 15.7255 101.266C15.4582 101.418 15.1623 101.512 14.8566 101.543C14.548 101.572 14.2369 101.558 13.9322 101.502C13.2987 101.383 12.7009 101.121 12.1852 100.735C11.9338 100.55 11.7112 100.329 11.5243 100.079L8.97763 96.619L8.96838 96.6421ZM10.1701 95.515C10.1958 95.5764 10.23 95.634 10.2717 95.6859L12.8184 99.1504C12.9123 99.2727 13.0228 99.3816 13.1465 99.4737C13.3024 99.5903 13.4715 99.688 13.6503 99.7648C13.8287 99.8462 14.0166 99.9051 14.2095 99.9403C14.3629 99.9606 14.5183 99.9606 14.6717 99.9403C14.7382 99.9336 14.8035 99.918 14.8658 99.8941C14.8441 99.8303 14.8113 99.7708 14.7688 99.7185L12.2222 96.2587C12.1276 96.1352 12.0155 96.0263 11.8894 95.9354C11.7336 95.8174 11.5646 95.7181 11.3856 95.6397C11.2084 95.5604 11.0221 95.503 10.831 95.4688C10.6779 95.4443 10.5219 95.4443 10.3688 95.4688C10.302 95.4732 10.2363 95.4888 10.1747 95.515H10.1701Z" fill="#3C3C3C"/>
<path fill-rule="evenodd" clip-rule="evenodd" d="M11.2149 96.0552C10.7573 95.8682 10.356 95.5658 10.0502 95.1776C9.93061 95.0472 9.84822 94.8871 9.81164 94.714C9.77506 94.5409 9.78561 94.3613 9.84219 94.1937C9.87392 94.1246 9.91601 94.0607 9.96699 94.0043L15.3422 85.842L16.5993 89.2834V89.3804L16.8859 91.2836L13.4981 95.8012C13.4126 95.9557 13.2875 96.0847 13.1356 96.1748C12.9836 96.2649 12.8105 96.3129 12.6338 96.3139C12.1465 96.3504 11.6579 96.2614 11.2149 96.0552Z" fill="white"/>
<path fill-rule="evenodd" clip-rule="evenodd" d="M10.8906 96.7942C10.5959 96.6739 10.3166 96.5188 10.0587 96.3323C9.80879 96.1472 9.58761 95.9261 9.40238 95.6764C9.21564 95.4315 9.08331 95.1496 9.01416 94.8496C8.93993 94.5297 8.97073 94.1944 9.10197 93.8933C9.13766 93.8186 9.17779 93.7462 9.22215 93.6763C9.25579 93.6246 9.29284 93.5752 9.33307 93.5285L14.6667 85.4217C14.7489 85.2971 14.8642 85.1979 14.9996 85.1351C15.1351 85.0723 15.2853 85.0484 15.4336 85.0662C15.5818 85.0839 15.7222 85.1426 15.839 85.2356C15.9558 85.3285 16.0444 85.4521 16.0948 85.5926L17.352 89.0339C17.3707 89.0865 17.3846 89.1406 17.3936 89.1956V89.288L17.6801 91.1911C17.696 91.3061 17.6874 91.4232 17.6547 91.5347C17.622 91.6462 17.5661 91.7495 17.4906 91.8378L14.186 96.24C14.0487 96.5004 13.8404 96.7166 13.5852 96.8635C13.3188 97.0173 13.0225 97.1118 12.7163 97.1407C12.4077 97.1703 12.0965 97.1563 11.7919 97.0991C11.4735 97.0429 11.1631 96.9483 10.8675 96.8174L10.8906 96.7942ZM11.0293 95.0251C11.3454 95.2552 11.7083 95.4129 12.0923 95.487C12.2457 95.507 12.4011 95.507 12.5545 95.487C12.6336 95.4812 12.7107 95.4592 12.7809 95.4223C12.8042 95.3751 12.8321 95.3302 12.8642 95.2884L16.044 91.0433L15.8083 89.4681L15.1288 87.6204L10.6549 94.3969C10.6318 94.436 10.6056 94.473 10.5763 94.5077C10.6031 94.5768 10.6388 94.642 10.6826 94.7017C10.7766 94.8241 10.8871 94.9329 11.0108 95.0251H11.0293ZM12.7717 95.487C12.7717 95.487 12.7671 95.4962 12.7717 95.4731V95.487Z" fill="#3C3C3C"/>
<path fill-rule="evenodd" clip-rule="evenodd" d="M26.6146 66.2472V45.0493C26.3974 43.0999 23.5318 41.4509 22.2747 42.1761L13.4424 47.2573C12.4857 47.7931 11.2701 48.9341 11.2378 50.2783V73.0145C11.2794 74.8345 14.4731 74.8991 15.5777 74.257L18.9054 72.3401L25.2974 68.6446C26.1385 68.1781 26.6146 67.7577 26.6146 66.2472Z" fill="#F9FAFE"/>
<path fill-rule="evenodd" clip-rule="evenodd" d="M25.8048 66.2468V45.086C25.7701 44.862 25.6915 44.647 25.5737 44.4532C25.2553 43.9368 24.8098 43.5105 24.2796 43.2152C23.8672 42.9474 23.3848 42.8076 22.893 42.8133C22.8206 42.8202 22.75 42.8406 22.6851 42.8734H22.6388L13.8574 47.9546C13.332 48.2475 12.8739 48.6472 12.5125 49.1279C12.2447 49.4588 12.0836 49.8631 12.0503 50.2873V71.9978V73.0186C12.0563 73.0918 12.0783 73.1628 12.115 73.2265C12.263 73.4265 12.475 73.57 12.7158 73.633C13.1054 73.7569 13.5134 73.8131 13.9221 73.7993C14.3552 73.8077 14.7847 73.7194 15.1792 73.5406L24.885 67.9282C25.1555 67.7988 25.3915 67.6073 25.5737 67.3693C25.7516 67.0102 25.8267 66.609 25.7909 66.2099L25.8048 66.2468ZM27.4224 45.0491V66.2468C27.4691 66.9504 27.3084 67.6521 26.9603 68.2654C26.6441 68.7321 26.2127 69.1092 25.7077 69.3602L16.0019 74.968C15.3716 75.2798 14.6763 75.4381 13.9729 75.4299C13.3762 75.4501 12.7805 75.3673 12.212 75.185C11.5994 75.0017 11.0751 74.6009 10.7377 74.058C10.5768 73.7748 10.482 73.459 10.4604 73.1341C10.4579 73.0988 10.4579 73.0633 10.4604 73.0279V72.0394V50.2781C10.4947 49.5241 10.7592 48.7987 11.2183 48.1994C11.7151 47.534 12.3446 46.9788 13.067 46.5688L21.8485 41.4876L21.8901 41.4599C22.1503 41.3165 22.4361 41.2255 22.7313 41.192C23.5667 41.1499 24.3952 41.3626 25.1069 41.8018C25.8837 42.2457 26.5331 42.882 26.9926 43.6495C27.229 44.0316 27.3862 44.4573 27.4548 44.9013C27.4484 44.9514 27.4376 45.0008 27.4224 45.0491Z" fill="#3C3C3C"/>
<path fill-rule="evenodd" clip-rule="evenodd" d="M20.5828 73.8965C20.674 73.8312 20.778 73.7856 20.888 73.7628C20.9979 73.7401 21.1114 73.7405 21.2212 73.7642C21.3309 73.788 21.4345 73.8344 21.5252 73.9006C21.6159 73.9667 21.6917 74.0511 21.7478 74.1484C21.8039 74.2456 21.839 74.3534 21.8509 74.465C21.8627 74.5766 21.8511 74.6895 21.8166 74.7963C21.7822 74.9031 21.7258 75.0015 21.651 75.0852C21.5762 75.1689 21.4847 75.2361 21.3824 75.2823L19.0714 76.6081L19.5336 78.1509C20.5782 81.814 21.766 85.9621 22.0987 88.5766C22.1257 88.7886 22.0673 89.0026 21.9364 89.1715C21.8056 89.3404 21.6129 89.4505 21.4008 89.4774C21.1888 89.5044 20.9747 89.446 20.8057 89.3152C20.6366 89.1844 20.5265 88.9918 20.4996 88.7799C20.1853 86.3178 19.016 82.2159 17.9807 78.6174C17.7958 77.9707 17.6156 77.3379 17.3706 76.4648C17.3199 76.2912 17.3292 76.1055 17.3972 75.9379C17.4651 75.7702 17.5877 75.6304 17.745 75.541L20.5828 73.8965Z" fill="#3C3C3C"/>
<path fill-rule="evenodd" clip-rule="evenodd" d="M17.3435 42.8967C17.7998 43.1302 18.3052 43.252 18.8178 43.252C19.3305 43.252 19.8358 43.1302 20.2922 42.8967C21.1102 42.4348 21.1102 41.6634 20.2922 41.1968C19.8358 40.9633 19.3305 40.8416 18.8178 40.8416C18.3052 40.8416 17.7998 40.9633 17.3435 41.1968C16.53 41.668 16.53 42.4256 17.3435 42.8967Z" fill="white"/>
<path fill-rule="evenodd" clip-rule="evenodd" d="M17.7448 42.1995C18.0793 42.3607 18.4458 42.4444 18.8171 42.4444C19.1884 42.4444 19.5549 42.3607 19.8894 42.1995C19.9125 42.2052 19.9367 42.2056 19.96 42.2006C19.9833 42.1956 20.0052 42.1854 20.024 42.1707C20.0428 42.156 20.058 42.1373 20.0685 42.1158C20.0789 42.0944 20.0843 42.0708 20.0843 42.047C20.0843 42.0232 20.0789 41.9996 20.0685 41.9782C20.058 41.9568 20.0428 41.938 20.024 41.9233C20.0052 41.9086 19.9833 41.8984 19.96 41.8934C19.9367 41.8884 19.9125 41.8888 19.8894 41.8946H19.857C19.5257 41.7424 19.1655 41.6636 18.8009 41.6636C18.4363 41.6636 18.0761 41.7424 17.7448 41.8946C17.672 41.9342 17.6064 41.9857 17.5507 42.047C17.6052 42.1096 17.6711 42.1614 17.7448 42.1995ZM18.8171 44.0472C18.1622 44.0572 17.5159 43.8981 16.9406 43.5852C16.6126 43.4047 16.3371 43.142 16.141 42.8231C16.001 42.5866 15.926 42.3172 15.9238 42.0424C15.9243 41.7896 15.9861 41.5408 16.1041 41.3172C16.113 41.2962 16.1239 41.2761 16.1364 41.2571C16.3293 40.9373 16.6036 40.6742 16.9314 40.4949C17.507 40.1831 18.1531 40.024 18.8079 40.033C19.4501 40.0217 20.0852 40.1693 20.6566 40.4626L20.7121 40.4949C21.0398 40.6742 21.3141 40.9373 21.507 41.2571C21.6491 41.4944 21.7242 41.7658 21.7242 42.0424C21.7242 42.3189 21.6491 42.5904 21.507 42.8277C21.3129 43.1466 21.0389 43.4093 20.7121 43.5899C20.1313 43.9063 19.4784 44.0669 18.8171 44.0564V44.0472Z" fill="#3C3C3C"/>
<path fill-rule="evenodd" clip-rule="evenodd" d="M16.7326 42.0469H20.8922L21.1972 46.0103C21.1995 46.0519 21.1995 46.0934 21.1972 46.135C21.1777 46.3459 21.1024 46.5478 20.9789 46.72C20.8554 46.8921 20.6883 47.0282 20.4947 47.1143C19.9682 47.381 19.3863 47.5199 18.7962 47.5199C18.206 47.5199 17.6241 47.381 17.0977 47.1143C16.9029 47.0293 16.7346 46.8935 16.6102 46.7213C16.4858 46.549 16.41 46.3465 16.3905 46.135C16.3881 46.095 16.3881 46.0549 16.3905 46.0149L16.7326 42.0469Z" fill="white"/>
<path fill-rule="evenodd" clip-rule="evenodd" d="M16.7324 41.2382H21.6499L22.0104 45.9175V46.0146C22.0104 46.0607 22.0104 46.1023 22.0104 46.1346C22.0085 46.4941 21.8919 46.8436 21.6777 47.1324C21.4714 47.4096 21.2082 47.6395 20.9058 47.8068C20.2579 48.1467 19.537 48.3243 18.8052 48.3243C18.0734 48.3243 17.3526 48.1467 16.7046 47.8068C16.4022 47.6395 16.1391 47.4096 15.9328 47.1324C15.7185 46.8436 15.602 46.4941 15.6 46.1346C15.5956 46.0623 15.5956 45.9898 15.6 45.9175L15.9605 41.2382H16.7324ZM20.1571 42.8549H17.4765L17.2315 46.0884V46.1531C17.2386 46.1749 17.2496 46.1952 17.2639 46.2132C17.3384 46.3034 17.4293 46.3786 17.5319 46.4349C17.9322 46.6383 18.3771 46.7384 18.826 46.7259C19.2755 46.7392 19.721 46.6374 20.1201 46.4302C20.2247 46.3769 20.3162 46.3012 20.3882 46.2085C20.4024 46.1906 20.4134 46.1702 20.4205 46.1485V46.0838L20.171 42.8503L20.1571 42.8549Z" fill="#3C3C3C"/>
<path fill-rule="evenodd" clip-rule="evenodd" d="M19.2108 32.813H18.4251C17.9507 32.8075 17.4801 32.8967 17.0407 33.0756C16.6014 33.2545 16.2022 33.5193 15.8668 33.8546C15.5313 34.1898 15.2664 34.5887 15.0874 35.0278C14.9084 35.4669 14.8191 35.9374 14.8247 36.4115L15.0096 40.8044C15.0273 41.7532 15.4124 42.6582 16.0838 43.3293C16.7552 44.0003 17.6607 44.3851 18.61 44.4028H19.0028C19.9508 44.3795 20.8535 43.993 21.5245 43.3233C22.1954 42.6536 22.5832 41.7518 22.6078 40.8044L22.8112 36.4115C22.8174 35.9372 22.7285 35.4665 22.5498 35.0271C22.3711 34.5877 22.1061 34.1886 21.7705 33.8532C21.435 33.5178 21.0356 33.253 20.596 33.0743C20.1563 32.8957 19.6853 32.8068 19.2108 32.813Z" fill="white"/>
<path fill-rule="evenodd" clip-rule="evenodd" d="M19.2096 33.6213H18.2853C17.5742 33.6523 16.9002 33.9471 16.3949 34.4482C16.1499 34.6852 15.9547 34.9686 15.8206 35.2819C15.6865 35.5952 15.6162 35.932 15.6138 36.2728V36.379L15.7941 40.7719C15.8244 41.5321 16.1376 42.2537 16.6723 42.7952C16.923 43.0489 17.2217 43.2502 17.551 43.3874C17.8803 43.5246 18.2335 43.5949 18.5903 43.5943H18.9832C19.3393 43.5953 19.692 43.5252 20.0206 43.3879C20.3492 43.2507 20.6471 43.0491 20.8966 42.7952C21.4337 42.253 21.7485 41.5297 21.7794 40.7673L21.9874 36.3744V36.259C21.985 35.9203 21.9146 35.5855 21.7805 35.2744C21.6463 34.9634 21.4511 34.6824 21.2063 34.4482C20.7019 33.9514 20.0324 33.6572 19.3252 33.6213H19.2096ZM18.4239 32.0046H19.2096H19.413C20.5197 32.057 21.5681 32.516 22.3571 33.2934C22.754 33.6774 23.0704 34.1366 23.2879 34.6442C23.5053 35.1518 23.6194 35.6976 23.6235 36.2497C23.6235 36.2774 23.6235 36.3421 23.6235 36.4391L23.4201 40.8274C23.3709 41.9935 22.8899 43.0999 22.0706 43.9316C21.6697 44.3347 21.193 44.6544 20.6678 44.8724C20.1427 45.0905 19.5796 45.2024 19.0109 45.2019H18.618C18.049 45.2021 17.4856 45.0895 16.9605 44.8707C16.4353 44.6519 15.9587 44.3311 15.5584 43.9269C14.7346 43.1006 14.2541 41.9932 14.2134 40.8274L14.0286 36.4344V36.2635C14.0308 35.7091 14.144 35.1606 14.3615 34.6506C14.579 34.1405 14.8963 33.679 15.2949 33.2934C16.0889 32.5116 17.1441 32.0509 18.2575 31.9999L18.4239 32.0046Z" fill="#3C3C3C"/>
<path fill-rule="evenodd" clip-rule="evenodd" d="M19.2108 32.813H18.4251C17.9507 32.8074 17.4801 32.8967 17.0407 33.0755C16.6014 33.2544 16.2022 33.5193 15.8668 33.8545C15.5313 34.1898 15.2664 34.5887 15.0874 35.0278C14.9084 35.4669 14.8191 35.9373 14.8247 36.4114L15.0096 40.8044C15.6062 40.4412 16.1005 39.9322 16.4457 39.3252C16.791 38.7183 16.9759 38.0334 16.9831 37.3353C19.9919 37.691 20.9856 37.5246 22.6957 35.3952C22.4706 34.647 22.0098 33.9915 21.3819 33.5262C20.754 33.0609 19.9925 32.8108 19.2108 32.813Z" fill="white"/>
<path fill-rule="evenodd" clip-rule="evenodd" d="M19.2108 33.6213H18.2864C17.5753 33.6523 16.9013 33.9471 16.3961 34.4482C16.1511 34.6852 15.9559 34.9686 15.8217 35.2819C15.6876 35.5952 15.6173 35.932 15.615 36.2728V36.379L15.7213 38.9381C16.0072 38.4439 16.1571 37.8829 16.1558 37.3121C16.1588 37.2065 16.1825 37.1026 16.2257 37.0063C16.2689 36.9099 16.3307 36.8229 16.4075 36.7504C16.4844 36.6779 16.5747 36.6213 16.6735 36.5837C16.7722 36.5461 16.8774 36.5284 16.9831 36.5315H17.0524C18.439 36.6931 19.3633 36.7393 20.0705 36.5315C20.7469 36.2693 21.335 35.8208 21.7667 35.2381C21.5701 34.8223 21.2731 34.4619 20.9024 34.1895C20.4064 33.8255 19.8076 33.6282 19.1923 33.6259L19.2108 33.6213ZM18.4251 32.0046H19.2108C20.173 32.0085 21.1089 32.3192 21.8822 32.8915C22.6444 33.4521 23.2013 34.2473 23.4675 35.1549C23.507 35.2818 23.5146 35.4165 23.4896 35.547C23.4646 35.6775 23.4078 35.7999 23.3242 35.9033C22.3629 37.095 21.5818 37.7509 20.5511 38.065C19.6164 38.3108 18.6416 38.3643 17.6856 38.2221C17.5851 38.7793 17.383 39.3132 17.0894 39.7973C16.6689 40.4588 16.1148 41.0252 15.4625 41.4602C15.3355 41.5513 15.1843 41.6028 15.028 41.608C14.9224 41.6124 14.8169 41.5958 14.7177 41.5594C14.6185 41.5229 14.5274 41.4673 14.4497 41.3957C14.372 41.324 14.3092 41.2378 14.2649 41.1418C14.2206 41.0459 14.1956 40.9422 14.1915 40.8366L14.0066 36.4437V36.2728C14.0088 35.7183 14.122 35.1699 14.3395 34.6598C14.557 34.1497 14.8744 33.6883 15.273 33.3026C16.067 32.5208 17.1222 32.0601 18.2356 32.0092L18.4251 32.0046Z" fill="#3C3C3C"/>
<path fill-rule="evenodd" clip-rule="evenodd" d="M13.8908 54.1168V50.3152L11.4921 49.322C9.70346 52.5555 7.74382 55.6643 5.61316 58.8516C5.46121 59.0478 5.35392 59.2749 5.29885 59.5168L2.98794 67.9747C2.93241 68.1521 2.91238 68.3388 2.92901 68.5239C2.94564 68.7091 2.9986 68.8892 3.08487 69.0539C3.17113 69.2186 3.28902 69.3647 3.43179 69.4839C3.57455 69.6031 3.7394 69.693 3.91693 69.7485C4.09446 69.804 4.28121 69.824 4.46648 69.8074C4.65175 69.7908 4.83193 69.7379 4.99673 69.6516C5.16153 69.5654 5.30773 69.4476 5.42698 69.3049C5.54623 69.1622 5.63619 68.9975 5.69172 68.82L8.54338 60.8009L13.8908 54.1168Z" fill="#F9FAFE"/>
<path fill-rule="evenodd" clip-rule="evenodd" d="M10.7567 48.9341C10.7982 48.8264 10.8624 48.7289 10.945 48.6482C11.0275 48.5676 11.1265 48.5056 11.2351 48.4666C11.3438 48.4275 11.4596 48.4123 11.5746 48.422C11.6897 48.4317 11.8013 48.466 11.9019 48.5227C12.0025 48.5793 12.0897 48.6569 12.1576 48.7503C12.2255 48.8436 12.2725 48.9504 12.2954 49.0635C12.3183 49.1766 12.3166 49.2933 12.2903 49.4057C12.2641 49.5181 12.2139 49.6234 12.1433 49.7147C11.2466 51.3315 10.2945 52.9482 9.31469 54.5234C8.33486 56.0986 7.29957 57.706 6.23193 59.2997L6.2042 59.3413C6.16182 59.3937 6.12612 59.4511 6.09791 59.5122C6.06808 59.5706 6.04631 59.6328 6.03319 59.697C5.19664 62.4686 4.47101 65.4064 3.72227 68.2195C3.71924 68.2595 3.71924 68.2997 3.72227 68.3396C3.71765 68.3795 3.71765 68.4198 3.72227 68.4597C3.73682 68.6216 3.81492 68.7711 3.93949 68.8755C4.00346 68.9281 4.07729 68.9674 4.15664 68.9912C4.236 69.015 4.31928 69.0228 4.40167 69.014C4.52003 69.0009 4.63224 68.9545 4.7252 68.8801C4.81783 68.8021 4.88669 68.6997 4.92394 68.5845V68.5521L7.82184 60.4037L13.2756 53.6134C13.4092 53.4468 13.6036 53.34 13.816 53.3166C14.0283 53.2932 14.2413 53.3551 14.408 53.4887C14.5747 53.6222 14.6815 53.8165 14.7049 54.0287C14.7283 54.2409 14.6664 54.4538 14.5328 54.6204L9.2546 61.1983L6.44454 69.088C6.28905 69.5743 5.97039 69.992 5.5424 70.2707C5.11442 70.5494 4.60332 70.672 4.0954 70.6177C3.58748 70.5634 3.11388 70.3356 2.75455 69.9727C2.39522 69.6099 2.17218 69.1342 2.12311 68.626C2.10805 68.4724 2.10805 68.3177 2.12311 68.1641C2.13565 68.007 2.16668 67.852 2.21555 67.7022L4.52647 59.3089C4.5684 59.1343 4.62722 58.9641 4.7021 58.8008C4.77852 58.6378 4.87143 58.483 4.9794 58.3389C6.03318 56.7591 7.04385 55.1947 8.01136 53.6457C8.94035 52.1121 9.86931 50.537 10.7567 48.9341Z" fill="#3C3C3C"/>
<path fill-rule="evenodd" clip-rule="evenodd" d="M95.1835 85.4861C95.1835 85.6611 95.114 85.8289 94.9902 85.9526C94.8664 86.0763 94.6985 86.1458 94.5234 86.1458C94.3484 86.1458 94.1805 86.0763 94.0567 85.9526C93.9329 85.8289 93.8633 85.6611 93.8633 85.4861C93.8633 80.2538 93.1046 73.903 91.9893 67.3285C90.6311 59.4118 88.7002 51.2031 86.773 44.2532C86.7356 44.0869 86.7637 43.9126 86.8514 43.7664C86.9391 43.6202 87.0797 43.5133 87.2441 43.468C87.4085 43.4227 87.5841 43.4423 87.7344 43.5228C87.8848 43.6034 87.9983 43.7387 88.0515 43.9006C89.99 50.8998 91.9324 59.1577 93.2943 67.1085C94.4324 73.7323 95.1721 80.159 95.1911 85.4861H95.1835ZM102.232 89.5506C102.232 89.7266 102.162 89.8953 102.038 90.0198C101.913 90.1442 101.744 90.2141 101.568 90.2141C101.392 90.2141 101.223 90.1442 101.099 90.0198C100.974 89.8953 100.904 89.7266 100.904 89.5506C100.946 83.6207 101.553 77.7082 102.718 71.8934C103.812 66.1479 105.464 60.5225 107.649 55.097C107.723 54.9453 107.852 54.8274 108.01 54.7674C108.168 54.7074 108.343 54.7098 108.499 54.7741C108.655 54.8383 108.781 54.9597 108.851 55.1133C108.92 55.267 108.929 55.4415 108.875 55.6013C106.715 60.9446 105.083 66.4865 104.004 72.1475C102.867 77.8797 102.279 83.707 102.247 89.5506H102.232Z" fill="#3C3C3C"/>
<path fill-rule="evenodd" clip-rule="evenodd" d="M104.759 53.2392C104.899 54.0054 105.191 54.736 105.616 55.389C105.949 55.9646 106.42 56.449 106.985 56.7994C107.117 56.8821 107.27 56.9243 107.426 56.9207C107.45 56.9166 107.473 56.9076 107.494 56.8942C107.526 56.8647 107.552 56.8284 107.57 56.788C107.709 56.4248 107.732 56.0278 107.638 55.6506L107.023 51.8895C106.882 51.1235 106.59 50.3929 106.166 49.7397C105.831 49.1648 105.36 48.6816 104.793 48.333C104.662 48.2471 104.509 48.2034 104.353 48.2079C104.329 48.2124 104.307 48.2229 104.288 48.2383C104.252 48.2641 104.225 48.2996 104.209 48.3406C104.07 48.7038 104.046 49.1009 104.14 49.478L104.759 53.243V53.2392ZM104.501 56.098C103.978 55.2919 103.622 54.3896 103.454 53.444L102.835 49.6752C102.691 49.0183 102.762 48.3327 103.036 47.7188C103.144 47.5085 103.297 47.3247 103.484 47.1804C103.677 47.0348 103.902 46.9384 104.14 46.8998C104.581 46.8443 105.027 46.9349 105.411 47.1576C106.18 47.6159 106.823 48.2583 107.281 49.0269C107.799 49.8353 108.155 50.7367 108.328 51.6809L108.947 55.4421C109.09 56.1018 109.018 56.79 108.742 57.406C108.634 57.6163 108.481 57.8002 108.294 57.9444C108.103 58.0916 107.877 58.1881 107.638 58.225C107.199 58.2823 106.754 58.193 106.371 57.971C105.601 57.5122 104.958 56.8684 104.501 56.098Z" fill="#3C3C3C"/>
<path fill-rule="evenodd" clip-rule="evenodd" d="M100.7 51.806C100.841 52.572 101.132 53.3025 101.557 53.9558C101.892 54.5307 102.363 55.0139 102.93 55.3625C103.059 55.4487 103.212 55.4913 103.366 55.4838C103.391 55.4814 103.415 55.4721 103.435 55.4573C103.468 55.4285 103.495 55.3938 103.514 55.3549C103.652 54.9913 103.675 54.5942 103.579 54.2174L102.585 48.1509C102.443 47.3838 102.152 46.652 101.728 45.9974C101.394 45.4249 100.925 44.9431 100.362 44.5945C100.231 44.5098 100.078 44.4675 99.9219 44.4732C99.8983 44.4757 99.8759 44.4849 99.8574 44.4997C99.8254 44.5292 99.7985 44.5638 99.7777 44.6021C99.6404 44.9656 99.6167 45.3622 99.7094 45.7395L100.703 51.806H100.7ZM100.445 54.6648C99.924 53.8577 99.5669 52.9559 99.3945 52.0108L98.4006 45.9443C98.2565 45.2862 98.327 44.5992 98.6017 43.984C98.7095 43.7739 98.8623 43.5901 99.0493 43.4457C99.2405 43.2976 99.4665 43.201 99.7057 43.1651C100.144 43.1075 100.59 43.1968 100.973 43.4191C101.743 43.8735 102.387 44.5152 102.843 45.2846C103.364 46.0918 103.721 46.9936 103.894 47.9386L104.888 54.0051C105.03 54.6649 104.959 55.3529 104.683 55.9691C104.575 56.1783 104.422 56.3609 104.235 56.5037C104.044 56.6521 103.818 56.7499 103.579 56.7881C103.14 56.8419 102.695 56.7515 102.312 56.5303C101.544 56.0738 100.902 55.4325 100.445 54.6648Z" fill="#3C3C3C"/>
<path fill-rule="evenodd" clip-rule="evenodd" d="M96.6522 50.4408C96.7937 51.2068 97.0851 51.9374 97.5096 52.5906C97.8441 53.1644 98.3143 53.6474 98.8791 53.9973C99.0091 54.0836 99.1632 54.126 99.3191 54.1186C99.3427 54.116 99.365 54.1068 99.3836 54.0921C99.4186 54.0654 99.446 54.0301 99.4633 53.9897C99.6005 53.6261 99.6243 53.2296 99.5315 52.8522L98.162 44.4844C98.0169 43.7195 97.7259 42.9896 97.3047 42.3346C96.9688 41.7596 96.4974 41.2754 95.9314 40.9242C95.7986 40.841 95.6442 40.7987 95.4876 40.8028C95.4651 40.8052 95.4439 40.8145 95.4269 40.8294C95.3919 40.856 95.3645 40.8913 95.3472 40.9318C95.2083 41.2949 95.1844 41.692 95.2789 42.0692L96.6522 50.4446V50.4408ZM96.3942 53.2996C95.8724 52.4932 95.5165 51.591 95.3472 50.6456L93.9739 42.2701C93.8297 41.612 93.9002 40.9251 94.1749 40.3099C94.2839 40.1016 94.4366 39.9192 94.6226 39.7753C94.8134 39.6267 95.0396 39.53 95.2789 39.4948C95.7194 39.4375 96.1665 39.5282 96.5498 39.7526C97.3187 40.2109 97.9615 40.8533 98.42 41.6218C98.9388 42.4298 99.2944 43.3314 99.4671 44.2758L100.837 52.6437C100.98 53.3031 100.91 53.9911 100.636 54.6077C100.526 54.8165 100.373 55 100.188 55.1461C99.9959 55.2922 99.7702 55.3874 99.5315 55.4229C99.0927 55.4802 98.6473 55.3908 98.2645 55.1688C97.4939 54.7126 96.8507 54.0698 96.3942 53.2996Z" fill="#3C3C3C"/>
<path fill-rule="evenodd" clip-rule="evenodd" d="M92.1903 46.5583C92.3326 47.3229 92.6239 48.0521 93.0476 48.7043C93.3807 49.2767 93.8481 49.7595 94.4095 50.111C94.5429 50.1965 94.6988 50.24 94.8572 50.2361C94.8801 50.2312 94.9019 50.2223 94.9216 50.2096C94.9534 50.1808 94.9792 50.146 94.9975 50.1072C95.1365 49.744 95.1603 49.3469 95.0658 48.9697L94.0719 42.9033C93.9313 42.1376 93.6413 41.4071 93.2183 40.7535C92.8826 40.1783 92.4111 39.6941 91.845 39.343C91.7132 39.2576 91.5582 39.2153 91.4012 39.2217C91.3778 39.2248 91.3555 39.2339 91.3367 39.2482C91.3032 39.2755 91.2772 39.3107 91.2609 39.3506C91.1219 39.7138 91.0981 40.1109 91.1925 40.4881L92.1865 46.5545L92.1903 46.5583ZM91.9285 49.4172C91.4104 48.6092 91.0559 47.7075 90.8853 46.7631L89.8914 40.6966C89.7472 40.0385 89.8177 39.3516 90.0924 38.7364C90.2 38.5261 90.3529 38.3422 90.5401 38.198C90.7316 38.053 90.9555 37.9567 91.1925 37.9174C91.6341 37.8638 92.0812 37.9542 92.4672 38.1752C93.2359 38.6342 93.8776 39.2781 94.3337 40.0482C94.8562 40.8543 95.2122 41.7567 95.3807 42.7023L96.3746 48.7688C96.5204 49.428 96.4499 50.1167 96.1736 50.7328C96.0659 50.942 95.913 51.1246 95.7259 51.2674C95.5353 51.4139 95.3109 51.5103 95.0734 51.548C94.6304 51.6058 94.1808 51.5151 93.795 51.2902C93.0268 50.8288 92.3854 50.1839 91.9285 49.4134V49.4172Z" fill="#3C3C3C"/>
<path fill-rule="evenodd" clip-rule="evenodd" d="M87.8318 43.2107C87.975 43.9761 88.2662 44.7063 88.6891 45.3604C89.0239 45.9353 89.4956 46.4185 90.0624 46.7671C90.191 46.8533 90.344 46.8958 90.4987 46.8884C90.5221 46.8853 90.5443 46.8761 90.5632 46.8619C90.596 46.8331 90.6231 46.7984 90.6429 46.7595C90.7816 46.3964 90.8067 45.9997 90.7149 45.622L90.0965 41.8609C89.955 41.0949 89.6636 40.3643 89.2392 39.7111C88.9046 39.1363 88.4345 38.6521 87.8697 38.3007C87.7367 38.2175 87.5827 38.1741 87.4259 38.1756L87.3613 38.2021C87.3305 38.2302 87.3048 38.2636 87.2855 38.3007C87.1503 38.6646 87.1265 39.0606 87.2172 39.4381L87.8318 43.1993V43.2107ZM87.5738 46.0694C87.055 45.2614 86.6994 44.3598 86.5268 43.4154L85.9121 39.6504C85.768 38.9898 85.8384 38.3005 86.1132 37.6826C86.2211 37.4736 86.374 37.291 86.5609 37.1481C86.7524 37.0031 86.9764 36.9068 87.2134 36.8675C87.6538 36.8136 88.0997 36.9041 88.4842 37.1253C89.2533 37.5852 89.896 38.2288 90.3545 38.9983C90.8764 39.8048 91.2323 40.707 91.4016 41.6524L92.0048 45.4211C92.1455 46.0784 92.0738 46.7635 91.7999 47.3775C91.6912 47.5881 91.5386 47.773 91.3523 47.9197C91.1578 48.0646 90.9315 48.1608 90.6922 48.2002C90.2542 48.2541 89.8106 48.1636 89.4289 47.9424C88.6594 47.4831 88.0167 46.8393 87.5586 46.0694H87.5738Z" fill="#3C3C3C"/>
<path fill-rule="evenodd" clip-rule="evenodd" d="M83.4992 85.5769C75.5022 90.1911 75.5022 97.6718 83.4992 102.286C91.4961 106.9 104.463 106.904 112.464 102.286C120.464 97.668 120.46 90.1911 112.464 85.5769C104.467 80.9626 91.4961 80.9588 83.4992 85.5769Z" fill="white"/>
<path fill-rule="evenodd" clip-rule="evenodd" d="M83.8295 86.1457C81.6103 87.431 80.0359 88.9287 79.1255 90.5135C78.4968 91.5408 78.1642 92.7217 78.1642 93.9259C78.1642 95.1301 78.4968 96.3109 79.1255 97.3382C80.0435 98.9269 81.6103 100.428 83.8295 101.71C87.7256 103.954 92.847 105.08 97.9798 105.08C103.113 105.08 108.223 103.943 112.134 101.71C114.353 100.428 115.927 98.9269 116.838 97.3382C117.455 96.306 117.786 95.1283 117.798 93.9259C117.783 92.7234 117.45 91.5463 116.834 90.5135C115.92 88.9287 114.349 87.431 112.126 86.1457L112.096 86.1267C108.204 83.8935 103.097 82.7788 97.976 82.7788C92.8546 82.7788 87.7332 83.9163 83.8257 86.1457H83.8295ZM77.9684 89.8575C79.0003 88.0717 80.7302 86.4035 83.1581 85.0044C87.2628 82.6347 92.6421 81.4518 97.9532 81.4518C103.264 81.4518 108.628 82.6271 112.726 84.9817L112.767 85.0044C115.195 86.4035 116.94 88.0717 117.957 89.8575C118.691 91.0915 119.083 92.4981 119.095 93.9334C119.082 95.3686 118.69 96.7748 117.957 98.0093C116.925 99.7913 115.195 101.456 112.763 102.859C108.663 105.228 103.302 106.411 97.9684 106.411C92.6345 106.411 87.259 105.228 83.1732 102.859C80.7415 101.456 79.0003 99.7913 77.9836 98.0093C77.2391 96.78 76.8455 95.3704 76.8455 93.9334C76.8455 92.4964 77.2391 91.0869 77.9836 89.8575H77.9684Z" fill="#3C3C3C"/>
<path fill-rule="evenodd" clip-rule="evenodd" d="M90.7444 85.7893V91.9733L90.7481 92.0188L90.7595 92.0643L90.7785 92.1098L90.805 92.1553L90.8392 92.197L90.8847 92.2387L90.9341 92.2804L90.9909 92.3145L101.416 98.3316L101.48 98.3657L101.545 98.3923L101.617 98.4188L101.693 98.4378L101.769 98.4529L101.848 98.4643L101.928 98.4719H102.008H102.087L102.167 98.4643L102.247 98.4529L102.322 98.4378L102.398 98.4188L102.47 98.3923L102.539 98.3657L102.603 98.3316L102.668 98.2937L103.426 97.8577L105.357 96.743L105.414 96.7051L105.464 96.6671L105.505 96.6254L105.54 96.58L105.566 96.5382L105.585 96.4927L105.596 96.4472L105.6 96.3979V90.2178L105.596 90.2633L105.585 90.3088L105.566 90.3543L105.54 90.3998L105.505 90.4415L105.464 90.4832L105.414 90.5211L105.357 90.559L103.426 91.6737L102.668 92.1098L102.603 92.1477L102.539 92.1818L102.47 92.2121L102.398 92.2349L102.322 92.2538L102.247 92.269L102.167 92.2804L102.087 92.2879L102.008 92.2917L101.928 92.2879L101.848 92.2804L101.769 92.269L101.693 92.2538L101.617 92.2349L101.545 92.2121L101.48 92.1818L101.416 92.1477L90.9909 86.1343L90.9341 86.0964L90.8847 86.0585L90.8392 86.0168L90.805 85.9713L90.7785 85.9296L90.7595 85.8841L90.7481 85.8386L90.7444 85.7893Z" fill="#3C3C3C"/>
<path fill-rule="evenodd" clip-rule="evenodd" d="M91.4088 87.128V91.7802L101.758 97.7557H101.8H101.845H101.906H102.039H102.137H102.183C102.233 97.7422 102.28 97.7204 102.323 97.6912L103.082 97.2514H103.12L104.929 96.2087V91.5641L102.995 92.6788L102.926 92.7205L102.835 92.766L102.782 92.7925L102.714 92.8229H102.665H102.6C102.575 92.834 102.548 92.8416 102.52 92.8456L102.369 92.8798H102.331H102.251H102.13H101.864H101.784H101.709H101.667H101.599C101.545 92.8798 101.496 92.857 101.443 92.8456H101.397L101.329 92.8229H101.284L101.215 92.7925L101.124 92.747C97.9035 91.0409 94.5803 88.9555 91.4012 87.1394L91.4088 87.128ZM90.0811 91.9622V85.7782C90.0812 85.6206 90.1377 85.4683 90.2405 85.3488C90.3433 85.2293 90.4855 85.1505 90.6413 85.1267C90.7972 85.1028 90.9565 85.1356 91.0903 85.2189C91.2241 85.3023 91.3236 85.4307 91.3709 85.5811L101.747 91.5679H101.792H101.819H101.868H101.902H101.974H102.103H102.149H102.194H102.232H102.255L102.327 91.5262C103.192 91.0067 104.087 90.51 104.96 90.0096C105.007 89.8583 105.107 89.729 105.242 89.6451C105.376 89.5611 105.536 89.5281 105.693 89.5519C105.85 89.5757 105.993 89.6548 106.096 89.775C106.2 89.8951 106.257 90.0482 106.257 90.2067V96.4666C106.261 96.5107 106.261 96.5551 106.257 96.5993V96.6448C106.249 96.6756 106.239 96.706 106.227 96.7357L106.208 96.785C106.196 96.8144 106.18 96.8423 106.162 96.8684C106.142 96.9073 106.118 96.9441 106.09 96.9784L106.056 97.0201L106.003 97.077C105.979 97.1051 105.952 97.1305 105.923 97.1528L105.874 97.1908L105.821 97.2287L105.764 97.2666L103.841 98.3775H103.806L102.983 98.8552L102.919 98.8894L102.839 98.9273H102.805L102.74 98.9538L102.668 98.9766H102.619H102.566H102.498L102.342 99.0069H102.27H102.19H102.08H101.868H101.788H101.75L101.636 98.9879H101.58H101.515H101.439H101.394L101.322 98.9652L101.219 98.9235L101.162 98.8932H101.128L101.079 98.8666C97.7025 96.9177 93.8292 94.8968 90.597 92.8001C90.5703 92.7859 90.5449 92.7694 90.5211 92.7508L90.468 92.7091C90.446 92.6935 90.4257 92.6757 90.4073 92.656L90.3807 92.6295L90.3163 92.5613L90.2783 92.5158C90.2606 92.4927 90.2441 92.4686 90.229 92.4437C90.203 92.4072 90.1814 92.3677 90.1645 92.3262V92.3035C90.1645 92.2655 90.138 92.2276 90.1266 92.1897V92.1442C90.1244 92.1164 90.1244 92.0886 90.1266 92.0608C90.1092 92.0329 90.094 92.0038 90.0811 91.9736V91.9622Z" fill="#3C3C3C"/>
<path fill-rule="evenodd" clip-rule="evenodd" d="M93.7461 83.8595L90.9919 85.4481C90.9267 85.4787 90.8716 85.5273 90.833 85.588C90.7944 85.6488 90.7739 85.7193 90.7739 85.7912C90.7739 85.8632 90.7944 85.9337 90.833 85.9945C90.8716 86.0552 90.9267 86.1038 90.9919 86.1344L101.417 92.1477C101.601 92.2413 101.804 92.29 102.011 92.29C102.217 92.29 102.42 92.2413 102.604 92.1477L102.669 92.1098L103.427 91.6738L105.362 90.5591C105.427 90.5285 105.482 90.4799 105.521 90.4192C105.56 90.3584 105.58 90.2879 105.58 90.216C105.58 90.144 105.56 90.0735 105.521 90.0127C105.482 89.952 105.427 89.9034 105.362 89.8728L94.9373 83.8595C94.7529 83.7653 94.5488 83.7162 94.3417 83.7162C94.1346 83.7162 93.9305 83.7653 93.7461 83.8595Z" fill="white"/>
<path fill-rule="evenodd" clip-rule="evenodd" d="M79.6236 120.908C72.5902 116.851 70.3899 111.05 73.0265 105.912L78.053 96.134H118.265L123.292 105.912C125.948 111.058 123.732 116.851 116.695 120.908C106.448 126.815 89.8588 126.815 79.6236 120.908Z" fill="#2B7CFF"/>
<path fill-rule="evenodd" clip-rule="evenodd" d="M79.2782 121.48C75.6932 119.414 73.3108 116.893 72.1348 114.216C71.5194 112.856 71.2252 111.373 71.2752 109.881C71.3252 108.389 71.718 106.929 72.4231 105.613L77.4497 95.8346C77.5053 95.7265 77.5896 95.6357 77.6933 95.5722C77.797 95.5087 77.9161 95.4749 78.0377 95.4744H118.25C118.383 95.474 118.513 95.5136 118.624 95.588C118.734 95.6623 118.819 95.7681 118.869 95.8915L123.865 105.613C124.57 106.928 124.964 108.389 125.015 109.88C125.065 111.372 124.772 112.856 124.157 114.216C122.977 116.893 120.598 119.414 117.013 121.48L116.972 121.503C111.755 124.502 104.95 126 98.1515 126C91.3533 126 84.5172 124.483 79.2934 121.48H79.2782ZM73.3488 113.685C74.4148 116.108 76.6113 118.417 79.9421 120.335C84.9535 123.225 91.543 124.669 98.1515 124.669C104.76 124.669 111.312 123.232 116.319 120.354L116.35 120.332C119.68 118.413 121.877 116.104 122.943 113.681C123.477 112.5 123.731 111.211 123.687 109.915C123.643 108.619 123.302 107.351 122.689 106.208L117.848 96.7939H78.455L73.6143 106.208C73.0015 107.352 72.6601 108.621 72.6167 109.917C72.5733 111.214 72.829 112.503 73.364 113.685H73.3488Z" fill="#3C3C3C"/>
<path fill-rule="evenodd" clip-rule="evenodd" d="M83.6708 85.5254C75.6739 90.1396 75.6739 97.6203 83.6708 102.235C91.6678 106.849 104.634 106.853 112.635 102.235C120.636 97.6165 120.632 90.1396 112.635 85.5254C104.638 80.9111 91.6678 80.9073 83.6708 85.5254Z" fill="white"/>
<path fill-rule="evenodd" clip-rule="evenodd" d="M84.0012 86.0941C81.7819 87.3794 80.2076 88.8771 79.2971 90.4619C78.6685 91.4893 78.3358 92.6701 78.3358 93.8743C78.3358 95.0785 78.6685 96.2594 79.2971 97.2867C80.2152 98.8753 81.7819 100.377 84.0012 101.658C87.8972 103.903 93.0186 105.029 98.1514 105.029C103.284 105.029 108.394 103.891 112.305 101.658C114.525 100.377 116.099 98.8753 117.009 97.2867C117.627 96.2544 117.958 95.0767 117.969 93.8743C117.954 92.6719 117.622 91.4947 117.006 90.4619C116.091 88.8771 114.521 87.3794 112.298 86.0941L112.267 86.0751C108.375 83.8419 103.269 82.7272 98.1476 82.7272C93.0262 82.7272 87.9048 83.8647 83.9974 86.0941H84.0012ZM78.14 89.806C79.1719 88.0202 80.9018 86.3519 83.3297 84.9529C87.4344 82.5832 92.8138 81.4002 98.1248 81.4002C103.436 81.4002 108.8 82.5756 112.897 84.9301L112.939 84.9529C115.367 86.3519 117.112 88.0202 118.129 89.806C118.862 91.0399 119.255 92.4465 119.267 93.8819C119.254 95.317 118.861 96.7233 118.129 97.9577C117.097 99.7397 115.367 101.404 112.935 102.807C108.834 105.177 103.474 106.36 98.14 106.36C92.8062 106.36 87.4306 105.177 83.3449 102.807C80.9132 101.404 79.1719 99.7397 78.1552 97.9577C77.4107 96.7284 77.0171 95.3188 77.0171 93.8819C77.0171 92.4449 77.4107 91.0353 78.1552 89.806H78.14Z" fill="#3C3C3C"/>
<path fill-rule="evenodd" clip-rule="evenodd" d="M77.6958 94.4467V101.563C77.8401 102.963 78.3489 104.3 79.1715 105.442C81.9674 109.423 87.711 111.539 92.3203 112.328C99.054 113.465 107.518 112.646 113.36 108.915C115.772 107.372 118.052 105.063 118.538 102.132L118.61 101.567V94.4505C118.539 95.2246 118.348 95.9831 118.045 96.6989C116.25 100.949 110.974 103.482 106.774 104.604C99.3802 106.587 89.4864 105.981 82.9462 101.798C80.5297 100.259 78.2535 97.9463 77.7641 95.0154L77.6958 94.4467Z" fill="white"/>
<path fill-rule="evenodd" clip-rule="evenodd" d="M78.36 98.295V101.563C78.4106 102.147 78.5448 102.72 78.7584 103.266C79.0034 103.901 79.3244 104.505 79.7144 105.063C80.9018 106.754 82.662 108.096 84.6461 109.131C87.0974 110.371 89.7238 111.229 92.4345 111.675C96.1511 112.292 99.9432 112.304 103.664 111.709C107.078 111.156 110.325 110.072 113.007 108.354C114.298 107.555 115.439 106.538 116.38 105.347C117.147 104.388 117.668 103.255 117.897 102.049L117.962 101.525V98.3064C117.027 99.7212 115.823 100.939 114.419 101.889C112.141 103.42 109.621 104.553 106.964 105.241C102.707 106.332 98.2851 106.625 93.9215 106.106C89.8092 105.62 85.8221 104.407 82.6051 102.352C81.185 101.468 79.9284 100.346 78.8912 99.0344C78.7091 98.7955 78.5346 98.5491 78.3752 98.2761L78.36 98.295ZM77.0323 101.563V94.4466C77.0299 94.2759 77.0934 94.1109 77.2096 93.9857C77.3258 93.8606 77.4857 93.7851 77.6562 93.7749C77.8267 93.7646 77.9946 93.8204 78.125 93.9307C78.2554 94.041 78.3382 94.1972 78.3562 94.367L78.4245 94.9319C78.6533 96.1388 79.1743 97.2714 79.942 98.2306C80.8838 99.4201 82.0249 100.437 83.3145 101.237C86.3495 103.179 90.1431 104.327 94.0733 104.79C98.2703 105.291 102.524 105.011 106.619 103.963C109.127 103.318 111.507 102.25 113.656 100.805C115.321 99.6372 116.714 98.185 117.45 96.4371C117.59 96.1125 117.702 95.7764 117.783 95.4324C117.861 95.0871 117.919 94.7377 117.958 94.386C117.976 94.2178 118.057 94.0629 118.186 93.9527C118.314 93.8426 118.48 93.7856 118.649 93.7933C118.818 93.801 118.977 93.873 119.095 93.9944C119.213 94.1158 119.28 94.2775 119.282 94.4466V101.563C119.284 101.59 119.284 101.616 119.282 101.643L119.214 102.208V102.234C118.958 103.665 118.353 105.01 117.453 106.151C116.415 107.462 115.159 108.584 113.739 109.469C110.89 111.289 107.453 112.434 103.876 113.014C100.013 113.633 96.0742 113.621 92.2144 112.98C89.3672 112.51 86.6089 111.607 84.0353 110.303C81.8768 109.165 79.9496 107.698 78.6332 105.825C78.1807 105.175 77.8087 104.472 77.5255 103.732C77.2654 103.066 77.1031 102.366 77.0437 101.654C77.038 101.624 77.0342 101.594 77.0323 101.563Z" fill="#3C3C3C"/>
<path fill-rule="evenodd" clip-rule="evenodd" d="M90.9163 85.7378V91.9218L90.92 91.9673L90.9314 92.0127L90.9504 92.0582L90.9769 92.1037L91.0111 92.1454L91.0566 92.1871L91.1059 92.2288L91.1628 92.263L101.588 98.2801L101.652 98.3142L101.717 98.3407L101.789 98.3673L101.865 98.3862L101.941 98.4014L102.02 98.4128L102.1 98.4204H102.18H102.259L102.339 98.4128L102.419 98.4014L102.494 98.3862L102.57 98.3673L102.642 98.3407L102.711 98.3142L102.775 98.2801L102.84 98.2422L103.598 97.8062L105.529 96.6914L105.586 96.6535L105.635 96.6156L105.677 96.5739L105.711 96.5284L105.738 96.4867L105.757 96.4412L105.768 96.3957L105.772 96.3464V90.1663L105.768 90.2118L105.757 90.2573L105.738 90.3028L105.711 90.3483L105.677 90.39L105.635 90.4317L105.586 90.4696L105.529 90.5075L103.598 91.6222L102.84 92.0582L102.775 92.0961L102.711 92.1303L102.642 92.1606L102.57 92.1833L102.494 92.2023L102.419 92.2175L102.339 92.2288L102.259 92.2364L102.18 92.2402L102.1 92.2364L102.02 92.2288L101.941 92.2175L101.865 92.2023L101.789 92.1833L101.717 92.1606L101.652 92.1303L101.588 92.0961L91.1628 86.0828L91.1059 86.0449L91.0566 86.007L91.0111 85.9653L90.9769 85.9198L90.9504 85.8781L90.9314 85.8326L90.92 85.7871L90.9163 85.7378Z" fill="#3C3C3C"/>
<path fill-rule="evenodd" clip-rule="evenodd" d="M91.5807 87.0763V91.7285L101.93 97.704H101.971H102.017H102.078H102.21H102.309H102.355C102.405 97.6905 102.452 97.6687 102.495 97.6395L103.254 97.1997H103.292L105.101 96.157V91.5124L103.166 92.6271L103.098 92.6688L103.007 92.7143L102.954 92.7408L102.886 92.7712H102.836H102.772C102.747 92.7823 102.72 92.7899 102.692 92.7939L102.54 92.8281H102.503H102.423H102.301H102.036H101.956H101.88H101.839H101.77C101.717 92.8281 101.668 92.8053 101.615 92.7939H101.569L101.501 92.7712H101.456L101.387 92.7408L101.296 92.6953C98.0754 90.9892 94.7522 88.9038 91.5731 87.0877L91.5807 87.0763ZM90.2529 91.9105V85.7265C90.2531 85.5689 90.3096 85.4166 90.4124 85.2971C90.5151 85.1776 90.6574 85.0988 90.8132 85.075C90.9691 85.0511 91.1283 85.0839 91.2621 85.1672C91.396 85.2506 91.4955 85.379 91.5427 85.5294L101.918 91.5162H101.964H101.99H102.04H102.074H102.146H102.275H102.32H102.366H102.404H102.427L102.499 91.4745C103.364 90.955 104.259 90.4583 105.132 89.9579C105.179 89.8066 105.279 89.6773 105.413 89.5934C105.548 89.5094 105.708 89.4764 105.865 89.5002C106.022 89.524 106.165 89.6031 106.268 89.7233C106.372 89.8434 106.429 89.9965 106.429 90.155V96.4149C106.433 96.459 106.433 96.5034 106.429 96.5476V96.5931C106.421 96.6239 106.41 96.6543 106.399 96.684L106.38 96.7333C106.367 96.7627 106.352 96.7906 106.334 96.8167C106.314 96.8556 106.29 96.8925 106.262 96.9267L106.228 96.9684L106.175 97.0253C106.151 97.0534 106.124 97.0788 106.095 97.1011L106.046 97.1391L105.993 97.177L105.936 97.2149L104.012 98.3258H103.978L103.155 98.8036L103.091 98.8377L103.011 98.8756H102.977L102.912 98.9021L102.84 98.9249H102.791H102.738H102.67L102.514 98.9552H102.442H102.362H102.252H102.04H101.96H101.922L101.808 98.9362H101.751H101.687H101.611H101.566L101.493 98.9135L101.391 98.8718L101.334 98.8415H101.3L101.251 98.8149C97.8744 96.866 94.001 94.8452 90.7689 92.7484C90.7422 92.7342 90.7168 92.7177 90.693 92.6991L90.6398 92.6574C90.6179 92.6418 90.5976 92.624 90.5792 92.6044L90.5526 92.5778L90.4881 92.5096L90.4502 92.4641C90.4324 92.441 90.416 92.4169 90.4008 92.392C90.3749 92.3555 90.3533 92.316 90.3364 92.2745V92.2518C90.3364 92.2138 90.3098 92.1759 90.2985 92.138V92.0925C90.2963 92.0647 90.2963 92.0369 90.2985 92.0091C90.2811 91.9812 90.2659 91.9521 90.2529 91.9219V91.9105Z" fill="#3C3C3C"/>
<path opacity="0.72" fill-rule="evenodd" clip-rule="evenodd" d="M56.8957 28.4439C51.1825 46.465 57.4078 58.7761 63.8608 69.8094C67.9276 76.7707 70.8183 77.7716 73.0565 85.6732C74.4033 90.4353 73.9329 94.1206 77.681 98.007C87.9541 108.654 109.411 108.961 118.595 98.007C122.063 93.8704 121.873 90.424 123.22 85.6732C125.454 77.7603 128.345 76.7707 132.412 69.8094C138.861 58.7647 145.09 46.465 139.377 28.4439C133.504 9.92237 115.822 0.659668 98.1362 0.659668C80.4503 0.659668 62.7872 9.92237 56.8957 28.4439Z" fill="white"/>
<path opacity="0.72" fill-rule="evenodd" clip-rule="evenodd" d="M57.5445 28.6412C54.7296 37.5247 54.851 44.9864 56.4747 51.5837C58.0984 58.1809 61.2471 63.9933 64.4413 69.4758C65.6251 71.4796 66.9393 73.4035 68.3753 75.2352C70.5111 78.0523 72.241 80.331 73.6864 85.495C74.0657 86.8448 74.3047 88.1036 74.5323 89.3055C75.09 92.2781 75.5832 94.8866 78.1515 97.5483C78.6831 98.0989 79.244 98.6204 79.832 99.1104C84.8396 103.304 91.8237 105.446 98.694 105.446C105.564 105.446 112.268 103.327 116.763 99.0004C117.226 98.5546 117.665 98.0851 118.079 97.5938C120.53 94.6705 121.084 92.0771 121.725 89.0666C121.964 87.9519 122.214 86.7917 122.575 85.5064C124.035 80.3423 125.761 78.0637 127.886 75.2466C129.319 73.4138 130.632 71.4899 131.816 69.4872C135.022 64.0047 138.167 58.215 139.783 51.5951C141.399 44.9751 141.528 37.5361 138.709 28.6526C136.174 20.5552 130.936 13.5727 123.868 8.87217C116.406 3.8484 107.256 1.33462 98.1021 1.33462C88.9481 1.33462 79.7979 3.8484 72.3358 8.87217C65.2697 13.5738 60.0312 20.5559 57.4952 28.6526L57.5445 28.6412ZM55.1886 51.8983C53.5118 45.0736 53.3829 37.3844 56.2812 28.243C58.9042 19.8605 64.3281 12.6326 71.6454 7.76882C79.3313 2.58961 88.7433 0 98.1515 0C107.56 0 116.972 2.58961 124.658 7.76882C131.975 12.6336 137.4 19.861 140.026 28.243C142.924 37.3844 142.791 45.0812 141.114 51.8983C139.438 58.7155 136.251 64.581 133 70.1431C131.789 72.1919 130.444 74.1589 128.975 76.0314C126.922 78.7385 125.265 80.9225 123.872 85.8514C123.523 87.0837 123.277 88.2325 123.045 89.3282C122.362 92.5131 121.778 95.2582 119.119 98.4279C118.674 98.9579 118.202 99.4641 117.704 99.9445C112.95 104.525 105.89 106.769 98.7357 106.769C91.5809 106.769 84.2744 104.521 79.0088 100.127C78.3843 99.6049 77.7879 99.0505 77.222 98.4658C74.3806 95.5198 73.8571 92.7293 73.2577 89.5482C73.0377 88.3804 72.8062 87.1557 72.4382 85.8514C71.0422 80.9225 69.3844 78.7385 67.3358 76.0352C65.8674 74.1599 64.5217 72.1917 63.307 70.1431C60.0521 64.581 56.8578 58.6965 55.1886 51.8983Z" fill="#3C3C3C"/>
<path fill-rule="evenodd" clip-rule="evenodd" d="M57.5445 28.6412C54.7296 37.5247 54.851 44.9864 56.4747 51.5837C58.0984 58.1809 61.2471 63.9933 64.4413 69.4758C65.6251 71.4796 66.9393 73.4035 68.3753 75.2352C70.5111 78.0523 72.241 80.331 73.6864 85.495C74.0657 86.8448 74.3047 88.1036 74.5323 89.3055C75.09 92.2781 75.5832 94.8866 78.1515 97.5483C78.6831 98.0989 79.244 98.6204 79.832 99.1104C84.8396 103.304 91.8237 105.446 98.694 105.446C105.564 105.446 112.268 103.327 116.763 99.0004C117.226 98.5546 117.665 98.0851 118.079 97.5938C120.53 94.6705 121.084 92.0771 121.725 89.0666C121.964 87.9519 122.214 86.7917 122.575 85.5064C124.035 80.3423 125.761 78.0637 127.886 75.2466C129.319 73.4138 130.632 71.4899 131.816 69.4872C135.022 64.0047 138.167 58.215 139.783 51.5951C141.399 44.9751 141.528 37.5361 138.709 28.6526C136.174 20.5552 130.936 13.5727 123.868 8.87217C116.406 3.8484 107.256 1.33462 98.1021 1.33462C88.9481 1.33462 79.7979 3.8484 72.3358 8.87217C65.2697 13.5738 60.0312 20.5559 57.4952 28.6526L57.5445 28.6412ZM55.1886 51.8983C53.5118 45.0736 53.3829 37.3844 56.2812 28.243C58.9042 19.8605 64.3281 12.6326 71.6454 7.76882C79.3313 2.58961 88.7433 0 98.1515 0C107.56 0 116.972 2.58961 124.658 7.76882C131.975 12.6336 137.4 19.861 140.026 28.243C142.924 37.3844 142.791 45.0812 141.114 51.8983C139.438 58.7155 136.251 64.581 133 70.1431C131.789 72.1919 130.444 74.1589 128.975 76.0314C126.922 78.7385 125.265 80.9225 123.872 85.8514C123.523 87.0837 123.277 88.2325 123.045 89.3282C122.362 92.5131 121.778 95.2582 119.119 98.4279C118.674 98.9579 118.202 99.4641 117.704 99.9445C112.95 104.525 105.89 106.769 98.7357 106.769C91.5809 106.769 84.2744 104.521 79.0088 100.127C78.3843 99.6049 77.7879 99.0505 77.222 98.4658C74.3806 95.5198 73.8571 92.7293 73.2577 89.5482C73.0377 88.3804 72.8062 87.1557 72.4382 85.8514C71.0422 80.9225 69.3844 78.7385 67.3358 76.0352C65.8674 74.1599 64.5217 72.1917 63.307 70.1431C60.0521 64.581 56.8578 58.6965 55.1886 51.8983Z" fill="#3C3C3C"/>
<path opacity="0.2" d="M181.384 122C190.541 122 197.963 119.343 197.963 116.065C197.963 112.786 190.541 110.129 181.384 110.129C172.228 110.129 164.806 112.786 164.806 116.065C164.806 119.343 172.228 122 181.384 122Z" fill="black"/>
<path fill-rule="evenodd" clip-rule="evenodd" d="M191.626 49.2546L196.797 46.0952L203.557 60.0613C203.828 60.6535 203.87 61.3247 203.676 61.9462C203.525 62.2864 203.633 62.038 203.606 62.0866L197.97 72.6287C197.883 72.8339 198.008 72.7799 197.592 73.1688C197.319 73.3915 196.978 73.5133 196.625 73.5136C196.273 73.514 195.932 73.3928 195.659 73.1706C195.385 72.9484 195.197 72.6388 195.126 72.294C195.055 71.9493 195.105 71.5906 195.268 71.2785L199.467 61.3575L191.626 49.2546Z" fill="#2B7CFF"/>
<path fill-rule="evenodd" clip-rule="evenodd" d="M196.009 46.6246C195.903 46.3983 195.891 46.1391 195.976 45.9042C196.061 45.6692 196.236 45.4777 196.463 45.3717C196.689 45.2657 196.948 45.2539 197.183 45.339C197.419 45.4241 197.61 45.599 197.716 45.8253L204.309 59.9373C204.534 60.3653 204.651 60.8417 204.649 61.3252C204.674 61.8465 204.576 62.3665 204.363 62.8428C204.35 62.8709 204.336 62.898 204.32 62.9239L197.835 73.7252C197.643 74.1708 197.328 74.5529 196.927 74.8272C196.526 75.1015 196.056 75.2568 195.571 75.2752C195.241 75.292 194.911 75.2386 194.604 75.1186C194.28 74.9891 193.993 74.7835 193.766 74.5191C193.483 74.1568 193.313 73.7193 193.278 73.2612C193.242 72.803 193.343 72.3445 193.566 71.943V71.8998L198.64 61.7789L192.156 51.7175C192.089 51.6132 192.044 51.4968 192.022 51.375C192 51.2532 192.003 51.1282 192.029 51.0074C192.056 50.8865 192.106 50.7721 192.177 50.6706C192.248 50.5691 192.338 50.4826 192.442 50.4159C192.547 50.3492 192.663 50.3038 192.785 50.2821C192.907 50.2604 193.032 50.2629 193.153 50.2894C193.274 50.316 193.388 50.3662 193.49 50.437C193.591 50.5078 193.678 50.5979 193.744 50.7021L200.526 61.2335C200.614 61.371 200.664 61.5287 200.673 61.6915C200.681 61.8543 200.647 62.0165 200.575 62.1624L195.263 72.7531C195.128 73.0663 195.128 73.25 195.193 73.331C195.218 73.3538 195.247 73.3721 195.279 73.385C195.347 73.407 195.418 73.4179 195.49 73.4173C195.627 73.4079 195.757 73.3598 195.868 73.2784C195.978 73.1971 196.062 73.086 196.111 72.9583C196.127 72.9195 196.145 72.8816 196.165 72.8449L202.704 61.9571C202.765 61.7673 202.789 61.5674 202.774 61.3685C202.78 61.1941 202.747 61.0205 202.677 60.8608C202.66 60.8349 202.646 60.8079 202.634 60.7798L196.009 46.6246Z" fill="#3C3C3C"/>
<path fill-rule="evenodd" clip-rule="evenodd" d="M186.821 111.719C186.605 111.648 186.417 111.511 186.283 111.326C186.15 111.142 186.078 110.92 186.078 110.693C186.078 110.465 186.15 110.244 186.283 110.059C186.417 109.875 186.605 109.738 186.821 109.667C187.372 109.39 187.98 109.246 188.596 109.246C189.213 109.246 189.821 109.39 190.372 109.667L195.04 112.367C195.256 112.438 195.445 112.575 195.578 112.76C195.712 112.944 195.783 113.166 195.783 113.393C195.783 113.621 195.712 113.842 195.578 114.027C195.445 114.211 195.256 114.348 195.04 114.419C194.49 114.696 193.882 114.84 193.265 114.84C192.649 114.84 192.041 114.696 191.49 114.419L186.821 111.719Z" fill="white"/>
<path fill-rule="evenodd" clip-rule="evenodd" d="M186.352 112.535C186.022 112.352 185.735 112.102 185.509 111.8L185.455 111.714C185.253 111.412 185.144 111.057 185.142 110.693C185.15 110.304 185.278 109.927 185.509 109.613C185.733 109.313 186.018 109.064 186.347 108.884C186.686 108.696 187.05 108.556 187.427 108.468C188.204 108.288 189.012 108.288 189.789 108.468C190.166 108.556 190.53 108.696 190.87 108.884L190.918 108.916L195.533 111.579C195.863 111.761 196.15 112.011 196.376 112.313C196.396 112.341 196.414 112.37 196.43 112.4C196.632 112.702 196.741 113.057 196.743 113.42C196.735 113.81 196.606 114.187 196.376 114.5C196.151 114.801 195.866 115.051 195.538 115.235L195.474 115.267C195.156 115.436 194.818 115.563 194.468 115.645C193.692 115.833 192.883 115.833 192.107 115.645C191.729 115.562 191.365 115.423 191.026 115.235L186.357 112.535H186.352ZM187.044 110.698C187.111 110.783 187.196 110.853 187.292 110.904L191.961 113.604C192.13 113.7 192.312 113.771 192.501 113.815C192.991 113.923 193.498 113.923 193.988 113.815C194.176 113.777 194.357 113.713 194.528 113.626H194.566C194.661 113.574 194.745 113.504 194.814 113.42C194.749 113.335 194.666 113.265 194.571 113.215L189.951 110.547L189.897 110.52C189.727 110.424 189.546 110.351 189.356 110.304C188.867 110.196 188.36 110.196 187.87 110.304C187.681 110.351 187.5 110.424 187.33 110.52C187.233 110.569 187.147 110.639 187.082 110.725L187.044 110.698Z" fill="#3C3C3C"/>
<path fill-rule="evenodd" clip-rule="evenodd" d="M176.971 117.277C176.756 117.205 176.57 117.067 176.438 116.883C176.306 116.7 176.235 116.479 176.235 116.253C176.235 116.027 176.306 115.807 176.438 115.623C176.57 115.44 176.756 115.302 176.971 115.23C177.521 114.95 178.13 114.803 178.748 114.803C179.366 114.803 179.975 114.95 180.526 115.23L185.195 117.93C185.409 118.003 185.595 118.14 185.727 118.324C185.859 118.507 185.93 118.728 185.93 118.954C185.93 119.18 185.859 119.4 185.727 119.584C185.595 119.767 185.409 119.905 185.195 119.977C184.644 120.258 184.035 120.404 183.417 120.404C182.799 120.404 182.19 120.258 181.639 119.977L176.971 117.277Z" fill="white"/>
<path fill-rule="evenodd" clip-rule="evenodd" d="M176.506 118.092C176.174 117.912 175.887 117.661 175.663 117.358L175.609 117.277C175.392 116.961 175.281 116.586 175.291 116.204C175.3 115.822 175.431 115.452 175.663 115.149C175.886 114.847 176.172 114.596 176.5 114.414C176.838 114.224 177.202 114.083 177.581 113.998C177.967 113.906 178.362 113.859 178.759 113.858C179.157 113.86 179.554 113.907 179.942 113.998C180.321 114.084 180.685 114.224 181.023 114.414L181.072 114.441L185.692 117.109C186.023 117.29 186.311 117.54 186.535 117.844L186.589 117.925C186.791 118.227 186.9 118.582 186.902 118.945C186.893 119.335 186.762 119.713 186.529 120.026C186.304 120.328 186.017 120.578 185.686 120.76L185.627 120.792C185.31 120.963 184.972 121.092 184.622 121.176C184.234 121.268 183.837 121.315 183.438 121.316C183.042 121.315 182.646 121.268 182.26 121.176C181.882 121.09 181.518 120.95 181.18 120.76L176.511 118.06L176.506 118.092ZM177.197 116.261C177.264 116.343 177.347 116.411 177.44 116.461L182.109 119.161C182.278 119.259 182.46 119.332 182.65 119.377C182.894 119.433 183.144 119.46 183.395 119.458C183.646 119.46 183.896 119.433 184.141 119.377C184.329 119.339 184.51 119.275 184.681 119.188H184.719C184.815 119.14 184.9 119.072 184.968 118.989C184.899 118.907 184.814 118.839 184.719 118.789L180.099 116.121H180.045C179.877 116.022 179.694 115.949 179.505 115.905C179.013 115.797 178.504 115.797 178.013 115.905C177.823 115.949 177.641 116.022 177.473 116.121C177.379 116.171 177.297 116.239 177.23 116.321L177.197 116.261Z" fill="#3C3C3C"/>
<path fill-rule="evenodd" clip-rule="evenodd" d="M194.343 70.2852C195.008 70.543 195.579 70.9955 195.982 71.5833C196.385 72.1712 196.601 72.867 196.602 73.5796C196.602 73.6822 196.602 73.7794 196.602 73.8766L195.786 112.038C195.766 112.259 195.687 112.47 195.558 112.65C195.429 112.831 195.254 112.974 195.051 113.064C194.5 113.341 193.892 113.485 193.276 113.485C192.659 113.485 192.052 113.341 191.501 113.064C191.298 112.974 191.123 112.831 190.994 112.65C190.865 112.47 190.786 112.259 190.766 112.038L189.199 81.2539L187.248 82.334C186.594 94.1831 186.427 105.789 185.94 117.579C185.921 117.8 185.842 118.012 185.713 118.192C185.584 118.373 185.409 118.515 185.206 118.605C184.655 118.885 184.046 119.031 183.428 119.031C182.81 119.031 182.201 118.885 181.65 118.605C181.447 118.514 181.273 118.371 181.144 118.191C181.015 118.011 180.936 117.799 180.915 117.579L179.71 79.4177C179.71 79.3204 179.71 79.2233 179.71 79.1261C179.71 77.0198 181.012 76.3447 182.558 75.4698L187.572 72.6399L191.139 70.62C191.613 70.3257 192.147 70.1427 192.702 70.0847C193.257 70.0267 193.818 70.0952 194.343 70.2852Z" fill="white"/>
<path fill-rule="evenodd" clip-rule="evenodd" d="M194.685 69.3884C195.527 69.7139 196.251 70.2862 196.762 71.0302C197.273 71.7743 197.547 72.6552 197.549 73.5577C197.549 73.6873 197.549 73.8223 197.549 73.952L196.743 112.054C196.735 112.443 196.606 112.82 196.376 113.134C196.151 113.434 195.866 113.684 195.538 113.868L195.474 113.901C195.156 114.07 194.818 114.197 194.468 114.279C193.692 114.466 192.883 114.466 192.107 114.279C191.729 114.195 191.365 114.057 191.026 113.868C190.696 113.686 190.409 113.436 190.183 113.134L190.129 113.047C189.927 112.745 189.818 112.39 189.816 112.027L188.33 82.8307L188.162 82.9278C187.779 89.9487 187.568 96.8454 187.352 103.742C187.211 108.37 187.071 113.004 186.882 117.611C186.872 118.001 186.742 118.378 186.509 118.691C186.284 118.993 185.996 119.244 185.666 119.426L185.606 119.458C185.289 119.629 184.952 119.758 184.601 119.841C184.213 119.933 183.816 119.98 183.418 119.982C183.021 119.98 182.626 119.933 182.24 119.841C181.861 119.756 181.497 119.616 181.159 119.426C180.828 119.245 180.54 118.994 180.316 118.691C180.296 118.665 180.278 118.638 180.262 118.61C180.059 118.306 179.95 117.949 179.949 117.584V117.535L178.744 79.5038V79.1312C178.744 76.5389 180.203 75.7126 181.953 74.7297L182.072 74.6595C184.931 73.0393 187.789 71.3813 190.664 69.7989C191.271 69.4525 191.939 69.2269 192.631 69.1346C193.327 69.0515 194.033 69.1424 194.685 69.3992V69.3884ZM195.225 72.0888C194.931 71.6558 194.513 71.3224 194.025 71.1328C193.658 70.9889 193.261 70.9387 192.869 70.987C192.418 71.0512 191.983 71.2016 191.588 71.4299L183.018 76.2905L182.894 76.3607C181.667 77.052 180.651 77.6244 180.651 79.1258V79.3419V79.3905L181.856 117.47C181.859 117.503 181.859 117.535 181.856 117.568C181.923 117.65 182.006 117.718 182.099 117.767C182.268 117.866 182.45 117.938 182.64 117.984C182.884 118.039 183.135 118.066 183.385 118.065C183.636 118.066 183.887 118.039 184.131 117.984C184.319 117.945 184.501 117.881 184.672 117.795H184.709C184.805 117.746 184.89 117.678 184.958 117.595V117.562C185.152 112.874 185.293 108.273 185.433 103.672C185.655 96.5537 185.871 89.4411 186.266 82.296C186.273 82.1383 186.321 81.9851 186.404 81.8509C186.487 81.7168 186.603 81.606 186.741 81.5291L188.638 80.449C188.777 80.3583 188.937 80.3059 189.103 80.2973C189.269 80.2886 189.434 80.3239 189.581 80.3996C189.729 80.4753 189.854 80.5886 189.943 80.7282C190.033 80.8678 190.084 81.0286 190.091 81.1943L191.653 111.908C191.656 111.942 191.656 111.976 191.653 112.01C191.719 112.097 191.804 112.167 191.902 112.216C192.072 112.311 192.253 112.384 192.442 112.432C192.932 112.532 193.438 112.532 193.928 112.432C194.116 112.39 194.297 112.324 194.468 112.237H194.506C194.601 112.185 194.686 112.116 194.755 112.032L195.565 73.925C195.563 73.8818 195.563 73.8385 195.565 73.7954V73.5739C195.595 73.0649 195.471 72.5588 195.209 72.1212L195.225 72.0888Z" fill="#3C3C3C"/>
<path fill-rule="evenodd" clip-rule="evenodd" d="M186.611 44.3566C187.145 44.6271 187.735 44.768 188.334 44.768C188.933 44.768 189.524 44.6271 190.058 44.3566C191.009 43.8165 191.009 42.9146 190.058 42.3638C189.525 42.0908 188.934 41.9484 188.334 41.9484C187.735 41.9484 187.144 42.0908 186.611 42.3638C185.654 42.9254 185.654 43.8057 186.611 44.3566Z" fill="white"/>
<path fill-rule="evenodd" clip-rule="evenodd" d="M187.081 43.5415C187.468 43.739 187.899 43.8356 188.334 43.8224C188.768 43.8363 189.197 43.7396 189.583 43.5415C189.67 43.4961 189.749 43.4358 189.815 43.3633C189.752 43.2882 189.675 43.2258 189.588 43.1797H189.55C189.171 42.9982 188.754 42.9094 188.334 42.9204C187.899 42.9066 187.468 43.0032 187.081 43.2013C186.994 43.2446 186.916 43.3053 186.854 43.3795C186.915 43.4547 186.99 43.5172 187.075 43.5632L187.081 43.5415ZM188.334 45.7018C187.567 45.7104 186.811 45.5246 186.135 45.1618C185.751 44.9538 185.429 44.6459 185.206 44.2706C185.04 43.993 184.952 43.6758 184.952 43.3525C184.952 43.058 185.026 42.7683 185.168 42.51C185.178 42.4837 185.191 42.4584 185.206 42.4344C185.433 42.0615 185.753 41.7543 186.135 41.5432C186.801 41.1951 187.541 41.0107 188.293 41.005C189.044 40.9994 189.787 41.1728 190.458 41.5109L190.517 41.5432C190.902 41.7527 191.225 42.0602 191.452 42.4344C191.619 42.7108 191.706 43.0273 191.706 43.3498C191.706 43.6724 191.619 43.9888 191.452 44.2652C191.225 44.6411 190.903 44.9503 190.517 45.1618C189.849 45.5295 189.097 45.7192 188.334 45.7126V45.7018Z" fill="#3C3C3C"/>
<path fill-rule="evenodd" clip-rule="evenodd" d="M196.202 73.331C196.877 72.9367 197.164 72.4128 197.055 71.9052V46.9648C196.801 44.6912 193.446 42.7577 191.976 43.611L184.816 47.7426L182.163 49.2709C181.039 49.8974 179.618 51.2314 179.585 52.803V78.5372C179.548 78.6915 179.548 78.8527 179.585 79.0071V79.1151C179.694 79.4391 179.272 79.7307 180.077 80.1952C180.882 80.6597 183.13 80.8649 184.297 80.1952L196.185 73.3417L196.202 73.331Z" fill="#2B7CFF" stroke="#F9FAFE" stroke-width="1.28" stroke-miterlimit="22.93"/>
<path fill-rule="evenodd" clip-rule="evenodd" d="M196.743 74.0927C196.693 74.1314 196.638 74.164 196.581 74.19L184.779 81.0002C184.005 81.3852 183.147 81.5708 182.283 81.5403C181.365 81.567 180.453 81.3822 179.619 81.0002C178.538 80.3899 178.581 79.8553 178.651 79.38C178.643 79.301 178.643 79.2214 178.651 79.1424C178.641 79.0365 178.641 78.9297 178.651 78.8237C178.643 78.7087 178.643 78.5931 178.651 78.4781V52.8356C178.692 51.9541 179.001 51.1059 179.538 50.4053C180.119 49.6273 180.855 48.9781 181.699 48.4988L191.507 42.8443C191.807 42.672 192.14 42.5652 192.485 42.5311C193.461 42.4765 194.431 42.7235 195.262 43.2386C196.17 43.7578 196.93 44.5017 197.467 45.3988C197.742 45.8484 197.925 46.3476 198.007 46.8679C198.013 46.9254 198.013 46.9832 198.007 47.0407V71.8838C198.072 72.3442 197.973 72.8127 197.726 73.207C197.486 73.5916 197.156 73.9123 196.765 74.1414L196.743 74.0927ZM195.781 72.4725C195.904 72.4016 196.009 72.3038 196.089 72.1863C196.1 72.1548 196.1 72.1206 196.089 72.0891C196.084 72.0262 196.084 71.963 196.089 71.9001V47.0029C196.044 46.7422 195.952 46.4917 195.819 46.263C195.444 45.6614 194.924 45.1637 194.306 44.8156C193.824 44.5026 193.259 44.3408 192.685 44.3511C192.6 44.3577 192.518 44.3797 192.442 44.416C189.167 46.3062 185.903 48.2342 182.612 50.0921C181.999 50.434 181.464 50.8993 181.04 51.4585C180.725 51.8465 180.537 52.3213 180.499 52.8194V78.5321C180.508 78.6057 180.508 78.6799 180.499 78.7535V78.7914C180.499 78.8238 180.499 78.8561 180.499 78.8885C180.54 79.0453 180.553 79.208 180.537 79.3692V79.5366C180.537 79.4826 180.537 79.4286 180.537 79.3746C181.086 79.596 181.675 79.6973 182.266 79.6717C182.801 79.698 183.335 79.5961 183.823 79.3746L195.624 72.5643C195.673 72.5292 195.725 72.5002 195.781 72.4779V72.4725Z" fill="#3C3C3C"/>
<path fill-rule="evenodd" clip-rule="evenodd" d="M185.892 43.3574H190.755L191.112 47.9966C191.117 48.0433 191.117 48.0903 191.112 48.137C191.088 48.3848 191 48.6218 190.854 48.824C190.709 49.0261 190.513 49.186 190.285 49.2874C189.67 49.5991 188.989 49.7615 188.299 49.7615C187.609 49.7615 186.929 49.5991 186.313 49.2874C186.087 49.1853 185.892 49.025 185.747 48.823C185.603 48.6209 185.515 48.3842 185.492 48.137C185.49 48.0902 185.49 48.0434 185.492 47.9966L185.892 43.3574Z" fill="white"/>
<path fill-rule="evenodd" clip-rule="evenodd" d="M185.892 42.4123H191.647L192.069 47.8885C192.071 47.9245 192.071 47.9606 192.069 47.9966C192.069 48.056 192.069 48.0992 192.069 48.137C192.066 48.559 191.93 48.9693 191.679 49.3089C191.439 49.6347 191.131 49.9054 190.777 50.1028C190.018 50.4967 189.176 50.7023 188.321 50.7023C187.466 50.7023 186.624 50.4967 185.865 50.1028C185.511 49.9054 185.203 49.6347 184.963 49.3089C184.712 48.9693 184.576 48.559 184.573 48.137C184.568 48.0525 184.568 47.9677 184.573 47.8832L185 42.4123H185.892ZM189.896 44.3025H186.767L186.476 48.083V48.1532C186.481 48.1814 186.494 48.2075 186.513 48.2288C186.598 48.3371 186.705 48.4257 186.827 48.488C187.299 48.7153 187.816 48.8334 188.34 48.8334C188.864 48.8334 189.381 48.7153 189.853 48.488C189.973 48.4222 190.079 48.3342 190.166 48.2288C190.183 48.2062 190.194 48.1805 190.199 48.1532V48.083L189.907 44.3025H189.896Z" fill="#3C3C3C"/>
<path fill-rule="evenodd" clip-rule="evenodd" d="M188.793 32.5616H187.875C187.32 32.5551 186.77 32.6595 186.256 32.8686C185.743 33.0777 185.276 33.3873 184.884 33.7793C184.491 34.1713 184.182 34.6377 183.972 35.1511C183.763 35.6645 183.659 36.2144 183.665 36.7687L183.881 41.9048C183.901 43.0145 184.351 44.0734 185.136 44.8582C185.921 45.6431 186.981 46.0925 188.091 46.112H188.55C189.66 46.0912 190.719 45.6412 191.504 44.8567C192.289 44.0722 192.739 43.0141 192.76 41.9048L193.003 36.7687C193.01 36.2142 192.906 35.6639 192.697 35.1502C192.488 34.6365 192.178 34.1698 191.786 33.7776C191.394 33.3855 190.927 33.0759 190.413 32.8671C189.899 32.6582 189.348 32.5544 188.793 32.5616Z" fill="white"/>
<path fill-rule="evenodd" clip-rule="evenodd" d="M188.793 33.5065H187.713C186.879 33.5454 186.09 33.8917 185.497 34.4786C185.211 34.755 184.983 35.0855 184.827 35.4508C184.67 35.8161 184.587 36.209 184.584 36.6065V36.7361L184.8 41.8721C184.833 42.7598 185.2 43.6025 185.827 44.2322C186.12 44.5288 186.469 44.7641 186.854 44.9245C187.239 45.0849 187.652 45.1672 188.069 45.1665H188.529C188.944 45.1669 189.356 45.085 189.74 44.9255C190.124 44.7661 190.473 44.5323 190.766 44.2376C191.392 43.6028 191.76 42.7576 191.798 41.8667L192.036 36.7307V36.5902C192.032 36.1957 191.95 35.8058 191.794 35.4433C191.638 35.0807 191.412 34.7528 191.128 34.4786C190.539 33.8962 189.756 33.5503 188.929 33.5065H188.793ZM187.875 31.6216H189.031C190.325 31.6854 191.549 32.2216 192.473 33.1284C192.936 33.5778 193.305 34.1149 193.559 34.7084C193.812 35.3018 193.944 35.9397 193.949 36.5848C193.949 36.6172 193.949 36.6929 193.949 36.8063L193.705 41.9423C193.652 43.305 193.089 44.5981 192.127 45.5661C191.661 46.0387 191.105 46.4135 190.491 46.6685C189.878 46.9235 189.22 47.0537 188.556 47.0513H188.096C187.431 47.0527 186.771 46.9222 186.156 46.6672C185.541 46.4123 184.983 46.0381 184.514 45.5661C183.557 44.5942 182.998 43.2997 182.947 41.9369L182.73 36.8009V36.601C182.734 35.9524 182.867 35.311 183.122 34.7146C183.377 34.1182 183.749 33.5788 184.216 33.1284C185.142 32.2141 186.375 31.6769 187.675 31.6216H187.875Z" fill="#3C3C3C"/>
<path fill-rule="evenodd" clip-rule="evenodd" d="M191.21 78.9747C191.423 78.8787 191.663 78.8651 191.885 78.9366C192.107 79.0081 192.295 79.1596 192.412 79.3616C192.528 79.5637 192.565 79.8017 192.516 80.0296C192.467 80.2576 192.334 80.4591 192.145 80.5949L187.708 83.1547C187.602 83.2311 187.48 83.2844 187.351 83.311C187.223 83.3377 187.09 83.337 186.962 83.3093C186.834 83.2816 186.713 83.2273 186.607 83.15C186.5 83.0726 186.412 82.974 186.346 82.8603C186.281 82.7466 186.24 82.6205 186.226 82.4901C186.212 82.3596 186.225 82.2277 186.266 82.1028C186.306 81.9779 186.372 81.8628 186.459 81.7649C186.547 81.667 186.654 81.5886 186.774 81.5346L191.21 78.9747Z" fill="#3C3C3C"/>
<path fill-rule="evenodd" clip-rule="evenodd" d="M188.793 32.5614H187.874C187.059 32.5624 186.262 32.7962 185.575 33.2354C184.889 33.6746 184.342 34.3009 184 35.0403C184.427 38.0646 185.621 37.7892 187.058 39.3068C188.566 40.927 187.599 43.3302 189.544 43.4707C190.301 43.5247 191.959 43.2168 192.521 42.3905L192.738 42.2069C192.738 42.1151 192.738 42.0233 192.738 41.9261L192.981 36.7901C192.991 36.2356 192.89 35.6847 192.684 35.17C192.477 34.6552 192.17 34.1869 191.779 33.7928C191.389 33.3986 190.924 33.0866 190.411 32.8752C189.898 32.6637 189.348 32.557 188.793 32.5614Z" fill="white"/>
<path fill-rule="evenodd" clip-rule="evenodd" d="M188.794 33.5065H187.875C187.234 33.51 186.608 33.6975 186.071 34.0466C185.622 34.3362 185.251 34.7311 184.99 35.1969C185.249 36.6929 185.768 37.071 186.422 37.5408C186.903 37.8723 187.35 38.2504 187.756 38.6696C188.429 39.4522 188.861 40.4125 188.999 41.4347C189.124 42.0288 189.232 42.5149 189.621 42.5149C190.104 42.5269 190.585 42.4444 191.036 42.2719H191.107C191.353 42.1945 191.574 42.0506 191.744 41.856C191.77 41.816 191.799 41.7781 191.831 41.7426L192.063 36.7361V36.5957C192.059 36.2012 191.977 35.8113 191.821 35.4487C191.666 35.0862 191.439 34.7583 191.155 34.484C190.566 33.9017 189.784 33.5558 188.956 33.5119L188.794 33.5065ZM187.875 31.6216H189.032C190.325 31.6855 191.55 32.2217 192.474 33.1284C192.937 33.5779 193.306 34.115 193.559 34.7084C193.812 35.3019 193.945 35.9398 193.949 36.5849C193.949 36.6173 193.949 36.6929 193.949 36.8064L193.7 42.1098V42.2773C193.675 42.519 193.557 42.7413 193.371 42.8983L193.236 43.0118C192.854 43.471 192.355 43.8197 191.793 44.0217L191.712 44.0541C191.005 44.3135 190.254 44.4328 189.502 44.4051C187.697 44.2755 187.459 43.1629 187.167 41.8127C187.085 41.1337 186.82 40.4898 186.4 39.9495C186.071 39.6146 185.709 39.3142 185.319 39.053C184.239 38.2915 183.434 37.6921 183.077 35.1699C183.049 34.9864 183.075 34.7986 183.153 34.6299C183.563 33.7223 184.229 32.9545 185.071 32.421C185.911 31.8945 186.884 31.6173 187.875 31.6216Z" fill="#3C3C3C"/>
<path fill-rule="evenodd" clip-rule="evenodd" d="M167.563 40.0092L170.443 40.2792L171.486 37.8327L170.875 35.2998C170.875 34.5329 171.075 31.233 170.773 31.098C170.47 30.963 170.389 33.3178 169.946 34.7813L167.304 35.694L167.563 40.0092Z" fill="white"/>
<path fill-rule="evenodd" clip-rule="evenodd" d="M168.443 39.1449L169.832 39.2745L170.486 37.7461L170.005 35.7533L168.276 36.3527L168.443 39.1449ZM170.345 41.2133L167.519 40.9487C167.284 40.941 167.061 40.8458 166.893 40.6819C166.725 40.518 166.625 40.2972 166.611 40.0629L166.352 35.7424C166.341 35.5379 166.397 35.3353 166.511 35.165C166.625 34.9947 166.791 34.8657 166.984 34.7973L169.146 34.0467C169.264 33.5066 169.362 32.8963 169.443 32.3616C169.496 31.8323 169.608 31.3106 169.778 30.8063C169.811 30.6666 169.876 30.5366 169.968 30.4267C170.06 30.3167 170.177 30.2299 170.309 30.1732C170.441 30.1165 170.584 30.0914 170.727 30.1001C170.871 30.1087 171.01 30.1508 171.134 30.223C171.961 30.5903 171.874 33.1394 171.82 34.6137V35.1916L172.388 37.5463C172.453 37.7577 172.441 37.9851 172.355 38.1889L171.307 40.6354C171.23 40.8223 171.095 40.9795 170.922 41.0835C170.749 41.1876 170.546 41.2331 170.345 41.2133Z" fill="#3C3C3C"/>
<path fill-rule="evenodd" clip-rule="evenodd" d="M179.569 55.5146C181.979 55.8819 183.065 50.5838 180.845 50.2543L170.675 48.7368L170.805 41.3055C170.805 41.0894 170.902 41.1921 170.707 40.6466C170.513 40.1011 169.335 39.3666 168.578 39.6367C168.264 39.7393 167.99 39.9388 167.796 40.2065C167.601 40.4743 167.497 40.7966 167.497 41.1273L166.654 50.3084C166.373 53.3436 167.735 53.7216 170.367 54.1266L179.569 55.5146Z" fill="#2B7CFF"/>
<path fill-rule="evenodd" clip-rule="evenodd" d="M182.85 49.6007C183.097 49.6365 183.32 49.769 183.469 49.969C183.619 50.169 183.682 50.4202 183.647 50.6673C183.611 50.9144 183.478 51.1371 183.278 51.2865C183.078 51.4359 182.827 51.4997 182.579 51.4639L169.719 49.5521C169.767 46.7924 169.859 44.0056 169.859 41.2513C169.869 41.1996 169.869 41.1464 169.859 41.0947C169.791 40.9361 169.679 40.8009 169.535 40.7058C169.39 40.5967 169.218 40.5295 169.038 40.5114C168.997 40.505 168.955 40.505 168.913 40.5114C168.774 40.5504 168.649 40.6315 168.557 40.7436C168.478 40.8682 168.435 41.0121 168.432 41.1595L167.546 50.7942C167.487 51.3041 167.589 51.8198 167.838 52.2686C167.919 52.4131 168.033 52.5369 168.17 52.6305C168.306 52.7242 168.463 52.7852 168.627 52.8087L179.742 54.5746C179.989 54.614 180.21 54.7497 180.356 54.9517C180.503 55.1538 180.563 55.4057 180.523 55.652C180.484 55.8984 180.348 56.1191 180.146 56.2654C179.944 56.4118 179.692 56.4719 179.445 56.4325L168.335 54.6665C167.902 54.6038 167.489 54.4452 167.125 54.2023C166.761 53.9593 166.457 53.6382 166.233 53.2623C165.781 52.4621 165.592 51.5402 165.693 50.6268L166.574 41.0731C166.584 40.5529 166.756 40.0488 167.066 39.6307C167.376 39.2127 167.808 38.9014 168.303 38.74C168.58 38.641 168.874 38.6006 169.167 38.6212C169.701 38.6618 170.214 38.8487 170.648 39.1613C171.109 39.4783 171.461 39.9288 171.658 40.452C171.765 40.74 171.81 41.0475 171.788 41.3539L171.68 47.9157L182.85 49.6007Z" fill="#3C3C3C"/>
</g>
<defs>
<clipPath id="clip0_280_3317">
<rect width="204.653" height="126" fill="white"/>
</clipPath>
</defs>
</svg>
