<svg width="116" height="131" viewBox="0 0 116 131" fill="none" xmlns="http://www.w3.org/2000/svg">
<path fill-rule="evenodd" clip-rule="evenodd" d="M54.783 5.38195L47.8524 1.37642C46.6216 0.99121 45.5944 1.31381 44.4983 1.91197L6.51315 23.8594C4.52448 25.0713 3.21541 26.8627 2.20072 28.9203C1.40897 30.5427 0.970274 32.3146 0.913574 34.119L0.938615 121.57C0.994986 123.045 1.25179 124.433 2.40428 125.441L9.338 129.45C8.18551 128.438 7.92559 127.051 7.87861 125.576L7.84728 38.1245C7.90326 36.3183 8.34086 34.5445 9.13132 32.9195C10.1491 30.8619 11.4582 29.0769 13.4437 27.8649L51.4289 5.91747C52.5281 5.31931 53.5522 4.99361 54.783 5.38195Z" fill="white"/>
<path fill-rule="evenodd" clip-rule="evenodd" d="M46.8574 2.10939C46.3282 2.10939 45.755 2.29103 44.9408 2.73574L6.98696 24.6581C5.38663 25.6446 4.10888 27.129 3.03781 29.3213C2.30074 30.8228 1.89693 32.4658 1.85402 34.1379L1.88533 121.567C1.91038 123.133 2.24862 124.073 3.0065 124.74L7.07779 127.079C6.99877 126.586 6.95689 126.088 6.95252 125.589L6.92121 38.1216C6.95719 36.1805 7.42242 34.2714 8.28351 32.5313C9.53622 29.9821 11.0269 28.2565 12.9592 27.0727L50.9569 5.10337C51.22 4.96245 51.4862 4.82778 51.7712 4.70877L47.3867 2.16265C47.2153 2.12201 47.0398 2.10101 46.8637 2.10003L46.8574 2.10939ZM9.33892 130.374C9.18269 130.373 9.02985 130.328 8.89735 130.245L1.93231 126.24C0.285004 124.821 0.0532453 123.017 0.0250594 121.58L0 34.1129C0.0327792 32.1741 0.495965 30.2668 1.35606 28.529C2.60876 25.9735 4.10888 24.2447 6.0537 23.064L44.0388 1.10097C45.135 0.502807 46.5004 -0.0327248 48.1477 0.474621L55.2599 4.54591C55.4418 4.67012 55.5742 4.85426 55.6341 5.06614C55.694 5.27802 55.6775 5.50418 55.5877 5.70518C55.4978 5.90619 55.3402 6.06925 55.1423 6.16589C54.9445 6.26253 54.719 6.28661 54.5052 6.23394C53.7003 5.974 52.9894 6.09927 51.8933 6.70057L13.9301 28.6229C12.3392 29.6 11.052 31.0907 9.98092 33.283C9.24336 34.7816 8.84252 36.4234 8.80651 38.0933L8.82844 125.529C8.85349 127.095 9.19173 128.034 9.95588 128.702C10.1372 128.851 10.2546 129.063 10.2843 129.296C10.314 129.529 10.2537 129.764 10.1156 129.954C10.0292 130.081 9.91363 130.186 9.77846 130.259C9.64329 130.332 9.49254 130.371 9.33892 130.374Z" fill="#3C3C3C"/>
<path fill-rule="evenodd" clip-rule="evenodd" d="M13.5002 129.362L51.4635 107.409C54.5451 105.627 57.085 101.014 57.0537 97.149L57.0286 9.69449C57.0286 5.83303 54.5232 4.1356 51.429 5.91757L13.4439 27.865C10.3622 29.647 7.84741 34.26 7.84741 38.1246L7.87874 125.576C7.87874 129.434 10.4092 131.138 13.5002 129.362Z" fill="white"/>
<path fill-rule="evenodd" clip-rule="evenodd" d="M53.7568 6.13068C53.0983 6.16068 52.4596 6.36494 51.9059 6.72259L13.9177 28.67C11.121 30.2766 8.79411 34.6203 8.79411 38.1247L8.81603 125.576C8.81603 127.186 9.31398 128.395 10.1502 128.889C10.9081 129.315 11.9321 129.203 13.0283 128.558L51.0134 106.604C53.7881 104.994 56.1401 100.654 56.1401 97.1491L56.115 9.69463C56.115 8.08803 55.6202 6.87602 54.759 6.38433C54.4529 6.21346 54.1073 6.12601 53.7568 6.13068ZM11.1429 130.994C10.4736 130.999 9.81518 130.825 9.23568 130.49C7.79193 129.66 6.96515 127.872 6.96515 125.576L6.93384 38.1247C6.93384 33.9595 9.65222 28.9988 12.9719 27.0696L50.957 5.10345C52.6858 4.12008 54.3644 4.00107 55.6985 4.79028C57.1329 5.62646 57.9753 7.41471 57.9753 9.7009L58.0004 97.1554C58.0004 101.317 55.2788 106.288 51.9279 108.22L13.9427 130.164C13.1017 130.69 12.1344 130.979 11.1429 131V130.994Z" fill="#3C3C3C"/>
<path fill-rule="evenodd" clip-rule="evenodd" d="M57.0537 96.0998L57.0286 9.69449C57.0286 5.83303 54.5232 4.1356 51.429 5.91757L13.4439 27.865C10.3622 29.647 7.84741 34.26 7.84741 38.1246L7.87874 124.514L57.0537 96.0998Z" fill="white"/>
<path fill-rule="evenodd" clip-rule="evenodd" d="M53.7568 6.13068C53.0983 6.16068 52.4596 6.36494 51.9059 6.72259L13.9177 28.67C11.121 30.2766 8.79411 34.6203 8.79411 38.1247L8.81603 122.905L56.1401 95.5644L56.115 9.69463C56.115 8.08803 55.6202 6.87603 54.759 6.39374C54.4555 6.21555 54.1087 6.12454 53.7568 6.13068ZM7.87964 125.451C7.72093 125.449 7.5654 125.406 7.42866 125.326C7.28874 125.243 7.1725 125.126 7.09127 124.986C7.01004 124.845 6.96658 124.686 6.96515 124.524L6.93384 38.1341C6.93384 33.9689 9.65222 29.0082 12.9719 27.079L50.957 5.10345C52.6607 4.12008 54.3644 4.00107 55.6985 4.79028C57.1329 5.62646 57.9753 7.41471 57.9753 9.7009L58.0004 96.1062C57.9985 96.2699 57.9539 96.4303 57.8709 96.5715C57.788 96.7127 57.6696 96.8298 57.5275 96.9111L8.35879 125.322C8.21403 125.408 8.04753 125.449 7.87964 125.441V125.451Z" fill="#3C3C3C"/>
<path fill-rule="evenodd" clip-rule="evenodd" d="M2.24769 28.8265L2.20072 28.9204C1.40897 30.5429 0.970274 32.3147 0.913574 34.1192L0.938615 121.57C0.969932 123.046 1.25179 124.433 2.40428 125.441L9.338 129.45C8.18551 128.438 7.92559 127.051 7.87861 125.576L7.84728 38.1247C7.90326 36.3185 8.34086 34.5446 9.13132 32.9197L9.17828 32.832L2.24769 28.8265Z" fill="#2B7CFF"/>
<path fill-rule="evenodd" clip-rule="evenodd" d="M2.66513 30.1577C2.15125 31.4264 1.87627 32.779 1.85402 34.1476L1.88533 121.577C1.91038 123.143 2.24862 124.082 3.0065 124.749L7.07779 127.089C6.99877 126.596 6.95689 126.098 6.95252 125.598L6.92121 38.1312C6.94085 36.4432 7.29642 34.776 7.9672 33.2269L2.64321 30.1577H2.66513ZM9.33892 130.374C9.18269 130.373 9.02985 130.328 8.89735 130.246L1.93231 126.24C0.285004 124.822 0.0532453 123.008 0.0250594 121.58L0 34.1131C0.0335742 32.1715 0.496682 30.2613 1.35606 28.5198C1.47402 28.2752 1.67976 28.0841 1.93231 27.9843C2.05541 27.9371 2.18706 27.9163 2.31872 27.9233C2.45037 27.9303 2.57906 27.965 2.69644 28.025L9.63017 32.0368C9.83353 32.1491 9.98653 32.3346 10.0581 32.5557C10.1296 32.7767 10.1144 33.0167 10.0154 33.2269C9.17921 35.0558 8.81592 36.4995 8.79399 38.1406L8.81592 125.576C8.84097 127.142 9.17919 128.082 9.94335 128.749C10.1246 128.898 10.2421 129.111 10.2718 129.343C10.3015 129.576 10.2411 129.812 10.1031 130.001C10.013 130.118 9.89712 130.213 9.76458 130.277C9.63204 130.342 9.48638 130.375 9.33892 130.374Z" fill="#3C3C3C"/>
<path fill-rule="evenodd" clip-rule="evenodd" d="M4.52498 67.4035C4.2758 67.4035 4.03682 67.3045 3.86063 67.1283C3.68443 66.9521 3.58545 66.7132 3.58545 66.464V57.6951C3.58545 57.4459 3.68443 57.2069 3.86063 57.0307C4.03682 56.8545 4.2758 56.7556 4.52498 56.7556C4.77034 56.7613 5.00372 56.8628 5.1752 57.0383C5.34669 57.2139 5.44265 57.4497 5.44258 57.6951V66.464C5.44265 66.7094 5.34669 66.9451 5.1752 67.1207C5.00372 67.2963 4.77034 67.3978 4.52498 67.4035Z" fill="#3C3C3C"/>
<path fill-rule="evenodd" clip-rule="evenodd" d="M4.52498 52.8313C4.2758 52.8313 4.03682 52.7323 3.86063 52.5561C3.68443 52.3799 3.58545 52.141 3.58545 51.8918V43.1009C3.58545 42.8517 3.68443 42.6128 3.86063 42.4366C4.03682 42.2604 4.2758 42.1614 4.52498 42.1614C4.77034 42.1671 5.00372 42.2686 5.1752 42.4442C5.34669 42.6198 5.44265 42.8555 5.44258 43.1009V51.8918C5.44265 52.1372 5.34669 52.3729 5.1752 52.5485C5.00372 52.7241 4.77034 52.8256 4.52498 52.8313Z" fill="#3C3C3C"/>
<path fill-rule="evenodd" clip-rule="evenodd" d="M29.9046 116.816C29.7402 116.815 29.5789 116.772 29.4362 116.69C29.2936 116.608 29.1745 116.491 29.0904 116.35C28.97 116.139 28.938 115.888 29.0013 115.654C29.0647 115.419 29.2183 115.219 29.4286 115.097L37.0388 110.713C37.2567 110.593 37.5124 110.562 37.7524 110.627C37.9924 110.692 38.1979 110.847 38.3259 111.06C38.4415 111.272 38.4708 111.521 38.4078 111.754C38.3448 111.988 38.1944 112.188 37.9877 112.313L30.3744 116.697C30.2303 116.776 30.0687 116.817 29.9046 116.816Z" fill="#3C3C3C"/>
<path fill-rule="evenodd" clip-rule="evenodd" d="M49.7821 10.9504C49.4862 11.1575 49.2425 11.4305 49.0702 11.7479C48.8979 12.0653 48.8017 12.4184 48.7893 12.7794C48.7893 13.4715 49.2403 13.7722 49.7821 13.459C50.0793 13.2523 50.3241 12.979 50.4971 12.6609C50.67 12.3428 50.7662 11.9887 50.778 11.6269C50.778 10.9347 50.3364 10.6341 49.7821 10.9504Z" fill="white"/>
<path fill-rule="evenodd" clip-rule="evenodd" d="M49.7819 10.9504L50.2329 11.7459C50.258 11.7459 50.258 11.7459 50.258 11.7459L49.7819 10.9598V10.9504ZM49.3654 14.4987C49.1092 14.4989 48.8571 14.4342 48.6326 14.3108C48.3771 14.1475 48.17 13.9187 48.0329 13.6483C47.8958 13.3779 47.8336 13.0757 47.8528 12.7731C47.8637 12.2489 48.0019 11.7352 48.2556 11.2763C48.5093 10.8175 48.8709 10.4272 49.3091 10.1393C49.5464 9.98613 49.8207 9.90005 50.103 9.89013C50.3853 9.8802 50.665 9.94682 50.9125 10.0829C51.168 10.2462 51.375 10.4749 51.5122 10.7454C51.6493 11.0158 51.7115 11.318 51.6923 11.6206C51.6811 12.1451 51.5423 12.659 51.2881 13.1178C51.0338 13.5767 50.6717 13.9668 50.2329 14.2544C49.9706 14.4114 49.6711 14.4957 49.3654 14.4987Z" fill="#3C3C3C"/>
<path fill-rule="evenodd" clip-rule="evenodd" d="M14.2143 35.8605C14.0512 35.8593 13.8912 35.8156 13.7501 35.7338C13.609 35.652 13.4916 35.5348 13.4095 35.3939C13.2942 35.1813 13.2654 34.9324 13.329 34.6991C13.3925 34.4658 13.5436 34.2659 13.7508 34.1412L15.9431 32.8885C16.0486 32.8001 16.1722 32.7359 16.3052 32.7005C16.4382 32.6651 16.5774 32.6594 16.7129 32.6838C16.8483 32.7081 16.9768 32.7619 17.0892 32.8414C17.2016 32.9209 17.2951 33.0241 17.3632 33.1437C17.4313 33.2633 17.4722 33.3965 17.4832 33.5337C17.4942 33.6709 17.4748 33.8088 17.4266 33.9377C17.3784 34.0666 17.3024 34.1834 17.2041 34.2797C17.1057 34.376 16.9874 34.4495 16.8575 34.4951L14.6872 35.7478C14.5416 35.8245 14.3789 35.8632 14.2143 35.8605Z" fill="#3C3C3C"/>
<path fill-rule="evenodd" clip-rule="evenodd" d="M18.5993 33.3364C18.4358 33.335 18.2753 33.2917 18.1332 33.2105C17.9912 33.1294 17.8724 33.0131 17.7882 32.8729C17.7277 32.7685 17.6885 32.6532 17.6728 32.5336C17.6571 32.414 17.6652 32.2926 17.6967 32.1761C17.7281 32.0597 17.7823 31.9506 17.856 31.8552C17.9298 31.7598 18.0217 31.6799 18.1264 31.6202L20.3187 30.3675C20.5291 30.2783 20.7647 30.2688 20.9816 30.3408C21.1985 30.4129 21.3816 30.5615 21.4968 30.7588C21.612 30.9562 21.6513 31.1888 21.6074 31.413C21.5635 31.6373 21.4393 31.8379 21.2582 31.9772L19.066 33.2299C18.9239 33.3096 18.7619 33.3465 18.5993 33.3364Z" fill="#3C3C3C"/>
<path fill-rule="evenodd" clip-rule="evenodd" d="M22.9834 30.8213C22.8226 30.8206 22.665 30.7772 22.5263 30.6958C22.3877 30.6144 22.2731 30.4978 22.1942 30.3579C22.0731 30.1435 22.041 29.8901 22.1049 29.6523C22.1687 29.4145 22.3234 29.2113 22.5355 29.0863L24.7278 27.8336C24.936 27.7589 25.164 27.76 25.3716 27.8369C25.5791 27.9138 25.7528 28.0614 25.8621 28.2539C25.9714 28.4463 26.0093 28.6711 25.9691 28.8887C25.9289 29.1063 25.8131 29.3027 25.6422 29.4434L23.45 30.6961C23.3109 30.7844 23.148 30.8282 22.9834 30.8213Z" fill="#3C3C3C"/>
<path fill-rule="evenodd" clip-rule="evenodd" d="M30.0675 50.138C29.8866 50.1389 29.7088 50.0915 29.5524 50.0007C29.3961 49.9098 29.2668 49.7788 29.1781 49.6212C29.0437 49.3854 29.0078 49.1061 29.0782 48.844C29.1486 48.5819 29.3195 48.3582 29.5539 48.2213L49.7318 36.5774C49.8478 36.5106 49.9758 36.4673 50.1085 36.4499C50.2413 36.4325 50.3761 36.4415 50.5054 36.4762C50.6346 36.511 50.7558 36.5709 50.8619 36.6524C50.968 36.734 51.0571 36.8357 51.1239 36.9517C51.1907 37.0676 51.2341 37.1956 51.2514 37.3284C51.2688 37.4611 51.2598 37.596 51.2251 37.7252C51.1903 37.8545 51.1305 37.9756 51.0489 38.0818C50.9673 38.1879 50.8656 38.2769 50.7496 38.3437L30.5717 49.997C30.4183 50.086 30.2448 50.1345 30.0675 50.138Z" fill="#3C3C3C"/>
<path fill-rule="evenodd" clip-rule="evenodd" d="M20.3497 48.1245L15.9965 50.6299C15.8676 50.7194 15.7594 50.8357 15.6794 50.9708C15.5995 51.1059 15.5495 51.2567 15.533 51.4128V59.9719L22.1442 56.1512C22.3982 55.9554 22.5647 55.6673 22.6077 55.3494V53.7835L24.6277 49.5181V55.3463C24.6064 55.8615 24.4616 56.364 24.2054 56.8115C23.9492 57.259 23.5892 57.6383 23.1557 57.9175L15.9965 62.0702C15.704 62.2359 15.3744 62.3252 15.0382 62.3301C14.7751 62.3326 14.5164 62.2633 14.2897 62.1297C14.03 61.9764 13.8172 61.7551 13.6742 61.4896C13.5312 61.2241 13.4636 60.9245 13.4786 60.6233V51.4034C13.4981 50.8879 13.6426 50.3849 13.8995 49.9375C14.1564 49.4902 14.5182 49.112 14.9537 48.8354L21.8968 44.8768L20.3497 48.1245Z" fill="#3C3C3C"/>
<path fill-rule="evenodd" clip-rule="evenodd" d="M30.0677 70.9674C29.8871 70.969 29.7094 70.9222 29.553 70.8318C29.3966 70.7415 29.2672 70.611 29.1783 70.4538C29.0438 70.2175 29.0078 69.9377 29.0782 69.6751C29.1485 69.4125 29.3195 69.1881 29.5541 69.0507L49.732 57.4037C49.8484 57.333 49.9777 57.2862 50.1124 57.2662C50.2471 57.2461 50.3844 57.2532 50.5163 57.2871C50.6482 57.3209 50.772 57.3808 50.8805 57.4633C50.9889 57.5457 51.0797 57.6489 51.1476 57.7669C51.2155 57.885 51.2591 58.0154 51.2758 58.1505C51.2925 58.2857 51.2821 58.4228 51.245 58.5539C51.208 58.6849 51.1451 58.8072 51.06 58.9136C50.975 59.0199 50.8695 59.1082 50.7499 59.1732L30.5719 70.8265C30.418 70.9142 30.2448 70.9626 30.0677 70.9674Z" fill="#3C3C3C"/>
<path fill-rule="evenodd" clip-rule="evenodd" d="M20.3501 68.9536L15.9969 71.459C15.868 71.5486 15.7598 71.6649 15.6798 71.8C15.5999 71.9351 15.5499 72.0858 15.5334 72.242V80.7979L22.1446 76.9866C22.3986 76.7908 22.5651 76.5027 22.6081 76.1849V74.619L24.6281 70.3535V76.1943C24.6071 76.7091 24.4623 77.2112 24.2061 77.6583C23.9499 78.1053 23.5897 78.484 23.1561 78.7623L15.9969 82.915C15.7051 83.0829 15.3753 83.1735 15.0386 83.1781C14.7757 83.1792 14.5173 83.11 14.2901 82.9777C14.0307 82.8242 13.818 82.6027 13.6751 82.3373C13.5321 82.0718 13.4644 81.7724 13.479 81.4713V72.2514C13.4985 71.7359 13.643 71.2328 13.8999 70.7855C14.1568 70.3381 14.5186 69.9599 14.9541 69.6833L21.8972 65.6966L20.3501 68.9536Z" fill="#3C3C3C"/>
<path fill-rule="evenodd" clip-rule="evenodd" d="M30.0677 91.8C29.8872 91.8009 29.7098 91.7539 29.5535 91.6636C29.3972 91.5734 29.2677 91.4431 29.1783 91.2864C29.0438 91.0501 29.0078 90.7703 29.0782 90.5077C29.1485 90.2451 29.3195 90.0208 29.5541 89.8833L49.732 78.2395C49.848 78.1726 49.976 78.1293 50.1088 78.1119C50.2415 78.0946 50.3763 78.1035 50.5056 78.1383C50.6349 78.173 50.756 78.2329 50.8621 78.3145C50.9683 78.3961 51.0573 78.4977 51.1241 78.6137C51.1909 78.7297 51.2343 78.8577 51.2516 78.9904C51.269 79.1231 51.2601 79.258 51.2253 79.3872C51.1906 79.5165 51.1307 79.6377 51.0491 79.7438C50.9675 79.8499 50.8658 79.939 50.7499 80.0058L30.5719 91.6622C30.4177 91.7488 30.2445 91.7961 30.0677 91.8Z" fill="#3C3C3C"/>
<path fill-rule="evenodd" clip-rule="evenodd" d="M20.3502 89.7862L15.997 92.2916C15.868 92.3818 15.7598 92.4987 15.6798 92.6343C15.5999 92.7699 15.55 92.9211 15.5335 93.0777V101.634L22.1447 97.8223C22.3976 97.6256 22.5639 97.338 22.6081 97.0206V95.4547L24.6281 91.1924V97.0206C24.6069 97.5353 24.462 98.0374 24.2058 98.4844C23.9496 98.9314 23.5896 99.3101 23.1562 99.5886L15.997 103.754C15.7052 103.922 15.3753 104.012 15.0387 104.017C14.7758 104.018 14.5174 103.949 14.2902 103.816C14.0305 103.662 13.8177 103.441 13.6748 103.175C13.5318 102.909 13.4642 102.609 13.4791 102.307V93.0902C13.4983 92.5742 13.6427 92.0706 13.8996 91.6228C14.1565 91.1749 14.5184 90.7961 14.9541 90.519L21.8972 86.5292L20.3502 89.7862Z" fill="#3C3C3C"/>
<path fill-rule="evenodd" clip-rule="evenodd" d="M24.919 87.3027L20.2402 97.1772C20.157 97.353 20.0139 97.4934 19.8366 97.5732C19.6592 97.653 19.4592 97.6669 19.2725 97.6125L17.052 96.9673C16.006 96.6542 16.5603 94.8879 17.6064 95.1885L19.1566 95.6395L23.4377 86.6044C23.9043 85.6116 25.3794 86.3288 24.919 87.3027Z" fill="#3C3C3C"/>
<path fill-rule="evenodd" clip-rule="evenodd" d="M24.919 66.486L20.2402 76.3573C20.158 76.534 20.015 76.6752 19.8374 76.7552C19.6597 76.8351 19.4591 76.8484 19.2725 76.7926L17.052 76.1663C16.006 75.8531 16.5603 74.0836 17.6064 74.3874L19.1566 74.8353L23.4377 65.8002C23.9043 64.7823 25.3794 65.4964 24.919 66.486Z" fill="#3C3C3C"/>
<path fill-rule="evenodd" clip-rule="evenodd" d="M24.919 45.6408L20.2402 55.5247C20.1581 55.7015 20.0152 55.843 19.8377 55.9234C19.6601 56.0039 19.4595 56.018 19.2725 55.9631L17.052 55.318C16.006 55.0048 16.5603 53.2354 17.6064 53.5391L19.1566 53.9901L23.4377 44.955C23.9043 43.9371 25.3794 44.6637 24.919 45.6408Z" fill="#3C3C3C"/>
<path opacity="0.2" d="M100.27 131C108.109 131 114.464 128.725 114.464 125.918C114.464 123.111 108.109 120.836 100.27 120.836C92.43 120.836 86.0747 123.111 86.0747 125.918C86.0747 128.725 92.43 131 100.27 131Z" fill="black"/>
<path fill-rule="evenodd" clip-rule="evenodd" d="M91.9296 82.8596L90.4953 80.8434L87.4139 82.9937L86.0259 84.27L89.8568 84.6815L91.9296 82.8596Z" fill="white"/>
<path fill-rule="evenodd" clip-rule="evenodd" d="M90.8516 82.73L90.301 81.9577L87.9275 83.6132L87.8812 83.6594L89.5885 83.8398L90.8516 82.73ZM91.1523 80.3763L92.5404 82.3508C92.6714 82.5128 92.7349 82.7189 92.7177 82.9265C92.7005 83.1341 92.6038 83.327 92.4478 83.4652L90.3704 85.2871C90.2863 85.3611 90.1878 85.4169 90.0812 85.4512C89.9745 85.4854 89.8619 85.4972 89.7504 85.4859L85.9333 85.0698C85.7802 85.0531 85.6352 84.9928 85.5153 84.8961C85.3954 84.7994 85.3058 84.6704 85.2571 84.5244C85.2084 84.3783 85.2027 84.2214 85.2405 84.0722C85.2784 83.9229 85.3582 83.7878 85.4707 83.6826L86.8587 82.4109L86.942 82.3416L89.991 80.2145H90.0188C90.1034 80.1495 90.2001 80.1021 90.3033 80.075C90.4065 80.048 90.5141 80.0418 90.6197 80.0569C90.7253 80.0719 90.8268 80.108 90.9183 80.1628C91.0098 80.2177 91.0893 80.2903 91.1523 80.3763Z" fill="#3C3C3C"/>
<path fill-rule="evenodd" clip-rule="evenodd" d="M104.825 122.437C105.01 122.376 105.171 122.259 105.285 122.101C105.4 121.943 105.461 121.753 105.461 121.559C105.461 121.364 105.4 121.174 105.285 121.016C105.171 120.859 105.01 120.741 104.825 120.68C104.353 120.44 103.832 120.315 103.302 120.315C102.773 120.315 102.252 120.44 101.78 120.68L97.7828 122.992C97.5994 123.054 97.4399 123.172 97.327 123.329C97.2141 123.486 97.1533 123.675 97.1533 123.868C97.1533 124.062 97.2141 124.25 97.327 124.408C97.4399 124.565 97.5994 124.683 97.7828 124.745C98.2543 124.985 98.7759 125.11 99.305 125.11C99.8341 125.11 100.356 124.985 100.827 124.745L104.825 122.437Z" fill="white"/>
<path fill-rule="evenodd" clip-rule="evenodd" d="M104.421 121.739C104.502 121.694 104.574 121.634 104.634 121.564C104.575 121.492 104.503 121.432 104.421 121.388C104.277 121.304 104.121 121.241 103.959 121.203C103.538 121.11 103.102 121.11 102.682 121.203C102.519 121.241 102.363 121.304 102.219 121.388L102.173 121.411L98.2168 123.695C98.1341 123.738 98.0616 123.798 98.004 123.871C98.0649 123.943 98.1386 124.002 98.2214 124.047H98.2538C98.3999 124.122 98.5556 124.176 98.7165 124.209C99.1371 124.301 99.5728 124.301 99.9934 124.209C100.155 124.17 100.311 124.109 100.456 124.028L104.454 121.716L104.421 121.739ZM105.948 122.502C105.753 122.762 105.506 122.978 105.222 123.136L101.224 125.448C100.936 125.613 100.624 125.733 100.299 125.804C99.9684 125.883 99.6299 125.923 99.2902 125.924C98.9489 125.923 98.609 125.883 98.2769 125.804C97.9773 125.734 97.688 125.625 97.4164 125.48L97.3655 125.448C97.0827 125.292 96.8365 125.078 96.6437 124.819C96.4433 124.552 96.3317 124.228 96.3245 123.894C96.3248 123.583 96.4182 123.278 96.5928 123.02C96.5928 122.993 96.6252 122.969 96.6391 122.946C96.8345 122.69 97.0801 122.476 97.3609 122.317L101.317 120.038L101.358 120.01C101.648 119.847 101.96 119.727 102.284 119.654C102.947 119.5 103.637 119.5 104.301 119.654C104.625 119.727 104.937 119.847 105.226 120.01C105.508 120.167 105.754 120.381 105.948 120.639C106.149 120.906 106.261 121.23 106.267 121.564C106.263 121.875 106.17 122.178 105.999 122.438L105.948 122.502Z" fill="#3C3C3C"/>
<path fill-rule="evenodd" clip-rule="evenodd" d="M113.253 127.196C113.437 127.134 113.596 127.016 113.709 126.859C113.822 126.702 113.883 126.513 113.883 126.32C113.883 126.126 113.822 125.937 113.709 125.78C113.596 125.623 113.437 125.505 113.253 125.443C112.783 125.203 112.262 125.078 111.734 125.078C111.205 125.078 110.684 125.203 110.214 125.443L106.211 127.755C106.028 127.817 105.869 127.935 105.756 128.092C105.643 128.25 105.582 128.438 105.582 128.632C105.582 128.825 105.643 129.014 105.756 129.171C105.869 129.328 106.028 129.446 106.211 129.508C106.683 129.748 107.205 129.873 107.734 129.873C108.263 129.873 108.784 129.748 109.256 129.508L113.253 127.196Z" fill="white"/>
<path fill-rule="evenodd" clip-rule="evenodd" d="M112.851 126.497C112.935 126.456 113.008 126.396 113.064 126.322C113.006 126.25 112.934 126.192 112.851 126.151C112.707 126.067 112.551 126.005 112.389 125.966C112.179 125.918 111.965 125.895 111.75 125.896C111.537 125.894 111.324 125.918 111.116 125.966C110.954 126.004 110.798 126.066 110.654 126.151H110.607L106.652 128.43C106.572 128.476 106.502 128.535 106.443 128.606C106.5 128.68 106.573 128.74 106.656 128.782H106.689C106.835 128.856 106.991 128.912 107.151 128.948C107.572 129.041 108.008 129.041 108.428 128.948C108.59 128.908 108.746 128.846 108.891 128.763L112.888 126.451L112.851 126.497ZM114.378 127.265C114.186 127.525 113.94 127.739 113.656 127.894L109.659 130.206C109.369 130.367 109.057 130.487 108.734 130.562C108.402 130.64 108.062 130.681 107.72 130.682C107.381 130.681 107.042 130.641 106.712 130.562C106.411 130.492 106.122 130.381 105.851 130.234L105.796 130.206C105.514 130.049 105.268 129.835 105.074 129.577C104.874 129.309 104.763 128.986 104.755 128.652C104.758 128.341 104.853 128.037 105.028 127.778L105.069 127.709C105.264 127.45 105.512 127.236 105.796 127.08L109.747 124.796L109.789 124.773C110.078 124.609 110.39 124.489 110.714 124.417C111.378 124.256 112.071 124.256 112.736 124.417C113.06 124.489 113.372 124.609 113.661 124.773C113.945 124.927 114.191 125.142 114.383 125.402C114.583 125.669 114.695 125.992 114.702 126.326C114.702 126.638 114.608 126.942 114.434 127.2C114.418 127.224 114.399 127.246 114.378 127.265Z" fill="#3C3C3C"/>
<path fill-rule="evenodd" clip-rule="evenodd" d="M102.381 84.6534C101.812 84.8742 101.323 85.2616 100.978 85.7649C100.633 86.2682 100.448 86.864 100.447 87.4741C100.442 87.5588 100.442 87.6438 100.447 87.7285L100.48 104.375C100.48 109.541 100.942 115.191 101.141 120.403C101.158 120.592 101.226 120.773 101.336 120.927C101.447 121.082 101.597 121.204 101.77 121.281C102.243 121.519 102.764 121.642 103.293 121.642C103.821 121.642 104.342 121.519 104.815 121.281C104.988 121.203 105.137 121.081 105.248 120.927C105.358 120.772 105.426 120.592 105.444 120.403C105.444 115.043 105.495 109.684 105.495 104.325L106.813 93.7445L108.479 94.6693L108.914 109.124C109.104 114.461 109.354 119.811 109.571 125.147C109.589 125.337 109.657 125.518 109.768 125.673C109.88 125.827 110.03 125.949 110.205 126.026C110.675 126.266 111.196 126.391 111.725 126.391C112.253 126.391 112.774 126.266 113.245 126.026C113.418 125.949 113.568 125.827 113.679 125.672C113.79 125.518 113.857 125.336 113.874 125.147C113.874 119.792 113.925 114.433 113.925 109.074L114.906 92.4728C114.91 92.3897 114.91 92.3063 114.906 92.2232C114.906 90.4197 113.786 89.8417 112.467 89.0926L108.174 86.6649L105.12 84.9401C104.715 84.6895 104.258 84.5335 103.783 84.4838C103.309 84.4342 102.83 84.4922 102.381 84.6534Z" fill="white"/>
<path fill-rule="evenodd" clip-rule="evenodd" d="M102.669 85.4072C102.253 85.5703 101.895 85.8546 101.643 86.2231C101.39 86.5917 101.255 87.0276 101.253 87.4742V87.5713V87.6638C101.258 87.7069 101.258 87.7502 101.253 87.7933L101.29 104.376C101.29 107.853 101.489 111.497 101.683 115.085C101.781 116.852 101.878 118.609 101.947 120.371V120.403C102.008 120.475 102.082 120.534 102.165 120.579H102.197C102.343 120.654 102.499 120.708 102.66 120.741C103.08 120.833 103.516 120.833 103.937 120.741C104.098 120.702 104.254 120.642 104.399 120.56C104.479 120.513 104.551 120.454 104.612 120.385C104.612 118.387 104.612 116.408 104.612 114.424C104.612 111.437 104.64 108.463 104.64 104.32C104.638 104.279 104.638 104.237 104.64 104.195L105.954 93.6382C105.967 93.5307 106.001 93.4269 106.055 93.3329C106.109 93.2389 106.181 93.1567 106.268 93.0911C106.354 93.0256 106.453 92.978 106.558 92.9513C106.663 92.9245 106.772 92.9191 106.879 92.9354C107.01 92.9521 107.135 92.9997 107.245 93.0741L108.841 93.9989C108.963 94.0669 109.064 94.1653 109.137 94.2844C109.209 94.4036 109.249 94.5394 109.253 94.6787L109.688 109.12C109.813 112.653 109.965 116.237 110.122 119.82L110.349 125.147V125.175C110.407 125.248 110.48 125.308 110.562 125.351H110.594C110.739 125.43 110.895 125.486 111.057 125.517C111.265 125.565 111.478 125.589 111.691 125.587C111.906 125.588 112.12 125.565 112.329 125.517C112.492 125.478 112.648 125.416 112.792 125.332C112.876 125.291 112.948 125.231 113.005 125.157C113.005 123.159 113.005 121.175 113.028 119.187C113.028 116.204 113.028 113.222 113.028 109.097C113.026 109.063 113.026 109.029 113.028 108.995L114.004 92.4313V92.3389V92.2464C114.004 90.9608 113.13 90.466 112.084 89.8788L111.978 89.8187L104.64 85.6569C104.301 85.4606 103.927 85.3319 103.539 85.2777C103.205 85.2344 102.866 85.2774 102.553 85.4026L102.669 85.4072ZM100.305 85.3147C100.746 84.6849 101.367 84.2017 102.086 83.9275C102.644 83.7076 103.248 83.6297 103.844 83.7009C104.438 83.7813 105.011 83.9744 105.533 84.2696C107.999 85.6245 110.446 87.0441 112.894 88.4314L112.996 88.4869C114.495 89.3331 115.739 90.0406 115.739 92.2602V92.5793L114.763 109.111C114.763 111.714 114.763 115.46 114.731 119.21C114.731 121.203 114.731 123.201 114.708 125.184C114.707 125.496 114.614 125.8 114.439 126.058C114.427 126.085 114.411 126.109 114.393 126.132C114.201 126.392 113.955 126.607 113.671 126.761C113.382 126.924 113.07 127.044 112.746 127.117C112.081 127.278 111.388 127.278 110.724 127.117C110.424 127.047 110.134 126.937 109.863 126.789L109.808 126.761C109.525 126.607 109.281 126.392 109.091 126.132C108.892 125.864 108.782 125.541 108.776 125.208C108.707 123.515 108.628 121.721 108.549 119.922C108.397 116.366 108.244 112.815 108.119 109.213L107.698 95.2058L107.476 95.081L106.315 104.422C106.315 107.011 106.315 110.752 106.282 114.479C106.282 116.471 106.282 118.461 106.282 120.449C106.278 120.76 106.185 121.063 106.014 121.323L105.968 121.393C105.772 121.652 105.525 121.867 105.241 122.026C104.952 122.187 104.64 122.306 104.316 122.378C103.653 122.538 102.962 122.538 102.299 122.378C101.997 122.308 101.706 122.199 101.433 122.054L101.383 122.026C101.1 121.868 100.854 121.652 100.661 121.393C100.46 121.125 100.349 120.802 100.342 120.468C100.272 118.794 100.175 117.018 100.078 115.233C99.8789 111.585 99.6754 107.881 99.6754 104.44C99.6754 98.8913 99.8327 93.0556 99.6291 87.539C99.617 86.7453 99.8531 85.9677 100.305 85.3147Z" fill="#3C3C3C"/>
<path fill-rule="evenodd" clip-rule="evenodd" d="M108.544 62.2493C108.127 62.547 107.644 62.7412 107.137 62.816C106.629 62.8908 106.111 62.844 105.625 62.6794C104.751 62.3326 104.639 61.5789 105.375 60.9916C105.795 60.6967 106.279 60.5045 106.786 60.4306C107.294 60.3567 107.813 60.4032 108.299 60.5662C109.174 60.913 109.285 61.6667 108.544 62.2493Z" fill="white"/>
<path fill-rule="evenodd" clip-rule="evenodd" d="M109.044 62.8828C108.516 63.2654 107.904 63.5148 107.26 63.6098C106.615 63.7048 105.957 63.6426 105.342 63.4285C104.983 63.2988 104.664 63.0772 104.417 62.7857C104.245 62.5698 104.132 62.3134 104.088 62.0412C104.051 61.7687 104.086 61.4913 104.19 61.2366C104.336 60.8905 104.57 60.589 104.87 60.3626C105.396 59.9693 106.014 59.7177 106.665 59.632C107.312 59.5258 107.975 59.5895 108.59 59.8169C108.95 59.9425 109.27 60.163 109.515 60.4551C109.691 60.6692 109.804 60.9269 109.844 61.2006C109.884 61.4743 109.849 61.7536 109.742 62.0088C109.597 62.3553 109.362 62.6569 109.062 62.8828H109.044ZM107.008 62.0366C107.378 61.9953 107.732 61.86 108.035 61.6435C108.104 61.5947 108.163 61.5316 108.206 61.4586C108.144 61.4039 108.072 61.3629 107.993 61.3383C107.638 61.2266 107.262 61.1965 106.894 61.2501C106.525 61.3038 106.174 61.4398 105.865 61.6482C105.797 61.6968 105.739 61.7581 105.694 61.8285C105.758 61.8831 105.832 61.9253 105.911 61.9533C106.264 62.0743 106.641 62.103 107.008 62.0366Z" fill="#3C3C3C"/>
<path fill-rule="evenodd" clip-rule="evenodd" d="M105.254 65.1439C106.337 62.8319 101.659 60.788 100.322 63.7012L96.528 75.3865L90.2126 80.5564C88.6163 81.8651 90.4439 83.8904 91.7487 82.9795L98.6193 78.1749C99.1505 77.8689 99.5654 77.3957 99.7992 76.8293L105.254 65.1439Z" fill="#2B7CFF"/>
<path fill-rule="evenodd" clip-rule="evenodd" d="M104.524 64.8112C104.6 64.6177 104.612 64.4045 104.556 64.2041C104.5 64.0037 104.38 63.8271 104.214 63.7013C104.023 63.5287 103.806 63.3881 103.571 63.2852C103.318 63.1763 103.049 63.1092 102.775 63.0864C102.43 63.0426 102.081 63.1084 101.776 63.2744C101.471 63.4405 101.227 63.6983 101.077 64.0112L97.2227 75.886L90.7453 81.2038C90.6336 81.2744 90.5446 81.3756 90.4889 81.4953C90.4331 81.6149 90.4129 81.7482 90.4307 81.879C90.4542 81.9729 90.4966 82.061 90.5556 82.1379C90.6188 82.22 90.6974 82.2891 90.7869 82.3414C90.8634 82.3931 90.9537 82.4207 91.046 82.4207C91.1384 82.4207 91.2286 82.3931 91.3051 82.3414C93.6185 80.7229 95.9319 79.1045 98.2453 77.4814C98.6212 77.2569 98.9136 76.916 99.0781 76.5103L104.533 64.825L104.524 64.8112ZM105.31 62.4991C105.74 62.8476 106.04 63.33 106.162 63.8691C106.285 64.4082 106.223 64.9728 105.986 65.4724L100.531 77.1716C100.257 77.8466 99.7695 78.4134 99.1428 78.7854L92.2027 83.6408C91.8764 83.8741 91.4883 84.0057 91.0873 84.0189C90.6863 84.0321 90.2904 83.9262 89.9495 83.7148C89.676 83.5553 89.437 83.3431 89.2462 83.0905C89.0479 82.832 88.9075 82.534 88.8344 82.2165C88.7341 81.7888 88.7627 81.341 88.9167 80.9295C89.0706 80.5181 89.3431 80.1614 89.6996 79.9045L95.8301 74.8872L99.5593 63.3961L99.587 63.3453C99.8579 62.712 100.328 62.1841 100.925 61.8412C101.523 61.4984 102.216 61.3592 102.9 61.4447C103.35 61.4842 103.791 61.5967 104.204 61.7777C104.612 61.9533 104.986 62.1973 105.31 62.4991Z" fill="#3C3C3C"/>
<path fill-rule="evenodd" clip-rule="evenodd" d="M100.803 87.2616C100.225 86.9287 99.9797 86.4709 100.072 86.0362V64.6864C100.29 62.7396 103.158 61.0842 104.417 61.8102L110.552 65.3523L112.823 66.6609C113.781 67.1973 115.003 68.3395 115.03 69.6851V91.7193C115.063 91.8514 115.063 91.9895 115.03 92.1216V92.2141C114.938 92.4915 115.294 92.7412 114.609 93.1389C113.925 93.5366 111.995 93.7169 110.991 93.1389L100.813 87.2754L100.803 87.2616Z" fill="#2B7CFF"/>
<path fill-rule="evenodd" clip-rule="evenodd" d="M100.466 87.997C100.416 87.9738 100.368 87.9459 100.323 87.9138C99.9884 87.7163 99.7061 87.4421 99.4991 87.1138C99.2915 86.7749 99.2081 86.3745 99.2631 85.9809V64.7097C99.2583 64.6604 99.2583 64.6109 99.2631 64.5617C99.331 64.1155 99.4884 63.6878 99.7258 63.3039C100.187 62.5367 100.837 61.9 101.613 61.4542C102.326 61.0146 103.155 60.8018 103.992 60.8439C104.287 60.8774 104.573 60.9685 104.834 61.112L113.227 65.9582C113.95 66.3686 114.58 66.9244 115.077 67.5905C115.54 68.1885 115.806 68.9158 115.836 69.6714V91.6316C115.854 91.7308 115.864 91.8314 115.864 91.9322C115.863 92.0236 115.855 92.1148 115.841 92.205C115.841 92.2738 115.832 92.3423 115.813 92.4085C115.878 92.8386 115.887 93.2964 114.989 93.7958C114.275 94.1252 113.494 94.2836 112.708 94.2582C111.968 94.2871 111.233 94.128 110.571 93.7958L100.466 87.9693V87.997ZM100.882 86.2861C100.954 86.3854 101.045 86.4689 101.151 86.5311C101.193 86.5497 101.234 86.573 101.271 86.6005L111.371 92.427C111.789 92.62 112.248 92.7089 112.708 92.686C113.213 92.7093 113.717 92.6209 114.184 92.427V92.575C114.184 92.5287 114.184 92.4825 114.184 92.4362C114.167 92.2968 114.178 92.1551 114.217 92.0201C114.223 91.9934 114.231 91.9672 114.24 91.9415V91.9044C114.223 91.8443 114.215 91.7819 114.217 91.7195V69.7037C114.185 69.2773 114.023 68.8708 113.754 68.5385C113.39 68.0607 112.932 67.6626 112.408 67.3686C109.868 65.6854 106.666 64.053 103.992 62.5085C103.926 62.4775 103.856 62.4587 103.783 62.4531C103.291 62.4437 102.808 62.5822 102.395 62.8507C101.865 63.1463 101.419 63.573 101.1 64.09C100.983 64.2849 100.903 64.4997 100.864 64.7235V86.0364C100.871 86.0917 100.871 86.1476 100.864 86.2028C100.861 86.2319 100.867 86.2611 100.882 86.2861Z" fill="#3C3C3C"/>
<path fill-rule="evenodd" clip-rule="evenodd" d="M109.612 61.5969H105.448L105.138 65.569C105.136 65.6091 105.136 65.6492 105.138 65.6893C105.158 65.9004 105.233 66.1025 105.357 66.2748C105.48 66.4471 105.648 66.5834 105.841 66.6696C106.368 66.9387 106.951 67.079 107.542 67.079C108.133 67.079 108.716 66.9387 109.242 66.6696C109.437 66.5844 109.606 66.4485 109.73 66.2761C109.855 66.1037 109.93 65.901 109.95 65.6893C109.952 65.6492 109.952 65.6091 109.95 65.569L109.612 61.5969Z" fill="white"/>
<path fill-rule="evenodd" clip-rule="evenodd" d="M108.859 62.4068H106.176L105.926 65.6437V65.7038C105.926 65.7038 105.926 65.7361 105.958 65.7685C106.032 65.86 106.123 65.9356 106.227 65.9905C106.631 66.1851 107.074 66.2862 107.522 66.2862C107.971 66.2862 108.414 66.1851 108.818 65.9905C108.92 65.9342 109.011 65.8588 109.086 65.7685C109.1 65.7492 109.109 65.7272 109.114 65.7038V65.6437L108.869 62.4068H108.859ZM105.431 60.793H110.354L110.715 65.4726C110.719 65.545 110.719 65.6175 110.715 65.6899C110.713 66.0512 110.596 66.4025 110.381 66.6933C110.176 66.972 109.913 67.2025 109.609 67.3685C108.96 67.7087 108.239 67.8865 107.506 67.8865C106.773 67.8865 106.052 67.7087 105.403 67.3685C105.099 67.2025 104.836 66.972 104.63 66.6933C104.416 66.4025 104.299 66.0512 104.297 65.6899C104.297 65.6576 104.297 65.6206 104.297 65.5697C104.299 65.5389 104.299 65.508 104.297 65.4772L104.663 60.793H105.431Z" fill="#3C3C3C"/>
<path fill-rule="evenodd" clip-rule="evenodd" d="M105.227 52.5342L106.004 52.4186C106.474 52.3447 106.953 52.3652 107.414 52.4788C107.875 52.5925 108.309 52.7971 108.69 53.0805C109.071 53.3639 109.391 53.7204 109.632 54.1293C109.874 54.5381 110.031 54.991 110.095 55.4613L110.557 59.8358C110.679 60.7787 110.429 61.732 109.861 62.4946C109.294 63.2572 108.451 63.7695 107.513 63.9236L107.124 63.9837C106.182 64.0971 105.232 63.8447 104.471 63.2784C103.71 62.7122 103.196 61.8754 103.034 60.941L102.192 56.622C102.116 56.1536 102.135 55.6747 102.247 55.2137C102.36 54.7526 102.563 54.3187 102.846 53.9377C103.129 53.5566 103.486 53.2361 103.894 52.9951C104.303 52.754 104.757 52.5973 105.227 52.5342Z" fill="white"/>
<path fill-rule="evenodd" clip-rule="evenodd" d="M105.111 51.7343L105.888 51.6187H106.073C107.182 51.5045 108.293 51.8061 109.191 52.465C109.644 52.7911 110.026 53.2048 110.315 53.6814C110.605 54.158 110.795 54.6879 110.876 55.2395C110.876 55.2765 110.876 55.3366 110.899 55.4106L111.361 59.7896C111.479 60.9401 111.166 62.0934 110.482 63.0265C110.144 63.485 109.717 63.8718 109.228 64.1647C108.739 64.4576 108.197 64.6506 107.632 64.7328L107.244 64.7929C106.682 64.8755 106.109 64.8457 105.558 64.7052C105.008 64.5647 104.491 64.3163 104.037 63.9745C103.103 63.275 102.463 62.2529 102.242 61.1075L101.4 56.7839C101.4 56.7146 101.4 56.6544 101.368 56.5989C101.291 56.0516 101.325 55.4944 101.466 54.9601C101.608 54.4258 101.854 53.925 102.191 53.4869C102.858 52.6022 103.829 51.9946 104.916 51.7806L105.12 51.7436L105.111 51.7343ZM106.119 53.2187L105.347 53.3343H105.217C104.521 53.4732 103.9 53.8633 103.473 54.4302C103.265 54.6977 103.113 55.0041 103.025 55.3313C102.938 55.6585 102.917 56 102.964 56.3354C102.964 56.377 102.964 56.4186 102.964 56.451L103.806 60.7699C103.95 61.5192 104.365 62.1892 104.972 62.652C105.257 62.867 105.583 63.0232 105.929 63.1113C106.275 63.1994 106.636 63.2177 106.989 63.1652L107.378 63.1052C107.732 63.055 108.072 62.9346 108.379 62.7511C108.685 62.5677 108.952 62.3249 109.164 62.037C109.615 61.4213 109.818 60.6588 109.733 59.9006L109.27 55.5262V55.4198C109.216 55.0827 109.096 54.7597 108.916 54.4693C108.737 54.1788 108.502 53.9267 108.225 53.7274C107.65 53.3057 106.939 53.1128 106.23 53.1863L106.119 53.2187Z" fill="#3C3C3C"/>
<path fill-rule="evenodd" clip-rule="evenodd" d="M92.0121 84.9122L98.7394 88.7966L90.5315 87.9087L83.8042 84.0291L92.0121 84.9122Z" fill="#F9FAFE"/>
<path fill-rule="evenodd" clip-rule="evenodd" d="M92.4391 84.2329L99.1479 88.1034C99.3097 88.1953 99.4346 88.3403 99.5014 88.5139C99.5683 88.6874 99.5729 88.8787 99.5146 89.0553C99.4563 89.2318 99.3385 89.3828 99.1814 89.4824C99.0243 89.582 98.8375 89.6242 98.6529 89.6017L90.4496 88.7184C90.3184 88.7055 90.1926 88.6594 90.0841 88.5844L83.4077 84.7323C83.3154 84.68 83.2344 84.61 83.1694 84.5263C83.1043 84.4426 83.0564 84.3468 83.0284 84.2446C83.0005 84.1423 82.993 84.0355 83.0065 83.9303C83.02 83.8252 83.0541 83.7237 83.1069 83.6318C83.186 83.497 83.3023 83.3879 83.4418 83.3174C83.5812 83.2469 83.7381 83.2179 83.8935 83.2341L92.1014 84.1173C92.2213 84.1298 92.3368 84.1693 92.4391 84.2329ZM95.0255 87.5902L91.759 85.7035L87.5163 85.2411L90.7874 87.1277L95.0255 87.5902Z" fill="#3C3C3C"/>
<path fill-rule="evenodd" clip-rule="evenodd" d="M97.2598 83.132L95.335 83.058L94.4097 84.3897L91.3699 85.6567C91.5411 85.9573 91.8742 86.5353 92.1981 86.4336C94.2107 85.8001 93.3733 87.0578 94.7613 86.8636C96.6907 86.5908 96.7555 86.3735 99.2215 85.1805L98.5923 82.7898L97.2598 83.132Z" fill="white"/>
<path fill-rule="evenodd" clip-rule="evenodd" d="M97.1663 83.9367L95.7505 83.8812L95.0981 84.843C95.0091 84.9717 94.8856 85.0726 94.7418 85.1344L93.7841 85.5321C94.0218 85.6396 94.2333 85.7974 94.4041 85.9945C94.4411 86.0361 94.4781 86.0731 94.6724 86.0454C95.7115 85.9391 96.7144 85.6061 97.6104 85.0697L98.2952 84.7274L98.0407 83.7517L97.4578 83.8951C97.3615 83.9135 97.2626 83.9135 97.1663 83.8951V83.9367ZM95.3618 82.2535L97.1663 82.3229L98.4155 82.0038C98.6222 81.9517 98.8411 81.9832 99.0248 82.0914C99.2084 82.1996 99.342 82.3759 99.3964 82.5819L100.021 84.9633C100.068 85.1428 100.051 85.333 99.9731 85.5016C99.8956 85.6701 99.7621 85.8066 99.5953 85.8881C99.0818 86.1378 98.67 86.3506 98.3369 86.5124C97.2854 87.1356 96.1107 87.5222 94.8945 87.6453C94.594 87.7292 94.2754 87.7221 93.9789 87.6249C93.6825 87.5278 93.4214 87.345 93.2289 87.0996C93.1687 87.0395 93.1133 86.9794 92.4609 87.1875C92.2196 87.2569 91.9626 87.2497 91.7256 87.1669C91.4885 87.084 91.283 86.9297 91.1376 86.7251C90.9615 86.5175 90.8066 86.2928 90.6749 86.0546L90.6333 85.9714C90.5923 85.8736 90.5711 85.7688 90.5708 85.6628C90.5705 85.5569 90.5912 85.4519 90.6316 85.3539C90.672 85.2559 90.7313 85.1669 90.8063 85.092C90.8812 85.017 90.9702 84.9575 91.0682 84.917L93.8859 83.7425L94.6308 82.642C94.7071 82.5182 94.8151 82.4169 94.9436 82.3486C95.0721 82.2803 95.2164 82.2475 95.3618 82.2535Z" fill="#3C3C3C"/>
<path fill-rule="evenodd" clip-rule="evenodd" d="M109.784 69.2548L114.615 71.1507L109.021 82.6188C108.915 82.8789 108.748 83.1101 108.535 83.2934C108.322 83.4767 108.068 83.6069 107.795 83.6731L107.661 83.7008L98.9764 85.4441C98.7882 85.4867 98.5938 85.4946 98.4027 85.4673C98.0759 85.414 97.7776 85.2489 97.559 85.0003C97.3403 84.7517 97.2148 84.4349 97.2039 84.1041C97.193 83.7733 97.2974 83.449 97.4991 83.1865C97.7009 82.924 97.9875 82.7397 98.3102 82.665L106.004 80.5101L109.784 69.2548Z" fill="#2B7CFF"/>
<path fill-rule="evenodd" clip-rule="evenodd" d="M114.065 69.0328C114.021 68.9366 113.996 68.8326 113.992 68.7268C113.988 68.621 114.005 68.5155 114.042 68.4164C114.079 68.3172 114.135 68.2263 114.207 68.1487C114.28 68.0712 114.366 68.0086 114.463 67.9646C114.559 67.9206 114.663 67.896 114.769 67.8921C114.875 67.8883 114.98 67.9053 115.079 67.9423C115.179 67.9792 115.27 68.0353 115.347 68.1074C115.425 68.1794 115.487 68.2661 115.531 68.3623C115.723 68.7827 115.828 69.237 115.841 69.6987C115.851 70.1561 115.767 70.6107 115.596 71.0351C115.559 71.1229 115.517 71.2155 115.467 71.3126C115.416 71.4097 115.388 71.4559 115.351 71.5206L109.785 82.9701C109.628 83.3251 109.394 83.6409 109.1 83.8949C108.789 84.1624 108.417 84.3511 108.017 84.4452L107.925 84.4729L99.2081 86.2209C99.0564 86.2579 98.9014 86.2795 98.7454 86.2856C98.5906 86.2912 98.4357 86.2819 98.2827 86.2579C97.7732 86.1732 97.3086 85.9152 96.9677 85.5275C96.6267 85.1397 96.4304 84.6461 96.4118 84.1302C96.3933 83.6144 96.5538 83.108 96.8661 82.6968C97.1784 82.2857 97.6233 81.995 98.1254 81.8741L105.385 79.8441L107.809 72.6166C107.843 72.5164 107.896 72.4238 107.966 72.3441C108.035 72.2644 108.12 72.1992 108.214 72.1522C108.309 72.1052 108.412 72.0773 108.518 72.0701C108.623 72.0629 108.729 72.0765 108.829 72.1102C108.93 72.1439 109.022 72.197 109.102 72.2665C109.182 72.336 109.247 72.4205 109.294 72.5152C109.341 72.6099 109.369 72.7128 109.376 72.8183C109.383 72.9238 109.37 73.0296 109.336 73.1298L106.639 81.1666C103.927 81.925 101.216 82.7065 98.5002 83.4464C98.3799 83.4746 98.2706 83.5372 98.1856 83.6267C98.1027 83.7169 98.048 83.8295 98.0282 83.9504C98.0143 84.0306 98.0165 84.1128 98.0347 84.1922C98.0528 84.2715 98.0865 84.3465 98.1338 84.4127C98.1812 84.4789 98.2412 84.5352 98.3104 84.578C98.3797 84.6209 98.4567 84.6496 98.5372 84.6625C98.5801 84.6693 98.6238 84.6693 98.6667 84.6625C98.705 84.6688 98.7441 84.6688 98.7824 84.6625C101.646 84.1446 104.691 83.5388 107.536 82.9053H107.569C107.638 82.9053 107.569 82.9053 107.606 82.9053C107.753 82.8697 107.89 82.7982 108.004 82.6973C108.121 82.5988 108.213 82.4735 108.272 82.3319V82.2764L113.88 70.7854L113.912 70.7345C113.943 70.6902 113.971 70.6438 113.995 70.5958L114.06 70.4524C114.15 70.2259 114.194 69.9839 114.19 69.7403C114.198 69.4983 114.156 69.2572 114.065 69.0328Z" fill="#3C3C3C"/>
<path fill-rule="evenodd" clip-rule="evenodd" d="M103.705 92.8518C103.602 92.8056 103.511 92.7384 103.436 92.6546C103.361 92.5708 103.304 92.4722 103.27 92.3653C103.236 92.2584 103.224 92.1454 103.236 92.0337C103.248 91.9219 103.283 91.814 103.339 91.7167C103.395 91.6193 103.471 91.5348 103.562 91.4686C103.653 91.4024 103.756 91.3559 103.866 91.3321C103.976 91.3084 104.09 91.3079 104.2 91.3307C104.31 91.3535 104.414 91.3991 104.505 91.4646L108.891 93.994C109.057 94.1094 109.173 94.2828 109.217 94.4799C109.261 94.677 109.229 94.8833 109.128 95.0579C109.026 95.2325 108.863 95.3627 108.67 95.4226C108.477 95.4825 108.269 95.4677 108.086 95.3812L103.705 92.8518Z" fill="#3C3C3C"/>
<path fill-rule="evenodd" clip-rule="evenodd" d="M104.921 51.9512L105.694 51.8264C106.162 51.7454 106.641 51.7586 107.104 51.8654C107.567 51.9721 108.004 52.1702 108.39 52.4481C108.775 52.7259 109.101 53.0778 109.348 53.4833C109.595 53.8887 109.759 54.3394 109.83 54.809C110.112 57.1951 111.435 61.5141 109.367 63.3176C108.932 63.6685 108.426 63.9223 107.884 64.0619C107.342 64.2015 106.777 64.2236 106.226 64.1268C104.01 63.7106 103.385 63.202 102.867 60.617C105.328 60.1546 107.211 61.2829 107.757 61.4633C107.839 61.4812 107.925 61.4784 108.006 61.455C108.086 61.4315 108.16 61.3883 108.22 61.3291C108.283 61.2709 108.331 61.1987 108.361 61.1184C108.39 61.038 108.401 60.9518 108.391 60.8667L107.813 56.0807C104.949 56.8945 101.173 56.1685 100.303 53.1304C101.821 53.5142 103.547 52.1778 104.921 51.9512Z" fill="white"/>
<path fill-rule="evenodd" clip-rule="evenodd" d="M104.792 51.156L105.569 51.0312H105.75C106.857 50.9001 107.973 51.1853 108.882 51.8312C109.338 52.1487 109.725 52.554 110.021 53.0234C110.318 53.4927 110.517 54.0165 110.608 54.564V54.7351C110.663 55.1976 110.751 55.697 110.848 56.2519C111.311 58.8414 111.889 62.1893 109.895 63.9465C109.374 64.3888 108.759 64.7053 108.095 64.8714C107.435 65.0432 106.745 65.07 106.074 64.95C104.801 64.7142 103.969 64.4321 103.325 63.7847C102.682 63.1373 102.358 62.2633 102.067 60.8067C102.031 60.6004 102.078 60.3885 102.196 60.2158C102.315 60.0431 102.495 59.9233 102.701 59.8818H102.729C104.368 59.6022 106.053 59.8414 107.55 60.5662L107.133 57.112C105.646 57.3791 104.115 57.2467 102.696 56.7282C101.943 56.4624 101.265 56.0214 100.716 55.4417C100.167 54.862 99.7644 54.1602 99.5407 53.3942C99.4838 53.1882 99.5107 52.9679 99.6156 52.7817C99.7205 52.5954 99.8948 52.4582 100.101 52.4C100.251 52.3518 100.413 52.3518 100.563 52.4C101.225 52.5618 102.104 52.1873 102.946 51.8312C103.536 51.5521 104.157 51.344 104.797 51.2115L104.792 51.156ZM105.828 52.6265L105.051 52.7514C104.545 52.8679 104.054 53.0384 103.584 53.2601C102.958 53.5527 102.302 53.7775 101.627 53.9305C102.061 54.4908 102.643 54.9185 103.307 55.1652C104.698 55.6596 106.21 55.7033 107.628 55.2901L107.753 55.2669C107.858 55.254 107.965 55.2619 108.067 55.2903C108.169 55.3187 108.265 55.3669 108.348 55.4322C108.431 55.4974 108.501 55.5786 108.553 55.6708C108.605 55.7631 108.638 55.8647 108.651 55.9698L109.229 60.7558C109.253 60.968 109.229 61.1828 109.16 61.3847C109.085 61.591 108.961 61.7766 108.801 61.9261C108.64 62.0756 108.446 62.1848 108.234 62.2448C108.002 62.3164 107.754 62.3164 107.522 62.2448C107.397 62.2032 107.249 62.1385 107.059 62.0599C106.063 61.5708 104.967 61.3206 103.857 61.3292C103.956 61.8103 104.174 62.2588 104.491 62.6333C104.843 62.994 105.417 63.1743 106.379 63.35C106.822 63.4273 107.277 63.4067 107.711 63.2899C108.126 63.1923 108.512 63.0009 108.84 62.7304C110.159 61.5697 109.659 58.7166 109.275 56.5155C109.174 55.9328 109.076 55.3872 109.021 54.9201V54.8138C108.964 54.4772 108.841 54.1554 108.658 53.8671C108.476 53.5789 108.237 53.33 107.957 53.1352C107.375 52.7227 106.662 52.5399 105.953 52.6219L105.828 52.6265Z" fill="#3C3C3C"/>
</svg>
