<svg width="132" height="130" viewBox="0 0 132 130" fill="none" xmlns="http://www.w3.org/2000/svg">
<g clip-path="url(#clip0_280_3250)">
<path fill-rule="evenodd" clip-rule="evenodd" d="M10.7072 116.343L2.53845 111.657C1.10648 110.494 1.04139 109.783 0.878662 108.005L0.911207 60.3691L9.07998 65.0552L9.04743 112.691C9.21016 114.469 9.27525 115.18 10.7072 116.343Z" fill="white"/>
<path fill-rule="evenodd" clip-rule="evenodd" d="M1.75742 61.8879V108.005C1.92015 109.589 1.95269 110.041 3.09177 110.978L8.26641 113.952C8.20132 113.596 8.20132 113.208 8.13623 112.788L8.16877 65.5721L1.75742 61.8879ZM10.7073 117.216C10.5445 117.216 10.4144 117.183 10.2516 117.119L2.08287 112.433C0.325449 111.011 0.162725 110.041 0 108.102L0.0325449 60.369C0.0325449 60.0458 0.195269 59.7549 0.455629 59.5934C0.715988 59.4318 1.07398 59.4318 1.36689 59.5934L9.50311 64.2794C9.79602 64.441 9.95874 64.7319 9.95874 65.055L9.9262 112.691C10.0889 114.275 10.0889 114.727 11.2605 115.664C11.6185 115.955 11.6836 116.472 11.4233 116.86C11.2605 117.086 10.9676 117.216 10.7073 117.216Z" fill="#414141"/>
<path fill-rule="evenodd" clip-rule="evenodd" d="M9.04736 65.0553L0.911133 60.3692V44.9214C1.07386 41.0433 3.28691 37.2622 6.60649 35.1615L65.1548 1.61587C66.782 0.87257 67.4655 0.581712 69.1578 1.22806L77.294 5.91411C75.6017 5.26776 74.9183 5.55862 73.291 6.30192L14.7102 39.8476C11.4231 41.9482 9.21008 45.6971 9.04736 49.6075V65.0553Z" fill="#2B7CFF"/>
<path fill-rule="evenodd" clip-rule="evenodd" d="M1.75735 59.852L8.1687 63.5038V49.575C8.33142 45.3414 10.6747 41.334 14.2546 39.0718L72.868 5.52611C73.291 5.3322 73.6816 5.17061 74.007 5.00903L68.7022 1.97117C67.4655 1.51873 67.0424 1.68032 65.5128 2.3913L7.02963 35.9369C3.9704 37.876 1.95262 41.334 1.7899 44.9859L1.75735 59.852ZM9.04741 65.9277C8.88468 65.9277 8.75451 65.8953 8.59178 65.7984L0.455554 61.1123C0.16265 60.9508 0.0324707 60.6599 0.0324707 60.3367V44.9212C0.195195 40.6876 2.53843 36.6803 6.11837 34.418L64.6992 0.840059C66.5217 -0.000197608 67.4655 -0.355691 69.4833 0.387613L77.7822 5.1383C78.1728 5.36452 78.3355 5.84928 78.1402 6.26941C77.945 6.68954 77.4568 6.88345 77.0337 6.72186C75.6668 6.20478 75.2437 6.39868 73.7141 7.07735L15.1984 40.623C12.1392 42.562 10.1214 46.02 9.95867 49.6396V65.0551C9.95867 65.3783 9.79594 65.6691 9.50304 65.8307C9.37286 65.8953 9.21013 65.9277 9.04741 65.9277Z" fill="#414141"/>
<path fill-rule="evenodd" clip-rule="evenodd" d="M14.743 39.8475L73.3238 6.30189C76.4481 4.52443 78.9866 5.97872 78.9866 9.56597L78.9541 24.9815L9.04761 65.0553V49.6075C9.04761 46.0202 11.6187 41.625 14.743 39.8475Z" fill="#2B7CFF"/>
<path fill-rule="evenodd" clip-rule="evenodd" d="M15.1984 40.6231C12.367 42.239 9.95867 46.3756 9.95867 49.6074V63.5363L78.1077 24.4643V9.5659C78.1077 8.14392 77.6846 7.14208 76.871 6.68963C76.0899 6.23718 75.0159 6.36645 73.7792 7.07744L15.1984 40.6231ZM9.04741 65.9278C8.88469 65.9278 8.75451 65.8955 8.59178 65.7985C8.33143 65.6369 8.1687 65.3461 8.1687 65.0552V49.6074C8.1687 45.7293 10.935 41.0109 14.2871 39.0719L72.868 5.5262C74.6579 4.49203 76.4154 4.36276 77.7823 5.13838C79.1166 5.91401 79.8977 7.49757 79.8977 9.53358V24.9491C79.8977 25.2722 79.7024 25.5631 79.442 25.6924L9.50304 65.7662C9.37286 65.8955 9.21014 65.9278 9.04741 65.9278Z" fill="#414141"/>
<path fill-rule="evenodd" clip-rule="evenodd" d="M78.9865 24.9814V72.6499C78.9865 76.2371 76.448 80.6323 73.3237 82.4098C51.8441 94.7228 36.2225 103.642 14.7429 115.955C11.6186 117.733 9.08008 116.279 9.08008 112.691L9.11262 65.0553L78.9865 24.9814Z" fill="white"/>
<path fill-rule="evenodd" clip-rule="evenodd" d="M9.95867 65.5723L9.92613 112.724C9.92613 114.113 10.3492 115.147 11.1628 115.6C11.9439 116.052 13.0179 115.923 14.2546 115.212L72.8354 81.6664C75.6668 80.0506 78.0752 75.9139 78.0752 72.6822L78.1077 26.5003L9.95867 65.5723ZM12.1717 117.604C11.4557 117.604 10.8048 117.442 10.2516 117.087C8.91723 116.311 8.1687 114.727 8.1687 112.691L8.20125 65.0552C8.20125 64.732 8.36397 64.4412 8.62433 64.2796L78.5633 24.2058C78.8237 24.0442 79.1491 24.0442 79.442 24.2058C79.7024 24.3674 79.8977 24.6582 79.8977 24.9814L79.8651 72.6498C79.8651 76.528 77.1314 81.2463 73.7792 83.1854L15.1984 116.731C14.1244 117.313 13.1155 117.604 12.1717 117.604Z" fill="#414141"/>
<path fill-rule="evenodd" clip-rule="evenodd" d="M52.0067 26.4358C53.5363 25.5632 54.773 26.2742 54.773 28.0193C54.773 29.7645 53.5363 31.8651 52.0067 32.7377C50.5097 33.6103 49.2729 32.8993 49.2729 31.1541C49.2729 29.409 50.5097 27.276 52.0067 26.4358Z" fill="white"/>
<path fill-rule="evenodd" clip-rule="evenodd" d="M53.2435 26.9203C53.0482 26.9203 52.7553 27.0173 52.4624 27.1788C51.2257 27.8898 50.1517 29.6996 50.1517 31.1216C50.1517 31.6064 50.3144 31.9942 50.5423 32.1234C50.7701 32.2527 51.1606 32.1881 51.5837 31.9295C52.8204 31.2185 53.8618 29.4088 53.8618 27.9868C53.8618 27.4697 53.7317 27.1142 53.5038 26.9849C53.4388 26.9526 53.3411 26.9203 53.2435 26.9203ZM50.7701 33.9655C50.3795 33.9655 49.9564 33.8686 49.631 33.6747C48.8499 33.2222 48.3943 32.285 48.3943 31.1539C48.3943 29.1179 49.7937 26.6941 51.5837 25.6922C52.5926 25.1105 53.6015 25.0459 54.4151 25.4983C55.1962 25.9508 55.6518 26.888 55.6518 28.0191C55.6518 30.0551 54.2849 32.4789 52.4624 33.4808C51.9091 33.804 51.3233 33.9655 50.7701 33.9655Z" fill="#414141"/>
<path fill-rule="evenodd" clip-rule="evenodd" d="M61.4773 21.0066C62.9743 20.134 64.211 20.845 64.211 22.5901C64.211 24.3353 62.9743 26.4359 61.4773 27.3085C59.9476 28.1811 58.7109 27.4701 58.7109 25.7249C58.7109 23.9798 59.9476 21.8791 61.4773 21.0066Z" fill="white"/>
<path fill-rule="evenodd" clip-rule="evenodd" d="M62.6489 21.5234C62.4537 21.5234 62.1608 21.6204 61.8679 21.782C60.6311 22.493 59.5572 24.3027 59.5572 25.7247C59.5572 26.2418 59.7199 26.5973 59.9477 26.7266C60.1755 26.8558 60.5661 26.7912 60.9891 26.5327C62.2258 25.8217 63.2998 24.0119 63.2998 22.5899C63.2998 22.1051 63.1371 21.7173 62.9418 21.5881C62.8767 21.5557 62.7791 21.5234 62.6489 21.5234ZM60.2081 28.5363C59.8175 28.5363 59.3944 28.4394 59.069 28.2455C58.2879 27.793 57.8323 26.8881 57.8323 25.7247C57.8323 23.6887 59.2317 21.2649 61.0217 20.263C62.0306 19.6813 63.0395 19.6167 63.8531 20.0691C64.6342 20.5216 65.0898 21.4588 65.0898 22.5899C65.0898 24.6259 63.6904 27.0497 61.9004 28.0516C61.3471 28.3748 60.7613 28.5363 60.2081 28.5363Z" fill="#414141"/>
<path fill-rule="evenodd" clip-rule="evenodd" d="M70.8828 15.6095C72.3798 14.7369 73.6165 15.4479 73.6165 17.193C73.6165 18.9382 72.3798 21.0388 70.8828 21.9114C69.3532 22.784 68.1165 22.073 68.1165 20.3278C68.149 18.5827 69.3857 16.482 70.8828 15.6095Z" fill="white"/>
<path fill-rule="evenodd" clip-rule="evenodd" d="M72.0868 16.1265C71.8916 16.1265 71.5987 16.2234 71.3058 16.385C70.0691 17.096 69.0276 18.9058 69.0276 20.3277C69.0276 20.8125 69.1578 21.2003 69.3856 21.3296C69.6134 21.4589 70.004 21.3942 70.427 21.1357C71.6637 20.4247 72.7377 18.6149 72.7377 17.1929C72.7377 16.7082 72.575 16.3204 72.3797 16.1911C72.2821 16.1265 72.217 16.1265 72.0868 16.1265ZM69.6785 23.1394C69.2554 23.1394 68.8649 23.0424 68.5394 22.8485C67.7258 22.3961 67.3027 21.4912 67.3027 20.3277C67.3027 18.2917 68.7022 15.8679 70.4921 14.8661C71.501 14.2844 72.5099 14.2197 73.3235 14.6722C74.1372 15.1246 74.5602 16.0295 74.5602 17.1929C74.5602 19.2289 73.1608 21.6528 71.3708 22.6546C70.785 22.9778 70.1992 23.1394 69.6785 23.1394Z" fill="#414141"/>
<path fill-rule="evenodd" clip-rule="evenodd" d="M30.9827 77.1421V74.6213L42.6337 67.9316V70.42L30.9827 77.1421Z" fill="white"/>
<path fill-rule="evenodd" clip-rule="evenodd" d="M31.8615 75.106V75.5907L41.7552 69.9029V69.4181L31.8615 75.106ZM30.9828 78.0146C30.8201 78.0146 30.6573 77.9823 30.5272 77.9176C30.2668 77.756 30.0715 77.4652 30.0715 77.142V74.6212C30.0715 74.298 30.2668 74.0072 30.5272 73.8456L42.2108 67.1559C42.5037 66.9943 42.8291 66.9943 43.0895 67.1559C43.3499 67.3174 43.5451 67.6083 43.5451 67.8992V70.4199C43.5451 70.7431 43.3824 71.034 43.0895 71.1956L31.4059 77.8853C31.2757 77.9499 31.113 78.0146 30.9828 78.0146Z" fill="#414141"/>
<path fill-rule="evenodd" clip-rule="evenodd" d="M17.9321 81.7309V77.8528L26.3613 69.1917L17.9321 70.2582V66.3801L30.0063 65.4429V68.7716L17.9321 81.7309Z" fill="white"/>
<path fill-rule="evenodd" clip-rule="evenodd" d="M18.811 78.2085V79.5012L29.1277 68.4163V66.4126L18.811 67.1882V69.2565L26.2638 68.3193C26.6217 68.2547 26.9797 68.4486 27.175 68.8041C27.3377 69.1272 27.2726 69.5474 27.0123 69.8059L18.811 78.2085ZM17.9323 82.636C17.8021 82.636 17.7044 82.6037 17.6068 82.5714C17.2488 82.4421 17.021 82.1189 17.021 81.7634V77.853C17.021 77.6268 17.1186 77.4005 17.2814 77.239L23.9531 70.3876L18.0299 71.1309C17.7695 71.1633 17.5092 71.0986 17.3139 70.937C17.1512 70.7754 17.021 70.5169 17.021 70.2584V66.3802C17.021 65.9278 17.4115 65.54 17.8346 65.5077L29.9413 64.5705C30.1691 64.5381 30.4295 64.6351 30.5922 64.7967C30.7875 64.9583 30.8851 65.1845 30.8851 65.443V68.7394C30.8851 68.9657 30.7875 69.1919 30.6248 69.3535L18.5506 82.3451C18.4204 82.539 18.1601 82.636 17.9323 82.636Z" fill="#414141"/>
</g>
<path opacity="0.2" d="M110.03 129.72C118.134 129.72 124.705 127.343 124.705 124.412C124.705 121.48 118.134 119.104 110.03 119.104C101.925 119.104 95.3545 121.48 95.3545 124.412C95.3545 127.343 101.925 129.72 110.03 129.72Z" fill="black"/>
<path opacity="0.01" fill-rule="evenodd" clip-rule="evenodd" d="M122.603 117.513C126.05 119.503 126.05 122.73 122.603 124.719C119.155 126.709 113.571 126.709 110.123 124.719C106.676 122.73 106.676 119.503 110.123 117.513C113.571 115.524 119.155 115.524 122.603 117.513Z" fill="black"/>
<path opacity="0.01" fill-rule="evenodd" clip-rule="evenodd" d="M121.941 118.727C124.699 120.324 124.699 122.916 121.941 124.513C119.183 126.109 114.702 126.113 111.923 124.513C109.144 122.913 109.165 120.324 111.923 118.727C114.681 117.131 119.173 117.127 121.941 118.727Z" fill="black"/>
<path opacity="0.02" fill-rule="evenodd" clip-rule="evenodd" d="M121.317 119.868C123.444 121.096 123.444 123.089 121.317 124.32C119.19 125.551 115.739 125.547 113.612 124.32C111.485 123.092 111.485 121.096 113.612 119.868C115.739 118.641 119.19 118.627 121.317 119.868Z" fill="black"/>
<path opacity="0.02" fill-rule="evenodd" clip-rule="evenodd" d="M120.728 120.947C122.252 121.827 122.252 123.254 120.728 124.133C119.873 124.567 118.928 124.793 117.97 124.793C117.012 124.793 116.067 124.567 115.212 124.133C113.692 123.254 113.692 121.827 115.212 120.947C116.067 120.514 117.012 120.288 117.97 120.288C118.928 120.288 119.873 120.514 120.728 120.947Z" fill="black"/>
<path opacity="0.02" fill-rule="evenodd" clip-rule="evenodd" d="M120.169 121.972C121.117 122.52 121.117 123.409 120.169 123.957C119.635 124.23 119.045 124.372 118.445 124.372C117.846 124.372 117.256 124.23 116.722 123.957C115.774 123.409 115.774 122.52 116.722 121.972C117.256 121.699 117.846 121.557 118.445 121.557C119.045 121.557 119.635 121.699 120.169 121.972Z" fill="black"/>
<path opacity="0.02" fill-rule="evenodd" clip-rule="evenodd" d="M119.638 122.944C119.727 122.974 119.804 123.032 119.858 123.108C119.912 123.184 119.941 123.275 119.941 123.368C119.941 123.462 119.912 123.553 119.858 123.629C119.804 123.705 119.727 123.762 119.638 123.792C119.411 123.908 119.159 123.968 118.904 123.968C118.649 123.968 118.397 123.908 118.17 123.792C118.081 123.762 118.005 123.705 117.95 123.629C117.896 123.553 117.867 123.462 117.867 123.368C117.867 123.275 117.896 123.184 117.95 123.108C118.005 123.032 118.081 122.974 118.17 122.944C118.397 122.828 118.649 122.768 118.904 122.768C119.159 122.768 119.411 122.828 119.638 122.944Z" fill="black"/>
<path fill-rule="evenodd" clip-rule="evenodd" d="M104.321 53.178L97.9851 56.8397L100.826 67.9353L107.166 64.277L104.321 53.178Z" fill="white"/>
<path fill-rule="evenodd" clip-rule="evenodd" d="M103.739 54.5677L99.0328 57.2847L101.408 66.5494L106.114 63.8324L103.739 54.5677ZM97.5332 56.0538L103.877 52.3921C103.998 52.3224 104.134 52.2817 104.275 52.2731C104.415 52.2646 104.555 52.2884 104.684 52.3427C104.813 52.3971 104.929 52.4805 105.02 52.5865C105.112 52.6925 105.179 52.8183 105.214 52.9541L108.041 63.9876C108.105 64.1858 108.1 64.4001 108.025 64.5946C107.95 64.7891 107.811 64.9522 107.631 65.0564L101.291 68.7147C101.219 68.7569 101.141 68.7882 101.06 68.8078C100.944 68.8373 100.824 68.8438 100.706 68.8268C100.588 68.8099 100.475 68.7698 100.373 68.709C100.27 68.6481 100.181 68.5677 100.109 68.4723C100.038 68.3768 99.9861 68.2682 99.9568 68.1527L97.1299 57.1192C97.0646 56.923 97.0683 56.7104 97.1404 56.5167C97.2125 56.3229 97.3487 56.1596 97.5263 56.0538H97.5332Z" fill="#414141"/>
<path fill-rule="evenodd" clip-rule="evenodd" d="M99.7397 70.0936L102.294 69.6316L101.605 65.7458L100.174 65.463L99.2847 61.9909C98.4504 62.3771 98.1746 62.8805 98.3263 65.294C98.478 67.3353 98.7055 67.4215 99.7397 70.0936Z" fill="white"/>
<path fill-rule="evenodd" clip-rule="evenodd" d="M100.319 69.0768L101.25 68.9078L100.832 66.4942L100.015 66.3321C99.8467 66.2948 99.6922 66.2101 99.57 66.0879C99.4479 65.9658 99.3631 65.8112 99.3258 65.6425L99.2948 65.5219C99.3879 66.7356 99.5534 67.1355 100.053 68.3526L100.336 69.0422L100.319 69.0768ZM102.463 70.5145L99.9119 70.9801C99.7045 71.0179 99.4904 70.9825 99.3062 70.88C99.122 70.7775 98.979 70.6142 98.9018 70.418C98.7225 69.9629 98.5191 69.4698 98.3502 69.0388C97.7262 67.5183 97.5504 67.0976 97.4401 65.3323C97.3573 64.0082 97.3987 63.1807 97.5918 62.5739C97.6862 62.2519 97.8535 61.9559 98.0806 61.709C98.3078 61.462 98.5888 61.2707 98.9018 61.1498C98.9595 61.1229 99.0195 61.101 99.081 61.0843C99.3142 61.0257 99.561 61.0617 99.7677 61.1844C99.9744 61.3071 100.124 61.5067 100.184 61.7394L100.932 64.6564L101.749 64.8185C101.941 64.8439 102.119 64.9294 102.258 65.0627C102.397 65.1959 102.491 65.37 102.525 65.5598L103.215 69.4422C103.239 69.5623 103.238 69.686 103.213 69.8059C103.188 69.9258 103.139 70.0394 103.069 70.1397C102.999 70.24 102.909 70.3249 102.804 70.3894C102.7 70.4538 102.584 70.4964 102.463 70.5145Z" fill="#414141"/>
<path fill-rule="evenodd" clip-rule="evenodd" d="M116.363 120.124C116.129 119.962 116.553 119.552 116.932 119.334C117.311 119.117 117.856 118.79 118.311 118.99L123.289 121.403C123.455 121.459 123.599 121.565 123.702 121.707C123.804 121.849 123.859 122.019 123.859 122.194C123.859 122.369 123.804 122.54 123.702 122.682C123.599 122.824 123.455 122.93 123.289 122.986C122.863 123.206 122.39 123.32 121.91 123.32C121.431 123.32 120.958 123.206 120.531 122.986L116.363 120.124Z" fill="#66CEEF"/>
<path fill-rule="evenodd" clip-rule="evenodd" d="M115.843 120.872C115.714 120.781 115.605 120.664 115.526 120.527C115.387 120.291 115.347 120.01 115.415 119.745C115.455 119.581 115.526 119.427 115.622 119.29C115.855 118.987 116.144 118.733 116.474 118.541L116.525 118.514C117.073 118.197 117.839 117.766 118.697 118.169L123.734 120.61C124.006 120.765 124.241 120.977 124.423 121.231C124.63 121.507 124.742 121.844 124.742 122.189C124.742 122.535 124.63 122.871 124.423 123.148C124.234 123.402 123.994 123.614 123.717 123.768C123.444 123.926 123.148 124.042 122.841 124.113H122.755C122.47 124.175 122.18 124.206 121.89 124.206C121.262 124.225 120.639 124.085 120.08 123.799L115.839 120.886L115.843 120.872ZM117.911 119.838L117.701 119.952L121.028 122.244C121.304 122.373 121.606 122.435 121.91 122.427C122.067 122.428 122.224 122.414 122.379 122.386H122.445C122.578 122.355 122.707 122.306 122.827 122.241L117.911 119.838Z" fill="#414141"/>
<path fill-rule="evenodd" clip-rule="evenodd" d="M108.014 124.944C107.779 124.782 108.203 124.368 108.583 124.151C108.962 123.934 109.507 123.606 109.962 123.806L114.936 126.22C115.102 126.275 115.246 126.381 115.349 126.523C115.451 126.665 115.506 126.836 115.506 127.011C115.506 127.186 115.451 127.357 115.349 127.499C115.246 127.641 115.102 127.747 114.936 127.802C114.509 128.02 114.037 128.133 113.557 128.133C113.078 128.133 112.605 128.02 112.178 127.802L108.014 124.944Z" fill="#66CEEF"/>
<path fill-rule="evenodd" clip-rule="evenodd" d="M107.503 125.695C107.371 125.606 107.26 125.488 107.179 125.35C107.041 125.115 107.001 124.835 107.069 124.571C107.11 124.409 107.18 124.256 107.276 124.12C107.508 123.815 107.8 123.56 108.134 123.371H108.155C108.706 123.051 109.482 122.602 110.351 123.027L115.387 125.471C115.658 125.626 115.893 125.836 116.077 126.088L116.132 126.178C116.302 126.437 116.393 126.74 116.394 127.05C116.391 127.395 116.28 127.731 116.077 128.009L116.011 128.092C115.831 128.308 115.614 128.49 115.37 128.63C115.097 128.785 114.804 128.901 114.498 128.974H114.412C114.127 129.039 113.835 129.071 113.543 129.071C112.905 129.079 112.276 128.923 111.716 128.619L107.486 125.709L107.503 125.695ZM109.572 124.661L109.365 124.775L112.678 127.057C112.955 127.193 113.262 127.259 113.571 127.25C113.729 127.252 113.887 127.237 114.043 127.206H114.105C114.238 127.176 114.367 127.128 114.488 127.064L109.572 124.661Z" fill="#414141"/>
<path fill-rule="evenodd" clip-rule="evenodd" d="M130.736 84.0787L128.171 83.7028L127.567 87.599L128.309 88.2093L128.284 91.6573C129.195 91.5573 129.898 91.409 130.529 89.0713C131.06 87.0991 130.877 86.9474 130.736 84.0787Z" fill="white"/>
<path fill-rule="evenodd" clip-rule="evenodd" d="M127.861 74.4035L128.105 83.3338C128.105 83.6996 128.251 84.0504 128.509 84.309C128.768 84.5677 129.119 84.713 129.484 84.713C129.85 84.713 130.201 84.5677 130.459 84.309C130.718 84.0504 130.863 83.6996 130.863 83.3338L130.898 73.8105C130.898 73.5052 130.817 73.2054 130.663 72.9416L124.275 62.1357C124.131 61.8282 123.925 61.5536 123.67 61.3289C123.415 61.1041 123.117 60.934 122.794 60.829C122.471 60.724 122.13 60.6863 121.792 60.7183C121.453 60.7503 121.125 60.8514 120.828 61.0151C119.663 61.6875 119.363 62.5804 120.038 63.7459C122.114 67.3731 125.54 70.8315 127.861 74.4035Z" fill="white"/>
<path fill-rule="evenodd" clip-rule="evenodd" d="M128.767 74.3969L129.015 83.3616C129.016 83.4489 129.042 83.5341 129.091 83.6065C129.141 83.6833 129.213 83.7434 129.298 83.7789C129.356 83.802 129.418 83.8148 129.481 83.8168C129.572 83.8146 129.661 83.7859 129.736 83.734C129.81 83.683 129.868 83.6126 129.905 83.5306C129.926 83.4719 129.938 83.4102 129.939 83.3479L129.974 73.8211C129.973 73.749 129.964 73.6773 129.946 73.6074C129.928 73.5412 129.901 73.4775 129.867 73.4177L123.479 62.6083L123.365 62.3877C123.173 62.0575 122.864 61.8114 122.5 61.6981C122.139 61.5768 121.747 61.5915 121.396 61.7395L121.265 61.8049C120.972 61.9363 120.736 62.1689 120.6 62.4601C120.557 62.7562 120.632 63.0575 120.81 63.2979C121.931 65.2391 123.465 67.1597 124.996 69.0733C126.282 70.68 127.564 72.2833 128.622 73.9004C128.716 74.0465 128.767 74.2163 128.767 74.39V74.3969ZM127.199 83.3616L126.957 74.6866C125.961 73.1798 124.772 71.6937 123.579 70.2042C122.003 68.232 120.421 66.2528 119.235 64.1979C119.016 63.8689 118.869 63.4973 118.803 63.1075C118.738 62.7177 118.756 62.3184 118.856 61.936C119.114 61.1871 119.655 60.5687 120.362 60.212C120.459 60.1568 120.559 60.1086 120.655 60.0637C121.415 59.7345 122.269 59.6928 123.057 59.9466C123.846 60.2003 124.515 60.7322 124.94 61.4429C124.989 61.5257 125.03 61.6084 125.071 61.6912L131.439 72.4626C131.555 72.6637 131.645 72.8793 131.704 73.1039C131.764 73.3288 131.793 73.5608 131.791 73.7935L131.756 83.3168C131.761 83.621 131.702 83.9228 131.584 84.203C131.35 84.762 130.904 85.2053 130.343 85.4355C129.783 85.6656 129.154 85.6638 128.595 85.4304C128.189 85.2569 127.842 84.9688 127.597 84.6014C127.352 84.234 127.22 83.8032 127.216 83.3616H127.199Z" fill="#3B3B3B"/>
<path fill-rule="evenodd" clip-rule="evenodd" d="M115.732 60.3567C116.296 60.644 116.92 60.7938 117.553 60.7938C118.185 60.7938 118.809 60.644 119.373 60.3567C120.376 59.7774 120.376 58.8362 119.373 58.2569C118.809 57.9696 118.185 57.8198 117.553 57.8198C116.92 57.8198 116.296 57.9696 115.732 58.2569C114.726 58.8465 114.729 59.7878 115.732 60.3567Z" fill="white"/>
<path fill-rule="evenodd" clip-rule="evenodd" d="M116.194 59.5704C116.614 59.7853 117.081 59.8919 117.553 59.8807C118.024 59.8937 118.492 59.787 118.911 59.5704L118.952 59.5463C119.05 59.4928 119.134 59.4172 119.197 59.3256V59.3221C119.123 59.2198 119.024 59.137 118.911 59.0808C118.487 58.8765 118.023 58.7703 117.553 58.7703C117.082 58.7703 116.618 58.8765 116.194 59.0808C116.081 59.137 115.983 59.2198 115.908 59.3221C115.982 59.4258 116.08 59.5098 116.194 59.5669V59.5704ZM117.553 61.7288C116.757 61.7389 115.971 61.5455 115.27 61.1668C114.877 60.9494 114.547 60.6333 114.312 60.2496C114.143 59.9686 114.053 59.6468 114.053 59.3187C114.053 58.9906 114.143 58.6688 114.312 58.3878C114.545 58.0022 114.876 57.6847 115.27 57.4671C115.975 57.098 116.758 56.9052 117.553 56.9052C118.348 56.9052 119.131 57.098 119.835 57.4671C120.229 57.6847 120.56 58.0022 120.793 58.3878C120.963 58.6685 121.053 58.9905 121.053 59.3187C121.053 59.6469 120.963 59.9689 120.793 60.2496C120.572 60.6157 120.261 60.9194 119.89 61.1323L119.838 61.1668C119.137 61.5482 118.351 61.744 117.553 61.7357V61.7288Z" fill="#3D6680"/>
<path fill-rule="evenodd" clip-rule="evenodd" d="M124.971 85.8715L124.444 104.728C124.449 104.81 124.449 104.892 124.444 104.973L123.689 120.441C123.689 120.91 123.503 121.36 123.171 121.692C122.839 122.023 122.389 122.21 121.92 122.21C121.451 122.21 121.002 122.023 120.67 121.692C120.338 121.36 120.152 120.91 120.152 120.441L119.397 104.98C119.397 104.897 119.397 104.811 119.397 104.728L118.621 92.8916L117.163 93.7363L116.129 109.549C116.134 109.631 116.134 109.714 116.129 109.797L115.374 125.261C115.374 125.73 115.187 126.18 114.856 126.512C114.524 126.844 114.074 127.03 113.605 127.03C113.136 127.03 112.686 126.844 112.355 126.512C112.023 126.18 111.837 125.73 111.837 125.261L111.082 109.804C111.082 109.721 111.082 109.635 111.082 109.552L110.534 91.9089C109.999 88.2506 123.02 80.3168 124.971 85.8715Z" fill="#2B7CFF"/>
<path fill-rule="evenodd" clip-rule="evenodd" d="M125.878 85.9198C125.534 97.7533 125.161 108.652 124.585 120.43C124.587 120.961 124.43 121.479 124.136 121.92C123.842 122.361 123.423 122.705 122.934 122.908C122.444 123.111 121.905 123.164 121.385 123.059C120.865 122.955 120.388 122.699 120.014 122.323C119.765 122.075 119.567 121.78 119.431 121.455C119.296 121.131 119.226 120.782 119.225 120.43C119.328 113.462 118.38 103.504 117.891 96.0706L117.008 109.538C116.808 114.766 116.494 120.02 116.239 125.251C116.239 125.961 115.957 126.643 115.455 127.145C114.952 127.648 114.271 127.93 113.561 127.93C112.85 127.93 112.169 127.648 111.666 127.145C111.164 126.643 110.882 125.961 110.882 125.251L110.13 109.856C109.644 104.222 109.748 97.6981 109.572 91.9572C109.365 90.0195 111.847 87.3335 114.929 85.444C116.147 84.6888 117.445 84.0735 118.801 83.6097C120.013 83.1658 121.305 82.9849 122.593 83.0787C124.11 83.2546 125.289 84.0097 125.837 85.5612C125.875 85.6721 125.891 85.7891 125.885 85.906L125.878 85.9198ZM123.534 104.691L124.058 86.0199C123.91 85.6944 123.675 85.4163 123.379 85.2167C123.082 85.017 122.736 84.9035 122.379 84.8889C121.356 84.8243 120.33 84.9758 119.369 85.3337C118.147 85.7554 116.976 86.3129 115.877 86.9956C113.312 88.5713 111.223 90.5815 111.396 91.7745V91.8676C111.74 103.001 112.023 114.124 112.716 125.244C112.715 125.357 112.737 125.47 112.78 125.574C112.824 125.679 112.887 125.774 112.968 125.854C113.046 125.934 113.14 125.998 113.244 126.041C113.347 126.084 113.459 126.106 113.571 126.106C113.684 126.106 113.795 126.084 113.899 126.041C114.004 125.997 114.098 125.934 114.178 125.854C114.258 125.775 114.321 125.682 114.365 125.578C114.408 125.474 114.43 125.363 114.429 125.251C115.226 115.507 115.591 103.529 116.236 93.664C116.246 93.5149 116.292 93.3707 116.371 93.2438C116.449 93.1169 116.558 93.0114 116.687 92.9364L118.128 92.102C118.262 92.0222 118.415 91.978 118.571 91.9736C118.726 91.9692 118.881 92.0049 119.019 92.0771C119.157 92.1494 119.275 92.2558 119.36 92.3863C119.446 92.5168 119.496 92.6671 119.507 92.8227C120.114 102.087 120.476 111.173 121.055 120.427C121.054 120.539 121.075 120.651 121.117 120.755C121.159 120.859 121.221 120.954 121.3 121.034C121.462 121.195 121.68 121.285 121.909 121.285C122.137 121.285 122.355 121.195 122.517 121.034C122.597 120.955 122.661 120.861 122.704 120.758C122.747 120.654 122.769 120.543 122.769 120.43C123.182 115.486 123.438 109.662 123.527 104.691H123.534Z" fill="#414141"/>
<path fill-rule="evenodd" clip-rule="evenodd" d="M125.423 84.679L123.7 76.3625L124.537 63.3292C124.644 62.8292 123.951 61.1604 123.289 60.7742C122.717 60.4345 122.065 60.2515 121.399 60.2436C120.734 60.2357 120.078 60.4033 119.497 60.7294L112.04 65.0014C111.53 65.2876 110.775 65.9462 110.923 66.5772L111.958 80.6931L109.724 90.3475C109.572 90.9922 110.01 91.4612 110.561 91.7818C111.207 92.1098 111.92 92.2807 112.644 92.2807C113.367 92.2807 114.081 92.1098 114.726 91.7818L123.607 86.6547C124.331 86.2168 125.634 85.6824 125.423 84.679Z" fill="white"/>
<path fill-rule="evenodd" clip-rule="evenodd" d="M124.527 84.8373L122.803 76.5622C122.789 76.4837 122.783 76.404 122.786 76.3243L123.627 63.2875V63.153C123.568 62.855 123.461 62.5685 123.31 62.3048C123.2 62.0297 123.03 61.7825 122.813 61.5808C122.365 61.3213 121.856 61.1812 121.338 61.1739C120.855 61.1606 120.379 61.2799 119.959 61.5187C117.491 62.9289 114.936 64.5046 112.437 65.8252C112.219 65.9508 112.028 66.1184 111.875 66.3183C111.84 66.3665 111.806 66.3458 111.809 66.37C111.824 66.431 111.832 66.4934 111.833 66.5562L112.868 80.6308C112.873 80.7352 112.863 80.8398 112.837 80.941L110.613 90.5368C110.605 90.5546 110.601 90.574 110.601 90.5936C110.601 90.6132 110.605 90.6326 110.613 90.6505C110.713 90.795 110.847 90.9132 111.003 90.9953C111.51 91.2405 112.066 91.3678 112.63 91.3678C113.193 91.3678 113.749 91.2405 114.257 90.9953L123.138 85.8682L123.444 85.6958C123.91 85.4441 124.541 85.0993 124.496 84.8821V84.8476L124.527 84.8373ZM124.617 76.3105L126.313 84.4994C126.633 86.0372 125.316 86.7543 124.351 87.2819L124.089 87.4301L115.205 92.5573C114.422 92.9672 113.551 93.1813 112.668 93.1813C111.784 93.1813 110.913 92.9672 110.13 92.5573C109.699 92.3245 109.335 91.9835 109.075 91.5677C108.817 91.1355 108.74 90.6186 108.862 90.1299L111.065 80.6308L110.03 66.7182C109.99 66.4634 110.002 66.203 110.067 65.9532C110.132 65.7035 110.247 65.4697 110.406 65.2666C110.714 64.8572 111.099 64.5127 111.54 64.2529L119.056 59.9464C119.759 59.5392 120.56 59.3329 121.372 59.3499C122.203 59.3577 123.018 59.5798 123.737 59.9947C124.271 60.3775 124.691 60.8968 124.954 61.498C125.267 62.0879 125.434 62.7441 125.44 63.4116L124.617 76.3105Z" fill="#414141"/>
<path fill-rule="evenodd" clip-rule="evenodd" d="M119.58 58.8255H115.526L115.229 62.6803C115.226 62.7204 115.226 62.7608 115.229 62.801C115.249 63.0067 115.323 63.2034 115.444 63.3707C115.565 63.538 115.729 63.6699 115.919 63.7526C116.43 64.0127 116.996 64.1483 117.57 64.1483C118.144 64.1483 118.71 64.0127 119.221 63.7526C119.411 63.6699 119.574 63.538 119.696 63.3707C119.817 63.2034 119.891 63.0067 119.911 62.801C119.914 62.7608 119.914 62.7204 119.911 62.6803L119.58 58.8255Z" fill="white"/>
<path fill-rule="evenodd" clip-rule="evenodd" d="M118.735 59.7393H116.37L116.132 62.7873C116.197 62.8605 116.274 62.9213 116.36 62.9666L116.394 62.9873C116.755 63.1621 117.152 63.2484 117.553 63.239C117.967 63.2502 118.377 63.1565 118.746 62.9666L118.787 62.9459C118.857 62.9035 118.92 62.8499 118.973 62.7873L118.735 59.7393ZM115.526 57.9153H119.58C119.81 57.9156 120.031 58.0028 120.199 58.1595C120.367 58.3162 120.47 58.5308 120.487 58.7601C120.593 60.1013 120.717 61.4564 120.797 62.8011C120.792 63.1734 120.672 63.535 120.452 63.8355C120.255 64.1016 120.006 64.3255 119.721 64.4941L119.666 64.5286C119.028 64.8608 118.32 65.0369 117.601 65.0423C116.882 65.0477 116.172 64.8822 115.529 64.5596L115.467 64.5286C115.16 64.3563 114.892 64.1213 114.681 63.839C114.46 63.539 114.34 63.177 114.336 62.8046C114.495 61.5185 114.543 60.1048 114.643 58.8015C114.649 58.5689 114.744 58.3476 114.908 58.1828C115.072 58.018 115.293 57.9223 115.526 57.9153Z" fill="#414141"/>
<path fill-rule="evenodd" clip-rule="evenodd" d="M119.218 59.3568C118.702 59.6185 118.131 59.7549 117.553 59.7549C116.974 59.7549 116.404 59.6185 115.887 59.3568C114.967 58.8223 114.964 57.9776 115.887 57.4294C116.404 57.1676 116.975 57.0312 117.554 57.0312C118.134 57.0312 118.705 57.1676 119.221 57.4294C120.142 57.9638 120.138 58.8223 119.218 59.3568Z" fill="white"/>
<path fill-rule="evenodd" clip-rule="evenodd" d="M119.68 60.1532C119.024 60.4995 118.294 60.6805 117.553 60.6805C116.811 60.6805 116.081 60.4995 115.426 60.1532C115.052 59.9504 114.739 59.6516 114.519 59.2877C114.358 59.0162 114.273 58.7068 114.271 58.3912C114.272 58.0767 114.358 57.7682 114.519 57.4982C114.74 57.1349 115.052 56.8363 115.426 56.6327C116.082 56.2864 116.813 56.1054 117.554 56.1054C118.296 56.1054 119.027 56.2864 119.683 56.6327L119.742 56.6707C120.089 56.8708 120.379 57.1555 120.587 57.4982C120.745 57.7692 120.83 58.0772 120.831 58.3912C120.833 58.7068 120.749 59.0169 120.587 59.2877L120.542 59.3567C120.324 59.689 120.028 59.9626 119.68 60.1532ZM117.553 58.8291C117.97 58.8419 118.384 58.7482 118.756 58.5567C118.836 58.516 118.909 58.4611 118.97 58.3947C118.922 58.3376 118.865 58.2887 118.801 58.2499L118.756 58.2292C118.384 58.0377 117.97 57.944 117.553 57.9568C117.133 57.944 116.717 58.0377 116.343 58.2292C116.264 58.2702 116.194 58.3251 116.136 58.3912C116.196 58.4591 116.269 58.5152 116.35 58.5567C116.721 58.7489 117.135 58.8427 117.553 58.8291Z" fill="#1A87C7"/>
<path fill-rule="evenodd" clip-rule="evenodd" d="M117.553 48.3333C119.742 48.3333 121.817 50.0883 121.621 52.2847L121.19 57.1119C121.007 59.1427 119.9 61.0633 117.563 61.0633C115.326 61.0633 114.143 59.2772 113.94 57.1119L113.485 52.2847C113.281 50.1228 115.315 48.3333 117.553 48.3333Z" fill="white"/>
<path fill-rule="evenodd" clip-rule="evenodd" d="M117.553 47.4231C117.701 47.4231 117.852 47.4231 118.001 47.4438H118.094C119.231 47.5693 120.297 48.0605 121.131 48.8437C121.57 49.2415 121.923 49.7259 122.166 50.2664C122.409 50.807 122.538 51.392 122.544 51.9847C122.546 52.1079 122.54 52.2311 122.527 52.3537L122.096 57.1808C122.022 58.4493 121.538 59.6593 120.717 60.6288C120.311 61.0521 119.823 61.3889 119.283 61.6189C118.743 61.849 118.162 61.9676 117.575 61.9676C116.988 61.9676 116.407 61.849 115.867 61.6189C115.327 61.3889 114.839 61.0521 114.433 60.6288C113.613 59.6586 113.129 58.4489 113.054 57.1808L112.599 52.333C112.599 52.1916 112.578 52.0709 112.578 51.9882C112.585 51.4045 112.712 50.8284 112.949 50.2949C113.186 49.7615 113.529 49.2818 113.957 48.885C114.81 48.0749 115.909 47.5736 117.08 47.461C117.263 47.461 117.425 47.4369 117.566 47.4369L117.553 47.4231ZM117.846 49.2608C117.748 49.2558 117.65 49.2558 117.553 49.2608C117.425 49.2608 117.322 49.2608 117.239 49.2608C116.477 49.3345 115.761 49.6596 115.205 50.1849C114.953 50.414 114.749 50.692 114.608 51.002C114.466 51.312 114.389 51.6475 114.381 51.9882C114.429 53.5915 114.691 55.4051 114.843 57.0222C114.887 57.8918 115.208 58.7245 115.76 59.3979C115.997 59.635 116.278 59.8232 116.588 59.9516C116.897 60.08 117.229 60.146 117.565 60.146C117.9 60.146 118.232 60.08 118.541 59.9516C118.851 59.8232 119.132 59.635 119.369 59.3979C119.921 58.7269 120.242 57.8965 120.286 57.0291C120.435 55.3775 120.648 53.6467 120.721 51.9985C120.713 51.6543 120.635 51.3152 120.492 51.0021C120.348 50.6891 120.142 50.4086 119.886 50.178C119.344 49.67 118.653 49.3508 117.915 49.2677L117.846 49.2608Z" fill="#414141"/>
<path fill-rule="evenodd" clip-rule="evenodd" d="M119.107 58.4292C116.208 58.3326 117.277 53.1951 113.484 51.6987C113.453 47.2887 121.579 46.4163 122.138 52.8813C122.389 55.8121 122.007 58.5222 119.107 58.4292Z" fill="white"/>
<path fill-rule="evenodd" clip-rule="evenodd" d="M119.08 59.3222C117.066 59.2567 116.491 57.7602 115.829 56.0293C115.315 54.6915 114.729 53.1538 113.15 52.5331C112.97 52.4615 112.818 52.3349 112.715 52.1714C112.611 52.0079 112.562 51.8159 112.574 51.6229C112.574 49.7954 113.691 48.4576 115.188 47.7784C115.877 47.4735 116.619 47.3079 117.372 47.2914C118.125 47.2748 118.874 47.4075 119.576 47.6818C121.338 48.3714 122.803 50.0161 123.044 52.7917C123.182 54.3778 123.137 55.9294 122.644 57.1189C122.072 58.4981 120.986 59.3842 119.08 59.3222ZM117.532 55.3811C117.963 56.5052 118.335 57.4775 119.135 57.5051C120.128 57.5361 120.683 57.1086 120.965 56.4293C121.31 55.5604 121.345 54.2881 121.227 52.9469C121.059 50.9746 120.076 49.8437 118.907 49.3713C118.432 49.1844 117.925 49.0939 117.415 49.1052C116.905 49.1164 116.402 49.2292 115.936 49.4368C115.573 49.5856 115.25 49.8166 114.992 50.1116C114.735 50.4066 114.549 50.7575 114.45 51.1367C116.287 52.1469 116.946 53.8709 117.532 55.3949V55.3811Z" fill="#414141"/>
<path fill-rule="evenodd" clip-rule="evenodd" d="M121.483 52.7087C120.853 52.7106 120.25 52.9615 119.805 53.4066C119.36 53.8517 119.109 54.4549 119.107 55.0844V64.1836C119.11 64.8125 119.361 65.4148 119.806 65.8592C120.251 66.3036 120.854 66.554 121.483 66.5558C122.111 66.5531 122.713 66.3023 123.157 65.858C123.601 65.4137 123.852 64.8119 123.854 64.1836V55.0844C123.853 54.4555 123.602 53.8528 123.158 53.4078C122.714 52.9628 122.111 52.7115 121.483 52.7087Z" fill="white"/>
<path fill-rule="evenodd" clip-rule="evenodd" d="M121.483 53.6227C121.095 53.6236 120.724 53.778 120.45 54.0519C120.176 54.3259 120.022 54.6972 120.021 55.0847V64.1839C120.021 64.5716 120.175 64.9435 120.449 65.2176C120.723 65.4918 121.095 65.6458 121.483 65.6458C121.87 65.6458 122.242 65.4918 122.516 65.2176C122.79 64.9435 122.944 64.5716 122.944 64.1839V55.0847C122.942 54.6978 122.787 54.3275 122.513 54.0539C122.24 53.7803 121.869 53.6254 121.483 53.6227ZM119.159 52.7642C119.619 52.3063 120.204 51.9948 120.841 51.8688C121.477 51.7427 122.137 51.8079 122.736 52.0559C123.336 52.304 123.849 52.724 124.21 53.2629C124.572 53.8018 124.766 54.4357 124.768 55.0847V64.1839C124.768 65.0553 124.422 65.8911 123.806 66.5074C123.19 67.1236 122.354 67.4698 121.483 67.4698C120.611 67.4698 119.776 67.1236 119.16 66.5074C118.543 65.8911 118.197 65.0553 118.197 64.1839V55.0847C118.199 54.2165 118.545 53.3845 119.159 52.7711V52.7642Z" fill="#414141"/>
<path fill-rule="evenodd" clip-rule="evenodd" d="M120.014 91.0089C120.117 90.9492 120.231 90.9103 120.35 90.8946C120.468 90.8789 120.588 90.8866 120.703 90.9173C120.818 90.9481 120.927 91.0012 121.021 91.0737C121.116 91.1463 121.195 91.2367 121.255 91.3399C121.315 91.4432 121.354 91.5572 121.37 91.6754C121.385 91.7937 121.378 91.9138 121.347 92.0291C121.316 92.1444 121.263 92.2524 121.19 92.3472C121.118 92.4419 121.027 92.5214 120.924 92.5812L117.591 94.5087C117.487 94.5755 117.371 94.6207 117.25 94.6414C117.129 94.6622 117.004 94.658 116.884 94.6293C116.765 94.6006 116.652 94.5479 116.553 94.4743C116.454 94.4008 116.372 94.308 116.31 94.2015C116.248 94.095 116.208 93.9771 116.193 93.8548C116.178 93.7326 116.188 93.6086 116.223 93.4903C116.257 93.372 116.315 93.2619 116.393 93.1667C116.471 93.0715 116.568 92.9931 116.677 92.9363L120.014 91.0089Z" fill="#1A87C7"/>
<path fill-rule="evenodd" clip-rule="evenodd" d="M114.302 69.4936L105.845 79.9169C105.658 80.1785 105.4 80.3823 105.103 80.5053C104.806 80.6283 104.48 80.6656 104.162 80.6128C103.844 80.56 103.548 80.4194 103.306 80.2068C103.065 79.9943 102.887 79.7182 102.794 79.41L99.6915 70.6211C99.6037 70.4497 99.5529 70.2618 99.5422 70.0695C99.5315 69.8772 99.5611 69.6847 99.6293 69.5046C99.6974 69.3244 99.8026 69.1606 99.9379 69.0236C100.073 68.8865 100.236 68.7794 100.415 68.709C100.594 68.6386 100.786 68.6065 100.979 68.6148C101.171 68.6231 101.359 68.6717 101.532 68.7573C101.704 68.8429 101.857 68.9637 101.98 69.1119C102.103 69.2601 102.194 69.4324 102.246 69.6178L104.732 75.2828L110.641 66.5146L111.392 65.7078L114.302 69.4936Z" fill="white"/>
<path fill-rule="evenodd" clip-rule="evenodd" d="M112.495 70.2694C112.651 70.0951 112.869 69.9876 113.102 69.9692C113.335 69.9508 113.567 70.023 113.748 70.1708C113.929 70.3185 114.047 70.5305 114.076 70.7627C114.106 70.9949 114.044 71.2294 113.905 71.4176L106.576 80.4513C106.429 80.6513 106.255 80.83 106.059 80.9822C105.863 81.1341 105.645 81.2572 105.414 81.3477C105.335 81.3788 105.259 81.4064 105.176 81.4305C104.545 81.6102 103.87 81.5492 103.282 81.2593C102.693 80.9695 102.233 80.4714 101.991 79.8617C100.957 76.8792 99.8363 73.9001 98.84 70.8969C98.6863 70.4897 98.6528 70.0469 98.7434 69.6212C98.836 69.1794 99.0595 68.7757 99.3847 68.4627L99.4054 68.442C99.6208 68.2355 99.8751 68.0738 100.153 67.9662C100.569 67.8061 101.023 67.7711 101.458 67.8654C101.894 67.9597 102.292 68.1793 102.605 68.4972C102.813 68.7088 102.977 68.9596 103.087 69.235L104.887 73.3312L105.211 72.8071C107.107 69.704 110.123 64.7872 111.982 63.9907C112.203 63.8965 112.453 63.8943 112.677 63.9845C112.9 64.0747 113.079 64.2499 113.173 64.4717C113.267 64.6934 113.269 64.9435 113.179 65.1669C113.089 65.3903 112.914 65.5688 112.692 65.6629C111.371 66.2319 108.555 70.8349 106.762 73.7553C106.252 74.5863 105.825 75.2862 105.514 75.7483C105.417 75.9022 105.275 76.0226 105.107 76.093C104.887 76.1891 104.637 76.1937 104.412 76.1058C104.188 76.0179 104.008 75.8447 103.911 75.6241L101.408 69.9212C101.386 69.863 101.352 69.8102 101.308 69.766C101.244 69.7026 101.162 69.6585 101.074 69.6385C100.987 69.6125 100.895 69.6125 100.808 69.6385C100.755 69.6579 100.707 69.6884 100.667 69.7281C100.601 69.7911 100.557 69.873 100.54 69.9626C100.515 70.0424 100.515 70.1275 100.54 70.2073C101.663 73.1002 102.515 76.3103 103.687 79.1479C103.761 79.3346 103.901 79.4875 104.08 79.5772C104.26 79.6669 104.466 79.6872 104.659 79.6341L104.749 79.6031C104.821 79.5754 104.888 79.537 104.949 79.4893C105.008 79.4423 105.062 79.3878 105.107 79.3272L112.495 70.2694Z" fill="#414141"/>
<path fill-rule="evenodd" clip-rule="evenodd" d="M130.251 84.4046L128.395 84.1409C128.309 84.1279 128.221 84.1316 128.136 84.1519C128.051 84.1722 127.972 84.2086 127.901 84.2591C127.831 84.3095 127.772 84.3729 127.727 84.4457C127.683 84.5185 127.653 84.5991 127.641 84.683V84.7233L127.211 87.4123C127.193 87.5221 127.204 87.6346 127.245 87.7386C127.285 87.8427 127.353 87.9347 127.441 88.0058L127.739 88.2402V90.365C127.739 90.534 127.808 90.6962 127.931 90.8158C128.054 90.9353 128.221 91.0025 128.395 91.0025H128.467C128.936 90.9934 129.386 90.8204 129.735 90.5152C130.089 90.1965 130.395 89.6653 130.659 88.7128C130.936 87.8498 131.016 86.9383 130.893 86.0422C130.874 85.7454 130.848 85.3901 130.829 85.0091C130.822 84.8609 130.762 84.7196 130.66 84.6098C130.557 84.5001 130.418 84.4287 130.267 84.4083L130.251 84.4046ZM128.848 85.5037L129.531 85.5989C129.531 85.8041 129.553 85.9652 129.561 86.1264C129.67 86.8844 129.604 87.6564 129.369 88.3868C129.294 88.6913 129.187 88.9873 129.048 89.2696V87.9618C129.05 87.8647 129.029 87.7684 128.988 87.6802C128.946 87.592 128.884 87.5142 128.806 87.4526L128.557 87.2547L128.848 85.5037Z" fill="#3C3C3C"/>
<defs>
<clipPath id="clip0_280_3250">
<rect width="79.8652" height="117.604" fill="white"/>
</clipPath>
</defs>
</svg>
