<svg width="95" height="134" viewBox="0 0 95 134" fill="none" xmlns="http://www.w3.org/2000/svg">
<g clip-path="url(#clip0_280_5046)">
<path fill-rule="evenodd" clip-rule="evenodd" d="M93.8654 92.7225V79.5713C93.8654 69.0524 80.8454 65.2366 71.8512 64.4643C71.0866 66.0161 70.3077 67.5679 69.504 69.0701C76.5599 81.7076 70.5211 108.729 62.7468 120.155C80.3937 110.001 93.869 96.5949 93.869 92.7402L93.8654 92.7225ZM26.1513 76.705L25.721 76.2586C25.8632 76.411 26.0091 76.5598 26.1513 76.705ZM41.6822 95.6029C45.9285 105.307 43.8694 115.854 53.5108 124.935C37.6599 132.272 19.9596 135.748 5.98645 127.723C1.66185 125.243 1.1604 124.18 1.1604 120.237C1.1604 116.293 1.06794 112.24 1.21019 108.318C1.94993 101.466 5.47789 96.8217 9.92696 91.8226C14.9059 86.4091 21.1617 82.0442 25.689 76.2338C30.7071 81.8954 38.8584 89.1477 41.6822 95.6029Z" fill="white"/>
<path fill-rule="evenodd" clip-rule="evenodd" d="M92.6019 92.735V79.6013C92.6019 75.5971 90.4703 72.6541 87.3759 70.5389C83.2228 67.7091 77.3714 66.2942 72.5078 65.7883L71.7333 67.373L70.8309 69.1063C73.9289 75.1408 74.3836 83.9627 73.1899 92.8624C72.0424 101.518 69.3565 110.312 66.0845 116.689C71.9327 113.052 77.4775 108.952 82.665 104.429C88.8147 99.0136 92.6126 94.4931 92.6126 92.735H92.6019ZM95 79.6013V92.735C95 95.1333 90.9073 100.358 84.2566 106.212C77.7737 111.854 70.7534 116.854 63.2956 121.139C63.0613 121.272 62.7888 121.322 62.5223 121.282C62.2558 121.241 62.0108 121.112 61.8271 120.916C61.6433 120.719 61.5315 120.467 61.5098 120.199C61.4882 119.931 61.5578 119.664 61.7075 119.441C65.8145 113.428 69.4311 102.915 70.8025 92.5582C71.9571 83.846 71.513 75.2894 68.4399 69.7288C68.3297 69.5513 68.2684 69.3479 68.2621 69.1393C68.2559 68.9307 68.305 68.7241 68.4044 68.5403C68.8141 67.7857 69.2061 67.0405 69.5803 66.3048L70.6817 64.1011C70.775 63.86 70.9441 63.6554 71.1637 63.5177C71.3832 63.3801 71.6416 63.3167 71.9003 63.337C77.2293 63.7933 83.944 65.3002 88.733 68.5828C92.4314 71.119 94.9894 74.688 94.9894 79.6048L95 79.6013ZM26.5819 75.4733L27.0153 75.919C28.1912 77.2242 29.5448 78.6321 30.9481 80.0929C35.5134 84.847 40.6044 90.1529 42.7787 95.1191C44.3134 98.6245 45.0417 102.194 45.7665 105.763C47.049 112.059 48.3351 118.369 54.293 123.99C54.4163 124.1 54.5165 124.234 54.5879 124.383C54.7187 124.67 54.7306 124.997 54.6208 125.293C54.5111 125.589 54.2887 125.83 54.0017 125.964C45.3402 129.972 36.1138 132.847 27.2071 133.367C19.5226 133.817 12.0726 132.518 5.42189 128.695C3.08421 127.347 1.75906 126.364 0.973909 125.104C0.188759 123.845 0.00755945 122.388 0.00755945 120.191V116.764C0.00755945 113.934 -0.0315048 111.072 0.0679712 108.299V108.164C0.420119 104.854 1.47618 101.656 3.16593 98.7837C4.75754 96.0424 6.7897 93.5805 9.05633 91.0407C11.1631 88.7557 13.515 86.6369 15.8633 84.5216C19.0146 81.6918 22.1729 78.8372 24.7451 75.5441C24.8122 75.4602 24.8898 75.3853 24.976 75.3212C25.2165 75.1416 25.5162 75.059 25.8152 75.0898C26.1142 75.1206 26.3905 75.2626 26.589 75.4875L26.5819 75.4733ZM40.5689 96.0742C38.5616 91.4935 33.6233 86.3503 29.2002 81.7378C27.9923 80.482 26.8199 79.2617 25.7399 78.0838C23.253 81.0586 20.3611 83.662 17.4763 86.2619C15.1954 88.3135 12.9181 90.3686 10.8398 92.6289C8.65486 95.0802 6.70088 97.436 5.23361 99.9687C3.70758 102.552 2.75199 105.429 2.43051 108.409C2.33104 111.164 2.3488 113.98 2.36657 116.767V120.205C2.36657 121.953 2.46604 123.035 2.98118 123.859C3.49632 124.683 4.60833 125.511 6.58719 126.647C12.8009 130.216 19.7962 131.429 27.0402 131.004C35.0871 130.53 43.4537 128.044 51.4082 124.521C45.9406 118.72 44.6581 112.473 43.3968 106.244C42.7076 102.795 42.0077 99.3744 40.5689 96.0742Z" fill="#3C3C3C"/>
<path fill-rule="evenodd" clip-rule="evenodd" d="M26.012 76.4137C26.6958 75.5337 28.6903 73.4733 29.2352 72.5504C30.3037 70.7153 30.2716 70.0106 30.496 67.8571C39.6992 78.5457 61.336 84.8236 69.6453 69.6457C71.9924 75.2726 65.2965 86.1293 56.7024 89.3523C50.3805 91.7239 40.7535 90.2537 35.8741 85.7751L27.6183 78.2345L26.012 76.4137Z" fill="white"/>
<path fill-rule="evenodd" clip-rule="evenodd" d="M25.109 75.6705C25.4181 75.2757 25.8375 74.8061 26.2959 74.2975C26.9851 73.566 27.6272 72.7915 28.2183 71.9785C29.0427 70.5771 29.1067 69.9262 29.2524 68.4573L29.3164 67.8064C29.3388 67.5733 29.4292 67.352 29.5763 67.17C29.7233 66.9879 29.9206 66.8531 30.1435 66.7822C30.3664 66.7114 30.6053 66.7076 30.8303 66.7715C31.0554 66.8353 31.2567 66.9639 31.4094 67.1412C33.7248 69.7317 36.4738 71.8982 39.5327 73.5435C43.6726 75.8234 48.3917 77.2995 52.9189 77.456C57.3537 77.6125 61.6037 76.5028 64.912 73.6395C66.3802 72.3654 67.6078 70.8379 68.5366 69.1295C68.6455 68.9288 68.8096 68.7635 69.0094 68.6532C69.2093 68.5429 69.4365 68.4922 69.6642 68.5072C69.8919 68.5222 70.1105 68.6021 70.2942 68.7376C70.4779 68.8731 70.619 69.0585 70.7007 69.2718L70.8215 69.5954C71.9267 72.7112 70.8215 76.99 68.3341 80.9132C65.8857 84.7688 62.0799 88.3612 57.7481 90.1609L57.1014 90.417C53.7113 91.6832 49.4471 91.9144 45.4174 91.2279C41.4588 90.5557 37.6778 88.9871 35.1122 86.6361L26.8751 79.1206L25.18 77.2106C24.9922 76.9968 24.8863 76.7233 24.8811 76.4386C24.8759 76.154 24.9717 75.8767 25.1516 75.6562L25.109 75.6705ZM28.0833 75.891L27.6142 76.4174L28.4742 77.392L36.6828 84.879C38.9109 86.9135 42.2512 88.2793 45.7798 88.8804C49.4293 89.4993 53.2422 89.3073 56.2379 88.1691L56.8029 87.945C60.6549 86.3302 64.0698 83.0935 66.2837 79.6114C67.7051 77.3457 68.6397 75.0089 68.8209 72.9922C68.1195 73.8857 67.3341 74.7099 66.4756 75.4535C62.6698 78.7506 57.8405 80.0276 52.8336 79.8497C47.9191 79.6754 42.8233 78.0927 38.3778 75.6456C35.8379 74.2583 33.4873 72.5488 31.3845 70.5593C31.1688 71.49 30.795 72.3767 30.2794 73.1807C29.617 74.1385 28.8829 75.0446 28.0833 75.891Z" fill="#3C3C3C"/>
<path fill-rule="evenodd" clip-rule="evenodd" d="M64.4302 76.4837C67.8779 73.1171 70.6905 66.9921 73.376 61.418C77.0496 53.7939 76.8625 45.0893 76.9049 38.077L75.6451 33.9125C75.1969 32.1916 75.1616 30.3634 75.1298 28.6211C75.0875 26.3421 75.0451 24.2348 73.8877 23.165C72.035 21.4442 69.1025 24.0702 65.6582 27.1542C63.3151 29.2543 60.7672 31.5333 57.9935 33.1576C55.2198 34.7819 52.6789 35.476 50.3357 36.1164C48.0702 36.7353 46.0305 37.2934 44.3683 38.7138C41.7817 40.9213 41.8981 42.7101 41.9405 45.8692C41.9828 48.8566 42.1381 51.7939 40.3419 58.1408C40.1346 56.52 39.7304 54.9313 39.1385 53.411C35.8884 45.4292 28.1107 48.2234 28.2765 55.8153C28.2958 56.5828 28.3916 57.3463 28.5624 58.0943C29.0353 60.2159 30.2104 62.6809 31.1702 64.4984C31.4843 65.0887 31.082 66.6808 30.8174 67.5573C37.3882 75.1242 46.955 80.2976 54.5669 80.2976C57.9582 80.2976 61.9564 78.8987 64.4302 76.4837Z" fill="white"/>
<path fill-rule="evenodd" clip-rule="evenodd" d="M63.2384 75.5367C66.3569 72.5569 69.0293 67.1183 71.5579 61.9758L72.1046 60.866C75.5108 53.9428 75.5504 45.9776 75.5791 39.347V38.2764L74.3382 34.251C74.097 33.3152 73.9417 32.3596 73.8742 31.396C73.8059 30.5288 73.7879 29.5903 73.7735 28.6767C73.7803 27.6778 73.7154 26.6796 73.5793 25.6898C73.5299 25.1029 73.2916 24.5474 72.8995 24.1053L72.8563 24.0624C72.3959 23.7056 71.6586 23.9126 70.7414 24.4443C69.4214 25.208 67.8388 26.5855 66.1303 28.095C63.7024 30.2362 61.066 32.5273 58.1382 34.2046C55.2104 35.8818 52.5055 36.6206 50.0489 37.2772C48.9195 37.5841 47.8405 37.8732 46.9017 38.2336C46.007 38.5583 45.1731 39.0287 44.4343 39.6254C42.323 41.3883 42.3481 42.9192 42.3877 45.5208V46.2916C42.4381 49.2108 42.4884 52.2548 40.708 58.425C40.6316 58.6954 40.4624 58.9308 40.2295 59.0903C39.9966 59.2499 39.7147 59.3235 39.4328 59.2985C39.1509 59.2735 38.8868 59.1515 38.6861 58.9535C38.4854 58.7555 38.3609 58.494 38.3341 58.2145C38.228 57.4666 38.084 56.7246 37.9025 55.9912C37.7126 55.2619 37.4722 54.5465 37.1831 53.85C36.3091 51.7445 35.1077 50.5312 33.8812 50.0494C33.2565 49.8008 32.5705 49.7461 31.9138 49.8924C31.231 50.0559 30.6081 50.4057 30.1154 50.9023C29.0723 51.9265 28.3817 53.6073 28.4284 55.7664C28.4356 56.1006 28.4608 56.4341 28.504 56.7656C28.5471 57.1225 28.6119 57.4508 28.691 57.8041C28.9553 58.8658 29.3165 59.9014 29.7701 60.8981C30.2448 61.9687 30.77 63.0179 31.2412 63.8851C31.4969 64.4611 31.5733 65.0999 31.4606 65.7194V65.7586C31.3925 66.2407 31.2916 66.7176 31.1584 67.1861C34.3085 70.5998 38.0205 73.4574 42.1359 75.6367C46.2003 77.7778 50.369 79.0019 54.0306 78.9983C55.7723 78.976 57.4959 78.6449 59.1201 78.0205C60.6474 77.465 62.0493 76.6161 63.2456 75.5225L63.2384 75.5367ZM73.7412 63.0107C71.1227 68.3637 68.3459 73.9808 64.9182 77.2854C63.4881 78.606 61.8067 79.63 59.9725 80.2973C58.0729 81.0219 56.0584 81.405 54.0234 81.4286C49.9554 81.4286 45.391 80.0975 40.9993 77.7921C36.4454 75.3792 32.3586 72.1846 28.9284 68.3566C28.7758 68.1997 28.6691 68.0045 28.6197 67.7921C28.5703 67.5796 28.58 67.3578 28.6478 67.1504C28.8277 66.6045 28.9613 66.0447 29.0471 65.4767L29.1082 65.0377C28.5975 64.0849 28.0292 62.9786 27.5436 61.8617C27.0347 60.7269 26.6291 59.5493 26.3315 58.3429C26.2416 57.9397 26.1624 57.5186 26.1085 57.0796C26.054 56.6642 26.0227 56.246 26.015 55.827C25.9502 52.9721 26.9358 50.6596 28.4212 49.2036C29.2301 48.3951 30.2503 47.8266 31.367 47.5621C32.4973 47.3067 33.6791 47.3988 34.7552 47.8261C36.5536 48.5399 38.2621 50.1779 39.4311 52.9507L39.4994 53.1149C39.8996 50.8911 40.0564 48.6309 39.967 46.3737V45.6029C39.9167 42.284 39.8879 40.332 42.8769 37.8303C43.8209 37.0654 44.887 36.4624 46.0313 36.046C47.1248 35.6471 48.239 35.3064 49.3691 35.0254L49.4411 35.004C51.761 34.383 54.2788 33.705 56.9512 32.174C59.6236 30.6431 62.2133 28.3912 64.5585 26.3357C66.3569 24.7512 68.0294 23.2916 69.5545 22.4102C71.4104 21.3396 73.0722 21.0755 74.4857 22.296L74.5684 22.3638C75.3849 23.1025 75.7985 24.1303 76.0072 25.3186C76.1613 26.4301 76.2347 27.5512 76.2266 28.6732C76.2266 29.4975 76.2589 30.3433 76.3309 31.2533C76.3851 32.0685 76.5139 32.8772 76.7157 33.6693L77.9818 37.7732C78.018 37.8888 78.0362 38.0091 78.0358 38.1301V39.3684C78.007 46.2595 77.9674 54.5352 74.3238 61.933L73.7412 63.0107Z" fill="#3C3C3C"/>
<path fill-rule="evenodd" clip-rule="evenodd" d="M22.1296 19.1468C16.0438 30.397 19.8713 61.1969 30.3748 67.8572C30.5903 67.2977 31.2901 65.0669 30.9049 64.3399C29.9436 62.5296 28.7844 60.0637 28.2931 57.9612C26.0066 47.8193 37.9873 43.0583 40.0901 58.0075C41.889 51.6857 41.7335 48.7422 41.6911 45.7845C41.6451 42.6414 41.532 40.8596 44.1226 38.6573C45.7872 37.2319 47.8299 36.6867 50.0988 36.0702C52.4455 35.4323 54.9936 34.7374 57.7679 33.1231C60.5422 31.5088 63.0974 29.2353 65.444 27.1435C68.8933 24.0717 71.8302 21.4418 73.6856 23.1701C74.8448 24.2392 74.8873 26.3345 74.9297 28.6045C74.9615 30.34 74.9968 32.1681 75.4457 33.875L76.7144 38.0337C77.0678 32.5601 76.9477 26.217 76.1949 21.0248C74.7388 10.9507 70.2787 10.5943 58.0082 4.03733C56.0468 2.99321 53.5022 1.25777 49.6994 1.13661C40.4259 0.847964 26.6957 11.7204 22.1296 19.1468Z" fill="#2B7CFF"/>
<path fill-rule="evenodd" clip-rule="evenodd" d="M23.199 19.7746C20.1791 25.3817 19.7416 36.1548 21.435 46.1636C22.8462 54.4728 25.7004 62.1633 29.7399 65.7793L29.807 65.3917L29.8846 64.8335C29.3836 63.8877 28.8262 62.7855 28.3499 61.6727L28.3181 61.5873C27.8342 60.4834 27.447 59.3389 27.161 58.1669C26.2507 54.1172 27.4079 50.7822 29.3871 48.9226C30.2189 48.1238 31.259 47.58 32.3859 47.3547C33.5426 47.1391 34.7374 47.2997 35.7975 47.8133C37.4345 48.592 38.9727 50.2453 40.0558 52.9652C40.451 50.7476 40.606 48.4932 40.518 46.2418V45.4738C40.4686 42.1636 40.4404 40.2223 43.3722 37.7299C44.2981 36.9679 45.3438 36.367 46.4662 35.9522C47.5573 35.549 48.6691 35.2048 49.7966 34.9211C52.0687 34.2988 54.5383 33.6233 57.1596 32.098C59.7809 30.5727 62.3211 28.3292 64.6213 26.2812V26.2634C66.3853 24.6954 68.0153 23.2448 69.5041 22.3524C71.3598 21.2573 73.0144 21.0119 74.4186 22.3097C74.7375 22.5995 75.0048 22.9422 75.2089 23.323C75.1312 22.6119 75.043 21.9079 74.9443 21.211C73.8612 13.4814 70.7071 11.8992 62.942 7.99524C61.3297 7.18458 59.5233 6.27793 57.4171 5.15083L56.4963 4.6424C54.7747 3.68241 52.5908 2.48065 49.6414 2.39176C45.6795 2.26732 40.7579 4.37928 36.1503 7.3908C30.6149 11.0103 25.5981 15.8813 23.199 19.7675V19.7746ZM19.0924 46.5653C17.3284 36.0837 17.8435 24.6705 21.1281 18.6048L21.1598 18.548C23.7176 14.3845 29.0308 9.19699 34.8555 5.3926C39.8265 2.14287 45.2208 -0.132657 49.7084 0.00600794C53.2364 0.116229 55.706 1.47445 57.6464 2.55532L58.5214 3.0353C60.5006 4.10195 62.3528 5.01929 64.0004 5.84772C72.5628 10.1499 76.0168 11.8921 77.3186 20.8662C77.695 23.5939 77.92 26.3406 77.9925 29.0936C78.0842 32.1513 78.0277 35.2411 77.8443 38.0855C77.8259 38.3646 77.7113 38.6284 77.5201 38.8313C77.329 39.0341 77.0735 39.1632 76.7979 39.1961C76.5223 39.2291 76.2439 39.1638 76.011 39.0116C75.7781 38.8594 75.6054 38.6298 75.5229 38.3628L74.2492 34.178C74.0155 33.2452 73.8644 32.2933 73.7977 31.3336C73.7306 30.4696 73.713 29.5345 73.6989 28.6243C73.7055 27.629 73.6418 26.6345 73.5084 25.6483C73.4599 25.0636 73.2261 24.5102 72.8416 24.0697C72.397 23.6537 71.6561 23.8599 70.7248 24.4252C69.43 25.1861 67.8777 26.5585 66.2019 28.0625C63.8134 30.1958 61.2239 32.4927 58.345 34.1673C55.4661 35.8419 52.8589 36.5602 50.467 37.2144L50.3964 37.2357C49.3509 37.4991 48.3194 37.8159 47.3059 38.185C46.4283 38.5085 45.6104 38.9772 44.8857 39.5717C42.8182 41.3245 42.8394 42.8534 42.8782 45.4382V46.2133C42.9276 49.1217 42.977 52.1546 41.2306 58.3021C41.1561 58.5666 40.9935 58.7972 40.7701 58.9552C40.5468 59.1133 40.2763 59.189 40.0041 59.1699C39.7318 59.1507 39.4744 59.0377 39.2751 58.8499C39.0757 58.6621 38.9466 58.4109 38.9092 58.1385C38.2389 53.3706 36.5666 50.8568 34.7709 50.0035C34.1628 49.7075 33.4775 49.6129 32.8128 49.7333C32.1292 49.8755 31.4994 50.2095 30.9959 50.6968C29.5847 52.0373 28.7627 54.5368 29.4683 57.6692C29.719 58.6964 30.059 59.6994 30.4843 60.6665L30.5267 60.7518C30.9924 61.8398 31.5075 62.8851 31.9661 63.7313C32.2335 64.3765 32.2988 65.0886 32.1531 65.7722C32.0122 66.5957 31.7985 67.4048 31.5145 68.1899C31.4854 68.2789 31.4451 68.3637 31.3946 68.4424C31.224 68.708 30.9559 68.8946 30.649 68.9613C30.3421 69.0279 30.0215 68.9692 29.7576 68.7979C24.4232 65.3917 20.7471 56.3287 19.0924 46.5653Z" fill="#3C3C3C"/>
<path fill-rule="evenodd" clip-rule="evenodd" d="M57.312 86.2845C42.1911 84.9248 33.8895 84.5524 26.012 76.0957C30.9565 81.7171 38.9777 88.916 41.7811 95.3174C45.9652 104.941 43.9328 115.4 53.4363 124.405L62.5474 119.648C69.6225 109.522 76.6345 82.3495 69.2055 68.9881L68.9497 69.4554C69.7066 76.6297 63.9351 80.0588 58.3808 85.6626L57.3296 86.2775L57.312 86.2845Z" fill="#2B7CFF"/>
<path fill-rule="evenodd" clip-rule="evenodd" d="M57.1942 87.4775L55.1951 87.2986C46.5614 86.5373 40.1895 85.9725 34.7523 83.7344C38.1098 87.3863 41.2678 91.2136 42.8503 94.855C44.3627 98.3315 45.0805 101.871 45.7947 105.411C47.0166 111.448 48.2454 117.496 53.6266 122.93L61.7036 118.72C65.4812 113.171 69.2134 102.664 70.5963 92.1573C71.4716 85.5305 71.405 78.9353 69.8156 73.6557C68.8177 77.5356 65.8138 80.321 62.3863 83.4783C61.336 84.45 60.2436 85.4604 59.1933 86.5198C59.1023 86.6121 58.9971 86.6891 58.8817 86.7478L57.8804 87.3231C57.6686 87.4461 57.4239 87.5001 57.1802 87.4775H57.1942ZM55.3981 84.9482L57.0296 85.092L57.6283 84.7412C58.7101 83.6572 59.771 82.675 60.7793 81.7313C64.8685 77.9531 68.2821 74.7923 67.7394 69.6179C67.7139 69.3813 67.7616 69.1425 67.876 68.9338L68.1281 68.4673C68.2399 68.2721 68.4035 68.1118 68.6007 68.0042C68.8744 67.8532 69.1966 67.8167 69.497 67.9028C69.7974 67.9889 70.0516 68.1906 70.2042 68.4638C73.6317 74.6415 74.1079 83.5485 72.935 92.4555C71.4856 103.471 67.4909 114.556 63.4821 120.299C63.3711 120.447 63.2273 120.567 63.062 120.65L54.0187 125.375C53.7992 125.503 53.5441 125.557 53.2917 125.528C53.0392 125.499 52.803 125.389 52.6183 125.214C46.1798 119.117 44.8389 112.48 43.498 105.856C42.7978 102.446 42.1185 99.0401 40.6971 95.7811C38.719 91.2381 33.8525 86.1374 29.4937 81.5629C27.9672 79.9597 26.4967 78.4056 25.2013 76.9533L25.1698 76.9217C24.9693 76.6903 24.8663 76.39 24.8825 76.0839C24.8987 75.7779 25.0329 75.4902 25.2568 75.2813C25.4806 75.0725 25.7766 74.959 26.0824 74.9646C26.3882 74.9702 26.6798 75.0946 26.8959 75.3115C34.0941 83.0538 41.835 83.7414 55.3981 84.9482Z" fill="#3C3C3C"/>
<path fill-rule="evenodd" clip-rule="evenodd" d="M70.0364 78.7869C70.0984 78.6366 70.1902 78.5002 70.3064 78.3859C70.4225 78.2716 70.5607 78.1817 70.7126 78.1216C70.8645 78.0615 71.0269 78.0324 71.1904 78.036C71.3538 78.0396 71.5149 78.076 71.6639 78.1428C71.8129 78.2096 71.9469 78.3055 72.0578 78.4249C72.1687 78.5442 72.2543 78.6845 72.3094 78.8375C72.3646 78.9904 72.3882 79.1528 72.3789 79.315C72.3695 79.4772 72.3274 79.6358 72.255 79.7815C71.2577 81.9646 69.2161 85.2213 67.0047 88.7581C65.8917 90.5534 64.7282 92.3955 63.7345 94.0472C63.5686 94.3213 63.3002 94.5189 62.9881 94.597C62.6759 94.675 62.3454 94.6271 62.0687 94.4637C61.8553 94.338 61.6862 94.1499 61.5845 93.9251L58.5456 88.0256L55.4236 97.5552C55.3234 97.8606 55.1056 98.1141 54.8177 98.2601C54.5299 98.4061 54.1955 98.4329 53.8878 98.3344L40.3519 92.5283C40.2005 92.4686 40.0628 92.3794 39.9468 92.2659C39.8308 92.1525 39.7388 92.017 39.6764 91.8676C39.6139 91.7182 39.5823 91.5579 39.5833 91.3961C39.5843 91.2344 39.6179 91.0745 39.6822 90.9258C39.7465 90.7772 39.8401 90.6429 39.9575 90.5308C40.0749 90.4188 40.2137 90.3313 40.3658 90.2734C40.5178 90.2156 40.68 90.1887 40.8427 90.1942C41.0054 90.1998 41.1653 90.2377 41.313 90.3057L53.512 95.566L56.4028 86.7761C56.452 86.6251 56.5306 86.4852 56.6343 86.3644C56.7379 86.2436 56.8646 86.1444 57.0069 86.0724C57.1492 86.0003 57.3044 85.9569 57.4637 85.9445C57.6229 85.9322 57.7831 85.9512 57.9349 86.0005L58.0144 86.0292C58.1284 85.7775 58.3245 85.5713 58.5709 85.4439C58.8581 85.2996 59.1911 85.2741 59.4971 85.373C59.8032 85.4719 60.0574 85.6872 60.2042 85.9718L62.7769 90.9628L64.945 87.4942C67.1059 84.0113 69.1041 80.8192 70.0364 78.7869Z" fill="#3C3C3C"/>
<path fill-rule="evenodd" clip-rule="evenodd" d="M53.1548 124.405L62.2024 119.683C62.0528 118.351 62.0215 118.1 61.8544 116.851C61.0958 110.469 60.8731 103.627 60.1145 96.8227C60.0832 96.5158 60.4033 93.9247 60.7687 91.2428L58.0649 85.9524L57.0209 86.5627L54.7868 93.4364C55.3645 95.3685 55.9178 97.4051 55.8725 97.8515C55.0861 105.834 54.2649 113.712 53.4784 121.332C53.3462 122.494 53.2835 123.191 53.1548 124.405Z" fill="white"/>
<path fill-rule="evenodd" clip-rule="evenodd" d="M54.8218 122.324L61.8107 118.978L61.5486 116.954C61.1232 113.673 60.8497 110.264 60.5724 106.803C60.3141 103.547 60.0483 100.239 59.6456 96.9692C59.6536 96.3253 59.7082 95.6827 59.809 95.0455C59.9267 94.1411 60.109 92.8505 60.3141 91.4765L58.3732 87.9979L56.4323 93.4628C56.7399 94.4194 57.0362 95.383 57.2451 96.1587C57.4358 96.7438 57.538 97.35 57.549 97.9606C56.7172 105.655 55.8701 113.11 55.0535 120.331L54.8294 122.3L54.8218 122.324ZM63.7668 120.69L53.9292 125.389C53.6981 125.507 53.4324 125.556 53.1695 125.528C52.8336 125.496 52.5253 125.343 52.3118 125.103C52.0984 124.863 51.9971 124.556 52.03 124.248L52.4896 120.116C53.3215 112.811 54.1761 105.255 54.9851 97.7588C54.9245 97.4164 54.8433 97.0773 54.742 96.7431C54.5255 95.9395 54.1913 94.8681 53.8494 93.8211C53.7735 93.5944 53.7735 93.352 53.8494 93.1254L56.2879 86.2691C56.3832 85.982 56.5917 85.7377 56.8729 85.5838L58.0807 84.9507C58.2298 84.8804 58.3926 84.8378 58.5597 84.8253C58.7267 84.8128 58.8949 84.8306 59.0544 84.8778C59.214 84.925 59.3618 85.0006 59.4893 85.1003C59.6168 85.2 59.7216 85.3217 59.7976 85.4586L62.7185 90.6764C62.861 90.9 62.9185 91.1607 62.8818 91.4174C62.6767 92.8088 62.4754 94.2002 62.3348 95.3029C62.2323 96.1169 62.1677 96.6561 62.1715 96.6944C62.5817 100.03 62.8476 103.352 63.1097 106.622C63.3832 110.042 63.6529 113.412 64.0745 116.661L64.4543 119.496C64.4873 119.736 64.439 119.979 64.316 120.192C64.193 120.406 64.0013 120.579 63.7668 120.69Z" fill="#3C3C3C"/>
<path fill-rule="evenodd" clip-rule="evenodd" d="M60.0186 95.5279C60.1812 95.2786 60.4432 95.0998 60.7469 95.031C61.0505 94.9622 61.3709 95.009 61.6377 95.161C61.9045 95.3131 62.0957 95.5579 62.1693 95.8418C62.2429 96.1256 62.1929 96.4251 62.0302 96.6745C61.773 97.1083 61.415 97.4827 60.9826 97.7701C60.5501 98.0575 60.0543 98.2507 59.5314 98.3354C58.5922 98.4893 57.4918 98.3354 56.1775 97.8571C55.8848 97.7528 55.6483 97.5441 55.5201 97.2769C55.3919 97.0096 55.3826 96.7057 55.4941 96.4321C55.6057 96.1584 55.8289 95.9373 56.1148 95.8175C56.4007 95.6977 56.7258 95.689 57.0186 95.7933C57.9298 96.1208 58.6202 96.2388 59.1214 96.1569C59.3114 96.1206 59.4904 96.0454 59.6456 95.9366C59.8007 95.8279 59.9281 95.6883 60.0186 95.5279Z" fill="#3C3C3C"/>
<path fill-rule="evenodd" clip-rule="evenodd" d="M30.6306 91.0096C30.5074 90.718 30.504 90.3889 30.6211 90.0947C30.7383 89.8006 30.9664 89.5654 31.2553 89.441C31.5442 89.3167 31.8702 89.3132 32.1617 89.4315C32.4531 89.5498 32.686 89.7801 32.8092 90.0717L37.2686 100.627C37.3772 100.878 37.3947 101.16 37.3179 101.423L36.2831 105.203L48.461 123.721C48.6188 123.986 48.6692 124.302 48.6016 124.603C48.5339 124.904 48.3536 125.167 48.0982 125.338C47.8428 125.508 47.5322 125.572 47.2312 125.516C46.9302 125.46 46.6621 125.29 46.483 125.039L34.0094 106.074C33.9156 105.931 33.8533 105.77 33.8265 105.601C33.7998 105.431 33.8094 105.258 33.8546 105.093L34.9281 101.185L30.6306 91.0096Z" fill="#3C3C3C"/>
<path fill-rule="evenodd" clip-rule="evenodd" d="M61.3125 42.6534C66.5757 39.5692 71.8008 36.3648 77.0881 33.3476C77.797 32.9413 78.3019 32.6728 78.9658 32.8565L79.0454 32.8813C79.737 33.1145 80.1139 33.7186 80.2453 34.9587C80.3629 37.1986 80.2453 39.7176 80.2453 41.9892C80.2385 42.5654 80.1512 43.1377 79.986 43.6886C79.8276 44.2314 79.6095 44.7541 79.3358 45.2467L79.2356 45.4304C78.9497 45.9252 78.6111 46.3861 78.2258 46.8047C77.8418 47.2286 77.3991 47.5929 76.9118 47.8858L68.2355 53.0121C67.6125 53.3934 66.9169 53.6344 66.1953 53.7187C65.491 53.8038 64.7785 53.6565 64.162 53.2983L64.0859 53.2488C63.6205 52.9532 63.2343 52.5441 62.962 52.0582C62.9102 52.3232 62.8445 52.5881 62.7649 52.8566V52.9061C62.5203 53.712 62.1874 54.4871 61.7725 55.2167C61.3534 55.9656 60.8496 56.6616 60.2717 57.2905C59.7336 57.8797 59.1152 58.3866 58.4355 58.7956L49.6659 63.9643C49.2212 64.2242 48.7294 64.3889 48.2204 64.4483C47.6726 64.5096 47.1198 64.3934 46.6401 64.1162L46.5986 64.0915C46.1372 63.8052 45.7746 63.3792 45.5612 62.8726L45.5266 62.7843C45.3351 62.3032 45.2398 61.7879 45.2465 61.2686V54.3652C45.1991 53.6512 45.3514 52.938 45.6857 52.309L45.741 52.2278C46.0979 51.7204 46.5735 51.3123 47.1242 51.0407L61.3333 42.6534H61.3125ZM60.7938 50.4754V45.7059L48.2688 53.0969C48.0564 53.2012 47.8624 53.3409 47.6948 53.5102L47.674 53.542C47.581 53.8054 47.5468 54.0866 47.5738 54.3652V61.2651C47.5682 61.4617 47.5963 61.6578 47.6568 61.8445L47.6775 61.8904C47.7023 61.9493 47.7388 62.0022 47.7847 62.0459H47.8124C47.875 62.0603 47.94 62.0603 48.0026 62.0459C48.188 62.0188 48.3665 61.9552 48.5282 61.8586L57.2563 56.7076C57.7434 56.4115 58.1859 56.045 58.5703 55.6194C59.4666 54.6418 60.1336 53.4687 60.5207 52.1889V52.143C60.6881 51.5925 60.7766 51.0201 60.7835 50.4436L60.7938 50.4754ZM77.2161 36.0186L64.7014 43.4024V49.5463C64.6898 49.9512 64.7605 50.3542 64.9089 50.7298C64.9873 50.9243 65.1179 51.0921 65.2858 51.2138L65.3273 51.2385C65.5248 51.3444 65.7495 51.3851 65.9705 51.3551C66.3633 51.3007 66.7403 51.1623 67.0771 50.9488L75.7533 45.8296C76.0457 45.6518 76.3112 45.4316 76.5418 45.176C76.8061 44.8838 77.038 44.5627 77.2334 44.2185L77.2679 44.1585C77.473 43.7961 77.6366 43.4109 77.7555 43.0103C77.857 42.6797 77.9106 42.3357 77.9146 41.9892V35.6052L77.2161 36.0186Z" fill="#3C3C3C"/>
<path fill-rule="evenodd" clip-rule="evenodd" d="M31.8068 49.8191C31.773 49.974 31.7087 50.1208 31.6178 50.251C31.5269 50.3813 31.4111 50.4924 31.2769 50.5782C31.1427 50.664 30.9929 50.7226 30.8359 50.7509C30.6789 50.7791 30.5179 50.7763 30.362 50.7427C30.2061 50.7091 30.0584 50.6453 29.9273 50.555C29.7962 50.4646 29.6843 50.3495 29.598 50.2162C29.5116 50.0829 29.4526 49.9341 29.4242 49.7781C29.3958 49.6221 29.3986 49.4621 29.4324 49.3073L29.609 48.5054C29.6525 48.3057 29.7178 48.1113 29.8035 47.9255L29.8215 47.8861C29.9643 47.5766 30.1684 47.2989 30.4216 47.0695C30.6747 46.8401 30.9718 46.6637 31.2951 46.5509C31.891 46.3457 32.5334 46.3134 33.1471 46.4578L33.2624 46.4865C33.5171 46.5498 33.7656 46.6361 34.0046 46.7442L45.653 51.9777C45.7985 52.0428 45.9296 52.1357 46.039 52.2512C46.1483 52.3667 46.2337 52.5024 46.2902 52.6507C46.3468 52.7989 46.3734 52.9568 46.3685 53.1152C46.3636 53.2737 46.3274 53.4297 46.2619 53.5742C46.1964 53.7188 46.1028 53.8491 45.9866 53.9577C45.8704 54.0664 45.7338 54.1512 45.5845 54.2073C45.4353 54.2635 45.2764 54.29 45.1169 54.2851C44.9574 54.2803 44.8005 54.2443 44.655 54.1792L33.0066 48.9457L32.6463 48.8204C32.4802 48.7736 32.3043 48.7736 32.1383 48.8204C32.093 48.8356 32.0556 48.8677 32.0338 48.9099L31.8068 49.8191Z" fill="#3C3C3C"/>
<path fill-rule="evenodd" clip-rule="evenodd" d="M74.6197 108.767C74.586 108.926 74.522 109.075 74.4317 109.207C74.3415 109.339 74.2268 109.45 74.0947 109.533C73.9625 109.617 73.8158 109.671 73.6633 109.692C73.5108 109.713 73.3558 109.702 73.2077 109.658C73.0596 109.614 72.9215 109.538 72.8019 109.436C72.6822 109.334 72.5835 109.207 72.5118 109.063C72.44 108.919 72.3967 108.761 72.3844 108.599C72.3722 108.437 72.3913 108.274 72.4406 108.12L77.912 87.5613L76.4189 85.7225C76.2732 85.5411 76.1808 85.3185 76.1532 85.0822L74.5861 74.8387C74.5539 74.5317 74.6354 74.2234 74.8134 73.9786C74.9914 73.7337 75.2521 73.5712 75.5409 73.5252C75.8297 73.4792 76.1241 73.5533 76.3624 73.7318C76.6006 73.9104 76.7643 74.1796 76.8191 74.483L78.3424 84.442L80.0036 86.4872C80.1324 86.638 80.223 86.8207 80.2671 87.0185C80.3112 87.2162 80.3073 87.4225 80.2559 87.6182L74.6197 108.767Z" fill="#3C3C3C"/>
</g>
<defs>
<clipPath id="clip0_280_5046">
<rect width="95" height="133.452" fill="white"/>
</clipPath>
</defs>
</svg>
