<svg width="140" height="128" viewBox="0 0 140 128" fill="none" xmlns="http://www.w3.org/2000/svg">
<path fill-rule="evenodd" clip-rule="evenodd" d="M48.4519 82.9976C50.6699 81.8433 52.9655 81.1603 55.3387 82.3437C53.6115 81.3959 51.1024 79.6961 49.3363 79.4764C47.5702 79.2567 45.8457 79.8974 44.2904 80.7022C38.9228 83.8131 35.0552 90.0877 34.5867 96.0579L38.7454 98.3453C39.2112 92.3699 43.0788 86.0952 48.4519 82.9976Z" fill="#2B7CFF"/>
<path fill-rule="evenodd" clip-rule="evenodd" d="M35.6158 95.5393L38.0842 96.8992C38.9921 91.0393 42.8401 85.3079 47.958 82.3359C47.958 82.3359 47.9799 82.3202 47.9882 82.3123C48.9903 81.7598 50.0714 81.3503 51.1971 81.0967C50.5711 80.7549 49.8912 80.5128 49.184 80.38C47.5054 80.1805 45.9147 80.8841 44.7188 81.5115C39.941 84.284 36.2411 90.0022 35.6185 95.5393H35.6158ZM38.8111 99.102C38.6573 99.0997 38.5065 99.0609 38.3722 98.9891L34.2582 96.7207C34.1166 96.6406 34.0008 96.5247 33.9234 96.3858C33.846 96.2469 33.81 96.0903 33.8193 95.9331C34.3185 89.632 38.3448 83.2627 43.8412 80.0623C45.3058 79.293 47.2147 78.4634 49.3979 78.7259C50.9448 78.9097 52.8071 80.0124 54.4582 80.9864C54.8806 81.249 55.281 81.4774 55.654 81.6769C55.857 81.7835 56.0074 81.9628 56.0722 82.1755C56.137 82.3882 56.1109 82.6169 55.9996 82.8111C55.8883 83.0054 55.701 83.1494 55.4788 83.2114C55.2566 83.2735 55.0177 83.2485 54.8148 83.142C53.1061 82.2887 51.3233 82.4803 48.8411 83.7747C43.9043 86.6626 40.1276 92.6408 39.675 98.3301C39.6642 98.4707 39.6162 98.6064 39.5357 98.7245C39.4551 98.8425 39.3445 98.939 39.2142 99.0049C39.0898 99.0674 38.9516 99.1007 38.8111 99.102Z" fill="#3C3C3C"/>
<path fill-rule="evenodd" clip-rule="evenodd" d="M52.2644 69.2054C51.0138 68.5161 48.2158 66.734 47.0752 66.6003C41.4847 65.932 35.3968 77.461 40.1242 80.1867L44.247 82.459C39.0578 79.314 46.8443 66.485 52.2644 69.2054Z" fill="white"/>
<path fill-rule="evenodd" clip-rule="evenodd" d="M46.5954 67.4663C44.0055 67.4663 41.1149 70.732 39.9419 73.9743C39.2158 75.9955 39.0181 78.4844 40.6462 79.43L41.8111 80.0769C41.4535 77.9726 42.2527 75.3772 43.5504 73.2235C44.848 71.0697 46.823 69.0667 48.9225 68.3471C48.1098 67.9106 47.3295 67.5313 46.9476 67.4819C46.8307 67.4685 46.7131 67.4615 46.5954 67.4611V67.4663ZM44.2547 83.2153C44.1059 83.2147 43.9596 83.1781 43.8294 83.1088L39.7658 80.8563C37.6148 79.6119 37.0784 76.8399 38.3137 73.4339C39.7875 69.3577 43.5287 65.4191 47.1616 65.8478C48.145 65.9673 49.7 66.8402 51.637 67.9807C52.0054 68.1912 52.3332 68.3886 52.6068 68.5367C52.7997 68.6464 52.9409 68.8234 53.001 69.0306C53.0611 69.2378 53.0354 69.4592 52.9292 69.6487C52.8178 69.8366 52.6353 69.9763 52.4194 70.0387C52.2035 70.1011 51.9709 70.0814 51.7697 69.9838C49.6025 68.903 46.7579 71.2178 45.0404 74.06C43.3228 76.9022 42.6699 80.4406 44.718 81.6877C44.8776 81.7829 45.0003 81.9255 45.0675 82.0938C45.1347 82.2621 45.1426 82.4468 45.0901 82.6199C45.0377 82.7929 44.9276 82.9447 44.7768 83.0522C44.626 83.1597 44.4426 83.217 44.2547 83.2153Z" fill="#3C3C3C"/>
<path fill-rule="evenodd" clip-rule="evenodd" d="M55.6297 82.3209C53.8812 81.3503 51.4738 81.4882 48.8112 82.9759C46.2474 84.4052 43.8153 86.8899 41.9926 89.9209C40.4033 92.5991 39.3629 95.5797 39.1982 98.3455L58.4131 87.6218C58.2621 85.0363 57.2191 83.2119 55.6297 82.3209Z" fill="white"/>
<path fill-rule="evenodd" clip-rule="evenodd" d="M53.0443 82.6201C51.8902 82.6201 50.6003 83.0113 49.2208 83.7726C46.8094 85.122 44.5283 87.448 42.8013 90.3359C41.6051 92.3043 40.7709 94.4583 40.3355 96.7022L57.3919 87.1881C57.172 85.2586 56.3627 83.8225 55.1054 83.1189C54.4763 82.7783 53.7653 82.6045 53.0443 82.6149V82.6201ZM39.2928 99.1017C39.1314 99.1021 38.9733 99.0584 38.8365 98.9757C38.7035 98.8981 38.5952 98.7863 38.5238 98.6529C38.4524 98.5194 38.4206 98.3695 38.4319 98.2196C38.5949 95.4394 39.6159 92.3468 41.3158 89.5115C43.1896 86.3612 45.6906 83.8147 48.3763 82.3209C51.2005 80.7457 53.8997 80.5147 55.9798 81.675C57.8807 82.7252 59.0104 84.8254 59.1787 87.5977C59.1925 87.7555 59.1588 87.9138 59.0818 88.0535C59.0047 88.1932 58.8875 88.3084 58.7443 88.3853L39.7354 99.0019C39.5988 99.0704 39.4466 99.1047 39.2928 99.1017Z" fill="#3C3C3C"/>
<path fill-rule="evenodd" clip-rule="evenodd" d="M48.4201 82.4558C51.3924 80.674 53.8016 76.3665 53.8016 72.811C53.8016 71.0374 53.1941 69.7893 52.219 69.2125C51.2438 68.6356 49.9037 68.7084 48.4201 69.5979C46.9366 70.4875 45.5808 72.0078 44.6056 73.7545C43.6305 75.5012 43.0413 77.4636 43.0413 79.2373C43.0413 81.011 43.6488 82.259 44.6056 82.844C45.5625 83.4289 46.9287 83.3399 48.4201 82.4558Z" fill="white"/>
<path fill-rule="evenodd" clip-rule="evenodd" d="M51.3313 69.7793C50.5905 69.8141 49.8718 70.0351 49.2454 70.4206C47.875 71.1975 46.5593 72.5492 45.5643 74.2095C44.5694 75.8698 44.0267 77.6552 44.0267 79.1985C44.0267 80.5821 44.457 81.5932 45.2437 82.0216C46.0303 82.4499 47.1459 82.3249 48.3766 81.641C51.2491 80.026 53.5844 76.0853 53.5844 72.8605C53.5844 71.4849 53.154 70.4818 52.3674 70.0427C52.0496 69.8637 51.6877 69.7718 51.3203 69.7767L51.3313 69.7793ZM46.2852 83.9719C45.6139 83.9775 44.9527 83.8134 44.3666 83.4956C43.0207 82.74 42.2725 81.21 42.2725 79.2011C42.2725 77.3625 42.9029 75.2871 44.0459 73.3634C45.1888 71.4396 46.7265 69.8751 48.3738 68.9518C50.1637 67.9514 51.8932 67.8077 53.2445 68.5713C54.5958 69.335 55.3386 70.8463 55.3386 72.8578C55.3386 76.692 52.6579 81.1887 49.2427 83.1071C48.3522 83.6443 47.3305 83.9419 46.2825 83.9692L46.2852 83.9719Z" fill="#3C3C3C"/>
<path fill-rule="evenodd" clip-rule="evenodd" d="M48.47 25.0845C51.6542 23.3293 54.9914 22.2937 58.4134 24.0957C55.9262 22.6508 52.2965 20.055 49.7519 19.7336C47.1389 19.4068 44.7009 20.3681 42.4596 21.6015C34.7 26.3343 29.1188 35.8852 28.4382 44.9333L34.4513 48.4163C35.1128 39.3544 40.7022 29.8146 48.47 25.0845Z" fill="#2B7CFF"/>
<path fill-rule="evenodd" clip-rule="evenodd" d="M29.4552 44.3734L33.7992 46.8752C34.9232 37.8818 40.5133 28.9757 47.9985 24.4136L48.0366 24.3918C49.6655 23.4979 51.6176 22.6068 53.738 22.4051C52.2583 21.5657 50.7732 20.849 49.6275 20.7018C47.0754 20.383 44.6917 21.4758 42.9052 22.4569C35.7866 26.79 30.3077 35.7507 29.4715 44.3734H29.4552ZM34.5051 49.1726C34.3547 49.1729 34.2072 49.1314 34.0788 49.0527L28.1059 45.5971C27.9649 45.5148 27.8496 45.3947 27.7728 45.2503C27.6961 45.1059 27.661 44.9428 27.6715 44.7795C28.3774 35.3228 34.1413 25.749 42.0174 20.9607C44.07 19.8216 46.7904 18.6061 49.8121 18.9822C51.9841 19.2547 54.6448 20.8899 56.9905 22.3615C57.615 22.7458 58.2042 23.1082 58.7336 23.4162C58.9345 23.5268 59.0834 23.7129 59.1475 23.9337C59.2117 24.1545 59.1858 24.3918 59.0756 24.5935C58.9655 24.7951 58.78 24.9446 58.5601 25.009C58.3401 25.0734 58.1037 25.0474 57.9028 24.9369C55.291 23.5742 52.5841 23.8604 48.8565 25.9043C41.5613 30.3547 36.0173 39.5906 35.363 48.3659C35.3513 48.512 35.3034 48.6528 35.2238 48.7755C35.1441 48.8983 35.0352 48.9992 34.9069 49.0691C34.7842 49.1293 34.6498 49.1618 34.5132 49.1644L34.5051 49.1726Z" fill="#3C3C3C"/>
<path fill-rule="evenodd" clip-rule="evenodd" d="M48.008 24.9645L42.0522 21.5794L48.008 24.9565V24.9645ZM53.7932 4.68048C51.9902 3.6471 47.9484 0.999758 46.3079 0.797344C38.2269 -0.190754 29.4421 16.9718 36.2615 21.0387L42.2173 24.4158C34.7455 19.7496 45.9722 0.640195 53.8013 4.68048H53.7932Z" fill="white"/>
<path fill-rule="evenodd" clip-rule="evenodd" d="M45.6389 1.73891C41.604 1.73891 37.3405 6.91037 35.6001 11.992C34.1556 16.2027 34.6021 19.5124 36.7863 20.8543L39.2772 22.305C38.36 19.0715 39.5462 14.7274 41.5664 11.1891C43.5865 7.6507 46.7687 4.38451 50.0316 3.61968C48.5602 2.74053 46.9731 1.86956 46.2146 1.7743C46.0235 1.75166 45.8313 1.73985 45.6389 1.73891ZM42.2523 25.9114C42.1013 25.9076 41.9536 25.8665 41.8219 25.7917L35.9202 22.3513C32.9613 20.544 32.2484 16.4612 33.9754 11.4259C36.0654 5.329 41.2758 -0.599138 46.4271 0.048655C47.772 0.228295 50.0988 1.60555 52.7646 3.25769C53.3026 3.5952 53.8056 3.89732 54.1849 4.12595C54.3636 4.24478 54.4918 4.42703 54.5443 4.63678C54.5968 4.84652 54.5697 5.06856 54.4685 5.25914C54.3672 5.44971 54.1991 5.59499 53.9972 5.66636C53.7954 5.73773 53.5744 5.73001 53.3779 5.64472C50.0181 3.86737 45.647 7.5255 43.0539 12.06C40.4608 16.5946 39.5193 22.256 42.7177 24.3082C42.8758 24.4087 42.9973 24.5585 43.064 24.735C43.1306 24.9114 43.1387 25.1051 43.0871 25.2866C43.0355 25.4682 42.927 25.6278 42.7778 25.7415C42.6287 25.8552 42.4471 25.9167 42.2604 25.9168L42.2523 25.9114ZM48.0061 26.4558C47.8549 26.4562 47.7063 26.4158 47.5757 26.3387L41.6766 22.9174C41.5406 22.8415 41.4283 22.7286 41.3522 22.5916C41.2762 22.4545 41.2395 22.2987 41.2463 22.1417C41.2499 21.9847 41.2959 21.8316 41.3793 21.6992C41.4628 21.5668 41.5805 21.46 41.7197 21.3905C41.846 21.3282 41.9853 21.2977 42.1258 21.3014C42.2663 21.3052 42.4038 21.3432 42.5267 21.4122L48.4445 24.8635C48.5715 24.9368 48.6778 25.0419 48.7531 25.1686C48.8284 25.2954 48.8702 25.4397 48.8745 25.5875C48.8788 25.7354 48.8455 25.8819 48.7778 26.013C48.71 26.144 48.6101 26.2553 48.4876 26.336C48.3447 26.431 48.177 26.4802 48.0061 26.4775V26.4558Z" fill="#3C3C3C"/>
<path fill-rule="evenodd" clip-rule="evenodd" d="M58.2375 24.3781C55.6231 22.8631 52.1193 23.2161 48.4241 25.3636C44.5995 27.5899 41.1469 31.4071 38.6295 35.7754C36.3278 39.7908 34.84 44.2678 34.5867 48.4162L62.2561 32.3329C62.0324 28.4586 60.5365 25.7165 58.2375 24.3781Z" fill="white"/>
<path fill-rule="evenodd" clip-rule="evenodd" d="M54.3592 24.4106C52.5768 24.4106 50.5662 25.0082 48.473 26.1898C44.8313 28.2542 41.3876 31.8097 38.7965 36.2077C36.7694 39.6474 35.4271 43.3214 34.9678 46.7343L61.2356 31.8905C60.9303 28.7333 59.6568 26.3728 57.6076 25.2208C56.6163 24.6766 55.4957 24.3981 54.3592 24.4133V24.4106ZM33.9226 49.1728C33.7617 49.1711 33.6045 49.1254 33.4687 49.0409C33.3351 48.9602 33.226 48.846 33.1525 48.7102C33.079 48.5745 33.0438 48.422 33.0506 48.2685C33.2899 44.1558 34.789 39.5694 37.2755 35.3491C40.026 30.6981 43.6898 26.9219 47.5928 24.7121C51.6609 22.4162 55.5227 22.0663 58.4795 23.7351C61.1668 25.2531 62.7841 28.3107 63.0234 32.3157C63.0331 32.4734 62.9979 32.6306 62.9216 32.7698C62.8454 32.9091 62.7311 33.0249 62.5916 33.1043L34.3627 49.0544C34.2303 49.1336 34.0777 49.1746 33.9226 49.1728Z" fill="#3C3C3C"/>
<path fill-rule="evenodd" clip-rule="evenodd" d="M48.04 23.8778C50.2657 22.6176 52.2832 20.4502 53.743 17.9794C55.2028 15.5009 56.1075 12.7033 56.1075 10.1829C56.1075 7.66249 55.2028 5.8846 53.743 5.06364C52.2832 4.24268 50.2737 4.35511 48.032 5.61532C45.7902 6.87552 43.7887 9.05604 42.3315 11.5215C40.8744 13.987 39.967 16.7951 39.967 19.3181C39.967 21.8411 40.8691 23.6085 42.3315 24.4373C43.794 25.2661 45.8142 25.1459 48.04 23.8778Z" fill="white"/>
<path fill-rule="evenodd" clip-rule="evenodd" d="M52.141 5.49345C51.1539 5.49345 50.0344 5.82912 48.8543 6.48973C46.756 7.66862 44.7762 9.71223 43.2763 12.2419C41.7763 14.7715 40.9546 17.465 40.9546 19.8228C40.9546 22.0033 41.6633 23.6119 42.9537 24.3396C44.2441 25.0674 46.0308 24.8767 47.972 23.773C47.9862 23.7612 48.0019 23.7513 48.0188 23.7435C50.0592 22.5861 52.0362 20.5506 53.5334 18.0182C55.0306 15.4859 55.8633 12.7951 55.8633 10.44C55.8633 8.24868 55.1464 6.65086 53.8532 5.92311C53.3254 5.63293 52.7278 5.48465 52.1217 5.49345H52.141ZM44.6963 26.4773C43.7809 26.4875 42.879 26.2614 42.0824 25.822C40.224 24.7747 39.1982 22.6452 39.1982 19.8228C39.1982 17.1669 40.1109 14.1834 41.7598 11.3852C43.4086 8.58705 45.62 6.33666 47.9802 5.01275C50.4894 3.59486 52.8965 3.40152 54.7632 4.43809C56.6299 5.47466 57.6445 7.61761 57.6445 10.44C57.6445 13.0932 56.7346 16.0793 55.083 18.8775C53.4314 21.6757 51.2228 23.9234 48.8708 25.2473C47.6121 26.0077 46.1687 26.4294 44.688 26.4692L44.6963 26.4773Z" fill="#3C3C3C"/>
<path fill-rule="evenodd" clip-rule="evenodd" d="M48.0423 61.2769C47.8901 61.2772 47.7393 61.2557 47.5985 61.2136C47.4578 61.1715 47.3299 61.1096 47.2222 61.0315C47.1146 60.9534 47.0293 60.8607 46.9712 60.7586C46.9132 60.6565 46.8836 60.547 46.884 60.4366V45.4246C46.9006 45.2109 47.0292 45.0098 47.2436 44.8628C47.458 44.7157 47.7419 44.6338 48.0369 44.6338C48.332 44.6338 48.6158 44.7157 48.8302 44.8628C49.0446 45.0098 49.1733 45.2109 49.1898 45.4246V60.4392C49.1912 60.5491 49.1626 60.658 49.1055 60.7598C49.0484 60.8615 48.9641 60.9541 48.8573 61.032C48.7506 61.1099 48.6236 61.1717 48.4837 61.2137C48.3438 61.2558 48.1938 61.2772 48.0423 61.2769Z" fill="#3C3C3C"/>
<path fill-rule="evenodd" clip-rule="evenodd" d="M13.9257 80.9458C13.697 80.9437 13.4784 80.8526 13.3174 80.6923C13.1565 80.5321 13.0662 80.3157 13.0662 80.0902V72.2188C13.0652 72.0695 13.1049 71.9227 13.1812 71.7938C13.2575 71.6649 13.3677 71.5587 13.5 71.4862L81.7137 32.6506C81.8426 32.5715 81.9915 32.5295 82.1434 32.5295C82.2953 32.5295 82.4442 32.5715 82.5732 32.6506C82.7049 32.7231 82.8146 32.829 82.8909 32.9573C82.9671 33.0857 83.0072 33.2318 83.007 33.3805V41.3107C83.0135 41.4266 82.9961 41.5425 82.9557 41.6515C82.9152 41.7605 82.8527 41.8602 82.7719 41.9445C82.691 42.0288 82.5936 42.0959 82.4855 42.1418C82.3775 42.1877 82.2611 42.2114 82.1434 42.2114C82.0257 42.2114 81.9093 42.1877 81.8013 42.1418C81.6932 42.0959 81.5958 42.0288 81.5149 41.9445C81.4341 41.8602 81.3716 41.7605 81.3311 41.6515C81.2907 41.5425 81.2733 41.4266 81.2799 41.3107V34.8591L14.7906 72.7108V80.0902C14.7906 80.3166 14.6995 80.5339 14.5374 80.6942C14.3753 80.8546 14.1553 80.9451 13.9257 80.9458Z" fill="#3C3C3C"/>
<path fill-rule="evenodd" clip-rule="evenodd" d="M14.6312 102.664C16.8501 101.51 19.155 100.83 21.5209 102.013C19.7929 101.066 17.2828 99.3665 15.5271 99.1442C13.716 98.9298 12.0268 99.5597 10.4764 100.378C5.10671 103.49 1.23754 109.754 0.768799 115.728L4.9292 118.015C5.38407 112.049 9.26711 105.777 14.6312 102.664Z" fill="#2B7CFF"/>
<path fill-rule="evenodd" clip-rule="evenodd" d="M1.79623 115.076L4.26587 116.492C5.17963 110.409 9.02129 104.465 14.1444 101.38C14.1564 101.375 14.1669 101.368 14.1746 101.358C15.1779 100.786 16.2593 100.362 17.3851 100.097C16.7608 99.7395 16.0797 99.49 15.371 99.3592C13.6999 99.1468 12.1001 99.8766 10.9037 100.525C6.12633 103.403 2.42461 109.331 1.79897 115.076H1.79623ZM4.98481 118.771C4.83307 118.772 4.68398 118.731 4.55399 118.654L0.437931 116.301C0.296602 116.218 0.181113 116.098 0.104146 115.954C0.0271804 115.809 -0.00828637 115.647 0.00163024 115.484C0.490069 108.949 4.52655 102.335 10.0256 99.0243C11.4827 98.2346 13.3925 97.3715 15.585 97.6383C17.1327 97.8371 18.9959 98.9725 20.6478 99.9827C21.0704 100.255 21.471 100.492 21.836 100.699C22.039 100.809 22.1895 100.995 22.2543 101.216C22.3192 101.437 22.293 101.674 22.1817 101.875C22.0703 102.077 21.8829 102.226 21.6606 102.29C21.4383 102.355 21.1993 102.329 20.9963 102.218C19.2867 101.333 17.5031 101.532 15.028 102.874C10.0887 105.87 6.30194 112.07 5.85741 117.97C5.84501 118.117 5.79549 118.258 5.71345 118.38C5.63141 118.502 5.51952 118.602 5.38818 118.67C5.2651 118.739 5.12589 118.773 4.98481 118.771Z" fill="#3C3C3C"/>
<path fill-rule="evenodd" clip-rule="evenodd" d="M18.4463 88.2427C17.1906 87.5123 14.399 85.6535 13.2587 85.5135C7.66442 84.8215 1.58382 96.8918 6.30157 99.7474L10.4231 102.128C5.24372 98.8468 13.0224 85.4009 18.4463 88.2427Z" fill="white"/>
<path fill-rule="evenodd" clip-rule="evenodd" d="M12.7968 86.4542C10.2074 86.4542 7.30325 89.859 6.128 93.2313C5.40059 95.3376 5.20246 97.9373 6.83369 98.9241L8.01165 99.5991C7.64252 97.4033 8.44321 94.6952 9.74602 92.4479C11.0488 90.2006 13.0302 88.1295 15.1256 87.3596C14.3249 86.9042 13.5405 86.5084 13.1496 86.4651C13.0327 86.4496 12.9148 86.4423 12.7968 86.4434V86.4542ZM10.4571 102.885C10.3059 102.881 10.1578 102.841 10.0256 102.768L5.95429 100.418C3.79921 99.1193 3.25638 96.2241 4.49948 92.6729C5.976 88.4277 9.64289 84.2937 13.3559 84.7654C14.3493 84.8819 15.9018 85.7982 17.8343 86.9747C18.2089 87.2078 18.5482 87.4057 18.8114 87.5629C18.9984 87.6809 19.1331 87.8658 19.1879 88.0797C19.2427 88.2937 19.2135 88.5205 19.1062 88.7136C18.9989 88.9067 18.8218 89.0515 18.611 89.1183C18.4003 89.1851 18.1719 89.1689 17.9728 89.0729C15.8204 87.9506 12.9515 90.3578 11.2388 93.3262C9.52617 96.2946 8.85848 99.984 10.9077 101.291C11.0993 101.411 11.2354 101.603 11.2862 101.823C11.3371 102.043 11.2986 102.275 11.1791 102.467C11.1053 102.593 10.9999 102.698 10.8734 102.771C10.7468 102.844 10.6034 102.883 10.4571 102.885Z" fill="#3C3C3C"/>
<path fill-rule="evenodd" clip-rule="evenodd" d="M21.043 101.99C19.2972 101.02 16.8871 101.158 14.2327 102.643C11.6607 104.072 9.22863 106.564 7.4142 109.587C5.81662 112.268 4.77627 115.257 4.61157 118.015L23.8264 107.291C23.6755 104.711 22.6406 102.889 21.043 101.99Z" fill="white"/>
<path fill-rule="evenodd" clip-rule="evenodd" d="M18.4771 101.603C17.3202 101.603 16.033 102.002 14.6507 102.803C12.2391 104.201 9.95788 106.632 8.23067 109.64C7.03366 111.692 6.19933 113.938 5.76478 116.277L22.8223 106.364C22.6024 104.356 21.7931 102.861 20.533 102.128C19.9074 101.774 19.2 101.593 18.4826 101.603H18.4771ZM4.70565 118.771C4.54649 118.771 4.39071 118.725 4.25755 118.637C4.1234 118.557 4.01379 118.442 3.94092 118.303C3.86804 118.165 3.83476 118.008 3.84476 117.852C4.0077 114.956 5.02882 111.735 6.72887 108.778C8.60544 105.497 11.1121 102.847 13.7898 101.291C16.6142 99.6502 19.3136 99.4095 21.3938 100.618C23.2949 101.712 24.4246 103.9 24.593 106.788C24.6042 106.949 24.5702 107.11 24.4948 107.253C24.4194 107.395 24.3057 107.514 24.1666 107.594L5.15646 118.653C5.0231 118.734 4.86948 118.775 4.71379 118.771H4.70565Z" fill="#3C3C3C"/>
<path fill-rule="evenodd" clip-rule="evenodd" d="M14.6007 101.361C17.5763 99.5865 19.9835 95.2781 19.9835 91.7219C19.9835 89.9478 19.3837 88.6995 18.4187 88.1225C17.4538 87.5456 16.095 87.6265 14.6111 88.5081C13.1272 89.3897 11.7789 90.9184 10.8036 92.6628C9.82818 94.4072 9.22314 96.3808 9.22314 98.1549C9.22314 99.929 9.83079 101.172 10.8036 101.757C11.7763 102.342 13.1116 102.253 14.6007 101.361Z" fill="white"/>
<path fill-rule="evenodd" clip-rule="evenodd" d="M16.7474 88.7105C16.009 88.7426 15.2921 88.9606 14.667 89.343C13.2965 90.1217 11.9726 91.4693 10.9777 93.1304C9.98271 94.7915 9.44 96.5855 9.44 98.1191C9.44 99.4932 9.87307 100.495 10.6652 100.934C11.4573 101.372 12.5674 101.245 13.7926 100.554C16.6706 98.9403 19.0004 95.0094 19.0004 91.7829C19.0004 90.4088 18.5701 89.4068 17.7835 88.9683C17.4641 88.7946 17.1025 88.7074 16.7364 88.7158L16.7474 88.7105ZM11.6985 102.874C11.0266 102.879 10.365 102.713 9.77987 102.393C8.42858 101.635 7.68579 100.11 7.68579 98.1084C7.68579 96.2666 8.31621 94.1988 9.45919 92.2772C10.6022 90.3556 12.1398 88.7875 13.7817 87.8653C15.5688 86.8633 17.301 86.7198 18.6578 87.4852C20.0146 88.2507 20.7519 89.7656 20.7519 91.7669C20.7519 95.5968 18.0713 100.096 14.656 102.002C13.7661 102.541 12.7467 102.845 11.6985 102.885V102.874Z" fill="#3C3C3C"/>
<path fill-rule="evenodd" clip-rule="evenodd" d="M82.5304 63.4751C84.6484 62.2751 86.8786 61.5678 89.1568 62.7898C87.5009 61.8073 85.0837 60.0375 83.3824 59.8091C81.681 59.5807 80.0118 60.2495 78.5214 61.0917C73.3426 64.3256 69.6247 70.8486 69.1733 77.055L73.1797 79.433C73.631 73.2265 77.3489 66.7118 82.5304 63.4751Z" fill="#2B7CFF"/>
<path fill-rule="evenodd" clip-rule="evenodd" d="M70.1422 76.4824L72.5255 77.9003C73.3994 71.8257 77.1146 65.8762 82.0586 62.7953C82.0586 62.7953 82.0798 62.7954 82.0851 62.779C83.048 62.2032 84.0885 61.7767 85.1728 61.5135C84.5696 61.1617 83.915 60.9127 83.2344 60.7759C81.9739 60.6208 80.6392 60.9746 78.918 61.9408C74.305 64.823 70.7407 70.7479 70.1316 76.4824H70.1422ZM73.2246 80.1838C73.0774 80.1833 72.9326 80.1449 72.8035 80.0722L68.8314 77.7126C68.6926 77.6319 68.5791 77.5122 68.504 77.3676C68.429 77.223 68.3956 77.0595 68.4077 76.8961C68.8897 70.3642 72.777 63.7534 78.0838 60.4439C79.4979 59.6464 81.333 58.7864 83.4489 59.0586C84.9397 59.2491 86.7484 60.3922 88.3346 61.4019C88.7424 61.674 89.129 61.9027 89.4892 62.1177C89.6851 62.2285 89.8302 62.4147 89.8925 62.6355C89.9549 62.8562 89.9293 63.0934 89.8215 63.2948C89.7137 63.4961 89.5325 63.6453 89.3177 63.7093C89.1029 63.7734 88.8721 63.7471 88.6762 63.6363C87.0264 62.7436 85.2999 62.9423 82.9166 64.2841C78.1341 67.2778 74.4904 73.4832 74.0587 79.3727C74.0498 79.5944 73.9571 79.8037 73.8003 79.9562C73.6435 80.1086 73.4351 80.1923 73.2193 80.1892L73.2246 80.1838Z" fill="#3C3C3C"/>
<path fill-rule="evenodd" clip-rule="evenodd" d="M86.8516 49.6534C85.6013 48.9313 82.8095 47.0725 81.6637 46.9325C76.0664 46.2323 69.9854 58.3021 74.7117 61.1658L78.8334 63.5463C73.6483 60.257 81.4246 46.8116 86.8516 49.6534Z" fill="white"/>
<path fill-rule="evenodd" clip-rule="evenodd" d="M81.1899 47.8755C78.6031 47.8755 75.7069 51.2791 74.5316 54.6502C73.796 56.7585 73.5952 59.3628 75.2346 60.341L76.4045 61.0185C76.0435 58.8289 76.8469 56.1217 78.139 53.8752C79.431 51.6287 81.426 49.5393 83.5296 48.7887C82.7153 48.3253 81.9336 47.9378 81.5509 47.8863C81.4311 47.8721 81.3105 47.8648 81.1899 47.8646V47.8755ZM78.8528 64.3029C78.7025 64.3032 78.555 64.262 78.4267 64.1837L74.3552 61.8424C72.2027 60.5362 71.6652 57.6447 72.9003 54.092C74.3796 49.851 78.0249 45.6913 81.7599 46.1872C82.7533 46.3118 84.3114 47.2143 86.2385 48.3958C86.6131 48.6315 86.9497 48.8375 87.2157 48.9838C87.4025 49.1013 87.5372 49.2856 87.5924 49.499C87.6476 49.7124 87.6191 49.9388 87.5127 50.1319C87.4063 50.325 87.23 50.4702 87.0199 50.5379C86.8098 50.6055 86.5818 50.5906 86.3824 50.496C84.2109 49.3713 81.3636 51.7886 79.6427 54.7532C77.9218 57.7179 77.2595 61.4088 79.3197 62.7095C79.4776 62.81 79.5986 62.9589 79.6646 63.1338C79.7306 63.3088 79.738 63.5004 79.6857 63.6799C79.6334 63.8594 79.5243 64.0171 79.3746 64.1295C79.2249 64.2418 79.0428 64.3027 78.8555 64.3029H78.8528Z" fill="#3C3C3C"/>
<path fill-rule="evenodd" clip-rule="evenodd" d="M89.4428 62.6759C87.7025 61.6643 85.2869 61.814 82.6325 63.3605C80.066 64.8627 77.6284 67.4514 75.8222 70.6276C74.2164 73.4185 73.1815 76.5421 73.0168 79.4328L92.2317 68.2246C92.0807 65.5223 91.0404 63.6155 89.4428 62.6759Z" fill="white"/>
<path fill-rule="evenodd" clip-rule="evenodd" d="M86.8751 63.016C85.7212 63.016 84.4315 63.4153 83.0522 64.2086C80.6384 65.6173 78.3603 68.0381 76.6308 71.0634C75.4353 73.1105 74.608 75.3542 74.1871 77.6912L91.233 67.7728C91.0049 65.765 90.204 64.2743 88.9387 63.5412C88.3137 63.1836 87.6046 63.0022 86.886 63.016H86.8751ZM73.1146 80.1886C72.9544 80.1902 72.797 80.1456 72.6612 80.06C72.5306 79.9752 72.424 79.8579 72.3517 79.7194C72.2794 79.5809 72.2438 79.4259 72.2485 79.2695C72.4168 76.3782 73.4404 73.1559 75.1374 70.1936C77.0055 66.9111 79.5143 64.266 82.1969 62.7096C85.0207 61.0684 87.7196 60.8277 89.7994 62.0367C91.6865 63.1309 92.8268 65.3191 92.9979 68.2077C93.0095 68.3709 92.9757 68.5341 92.9004 68.679C92.8252 68.8239 92.7113 68.9449 92.5716 69.0283L73.5653 80.0901C73.4261 80.1618 73.2708 80.1958 73.1146 80.1886Z" fill="#3C3C3C"/>
<path fill-rule="evenodd" clip-rule="evenodd" d="M82.6129 62.7842C85.8113 61.0109 88.3885 56.6963 88.3885 53.1498C88.3885 51.3765 87.7449 50.1287 86.7096 49.5439C85.6742 48.9591 84.2219 49.0481 82.6241 49.932C81.0263 50.816 79.5851 52.3575 78.5386 54.0903C77.492 55.8231 76.8596 57.7985 76.8596 59.5718C76.8596 61.3451 77.5032 62.5955 78.5386 63.1803C79.574 63.7651 81.0207 63.66 82.6129 62.7842Z" fill="white"/>
<path fill-rule="evenodd" clip-rule="evenodd" d="M85.159 50.1133C84.4197 50.1487 83.7018 50.3666 83.0735 50.7464C81.7034 51.5232 80.3797 52.8745 79.3905 54.5371C78.4012 56.1997 77.8476 57.9953 77.8476 59.5275C77.8476 60.9055 78.2861 61.9216 79.0726 62.3526C79.8591 62.7835 80.9717 62.6558 82.2048 61.9642C85.085 60.3681 87.4116 56.4178 87.4116 53.1858C87.4116 51.8025 86.9813 50.7916 86.1948 50.3607C85.8752 50.1881 85.5137 50.1017 85.148 50.1107L85.159 50.1133ZM80.1112 64.3024C79.4385 64.3121 78.7756 64.1448 78.1929 63.8183C76.8419 63.0628 76.0911 61.5412 76.0911 59.5302C76.0911 57.6947 76.7241 55.6198 77.8723 53.6965C79.0205 51.7732 80.5442 50.2091 82.1939 49.286C83.9834 48.2778 85.7125 48.1395 87.0635 48.9056C88.4145 49.6717 89.1572 51.1827 89.1572 53.1911C89.1572 57.0163 86.4771 61.5199 83.0626 63.4379C82.1726 63.9695 81.1555 64.2674 80.1112 64.3024Z" fill="#3C3C3C"/>
<path opacity="0.2" d="M125.519 127.454C132.14 127.454 137.506 125.184 137.506 122.383C137.506 119.582 132.14 117.311 125.519 117.311C118.899 117.311 113.532 119.582 113.532 122.383C113.532 125.184 118.899 127.454 125.519 127.454Z" fill="black"/>
<path fill-rule="evenodd" clip-rule="evenodd" d="M116.625 80.2645L115.239 78.3137L112.257 80.3947L110.912 81.6291L114.62 82.0288L116.625 80.2645Z" fill="white"/>
<path fill-rule="evenodd" clip-rule="evenodd" d="M117.232 79.785L115.867 77.8638C115.749 77.6973 115.57 77.5839 115.37 77.5484C115.169 77.5129 114.962 77.5582 114.795 77.6744L111.81 79.7465L111.73 79.8116L110.388 81.046C110.237 81.1865 110.147 81.3811 110.139 81.5875C110.131 81.7938 110.204 81.995 110.344 82.1472C110.471 82.2894 110.646 82.3792 110.835 82.3989L114.543 82.8014C114.654 82.813 114.767 82.8003 114.873 82.764C114.979 82.7277 115.075 82.6687 115.156 82.5912L117.14 80.8477C117.289 80.7149 117.381 80.5303 117.398 80.3316C117.415 80.1329 117.356 79.9353 117.232 79.7791V79.785ZM115.058 79.3942L115.588 80.1402L114.362 81.2177L112.71 81.0401L112.743 81.0075L115.058 79.3942Z" fill="#414141"/>
<path fill-rule="evenodd" clip-rule="evenodd" d="M129.101 118.563C129.283 118.508 129.442 118.395 129.556 118.243C129.669 118.09 129.73 117.904 129.73 117.714C129.73 117.523 129.669 117.338 129.556 117.185C129.442 117.032 129.283 116.92 129.101 116.864C128.644 116.633 128.14 116.513 127.629 116.513C127.117 116.513 126.613 116.633 126.157 116.864L122.29 119.096C122.107 119.152 121.948 119.264 121.834 119.417C121.721 119.57 121.66 119.755 121.66 119.946C121.66 120.136 121.721 120.322 121.834 120.475C121.948 120.628 122.107 120.74 122.29 120.795C122.746 121.026 123.25 121.147 123.761 121.147C124.273 121.147 124.777 121.026 125.233 120.795L129.101 118.563Z" fill="white"/>
<path fill-rule="evenodd" clip-rule="evenodd" d="M129.5 119.238C129.772 119.086 130.008 118.878 130.193 118.628C130.385 118.362 130.489 118.042 130.489 117.713C130.49 117.385 130.387 117.064 130.193 116.799L130.143 116.734C129.963 116.513 129.744 116.329 129.497 116.189L129.444 116.159C129.181 116.018 128.902 115.911 128.612 115.843L128.538 115.828C128.246 115.764 127.948 115.732 127.649 115.73C127.32 115.731 126.992 115.769 126.672 115.846C126.36 115.915 126.061 116.03 125.784 116.189L121.866 118.451C121.611 118.6 121.39 118.802 121.217 119.043L121.173 119.108C120.993 119.371 120.901 119.684 120.909 120.003C120.917 120.322 121.025 120.63 121.217 120.884L121.268 120.949C121.446 121.17 121.665 121.355 121.913 121.494C122.191 121.652 122.49 121.768 122.802 121.84L122.873 121.855C123.171 121.919 123.476 121.952 123.782 121.952C124.111 121.952 124.439 121.913 124.759 121.837C125.07 121.767 125.37 121.651 125.647 121.494L129.518 119.262L129.5 119.238ZM128.928 117.716C128.87 117.787 128.799 117.845 128.718 117.888L124.851 120.12C124.705 120.199 124.548 120.258 124.386 120.295C124.184 120.344 123.977 120.367 123.77 120.366C123.582 120.366 123.394 120.347 123.21 120.31H123.151C122.989 120.274 122.834 120.215 122.689 120.135C122.618 120.098 122.554 120.049 122.5 119.99L122.479 119.96C122.526 119.9 122.586 119.849 122.654 119.812L126.554 117.56C126.699 117.478 126.855 117.419 127.018 117.385C127.22 117.337 127.427 117.314 127.634 117.317C127.822 117.316 128.01 117.334 128.194 117.37H128.25C128.402 117.403 128.548 117.456 128.686 117.527L128.715 117.545C128.786 117.583 128.85 117.632 128.905 117.69V117.713C128.905 117.713 128.908 117.711 128.908 117.716H128.928Z" fill="#414141"/>
<path fill-rule="evenodd" clip-rule="evenodd" d="M137.256 123.17C137.438 123.114 137.597 123.002 137.711 122.849C137.824 122.696 137.885 122.51 137.885 122.32C137.885 122.13 137.824 121.944 137.711 121.791C137.597 121.638 137.438 121.526 137.256 121.47C136.799 121.239 136.295 121.119 135.784 121.119C135.272 121.119 134.768 121.239 134.312 121.47L130.445 123.702C130.262 123.758 130.103 123.87 129.99 124.023C129.876 124.176 129.815 124.362 129.815 124.552C129.815 124.742 129.876 124.928 129.99 125.081C130.103 125.234 130.262 125.346 130.445 125.402C130.901 125.632 131.405 125.753 131.916 125.753C132.428 125.753 132.932 125.632 133.388 125.402L137.256 123.17Z" fill="white"/>
<path fill-rule="evenodd" clip-rule="evenodd" d="M137.644 123.847C137.917 123.696 138.154 123.488 138.34 123.237C138.537 122.973 138.644 122.652 138.644 122.321C138.644 121.991 138.537 121.67 138.34 121.405L138.286 121.34C138.108 121.118 137.888 120.933 137.638 120.795C137.36 120.639 137.061 120.523 136.749 120.452C136.428 120.375 136.099 120.336 135.769 120.336C135.44 120.336 135.112 120.374 134.792 120.449C134.481 120.521 134.181 120.637 133.904 120.795L129.986 123.057C129.732 123.207 129.512 123.409 129.34 123.649C129.147 123.915 129.044 124.235 129.044 124.564C129.058 124.884 129.158 125.196 129.334 125.464C129.51 125.733 129.756 125.948 130.045 126.088C130.323 126.247 130.622 126.363 130.934 126.434H131.005C131.302 126.499 131.606 126.532 131.911 126.532C132.24 126.532 132.568 126.493 132.888 126.417C133.2 126.348 133.499 126.232 133.776 126.073L137.626 123.844L137.644 123.847ZM137.075 122.326C137.018 122.395 136.948 122.451 136.868 122.491L132.998 124.726C132.852 124.806 132.697 124.865 132.536 124.901C132.333 124.95 132.125 124.974 131.917 124.972C131.729 124.974 131.541 124.955 131.357 124.916H131.301C131.138 124.88 130.982 124.821 130.836 124.741C130.7 124.661 130.626 124.605 130.62 124.573C130.665 124.511 130.722 124.459 130.788 124.422L134.694 122.169C134.839 122.089 134.995 122.03 135.156 121.994C135.563 121.903 135.985 121.903 136.391 121.994C136.554 122.029 136.711 122.088 136.856 122.169C136.925 122.207 136.988 122.255 137.043 122.311L137.06 122.338L137.075 122.326Z" fill="#414141"/>
<path fill-rule="evenodd" clip-rule="evenodd" d="M126.734 82.0049C126.183 82.2178 125.709 82.5924 125.375 83.0796C125.041 83.5668 124.863 84.1436 124.863 84.7343C124.863 84.8142 124.863 84.8971 124.863 84.977L124.895 101.086C124.895 106.086 125.328 111.551 125.535 116.595C125.552 116.778 125.618 116.953 125.725 117.102C125.832 117.251 125.977 117.37 126.145 117.444C126.601 117.675 127.105 117.796 127.617 117.796C128.128 117.796 128.632 117.675 129.088 117.444C129.256 117.37 129.401 117.251 129.509 117.102C129.616 116.953 129.681 116.778 129.699 116.595C129.699 111.412 129.746 106.234 129.746 101.039L131.019 90.7967L132.633 91.7085L133.054 105.692C133.237 110.861 133.48 116.035 133.693 121.201C133.708 121.382 133.771 121.556 133.875 121.705C133.979 121.855 134.121 121.974 134.286 122.05C134.742 122.281 135.246 122.402 135.757 122.402C136.269 122.402 136.773 122.281 137.229 122.05C137.397 121.976 137.543 121.858 137.65 121.709C137.757 121.559 137.822 121.384 137.839 121.201C137.839 116.018 137.889 110.84 137.889 105.645L138.837 89.583C138.841 89.5022 138.841 89.4212 138.837 89.3403C138.837 87.5968 137.756 87.0343 136.468 86.312L132.322 83.9646L129.361 82.295C128.499 81.7977 127.617 81.6616 126.734 82.0049Z" fill="#2B7CFF"/>
<path fill-rule="evenodd" clip-rule="evenodd" d="M126.453 81.2767C125.756 81.5469 125.157 82.0213 124.734 82.6378C124.311 83.2542 124.084 83.9839 124.084 84.7313V85.0273L124.119 101.101C124.119 104.431 124.312 108.022 124.504 111.557C124.596 113.282 124.691 114.996 124.756 116.61C124.77 116.931 124.87 117.242 125.047 117.511C125.224 117.779 125.47 117.995 125.76 118.134C126.038 118.291 126.337 118.407 126.648 118.477C127.291 118.631 127.96 118.631 128.603 118.477C128.914 118.406 129.213 118.29 129.491 118.134C129.765 117.984 130.004 117.776 130.19 117.524L130.234 117.456C130.401 117.205 130.492 116.911 130.495 116.61C130.495 114.644 130.495 112.664 130.513 110.689C130.513 107.101 130.542 103.511 130.542 101.101L131.668 92.0666L131.884 92.188L132.289 105.74C132.411 109.179 132.556 112.578 132.704 115.97L132.926 121.219C132.939 121.539 133.039 121.85 133.215 122.118C133.39 122.387 133.635 122.603 133.924 122.743L133.977 122.773C134.239 122.916 134.519 123.022 134.809 123.089H134.883C135.175 123.153 135.473 123.186 135.772 123.187C136.101 123.187 136.429 123.148 136.749 123.072C137.061 123.003 137.36 122.887 137.637 122.728C137.912 122.579 138.152 122.372 138.339 122.121L138.381 122.05C138.549 121.8 138.64 121.506 138.641 121.204C138.641 119.277 138.641 117.338 138.662 115.399C138.662 111.755 138.692 108.108 138.692 105.648C138.692 100.456 139.438 94.6302 139.654 89.3433C139.654 87.1942 138.446 86.5133 136.989 85.6934C134.599 84.3465 132.162 82.8752 129.746 81.5994C129.25 81.3194 128.705 81.1366 128.141 81.0607C127.565 80.9911 126.98 81.0664 126.441 81.2797L126.453 81.2767ZM126.02 83.5206C126.266 83.1643 126.613 82.8892 127.015 82.7302C127.318 82.6123 127.646 82.5716 127.969 82.6118C128.337 82.6632 128.691 82.7837 129.014 82.967C131.383 84.3405 133.826 85.7289 136.237 87.0491C137.25 87.6204 138.093 88.097 138.093 89.3403C138.117 94.3193 137.463 100.562 137.131 105.645C137.131 109.683 137.131 112.536 137.107 115.39L137.087 121.189V121.207C137.031 121.276 136.961 121.334 136.882 121.375C136.737 121.456 136.58 121.515 136.417 121.55C136.215 121.598 136.007 121.621 135.798 121.618C135.611 121.621 135.423 121.603 135.239 121.565H135.183C135.032 121.532 134.887 121.479 134.75 121.408L134.721 121.39C134.575 121.307 134.501 121.245 134.501 121.216L134.273 115.887C134.128 112.465 133.977 109.04 133.859 105.669L133.441 91.6907C133.437 91.5564 133.398 91.4254 133.329 91.3103C133.259 91.1952 133.161 91.0999 133.045 91.0335L131.496 90.1603C131.385 90.0825 131.256 90.0347 131.122 90.0216C130.987 90.0084 130.852 90.0304 130.728 90.0852C130.605 90.1401 130.498 90.2261 130.417 90.3347C130.337 90.4433 130.286 90.5708 130.27 90.7049L128.999 100.915C128.996 100.958 128.996 101.002 128.999 101.045C128.999 105.05 128.999 107.853 128.976 110.668L128.952 116.589V116.61C128.896 116.679 128.827 116.737 128.748 116.778C128.602 116.859 128.445 116.919 128.283 116.956C127.877 117.043 127.457 117.043 127.051 116.956C126.887 116.919 126.73 116.86 126.583 116.778C126.441 116.695 126.367 116.633 126.367 116.604V116.574C126.299 114.875 126.204 113.179 126.112 111.471C125.923 107.998 125.733 104.467 125.733 101.11C125.718 95.7817 125.499 90.0419 125.689 84.755C125.672 84.3232 125.788 83.8967 126.02 83.5324V83.5206Z" fill="#414141"/>
<path fill-rule="evenodd" clip-rule="evenodd" d="M132.701 60.3246C132.296 60.6114 131.828 60.7984 131.337 60.8704C130.846 60.9425 130.344 60.8974 129.873 60.739C129.029 60.4045 128.92 59.6733 129.633 59.1079C130.039 58.8213 130.506 58.6344 130.998 58.5624C131.489 58.4904 131.991 58.5353 132.461 58.6935C133.308 59.028 133.415 59.7592 132.701 60.3246Z" fill="white"/>
<path fill-rule="evenodd" clip-rule="evenodd" d="M132.165 59.7326C131.88 59.9241 131.553 60.0458 131.212 60.0879C130.858 60.1499 130.494 60.1214 130.155 60.005C130.082 59.9777 130.015 59.9398 129.953 59.8925C129.997 59.8285 130.051 59.7724 130.113 59.7267C130.411 59.5293 130.749 59.4004 131.103 59.3492C131.457 59.298 131.818 59.3258 132.16 59.4307C132.231 59.4581 132.298 59.496 132.358 59.5432C132.313 59.6065 132.258 59.6624 132.195 59.709L132.165 59.7356V59.7326ZM131.44 61.6538C132.049 61.5727 132.629 61.3429 133.128 60.9848L133.181 60.9433C133.447 60.7418 133.661 60.4801 133.806 60.1796L133.844 60.0938C133.944 59.8461 133.977 59.5766 133.939 59.3123C133.904 59.0691 133.809 58.8384 133.664 58.6403L133.619 58.5782C133.384 58.2951 133.078 58.0804 132.731 57.9565C132.131 57.7469 131.489 57.6859 130.861 57.7787C130.232 57.8715 129.635 58.1154 129.121 58.4894C128.854 58.6917 128.639 58.9544 128.493 59.2561L128.455 59.3389C128.359 59.5761 128.325 59.834 128.357 60.0879V60.1264C128.398 60.3912 128.508 60.6405 128.677 60.8486C128.912 61.1331 129.219 61.3498 129.565 61.4762C130.168 61.6968 130.818 61.7579 131.452 61.6538H131.44Z" fill="#414141"/>
<path fill-rule="evenodd" clip-rule="evenodd" d="M129.518 63.1253C130.563 60.8844 126.038 58.91 124.747 61.728L121.075 73.036L114.966 78.0387C113.421 79.3027 115.188 81.2653 116.447 80.3832L123.095 75.7357C123.609 75.4395 124.011 74.9816 124.238 74.4332L129.518 63.1253Z" fill="white"/>
<path fill-rule="evenodd" clip-rule="evenodd" d="M130.225 63.4534C130.741 62.3552 130.368 61.3161 129.571 60.5761C129.256 60.2876 128.895 60.0544 128.502 59.8864C128.102 59.7127 127.677 59.6047 127.243 59.5667C126.582 59.4858 125.912 59.6212 125.334 59.9526C124.756 60.2839 124.301 60.7935 124.036 61.405C122.778 64.1905 121.419 69.4389 120.403 72.5737L114.48 77.4314C114.14 77.6788 113.88 78.0203 113.732 78.4137C113.583 78.8071 113.553 79.2354 113.645 79.6456C113.716 79.9518 113.852 80.2394 114.042 80.4893C114.228 80.7291 114.46 80.9302 114.723 81.0813C115.053 81.2858 115.436 81.3881 115.824 81.3755C116.212 81.3629 116.587 81.2358 116.903 81.0103L123.625 76.3125C124.226 75.9493 124.692 75.4008 124.954 74.7495L130.234 63.4416L130.225 63.4534ZM128.508 61.7188C128.669 61.8402 128.785 62.0114 128.839 62.2057C128.892 62.4 128.88 62.6066 128.804 62.7933L123.53 74.1012C123.371 74.493 123.089 74.8231 122.727 75.0425C120.477 76.5966 118.241 78.1774 116 79.7433C115.925 79.7924 115.838 79.8187 115.749 79.8187C115.66 79.8187 115.573 79.7924 115.499 79.7433C115.413 79.6939 115.337 79.6275 115.277 79.548C115.22 79.4734 115.178 79.3877 115.156 79.2963C115.137 79.17 115.155 79.0409 115.208 78.9245C115.26 78.808 115.345 78.709 115.452 78.6392L121.738 73.4944L125.47 62.0059C125.614 61.7042 125.85 61.4559 126.144 61.2964C126.438 61.1369 126.775 61.0744 127.107 61.1178C127.373 61.1411 127.633 61.207 127.877 61.3132C128.109 61.4109 128.323 61.5481 128.508 61.7188Z" fill="#414141"/>
<path fill-rule="evenodd" clip-rule="evenodd" d="M125.21 84.5244C124.65 84.2018 124.416 83.7637 124.502 83.3404V62.6783C124.712 60.7926 127.49 59.1941 128.71 59.8986L134.632 63.3206L136.833 64.5905C137.759 65.1086 138.938 66.2127 138.968 67.5182V88.8315C138.997 88.9591 138.997 89.0917 138.968 89.2193V89.3111H138.944C138.852 89.5834 139.202 89.8232 138.538 90.1991C137.875 90.5751 136.006 90.7586 135.038 90.1991L125.201 84.5215L125.21 84.5244Z" fill="white"/>
<path fill-rule="evenodd" clip-rule="evenodd" d="M125.565 83.8287C125.455 83.7687 125.36 83.6835 125.29 83.58C125.273 83.558 125.265 83.5304 125.269 83.5031C125.273 83.4499 125.273 83.3964 125.269 83.3432V62.7166C125.304 62.4999 125.38 62.2918 125.494 62.1039C125.803 61.6082 126.234 61.2004 126.746 60.9198C127.148 60.6578 127.618 60.5217 128.097 60.529C128.168 60.535 128.238 60.5551 128.301 60.5882C130.984 62.1364 133.72 63.8 136.442 65.2861C136.949 65.5712 137.392 65.957 137.745 66.4198C137.996 66.7383 138.147 67.125 138.177 67.5299V88.8432C138.177 88.9061 138.185 88.9688 138.201 89.0297V89.0652C138.147 89.214 138.128 89.3728 138.144 89.53H138.118C137.671 89.7035 137.193 89.7832 136.714 89.7639C136.271 89.7854 135.83 89.7011 135.426 89.5182L125.553 83.8168L125.565 83.8287ZM123.951 84.3822C124.155 84.7082 124.437 84.9787 124.771 85.1697L134.656 90.8769C135.297 91.2043 136.01 91.3641 136.729 91.3416C137.469 91.3566 138.204 91.2091 138.882 90.9095L138.941 90.8769C139.806 90.3766 139.797 89.9326 139.738 89.5152C139.753 89.4512 139.761 89.3857 139.761 89.3199V89.3021C139.776 89.2141 139.784 89.125 139.785 89.0356C139.784 88.9454 139.776 88.8553 139.761 88.7663V67.5032C139.729 66.7737 139.472 66.0719 139.027 65.4933C138.544 64.8473 137.932 64.3089 137.229 63.9125L129.107 59.2266C128.857 59.0828 128.579 58.994 128.292 58.9661C127.483 58.9229 126.679 59.1296 125.991 59.5581C125.241 59.9841 124.613 60.5957 124.167 61.3342C123.947 61.7057 123.802 62.1172 123.741 62.5449C123.736 62.5942 123.736 62.6437 123.741 62.6929V83.2988C123.685 83.6734 123.759 84.0559 123.951 84.3822Z" fill="#414141"/>
<path fill-rule="evenodd" clip-rule="evenodd" d="M133.735 59.6941H129.693L129.396 63.5423C129.393 63.5817 129.393 63.6213 129.396 63.6608C129.416 63.8652 129.489 64.0609 129.608 64.2279C129.728 64.3948 129.89 64.527 130.077 64.611C130.587 64.8692 131.151 65.0038 131.722 65.0038C132.294 65.0038 132.858 64.8692 133.367 64.611C133.555 64.5275 133.717 64.3954 133.837 64.2284C133.957 64.0614 134.03 63.8654 134.048 63.6608C134.052 63.6213 134.052 63.5817 134.048 63.5423L133.735 59.6941Z" fill="white"/>
<path fill-rule="evenodd" clip-rule="evenodd" d="M133.735 58.9128H128.97L128.62 63.4419C128.615 63.5129 128.615 63.5841 128.62 63.6551C128.623 64.0028 128.736 64.3407 128.943 64.6201C129.144 64.8905 129.399 65.1155 129.692 65.2802C130.32 65.6088 131.018 65.7804 131.727 65.7804C132.435 65.7804 133.133 65.6088 133.761 65.2802C134.057 65.1174 134.314 64.8934 134.516 64.6231C134.722 64.3419 134.835 64.0035 134.839 63.6551C134.685 62.0862 134.593 60.4877 134.472 58.9188L133.735 58.9128ZM130.418 60.4788H133.009C133.089 61.4941 133.125 62.6604 133.261 63.6551C133.254 63.6762 133.244 63.6962 133.231 63.7143C133.159 63.8024 133.069 63.8749 132.968 63.9274C132.582 64.1316 132.151 64.2335 131.715 64.2234C131.278 64.2319 130.846 64.1301 130.459 63.9274C130.36 63.8746 130.272 63.8021 130.202 63.7143C130.188 63.6973 130.178 63.6769 130.175 63.6551L130.418 60.4788Z" fill="#414141"/>
<path fill-rule="evenodd" clip-rule="evenodd" d="M129.501 50.9236L130.253 50.8111C132.151 50.5329 134.011 51.8472 134.209 53.7536L134.65 57.9896C134.767 58.9014 134.525 59.823 133.976 60.5605C133.428 61.298 132.614 61.794 131.707 61.9444L131.331 62.0007C129.433 62.2789 127.742 60.9409 127.374 59.0582L126.557 54.8784C126.181 52.9958 127.594 51.2019 129.501 50.9236Z" fill="white"/>
<path fill-rule="evenodd" clip-rule="evenodd" d="M129.604 51.6955L130.513 51.5653C131.185 51.5081 131.855 51.6963 132.399 52.0951C132.666 52.286 132.892 52.5276 133.064 52.8059C133.237 53.0843 133.353 53.394 133.406 53.7173C133.584 55.1589 133.702 56.6213 133.865 58.0688C133.946 58.8044 133.748 59.5437 133.311 60.1409C133.106 60.4192 132.848 60.6541 132.552 60.832C132.256 61.0098 131.927 61.1271 131.585 61.177L131.206 61.2333C130.865 61.284 130.517 61.2665 130.183 61.1816C129.849 61.0967 129.535 60.9462 129.26 60.7389C128.671 60.2929 128.269 59.6441 128.132 58.9184C127.854 57.4886 127.581 56.0529 127.297 54.6231C127.252 54.2988 127.273 53.9687 127.358 53.6525C127.443 53.3363 127.59 53.0403 127.791 52.7819C128.205 52.2331 128.806 51.8558 129.479 51.7222L129.604 51.7014V51.6955ZM130.128 50.0378C129.814 50.0851 129.494 50.1266 129.18 50.1828C128.128 50.3905 127.188 50.9786 126.542 51.8346C126.216 52.2587 125.979 52.7433 125.842 53.2602C125.706 53.777 125.674 54.3158 125.748 54.8451L125.781 55.0287L126.598 59.2085C126.809 60.3176 127.427 61.3079 128.33 61.9851C128.77 62.3155 129.27 62.5552 129.803 62.6904C130.336 62.8256 130.89 62.8535 131.434 62.7725L131.81 62.7192C132.356 62.6391 132.88 62.4516 133.353 62.1675C133.825 61.8835 134.237 61.5086 134.564 61.0645C135.234 60.1567 135.538 59.0305 135.417 57.9089C135.269 56.494 135.183 54.8895 134.958 53.5071C134.875 52.977 134.688 52.4685 134.408 52.0112C134.127 51.5539 133.758 51.1568 133.323 50.8429C132.469 50.217 131.417 49.9234 130.362 50.0171C130.285 50.0171 130.205 50.0259 130.128 50.0378Z" fill="#414141"/>
<path fill-rule="evenodd" clip-rule="evenodd" d="M129.5 50.9234L130.252 50.8139C132.151 50.5179 134.01 51.847 134.209 53.7534L134.65 57.9894C133.421 57.3707 132.553 56.5094 132.281 54.9434C129.444 55.7042 128.47 55.6864 126.53 53.8896C126.64 53.1413 126.988 52.4485 127.523 51.914C128.058 51.3796 128.752 51.0322 129.5 50.9234Z" fill="white"/>
<path fill-rule="evenodd" clip-rule="evenodd" d="M129.604 51.6954L130.468 51.5711C131.155 51.5014 131.842 51.6881 132.399 52.0951C132.936 52.4801 133.298 53.0625 133.406 53.7143C133.512 54.5728 133.589 55.4431 133.681 56.3045C133.343 55.8747 133.12 55.3649 133.036 54.8244C133.018 54.723 132.981 54.6262 132.926 54.5393C132.871 54.4524 132.799 54.3772 132.715 54.3181C132.631 54.259 132.536 54.217 132.435 54.1947C132.335 54.1724 132.231 54.1701 132.13 54.1879L132.032 54.2116C130.732 54.5579 129.87 54.7296 129.177 54.6201C128.585 54.5283 128.058 54.2175 127.371 53.6225C127.497 53.1956 127.729 52.8075 128.046 52.4947C128.468 52.0732 129.014 51.7982 129.604 51.7103V51.6954ZM130.128 50.0378L129.379 50.1502C128.457 50.2863 127.604 50.7149 126.944 51.3728C126.284 52.0233 125.86 52.8755 125.739 53.7942C125.724 53.9165 125.738 54.0407 125.78 54.1565C125.823 54.2723 125.892 54.3764 125.982 54.4603C127.072 55.4697 127.916 55.9848 128.943 56.1446C129.749 56.2749 130.596 56.1653 131.715 55.893C131.889 56.4135 132.158 56.8973 132.509 57.3198C133.004 57.8946 133.614 58.3595 134.3 58.6845C134.434 58.7513 134.584 58.779 134.733 58.7644C134.938 58.7427 135.127 58.6406 135.257 58.4802C135.388 58.3199 135.449 58.1145 135.428 57.9089C135.28 56.4939 135.194 54.8895 134.966 53.5071C134.886 52.9768 134.7 52.468 134.419 52.0105C134.139 51.553 133.771 51.156 133.335 50.8429C132.466 50.2056 131.392 49.9134 130.32 50.023L130.128 50.0378Z" fill="#414141"/>
<path fill-rule="evenodd" clip-rule="evenodd" d="M116.708 82.2537L123.217 86.0101L115.274 85.1546L108.769 81.3982L116.708 82.2537Z" fill="#F9FAFE"/>
<path fill-rule="evenodd" clip-rule="evenodd" d="M116.471 83.0146L119.633 84.8381L115.523 84.397L112.363 82.5706L116.471 83.0146ZM123.607 85.3354L117.155 81.6085C117.049 81.5362 116.927 81.4915 116.799 81.4783L108.86 80.6228C108.683 80.6049 108.504 80.6483 108.354 80.746C108.205 80.8437 108.093 80.9896 108.038 81.1596C107.983 81.3295 107.988 81.5131 108.052 81.6799C108.116 81.8467 108.235 81.9866 108.389 82.0762L114.848 85.8031C114.95 85.8732 115.068 85.9169 115.191 85.9304L123.134 86.7859C123.311 86.8031 123.488 86.7595 123.637 86.6622C123.786 86.5649 123.897 86.4197 123.953 86.2506C124.008 86.0816 124.004 85.8988 123.941 85.7324C123.878 85.5659 123.76 85.4259 123.607 85.3354Z" fill="#414141"/>
<path fill-rule="evenodd" clip-rule="evenodd" d="M121.783 80.5308L119.92 80.4598L119.032 81.7474L116.095 82.973C116.257 83.269 116.58 83.8225 116.891 83.7249C118.843 83.1151 118.031 84.3169 119.373 84.1423C121.241 83.8788 121.303 83.6686 123.69 82.5112L123.08 80.1963L121.783 80.5308Z" fill="white"/>
<path fill-rule="evenodd" clip-rule="evenodd" d="M121.697 79.7466L119.947 79.6815C119.817 79.676 119.687 79.7042 119.57 79.7633C119.453 79.8224 119.354 79.9104 119.281 80.0189L118.538 81.1142L115.813 82.2509C115.623 82.3314 115.473 82.4833 115.394 82.6738C115.315 82.8644 115.315 83.0783 115.393 83.2692C115.411 83.3134 115.433 83.356 115.458 83.3965C115.576 83.6056 115.713 83.8037 115.867 83.9885C116.192 84.3674 116.61 84.6191 117.134 84.4562C117.777 84.2549 117.833 84.3171 117.892 84.3763C118.188 84.7079 118.514 85.0364 119.494 84.9003C121.102 84.6723 121.472 84.4859 122.82 83.805C123.184 83.6244 123.622 83.4024 124.037 83.213C124.196 83.134 124.324 83.003 124.4 82.8416C124.475 82.6802 124.493 82.498 124.451 82.3249L123.841 80.01C123.79 79.813 123.663 79.6443 123.487 79.5401C123.312 79.436 123.103 79.4049 122.905 79.4535L121.697 79.7495V79.7466ZM120.317 81.2563L121.718 81.3096C121.803 81.3188 121.89 81.3118 121.973 81.2889L122.544 81.1438L122.793 82.0911L122.13 82.4226C120.945 83.0146 120.628 83.1804 119.281 83.3698C119.088 83.3965 119.05 83.3699 119.011 83.3166C118.851 83.1208 118.649 82.964 118.419 82.8577L119.349 82.47C119.49 82.4072 119.61 82.3043 119.693 82.174L120.317 81.2563Z" fill="#414141"/>
<path fill-rule="evenodd" clip-rule="evenodd" d="M133.915 67.1008L138.591 68.9361L133.178 80.031C133.076 80.2833 132.915 80.5078 132.709 80.6859C132.503 80.864 132.258 80.9906 131.993 81.0552L131.869 81.0789L123.465 82.7662C123.287 82.8128 123.101 82.8234 122.919 82.7975C122.737 82.7715 122.562 82.7094 122.404 82.6149C122.246 82.5205 122.109 82.3954 122 82.2472C121.891 82.0989 121.813 81.9305 121.77 81.7516C121.727 81.5728 121.72 81.3871 121.75 81.2056C121.78 81.0241 121.845 80.8504 121.943 80.6945C122.041 80.5387 122.169 80.4039 122.319 80.2981C122.47 80.1923 122.64 80.1176 122.819 80.0783L130.264 78.0062L133.915 67.1008Z" fill="white"/>
<path fill-rule="evenodd" clip-rule="evenodd" d="M139.462 66.2388C139.422 66.1414 139.363 66.0532 139.288 65.9792C139.213 65.9053 139.124 65.8473 139.026 65.8086C138.928 65.7699 138.824 65.7513 138.718 65.754C138.613 65.7567 138.51 65.7806 138.414 65.8242C138.318 65.8679 138.232 65.9304 138.161 66.0081C138.09 66.0857 138.036 66.1769 138.001 66.2762C137.966 66.3754 137.951 66.4807 137.958 66.5856C137.965 66.6906 137.993 66.7931 138.04 66.8871C138.138 67.099 138.192 67.3287 138.197 67.562C138.203 67.7953 138.159 68.0272 138.07 68.2428L138.005 68.3879C137.984 68.4293 137.96 68.4737 137.931 68.5211C136.154 71.3836 134.046 76.4663 132.473 79.6899L132.452 79.7402C132.396 79.8785 132.308 80.0013 132.195 80.0984C132.088 80.191 131.961 80.257 131.825 80.2908C128.985 80.8326 126.109 81.4186 123.278 82.0077C123.197 82.0254 123.114 82.0254 123.033 82.0077C122.955 81.9957 122.88 81.9684 122.813 81.9272C122.746 81.886 122.688 81.8319 122.642 81.768C122.55 81.6373 122.511 81.4761 122.535 81.318C122.556 81.2003 122.61 81.0912 122.692 81.0042C122.771 80.918 122.874 80.8572 122.988 80.8296C125.615 80.1191 128.241 79.3495 130.865 78.6242L133.474 70.8448C133.526 70.6523 133.503 70.4469 133.409 70.2709C133.315 70.0949 133.157 69.9617 132.967 69.8984C132.778 69.8352 132.572 69.8468 132.39 69.9308C132.209 70.0149 132.067 70.1651 131.993 70.3505L129.648 77.3425L122.624 79.311C122.278 79.3929 121.958 79.5587 121.692 79.7938C121.425 80.0288 121.221 80.3259 121.097 80.6587C120.973 80.9914 120.933 81.3497 120.98 81.7017C121.027 82.0537 121.161 82.3886 121.368 82.6767C121.704 83.1419 122.209 83.4558 122.775 83.55C122.919 83.572 123.065 83.5809 123.21 83.5766C123.352 83.5708 123.493 83.551 123.631 83.5174C125.872 83.0675 130.234 82.4695 132.168 81.8035C132.553 81.71 132.91 81.5263 133.21 81.2677C133.498 81.0215 133.725 80.7126 133.874 80.3648L139.272 69.2907L139.379 69.0954C139.427 69.0095 139.47 68.9205 139.506 68.8289C139.671 68.416 139.752 67.9741 139.743 67.5294C139.736 67.0848 139.64 66.6461 139.462 66.2388Z" fill="#414141"/>
<path fill-rule="evenodd" clip-rule="evenodd" d="M128.792 88.5852C128.613 88.4823 128.4 88.455 128.2 88.5091C128.001 88.5633 127.831 88.6944 127.728 88.8738C127.625 89.0532 127.597 89.2661 127.652 89.4657C127.706 89.6653 127.837 89.8352 128.016 89.938L132.257 92.3831C132.436 92.4814 132.646 92.5057 132.842 92.4506C133.039 92.3956 133.206 92.2657 133.308 92.0888C133.409 91.912 133.437 91.7023 133.386 91.5049C133.335 91.3075 133.208 91.1382 133.033 91.0333L128.792 88.5852Z" fill="#414141"/>
</svg>
