<svg width="140" height="130" viewBox="0 0 140 130" fill="none" xmlns="http://www.w3.org/2000/svg">
<path fill-rule="evenodd" clip-rule="evenodd" d="M78.0043 70.6801L64.3752 62.8462L0.877686 99.4671L14.5068 107.307L78.0043 70.6801Z" fill="white"/>
<path fill-rule="evenodd" clip-rule="evenodd" d="M2.64491 99.4675L14.5064 106.307L76.2363 70.6805L64.3748 63.8413L2.64491 99.4675ZM14.5064 108.169C14.3513 108.17 14.1988 108.129 14.0645 108.051L0.508508 100.217C0.374806 100.143 0.263469 100.034 0.185973 99.9015C0.108476 99.7694 0.067627 99.619 0.067627 99.4659C0.067627 99.3127 0.108476 99.1623 0.185973 99.0302C0.263469 98.8981 0.374806 98.789 0.508508 98.7143L63.9329 62.0933C64.068 62.0179 64.2201 61.9783 64.3748 61.9783C64.5295 61.9783 64.6817 62.0179 64.8167 62.0933L78.3727 69.9368C78.5084 70.0073 78.6216 70.1142 78.6997 70.2456C78.7778 70.377 78.8176 70.5276 78.8146 70.6805C78.8183 70.8347 78.7789 70.9869 78.7008 71.1199C78.6228 71.253 78.5091 71.3616 78.3727 71.4337L14.9483 108.061C14.8113 108.131 14.6601 108.168 14.5064 108.169Z" fill="#414141"/>
<path fill-rule="evenodd" clip-rule="evenodd" d="M14.5068 107.307L0.877686 99.467V106.484L14.5068 114.325V107.307Z" fill="#2B7CFF"/>
<path fill-rule="evenodd" clip-rule="evenodd" d="M1.76126 105.992L13.6227 112.831V107.803L1.76126 100.967V105.992ZM14.5065 115.208C14.3521 115.204 14.2007 115.164 14.0646 115.09L0.441909 107.234C0.316361 107.151 0.211375 107.04 0.134839 106.91C0.0583025 106.78 0.0121995 106.635 0 106.484L0.0731243 99.4671C0.0694416 99.3129 0.108848 99.1607 0.18691 99.0277C0.264972 98.8946 0.378602 98.786 0.515033 98.7139C0.637498 98.6405 0.777595 98.6017 0.920374 98.6017C1.06315 98.6017 1.20325 98.6405 1.32572 98.7139L14.9548 106.557C15.0803 106.641 15.1853 106.752 15.2619 106.882C15.3384 107.012 15.3845 107.157 15.3967 107.307L15.3236 114.325C15.3253 114.47 15.2929 114.614 15.2288 114.745C15.1648 114.876 15.0709 114.99 14.9548 115.078C14.8165 115.151 14.663 115.191 14.5065 115.195V115.208Z" fill="#414141"/>
<path fill-rule="evenodd" clip-rule="evenodd" d="M78.0042 70.6803L14.5066 107.308V114.325L77.931 77.707L78.0042 70.6803Z" fill="white"/>
<path fill-rule="evenodd" clip-rule="evenodd" d="M15.3839 107.81L15.3108 112.825L77.1138 77.2047V72.1834L15.3839 107.81ZM14.5001 115.195C14.3456 115.191 14.1943 115.151 14.0582 115.078C13.9213 115.006 13.8073 114.898 13.7291 114.765C13.651 114.631 13.6119 114.479 13.6163 114.325V107.307C13.6271 107.157 13.6726 107.011 13.7493 106.881C13.8259 106.751 13.9317 106.64 14.0582 106.557L77.5557 69.9301C77.6843 69.8484 77.8332 69.8042 77.9856 69.8025C78.138 69.8009 78.2878 69.8419 78.4181 69.9209C78.5484 69.9999 78.654 70.1138 78.7229 70.2496C78.7919 70.3855 78.8215 70.5379 78.8083 70.6897V77.7069C78.8114 77.8605 78.7717 78.0121 78.6937 78.1445C78.6157 78.2769 78.5024 78.3851 78.3664 78.4569L14.942 115.078C14.8075 115.149 14.6587 115.19 14.5065 115.195H14.5001Z" fill="#414141"/>
<path fill-rule="evenodd" clip-rule="evenodd" d="M78.0043 58.559L64.3752 50.7188L0.877686 87.346L14.5068 95.1799L78.0043 58.559Z" fill="white"/>
<path fill-rule="evenodd" clip-rule="evenodd" d="M2.6452 87.3455L14.5067 94.1784L76.2366 58.5585L64.3751 51.7193L2.6452 87.3455ZM14.5067 96.0502C14.3522 96.0461 14.2009 96.0058 14.0648 95.9327L0.508799 88.0892C0.373599 88.0181 0.260737 87.911 0.182732 87.7797C0.104727 87.6485 0.0646335 87.4982 0.0668991 87.3455C0.0631221 87.1904 0.102423 87.0374 0.180433 86.9033C0.258442 86.7692 0.372102 86.6593 0.508799 86.5859L63.9332 49.9746C64.0678 49.8976 64.2201 49.8572 64.3751 49.8572C64.5301 49.8572 64.6825 49.8976 64.817 49.9746L78.373 57.8085C78.5067 57.8833 78.6181 57.9924 78.6955 58.1245C78.773 58.2566 78.8139 58.407 78.8139 58.5601C78.8139 58.7133 78.773 58.8637 78.6955 58.9958C78.6181 59.1279 78.5067 59.237 78.373 59.3118L14.9486 95.9327C14.8122 96.0051 14.661 96.0453 14.5067 96.0502Z" fill="#414141"/>
<path fill-rule="evenodd" clip-rule="evenodd" d="M14.5068 95.1804L0.877686 87.3464V94.3636L14.5068 102.207V95.1804Z" fill="#2B7CFF"/>
<path fill-rule="evenodd" clip-rule="evenodd" d="M1.76126 93.8705L13.6227 100.71V95.682L1.76126 88.8492V93.88V93.8705ZM14.5065 103.068C14.3525 103.066 14.2011 103.028 14.0646 102.957L0.441909 95.1131C0.316034 95.03 0.210805 94.9192 0.134228 94.7892C0.0576503 94.6592 0.0117384 94.5135 0 94.3631L0.0731243 87.3364C0.070037 87.1827 0.109724 87.0313 0.187754 86.8988C0.265784 86.7664 0.379093 86.6582 0.515033 86.5864C0.637498 86.513 0.777595 86.4742 0.920374 86.4742C1.06315 86.4742 1.20325 86.513 1.32572 86.5864L14.9548 94.4299C15.0807 94.5115 15.186 94.6211 15.2627 94.7501C15.3393 94.879 15.3852 95.024 15.3967 95.1735L15.3236 102.2C15.3248 102.345 15.2921 102.489 15.2281 102.619C15.1641 102.749 15.0705 102.863 14.9548 102.95C14.8167 103.024 14.6631 103.064 14.5065 103.068Z" fill="#414141"/>
<path fill-rule="evenodd" clip-rule="evenodd" d="M78.0042 58.5591L14.5066 95.1801V102.207L77.931 65.5859L78.0042 58.5591Z" fill="white"/>
<path fill-rule="evenodd" clip-rule="evenodd" d="M15.384 95.682L15.3109 100.703L77.1139 65.0835V60.0622L15.384 95.682ZM14.5002 103.068C14.3462 103.066 14.1948 103.028 14.0583 102.957C13.9223 102.885 13.809 102.777 13.731 102.644C13.653 102.512 13.6133 102.36 13.6164 102.207V95.1799C13.6279 95.0294 13.6737 94.8836 13.7503 94.7536C13.8269 94.6236 13.9322 94.5129 14.0583 94.4299L77.5558 57.8089C77.6904 57.732 77.8427 57.6915 77.9977 57.6915C78.1528 57.6915 78.3051 57.732 78.4397 57.8089C78.5553 57.8966 78.6489 58.01 78.7129 58.1403C78.777 58.2705 78.8097 58.4138 78.8084 58.5589V65.5857C78.8114 65.7385 78.7716 65.8891 78.6936 66.0205C78.6155 66.1519 78.5022 66.2589 78.3665 66.3293L14.9421 102.957C14.8073 103.026 14.6583 103.064 14.5065 103.068H14.5002Z" fill="#414141"/>
<path fill-rule="evenodd" clip-rule="evenodd" d="M78.0043 46.4411L64.3752 38.5977L0.877686 75.2186L14.5068 83.0589L78.0043 46.4411Z" fill="white"/>
<path fill-rule="evenodd" clip-rule="evenodd" d="M2.64491 75.2183L14.5064 82.0575L76.2363 46.4409L64.3748 39.589L2.64491 75.2183ZM14.5064 83.9294C14.3519 83.9253 14.2006 83.885 14.0645 83.8118L0.508508 75.9683C0.374806 75.8935 0.263469 75.7845 0.185973 75.6524C0.108476 75.5203 0.067627 75.3699 0.067627 75.2167C0.067627 75.0636 0.108476 74.9132 0.185973 74.7811C0.263469 74.649 0.374806 74.5399 0.508508 74.4651L63.9329 37.8474C64.0675 37.7704 64.2198 37.73 64.3748 37.73C64.5298 37.73 64.6822 37.7704 64.8167 37.8474L78.3727 45.6877C78.5096 45.7591 78.6237 45.8677 78.7018 46.0009C78.78 46.134 78.8191 46.2865 78.8146 46.4409C78.8163 46.5943 78.776 46.7452 78.6981 46.8774C78.6202 47.0096 78.5077 47.118 78.3727 47.1909L14.9483 83.8118C14.8119 83.8842 14.6607 83.9245 14.5064 83.9294Z" fill="#414141"/>
<path fill-rule="evenodd" clip-rule="evenodd" d="M14.5068 83.0593L0.877686 75.219V82.2425L14.5068 90.0796V83.0593Z" fill="#2B7CFF"/>
<path fill-rule="evenodd" clip-rule="evenodd" d="M1.76126 81.7401L13.6227 88.5825V83.5611L1.76126 76.7188V81.7401ZM14.5065 90.9565C14.3521 90.9524 14.2007 90.9121 14.0646 90.8389L0.441909 82.9923C0.316034 82.9091 0.210805 82.7983 0.134228 82.6683C0.0576503 82.5384 0.0117384 82.3926 0 82.2422L0.0731243 75.2187C0.0694416 75.0645 0.108848 74.9123 0.18691 74.7793C0.264972 74.6462 0.378602 74.5376 0.515033 74.4655C0.638059 74.3938 0.777938 74.356 0.920374 74.356C1.06281 74.356 1.20269 74.3938 1.32572 74.4655L14.9548 82.309C15.0803 82.3925 15.1853 82.5034 15.2619 82.6333C15.3384 82.7632 15.3845 82.9088 15.3967 83.059L15.3236 90.0857C15.3241 90.2298 15.291 90.372 15.227 90.5011C15.163 90.6302 15.0698 90.7426 14.9548 90.8294C14.8165 90.9028 14.663 90.943 14.5065 90.947V90.9565Z" fill="#414141"/>
<path fill-rule="evenodd" clip-rule="evenodd" d="M78.0042 46.4411L14.5066 83.0588V90.0792L77.931 53.4583L78.0042 46.4411Z" fill="white"/>
<path fill-rule="evenodd" clip-rule="evenodd" d="M15.3838 83.5606L15.3107 88.582L77.1138 52.9558V47.9344L15.3838 83.5606ZM14.5 90.9465C14.3456 90.9423 14.1942 90.9021 14.0581 90.8289C13.9217 90.7576 13.808 90.6496 13.7299 90.517C13.6518 90.3845 13.6124 90.2327 13.6162 90.0789V83.0585C13.6277 82.9081 13.6735 82.7622 13.7501 82.6322C13.8267 82.5022 13.9321 82.3915 14.0581 82.3085L77.562 45.6875C77.6971 45.6121 77.8492 45.5725 78.0039 45.5725C78.1586 45.5725 78.3108 45.6121 78.4458 45.6875C78.5619 45.7755 78.6558 45.8895 78.7198 46.0203C78.7839 46.1511 78.8164 46.2951 78.8146 46.4407V53.4643C78.8169 53.6169 78.7768 53.7672 78.6988 53.8985C78.6208 54.0298 78.5079 54.1369 78.3727 54.2079L14.9483 90.8289C14.8119 90.9013 14.6607 90.9415 14.5064 90.9465H14.5Z" fill="#414141"/>
<path fill-rule="evenodd" clip-rule="evenodd" d="M78.0043 32.9629L64.3752 25.1226L34.9106 42.1189L48.5397 49.9592L78.0043 32.9629Z" fill="white"/>
<path fill-rule="evenodd" clip-rule="evenodd" d="M36.6846 42.1316L48.5461 48.9708L76.243 32.9756L64.3751 26.1237L36.6846 42.1316ZM48.5461 50.8427C48.3916 50.8385 48.2403 50.7983 48.1042 50.7251L34.4592 42.8689C34.343 42.7818 34.249 42.6684 34.1849 42.5381C34.1208 42.4077 34.0884 42.2641 34.0904 42.1189C34.0887 41.9733 34.1211 41.8292 34.1852 41.6984C34.2492 41.5676 34.3431 41.4537 34.4592 41.3657L63.9237 24.3789C64.0577 24.3004 64.2103 24.259 64.3656 24.259C64.521 24.259 64.6735 24.3004 64.8075 24.3789L78.3635 32.2128C78.4972 32.2876 78.6085 32.3967 78.686 32.5288C78.7635 32.6609 78.8044 32.8113 78.8044 32.9645C78.8044 33.1176 78.7635 33.268 78.686 33.4001C78.6085 33.5322 78.4972 33.6413 78.3635 33.7161L48.9085 50.7124C48.8034 50.7939 48.6727 50.8356 48.5397 50.83L48.5461 50.8427Z" fill="#414141"/>
<path fill-rule="evenodd" clip-rule="evenodd" d="M48.5397 49.9592L34.9106 42.1189V49.1424L48.4634 56.9764L48.5397 49.9592Z" fill="white"/>
<path fill-rule="evenodd" clip-rule="evenodd" d="M35.7945 48.6402L47.6528 55.4794V50.458L35.7945 43.6156V48.637V48.6402ZM48.4667 57.8566C48.3118 57.8555 48.1597 57.8151 48.0248 57.739L34.4592 49.8923C34.3329 49.8097 34.2273 49.699 34.1506 49.5689C34.074 49.4389 34.0284 49.2929 34.0173 49.1423L34.0905 42.1188C34.0768 41.9671 34.1064 41.8146 34.1757 41.679C34.2451 41.5434 34.3514 41.4302 34.4824 41.3525C34.6134 41.2747 34.7637 41.2355 34.916 41.2395C35.0683 41.2435 35.2164 41.2906 35.3431 41.3751L48.899 49.2154C49.0348 49.2854 49.1481 49.3924 49.2257 49.524C49.3034 49.6556 49.3422 49.8064 49.3378 49.9591V56.9858C49.3407 57.1382 49.3012 57.2884 49.2238 57.4198C49.1463 57.5511 49.0339 57.6583 48.899 57.7295C48.7666 57.8032 48.6182 57.8436 48.4667 57.847V57.8566Z" fill="#414141"/>
<path fill-rule="evenodd" clip-rule="evenodd" d="M78.004 32.9626L48.5394 49.959L48.4631 56.9761L77.9309 39.983L78.004 32.9626Z" fill="white"/>
<path fill-rule="evenodd" clip-rule="evenodd" d="M49.347 50.4614V55.4796L77.1202 39.478V34.4662L49.347 50.4614ZM48.4664 57.8472C48.3115 57.8462 48.1594 57.8057 48.0245 57.7296C47.9074 57.6424 47.8127 57.5286 47.748 57.3977C47.6834 57.2668 47.6506 57.1224 47.6525 56.9764V49.9593C47.6494 49.8052 47.6894 49.6533 47.768 49.5208C47.8467 49.3883 47.9608 49.2804 48.0976 49.2093L77.5621 32.213C77.6975 32.1384 77.8495 32.0993 78.004 32.0993C78.1586 32.0993 78.3106 32.1384 78.4459 32.213C78.5616 32.3006 78.6552 32.4141 78.7192 32.5443C78.7833 32.6745 78.816 32.8179 78.8147 32.963V39.9897C78.8177 40.1425 78.7779 40.2931 78.6998 40.4245C78.6218 40.5559 78.5085 40.6629 78.3728 40.7333L48.9083 57.7296C48.7731 57.8049 48.6212 57.8454 48.4664 57.8472Z" fill="#414141"/>
<path fill-rule="evenodd" clip-rule="evenodd" d="M78.0043 20.8351L64.3752 13.0012L34.9106 29.9975L48.5397 37.8378L78.0043 20.8351Z" fill="white"/>
<path fill-rule="evenodd" clip-rule="evenodd" d="M36.6847 29.9978L48.5461 36.837L76.2367 20.8386L64.3752 14.0058L36.6847 29.9978ZM48.5461 38.6994C48.391 38.6999 48.2385 38.6593 48.1042 38.5818L34.4592 30.7478C34.3449 30.6587 34.2525 30.5446 34.1889 30.4144C34.1253 30.2842 34.0923 30.1412 34.0923 29.9962C34.0923 29.8513 34.1253 29.7083 34.1889 29.5781C34.2525 29.4478 34.3449 29.3338 34.4592 29.2446L63.9333 12.2578C64.0684 12.1824 64.2205 12.1428 64.3752 12.1428C64.5299 12.1428 64.6821 12.1824 64.8171 12.2578L78.3731 20.1013C78.507 20.1752 78.6186 20.2836 78.6963 20.4152C78.774 20.5469 78.815 20.6969 78.815 20.8497C78.815 21.0026 78.774 21.1527 78.6963 21.2843C78.6186 21.4159 78.507 21.5243 78.3731 21.5982L48.9086 38.6009C48.801 38.6759 48.6705 38.7108 48.5398 38.6994H48.5461Z" fill="#414141"/>
<path fill-rule="evenodd" clip-rule="evenodd" d="M48.5397 37.8381L34.9106 29.9978V37.0213L48.4634 44.8585L48.5397 37.8381Z" fill="white"/>
<path fill-rule="evenodd" clip-rule="evenodd" d="M35.7945 36.5223L47.6528 43.3615V38.3402L35.7945 31.4978V36.5223ZM48.4667 45.7387C48.3122 45.7346 48.1608 45.6943 48.0248 45.6211L34.4592 37.7713C34.3327 37.6873 34.2271 37.5755 34.1505 37.4444C34.0739 37.3133 34.0284 37.1664 34.0173 37.0149L34.0905 29.9978C34.088 29.852 34.1201 29.7077 34.1842 29.5768C34.2483 29.4459 34.3426 29.332 34.4592 29.2446C34.5956 29.1733 34.7473 29.136 34.9012 29.136C35.0551 29.136 35.2067 29.1733 35.3431 29.2446L48.899 37.088C49.0349 37.1597 49.1479 37.2679 49.2255 37.4005C49.303 37.533 49.3419 37.6846 49.3378 37.838V44.8552C49.3421 45.0092 49.3033 45.1613 49.2258 45.2943C49.1483 45.4274 49.0351 45.5362 48.899 45.6084C48.7655 45.6795 48.6178 45.7196 48.4667 45.726V45.7387Z" fill="#414141"/>
<path fill-rule="evenodd" clip-rule="evenodd" d="M78.004 20.8354L48.5394 37.8381L48.4631 44.8585L77.9309 27.8622L78.004 20.8354Z" fill="white"/>
<path fill-rule="evenodd" clip-rule="evenodd" d="M49.3472 38.3401V43.3615L77.1204 27.3599V22.3385L49.3472 38.3401ZM48.4665 45.726C48.3121 45.7218 48.1607 45.6816 48.0246 45.6084C47.9075 45.5211 47.8128 45.4074 47.7482 45.2764C47.6835 45.1455 47.6508 45.0012 47.6527 44.8552V37.838C47.6484 37.6837 47.6879 37.5314 47.7667 37.3986C47.8454 37.2659 47.9603 37.1582 48.0977 37.088L77.5623 20.0853C77.6974 20.0101 77.8495 19.9707 78.0042 19.9707C78.1588 19.9707 78.3109 20.0101 78.4461 20.0853C78.5622 20.1733 78.656 20.2872 78.7201 20.418C78.7841 20.5488 78.8166 20.6929 78.8149 20.8385V27.862C78.8187 28.0158 78.7793 28.1676 78.7012 28.3002C78.6231 28.4328 78.5094 28.5408 78.373 28.6121L48.9084 45.6084C48.772 45.6808 48.6209 45.721 48.4665 45.726Z" fill="#414141"/>
<path fill-rule="evenodd" clip-rule="evenodd" d="M78.0043 8.71406L64.3752 0.880127L34.9106 17.8764L48.5397 25.7104L78.0043 8.71406Z" fill="#2B7CFF"/>
<path fill-rule="evenodd" clip-rule="evenodd" d="M36.6847 17.8765L48.5461 24.7157L76.2431 8.71407L64.3752 1.87488L36.6847 17.8765ZM48.5461 26.5812C48.3912 26.5774 48.2395 26.536 48.1042 26.4604L34.4592 18.6138C34.3449 18.5246 34.2525 18.4106 34.1889 18.2803C34.1253 18.1501 34.0923 18.0071 34.0923 17.8622C34.0923 17.7172 34.1253 17.5742 34.1889 17.444C34.2525 17.3137 34.3449 17.1997 34.4592 17.1106L63.9238 0.117393C64.0583 0.0404664 64.2107 0 64.3657 0C64.5207 0 64.673 0.0404664 64.8076 0.117393L78.3636 7.95135C78.4973 8.02613 78.6086 8.1352 78.6861 8.26731C78.7636 8.39943 78.8045 8.54981 78.8045 8.70296C78.8045 8.85611 78.7636 9.00649 78.6861 9.13861C78.6086 9.27072 78.4973 9.37979 78.3636 9.45457L48.899 26.4477C48.7993 26.5341 48.6717 26.5815 48.5398 26.5812H48.5461Z" fill="#414141"/>
<path fill-rule="evenodd" clip-rule="evenodd" d="M48.5397 25.7101L34.9106 17.8761V24.8933L48.4634 32.7336L48.5397 25.7101Z" fill="white"/>
<path fill-rule="evenodd" clip-rule="evenodd" d="M35.7945 24.4011L47.6528 31.2403V26.2126L35.7945 19.3702V24.4011ZM48.4667 33.6175C48.3122 33.6134 48.1609 33.5731 48.0248 33.5L34.4592 25.6437C34.3329 25.5611 34.2273 25.4504 34.1506 25.3204C34.074 25.1903 34.0284 25.0443 34.0173 24.8937L34.0905 17.867C34.0892 17.7228 34.1219 17.5803 34.186 17.4511C34.2501 17.3219 34.3437 17.2096 34.4592 17.1233C34.5943 17.0479 34.7464 17.0083 34.9012 17.0083C35.0559 17.0083 35.208 17.0479 35.3431 17.1233L48.9086 24.97C49.0446 25.0397 49.1581 25.1466 49.2358 25.2783C49.3134 25.4099 49.3521 25.5609 49.3473 25.7137V32.7404C49.3511 32.8938 49.312 33.0452 49.2345 33.1777C49.157 33.3102 49.0442 33.4185 48.9086 33.4904C48.7719 33.5617 48.6208 33.6009 48.4667 33.6048V33.6175Z" fill="#414141"/>
<path fill-rule="evenodd" clip-rule="evenodd" d="M78.004 8.71411L48.5394 25.7105L48.4631 32.734L77.9309 15.7408L78.004 8.71411Z" fill="white"/>
<path fill-rule="evenodd" clip-rule="evenodd" d="M49.3471 26.2124V31.2338L77.1204 15.2386V10.2172L49.3471 26.2124ZM48.4665 33.6046C48.312 33.6005 48.1607 33.5602 48.0246 33.4871C47.9096 33.3986 47.8163 33.285 47.7519 33.155C47.6874 33.0251 47.6535 32.8821 47.6526 32.737V25.7103C47.6484 25.5569 47.6881 25.4054 47.7669 25.2737C47.8457 25.142 47.9605 25.0355 48.0977 24.9666L77.5623 7.96394C77.6899 7.88155 77.8381 7.83653 77.99 7.83398C78.142 7.83142 78.2916 7.87144 78.4219 7.94949C78.5523 8.02754 78.6582 8.14053 78.7276 8.27564C78.7971 8.41074 78.8273 8.56257 78.8149 8.71396V15.7534C78.8183 15.9071 78.7788 16.0588 78.7007 16.1913C78.6226 16.3238 78.5091 16.4319 78.3729 16.5034L48.9084 33.4871C48.772 33.5595 48.6209 33.5997 48.4665 33.6046Z" fill="#414141"/>
<path fill-rule="evenodd" clip-rule="evenodd" d="M43.4563 28.6504L29.9003 20.8132L0.877686 37.5013L14.5068 45.3416L43.4563 28.6504Z" fill="#2B7CFF"/>
<path fill-rule="evenodd" clip-rule="evenodd" d="M2.64491 37.5009L14.5064 44.3338L41.6883 28.65L29.8999 21.8076L2.64491 37.5009ZM14.5064 46.2057C14.3515 46.2046 14.1994 46.1641 14.0645 46.0881L0.508508 38.2509C0.374806 38.1762 0.263469 38.0671 0.185973 37.935C0.108476 37.8029 0.067627 37.6525 0.067627 37.4993C0.067627 37.3462 0.108476 37.1958 0.185973 37.0637C0.263469 36.9316 0.374806 36.8225 0.508508 36.7477L29.458 20.0628C29.5795 19.9867 29.72 19.9463 29.8634 19.9463C30.0067 19.9463 30.1472 19.9867 30.2687 20.0628L43.8978 27.8968C44.0315 27.9716 44.1428 28.0806 44.2203 28.2127C44.2978 28.3449 44.3387 28.4952 44.3387 28.6484C44.3387 28.8015 44.2978 28.9519 44.2203 29.084C44.1428 29.2162 44.0315 29.3252 43.8978 29.4L14.9483 46.0881C14.8131 46.1634 14.6612 46.2038 14.5064 46.2057Z" fill="#414141"/>
<path fill-rule="evenodd" clip-rule="evenodd" d="M14.5068 45.3415L0.877686 37.5012V70.1209L14.5068 77.9581V45.3415Z" fill="#2B7CFF"/>
<path fill-rule="evenodd" clip-rule="evenodd" d="M1.76126 69.6218L13.6227 76.4546V45.8371L1.76126 39.0011V69.6218ZM14.5065 78.8382C14.3521 78.834 14.2007 78.7938 14.0646 78.7206L0.441909 70.8644C0.316837 70.7819 0.212094 70.6721 0.135557 70.5433C0.05902 70.4145 0.0126737 70.27 0 70.1207L0.0731243 37.501C0.0694416 37.3468 0.108848 37.1946 0.18691 37.0616C0.264972 36.9285 0.378603 36.8199 0.515033 36.7478C0.637498 36.6744 0.777596 36.6357 0.920375 36.6357C1.06315 36.6357 1.20325 36.6744 1.32572 36.7478L14.9548 44.5913C15.078 44.6762 15.1805 44.7876 15.2548 44.9175C15.3291 45.0473 15.3733 45.1921 15.384 45.3413L15.3109 77.9578C15.3121 78.1029 15.2794 78.2463 15.2154 78.3766C15.1514 78.5068 15.0578 78.6202 14.9421 78.7079C14.8076 78.7794 14.6587 78.8195 14.5065 78.8254V78.8382Z" fill="#414141"/>
<path fill-rule="evenodd" clip-rule="evenodd" d="M43.4561 28.6501L14.5066 45.3413V77.9579L43.4561 61.2698V28.6501Z" fill="white"/>
<path fill-rule="evenodd" clip-rule="evenodd" d="M15.3838 45.837L15.3107 76.4609L42.5657 60.7708V30.1437L15.3838 45.837ZM14.5 78.8254C14.3456 78.8212 14.1942 78.781 14.0581 78.7078C13.9217 78.6366 13.808 78.5285 13.7299 78.396C13.6518 78.2634 13.6124 78.1116 13.6162 77.9578V45.3412C13.6277 45.1908 13.6735 45.045 13.7501 44.915C13.8267 44.785 13.9321 44.6742 14.0581 44.5912L43.0077 27.8968C43.1428 27.8217 43.2949 27.7822 43.4496 27.7822C43.6042 27.7822 43.7563 27.8217 43.8915 27.8968C44.0174 27.9807 44.1226 28.092 44.1992 28.2225C44.2758 28.353 44.3216 28.4992 44.3334 28.65L44.2603 61.2697C44.2598 61.4145 44.2263 61.5573 44.1624 61.6873C44.0985 61.8172 44.0059 61.9309 43.8915 62.0197L14.9419 78.7078C14.8075 78.7793 14.6586 78.8195 14.5064 78.8254H14.5Z" fill="#414141"/>
<path fill-rule="evenodd" clip-rule="evenodd" d="M40.4996 51.2938V57.3671C40.4777 57.6201 40.4002 57.8652 40.2727 58.085C40.1452 58.3047 39.9709 58.4936 39.7621 58.6383L18.1882 71.0519C17.7463 71.2871 17.4539 71.0932 17.4539 70.6324V59.7602L17.6732 59.417C18.4839 58.3269 19.5807 57.7231 20.3246 57.9423L27.5445 60.0272C28.2821 60.2401 29.3122 59.7094 30.0497 58.6924L35.4988 51.7197C36.3095 50.6836 37.3427 50.1529 38.0771 50.4167L40.4996 51.2938Z" fill="white"/>
<path fill-rule="evenodd" clip-rule="evenodd" d="M18.3374 60.0494V69.9809L39.3199 57.8756C39.402 57.8162 39.4707 57.7403 39.5217 57.6527C39.5726 57.5651 39.6046 57.4678 39.6156 57.3671V51.8976L37.7748 51.2334C37.5523 51.1603 36.8211 51.3733 36.1535 52.2631L30.7012 59.2295C29.7474 60.5547 28.4185 61.1808 27.3122 60.8661L20.0955 58.7813C19.7998 58.6987 19.0623 59.0451 18.401 59.9318L18.3279 60.0494H18.3374ZM17.8192 72.0275C17.6119 72.0233 17.4092 71.9653 17.2311 71.8591C17.0173 71.7384 16.8418 71.5598 16.7249 71.3439C16.6079 71.1281 16.5542 70.8837 16.5698 70.6387V59.7665C16.5795 59.5882 16.6295 59.4143 16.716 59.258L17.0117 58.9212C18.0417 57.491 19.4406 56.7792 20.5469 57.116L27.7668 59.2008C28.0593 59.2803 28.7206 59.0006 29.385 58.1711L34.8373 51.1794C35.8673 49.8192 37.2662 49.1931 38.3725 49.5903L40.7283 50.458C40.9012 50.514 41.0518 50.6238 41.1582 50.7712C41.2645 50.9187 41.3211 51.0962 41.3196 51.2779V57.3512C41.299 57.7482 41.1888 58.1355 40.9972 58.4839C40.8056 58.8323 40.5376 59.1328 40.2133 59.3629L18.6299 71.7923C18.384 71.9384 18.105 72.0193 17.8192 72.0275Z" fill="#414141"/>
<path fill-rule="evenodd" clip-rule="evenodd" d="M33.8806 39.5035C35.8676 38.3181 37.5621 39.2811 37.5621 41.6678C37.5621 44.0545 35.8676 46.9466 33.8806 48.1415C31.7442 49.3269 30.1228 48.3608 30.1228 45.9773C30.1228 43.5937 31.7442 40.6953 33.8806 39.5035Z" fill="white"/>
<path fill-rule="evenodd" clip-rule="evenodd" d="M34.246 40.2595C32.4784 41.2924 30.9333 43.9143 30.9333 45.9801C30.9333 46.8032 31.2258 47.407 31.5945 47.6517C32.0364 47.8996 32.7009 47.7979 33.4384 47.3943C35.2061 46.3614 36.678 43.7395 36.678 41.6738C36.678 40.857 36.4587 40.2468 36.0168 40.0021C35.648 39.7606 34.9835 39.8559 34.246 40.2659V40.2595ZM32.1859 49.5173C31.693 49.5299 31.2067 49.402 30.7839 49.1486C29.7538 48.5829 29.2388 47.4483 29.2388 45.9705C29.2388 43.2723 31.0795 40.1006 33.4384 38.7531C34.6879 38.0158 35.9405 37.9205 36.9006 38.4862C37.9306 39.0614 38.4456 40.1896 38.4456 41.6642C38.4456 44.3688 36.6049 47.5405 34.246 48.888C33.6302 49.2832 32.9174 49.5009 32.1859 49.5173Z" fill="#414141"/>
<path opacity="0.2" d="M118.503 130C126.176 130 132.397 127.751 132.397 124.977C132.397 122.203 126.176 119.954 118.503 119.954C110.829 119.954 104.608 122.203 104.608 124.977C104.608 127.751 110.829 130 118.503 130Z" fill="black"/>
<path opacity="0.01" fill-rule="evenodd" clip-rule="evenodd" d="M129.2 119.062C132.316 120.859 132.316 123.775 129.2 125.572C126.084 127.369 121.036 127.369 117.923 125.572C114.81 123.775 114.807 120.859 117.923 119.062C121.039 117.264 126.087 117.264 129.2 119.062Z" fill="black"/>
<path opacity="0.01" fill-rule="evenodd" clip-rule="evenodd" d="M128.602 120.158C131.094 121.6 131.094 123.942 128.602 125.385C126.109 126.827 122.058 126.83 119.547 125.385C117.035 123.939 117.054 121.6 119.547 120.158C122.039 118.716 126.103 118.712 128.602 120.158Z" fill="black"/>
<path opacity="0.02" fill-rule="evenodd" clip-rule="evenodd" d="M128.038 121.189C129.961 122.298 129.961 124.098 128.038 125.207C126.115 126.316 122.999 126.319 121.077 125.207C119.154 124.095 119.154 122.298 121.077 121.189C122.999 120.08 126.115 120.077 128.038 121.189Z" fill="black"/>
<path opacity="0.02" fill-rule="evenodd" clip-rule="evenodd" d="M127.509 122.164C128.886 122.958 128.886 124.248 127.509 125.042C126.131 125.837 123.9 125.837 122.523 125.042C121.146 124.248 121.146 122.958 122.523 122.164C123.9 121.37 126.131 121.37 127.509 122.164Z" fill="black"/>
<path opacity="0.02" fill-rule="evenodd" clip-rule="evenodd" d="M127 123.089C127.857 123.585 127.857 124.388 127 124.883C126.518 125.13 125.984 125.258 125.442 125.258C124.901 125.258 124.367 125.13 123.884 124.883C123.024 124.388 123.024 123.585 123.884 123.089C124.367 122.843 124.901 122.715 125.442 122.715C125.984 122.715 126.518 122.843 127 123.089Z" fill="black"/>
<path opacity="0.02" fill-rule="evenodd" clip-rule="evenodd" d="M126.52 123.968C126.6 123.995 126.669 124.047 126.719 124.115C126.768 124.184 126.794 124.266 126.794 124.351C126.794 124.435 126.768 124.517 126.719 124.586C126.669 124.655 126.6 124.706 126.52 124.734C126.315 124.838 126.088 124.893 125.858 124.893C125.628 124.893 125.401 124.838 125.196 124.734C125.116 124.706 125.047 124.655 124.997 124.586C124.948 124.517 124.922 124.435 124.922 124.351C124.922 124.266 124.948 124.184 124.997 124.115C125.047 124.047 125.116 123.995 125.196 123.968C125.401 123.863 125.628 123.809 125.858 123.809C126.088 123.809 126.315 123.863 126.52 123.968Z" fill="black"/>
<path fill-rule="evenodd" clip-rule="evenodd" d="M123.146 87.0966C122.621 87.3013 122.17 87.6597 121.851 88.1248C121.533 88.5898 121.362 89.1401 121.361 89.7037C121.361 89.7826 121.361 89.8605 121.361 89.9374L120.884 105.029L121.722 120.024L117.728 122.429C117.744 122.604 117.806 122.771 117.909 122.913C118.011 123.056 118.15 123.168 118.31 123.239C118.742 123.47 119.226 123.585 119.716 123.575L124.327 121.395C124.487 121.323 124.625 121.211 124.727 121.068C124.828 120.926 124.891 120.759 124.907 120.585C124.908 120.564 124.908 120.543 124.907 120.523L124.62 105.571L125.499 95.1704L126.206 95.1953L126.985 108.471L128.774 123.762L124.742 126.254C124.758 126.429 124.82 126.596 124.923 126.738C125.025 126.881 125.164 126.993 125.324 127.064C125.755 127.294 126.238 127.41 126.727 127.401L131.298 125.257C131.514 125.145 131.692 124.971 131.809 124.756C131.889 124.505 131.907 124.239 131.862 123.98L130.974 108.44L131.51 92.5321C131.514 92.4543 131.514 92.3763 131.51 92.2985C131.51 90.6351 130.478 90.0993 129.257 89.4078L126.811 88.0248L125.68 87.4018C124.835 86.9003 123.994 86.7664 123.146 87.0966Z" fill="white"/>
<path fill-rule="evenodd" clip-rule="evenodd" d="M123.457 87.8627C123.086 88.0084 122.767 88.2623 122.541 88.5916C122.317 88.9192 122.198 89.3069 122.198 89.7036C122.195 89.7638 122.195 89.8241 122.198 89.8843L121.722 105.01L122.557 119.981C122.565 120.129 122.533 120.278 122.463 120.409C122.393 120.541 122.289 120.651 122.161 120.728L118.989 122.638L119.157 122.688C119.289 122.717 119.424 122.737 119.559 122.747L123.968 120.666C124.018 120.637 124.063 120.599 124.099 120.554L123.812 105.587V105.506L124.688 95.1049C124.706 94.8874 124.81 94.686 124.976 94.5447C125.143 94.4035 125.358 94.3338 125.576 94.3511L126.24 94.376C126.446 94.3826 126.641 94.4658 126.789 94.6093C126.937 94.7528 127.025 94.9462 127.037 95.1516L127.82 108.384L129.605 123.672C129.623 123.835 129.592 124.001 129.516 124.146C129.44 124.292 129.323 124.412 129.178 124.491L125.991 126.447L126.171 126.5C126.305 126.531 126.442 126.551 126.579 126.559L130.942 124.516C130.984 124.49 131.024 124.46 131.06 124.426L131.091 124.382C130.668 119.14 130.468 113.735 130.175 108.471C130.244 103.095 130.627 97.6685 130.724 92.2734C130.724 91.1303 129.935 90.6879 128.991 90.1553C127.767 89.5043 126.498 88.7691 125.299 88.0683C125.001 87.9001 124.674 87.7892 124.336 87.7412C124.04 87.7047 123.739 87.7421 123.46 87.8502L123.457 87.8627ZM121.183 87.6634C121.597 87.0603 122.183 86.5958 122.865 86.3302C123.392 86.1212 123.963 86.0484 124.526 86.1183C125.074 86.1916 125.602 86.3681 126.084 86.6386C127.33 87.2958 128.577 88.0403 129.795 88.7318C131.2 89.5292 132.369 90.1895 132.369 92.2859C131.821 94.5442 131.926 105.269 131.821 108.409C132.104 113.393 132.718 119.177 132.718 124.064C132.763 124.393 132.723 124.727 132.603 125.036L132.575 125.095C132.485 125.283 132.363 125.452 132.213 125.597C132.077 125.728 131.925 125.842 131.761 125.936L131.671 125.989L127.168 128.101C127.042 128.175 126.898 128.214 126.751 128.213C126.436 128.212 126.123 128.176 125.816 128.104C125.513 128.032 125.221 127.918 124.95 127.765C124.681 127.613 124.447 127.407 124.261 127.161C124.062 126.895 123.953 126.573 123.95 126.242C123.95 126.101 123.987 125.963 124.057 125.84C124.126 125.717 124.225 125.614 124.345 125.541L127.926 123.342C127.056 115.891 126.237 109.203 125.804 101.786L125.492 105.624L125.775 120.467V120.588C125.773 120.89 125.683 121.184 125.517 121.435L125.47 121.51C125.302 121.738 125.09 121.931 124.847 122.077C124.811 122.103 124.772 122.125 124.732 122.142L120.173 124.295C120.05 124.364 119.912 124.4 119.771 124.401C119.45 124.401 119.13 124.364 118.817 124.289C118.513 124.219 118.221 124.105 117.951 123.949C117.683 123.799 117.449 123.594 117.266 123.348C117.064 123.078 116.955 122.75 116.954 122.413C116.955 122.271 116.992 122.131 117.063 122.007C117.133 121.884 117.234 121.78 117.356 121.706L120.924 119.56L120.114 105.06L120.59 89.9466V89.6881C120.587 88.9606 120.804 88.2493 121.214 87.6478L121.183 87.6634Z" fill="#414141"/>
<path fill-rule="evenodd" clip-rule="evenodd" d="M121.734 120.024L117.74 122.429C117.756 122.603 117.818 122.77 117.921 122.913C118.023 123.055 118.162 123.168 118.322 123.239C118.754 123.469 119.238 123.585 119.728 123.575L124.339 121.394C124.473 121.328 124.591 121.236 124.688 121.123C124.785 121.01 124.858 120.879 124.903 120.737C123.32 120.977 122.454 120.955 121.734 120.024Z" fill="white"/>
<path fill-rule="evenodd" clip-rule="evenodd" d="M121.588 121.064L118.974 122.622L119.142 122.672C119.274 122.701 119.409 122.721 119.544 122.731L122.258 121.451C122.016 121.351 121.79 121.215 121.588 121.049V121.064ZM117.304 121.722L121.298 119.32C121.471 119.217 121.676 119.181 121.874 119.218C122.072 119.255 122.25 119.364 122.373 119.523C122.551 119.78 122.823 119.957 123.13 120.015C123.678 120.069 124.23 120.041 124.769 119.931C124.873 119.912 124.978 119.912 125.081 119.931C125.187 119.954 125.287 119.998 125.376 120.061C125.465 120.123 125.54 120.203 125.598 120.295C125.656 120.386 125.696 120.489 125.714 120.596C125.732 120.703 125.729 120.812 125.704 120.918C125.647 121.146 125.541 121.359 125.393 121.541L125.34 121.61C125.187 121.784 125.007 121.932 124.807 122.049C124.771 122.074 124.732 122.096 124.692 122.114L120.133 124.267C120.01 124.335 119.872 124.372 119.731 124.373C119.41 124.373 119.09 124.336 118.777 124.26C118.473 124.191 118.181 124.077 117.911 123.921C117.643 123.771 117.409 123.566 117.226 123.32C117.024 123.05 116.915 122.722 116.914 122.385C116.922 122.25 116.963 122.119 117.033 122.004C117.103 121.888 117.2 121.791 117.316 121.722H117.304Z" fill="#414141"/>
<path fill-rule="evenodd" clip-rule="evenodd" d="M128.783 123.765L124.751 126.257C124.767 126.432 124.83 126.599 124.932 126.742C125.035 126.884 125.173 126.996 125.334 127.067C125.765 127.297 126.247 127.413 126.736 127.404L131.307 125.261C131.524 125.148 131.702 124.974 131.818 124.759C131.843 124.704 131.861 124.647 131.871 124.588C130.313 124.8 129.497 124.691 128.783 123.765Z" fill="white"/>
<path fill-rule="evenodd" clip-rule="evenodd" d="M128.643 124.815L125.985 126.447L126.165 126.5C126.299 126.531 126.436 126.551 126.574 126.559L129.356 125.254C129.097 125.145 128.856 124.997 128.643 124.815ZM124.321 125.541L128.353 123.049C128.526 122.944 128.731 122.907 128.93 122.944C129.128 122.98 129.307 123.089 129.431 123.248C129.612 123.513 129.883 123.704 130.194 123.784C130.712 123.86 131.239 123.846 131.752 123.743C131.84 123.728 131.93 123.728 132.017 123.743C132.232 123.783 132.422 123.906 132.545 124.085C132.669 124.264 132.717 124.485 132.678 124.7L132.628 124.89L132.556 125.073C132.467 125.261 132.344 125.431 132.195 125.575C132.059 125.706 131.907 125.82 131.743 125.914L131.653 125.967L127.15 128.079C127.023 128.153 126.879 128.192 126.732 128.191C126.418 128.19 126.104 128.154 125.798 128.082C125.494 128.01 125.203 127.896 124.931 127.743C124.663 127.591 124.428 127.385 124.243 127.139C124.044 126.873 123.934 126.551 123.931 126.22C123.935 126.083 123.973 125.95 124.041 125.831C124.109 125.713 124.205 125.613 124.321 125.541Z" fill="#414141"/>
<path fill-rule="evenodd" clip-rule="evenodd" d="M111.792 82.8039L120.09 81.8196L120.183 81.7199C120.335 81.5464 120.452 81.3455 120.529 81.1281L125.493 69.553L121.404 68.1233L118.183 79.7388L111.542 80.6733H107.744L107.289 81.4769L107.965 82.455L108.9 83.4736C110.499 83.6013 110.595 83.0811 111.789 82.7852L111.792 82.8039Z" fill="white"/>
<path fill-rule="evenodd" clip-rule="evenodd" d="M111.691 81.9878L119.665 81.0534C119.695 80.9984 119.722 80.9411 119.743 80.882L124.392 70.039L121.968 69.1886L118.98 79.9569C118.937 80.1117 118.85 80.2506 118.729 80.3564C118.609 80.4621 118.459 80.5301 118.3 80.5519L111.66 81.4863C111.607 81.491 111.554 81.491 111.501 81.4863H108.304L108.616 81.9286L109.289 82.6638C109.705 82.6816 110.118 82.5869 110.485 82.3897L110.529 82.371C110.872 82.2051 111.231 82.0747 111.601 81.9816L111.701 81.9629L111.691 81.9878ZM120.185 82.6389L111.928 83.617C111.681 83.6863 111.44 83.777 111.208 83.888L111.168 83.9098C110.453 84.2871 109.637 84.4288 108.837 84.3147C108.629 84.298 108.436 84.2034 108.295 84.0499L107.36 83.0313L107.288 82.941L106.625 81.9847C106.53 81.8568 106.475 81.7042 106.466 81.5456C106.456 81.3869 106.493 81.2289 106.572 81.0908L107.027 80.2871C107.099 80.1616 107.203 80.0571 107.328 79.9839C107.453 79.9107 107.595 79.8714 107.74 79.8697L111.479 79.8541L117.54 78.9975L120.634 67.8554C120.67 67.7533 120.725 67.6592 120.796 67.5785C120.868 67.4977 120.955 67.4319 121.052 67.3847C121.15 67.3376 121.255 67.31 121.363 67.3037C121.471 67.2973 121.579 67.3123 121.681 67.3477L125.819 68.7961C125.919 68.8386 126.009 68.9002 126.084 68.9775C126.16 69.0549 126.22 69.1463 126.26 69.2468C126.3 69.3472 126.32 69.4545 126.319 69.5627C126.318 69.6708 126.295 69.7776 126.252 69.877L121.276 81.4365C121.224 81.581 121.159 81.7206 121.083 81.8539C120.998 81.9966 120.901 82.1321 120.793 82.2589L120.703 82.3554C120.571 82.5106 120.387 82.6115 120.185 82.6389Z" fill="#414141"/>
<path fill-rule="evenodd" clip-rule="evenodd" d="M121.339 83.1836L121.65 80.2338L120.653 76.5956C119.883 73.7921 119.672 69.3534 121.924 67.1106C122.859 66.1948 124.065 65.6155 124.757 66.0173L130.587 69.3814C131.478 69.8798 132.612 70.9389 132.64 72.1848L131.394 83.2709L131.706 85.0588C135.756 94.2167 131.771 98.6617 131.793 103.608C127.599 104.471 122.392 101.428 120.772 97.8019C120.849 96.2787 119.971 88.6752 121.339 83.1836Z" fill="#2B7CFF"/>
<path fill-rule="evenodd" clip-rule="evenodd" d="M120.526 83.0438L120.806 80.2995L119.853 76.814C119.324 74.8884 119.17 72.8793 119.398 70.8956C119.622 69.2291 120.208 67.6592 121.339 66.5347C121.865 65.9985 122.495 65.5747 123.19 65.2888C123.499 65.1435 123.837 65.0703 124.179 65.0746C124.521 65.079 124.857 65.1607 125.162 65.3137L130.977 68.6716C131.662 69.057 132.26 69.581 132.731 70.2103C133.168 70.7801 133.42 71.4707 133.451 72.1883V72.2942L132.204 83.265L132.475 84.8411C135.342 91.3824 134.273 95.572 133.345 99.2289C132.952 100.771 132.588 102.21 132.594 103.624C132.595 103.814 132.53 103.998 132.41 104.145C132.29 104.292 132.123 104.393 131.936 104.431C129.693 104.892 127.209 104.35 125.059 103.219C122.813 102.035 120.906 100.188 119.999 98.1543C119.944 98.0343 119.921 97.9026 119.93 97.7711C119.949 97.4378 119.93 96.7307 119.871 95.79C119.728 92.7343 119.472 87.3175 120.519 83.0531L120.526 83.0438ZM122.458 80.3151L122.146 83.2494C122.143 83.2936 122.136 83.3375 122.124 83.3802C121.118 87.4296 121.367 92.725 121.501 95.7028C121.541 96.547 121.573 97.2136 121.566 97.6465C122.352 99.2756 123.941 100.761 125.813 101.755C127.446 102.615 129.275 103.079 130.958 102.911C131.088 101.524 131.348 100.153 131.734 98.8146C132.603 95.3882 133.603 91.4696 130.924 85.4205C130.892 85.3543 130.87 85.2841 130.858 85.2118L130.547 83.4269C130.536 83.3505 130.536 83.2729 130.547 83.1964L131.793 72.1603C131.754 71.7999 131.615 71.4578 131.391 71.1728C131.061 70.7349 130.643 70.3709 130.163 70.1044C128.739 69.1014 125.932 67.6125 124.324 66.7341C124.135 66.6946 123.938 66.7245 123.769 66.8182C123.287 67.024 122.851 67.3237 122.486 67.6997C121.641 68.5407 121.196 69.7773 121.018 71.1261C120.813 72.8937 120.951 74.684 121.423 76.3997L122.408 79.9881C122.445 80.0928 122.462 80.2039 122.458 80.3151Z" fill="#414141"/>
<path fill-rule="evenodd" clip-rule="evenodd" d="M135.847 89.9843L136.367 93.7658L137.227 94.1271L138.162 97.3355L139.178 96.6284C138.991 92.2488 139.072 93.0556 137.885 89.6883L136.984 81.7827C136.962 81.5522 136.891 81.3291 136.775 81.1285C135.361 78.2472 134.376 75.2849 132.912 72.5687C131.562 70.0581 128.627 72.7805 129.97 74.9766L134.093 81.7827L135.847 89.9843Z" fill="white"/>
<path fill-rule="evenodd" clip-rule="evenodd" d="M136.666 89.9059L137.118 93.1859L137.545 93.3634C137.669 93.4159 137.778 93.4977 137.863 93.602C137.949 93.7062 138.007 93.8296 138.034 93.9615L138.271 94.7745C138.253 94.1786 138.197 93.5845 138.103 92.9959C137.959 92.3491 137.76 91.7156 137.51 91.102L137.102 89.9588C137.077 89.8941 137.062 89.8257 137.059 89.7563L136.158 81.8071L136.127 81.6793C136.11 81.6265 136.088 81.5754 136.062 81.5267L136.015 81.4333C135.364 80.1001 134.831 78.8354 134.304 77.5801C133.634 75.9853 132.974 74.406 132.185 72.9451C131.955 72.5184 131.696 72.3564 131.465 72.3751C131.336 72.3901 131.211 72.4372 131.104 72.5121C130.954 72.6127 130.824 72.7418 130.724 72.8922C130.555 73.1303 130.46 73.4127 130.45 73.7045C130.44 73.9963 130.515 74.2846 130.668 74.5337L134.796 81.3679C134.848 81.4552 134.883 81.5513 134.899 81.6513L136.65 89.8124V89.9059H136.666ZM135.551 93.8743L135.04 90.1364L133.316 82.0936L129.266 75.3779C128.946 74.8593 128.785 74.2583 128.803 73.6493C128.821 73.0402 129.018 72.4499 129.368 71.9515C129.592 71.622 129.878 71.3395 130.21 71.1198C130.549 70.8943 130.939 70.7572 131.344 70.7211C132.192 70.6525 133.048 71.0513 133.64 72.1539C134.482 73.7114 135.152 75.3125 135.822 76.9322C136.358 78.2093 136.9 79.502 137.486 80.6982C137.655 80.9839 137.761 81.3025 137.797 81.6326L138.691 89.5009L139.062 90.5413C139.346 91.2401 139.568 91.9624 139.726 92.6999C139.866 93.4413 139.9 94.273 139.975 96.064L139.994 96.5406C140.011 96.6872 139.987 96.8356 139.926 96.97C139.866 97.1043 139.769 97.2197 139.648 97.3038L138.632 98.0109C138.557 98.0594 138.475 98.0972 138.389 98.123C138.286 98.153 138.177 98.1623 138.07 98.1503C137.963 98.1384 137.859 98.1054 137.765 98.0533C137.671 98.0013 137.587 97.9311 137.52 97.8468C137.453 97.7626 137.403 97.6659 137.373 97.5623L136.551 94.734L136.049 94.5253C135.917 94.4691 135.801 94.3795 135.714 94.2655C135.627 94.1514 135.57 94.0166 135.551 93.8743Z" fill="#414141"/>
<path fill-rule="evenodd" clip-rule="evenodd" d="M127.683 65.5662L124.168 66.2078L124.52 69.5969C124.517 69.6311 124.517 69.6655 124.52 69.6997C124.568 69.8748 124.662 70.0339 124.793 70.1604C124.923 70.2869 125.085 70.3763 125.262 70.4192C125.746 70.5632 126.257 70.5909 126.755 70.5C127.252 70.409 127.72 70.2021 128.122 69.8959C128.273 69.794 128.393 69.6535 128.471 69.4892C128.549 69.3248 128.581 69.1425 128.565 68.9614C128.565 68.9272 128.565 68.8929 128.54 68.8586L127.683 65.5662Z" fill="white"/>
<path fill-rule="evenodd" clip-rule="evenodd" d="M127.081 66.5191L125.065 66.8867C125.15 67.6965 125.199 68.7556 125.34 69.5375C125.403 69.5871 125.475 69.6251 125.551 69.6496H125.58C125.918 69.7459 126.275 69.7587 126.62 69.687C126.979 69.6324 127.318 69.4878 127.605 69.2665C127.667 69.216 127.72 69.1549 127.761 69.0858L127.081 66.5098V66.5191ZM124.018 65.4071L127.496 64.7841C127.704 64.7349 127.924 64.7693 128.107 64.8799C128.291 64.9906 128.424 65.1686 128.477 65.376C128.767 66.4755 129.191 67.737 129.387 68.8335C129.444 69.1648 129.396 69.5055 129.25 69.8085C129.109 70.0906 128.911 70.34 128.667 70.5405C128.161 70.9333 127.569 71.2005 126.94 71.3201C126.311 71.4398 125.662 71.4085 125.047 71.2289H124.997C124.698 71.1277 124.425 70.963 124.196 70.746C123.98 70.5405 123.825 70.2798 123.747 69.9922C123.734 69.9494 123.724 69.9057 123.716 69.8614C123.542 68.7338 123.467 67.4723 123.349 66.326C123.319 66.1151 123.372 65.9008 123.497 65.7282C123.622 65.5556 123.809 65.4383 124.018 65.4009V65.4071Z" fill="#414141"/>
<path fill-rule="evenodd" clip-rule="evenodd" d="M124.261 56.7944C126.159 56.4487 128.237 57.6386 128.415 59.5729L128.805 63.8186C128.97 65.6065 128.312 67.4474 126.287 67.8181C124.349 68.1732 123.04 66.812 122.52 64.968L121.36 60.8625C120.84 59.0216 122.323 57.1495 124.261 56.7944Z" fill="white"/>
<path fill-rule="evenodd" clip-rule="evenodd" d="M124.115 55.9874C124.246 55.9617 124.378 55.944 124.511 55.9344C125.547 55.8418 126.585 56.096 127.462 56.6571C127.907 56.9356 128.29 57.3028 128.587 57.7358C128.884 58.1688 129.088 58.6584 129.188 59.1739C129.207 59.2736 129.222 59.3826 129.235 59.4854L129.624 63.7311C129.758 64.8459 129.526 65.974 128.963 66.9457C128.676 67.3793 128.304 67.7504 127.87 68.0368C127.435 68.3232 126.948 68.519 126.436 68.6124C125.924 68.7057 125.399 68.6948 124.891 68.5802C124.384 68.4657 123.904 68.2498 123.482 67.9456C122.614 67.2361 121.999 66.2646 121.728 65.1764L120.569 61.0741C120.541 60.9744 120.516 60.8622 120.494 60.7408C120.406 60.2298 120.423 59.7061 120.544 59.202C120.666 58.6979 120.89 58.224 121.202 57.8096C121.816 56.9688 122.693 56.3571 123.694 56.0715C123.832 56.0318 123.971 55.9996 124.112 55.9749L124.115 55.9874ZM124.66 57.5698C124.577 57.5768 124.493 57.5882 124.411 57.604C124.32 57.6194 124.229 57.6402 124.14 57.6663C123.496 57.8489 122.932 58.2401 122.535 58.7784C122.354 59.0149 122.223 59.2856 122.15 59.5742C122.077 59.8627 122.062 60.1631 122.108 60.4573C122.108 60.5102 122.133 60.5694 122.152 60.6411L123.311 64.7466C123.487 65.4879 123.895 66.1536 124.476 66.6467C124.716 66.8134 124.987 66.9312 125.273 66.9931C125.558 67.055 125.853 67.0599 126.141 67.0076C126.428 66.9552 126.703 66.8465 126.948 66.6878C127.193 66.5291 127.405 66.3235 127.571 66.0829C127.939 65.4191 128.085 64.6551 127.988 63.9024L127.596 59.6568L127.574 59.4792C127.512 59.1842 127.391 58.9049 127.217 58.6585C127.043 58.4121 126.821 58.2038 126.564 58.0463C126 57.6797 125.33 57.512 124.66 57.5698Z" fill="#414141"/>
<path fill-rule="evenodd" clip-rule="evenodd" d="M126.009 62.1582L127.184 68.3881C127.315 69.0858 128.624 69.9455 129.119 69.849L131.3 69.472C129.571 66.3229 130.179 63.6253 129.618 60.7036C128.995 57.4952 127.212 55.1777 124.009 55.7197C121.036 56.2181 120.581 58.738 120.893 60.4294L122.177 60.8126L126.009 62.1582Z" fill="white"/>
<path fill-rule="evenodd" clip-rule="evenodd" d="M126.823 62.0274L127.995 68.2324C128.117 68.4383 128.288 68.6106 128.493 68.7339C128.638 68.8496 128.796 68.9479 128.964 69.0267L130.092 68.8304C129.31 66.9802 129.21 65.295 129.107 63.6098C129.073 62.6824 128.977 61.7584 128.82 60.8438C128.527 59.3112 127.954 58.0216 127.082 57.2429C126.689 56.9019 126.221 56.6575 125.717 56.5293C125.213 56.4011 124.686 56.3927 124.177 56.5047L124.047 56.5296C122.947 56.7445 122.314 57.2959 121.984 57.9562C121.722 58.5225 121.615 59.1479 121.672 59.7691C123.23 60.2364 124.757 60.822 126.29 61.3671C126.432 61.4169 126.558 61.5049 126.654 61.6213C126.749 61.7378 126.811 61.8783 126.832 62.0274H126.823ZM126.374 68.5252L125.287 62.7594L121.94 61.5695L120.694 61.202C120.54 61.1623 120.402 61.0791 120.294 60.9625C120.187 60.8459 120.116 60.7008 120.089 60.5447V60.4637C119.891 59.3648 120.04 58.2314 120.516 57.2211C121.055 56.1402 122.055 55.24 123.741 54.913C123.794 54.9009 123.847 54.8915 123.9 54.8849C125.67 54.589 127.088 55.0469 128.178 56.0187C129.338 57.056 130.079 58.6664 130.438 60.5323C130.608 61.5178 130.712 62.5137 130.749 63.5132C130.858 65.3106 130.967 67.1141 132.024 69.0453C132.072 69.1307 132.105 69.2233 132.123 69.3195C132.155 69.5322 132.102 69.7489 131.977 69.9234C131.851 70.0979 131.662 70.2165 131.45 70.2539L129.269 70.6308C128.802 70.7149 128.113 70.4626 127.549 70.0608C127.014 69.7135 126.61 69.197 126.402 68.5937L126.374 68.5252Z" fill="#414141"/>
<path fill-rule="evenodd" clip-rule="evenodd" d="M111.171 84.7289L106.161 81.9753L103.59 79.2903L108.6 82.0408L111.171 84.7289Z" fill="white"/>
<path fill-rule="evenodd" clip-rule="evenodd" d="M110.775 85.4489L105.765 82.6984C105.668 82.6472 105.583 82.5761 105.516 82.4897L102.998 79.8576C102.863 79.716 102.783 79.5309 102.773 79.3355C102.762 79.1402 102.822 78.9476 102.941 78.7926C103.061 78.6375 103.232 78.5303 103.423 78.4903C103.615 78.4502 103.814 78.48 103.986 78.5742L108.996 81.3185C109.08 81.3667 109.156 81.4277 109.221 81.4991L111.766 84.1624C111.9 84.3047 111.979 84.4901 111.989 84.6852C111.998 84.8803 111.938 85.0725 111.819 85.2273C111.7 85.3821 111.529 85.4894 111.338 85.53C111.147 85.5706 110.947 85.5418 110.775 85.4489Z" fill="#414141"/>
</svg>
