<svg width="26" height="26" viewBox="0 0 26 26" fill="none" xmlns="http://www.w3.org/2000/svg">
<path d="M16.6312 17.1002C16.502 17.0995 16.3763 17.0587 16.2713 16.9836C16.1662 16.9085 16.087 16.8027 16.0445 16.6808C16.0021 16.5588 15.9984 16.4267 16.0341 16.3026C16.0697 16.1785 16.1429 16.0685 16.2437 15.9877L20.0437 13.0002L16.2937 10.0377C16.2292 9.98681 16.1755 9.92373 16.1354 9.85206C16.0954 9.78039 16.0698 9.70153 16.0602 9.61999C16.0507 9.53845 16.0572 9.45582 16.0796 9.37682C16.102 9.29782 16.1397 9.224 16.1905 9.15957C16.2414 9.09514 16.3045 9.04136 16.3762 9.00131C16.4478 8.96126 16.5267 8.93572 16.6082 8.92614C16.6898 8.91657 16.7724 8.92314 16.8514 8.9455C16.9304 8.96786 17.0042 9.00556 17.0687 9.05645L21.4437 12.5064C21.5189 12.5649 21.5799 12.6397 21.6218 12.7253C21.6637 12.8109 21.6855 12.9049 21.6855 13.0002C21.6855 13.0955 21.6637 13.1895 21.6218 13.2751C21.5799 13.3607 21.5189 13.4355 21.4437 13.4939L17.0124 16.9502C16.9058 17.0416 16.7715 17.0945 16.6312 17.1002Z" fill="#2B7CFF"/>
<path d="M9.45615 18.0314C9.31805 18.031 9.18399 17.9849 9.0749 17.9002L4.4749 14.3064C4.4027 14.2463 4.34498 14.1707 4.30602 14.0852C4.26707 13.9998 4.24789 13.9066 4.2499 13.8127C4.25108 13.7183 4.27362 13.6254 4.31583 13.541C4.35805 13.4565 4.41884 13.3828 4.49365 13.3252L9.05615 9.73143C9.12099 9.68055 9.19522 9.64293 9.27459 9.62073C9.35397 9.59853 9.43695 9.59218 9.51878 9.60205C9.60061 9.61191 9.6797 9.6378 9.75152 9.67823C9.82335 9.71866 9.88651 9.77284 9.9374 9.83768C9.98828 9.90252 10.0259 9.97675 10.0481 10.0561C10.0703 10.1355 10.0767 10.2185 10.0668 10.3003C10.0569 10.3821 10.031 10.4612 9.9906 10.5331C9.95017 10.6049 9.89599 10.668 9.83115 10.7189L5.8874 13.8439L9.8624 16.9689C9.96312 17.0497 10.0363 17.1598 10.072 17.2839C10.1077 17.408 10.104 17.5401 10.0615 17.662C10.019 17.784 9.93984 17.8898 9.8348 17.9649C9.72975 18.04 9.60402 18.0807 9.4749 18.0814L9.45615 18.0314Z" fill="#2B7CFF"/>
<path d="M11.1625 21.7502H11.025C10.9444 21.7325 10.868 21.699 10.8005 21.6516C10.7329 21.6042 10.6753 21.5439 10.6312 21.4742C10.587 21.4045 10.5571 21.3267 10.5432 21.2453C10.5292 21.164 10.5315 21.0807 10.55 21.0002L14.25 4.73773C14.2663 4.65664 14.2986 4.57961 14.345 4.5111C14.3913 4.44259 14.4508 4.38396 14.52 4.33861C14.5892 4.29326 14.6667 4.2621 14.748 4.24693C14.8293 4.23176 14.9128 4.23288 14.9937 4.25023C15.0738 4.26865 15.1494 4.30267 15.2163 4.35034C15.2832 4.39802 15.34 4.45841 15.3836 4.52806C15.4271 4.59772 15.4565 4.67527 15.47 4.75629C15.4835 4.83731 15.481 4.9202 15.4625 5.00023L11.75 21.2627C11.7197 21.3975 11.6456 21.5184 11.5393 21.6066C11.433 21.6948 11.3005 21.7453 11.1625 21.7502Z" fill="#2B7CFF"/>
</svg>
